<?xml version="1.0" encoding="UTF-8" standalone="no"?>
<!DOCTYPE svg PUBLIC "-//W3C//DTD SVG 1.1//EN"
 "http://www.w3.org/Graphics/SVG/1.1/DTD/svg11.dtd">
<!-- Generated by graphviz version 2.38.0 (20140413.2041)
 -->
<!-- Title: include/BinarySearchTree.h Pages: 1 -->
<svg width="144pt" height="140pt"
 viewBox="0.00 0.00 144.00 140.00" xmlns="http://www.w3.org/2000/svg" xmlns:xlink="http://www.w3.org/1999/xlink">
<g id="graph0" class="graph" transform="scale(1 1) rotate(0) translate(4 136)">
<title>include/BinarySearchTree.h</title>
<polygon fill="white" stroke="none" points="-4,4 -4,-136 140,-136 140,4 -4,4"/>
<!-- Node1 -->
<g id="node1" class="node"><title>Node1</title>
<g id="a_node1"><a xlink:title="二叉查找树类的接口和实现">
<polygon fill="#bfbfbf" stroke="black" points="0,-112.5 0,-131.5 136,-131.5 136,-112.5 0,-112.5"/>
<text text-anchor="middle" x="68" y="-119.5" font-family="Helvetica,sans-Serif" font-size="10.00">include/BinarySearchTree.h</text>
</a>
</g>
</g>
<!-- Node2 -->
<g id="node2" class="node"><title>Node2</title>
<g id="a_node2"><a xlink:href="a04523.html" target="_top" xlink:title="集合结构">
<polygon fill="white" stroke="black" points="16,-56.5 16,-75.5 56,-75.5 56,-56.5 16,-56.5"/>
<text text-anchor="middle" x="36" y="-63.5" font-family="Helvetica,sans-Serif" font-size="10.00">Set.h</text>
</a>
</g>
</g>
<!-- Node1&#45;&gt;Node2 -->
<g id="edge1" class="edge"><title>Node1&#45;&gt;Node2</title>
<path fill="none" stroke="midnightblue" d="M62.7159,-112.083C58.289,-104.613 51.8367,-93.7244 46.3821,-84.5199"/>
<polygon fill="midnightblue" stroke="midnightblue" points="49.2949,-82.5697 41.1858,-75.7511 43.2729,-86.1383 49.2949,-82.5697"/>
</g>
<!-- Node4 -->
<g id="node4" class="node"><title>Node4</title>
<g id="a_node4"><a xlink:title=" ">
<polygon fill="white" stroke="#bfbfbf" points="74,-56.5 74,-75.5 128,-75.5 128,-56.5 74,-56.5"/>
<text text-anchor="middle" x="101" y="-63.5" font-family="Helvetica,sans-Serif" font-size="10.00">iostream</text>
</a>
</g>
</g>
<!-- Node1&#45;&gt;Node4 -->
<g id="edge3" class="edge"><title>Node1&#45;&gt;Node4</title>
<path fill="none" stroke="midnightblue" d="M73.4493,-112.083C78.0145,-104.613 84.6684,-93.7244 90.2934,-84.5199"/>
<polygon fill="midnightblue" stroke="midnightblue" points="93.4241,-86.109 95.6521,-75.7511 87.4511,-82.4588 93.4241,-86.109"/>
</g>
<!-- Node3 -->
<g id="node3" class="node"><title>Node3</title>
<g id="a_node3"><a xlink:title=" ">
<polygon fill="white" stroke="#bfbfbf" points="16,-0.5 16,-19.5 56,-19.5 56,-0.5 16,-0.5"/>
<text text-anchor="middle" x="36" y="-7.5" font-family="Helvetica,sans-Serif" font-size="10.00">utility</text>
</a>
</g>
</g>
<!-- Node2&#45;&gt;Node3 -->
<g id="edge2" class="edge"><title>Node2&#45;&gt;Node3</title>
<path fill="none" stroke="midnightblue" d="M36,-56.083C36,-49.0059 36,-38.8611 36,-29.9865"/>
<polygon fill="midnightblue" stroke="midnightblue" points="39.5001,-29.751 36,-19.7511 32.5001,-29.7511 39.5001,-29.751"/>
</g>
</g>
</svg>
