<?xml version="1.0" encoding="UTF-8" standalone="no"?>
<!DOCTYPE svg PUBLIC "-//W3C//DTD SVG 1.1//EN"
 "http://www.w3.org/Graphics/SVG/1.1/DTD/svg11.dtd">
<!-- Generated by graphviz version 2.38.0 (20140413.2041)
 -->
<!-- Title: Set::BinarySearchTree&lt; Key_T, Other_T &gt; Pages: 1 -->
<svg width="216pt" height="457pt"
 viewBox="0.00 0.00 216.00 457.00" xmlns="http://www.w3.org/2000/svg" xmlns:xlink="http://www.w3.org/1999/xlink">
<g id="graph0" class="graph" transform="scale(1 1) rotate(0) translate(4 453)">
<title>Set::BinarySearchTree&lt; Key_T, Other_T &gt;</title>
<polygon fill="white" stroke="none" points="-4,4 -4,-453 212,-453 212,4 -4,4"/>
<!-- Node1 -->
<g id="node1" class="node"><title>Node1</title>
<g id="a_node1"><a xlink:title=" ">
<polygon fill="#bfbfbf" stroke="black" points="22,-0.5 22,-321.5 137,-321.5 137,-0.5 22,-0.5"/>
<text text-anchor="start" x="30" y="-309.5" font-family="Helvetica,sans-Serif" font-size="10.00">Set::BinarySearchTree</text>
<text text-anchor="middle" x="79.5" y="-298.5" font-family="Helvetica,sans-Serif" font-size="10.00">&lt; Key_T, Other_T &gt;</text>
<polyline fill="none" stroke="black" points="22,-291.5 137,-291.5 "/>
<text text-anchor="middle" x="79.5" y="-279.5" font-family="Helvetica,sans-Serif" font-size="10.00"> </text>
<polyline fill="none" stroke="black" points="22,-272.5 137,-272.5 "/>
<text text-anchor="start" x="30" y="-260.5" font-family="Helvetica,sans-Serif" font-size="10.00">+ BinarySearchTree()</text>
<text text-anchor="start" x="30" y="-249.5" font-family="Helvetica,sans-Serif" font-size="10.00">+ BinarySearchTree()</text>
<text text-anchor="start" x="30" y="-238.5" font-family="Helvetica,sans-Serif" font-size="10.00">+ BinarySearchTree()</text>
<text text-anchor="start" x="30" y="-227.5" font-family="Helvetica,sans-Serif" font-size="10.00">+ ~BinarySearchTree()</text>
<text text-anchor="start" x="30" y="-216.5" font-family="Helvetica,sans-Serif" font-size="10.00">+ findMin()</text>
<text text-anchor="start" x="30" y="-205.5" font-family="Helvetica,sans-Serif" font-size="10.00">+ findMax()</text>
<text text-anchor="start" x="30" y="-194.5" font-family="Helvetica,sans-Serif" font-size="10.00">+ contains()</text>
<text text-anchor="start" x="30" y="-183.5" font-family="Helvetica,sans-Serif" font-size="10.00">+ isEmpty()</text>
<text text-anchor="start" x="30" y="-172.5" font-family="Helvetica,sans-Serif" font-size="10.00">+ printTree()</text>
<text text-anchor="start" x="30" y="-161.5" font-family="Helvetica,sans-Serif" font-size="10.00">+ makeEmpty()</text>
<text text-anchor="start" x="30" y="-150.5" font-family="Helvetica,sans-Serif" font-size="10.00">+ insert()</text>
<text text-anchor="start" x="30" y="-139.5" font-family="Helvetica,sans-Serif" font-size="10.00">+ insert()</text>
<text text-anchor="start" x="30" y="-128.5" font-family="Helvetica,sans-Serif" font-size="10.00">+ remove()</text>
<text text-anchor="start" x="30" y="-117.5" font-family="Helvetica,sans-Serif" font-size="10.00">+ operator=()</text>
<text text-anchor="start" x="30" y="-106.5" font-family="Helvetica,sans-Serif" font-size="10.00">+ operator=()</text>
<text text-anchor="start" x="30" y="-95.5" font-family="Helvetica,sans-Serif" font-size="10.00">&#45; insert()</text>
<text text-anchor="start" x="30" y="-84.5" font-family="Helvetica,sans-Serif" font-size="10.00">&#45; insert()</text>
<text text-anchor="start" x="30" y="-73.5" font-family="Helvetica,sans-Serif" font-size="10.00">&#45; remove()</text>
<text text-anchor="start" x="30" y="-62.5" font-family="Helvetica,sans-Serif" font-size="10.00">&#45; findMin()</text>
<text text-anchor="start" x="30" y="-51.5" font-family="Helvetica,sans-Serif" font-size="10.00">&#45; findMax()</text>
<text text-anchor="start" x="30" y="-40.5" font-family="Helvetica,sans-Serif" font-size="10.00">&#45; contains()</text>
<text text-anchor="start" x="30" y="-29.5" font-family="Helvetica,sans-Serif" font-size="10.00">&#45; makeEmpty()</text>
<text text-anchor="start" x="30" y="-18.5" font-family="Helvetica,sans-Serif" font-size="10.00">&#45; printTree()</text>
<text text-anchor="start" x="30" y="-7.5" font-family="Helvetica,sans-Serif" font-size="10.00">&#45; clone()</text>
</a>
</g>
</g>
<!-- Node2 -->
<g id="node2" class="node"><title>Node2</title>
<g id="a_node2"><a xlink:href="a05353.html" target="_top" xlink:title="结点类">
<polygon fill="white" stroke="black" points="0,-369.5 0,-448.5 159,-448.5 159,-369.5 0,-369.5"/>
<text text-anchor="start" x="8" y="-436.5" font-family="Helvetica,sans-Serif" font-size="10.00">Set::BinarySearchTree</text>
<text text-anchor="middle" x="79.5" y="-425.5" font-family="Helvetica,sans-Serif" font-size="10.00">&lt; Key_T, Other_T &gt;::BinaryNode</text>
<polyline fill="none" stroke="black" points="0,-418.5 159,-418.5 "/>
<text text-anchor="start" x="8" y="-406.5" font-family="Helvetica,sans-Serif" font-size="10.00">+ element_</text>
<polyline fill="none" stroke="black" points="0,-399.5 159,-399.5 "/>
<text text-anchor="start" x="8" y="-387.5" font-family="Helvetica,sans-Serif" font-size="10.00">+ BinaryNode()</text>
<text text-anchor="start" x="8" y="-376.5" font-family="Helvetica,sans-Serif" font-size="10.00">+ BinaryNode()</text>
</a>
</g>
</g>
<!-- Node2&#45;&gt;Node1 -->
<g id="edge1" class="edge"><title>Node2&#45;&gt;Node1</title>
<path fill="none" stroke="#404040" d="M79.5,-369.292C79.5,-358.777 79.5,-346.679 79.5,-333.72"/>
<polygon fill="none" stroke="#404040" points="79.5001,-333.598 75.5,-327.598 79.5,-321.598 83.5,-327.598 79.5001,-333.598"/>
<text text-anchor="middle" x="91" y="-343" font-family="Helvetica,sans-Serif" font-size="10.00"> &#45;root</text>
</g>
<!-- Node2&#45;&gt;Node2 -->
<g id="edge2" class="edge"><title>Node2&#45;&gt;Node2</title>
<path fill="none" stroke="#404040" d="M159.071,-419.313C169.834,-417.584 177,-414.146 177,-409 177,-406.105 174.733,-403.751 170.833,-401.937"/>
<polygon fill="none" stroke="#404040" points="170.638,-401.883 163.789,-404.141 159.071,-398.687 165.92,-396.43 170.638,-401.883"/>
<text text-anchor="middle" x="192.5" y="-412" font-family="Helvetica,sans-Serif" font-size="10.00"> +left_</text>
<text text-anchor="middle" x="192.5" y="-401" font-family="Helvetica,sans-Serif" font-size="10.00">+right_</text>
</g>
</g>
</svg>
