<?xml version="1.0" encoding="UTF-8" standalone="no"?>
<!DOCTYPE svg PUBLIC "-//W3C//DTD SVG 1.1//EN"
 "http://www.w3.org/Graphics/SVG/1.1/DTD/svg11.dtd">
<!-- Generated by graphviz version 2.38.0 (20140413.2041)
 -->
<!-- Title: Set::BinarySearchTree&lt; Key_T, Other_T &gt;::BinaryNode Pages: 1 -->
<svg width="216pt" height="88pt"
 viewBox="0.00 0.00 216.00 88.00" xmlns="http://www.w3.org/2000/svg" xmlns:xlink="http://www.w3.org/1999/xlink">
<g id="graph0" class="graph" transform="scale(1 1) rotate(0) translate(4 84)">
<title>Set::BinarySearchTree&lt; Key_T, Other_T &gt;::BinaryNode</title>
<polygon fill="white" stroke="none" points="-4,4 -4,-84 212,-84 212,4 -4,4"/>
<!-- Node1 -->
<g id="node1" class="node"><title>Node1</title>
<g id="a_node1"><a xlink:title="结点类">
<polygon fill="#bfbfbf" stroke="black" points="0,-0.5 0,-79.5 159,-79.5 159,-0.5 0,-0.5"/>
<text text-anchor="start" x="8" y="-67.5" font-family="Helvetica,sans-Serif" font-size="10.00">Set::BinarySearchTree</text>
<text text-anchor="middle" x="79.5" y="-56.5" font-family="Helvetica,sans-Serif" font-size="10.00">&lt; Key_T, Other_T &gt;::BinaryNode</text>
<polyline fill="none" stroke="black" points="0,-49.5 159,-49.5 "/>
<text text-anchor="start" x="8" y="-37.5" font-family="Helvetica,sans-Serif" font-size="10.00">+ element_</text>
<polyline fill="none" stroke="black" points="0,-30.5 159,-30.5 "/>
<text text-anchor="start" x="8" y="-18.5" font-family="Helvetica,sans-Serif" font-size="10.00">+ BinaryNode()</text>
<text text-anchor="start" x="8" y="-7.5" font-family="Helvetica,sans-Serif" font-size="10.00">+ BinaryNode()</text>
</a>
</g>
</g>
<!-- Node1&#45;&gt;Node1 -->
<g id="edge1" class="edge"><title>Node1&#45;&gt;Node1</title>
<path fill="none" stroke="#404040" d="M159.071,-53.3072C169.834,-51.0764 177,-46.6406 177,-40 177,-36.1609 174.605,-33.0587 170.504,-30.6935"/>
<polygon fill="none" stroke="#404040" points="170.398,-30.6562 163.413,-32.4501 159.071,-26.6928 166.056,-24.899 170.398,-30.6562"/>
<text text-anchor="middle" x="192.5" y="-43" font-family="Helvetica,sans-Serif" font-size="10.00"> +left_</text>
<text text-anchor="middle" x="192.5" y="-32" font-family="Helvetica,sans-Serif" font-size="10.00">+right_</text>
</g>
</g>
</svg>
