<?xml version="1.0" encoding="UTF-8" standalone="no"?>
<!DOCTYPE svg PUBLIC "-//W3C//DTD SVG 1.1//EN"
 "http://www.w3.org/Graphics/SVG/1.1/DTD/svg11.dtd">
<!-- Generated by graphviz version 2.38.0 (20140413.2041)
 -->
<!-- Title: include/dLinkList.h Pages: 1 -->
<svg width="247pt" height="196pt"
 viewBox="0.00 0.00 246.50 196.00" xmlns="http://www.w3.org/2000/svg" xmlns:xlink="http://www.w3.org/1999/xlink">
<g id="graph0" class="graph" transform="scale(1 1) rotate(0) translate(4 192)">
<title>include/dLinkList.h</title>
<polygon fill="white" stroke="none" points="-4,4 -4,-192 242.5,-192 242.5,4 -4,4"/>
<!-- Node1 -->
<g id="node1" class="node"><title>Node1</title>
<g id="a_node1"><a xlink:title="双链表类">
<polygon fill="#bfbfbf" stroke="black" points="93.5,-168.5 93.5,-187.5 191.5,-187.5 191.5,-168.5 93.5,-168.5"/>
<text text-anchor="middle" x="142.5" y="-175.5" font-family="Helvetica,sans-Serif" font-size="10.00">include/dLinkList.h</text>
</a>
</g>
</g>
<!-- Node2 -->
<g id="node2" class="node"><title>Node2</title>
<g id="a_node2"><a xlink:href="a04526.html" target="_top" xlink:title="栈的抽象类">
<polygon fill="white" stroke="black" points="94,-112.5 94,-131.5 135,-131.5 135,-112.5 94,-112.5"/>
<text text-anchor="middle" x="114.5" y="-119.5" font-family="Helvetica,sans-Serif" font-size="10.00">List.h</text>
</a>
</g>
</g>
<!-- Node1&#45;&gt;Node2 -->
<g id="edge1" class="edge"><title>Node1&#45;&gt;Node2</title>
<path fill="none" stroke="midnightblue" d="M132.71,-168.083C127.375,-160.77 121.469,-150.181 117.474,-141.103"/>
<polygon fill="midnightblue" stroke="midnightblue" points="120.741,-139.847 113.907,-131.751 114.2,-142.342 120.741,-139.847"/>
</g>
<!-- Node5 -->
<g id="node5" class="node"><title>Node5</title>
<g id="a_node5"><a xlink:title=" ">
<polygon fill="white" stroke="#bfbfbf" points="91.5,-0.5 91.5,-19.5 145.5,-19.5 145.5,-0.5 91.5,-0.5"/>
<text text-anchor="middle" x="118.5" y="-7.5" font-family="Helvetica,sans-Serif" font-size="10.00">iostream</text>
</a>
</g>
</g>
<!-- Node1&#45;&gt;Node5 -->
<g id="edge11" class="edge"><title>Node1&#45;&gt;Node5</title>
<path fill="none" stroke="midnightblue" d="M145.392,-168.217C151.612,-147.883 164.673,-96.2392 151.5,-56 148.01,-45.3397 140.927,-35.1174 134.214,-27.1175"/>
<polygon fill="midnightblue" stroke="midnightblue" points="136.805,-24.7633 127.52,-19.66 131.596,-29.4395 136.805,-24.7633"/>
</g>
<!-- Node7 -->
<g id="node7" class="node"><title>Node7</title>
<g id="a_node7"><a xlink:title=" ">
<polygon fill="white" stroke="#bfbfbf" points="198.5,-112.5 198.5,-131.5 238.5,-131.5 238.5,-112.5 198.5,-112.5"/>
<text text-anchor="middle" x="218.5" y="-119.5" font-family="Helvetica,sans-Serif" font-size="10.00">utility</text>
</a>
</g>
</g>
<!-- Node1&#45;&gt;Node7 -->
<g id="edge12" class="edge"><title>Node1&#45;&gt;Node7</title>
<path fill="none" stroke="midnightblue" d="M154.711,-168.324C166.276,-160.107 183.875,-147.602 197.661,-137.807"/>
<polygon fill="midnightblue" stroke="midnightblue" points="199.943,-140.479 206.067,-131.834 195.888,-134.773 199.943,-140.479"/>
</g>
<!-- Node2&#45;&gt;Node1 -->
<g id="edge2" class="edge"><title>Node2&#45;&gt;Node1</title>
<path fill="none" stroke="midnightblue" d="M124.169,-131.751C129.494,-139.014 135.41,-149.589 139.435,-158.69"/>
<polygon fill="midnightblue" stroke="midnightblue" points="136.19,-160.003 143.043,-168.083 142.725,-157.493 136.19,-160.003"/>
</g>
<!-- Node3 -->
<g id="node3" class="node"><title>Node3</title>
<g id="a_node3"><a xlink:href="a04532.html" target="_top" xlink:title="单链表类的定义和实现">
<polygon fill="white" stroke="black" points="4.5,-56.5 4.5,-75.5 68.5,-75.5 68.5,-56.5 4.5,-56.5"/>
<text text-anchor="middle" x="36.5" y="-63.5" font-family="Helvetica,sans-Serif" font-size="10.00">sLinkList.h</text>
</a>
</g>
</g>
<!-- Node2&#45;&gt;Node3 -->
<g id="edge3" class="edge"><title>Node2&#45;&gt;Node3</title>
<path fill="none" stroke="midnightblue" d="M96.8531,-112.324C83.3344,-104.185 65.1644,-91.8395 52.1645,-82.0874"/>
<polygon fill="midnightblue" stroke="midnightblue" points="54.1563,-79.2028 44.1114,-75.8339 49.863,-84.7316 54.1563,-79.2028"/>
</g>
<!-- Node6 -->
<g id="node6" class="node"><title>Node6</title>
<g id="a_node6"><a xlink:href="a04529.html" target="_top" xlink:title="顺序表类">
<polygon fill="white" stroke="black" points="86.5,-56.5 86.5,-75.5 142.5,-75.5 142.5,-56.5 86.5,-56.5"/>
<text text-anchor="middle" x="114.5" y="-63.5" font-family="Helvetica,sans-Serif" font-size="10.00">seqList.h</text>
</a>
</g>
</g>
<!-- Node2&#45;&gt;Node6 -->
<g id="edge7" class="edge"><title>Node2&#45;&gt;Node6</title>
<path fill="none" stroke="midnightblue" d="M109.334,-112.083C107.824,-104.927 107.394,-94.6353 108.042,-85.6911"/>
<polygon fill="midnightblue" stroke="midnightblue" points="111.515,-86.1262 109.369,-75.7511 104.577,-85.2002 111.515,-86.1262"/>
</g>
<!-- Node3&#45;&gt;Node2 -->
<g id="edge4" class="edge"><title>Node3&#45;&gt;Node2</title>
<path fill="none" stroke="midnightblue" d="M54.1111,-75.6545C67.702,-83.8346 86.0086,-96.2772 99.0328,-106.061"/>
<polygon fill="midnightblue" stroke="midnightblue" points="97.041,-108.946 107.083,-112.324 101.34,-103.421 97.041,-108.946"/>
</g>
<!-- Node4 -->
<g id="node4" class="node"><title>Node4</title>
<g id="a_node4"><a xlink:title=" ">
<polygon fill="white" stroke="#bfbfbf" points="0,-0.5 0,-19.5 73,-19.5 73,-0.5 0,-0.5"/>
<text text-anchor="middle" x="36.5" y="-7.5" font-family="Helvetica,sans-Serif" font-size="10.00">initializer_list</text>
</a>
</g>
</g>
<!-- Node3&#45;&gt;Node4 -->
<g id="edge5" class="edge"><title>Node3&#45;&gt;Node4</title>
<path fill="none" stroke="midnightblue" d="M36.5,-56.083C36.5,-49.0059 36.5,-38.8611 36.5,-29.9865"/>
<polygon fill="midnightblue" stroke="midnightblue" points="40.0001,-29.751 36.5,-19.7511 33.0001,-29.7511 40.0001,-29.751"/>
</g>
<!-- Node3&#45;&gt;Node5 -->
<g id="edge6" class="edge"><title>Node3&#45;&gt;Node5</title>
<path fill="none" stroke="midnightblue" d="M49.6747,-56.324C62.3468,-47.979 81.7334,-35.2122 96.7056,-25.3524"/>
<polygon fill="midnightblue" stroke="midnightblue" points="98.9312,-28.0776 105.358,-19.6545 95.0813,-22.2313 98.9312,-28.0776"/>
</g>
<!-- Node6&#45;&gt;Node2 -->
<g id="edge8" class="edge"><title>Node6&#45;&gt;Node2</title>
<path fill="none" stroke="midnightblue" d="M119.631,-75.7511C121.157,-82.8579 121.604,-93.1357 120.972,-102.101"/>
<polygon fill="midnightblue" stroke="midnightblue" points="117.493,-101.713 119.666,-112.083 124.434,-102.622 117.493,-101.713"/>
</g>
<!-- Node6&#45;&gt;Node4 -->
<g id="edge9" class="edge"><title>Node6&#45;&gt;Node4</title>
<path fill="none" stroke="midnightblue" d="M101.968,-56.324C89.9141,-47.979 71.4732,-35.2122 57.2313,-25.3524"/>
<polygon fill="midnightblue" stroke="midnightblue" points="59.2151,-22.469 49.0009,-19.6545 55.2306,-28.2243 59.2151,-22.469"/>
</g>
<!-- Node6&#45;&gt;Node5 -->
<g id="edge10" class="edge"><title>Node6&#45;&gt;Node5</title>
<path fill="none" stroke="midnightblue" d="M115.161,-56.083C115.685,-49.0059 116.436,-38.8611 117.094,-29.9865"/>
<polygon fill="midnightblue" stroke="midnightblue" points="120.603,-29.9823 117.852,-19.7511 113.623,-29.4652 120.603,-29.9823"/>
</g>
</g>
</svg>
