<?xml version="1.0" encoding="UTF-8" standalone="no"?>
<!DOCTYPE svg PUBLIC "-//W3C//DTD SVG 1.1//EN"
 "http://www.w3.org/Graphics/SVG/1.1/DTD/svg11.dtd">
<!-- Generated by graphviz version 2.38.0 (20140413.2041)
 -->
<!-- Title: include/seqList.h Pages: 1 -->
<svg width="491pt" height="140pt"
 viewBox="0.00 0.00 490.50 140.00" xmlns="http://www.w3.org/2000/svg" xmlns:xlink="http://www.w3.org/1999/xlink">
<g id="graph0" class="graph" transform="scale(1 1) rotate(0) translate(4 136)">
<title>include/seqList.h</title>
<polygon fill="white" stroke="none" points="-4,4 -4,-136 486.5,-136 486.5,4 -4,4"/>
<!-- Node1 -->
<g id="node1" class="node"><title>Node1</title>
<g id="a_node1"><a xlink:title="顺序表类">
<polygon fill="#bfbfbf" stroke="black" points="272.5,-112.5 272.5,-131.5 362.5,-131.5 362.5,-112.5 272.5,-112.5"/>
<text text-anchor="middle" x="317.5" y="-119.5" font-family="Helvetica,sans-Serif" font-size="10.00">include/seqList.h</text>
</a>
</g>
</g>
<!-- Node2 -->
<g id="node2" class="node"><title>Node2</title>
<g id="a_node2"><a xlink:href="a04520.html" target="_top" xlink:title="优先级队列的接口和实现">
<polygon fill="white" stroke="black" points="113,-56.5 113,-75.5 222,-75.5 222,-56.5 113,-56.5"/>
<text text-anchor="middle" x="167.5" y="-63.5" font-family="Helvetica,sans-Serif" font-size="10.00">include/BinaryHeap.h</text>
</a>
</g>
</g>
<!-- Node1&#45;&gt;Node2 -->
<g id="edge1" class="edge"><title>Node1&#45;&gt;Node2</title>
<path fill="none" stroke="midnightblue" d="M284.275,-109.039C256.052,-98.8786 216.238,-84.5457 191.157,-75.5164"/>
<polygon fill="midnightblue" stroke="midnightblue" points="283.138,-112.349 293.732,-112.444 285.509,-105.763 283.138,-112.349"/>
</g>
<!-- Node6 -->
<g id="node6" class="node"><title>Node6</title>
<g id="a_node6"><a xlink:href="a04526.html" target="_top" xlink:title="栈的抽象类">
<polygon fill="white" stroke="black" points="280.5,-56.5 280.5,-75.5 354.5,-75.5 354.5,-56.5 280.5,-56.5"/>
<text text-anchor="middle" x="317.5" y="-63.5" font-family="Helvetica,sans-Serif" font-size="10.00">include/List.h</text>
</a>
</g>
</g>
<!-- Node1&#45;&gt;Node6 -->
<g id="edge5" class="edge"><title>Node1&#45;&gt;Node6</title>
<path fill="none" stroke="midnightblue" d="M311.028,-102.101C310.396,-93.1357 310.843,-82.8579 312.369,-75.7511"/>
<polygon fill="midnightblue" stroke="midnightblue" points="307.566,-102.622 312.334,-112.083 314.507,-101.713 307.566,-102.622"/>
</g>
<!-- Node3 -->
<g id="node3" class="node"><title>Node3</title>
<g id="a_node3"><a xlink:href="a04538.html" target="_top" xlink:title="程序设计题第1题：实现最大堆">
<polygon fill="white" stroke="black" points="0,-0.5 0,-19.5 73,-19.5 73,-0.5 0,-0.5"/>
<text text-anchor="middle" x="36.5" y="-7.5" font-family="Helvetica,sans-Serif" font-size="10.00">src/ch7_1.cc</text>
</a>
</g>
</g>
<!-- Node2&#45;&gt;Node3 -->
<g id="edge2" class="edge"><title>Node2&#45;&gt;Node3</title>
<path fill="none" stroke="midnightblue" d="M137.183,-52.503C112.624,-42.3795 78.682,-28.388 57.1602,-19.5164"/>
<polygon fill="midnightblue" stroke="midnightblue" points="136.163,-55.8683 146.743,-56.4435 138.831,-49.3966 136.163,-55.8683"/>
</g>
<!-- Node4 -->
<g id="node4" class="node"><title>Node4</title>
<g id="a_node4"><a xlink:href="a04541.html" target="_top" xlink:title="程序设计题第7题：实现基于最小堆的整型的优先级队列，包含功能findMin(x) 和 decreaseKey(i, value)">
<polygon fill="white" stroke="black" points="91,-0.5 91,-19.5 164,-19.5 164,-0.5 91,-0.5"/>
<text text-anchor="middle" x="127.5" y="-7.5" font-family="Helvetica,sans-Serif" font-size="10.00">src/ch7_7.cc</text>
</a>
</g>
</g>
<!-- Node2&#45;&gt;Node4 -->
<g id="edge3" class="edge"><title>Node2&#45;&gt;Node4</title>
<path fill="none" stroke="midnightblue" d="M154.8,-47.8554C147.874,-38.5048 139.594,-27.3265 133.982,-19.7511"/>
<polygon fill="midnightblue" stroke="midnightblue" points="152.13,-50.1307 160.895,-56.083 157.755,-45.9641 152.13,-50.1307"/>
</g>
<!-- Node5 -->
<g id="node5" class="node"><title>Node5</title>
<g id="a_node5"><a xlink:href="a04544.html" target="_top" xlink:title="优先级队列基本测试代码">
<polygon fill="white" stroke="black" points="182.5,-0.5 182.5,-19.5 250.5,-19.5 250.5,-0.5 182.5,-0.5"/>
<text text-anchor="middle" x="216.5" y="-7.5" font-family="Helvetica,sans-Serif" font-size="10.00">src/test0.cc</text>
</a>
</g>
</g>
<!-- Node2&#45;&gt;Node5 -->
<g id="edge4" class="edge"><title>Node2&#45;&gt;Node5</title>
<path fill="none" stroke="midnightblue" d="M182.534,-48.4314C191.122,-38.9673 201.543,-27.4827 208.559,-19.7511"/>
<polygon fill="midnightblue" stroke="midnightblue" points="179.719,-46.3254 175.591,-56.083 184.903,-51.0293 179.719,-46.3254"/>
</g>
<!-- Node6&#45;&gt;Node1 -->
<g id="edge6" class="edge"><title>Node6&#45;&gt;Node1</title>
<path fill="none" stroke="midnightblue" d="M323.958,-85.6911C324.606,-94.6353 324.176,-104.927 322.666,-112.083"/>
<polygon fill="midnightblue" stroke="midnightblue" points="327.423,-85.2002 322.631,-75.7511 320.485,-86.1262 327.423,-85.2002"/>
</g>
<!-- Node7 -->
<g id="node7" class="node"><title>Node7</title>
<g id="a_node7"><a xlink:href="a04523.html" target="_top" xlink:title="双链表类">
<polygon fill="white" stroke="black" points="268.5,-0.5 268.5,-19.5 366.5,-19.5 366.5,-0.5 268.5,-0.5"/>
<text text-anchor="middle" x="317.5" y="-7.5" font-family="Helvetica,sans-Serif" font-size="10.00">include/dLinkList.h</text>
</a>
</g>
</g>
<!-- Node6&#45;&gt;Node7 -->
<g id="edge7" class="edge"><title>Node6&#45;&gt;Node7</title>
<path fill="none" stroke="midnightblue" d="M311.028,-46.1005C310.396,-37.1357 310.843,-26.8579 312.369,-19.7511"/>
<polygon fill="midnightblue" stroke="midnightblue" points="307.566,-46.6216 312.334,-56.083 314.507,-45.7134 307.566,-46.6216"/>
</g>
<!-- Node8 -->
<g id="node8" class="node"><title>Node8</title>
<g id="a_node8"><a xlink:href="a04532.html" target="_top" xlink:title="单链表类的定义和实现">
<polygon fill="white" stroke="black" points="384.5,-0.5 384.5,-19.5 482.5,-19.5 482.5,-0.5 384.5,-0.5"/>
<text text-anchor="middle" x="433.5" y="-7.5" font-family="Helvetica,sans-Serif" font-size="10.00">include/sLinkList.h</text>
</a>
</g>
</g>
<!-- Node6&#45;&gt;Node8 -->
<g id="edge9" class="edge"><title>Node6&#45;&gt;Node8</title>
<path fill="none" stroke="midnightblue" d="M340.109,-51.7261C360.241,-41.7271 389.335,-28.3065 409.799,-19.6545"/>
<polygon fill="midnightblue" stroke="midnightblue" points="338.365,-48.6858 331.023,-56.324 341.526,-54.9316 338.365,-48.6858"/>
</g>
<!-- Node7&#45;&gt;Node6 -->
<g id="edge8" class="edge"><title>Node7&#45;&gt;Node6</title>
<path fill="none" stroke="midnightblue" d="M323.958,-29.6911C324.606,-38.6353 324.176,-48.9272 322.666,-56.083"/>
<polygon fill="midnightblue" stroke="midnightblue" points="327.423,-29.2002 322.631,-19.7511 320.485,-30.1262 327.423,-29.2002"/>
</g>
<!-- Node8&#45;&gt;Node6 -->
<g id="edge10" class="edge"><title>Node8&#45;&gt;Node6</title>
<path fill="none" stroke="midnightblue" d="M411.179,-24.1312C390.961,-34.1826 361.542,-47.7541 340.969,-56.4435"/>
<polygon fill="midnightblue" stroke="midnightblue" points="412.947,-27.1587 420.285,-19.5164 409.783,-20.9146 412.947,-27.1587"/>
</g>
</g>
</svg>
