<?xml version="1.0" encoding="UTF-8" standalone="no"?>
<!DOCTYPE svg PUBLIC "-//W3C//DTD SVG 1.1//EN"
 "http://www.w3.org/Graphics/SVG/1.1/DTD/svg11.dtd">
<!-- Generated by graphviz version 2.38.0 (20140413.2041)
 -->
<!-- Title: main Pages: 1 -->
<svg width="239pt" height="154pt"
 viewBox="0.00 0.00 239.00 153.50" xmlns="http://www.w3.org/2000/svg" xmlns:xlink="http://www.w3.org/1999/xlink">
<g id="graph0" class="graph" transform="scale(1 1) rotate(0) translate(4 149.5)">
<title>main</title>
<polygon fill="white" stroke="none" points="-4,4 -4,-149.5 235,-149.5 235,4 -4,4"/>
<!-- Node1 -->
<g id="node1" class="node"><title>Node1</title>
<g id="a_node1"><a xlink:title="测试程序">
<polygon fill="#bfbfbf" stroke="black" points="0,-57.5 0,-76.5 38,-76.5 38,-57.5 0,-57.5"/>
<text text-anchor="middle" x="19" y="-64.5" font-family="Helvetica,sans-Serif" font-size="10.00">main</text>
</a>
</g>
</g>
<!-- Node2 -->
<g id="node2" class="node"><title>Node2</title>
<g id="a_node2"><a xlink:href="a05359.html#a91f8461e3e7bba1500e08ea0f33a710b" target="_top" xlink:title="判队空">
<polygon fill="white" stroke="black" points="85,-115 85,-145 220,-145 220,-115 85,-115"/>
<text text-anchor="start" x="93" y="-133" font-family="Helvetica,sans-Serif" font-size="10.00">Priority_queue::BinaryHeap</text>
<text text-anchor="middle" x="152.5" y="-122" font-family="Helvetica,sans-Serif" font-size="10.00">::empty</text>
</a>
</g>
</g>
<!-- Node1&#45;&gt;Node2 -->
<g id="edge1" class="edge"><title>Node1&#45;&gt;Node2</title>
<path fill="none" stroke="midnightblue" d="M31.3626,-76.5382C41.8694,-84.9701 58.2018,-97.1211 74,-105 78.5486,-107.268 83.3482,-109.393 88.2385,-111.369"/>
<polygon fill="midnightblue" stroke="midnightblue" points="87.122,-114.689 97.7127,-114.985 89.6182,-108.149 87.122,-114.689"/>
</g>
<!-- Node3 -->
<g id="node3" class="node"><title>Node3</title>
<g id="a_node3"><a xlink:href="a05359.html#a2f10a9f3155ceb3d0fb15fa69e8ce24a" target="_top" xlink:title="队头元素出队">
<polygon fill="white" stroke="black" points="74,-76.5 74,-95.5 231,-95.5 231,-76.5 74,-76.5"/>
<text text-anchor="middle" x="152.5" y="-83.5" font-family="Helvetica,sans-Serif" font-size="10.00">Priority_queue::BinaryHeap::pop</text>
</a>
</g>
</g>
<!-- Node1&#45;&gt;Node3 -->
<g id="edge2" class="edge"><title>Node1&#45;&gt;Node3</title>
<path fill="none" stroke="midnightblue" d="M38.0088,-69.602C48.084,-71.0578 61.4042,-72.9824 75.3652,-74.9995"/>
<polygon fill="midnightblue" stroke="midnightblue" points="75.2093,-78.5133 85.607,-76.4793 76.2103,-71.5852 75.2093,-78.5133"/>
</g>
<!-- Node4 -->
<g id="node4" class="node"><title>Node4</title>
<g id="a_node4"><a xlink:href="a05359.html#ae3638b9c204f48f49e0cfb8fe12e7d89" target="_top" xlink:title="返回队头元素值">
<polygon fill="white" stroke="black" points="75,-38.5 75,-57.5 230,-57.5 230,-38.5 75,-38.5"/>
<text text-anchor="middle" x="152.5" y="-45.5" font-family="Helvetica,sans-Serif" font-size="10.00">Priority_queue::BinaryHeap::top</text>
</a>
</g>
</g>
<!-- Node1&#45;&gt;Node4 -->
<g id="edge3" class="edge"><title>Node1&#45;&gt;Node4</title>
<path fill="none" stroke="midnightblue" d="M38.0088,-64.398C48.084,-62.9422 61.4042,-61.0176 75.3652,-59.0005"/>
<polygon fill="midnightblue" stroke="midnightblue" points="76.2103,-62.4148 85.607,-57.5207 75.2093,-55.4867 76.2103,-62.4148"/>
</g>
<!-- Node5 -->
<g id="node5" class="node"><title>Node5</title>
<g id="a_node5"><a xlink:href="a05391.html#abb1128f16a047e0ba14ccef64616ed34" target="_top" xlink:title=" ">
<polygon fill="white" stroke="black" points="97.5,-0.5 97.5,-19.5 207.5,-19.5 207.5,-0.5 97.5,-0.5"/>
<text text-anchor="middle" x="152.5" y="-7.5" font-family="Helvetica,sans-Serif" font-size="10.00">List::seqList::traverse</text>
</a>
</g>
</g>
<!-- Node1&#45;&gt;Node5 -->
<g id="edge4" class="edge"><title>Node1&#45;&gt;Node5</title>
<path fill="none" stroke="midnightblue" d="M31.233,-57.19C41.6527,-48.5751 57.9298,-36.3082 74,-29 79.3319,-26.5752 85.0166,-24.4331 90.7921,-22.5464"/>
<polygon fill="midnightblue" stroke="midnightblue" points="91.9853,-25.8425 100.551,-19.6077 89.9669,-19.1398 91.9853,-25.8425"/>
</g>
</g>
</svg>
