<?xml version="1.0" encoding="UTF-8" standalone="no"?>
<!DOCTYPE svg PUBLIC "-//W3C//DTD SVG 1.1//EN"
 "http://www.w3.org/Graphics/SVG/1.1/DTD/svg11.dtd">
<!-- Generated by graphviz version 2.38.0 (20140413.2041)
 -->
<!-- Title: main Pages: 1 -->
<svg width="207pt" height="290pt"
 viewBox="0.00 0.00 207.00 289.50" xmlns="http://www.w3.org/2000/svg" xmlns:xlink="http://www.w3.org/1999/xlink">
<g id="graph0" class="graph" transform="scale(1 1) rotate(0) translate(4 285.5)">
<title>main</title>
<polygon fill="white" stroke="none" points="-4,4 -4,-285.5 203,-285.5 203,4 -4,4"/>
<!-- Node1 -->
<g id="node1" class="node"><title>Node1</title>
<g id="a_node1"><a xlink:title="测试程序">
<polygon fill="#bfbfbf" stroke="black" points="0,-114.5 0,-133.5 38,-133.5 38,-114.5 0,-114.5"/>
<text text-anchor="middle" x="19" y="-121.5" font-family="Helvetica,sans-Serif" font-size="10.00">main</text>
</a>
</g>
</g>
<!-- Node2 -->
<g id="node2" class="node"><title>Node2</title>
<g id="a_node2"><a xlink:href="a05425.html#a0323a591fd71bd6310e48046da6df915" target="_top" xlink:title="找出优先级值大于等于指定值x的最小元素，返回其下标">
<polygon fill="white" stroke="black" points="80.5,-251 80.5,-281 192.5,-281 192.5,-251 80.5,-251"/>
<text text-anchor="start" x="88.5" y="-269" font-family="Helvetica,sans-Serif" font-size="10.00">Queue::priority_queue</text>
<text text-anchor="middle" x="136.5" y="-258" font-family="Helvetica,sans-Serif" font-size="10.00">_int::findMin</text>
</a>
</g>
</g>
<!-- Node1&#45;&gt;Node2 -->
<g id="edge1" class="edge"><title>Node1&#45;&gt;Node2</title>
<path fill="none" stroke="midnightblue" d="M21.8478,-133.694C26.5645,-155.896 41.0782,-210.907 74,-242 75.1197,-243.057 76.2912,-244.07 77.5062,-245.04"/>
<polygon fill="midnightblue" stroke="midnightblue" points="75.8204,-248.125 86.0637,-250.832 79.7442,-242.328 75.8204,-248.125"/>
</g>
<!-- Node3 -->
<g id="node3" class="node"><title>Node3</title>
<g id="a_node3"><a xlink:href="a05425.html#a50f8ba6f2c5caa5154be4c86278d10d5" target="_top" xlink:title="将第i个结点的优先级值增加value">
<polygon fill="white" stroke="black" points="80.5,-202 80.5,-232 192.5,-232 192.5,-202 80.5,-202"/>
<text text-anchor="start" x="88.5" y="-220" font-family="Helvetica,sans-Serif" font-size="10.00">Queue::priority_queue</text>
<text text-anchor="middle" x="136.5" y="-209" font-family="Helvetica,sans-Serif" font-size="10.00">_int::increaseKey</text>
</a>
</g>
</g>
<!-- Node1&#45;&gt;Node3 -->
<g id="edge2" class="edge"><title>Node1&#45;&gt;Node3</title>
<path fill="none" stroke="midnightblue" d="M25.3588,-133.822C33.8632,-148.574 51.7842,-176.48 74,-193 75.8308,-194.361 77.7487,-195.656 79.7292,-196.887"/>
<polygon fill="midnightblue" stroke="midnightblue" points="78.2926,-200.092 88.7364,-201.875 81.6838,-193.968 78.2926,-200.092"/>
</g>
<!-- Node4 -->
<g id="node4" class="node"><title>Node4</title>
<g id="a_node4"><a xlink:href="a05365.html#ad010d9254b771f603f1c08976e9c86d7" target="_top" xlink:title="将二叉堆中元素顺序输出.">
<polygon fill="white" stroke="black" points="83,-153 83,-183 190,-183 190,-153 83,-153"/>
<text text-anchor="start" x="91" y="-171" font-family="Helvetica,sans-Serif" font-size="10.00">Queue::BinaryHeap::</text>
<text text-anchor="middle" x="136.5" y="-160" font-family="Helvetica,sans-Serif" font-size="10.00">print_heap</text>
</a>
</g>
</g>
<!-- Node1&#45;&gt;Node4 -->
<g id="edge3" class="edge"><title>Node1&#45;&gt;Node4</title>
<path fill="none" stroke="midnightblue" d="M38.0469,-130.875C51.1088,-135.851 69.423,-142.828 86.6536,-149.392"/>
<polygon fill="midnightblue" stroke="midnightblue" points="85.4836,-152.691 96.0745,-152.981 87.9756,-146.15 85.4836,-152.691"/>
</g>
<!-- Node5 -->
<g id="node5" class="node"><title>Node5</title>
<g id="a_node5"><a xlink:href="a05397.html#aa04c90059f2f35a46e3828e5c86055cf" target="_top" xlink:title="在表尾插入新元素">
<polygon fill="white" stroke="black" points="75,-114.5 75,-133.5 198,-133.5 198,-114.5 75,-114.5"/>
<text text-anchor="middle" x="136.5" y="-121.5" font-family="Helvetica,sans-Serif" font-size="10.00">List::seqList::push_back</text>
</a>
</g>
</g>
<!-- Node1&#45;&gt;Node5 -->
<g id="edge4" class="edge"><title>Node1&#45;&gt;Node5</title>
<path fill="none" stroke="midnightblue" d="M38.0469,-124C45.534,-124 54.7468,-124 64.492,-124"/>
<polygon fill="midnightblue" stroke="midnightblue" points="64.7904,-127.5 74.7903,-124 64.7903,-120.5 64.7904,-127.5"/>
</g>
<!-- Node6 -->
<g id="node6" class="node"><title>Node6</title>
<g id="a_node6"><a xlink:href="a05365.html#ac066dc2daf01560d8d7dcf20a7e8eaa2" target="_top" xlink:title="Return size.">
<polygon fill="white" stroke="black" points="74,-76.5 74,-95.5 199,-95.5 199,-76.5 74,-76.5"/>
<text text-anchor="middle" x="136.5" y="-83.5" font-family="Helvetica,sans-Serif" font-size="10.00">Queue::BinaryHeap::size</text>
</a>
</g>
</g>
<!-- Node1&#45;&gt;Node6 -->
<g id="edge5" class="edge"><title>Node1&#45;&gt;Node6</title>
<path fill="none" stroke="midnightblue" d="M38.4339,-117.315C48.8421,-113.591 62.1093,-108.927 74,-105 80.4878,-102.857 87.3846,-100.654 94.125,-98.5421"/>
<polygon fill="midnightblue" stroke="midnightblue" points="95.3109,-101.839 103.823,-95.53 93.2344,-95.1539 95.3109,-101.839"/>
</g>
<!-- Node7 -->
<g id="node7" class="node"><title>Node7</title>
<g id="a_node7"><a xlink:href="a05365.html#addbe9312d5ed03d89fc34173e976846e" target="_top" xlink:title="返回队头元素值">
<polygon fill="white" stroke="black" points="76,-38.5 76,-57.5 197,-57.5 197,-38.5 76,-38.5"/>
<text text-anchor="middle" x="136.5" y="-45.5" font-family="Helvetica,sans-Serif" font-size="10.00">Queue::BinaryHeap::top</text>
</a>
</g>
</g>
<!-- Node1&#45;&gt;Node7 -->
<g id="edge6" class="edge"><title>Node1&#45;&gt;Node7</title>
<path fill="none" stroke="midnightblue" d="M26.5545,-114.49C35.7407,-101.856 53.6227,-79.6631 74,-67 77.374,-64.9033 80.9967,-63.0226 84.7341,-61.3382"/>
<polygon fill="midnightblue" stroke="midnightblue" points="86.2076,-64.5182 94.1839,-57.5448 83.5999,-58.0221 86.2076,-64.5182"/>
</g>
<!-- Node8 -->
<g id="node8" class="node"><title>Node8</title>
<g id="a_node8"><a xlink:href="a05397.html#abb1128f16a047e0ba14ccef64616ed34" target="_top" xlink:title=" ">
<polygon fill="white" stroke="black" points="81.5,-0.5 81.5,-19.5 191.5,-19.5 191.5,-0.5 81.5,-0.5"/>
<text text-anchor="middle" x="136.5" y="-7.5" font-family="Helvetica,sans-Serif" font-size="10.00">List::seqList::traverse</text>
</a>
</g>
</g>
<!-- Node1&#45;&gt;Node8 -->
<g id="edge7" class="edge"><title>Node1&#45;&gt;Node8</title>
<path fill="none" stroke="midnightblue" d="M22.8244,-114.335C28.9241,-95.1619 45.1597,-52.1689 74,-29 76.2461,-27.1956 78.6635,-25.562 81.1949,-24.083"/>
<polygon fill="midnightblue" stroke="midnightblue" points="82.7617,-27.2128 90.158,-19.6269 79.6454,-20.9447 82.7617,-27.2128"/>
</g>
</g>
</svg>
