<?xml version="1.0" encoding="UTF-8" standalone="no"?>
<!DOCTYPE svg PUBLIC "-//W3C//DTD SVG 1.1//EN"
 "http://www.w3.org/Graphics/SVG/1.1/DTD/svg11.dtd">
<!-- Generated by graphviz version 2.38.0 (20140413.2041)
 -->
<!-- Title: include/List.h Pages: 1 -->
<svg width="413pt" height="196pt"
 viewBox="0.00 0.00 412.50 196.00" xmlns="http://www.w3.org/2000/svg" xmlns:xlink="http://www.w3.org/1999/xlink">
<g id="graph0" class="graph" transform="scale(1 1) rotate(0) translate(4 192)">
<title>include/List.h</title>
<polygon fill="white" stroke="none" points="-4,4 -4,-192 408.5,-192 408.5,4 -4,4"/>
<!-- Node1 -->
<g id="node1" class="node"><title>Node1</title>
<g id="a_node1"><a xlink:title="栈的抽象类">
<polygon fill="#bfbfbf" stroke="black" points="202.5,-168.5 202.5,-187.5 276.5,-187.5 276.5,-168.5 202.5,-168.5"/>
<text text-anchor="middle" x="239.5" y="-175.5" font-family="Helvetica,sans-Serif" font-size="10.00">include/List.h</text>
</a>
</g>
</g>
<!-- Node2 -->
<g id="node2" class="node"><title>Node2</title>
<g id="a_node2"><a xlink:href="a04529.html" target="_top" xlink:title="顺序表类">
<polygon fill="white" stroke="black" points="82.5,-112.5 82.5,-131.5 172.5,-131.5 172.5,-112.5 82.5,-112.5"/>
<text text-anchor="middle" x="127.5" y="-119.5" font-family="Helvetica,sans-Serif" font-size="10.00">include/seqList.h</text>
</a>
</g>
</g>
<!-- Node1&#45;&gt;Node2 -->
<g id="edge1" class="edge"><title>Node1&#45;&gt;Node2</title>
<path fill="none" stroke="midnightblue" d="M207.483,-164.368C185.054,-154.255 156.456,-140.349 140.084,-131.516"/>
<polygon fill="midnightblue" stroke="midnightblue" points="206.105,-167.585 216.665,-168.444 208.945,-161.187 206.105,-167.585"/>
</g>
<!-- Node7 -->
<g id="node7" class="node"><title>Node7</title>
<g id="a_node7"><a xlink:href="a04523.html" target="_top" xlink:title="双链表类">
<polygon fill="white" stroke="black" points="190.5,-112.5 190.5,-131.5 288.5,-131.5 288.5,-112.5 190.5,-112.5"/>
<text text-anchor="middle" x="239.5" y="-119.5" font-family="Helvetica,sans-Serif" font-size="10.00">include/dLinkList.h</text>
</a>
</g>
</g>
<!-- Node1&#45;&gt;Node7 -->
<g id="edge7" class="edge"><title>Node1&#45;&gt;Node7</title>
<path fill="none" stroke="midnightblue" d="M233.028,-158.101C232.396,-149.136 232.843,-138.858 234.369,-131.751"/>
<polygon fill="midnightblue" stroke="midnightblue" points="229.566,-158.622 234.334,-168.083 236.507,-157.713 229.566,-158.622"/>
</g>
<!-- Node8 -->
<g id="node8" class="node"><title>Node8</title>
<g id="a_node8"><a xlink:href="a04532.html" target="_top" xlink:title="单链表类的定义和实现">
<polygon fill="white" stroke="black" points="306.5,-112.5 306.5,-131.5 404.5,-131.5 404.5,-112.5 306.5,-112.5"/>
<text text-anchor="middle" x="355.5" y="-119.5" font-family="Helvetica,sans-Serif" font-size="10.00">include/sLinkList.h</text>
</a>
</g>
</g>
<!-- Node1&#45;&gt;Node8 -->
<g id="edge9" class="edge"><title>Node1&#45;&gt;Node8</title>
<path fill="none" stroke="midnightblue" d="M262.109,-163.726C282.241,-153.727 311.335,-140.307 331.799,-131.655"/>
<polygon fill="midnightblue" stroke="midnightblue" points="260.365,-160.686 253.023,-168.324 263.526,-166.932 260.365,-160.686"/>
</g>
<!-- Node2&#45;&gt;Node1 -->
<g id="edge6" class="edge"><title>Node2&#45;&gt;Node1</title>
<path fill="none" stroke="midnightblue" d="M159.982,-135.842C182.205,-145.875 210.314,-159.546 226.62,-168.324"/>
<polygon fill="midnightblue" stroke="midnightblue" points="161.12,-132.518 150.56,-131.655 158.277,-138.914 161.12,-132.518"/>
</g>
<!-- Node3 -->
<g id="node3" class="node"><title>Node3</title>
<g id="a_node3"><a xlink:href="a04520.html" target="_top" xlink:title="优先级队列的接口和实现">
<polygon fill="white" stroke="black" points="73,-56.5 73,-75.5 182,-75.5 182,-56.5 73,-56.5"/>
<text text-anchor="middle" x="127.5" y="-63.5" font-family="Helvetica,sans-Serif" font-size="10.00">include/BinaryHeap.h</text>
</a>
</g>
</g>
<!-- Node2&#45;&gt;Node3 -->
<g id="edge2" class="edge"><title>Node2&#45;&gt;Node3</title>
<path fill="none" stroke="midnightblue" d="M127.5,-101.805C127.5,-92.9102 127.5,-82.7798 127.5,-75.7511"/>
<polygon fill="midnightblue" stroke="midnightblue" points="124,-102.083 127.5,-112.083 131,-102.083 124,-102.083"/>
</g>
<!-- Node4 -->
<g id="node4" class="node"><title>Node4</title>
<g id="a_node4"><a xlink:href="a04538.html" target="_top" xlink:title="程序设计题第1题：实现最大堆">
<polygon fill="white" stroke="black" points="0,-0.5 0,-19.5 73,-19.5 73,-0.5 0,-0.5"/>
<text text-anchor="middle" x="36.5" y="-7.5" font-family="Helvetica,sans-Serif" font-size="10.00">src/ch7_1.cc</text>
</a>
</g>
</g>
<!-- Node3&#45;&gt;Node4 -->
<g id="edge3" class="edge"><title>Node3&#45;&gt;Node4</title>
<path fill="none" stroke="midnightblue" d="M104.206,-51.1774C87.4611,-41.2407 65.3996,-28.1492 51.0844,-19.6545"/>
<polygon fill="midnightblue" stroke="midnightblue" points="102.493,-54.2307 112.879,-56.324 106.066,-48.2108 102.493,-54.2307"/>
</g>
<!-- Node5 -->
<g id="node5" class="node"><title>Node5</title>
<g id="a_node5"><a xlink:href="a04541.html" target="_top" xlink:title="程序设计题第7题：实现基于最小堆的整型的优先级队列，包含功能findMin(x) 和 decreaseKey(i, value)">
<polygon fill="white" stroke="black" points="91,-0.5 91,-19.5 164,-19.5 164,-0.5 91,-0.5"/>
<text text-anchor="middle" x="127.5" y="-7.5" font-family="Helvetica,sans-Serif" font-size="10.00">src/ch7_7.cc</text>
</a>
</g>
</g>
<!-- Node3&#45;&gt;Node5 -->
<g id="edge4" class="edge"><title>Node3&#45;&gt;Node5</title>
<path fill="none" stroke="midnightblue" d="M127.5,-45.8045C127.5,-36.9102 127.5,-26.7798 127.5,-19.7511"/>
<polygon fill="midnightblue" stroke="midnightblue" points="124,-46.083 127.5,-56.083 131,-46.083 124,-46.083"/>
</g>
<!-- Node6 -->
<g id="node6" class="node"><title>Node6</title>
<g id="a_node6"><a xlink:href="a04544.html" target="_top" xlink:title="优先级队列基本测试代码">
<polygon fill="white" stroke="black" points="182.5,-0.5 182.5,-19.5 250.5,-19.5 250.5,-0.5 182.5,-0.5"/>
<text text-anchor="middle" x="216.5" y="-7.5" font-family="Helvetica,sans-Serif" font-size="10.00">src/test0.cc</text>
</a>
</g>
</g>
<!-- Node3&#45;&gt;Node6 -->
<g id="edge5" class="edge"><title>Node3&#45;&gt;Node6</title>
<path fill="none" stroke="midnightblue" d="M150.738,-50.9005C167.058,-40.9986 188.365,-28.0705 202.236,-19.6545"/>
<polygon fill="midnightblue" stroke="midnightblue" points="148.533,-48.1444 141.799,-56.324 152.164,-54.1289 148.533,-48.1444"/>
</g>
<!-- Node7&#45;&gt;Node1 -->
<g id="edge8" class="edge"><title>Node7&#45;&gt;Node1</title>
<path fill="none" stroke="midnightblue" d="M245.958,-141.691C246.606,-150.635 246.176,-160.927 244.666,-168.083"/>
<polygon fill="midnightblue" stroke="midnightblue" points="249.423,-141.2 244.631,-131.751 242.485,-142.126 249.423,-141.2"/>
</g>
<!-- Node8&#45;&gt;Node1 -->
<g id="edge10" class="edge"><title>Node8&#45;&gt;Node1</title>
<path fill="none" stroke="midnightblue" d="M333.179,-136.131C312.961,-146.183 283.542,-159.754 262.969,-168.444"/>
<polygon fill="midnightblue" stroke="midnightblue" points="334.947,-139.159 342.285,-131.516 331.783,-132.915 334.947,-139.159"/>
</g>
</g>
</svg>
