<?xml version="1.0" encoding="UTF-8" standalone="no"?>
<!DOCTYPE svg PUBLIC "-//W3C//DTD SVG 1.1//EN"
 "http://www.w3.org/Graphics/SVG/1.1/DTD/svg11.dtd">
<!-- Generated by graphviz version 2.38.0 (20140413.2041)
 -->
<!-- Title: include/seqList.h Pages: 1 -->
<svg width="333pt" height="140pt"
 viewBox="0.00 0.00 332.50 140.00" xmlns="http://www.w3.org/2000/svg" xmlns:xlink="http://www.w3.org/1999/xlink">
<g id="graph0" class="graph" transform="scale(1 1) rotate(0) translate(4 136)">
<title>include/seqList.h</title>
<polygon fill="white" stroke="none" points="-4,4 -4,-136 328.5,-136 328.5,4 -4,4"/>
<!-- Node1 -->
<g id="node1" class="node"><title>Node1</title>
<g id="a_node1"><a xlink:title="顺序表类">
<polygon fill="#bfbfbf" stroke="black" points="119.5,-112.5 119.5,-131.5 209.5,-131.5 209.5,-112.5 119.5,-112.5"/>
<text text-anchor="middle" x="164.5" y="-119.5" font-family="Helvetica,sans-Serif" font-size="10.00">include/seqList.h</text>
</a>
</g>
</g>
<!-- Node2 -->
<g id="node2" class="node"><title>Node2</title>
<g id="a_node2"><a xlink:href="a04520.html" target="_top" xlink:title="优先级队列的接口和实现">
<polygon fill="white" stroke="black" points="0,-56.5 0,-75.5 109,-75.5 109,-56.5 0,-56.5"/>
<text text-anchor="middle" x="54.5" y="-63.5" font-family="Helvetica,sans-Serif" font-size="10.00">include/BinaryHeap.h</text>
</a>
</g>
</g>
<!-- Node1&#45;&gt;Node2 -->
<g id="edge1" class="edge"><title>Node1&#45;&gt;Node2</title>
<path fill="none" stroke="midnightblue" d="M137.738,-107.862C117.341,-97.8492 89.8341,-84.3458 72.1295,-75.6545"/>
<polygon fill="midnightblue" stroke="midnightblue" points="136.308,-111.059 146.827,-112.324 139.392,-104.775 136.308,-111.059"/>
</g>
<!-- Node4 -->
<g id="node4" class="node"><title>Node4</title>
<g id="a_node4"><a xlink:href="a04526.html" target="_top" xlink:title="栈的抽象类">
<polygon fill="white" stroke="black" points="127.5,-56.5 127.5,-75.5 201.5,-75.5 201.5,-56.5 127.5,-56.5"/>
<text text-anchor="middle" x="164.5" y="-63.5" font-family="Helvetica,sans-Serif" font-size="10.00">include/List.h</text>
</a>
</g>
</g>
<!-- Node1&#45;&gt;Node4 -->
<g id="edge3" class="edge"><title>Node1&#45;&gt;Node4</title>
<path fill="none" stroke="midnightblue" d="M158.028,-102.101C157.396,-93.1357 157.843,-82.8579 159.369,-75.7511"/>
<polygon fill="midnightblue" stroke="midnightblue" points="154.566,-102.622 159.334,-112.083 161.507,-101.713 154.566,-102.622"/>
</g>
<!-- Node3 -->
<g id="node3" class="node"><title>Node3</title>
<g id="a_node3"><a xlink:href="a04538.html" target="_top" xlink:title="优先级队列基本测试代码">
<polygon fill="white" stroke="black" points="20.5,-0.5 20.5,-19.5 88.5,-19.5 88.5,-0.5 20.5,-0.5"/>
<text text-anchor="middle" x="54.5" y="-7.5" font-family="Helvetica,sans-Serif" font-size="10.00">src/test0.cc</text>
</a>
</g>
</g>
<!-- Node2&#45;&gt;Node3 -->
<g id="edge2" class="edge"><title>Node2&#45;&gt;Node3</title>
<path fill="none" stroke="midnightblue" d="M54.5,-45.8045C54.5,-36.9102 54.5,-26.7798 54.5,-19.7511"/>
<polygon fill="midnightblue" stroke="midnightblue" points="51.0001,-46.083 54.5,-56.083 58.0001,-46.083 51.0001,-46.083"/>
</g>
<!-- Node4&#45;&gt;Node1 -->
<g id="edge4" class="edge"><title>Node4&#45;&gt;Node1</title>
<path fill="none" stroke="midnightblue" d="M170.958,-85.6911C171.606,-94.6353 171.176,-104.927 169.666,-112.083"/>
<polygon fill="midnightblue" stroke="midnightblue" points="174.423,-85.2002 169.631,-75.7511 167.485,-86.1262 174.423,-85.2002"/>
</g>
<!-- Node5 -->
<g id="node5" class="node"><title>Node5</title>
<g id="a_node5"><a xlink:href="a04523.html" target="_top" xlink:title="双链表类">
<polygon fill="white" stroke="black" points="110.5,-0.5 110.5,-19.5 208.5,-19.5 208.5,-0.5 110.5,-0.5"/>
<text text-anchor="middle" x="159.5" y="-7.5" font-family="Helvetica,sans-Serif" font-size="10.00">include/dLinkList.h</text>
</a>
</g>
</g>
<!-- Node4&#45;&gt;Node5 -->
<g id="edge5" class="edge"><title>Node4&#45;&gt;Node5</title>
<path fill="none" stroke="midnightblue" d="M156.278,-46.1005C154.816,-37.1357 154.311,-26.8579 155.179,-19.7511"/>
<polygon fill="midnightblue" stroke="midnightblue" points="152.912,-47.0868 158.508,-56.083 159.743,-45.5604 152.912,-47.0868"/>
</g>
<!-- Node6 -->
<g id="node6" class="node"><title>Node6</title>
<g id="a_node6"><a xlink:href="a04532.html" target="_top" xlink:title="单链表类的定义和实现">
<polygon fill="white" stroke="black" points="226.5,-0.5 226.5,-19.5 324.5,-19.5 324.5,-0.5 226.5,-0.5"/>
<text text-anchor="middle" x="275.5" y="-7.5" font-family="Helvetica,sans-Serif" font-size="10.00">include/sLinkList.h</text>
</a>
</g>
</g>
<!-- Node4&#45;&gt;Node6 -->
<g id="edge7" class="edge"><title>Node4&#45;&gt;Node6</title>
<path fill="none" stroke="midnightblue" d="M186.142,-51.5895C205.339,-41.6052 233.027,-28.2672 252.6,-19.6545"/>
<polygon fill="midnightblue" stroke="midnightblue" points="184.412,-48.5451 177.219,-56.324 187.693,-54.7285 184.412,-48.5451"/>
</g>
<!-- Node5&#45;&gt;Node4 -->
<g id="edge6" class="edge"><title>Node5&#45;&gt;Node4</title>
<path fill="none" stroke="midnightblue" d="M167.688,-29.6911C169.165,-38.6353 169.688,-48.9272 168.841,-56.083"/>
<polygon fill="midnightblue" stroke="midnightblue" points="171.06,-28.7333 165.441,-19.7511 164.232,-30.2767 171.06,-28.7333"/>
</g>
<!-- Node6&#45;&gt;Node4 -->
<g id="edge8" class="edge"><title>Node6&#45;&gt;Node4</title>
<path fill="none" stroke="midnightblue" d="M254.131,-24.2685C234.852,-34.3059 206.855,-47.7936 187.177,-56.4435"/>
<polygon fill="midnightblue" stroke="midnightblue" points="255.886,-27.2996 263.074,-19.5164 252.601,-21.1181 255.886,-27.2996"/>
</g>
</g>
</svg>
