<?xml version="1.0" encoding="UTF-8" standalone="no"?>
<!DOCTYPE svg PUBLIC "-//W3C//DTD SVG 1.1//EN"
 "http://www.w3.org/Graphics/SVG/1.1/DTD/svg11.dtd">
<!-- Generated by graphviz version 2.38.0 (20140413.2041)
 -->
<!-- Title: src/test0.cc Pages: 1 -->
<svg width="379pt" height="308pt"
 viewBox="0.00 0.00 378.50 308.00" xmlns="http://www.w3.org/2000/svg" xmlns:xlink="http://www.w3.org/1999/xlink">
<g id="graph0" class="graph" transform="scale(1 1) rotate(0) translate(4 304)">
<title>src/test0.cc</title>
<polygon fill="white" stroke="none" points="-4,4 -4,-304 374.5,-304 374.5,4 -4,4"/>
<!-- Node1 -->
<g id="node1" class="node"><title>Node1</title>
<g id="a_node1"><a xlink:title="优先级队列基本测试代码">
<polygon fill="#bfbfbf" stroke="black" points="218,-280.5 218,-299.5 286,-299.5 286,-280.5 218,-280.5"/>
<text text-anchor="middle" x="252" y="-287.5" font-family="Helvetica,sans-Serif" font-size="10.00">src/test0.cc</text>
</a>
</g>
</g>
<!-- Node2 -->
<g id="node2" class="node"><title>Node2</title>
<g id="a_node2"><a xlink:href="a04520.html" target="_top" xlink:title="优先级队列的接口和实现">
<polygon fill="white" stroke="black" points="106.5,-224.5 106.5,-243.5 181.5,-243.5 181.5,-224.5 106.5,-224.5"/>
<text text-anchor="middle" x="144" y="-231.5" font-family="Helvetica,sans-Serif" font-size="10.00">BinaryHeap.h</text>
</a>
</g>
</g>
<!-- Node1&#45;&gt;Node2 -->
<g id="edge1" class="edge"><title>Node1&#45;&gt;Node2</title>
<path fill="none" stroke="midnightblue" d="M234.648,-280.324C217.328,-271.664 190.485,-258.242 170.498,-248.249"/>
<polygon fill="midnightblue" stroke="midnightblue" points="171.819,-244.996 161.309,-243.655 168.688,-251.257 171.819,-244.996"/>
</g>
<!-- Node10 -->
<g id="node10" class="node"><title>Node10</title>
<g id="a_node10"><a xlink:title=" ">
<polygon fill="white" stroke="#bfbfbf" points="199.5,-224.5 199.5,-243.5 244.5,-243.5 244.5,-224.5 199.5,-224.5"/>
<text text-anchor="middle" x="222" y="-231.5" font-family="Helvetica,sans-Serif" font-size="10.00">cstdlib</text>
</a>
</g>
</g>
<!-- Node1&#45;&gt;Node10 -->
<g id="edge15" class="edge"><title>Node1&#45;&gt;Node10</title>
<path fill="none" stroke="midnightblue" d="M247.046,-280.083C242.896,-272.613 236.847,-261.724 231.733,-252.52"/>
<polygon fill="midnightblue" stroke="midnightblue" points="234.778,-250.793 226.862,-243.751 228.659,-254.192 234.778,-250.793"/>
</g>
<!-- Node11 -->
<g id="node11" class="node"><title>Node11</title>
<g id="a_node11"><a xlink:title=" ">
<polygon fill="white" stroke="#bfbfbf" points="262.5,-224.5 262.5,-243.5 303.5,-243.5 303.5,-224.5 262.5,-224.5"/>
<text text-anchor="middle" x="283" y="-231.5" font-family="Helvetica,sans-Serif" font-size="10.00">ctime</text>
</a>
</g>
</g>
<!-- Node1&#45;&gt;Node11 -->
<g id="edge16" class="edge"><title>Node1&#45;&gt;Node11</title>
<path fill="none" stroke="midnightblue" d="M257.119,-280.083C261.408,-272.613 267.658,-261.724 272.942,-252.52"/>
<polygon fill="midnightblue" stroke="midnightblue" points="276.033,-254.166 277.976,-243.751 269.962,-250.681 276.033,-254.166"/>
</g>
<!-- Node12 -->
<g id="node12" class="node"><title>Node12</title>
<g id="a_node12"><a xlink:title=" ">
<polygon fill="white" stroke="#bfbfbf" points="321.5,-224.5 321.5,-243.5 370.5,-243.5 370.5,-224.5 321.5,-224.5"/>
<text text-anchor="middle" x="346" y="-231.5" font-family="Helvetica,sans-Serif" font-size="10.00">fstream</text>
</a>
</g>
</g>
<!-- Node1&#45;&gt;Node12 -->
<g id="edge17" class="edge"><title>Node1&#45;&gt;Node12</title>
<path fill="none" stroke="midnightblue" d="M267.103,-280.324C281.903,-271.822 304.694,-258.729 321.982,-248.797"/>
<polygon fill="midnightblue" stroke="midnightblue" points="324.007,-251.671 330.935,-243.655 320.52,-245.601 324.007,-251.671"/>
</g>
<!-- Node3 -->
<g id="node3" class="node"><title>Node3</title>
<g id="a_node3"><a xlink:href="a04529.html" target="_top" xlink:title="顺序表类">
<polygon fill="white" stroke="black" points="116,-168.5 116,-187.5 172,-187.5 172,-168.5 116,-168.5"/>
<text text-anchor="middle" x="144" y="-175.5" font-family="Helvetica,sans-Serif" font-size="10.00">seqList.h</text>
</a>
</g>
</g>
<!-- Node2&#45;&gt;Node3 -->
<g id="edge2" class="edge"><title>Node2&#45;&gt;Node3</title>
<path fill="none" stroke="midnightblue" d="M144,-224.083C144,-217.006 144,-206.861 144,-197.986"/>
<polygon fill="midnightblue" stroke="midnightblue" points="147.5,-197.751 144,-187.751 140.5,-197.751 147.5,-197.751"/>
</g>
<!-- Node4 -->
<g id="node4" class="node"><title>Node4</title>
<g id="a_node4"><a xlink:href="a04526.html" target="_top" xlink:title="栈的抽象类">
<polygon fill="white" stroke="black" points="93.5,-112.5 93.5,-131.5 134.5,-131.5 134.5,-112.5 93.5,-112.5"/>
<text text-anchor="middle" x="114" y="-119.5" font-family="Helvetica,sans-Serif" font-size="10.00">List.h</text>
</a>
</g>
</g>
<!-- Node3&#45;&gt;Node4 -->
<g id="edge3" class="edge"><title>Node3&#45;&gt;Node4</title>
<path fill="none" stroke="midnightblue" d="M133.88,-168.083C128.274,-160.77 121.976,-150.181 117.644,-141.103"/>
<polygon fill="midnightblue" stroke="midnightblue" points="120.82,-139.625 113.731,-131.751 114.362,-142.327 120.82,-139.625"/>
</g>
<!-- Node6 -->
<g id="node6" class="node"><title>Node6</title>
<g id="a_node6"><a xlink:title=" ">
<polygon fill="white" stroke="#bfbfbf" points="87,-0.5 87,-19.5 141,-19.5 141,-0.5 87,-0.5"/>
<text text-anchor="middle" x="114" y="-7.5" font-family="Helvetica,sans-Serif" font-size="10.00">iostream</text>
</a>
</g>
</g>
<!-- Node3&#45;&gt;Node6 -->
<g id="edge14" class="edge"><title>Node3&#45;&gt;Node6</title>
<path fill="none" stroke="midnightblue" d="M147.316,-168.424C154.642,-148.1 170.387,-95.7339 155,-56 150.546,-44.498 141.632,-34.1311 133.251,-26.2546"/>
<polygon fill="midnightblue" stroke="midnightblue" points="135.372,-23.4599 125.541,-19.5103 130.763,-28.7286 135.372,-23.4599"/>
</g>
<!-- Node9 -->
<g id="node9" class="node"><title>Node9</title>
<g id="a_node9"><a xlink:title=" ">
<polygon fill="white" stroke="#bfbfbf" points="167.5,-0.5 167.5,-19.5 240.5,-19.5 240.5,-0.5 167.5,-0.5"/>
<text text-anchor="middle" x="204" y="-7.5" font-family="Helvetica,sans-Serif" font-size="10.00">initializer_list</text>
</a>
</g>
</g>
<!-- Node3&#45;&gt;Node9 -->
<g id="edge13" class="edge"><title>Node3&#45;&gt;Node9</title>
<path fill="none" stroke="midnightblue" d="M151.19,-168.232C157.987,-159.533 168.012,-145.573 174,-132 189.235,-97.4699 197.635,-53.8372 201.442,-29.5253"/>
<polygon fill="midnightblue" stroke="midnightblue" points="204.918,-29.9447 202.914,-19.5411 197.993,-28.9234 204.918,-29.9447"/>
</g>
<!-- Node4&#45;&gt;Node3 -->
<g id="edge12" class="edge"><title>Node4&#45;&gt;Node3</title>
<path fill="none" stroke="midnightblue" d="M123.993,-131.751C129.588,-139.014 135.895,-149.589 140.257,-158.69"/>
<polygon fill="midnightblue" stroke="midnightblue" points="137.106,-160.225 144.212,-168.083 143.557,-157.508 137.106,-160.225"/>
</g>
<!-- Node5 -->
<g id="node5" class="node"><title>Node5</title>
<g id="a_node5"><a xlink:href="a04523.html" target="_top" xlink:title="双链表类">
<polygon fill="white" stroke="black" points="0,-56.5 0,-75.5 64,-75.5 64,-56.5 0,-56.5"/>
<text text-anchor="middle" x="32" y="-63.5" font-family="Helvetica,sans-Serif" font-size="10.00">dLinkList.h</text>
</a>
</g>
</g>
<!-- Node4&#45;&gt;Node5 -->
<g id="edge4" class="edge"><title>Node4&#45;&gt;Node5</title>
<path fill="none" stroke="midnightblue" d="M95.7105,-112.324C81.4531,-104.107 62.1368,-91.6017 48.3878,-81.8069"/>
<polygon fill="midnightblue" stroke="midnightblue" points="50.3954,-78.9388 40.2657,-75.8339 46.2483,-84.578 50.3954,-78.9388"/>
</g>
<!-- Node8 -->
<g id="node8" class="node"><title>Node8</title>
<g id="a_node8"><a xlink:href="a04532.html" target="_top" xlink:title="单链表类的定义和实现">
<polygon fill="white" stroke="black" points="82,-56.5 82,-75.5 146,-75.5 146,-56.5 82,-56.5"/>
<text text-anchor="middle" x="114" y="-63.5" font-family="Helvetica,sans-Serif" font-size="10.00">sLinkList.h</text>
</a>
</g>
</g>
<!-- Node4&#45;&gt;Node8 -->
<g id="edge8" class="edge"><title>Node4&#45;&gt;Node8</title>
<path fill="none" stroke="midnightblue" d="M108.834,-112.083C107.324,-104.927 106.894,-94.6353 107.542,-85.6911"/>
<polygon fill="midnightblue" stroke="midnightblue" points="111.015,-86.1262 108.869,-75.7511 104.077,-85.2002 111.015,-86.1262"/>
</g>
<!-- Node5&#45;&gt;Node4 -->
<g id="edge5" class="edge"><title>Node5&#45;&gt;Node4</title>
<path fill="none" stroke="midnightblue" d="M50.2522,-75.6545C64.5855,-83.9132 84.0475,-96.5169 97.8213,-106.342"/>
<polygon fill="midnightblue" stroke="midnightblue" points="95.8132,-109.21 105.94,-112.324 99.9654,-103.574 95.8132,-109.21"/>
</g>
<!-- Node5&#45;&gt;Node6 -->
<g id="edge6" class="edge"><title>Node5&#45;&gt;Node6</title>
<path fill="none" stroke="midnightblue" d="M45.1747,-56.324C57.8468,-47.979 77.2334,-35.2122 92.2056,-25.3524"/>
<polygon fill="midnightblue" stroke="midnightblue" points="94.4312,-28.0776 100.858,-19.6545 90.5813,-22.2313 94.4312,-28.0776"/>
</g>
<!-- Node7 -->
<g id="node7" class="node"><title>Node7</title>
<g id="a_node7"><a xlink:title=" ">
<polygon fill="white" stroke="#bfbfbf" points="12,-0.5 12,-19.5 52,-19.5 52,-0.5 12,-0.5"/>
<text text-anchor="middle" x="32" y="-7.5" font-family="Helvetica,sans-Serif" font-size="10.00">utility</text>
</a>
</g>
</g>
<!-- Node5&#45;&gt;Node7 -->
<g id="edge7" class="edge"><title>Node5&#45;&gt;Node7</title>
<path fill="none" stroke="midnightblue" d="M32,-56.083C32,-49.0059 32,-38.8611 32,-29.9865"/>
<polygon fill="midnightblue" stroke="midnightblue" points="35.5001,-29.751 32,-19.7511 28.5001,-29.7511 35.5001,-29.751"/>
</g>
<!-- Node8&#45;&gt;Node4 -->
<g id="edge9" class="edge"><title>Node8&#45;&gt;Node4</title>
<path fill="none" stroke="midnightblue" d="M119.131,-75.7511C120.657,-82.8579 121.104,-93.1357 120.472,-102.101"/>
<polygon fill="midnightblue" stroke="midnightblue" points="116.993,-101.713 119.166,-112.083 123.934,-102.622 116.993,-101.713"/>
</g>
<!-- Node8&#45;&gt;Node6 -->
<g id="edge11" class="edge"><title>Node8&#45;&gt;Node6</title>
<path fill="none" stroke="midnightblue" d="M114,-56.083C114,-49.0059 114,-38.8611 114,-29.9865"/>
<polygon fill="midnightblue" stroke="midnightblue" points="117.5,-29.751 114,-19.7511 110.5,-29.7511 117.5,-29.751"/>
</g>
<!-- Node8&#45;&gt;Node9 -->
<g id="edge10" class="edge"><title>Node8&#45;&gt;Node9</title>
<path fill="none" stroke="midnightblue" d="M128.46,-56.324C142.5,-47.9002 164.048,-34.9709 180.543,-25.0741"/>
<polygon fill="midnightblue" stroke="midnightblue" points="182.802,-27.8007 189.576,-19.6545 179.2,-21.7983 182.802,-27.8007"/>
</g>
</g>
</svg>
