<?xml version="1.0" encoding="UTF-8" standalone="no"?>
<!DOCTYPE svg PUBLIC "-//W3C//DTD SVG 1.1//EN"
 "http://www.w3.org/Graphics/SVG/1.1/DTD/svg11.dtd">
<!-- Generated by graphviz version 2.38.0 (20140413.2041)
 -->
<!-- Title: main Pages: 1 -->
<svg width="205pt" height="104pt"
 viewBox="0.00 0.00 205.00 104.00" xmlns="http://www.w3.org/2000/svg" xmlns:xlink="http://www.w3.org/1999/xlink">
<g id="graph0" class="graph" transform="scale(1 1) rotate(0) translate(4 100)">
<title>main</title>
<polygon fill="white" stroke="none" points="-4,4 -4,-100 201,-100 201,4 -4,4"/>
<!-- Node1 -->
<g id="node1" class="node"><title>Node1</title>
<g id="a_node1"><a xlink:title="测试程序">
<polygon fill="#bfbfbf" stroke="black" points="0,-38.5 0,-57.5 38,-57.5 38,-38.5 0,-38.5"/>
<text text-anchor="middle" x="19" y="-45.5" font-family="Helvetica,sans-Serif" font-size="10.00">main</text>
</a>
</g>
</g>
<!-- Node2 -->
<g id="node2" class="node"><title>Node2</title>
<g id="a_node2"><a xlink:href="a05397.html#aa04c90059f2f35a46e3828e5c86055cf" target="_top" xlink:title="在表尾插入新元素">
<polygon fill="white" stroke="black" points="74,-76.5 74,-95.5 197,-95.5 197,-76.5 74,-76.5"/>
<text text-anchor="middle" x="135.5" y="-83.5" font-family="Helvetica,sans-Serif" font-size="10.00">List::seqList::push_back</text>
</a>
</g>
</g>
<!-- Node1&#45;&gt;Node2 -->
<g id="edge1" class="edge"><title>Node1&#45;&gt;Node2</title>
<path fill="none" stroke="midnightblue" d="M38.441,-54.6632C48.8514,-58.3808 62.1185,-63.0453 74,-67 80.3866,-69.1258 87.1736,-71.3199 93.8053,-73.4285"/>
<polygon fill="midnightblue" stroke="midnightblue" points="92.756,-76.7674 103.346,-76.4387 94.8623,-70.0918 92.756,-76.7674"/>
</g>
<!-- Node3 -->
<g id="node3" class="node"><title>Node3</title>
<g id="a_node3"><a xlink:href="a05365.html#addbe9312d5ed03d89fc34173e976846e" target="_top" xlink:title="返回队头元素值">
<polygon fill="white" stroke="black" points="75,-38.5 75,-57.5 196,-57.5 196,-38.5 75,-38.5"/>
<text text-anchor="middle" x="135.5" y="-45.5" font-family="Helvetica,sans-Serif" font-size="10.00">Queue::BinaryHeap::top</text>
</a>
</g>
</g>
<!-- Node1&#45;&gt;Node3 -->
<g id="edge2" class="edge"><title>Node1&#45;&gt;Node3</title>
<path fill="none" stroke="midnightblue" d="M38.1429,-48C45.631,-48 54.8291,-48 64.541,-48"/>
<polygon fill="midnightblue" stroke="midnightblue" points="64.7977,-51.5001 74.7977,-48 64.7977,-44.5001 64.7977,-51.5001"/>
</g>
<!-- Node4 -->
<g id="node4" class="node"><title>Node4</title>
<g id="a_node4"><a xlink:href="a05397.html#abb1128f16a047e0ba14ccef64616ed34" target="_top" xlink:title=" ">
<polygon fill="white" stroke="black" points="80.5,-0.5 80.5,-19.5 190.5,-19.5 190.5,-0.5 80.5,-0.5"/>
<text text-anchor="middle" x="135.5" y="-7.5" font-family="Helvetica,sans-Serif" font-size="10.00">List::seqList::traverse</text>
</a>
</g>
</g>
<!-- Node1&#45;&gt;Node4 -->
<g id="edge3" class="edge"><title>Node1&#45;&gt;Node4</title>
<path fill="none" stroke="midnightblue" d="M38.441,-41.3368C48.8514,-37.6192 62.1185,-32.9547 74,-29 80.3866,-26.8742 87.1736,-24.6801 93.8053,-22.5715"/>
<polygon fill="midnightblue" stroke="midnightblue" points="94.8623,-25.9082 103.346,-19.5613 92.756,-19.2326 94.8623,-25.9082"/>
</g>
</g>
</svg>
