<?xml version="1.0" encoding="UTF-8" standalone="no"?>
<!DOCTYPE svg PUBLIC "-//W3C//DTD SVG 1.1//EN"
 "http://www.w3.org/Graphics/SVG/1.1/DTD/svg11.dtd">
<!-- Generated by graphviz version 2.38.0 (20140413.2041)
 -->
<!-- Title: include/BinaryHeap.h Pages: 1 -->
<svg width="259pt" height="84pt"
 viewBox="0.00 0.00 258.50 84.00" xmlns="http://www.w3.org/2000/svg" xmlns:xlink="http://www.w3.org/1999/xlink">
<g id="graph0" class="graph" transform="scale(1 1) rotate(0) translate(4 80)">
<title>include/BinaryHeap.h</title>
<polygon fill="white" stroke="none" points="-4,4 -4,-80 254.5,-80 254.5,4 -4,4"/>
<!-- Node1 -->
<g id="node1" class="node"><title>Node1</title>
<g id="a_node1"><a xlink:title="优先级队列的接口和实现">
<polygon fill="#bfbfbf" stroke="black" points="73,-56.5 73,-75.5 182,-75.5 182,-56.5 73,-56.5"/>
<text text-anchor="middle" x="127.5" y="-63.5" font-family="Helvetica,sans-Serif" font-size="10.00">include/BinaryHeap.h</text>
</a>
</g>
</g>
<!-- Node2 -->
<g id="node2" class="node"><title>Node2</title>
<g id="a_node2"><a xlink:href="a04538.html" target="_top" xlink:title="程序设计题第1题：实现最大堆">
<polygon fill="white" stroke="black" points="0,-0.5 0,-19.5 73,-19.5 73,-0.5 0,-0.5"/>
<text text-anchor="middle" x="36.5" y="-7.5" font-family="Helvetica,sans-Serif" font-size="10.00">src/ch7_1.cc</text>
</a>
</g>
</g>
<!-- Node1&#45;&gt;Node2 -->
<g id="edge1" class="edge"><title>Node1&#45;&gt;Node2</title>
<path fill="none" stroke="midnightblue" d="M104.206,-51.1774C87.4611,-41.2407 65.3996,-28.1492 51.0844,-19.6545"/>
<polygon fill="midnightblue" stroke="midnightblue" points="102.493,-54.2307 112.879,-56.324 106.066,-48.2108 102.493,-54.2307"/>
</g>
<!-- Node3 -->
<g id="node3" class="node"><title>Node3</title>
<g id="a_node3"><a xlink:href="a04541.html" target="_top" xlink:title="程序设计题第7题：实现基于最小堆的整型的优先级队列，包含功能findMin(x) 和 decreaseKey(i, value)">
<polygon fill="white" stroke="black" points="91,-0.5 91,-19.5 164,-19.5 164,-0.5 91,-0.5"/>
<text text-anchor="middle" x="127.5" y="-7.5" font-family="Helvetica,sans-Serif" font-size="10.00">src/ch7_7.cc</text>
</a>
</g>
</g>
<!-- Node1&#45;&gt;Node3 -->
<g id="edge2" class="edge"><title>Node1&#45;&gt;Node3</title>
<path fill="none" stroke="midnightblue" d="M127.5,-45.8045C127.5,-36.9102 127.5,-26.7798 127.5,-19.7511"/>
<polygon fill="midnightblue" stroke="midnightblue" points="124,-46.083 127.5,-56.083 131,-46.083 124,-46.083"/>
</g>
<!-- Node4 -->
<g id="node4" class="node"><title>Node4</title>
<g id="a_node4"><a xlink:href="a04544.html" target="_top" xlink:title="优先级队列基本测试代码">
<polygon fill="white" stroke="black" points="182.5,-0.5 182.5,-19.5 250.5,-19.5 250.5,-0.5 182.5,-0.5"/>
<text text-anchor="middle" x="216.5" y="-7.5" font-family="Helvetica,sans-Serif" font-size="10.00">src/test0.cc</text>
</a>
</g>
</g>
<!-- Node1&#45;&gt;Node4 -->
<g id="edge3" class="edge"><title>Node1&#45;&gt;Node4</title>
<path fill="none" stroke="midnightblue" d="M150.738,-50.9005C167.058,-40.9986 188.365,-28.0705 202.236,-19.6545"/>
<polygon fill="midnightblue" stroke="midnightblue" points="148.533,-48.1444 141.799,-56.324 152.164,-54.1289 148.533,-48.1444"/>
</g>
</g>
</svg>
