<?xml version="1.0" encoding="UTF-8" standalone="no"?>
<!DOCTYPE svg PUBLIC "-//W3C//DTD SVG 1.1//EN"
 "http://www.w3.org/Graphics/SVG/1.1/DTD/svg11.dtd">
<!-- Generated by graphviz version 2.38.0 (20140413.2041)
 -->
<!-- Title: include/List.h Pages: 1 -->
<svg width="340pt" height="196pt"
 viewBox="0.00 0.00 339.50 196.00" xmlns="http://www.w3.org/2000/svg" xmlns:xlink="http://www.w3.org/1999/xlink">
<g id="graph0" class="graph" transform="scale(1 1) rotate(0) translate(4 192)">
<title>include/List.h</title>
<polygon fill="white" stroke="none" points="-4,4 -4,-192 335.5,-192 335.5,4 -4,4"/>
<!-- Node1 -->
<g id="node1" class="node"><title>Node1</title>
<g id="a_node1"><a xlink:title="栈的抽象类">
<polygon fill="#bfbfbf" stroke="black" points="129.5,-168.5 129.5,-187.5 203.5,-187.5 203.5,-168.5 129.5,-168.5"/>
<text text-anchor="middle" x="166.5" y="-175.5" font-family="Helvetica,sans-Serif" font-size="10.00">include/List.h</text>
</a>
</g>
</g>
<!-- Node2 -->
<g id="node2" class="node"><title>Node2</title>
<g id="a_node2"><a xlink:href="a04529.html" target="_top" xlink:title="顺序表类">
<polygon fill="white" stroke="black" points="9.5,-112.5 9.5,-131.5 99.5,-131.5 99.5,-112.5 9.5,-112.5"/>
<text text-anchor="middle" x="54.5" y="-119.5" font-family="Helvetica,sans-Serif" font-size="10.00">include/seqList.h</text>
</a>
</g>
</g>
<!-- Node1&#45;&gt;Node2 -->
<g id="edge1" class="edge"><title>Node1&#45;&gt;Node2</title>
<path fill="none" stroke="midnightblue" d="M134.483,-164.368C112.054,-154.255 83.4565,-140.349 67.0837,-131.516"/>
<polygon fill="midnightblue" stroke="midnightblue" points="133.105,-167.585 143.665,-168.444 135.945,-161.187 133.105,-167.585"/>
</g>
<!-- Node5 -->
<g id="node5" class="node"><title>Node5</title>
<g id="a_node5"><a xlink:href="a04523.html" target="_top" xlink:title="双链表类">
<polygon fill="white" stroke="black" points="117.5,-112.5 117.5,-131.5 215.5,-131.5 215.5,-112.5 117.5,-112.5"/>
<text text-anchor="middle" x="166.5" y="-119.5" font-family="Helvetica,sans-Serif" font-size="10.00">include/dLinkList.h</text>
</a>
</g>
</g>
<!-- Node1&#45;&gt;Node5 -->
<g id="edge5" class="edge"><title>Node1&#45;&gt;Node5</title>
<path fill="none" stroke="midnightblue" d="M160.028,-158.101C159.396,-149.136 159.843,-138.858 161.369,-131.751"/>
<polygon fill="midnightblue" stroke="midnightblue" points="156.566,-158.622 161.334,-168.083 163.507,-157.713 156.566,-158.622"/>
</g>
<!-- Node6 -->
<g id="node6" class="node"><title>Node6</title>
<g id="a_node6"><a xlink:href="a04532.html" target="_top" xlink:title="单链表类的定义和实现">
<polygon fill="white" stroke="black" points="233.5,-112.5 233.5,-131.5 331.5,-131.5 331.5,-112.5 233.5,-112.5"/>
<text text-anchor="middle" x="282.5" y="-119.5" font-family="Helvetica,sans-Serif" font-size="10.00">include/sLinkList.h</text>
</a>
</g>
</g>
<!-- Node1&#45;&gt;Node6 -->
<g id="edge7" class="edge"><title>Node1&#45;&gt;Node6</title>
<path fill="none" stroke="midnightblue" d="M189.109,-163.726C209.241,-153.727 238.335,-140.307 258.799,-131.655"/>
<polygon fill="midnightblue" stroke="midnightblue" points="187.365,-160.686 180.023,-168.324 190.526,-166.932 187.365,-160.686"/>
</g>
<!-- Node2&#45;&gt;Node1 -->
<g id="edge4" class="edge"><title>Node2&#45;&gt;Node1</title>
<path fill="none" stroke="midnightblue" d="M86.9818,-135.842C109.205,-145.875 137.314,-159.546 153.62,-168.324"/>
<polygon fill="midnightblue" stroke="midnightblue" points="88.1198,-132.518 77.5602,-131.655 85.2767,-138.914 88.1198,-132.518"/>
</g>
<!-- Node3 -->
<g id="node3" class="node"><title>Node3</title>
<g id="a_node3"><a xlink:href="a04520.html" target="_top" xlink:title="优先级队列的接口和实现">
<polygon fill="white" stroke="black" points="0,-56.5 0,-75.5 109,-75.5 109,-56.5 0,-56.5"/>
<text text-anchor="middle" x="54.5" y="-63.5" font-family="Helvetica,sans-Serif" font-size="10.00">include/BinaryHeap.h</text>
</a>
</g>
</g>
<!-- Node2&#45;&gt;Node3 -->
<g id="edge2" class="edge"><title>Node2&#45;&gt;Node3</title>
<path fill="none" stroke="midnightblue" d="M54.5,-101.805C54.5,-92.9102 54.5,-82.7798 54.5,-75.7511"/>
<polygon fill="midnightblue" stroke="midnightblue" points="51.0001,-102.083 54.5,-112.083 58.0001,-102.083 51.0001,-102.083"/>
</g>
<!-- Node4 -->
<g id="node4" class="node"><title>Node4</title>
<g id="a_node4"><a xlink:href="a04538.html" target="_top" xlink:title="优先级队列基本测试代码">
<polygon fill="white" stroke="black" points="20.5,-0.5 20.5,-19.5 88.5,-19.5 88.5,-0.5 20.5,-0.5"/>
<text text-anchor="middle" x="54.5" y="-7.5" font-family="Helvetica,sans-Serif" font-size="10.00">src/test0.cc</text>
</a>
</g>
</g>
<!-- Node3&#45;&gt;Node4 -->
<g id="edge3" class="edge"><title>Node3&#45;&gt;Node4</title>
<path fill="none" stroke="midnightblue" d="M54.5,-45.8045C54.5,-36.9102 54.5,-26.7798 54.5,-19.7511"/>
<polygon fill="midnightblue" stroke="midnightblue" points="51.0001,-46.083 54.5,-56.083 58.0001,-46.083 51.0001,-46.083"/>
</g>
<!-- Node5&#45;&gt;Node1 -->
<g id="edge6" class="edge"><title>Node5&#45;&gt;Node1</title>
<path fill="none" stroke="midnightblue" d="M172.958,-141.691C173.606,-150.635 173.176,-160.927 171.666,-168.083"/>
<polygon fill="midnightblue" stroke="midnightblue" points="176.423,-141.2 171.631,-131.751 169.485,-142.126 176.423,-141.2"/>
</g>
<!-- Node6&#45;&gt;Node1 -->
<g id="edge8" class="edge"><title>Node6&#45;&gt;Node1</title>
<path fill="none" stroke="midnightblue" d="M260.179,-136.131C239.961,-146.183 210.542,-159.754 189.969,-168.444"/>
<polygon fill="midnightblue" stroke="midnightblue" points="261.947,-139.159 269.285,-131.516 258.783,-132.915 261.947,-139.159"/>
</g>
</g>
</svg>
