<?xml version="1.0" encoding="UTF-8" standalone="no"?>
<!DOCTYPE svg PUBLIC "-//W3C//DTD SVG 1.1//EN"
 "http://www.w3.org/Graphics/SVG/1.1/DTD/svg11.dtd">
<!-- Generated by graphviz version 2.38.0 (20140413.2041)
 -->
<!-- Title: include/dLinkList.h Pages: 1 -->
<svg width="224pt" height="252pt"
 viewBox="0.00 0.00 223.50 252.00" xmlns="http://www.w3.org/2000/svg" xmlns:xlink="http://www.w3.org/1999/xlink">
<g id="graph0" class="graph" transform="scale(1 1) rotate(0) translate(4 248)">
<title>include/dLinkList.h</title>
<polygon fill="white" stroke="none" points="-4,4 -4,-248 219.5,-248 219.5,4 -4,4"/>
<!-- Node1 -->
<g id="node1" class="node"><title>Node1</title>
<g id="a_node1"><a xlink:title="双链表类">
<polygon fill="#bfbfbf" stroke="black" points="61.5,-224.5 61.5,-243.5 159.5,-243.5 159.5,-224.5 61.5,-224.5"/>
<text text-anchor="middle" x="110.5" y="-231.5" font-family="Helvetica,sans-Serif" font-size="10.00">include/dLinkList.h</text>
</a>
</g>
</g>
<!-- Node2 -->
<g id="node2" class="node"><title>Node2</title>
<g id="a_node2"><a xlink:href="a04526.html" target="_top" xlink:title="栈的抽象类">
<polygon fill="white" stroke="black" points="73.5,-168.5 73.5,-187.5 147.5,-187.5 147.5,-168.5 73.5,-168.5"/>
<text text-anchor="middle" x="110.5" y="-175.5" font-family="Helvetica,sans-Serif" font-size="10.00">include/List.h</text>
</a>
</g>
</g>
<!-- Node1&#45;&gt;Node2 -->
<g id="edge1" class="edge"><title>Node1&#45;&gt;Node2</title>
<path fill="none" stroke="midnightblue" d="M104.028,-214.101C103.396,-205.136 103.843,-194.858 105.369,-187.751"/>
<polygon fill="midnightblue" stroke="midnightblue" points="100.566,-214.622 105.334,-224.083 107.507,-213.713 100.566,-214.622"/>
</g>
<!-- Node2&#45;&gt;Node1 -->
<g id="edge6" class="edge"><title>Node2&#45;&gt;Node1</title>
<path fill="none" stroke="midnightblue" d="M116.958,-197.691C117.606,-206.635 117.176,-216.927 115.666,-224.083"/>
<polygon fill="midnightblue" stroke="midnightblue" points="120.423,-197.2 115.631,-187.751 113.485,-198.126 120.423,-197.2"/>
</g>
<!-- Node3 -->
<g id="node3" class="node"><title>Node3</title>
<g id="a_node3"><a xlink:href="a04529.html" target="_top" xlink:title="顺序表类">
<polygon fill="white" stroke="black" points="9.5,-112.5 9.5,-131.5 99.5,-131.5 99.5,-112.5 9.5,-112.5"/>
<text text-anchor="middle" x="54.5" y="-119.5" font-family="Helvetica,sans-Serif" font-size="10.00">include/seqList.h</text>
</a>
</g>
</g>
<!-- Node2&#45;&gt;Node3 -->
<g id="edge2" class="edge"><title>Node2&#45;&gt;Node3</title>
<path fill="none" stroke="midnightblue" d="M88.6187,-161.82C77.5188,-152.145 65.2001,-139.948 58.5124,-131.834"/>
<polygon fill="midnightblue" stroke="midnightblue" points="86.4734,-164.588 96.3878,-168.324 90.9669,-159.221 86.4734,-164.588"/>
</g>
<!-- Node6 -->
<g id="node6" class="node"><title>Node6</title>
<g id="a_node6"><a xlink:href="a04532.html" target="_top" xlink:title="单链表类的定义和实现">
<polygon fill="white" stroke="black" points="117.5,-112.5 117.5,-131.5 215.5,-131.5 215.5,-112.5 117.5,-112.5"/>
<text text-anchor="middle" x="166.5" y="-119.5" font-family="Helvetica,sans-Serif" font-size="10.00">include/sLinkList.h</text>
</a>
</g>
</g>
<!-- Node2&#45;&gt;Node6 -->
<g id="edge7" class="edge"><title>Node2&#45;&gt;Node6</title>
<path fill="none" stroke="midnightblue" d="M121.402,-160.431C130.322,-150.967 142.615,-139.483 152.294,-131.751"/>
<polygon fill="midnightblue" stroke="midnightblue" points="118.622,-158.289 114.581,-168.083 123.848,-162.947 118.622,-158.289"/>
</g>
<!-- Node3&#45;&gt;Node2 -->
<g id="edge5" class="edge"><title>Node3&#45;&gt;Node2</title>
<path fill="none" stroke="midnightblue" d="M76.4421,-138.233C87.4883,-147.866 99.7283,-159.984 106.419,-168.083"/>
<polygon fill="midnightblue" stroke="midnightblue" points="78.619,-135.491 68.7062,-131.751 74.1231,-140.856 78.619,-135.491"/>
</g>
<!-- Node4 -->
<g id="node4" class="node"><title>Node4</title>
<g id="a_node4"><a xlink:href="a04520.html" target="_top" xlink:title="优先级队列的接口和实现">
<polygon fill="white" stroke="black" points="0,-56.5 0,-75.5 109,-75.5 109,-56.5 0,-56.5"/>
<text text-anchor="middle" x="54.5" y="-63.5" font-family="Helvetica,sans-Serif" font-size="10.00">include/BinaryHeap.h</text>
</a>
</g>
</g>
<!-- Node3&#45;&gt;Node4 -->
<g id="edge3" class="edge"><title>Node3&#45;&gt;Node4</title>
<path fill="none" stroke="midnightblue" d="M54.5,-101.805C54.5,-92.9102 54.5,-82.7798 54.5,-75.7511"/>
<polygon fill="midnightblue" stroke="midnightblue" points="51.0001,-102.083 54.5,-112.083 58.0001,-102.083 51.0001,-102.083"/>
</g>
<!-- Node5 -->
<g id="node5" class="node"><title>Node5</title>
<g id="a_node5"><a xlink:href="a04538.html" target="_top" xlink:title="优先级队列基本测试代码">
<polygon fill="white" stroke="black" points="20.5,-0.5 20.5,-19.5 88.5,-19.5 88.5,-0.5 20.5,-0.5"/>
<text text-anchor="middle" x="54.5" y="-7.5" font-family="Helvetica,sans-Serif" font-size="10.00">src/test0.cc</text>
</a>
</g>
</g>
<!-- Node4&#45;&gt;Node5 -->
<g id="edge4" class="edge"><title>Node4&#45;&gt;Node5</title>
<path fill="none" stroke="midnightblue" d="M54.5,-45.8045C54.5,-36.9102 54.5,-26.7798 54.5,-19.7511"/>
<polygon fill="midnightblue" stroke="midnightblue" points="51.0001,-46.083 54.5,-56.083 58.0001,-46.083 51.0001,-46.083"/>
</g>
<!-- Node6&#45;&gt;Node2 -->
<g id="edge8" class="edge"><title>Node6&#45;&gt;Node2</title>
<path fill="none" stroke="midnightblue" d="M155.653,-139.511C146.699,-149.017 134.324,-160.576 124.612,-168.324"/>
<polygon fill="midnightblue" stroke="midnightblue" points="158.452,-141.63 162.488,-131.834 153.224,-136.975 158.452,-141.63"/>
</g>
</g>
</svg>
