<?xml version="1.0" encoding="UTF-8" standalone="no"?>
<!DOCTYPE svg PUBLIC "-//W3C//DTD SVG 1.1//EN"
 "http://www.w3.org/Graphics/SVG/1.1/DTD/svg11.dtd">
<!-- Generated by graphviz version 2.38.0 (20140413.2041)
 -->
<!-- Title: Queue::BinaryHeap&lt; Comparable, Compare &gt; Pages: 1 -->
<svg width="238pt" height="920pt"
 viewBox="0.00 0.00 237.50 920.00" xmlns="http://www.w3.org/2000/svg" xmlns:xlink="http://www.w3.org/1999/xlink">
<g id="graph0" class="graph" transform="scale(1 1) rotate(0) translate(4 916)">
<title>Queue::BinaryHeap&lt; Comparable, Compare &gt;</title>
<polygon fill="white" stroke="none" points="-4,4 -4,-916 233.5,-916 233.5,4 -4,4"/>
<!-- Node1 -->
<g id="node1" class="node"><title>Node1</title>
<g id="a_node1"><a xlink:title="Priority queue.">
<polygon fill="#bfbfbf" stroke="black" points="35.5,-0.5 35.5,-233.5 160.5,-233.5 160.5,-0.5 35.5,-0.5"/>
<text text-anchor="start" x="43.5" y="-221.5" font-family="Helvetica,sans-Serif" font-size="10.00">Queue::BinaryHeap&lt;</text>
<text text-anchor="middle" x="98" y="-210.5" font-family="Helvetica,sans-Serif" font-size="10.00"> Comparable, Compare &gt;</text>
<polyline fill="none" stroke="black" points="35.5,-203.5 160.5,-203.5 "/>
<text text-anchor="start" x="43.5" y="-191.5" font-family="Helvetica,sans-Serif" font-size="10.00">+ const_reference</text>
<text text-anchor="start" x="43.5" y="-180.5" font-family="Helvetica,sans-Serif" font-size="10.00"># current_size_</text>
<text text-anchor="start" x="43.5" y="-169.5" font-family="Helvetica,sans-Serif" font-size="10.00"># comp</text>
<polyline fill="none" stroke="black" points="35.5,-162.5 160.5,-162.5 "/>
<text text-anchor="start" x="43.5" y="-150.5" font-family="Helvetica,sans-Serif" font-size="10.00">+ BinaryHeap()</text>
<text text-anchor="start" x="43.5" y="-139.5" font-family="Helvetica,sans-Serif" font-size="10.00">+ BinaryHeap()</text>
<text text-anchor="start" x="43.5" y="-128.5" font-family="Helvetica,sans-Serif" font-size="10.00">+ ~BinaryHeap()</text>
<text text-anchor="start" x="43.5" y="-117.5" font-family="Helvetica,sans-Serif" font-size="10.00">+ empty()</text>
<text text-anchor="start" x="43.5" y="-106.5" font-family="Helvetica,sans-Serif" font-size="10.00">+ top()</text>
<text text-anchor="start" x="43.5" y="-95.5" font-family="Helvetica,sans-Serif" font-size="10.00">+ pop()</text>
<text text-anchor="start" x="43.5" y="-84.5" font-family="Helvetica,sans-Serif" font-size="10.00">+ pop()</text>
<text text-anchor="start" x="43.5" y="-73.5" font-family="Helvetica,sans-Serif" font-size="10.00">+ push()</text>
<text text-anchor="start" x="43.5" y="-62.5" font-family="Helvetica,sans-Serif" font-size="10.00">+ clear()</text>
<text text-anchor="start" x="43.5" y="-51.5" font-family="Helvetica,sans-Serif" font-size="10.00">+ size()</text>
<text text-anchor="start" x="43.5" y="-40.5" font-family="Helvetica,sans-Serif" font-size="10.00">+ print_heap()</text>
<text text-anchor="start" x="43.5" y="-29.5" font-family="Helvetica,sans-Serif" font-size="10.00"># buildHeap()</text>
<text text-anchor="start" x="43.5" y="-18.5" font-family="Helvetica,sans-Serif" font-size="10.00"># percolateDown()</text>
<text text-anchor="start" x="43.5" y="-7.5" font-family="Helvetica,sans-Serif" font-size="10.00"># percolateUp()</text>
</a>
</g>
</g>
<!-- Node2 -->
<g id="node2" class="node"><title>Node2</title>
<g id="a_node2"><a xlink:href="a05397.html" target="_top" xlink:title=" ">
<polygon fill="white" stroke="black" points="47.5,-281.5 47.5,-492.5 148.5,-492.5 148.5,-281.5 47.5,-281.5"/>
<text text-anchor="start" x="55.5" y="-480.5" font-family="Helvetica,sans-Serif" font-size="10.00">List::seqList&lt; value</text>
<text text-anchor="middle" x="98" y="-469.5" font-family="Helvetica,sans-Serif" font-size="10.00">_type &gt;</text>
<polyline fill="none" stroke="black" points="47.5,-462.5 148.5,-462.5 "/>
<text text-anchor="start" x="55.5" y="-450.5" font-family="Helvetica,sans-Serif" font-size="10.00">&#45; data</text>
<text text-anchor="start" x="55.5" y="-439.5" font-family="Helvetica,sans-Serif" font-size="10.00">&#45; currentLength</text>
<text text-anchor="start" x="55.5" y="-428.5" font-family="Helvetica,sans-Serif" font-size="10.00">&#45; maxSize</text>
<polyline fill="none" stroke="black" points="47.5,-421.5 148.5,-421.5 "/>
<text text-anchor="start" x="55.5" y="-409.5" font-family="Helvetica,sans-Serif" font-size="10.00">+ seqList()</text>
<text text-anchor="start" x="55.5" y="-398.5" font-family="Helvetica,sans-Serif" font-size="10.00">+ seqList()</text>
<text text-anchor="start" x="55.5" y="-387.5" font-family="Helvetica,sans-Serif" font-size="10.00">+ seqList()</text>
<text text-anchor="start" x="55.5" y="-376.5" font-family="Helvetica,sans-Serif" font-size="10.00">+ seqList()</text>
<text text-anchor="start" x="55.5" y="-365.5" font-family="Helvetica,sans-Serif" font-size="10.00">+ ~seqList()</text>
<text text-anchor="start" x="55.5" y="-354.5" font-family="Helvetica,sans-Serif" font-size="10.00">+ clear()</text>
<text text-anchor="start" x="55.5" y="-343.5" font-family="Helvetica,sans-Serif" font-size="10.00">+ length()</text>
<text text-anchor="start" x="55.5" y="-332.5" font-family="Helvetica,sans-Serif" font-size="10.00">+ insert()</text>
<text text-anchor="start" x="55.5" y="-321.5" font-family="Helvetica,sans-Serif" font-size="10.00">+ remove()</text>
<text text-anchor="start" x="55.5" y="-310.5" font-family="Helvetica,sans-Serif" font-size="10.00">+ search()</text>
<text text-anchor="start" x="55.5" y="-299.5" font-family="Helvetica,sans-Serif" font-size="10.00">and 19 more...</text>
<text text-anchor="start" x="55.5" y="-288.5" font-family="Helvetica,sans-Serif" font-size="10.00">&#45; doubleSpace()</text>
</a>
</g>
</g>
<!-- Node2&#45;&gt;Node1 -->
<g id="edge1" class="edge"><title>Node2&#45;&gt;Node1</title>
<path fill="none" stroke="#404040" d="M98,-281.233C98,-269.683 98,-257.829 98,-246.036"/>
<polygon fill="none" stroke="#404040" points="98.0001,-245.785 94,-239.785 98,-233.785 102,-239.785 98.0001,-245.785"/>
<text text-anchor="middle" x="116" y="-255" font-family="Helvetica,sans-Serif" font-size="10.00"> #array_</text>
</g>
<!-- Node3 -->
<g id="node3" class="node"><title>Node3</title>
<g id="a_node3"><a xlink:href="a05385.html" target="_top" xlink:title=" ">
<polygon fill="white" stroke="black" points="0,-579 0,-702 118,-702 118,-579 0,-579"/>
<text text-anchor="middle" x="59" y="-690" font-family="Helvetica,sans-Serif" font-size="10.00">List::List&lt; value_type &gt;</text>
<polyline fill="none" stroke="black" points="0,-683 118,-683 "/>
<text text-anchor="middle" x="59" y="-671" font-family="Helvetica,sans-Serif" font-size="10.00"> </text>
<polyline fill="none" stroke="black" points="0,-664 118,-664 "/>
<text text-anchor="start" x="8" y="-652" font-family="Helvetica,sans-Serif" font-size="10.00">+ clear()</text>
<text text-anchor="start" x="8" y="-641" font-family="Helvetica,sans-Serif" font-size="10.00">+ length()</text>
<text text-anchor="start" x="8" y="-630" font-family="Helvetica,sans-Serif" font-size="10.00">+ insert()</text>
<text text-anchor="start" x="8" y="-619" font-family="Helvetica,sans-Serif" font-size="10.00">+ remove()</text>
<text text-anchor="start" x="8" y="-608" font-family="Helvetica,sans-Serif" font-size="10.00">+ search()</text>
<text text-anchor="start" x="8" y="-597" font-family="Helvetica,sans-Serif" font-size="10.00">+ visit()</text>
<text text-anchor="start" x="8" y="-586" font-family="Helvetica,sans-Serif" font-size="10.00">+ ~List()</text>
</a>
</g>
</g>
<!-- Node3&#45;&gt;Node2 -->
<g id="edge2" class="edge"><title>Node3&#45;&gt;Node2</title>
<path fill="none" stroke="midnightblue" d="M69.9306,-569.012C73.5995,-545.352 77.7737,-518.434 81.7607,-492.722"/>
<polygon fill="none" stroke="midnightblue" points="66.4649,-568.521 68.3911,-578.939 73.3822,-569.594 66.4649,-568.521"/>
</g>
<!-- Node4 -->
<g id="node4" class="node"><title>Node4</title>
<g id="a_node4"><a xlink:href="a05385.html" target="_top" xlink:title=" ">
<polygon fill="white" stroke="black" points="87.5,-788.5 87.5,-911.5 164.5,-911.5 164.5,-788.5 87.5,-788.5"/>
<text text-anchor="middle" x="126" y="-899.5" font-family="Helvetica,sans-Serif" font-size="10.00">List::List&lt; T &gt;</text>
<polyline fill="none" stroke="black" points="87.5,-892.5 164.5,-892.5 "/>
<text text-anchor="middle" x="126" y="-880.5" font-family="Helvetica,sans-Serif" font-size="10.00"> </text>
<polyline fill="none" stroke="black" points="87.5,-873.5 164.5,-873.5 "/>
<text text-anchor="start" x="95.5" y="-861.5" font-family="Helvetica,sans-Serif" font-size="10.00">+ clear()</text>
<text text-anchor="start" x="95.5" y="-850.5" font-family="Helvetica,sans-Serif" font-size="10.00">+ length()</text>
<text text-anchor="start" x="95.5" y="-839.5" font-family="Helvetica,sans-Serif" font-size="10.00">+ insert()</text>
<text text-anchor="start" x="95.5" y="-828.5" font-family="Helvetica,sans-Serif" font-size="10.00">+ remove()</text>
<text text-anchor="start" x="95.5" y="-817.5" font-family="Helvetica,sans-Serif" font-size="10.00">+ search()</text>
<text text-anchor="start" x="95.5" y="-806.5" font-family="Helvetica,sans-Serif" font-size="10.00">+ visit()</text>
<text text-anchor="start" x="95.5" y="-795.5" font-family="Helvetica,sans-Serif" font-size="10.00">+ ~List()</text>
</a>
</g>
</g>
<!-- Node4&#45;&gt;Node3 -->
<g id="edge3" class="edge"><title>Node4&#45;&gt;Node3</title>
<path fill="none" stroke="orange" d="M83.6284,-779.213C82.3174,-776.141 81.0992,-773.062 80,-770 72.2864,-748.512 67.3905,-723.977 64.2897,-702.145"/>
<polygon fill="orange" stroke="orange" points="80.4795,-780.743 87.8138,-788.389 86.8484,-777.839 80.4795,-780.743"/>
<text text-anchor="middle" x="113.5" y="-762" font-family="Helvetica,sans-Serif" font-size="10.00"> &lt; value_type &gt;</text>
</g>
<!-- Node5 -->
<g id="node5" class="node"><title>Node5</title>
<g id="a_node5"><a xlink:href="a05397.html" target="_top" xlink:title=" ">
<polygon fill="white" stroke="black" points="136.5,-540.5 136.5,-740.5 229.5,-740.5 229.5,-540.5 136.5,-540.5"/>
<text text-anchor="middle" x="183" y="-728.5" font-family="Helvetica,sans-Serif" font-size="10.00">List::seqList&lt; T &gt;</text>
<polyline fill="none" stroke="black" points="136.5,-721.5 229.5,-721.5 "/>
<text text-anchor="start" x="144.5" y="-709.5" font-family="Helvetica,sans-Serif" font-size="10.00">&#45; data</text>
<text text-anchor="start" x="144.5" y="-698.5" font-family="Helvetica,sans-Serif" font-size="10.00">&#45; currentLength</text>
<text text-anchor="start" x="144.5" y="-687.5" font-family="Helvetica,sans-Serif" font-size="10.00">&#45; maxSize</text>
<polyline fill="none" stroke="black" points="136.5,-680.5 229.5,-680.5 "/>
<text text-anchor="start" x="144.5" y="-668.5" font-family="Helvetica,sans-Serif" font-size="10.00">+ seqList()</text>
<text text-anchor="start" x="144.5" y="-657.5" font-family="Helvetica,sans-Serif" font-size="10.00">+ seqList()</text>
<text text-anchor="start" x="144.5" y="-646.5" font-family="Helvetica,sans-Serif" font-size="10.00">+ seqList()</text>
<text text-anchor="start" x="144.5" y="-635.5" font-family="Helvetica,sans-Serif" font-size="10.00">+ seqList()</text>
<text text-anchor="start" x="144.5" y="-624.5" font-family="Helvetica,sans-Serif" font-size="10.00">+ ~seqList()</text>
<text text-anchor="start" x="144.5" y="-613.5" font-family="Helvetica,sans-Serif" font-size="10.00">+ clear()</text>
<text text-anchor="start" x="144.5" y="-602.5" font-family="Helvetica,sans-Serif" font-size="10.00">+ length()</text>
<text text-anchor="start" x="144.5" y="-591.5" font-family="Helvetica,sans-Serif" font-size="10.00">+ insert()</text>
<text text-anchor="start" x="144.5" y="-580.5" font-family="Helvetica,sans-Serif" font-size="10.00">+ remove()</text>
<text text-anchor="start" x="144.5" y="-569.5" font-family="Helvetica,sans-Serif" font-size="10.00">+ search()</text>
<text text-anchor="start" x="144.5" y="-558.5" font-family="Helvetica,sans-Serif" font-size="10.00">and 19 more...</text>
<text text-anchor="start" x="144.5" y="-547.5" font-family="Helvetica,sans-Serif" font-size="10.00">&#45; doubleSpace()</text>
</a>
</g>
</g>
<!-- Node4&#45;&gt;Node5 -->
<g id="edge5" class="edge"><title>Node4&#45;&gt;Node5</title>
<path fill="none" stroke="midnightblue" d="M148.553,-778.497C149.393,-775.631 150.212,-772.79 151,-770 153.687,-760.486 156.374,-750.543 158.986,-740.583"/>
<polygon fill="none" stroke="midnightblue" points="145.133,-777.718 145.629,-788.301 151.841,-779.718 145.133,-777.718"/>
</g>
<!-- Node5&#45;&gt;Node2 -->
<g id="edge4" class="edge"><title>Node5&#45;&gt;Node2</title>
<path fill="none" stroke="orange" d="M146.279,-530.849C142.007,-518.208 137.655,-505.332 133.401,-492.745"/>
<polygon fill="orange" stroke="orange" points="143.01,-532.109 149.528,-540.462 149.642,-529.867 143.01,-532.109"/>
<text text-anchor="middle" x="177.5" y="-514" font-family="Helvetica,sans-Serif" font-size="10.00"> &lt; value_type &gt;</text>
</g>
</g>
</svg>
