<?xml version="1.0" encoding="UTF-8" standalone="no"?>
<!DOCTYPE svg PUBLIC "-//W3C//DTD SVG 1.1//EN"
 "http://www.w3.org/Graphics/SVG/1.1/DTD/svg11.dtd">
<!-- Generated by graphviz version 2.38.0 (20140413.2041)
 -->
<!-- Title: List::dLinkList&lt; T &gt;::node Pages: 1 -->
<svg width="145pt" height="204pt"
 viewBox="0.00 0.00 145.00 204.00" xmlns="http://www.w3.org/2000/svg" xmlns:xlink="http://www.w3.org/1999/xlink">
<g id="graph0" class="graph" transform="scale(1 1) rotate(0) translate(4 200)">
<title>List::dLinkList&lt; T &gt;::node</title>
<polygon fill="white" stroke="none" points="-4,4 -4,-200 141,-200 141,4 -4,4"/>
<!-- Node1 -->
<g id="node1" class="node"><title>Node1</title>
<g id="a_node1"><a xlink:title=" ">
<polygon fill="#bfbfbf" stroke="black" points="0,-0.5 0,-90.5 92,-90.5 92,-0.5 0,-0.5"/>
<text text-anchor="start" x="8" y="-78.5" font-family="Helvetica,sans-Serif" font-size="10.00">List::dLinkList&lt; T</text>
<text text-anchor="middle" x="46" y="-67.5" font-family="Helvetica,sans-Serif" font-size="10.00"> &gt;::node</text>
<polyline fill="none" stroke="black" points="0,-60.5 92,-60.5 "/>
<text text-anchor="middle" x="46" y="-48.5" font-family="Helvetica,sans-Serif" font-size="10.00"> </text>
<polyline fill="none" stroke="black" points="0,-41.5 92,-41.5 "/>
<text text-anchor="start" x="8" y="-29.5" font-family="Helvetica,sans-Serif" font-size="10.00">+ node()</text>
<text text-anchor="start" x="8" y="-18.5" font-family="Helvetica,sans-Serif" font-size="10.00">+ node()</text>
<text text-anchor="start" x="8" y="-7.5" font-family="Helvetica,sans-Serif" font-size="10.00">+ ~node()</text>
</a>
</g>
</g>
<!-- Node1&#45;&gt;Node1 -->
<g id="edge1" class="edge"><title>Node1&#45;&gt;Node1</title>
<path fill="none" stroke="#404040" d="M92.0242,-57.9387C102.406,-56.8181 110,-52.6719 110,-45.5 110,-41.4658 107.597,-38.389 103.647,-36.2695"/>
<polygon fill="none" stroke="#404040" points="103.592,-36.2542 96.7436,-38.5136 92.0242,-33.0613 98.8722,-30.8019 103.592,-36.2542"/>
<text text-anchor="middle" x="123.5" y="-48.5" font-family="Helvetica,sans-Serif" font-size="10.00"> +prev</text>
<text text-anchor="middle" x="123.5" y="-37.5" font-family="Helvetica,sans-Serif" font-size="10.00">+next</text>
</g>
<!-- Node2 -->
<g id="node2" class="node"><title>Node2</title>
<g id="a_node2"><a xlink:title=" ">
<polygon fill="white" stroke="#bfbfbf" points="31.5,-138.5 31.5,-195.5 60.5,-195.5 60.5,-138.5 31.5,-138.5"/>
<text text-anchor="middle" x="46" y="-183.5" font-family="Helvetica,sans-Serif" font-size="10.00">T</text>
<polyline fill="none" stroke="#bfbfbf" points="31.5,-176.5 60.5,-176.5 "/>
<text text-anchor="middle" x="46" y="-164.5" font-family="Helvetica,sans-Serif" font-size="10.00"> </text>
<polyline fill="none" stroke="#bfbfbf" points="31.5,-157.5 60.5,-157.5 "/>
<text text-anchor="middle" x="46" y="-145.5" font-family="Helvetica,sans-Serif" font-size="10.00"> </text>
</a>
</g>
</g>
<!-- Node2&#45;&gt;Node1 -->
<g id="edge2" class="edge"><title>Node2&#45;&gt;Node1</title>
<path fill="none" stroke="#404040" d="M46,-138.284C46,-127.735 46,-115.294 46,-103.035"/>
<polygon fill="none" stroke="#404040" points="46.0001,-102.912 42,-96.9125 46,-90.9125 50,-96.9124 46.0001,-102.912"/>
<text text-anchor="middle" x="60" y="-112" font-family="Helvetica,sans-Serif" font-size="10.00"> +data</text>
</g>
</g>
</svg>
