<?xml version="1.0" encoding="UTF-8" standalone="no"?>
<!DOCTYPE svg PUBLIC "-//W3C//DTD SVG 1.1//EN"
 "http://www.w3.org/Graphics/SVG/1.1/DTD/svg11.dtd">
<!-- Generated by graphviz version 2.38.0 (20140413.2041)
 -->
<!-- Title: List::seqList&lt; T &gt; Pages: 1 -->
<svg width="151pt" height="618pt"
 viewBox="0.00 0.00 151.00 618.00" xmlns="http://www.w3.org/2000/svg" xmlns:xlink="http://www.w3.org/1999/xlink">
<g id="graph0" class="graph" transform="scale(1 1) rotate(0) translate(4 614)">
<title>List::seqList&lt; T &gt;</title>
<polygon fill="white" stroke="none" points="-4,4 -4,-614 147,-614 147,4 -4,4"/>
<!-- Node1 -->
<g id="node1" class="node"><title>Node1</title>
<g id="a_node1"><a xlink:title=" ">
<polygon fill="#bfbfbf" stroke="black" points="23.5,-248.5 23.5,-448.5 116.5,-448.5 116.5,-248.5 23.5,-248.5"/>
<text text-anchor="middle" x="70" y="-436.5" font-family="Helvetica,sans-Serif" font-size="10.00">List::seqList&lt; T &gt;</text>
<polyline fill="none" stroke="black" points="23.5,-429.5 116.5,-429.5 "/>
<text text-anchor="start" x="31.5" y="-417.5" font-family="Helvetica,sans-Serif" font-size="10.00">&#45; data</text>
<text text-anchor="start" x="31.5" y="-406.5" font-family="Helvetica,sans-Serif" font-size="10.00">&#45; currentLength</text>
<text text-anchor="start" x="31.5" y="-395.5" font-family="Helvetica,sans-Serif" font-size="10.00">&#45; maxSize</text>
<polyline fill="none" stroke="black" points="23.5,-388.5 116.5,-388.5 "/>
<text text-anchor="start" x="31.5" y="-376.5" font-family="Helvetica,sans-Serif" font-size="10.00">+ seqList()</text>
<text text-anchor="start" x="31.5" y="-365.5" font-family="Helvetica,sans-Serif" font-size="10.00">+ seqList()</text>
<text text-anchor="start" x="31.5" y="-354.5" font-family="Helvetica,sans-Serif" font-size="10.00">+ seqList()</text>
<text text-anchor="start" x="31.5" y="-343.5" font-family="Helvetica,sans-Serif" font-size="10.00">+ seqList()</text>
<text text-anchor="start" x="31.5" y="-332.5" font-family="Helvetica,sans-Serif" font-size="10.00">+ ~seqList()</text>
<text text-anchor="start" x="31.5" y="-321.5" font-family="Helvetica,sans-Serif" font-size="10.00">+ clear()</text>
<text text-anchor="start" x="31.5" y="-310.5" font-family="Helvetica,sans-Serif" font-size="10.00">+ length()</text>
<text text-anchor="start" x="31.5" y="-299.5" font-family="Helvetica,sans-Serif" font-size="10.00">+ insert()</text>
<text text-anchor="start" x="31.5" y="-288.5" font-family="Helvetica,sans-Serif" font-size="10.00">+ remove()</text>
<text text-anchor="start" x="31.5" y="-277.5" font-family="Helvetica,sans-Serif" font-size="10.00">+ search()</text>
<text text-anchor="start" x="31.5" y="-266.5" font-family="Helvetica,sans-Serif" font-size="10.00">and 17 more...</text>
<text text-anchor="start" x="31.5" y="-255.5" font-family="Helvetica,sans-Serif" font-size="10.00">&#45; doubleSpace()</text>
</a>
</g>
</g>
<!-- Node3 -->
<g id="node3" class="node"><title>Node3</title>
<g id="a_node3"><a xlink:href="a05391.html" target="_top" xlink:title=" ">
<polygon fill="white" stroke="black" points="0,-0.5 0,-200.5 140,-200.5 140,-0.5 0,-0.5"/>
<text text-anchor="middle" x="70" y="-188.5" font-family="Helvetica,sans-Serif" font-size="10.00">List::seqList&lt; Comparable &gt;</text>
<polyline fill="none" stroke="black" points="0,-181.5 140,-181.5 "/>
<text text-anchor="start" x="8" y="-169.5" font-family="Helvetica,sans-Serif" font-size="10.00">&#45; data</text>
<text text-anchor="start" x="8" y="-158.5" font-family="Helvetica,sans-Serif" font-size="10.00">&#45; currentLength</text>
<text text-anchor="start" x="8" y="-147.5" font-family="Helvetica,sans-Serif" font-size="10.00">&#45; maxSize</text>
<polyline fill="none" stroke="black" points="0,-140.5 140,-140.5 "/>
<text text-anchor="start" x="8" y="-128.5" font-family="Helvetica,sans-Serif" font-size="10.00">+ seqList()</text>
<text text-anchor="start" x="8" y="-117.5" font-family="Helvetica,sans-Serif" font-size="10.00">+ seqList()</text>
<text text-anchor="start" x="8" y="-106.5" font-family="Helvetica,sans-Serif" font-size="10.00">+ seqList()</text>
<text text-anchor="start" x="8" y="-95.5" font-family="Helvetica,sans-Serif" font-size="10.00">+ seqList()</text>
<text text-anchor="start" x="8" y="-84.5" font-family="Helvetica,sans-Serif" font-size="10.00">+ ~seqList()</text>
<text text-anchor="start" x="8" y="-73.5" font-family="Helvetica,sans-Serif" font-size="10.00">+ clear()</text>
<text text-anchor="start" x="8" y="-62.5" font-family="Helvetica,sans-Serif" font-size="10.00">+ length()</text>
<text text-anchor="start" x="8" y="-51.5" font-family="Helvetica,sans-Serif" font-size="10.00">+ insert()</text>
<text text-anchor="start" x="8" y="-40.5" font-family="Helvetica,sans-Serif" font-size="10.00">+ remove()</text>
<text text-anchor="start" x="8" y="-29.5" font-family="Helvetica,sans-Serif" font-size="10.00">+ search()</text>
<text text-anchor="start" x="8" y="-18.5" font-family="Helvetica,sans-Serif" font-size="10.00">and 17 more...</text>
<text text-anchor="start" x="8" y="-7.5" font-family="Helvetica,sans-Serif" font-size="10.00">&#45; doubleSpace()</text>
</a>
</g>
</g>
<!-- Node1&#45;&gt;Node3 -->
<g id="edge2" class="edge"><title>Node1&#45;&gt;Node3</title>
<path fill="none" stroke="orange" d="M70,-237.848C70,-225.518 70,-213.008 70,-200.819"/>
<polygon fill="orange" stroke="orange" points="66.5001,-238.151 70,-248.151 73.5001,-238.152 66.5001,-238.151"/>
<text text-anchor="middle" x="106.5" y="-222" font-family="Helvetica,sans-Serif" font-size="10.00"> &lt; Comparable &gt;</text>
</g>
<!-- Node2 -->
<g id="node2" class="node"><title>Node2</title>
<g id="a_node2"><a xlink:href="a05379.html" target="_top" xlink:title=" ">
<polygon fill="white" stroke="black" points="31.5,-486.5 31.5,-609.5 108.5,-609.5 108.5,-486.5 31.5,-486.5"/>
<text text-anchor="middle" x="70" y="-597.5" font-family="Helvetica,sans-Serif" font-size="10.00">List::List&lt; T &gt;</text>
<polyline fill="none" stroke="black" points="31.5,-590.5 108.5,-590.5 "/>
<text text-anchor="middle" x="70" y="-578.5" font-family="Helvetica,sans-Serif" font-size="10.00"> </text>
<polyline fill="none" stroke="black" points="31.5,-571.5 108.5,-571.5 "/>
<text text-anchor="start" x="39.5" y="-559.5" font-family="Helvetica,sans-Serif" font-size="10.00">+ clear()</text>
<text text-anchor="start" x="39.5" y="-548.5" font-family="Helvetica,sans-Serif" font-size="10.00">+ length()</text>
<text text-anchor="start" x="39.5" y="-537.5" font-family="Helvetica,sans-Serif" font-size="10.00">+ insert()</text>
<text text-anchor="start" x="39.5" y="-526.5" font-family="Helvetica,sans-Serif" font-size="10.00">+ remove()</text>
<text text-anchor="start" x="39.5" y="-515.5" font-family="Helvetica,sans-Serif" font-size="10.00">+ search()</text>
<text text-anchor="start" x="39.5" y="-504.5" font-family="Helvetica,sans-Serif" font-size="10.00">+ visit()</text>
<text text-anchor="start" x="39.5" y="-493.5" font-family="Helvetica,sans-Serif" font-size="10.00">+ ~List()</text>
</a>
</g>
</g>
<!-- Node2&#45;&gt;Node1 -->
<g id="edge1" class="edge"><title>Node2&#45;&gt;Node1</title>
<path fill="none" stroke="midnightblue" d="M70,-476.36C70,-467.321 70,-457.939 70,-448.554"/>
<polygon fill="none" stroke="midnightblue" points="66.5001,-476.401 70,-486.401 73.5001,-476.401 66.5001,-476.401"/>
</g>
</g>
</svg>
