<?xml version="1.0" encoding="UTF-8" standalone="no"?>
<!DOCTYPE svg PUBLIC "-//W3C//DTD SVG 1.1//EN"
 "http://www.w3.org/Graphics/SVG/1.1/DTD/svg11.dtd">
<!-- Generated by graphviz version 2.38.0 (20140413.2041)
 -->
<!-- Title: List::dLinkList&lt; T &gt;::iterator Pages: 1 -->
<svg width="145pt" height="558pt"
 viewBox="0.00 0.00 145.00 558.00" xmlns="http://www.w3.org/2000/svg" xmlns:xlink="http://www.w3.org/1999/xlink">
<g id="graph0" class="graph" transform="scale(1 1) rotate(0) translate(4 554)">
<title>List::dLinkList&lt; T &gt;::iterator</title>
<polygon fill="white" stroke="none" points="-4,4 -4,-554 141,-554 141,4 -4,4"/>
<!-- Node1 -->
<g id="node1" class="node"><title>Node1</title>
<g id="a_node1"><a xlink:title=" ">
<polygon fill="#bfbfbf" stroke="black" points="0,-0.5 0,-112.5 92,-112.5 92,-0.5 0,-0.5"/>
<text text-anchor="start" x="8" y="-100.5" font-family="Helvetica,sans-Serif" font-size="10.00">List::dLinkList&lt; T</text>
<text text-anchor="middle" x="46" y="-89.5" font-family="Helvetica,sans-Serif" font-size="10.00"> &gt;::iterator</text>
<polyline fill="none" stroke="black" points="0,-82.5 92,-82.5 "/>
<text text-anchor="start" x="8" y="-70.5" font-family="Helvetica,sans-Serif" font-size="10.00"># dLinkList&lt; T &gt;</text>
<polyline fill="none" stroke="black" points="0,-63.5 92,-63.5 "/>
<text text-anchor="start" x="8" y="-51.5" font-family="Helvetica,sans-Serif" font-size="10.00">+ operator*()</text>
<text text-anchor="start" x="8" y="-40.5" font-family="Helvetica,sans-Serif" font-size="10.00">+ operator*()</text>
<text text-anchor="start" x="8" y="-29.5" font-family="Helvetica,sans-Serif" font-size="10.00">+ operator++()</text>
<text text-anchor="start" x="8" y="-18.5" font-family="Helvetica,sans-Serif" font-size="10.00">+ operator++()</text>
<text text-anchor="start" x="8" y="-7.5" font-family="Helvetica,sans-Serif" font-size="10.00"># iterator()</text>
</a>
</g>
</g>
<!-- Node2 -->
<g id="node2" class="node"><title>Node2</title>
<g id="a_node2"><a xlink:href="a05377.html" target="_top" xlink:title=" ">
<polygon fill="white" stroke="black" points="0,-150.5 0,-306.5 92,-306.5 92,-150.5 0,-150.5"/>
<text text-anchor="start" x="8" y="-294.5" font-family="Helvetica,sans-Serif" font-size="10.00">List::dLinkList&lt; T</text>
<text text-anchor="middle" x="46" y="-283.5" font-family="Helvetica,sans-Serif" font-size="10.00"> &gt;::const_iterator</text>
<polyline fill="none" stroke="black" points="0,-276.5 92,-276.5 "/>
<text text-anchor="start" x="8" y="-264.5" font-family="Helvetica,sans-Serif" font-size="10.00"># dLinkList&lt; T &gt;</text>
<polyline fill="none" stroke="black" points="0,-257.5 92,-257.5 "/>
<text text-anchor="start" x="8" y="-245.5" font-family="Helvetica,sans-Serif" font-size="10.00">+ const_iterator()</text>
<text text-anchor="start" x="8" y="-234.5" font-family="Helvetica,sans-Serif" font-size="10.00">+ operator*()</text>
<text text-anchor="start" x="8" y="-223.5" font-family="Helvetica,sans-Serif" font-size="10.00">+ operator++()</text>
<text text-anchor="start" x="8" y="-212.5" font-family="Helvetica,sans-Serif" font-size="10.00">+ operator++()</text>
<text text-anchor="start" x="8" y="-201.5" font-family="Helvetica,sans-Serif" font-size="10.00">+ operator&#45;&#45;()</text>
<text text-anchor="start" x="8" y="-190.5" font-family="Helvetica,sans-Serif" font-size="10.00">+ operator&#45;&#45;()</text>
<text text-anchor="start" x="8" y="-179.5" font-family="Helvetica,sans-Serif" font-size="10.00">+ operator==()</text>
<text text-anchor="start" x="8" y="-168.5" font-family="Helvetica,sans-Serif" font-size="10.00">+ operator!=()</text>
<text text-anchor="start" x="8" y="-157.5" font-family="Helvetica,sans-Serif" font-size="10.00"># const_iterator()</text>
</a>
</g>
</g>
<!-- Node2&#45;&gt;Node1 -->
<g id="edge1" class="edge"><title>Node2&#45;&gt;Node1</title>
<path fill="none" stroke="midnightblue" d="M46,-140.348C46,-131.024 46,-121.735 46,-112.929"/>
<polygon fill="none" stroke="midnightblue" points="42.5001,-140.458 46,-150.458 49.5001,-140.458 42.5001,-140.458"/>
</g>
<!-- Node3 -->
<g id="node3" class="node"><title>Node3</title>
<g id="a_node3"><a xlink:href="a05373.html" target="_top" xlink:title=" ">
<polygon fill="white" stroke="black" points="0,-354.5 0,-444.5 92,-444.5 92,-354.5 0,-354.5"/>
<text text-anchor="start" x="8" y="-432.5" font-family="Helvetica,sans-Serif" font-size="10.00">List::dLinkList&lt; T</text>
<text text-anchor="middle" x="46" y="-421.5" font-family="Helvetica,sans-Serif" font-size="10.00"> &gt;::node</text>
<polyline fill="none" stroke="black" points="0,-414.5 92,-414.5 "/>
<text text-anchor="middle" x="46" y="-402.5" font-family="Helvetica,sans-Serif" font-size="10.00"> </text>
<polyline fill="none" stroke="black" points="0,-395.5 92,-395.5 "/>
<text text-anchor="start" x="8" y="-383.5" font-family="Helvetica,sans-Serif" font-size="10.00">+ node()</text>
<text text-anchor="start" x="8" y="-372.5" font-family="Helvetica,sans-Serif" font-size="10.00">+ node()</text>
<text text-anchor="start" x="8" y="-361.5" font-family="Helvetica,sans-Serif" font-size="10.00">+ ~node()</text>
</a>
</g>
</g>
<!-- Node3&#45;&gt;Node2 -->
<g id="edge2" class="edge"><title>Node3&#45;&gt;Node2</title>
<path fill="none" stroke="#404040" d="M46,-354.097C46,-343.168 46,-331.075 46,-318.845"/>
<polygon fill="none" stroke="#404040" points="46.0001,-318.609 42,-312.609 46,-306.609 50,-312.609 46.0001,-318.609"/>
<text text-anchor="middle" x="65.5" y="-328" font-family="Helvetica,sans-Serif" font-size="10.00"> #current</text>
</g>
<!-- Node3&#45;&gt;Node3 -->
<g id="edge3" class="edge"><title>Node3&#45;&gt;Node3</title>
<path fill="none" stroke="#404040" d="M92.0242,-411.939C102.406,-410.818 110,-406.672 110,-399.5 110,-395.466 107.597,-392.389 103.647,-390.269"/>
<polygon fill="none" stroke="#404040" points="103.592,-390.254 96.7436,-392.514 92.0242,-387.061 98.8722,-384.802 103.592,-390.254"/>
<text text-anchor="middle" x="123.5" y="-402.5" font-family="Helvetica,sans-Serif" font-size="10.00"> +prev</text>
<text text-anchor="middle" x="123.5" y="-391.5" font-family="Helvetica,sans-Serif" font-size="10.00">+next</text>
</g>
<!-- Node4 -->
<g id="node4" class="node"><title>Node4</title>
<g id="a_node4"><a xlink:title=" ">
<polygon fill="white" stroke="#bfbfbf" points="31.5,-492.5 31.5,-549.5 60.5,-549.5 60.5,-492.5 31.5,-492.5"/>
<text text-anchor="middle" x="46" y="-537.5" font-family="Helvetica,sans-Serif" font-size="10.00">T</text>
<polyline fill="none" stroke="#bfbfbf" points="31.5,-530.5 60.5,-530.5 "/>
<text text-anchor="middle" x="46" y="-518.5" font-family="Helvetica,sans-Serif" font-size="10.00"> </text>
<polyline fill="none" stroke="#bfbfbf" points="31.5,-511.5 60.5,-511.5 "/>
<text text-anchor="middle" x="46" y="-499.5" font-family="Helvetica,sans-Serif" font-size="10.00"> </text>
</a>
</g>
</g>
<!-- Node4&#45;&gt;Node3 -->
<g id="edge4" class="edge"><title>Node4&#45;&gt;Node3</title>
<path fill="none" stroke="#404040" d="M46,-492.284C46,-481.735 46,-469.294 46,-457.035"/>
<polygon fill="none" stroke="#404040" points="46.0001,-456.912 42,-450.912 46,-444.912 50,-450.912 46.0001,-456.912"/>
<text text-anchor="middle" x="60" y="-466" font-family="Helvetica,sans-Serif" font-size="10.00"> +data</text>
</g>
</g>
</svg>
