<?xml version="1.0" encoding="UTF-8" standalone="no"?>
<!DOCTYPE svg PUBLIC "-//W3C//DTD SVG 1.1//EN"
 "http://www.w3.org/Graphics/SVG/1.1/DTD/svg11.dtd">
<!-- Generated by graphviz version 2.38.0 (20140413.2041)
 -->
<!-- Title: List::dLinkList&lt; T &gt; Pages: 1 -->
<svg width="150pt" height="441pt"
 viewBox="0.00 0.00 149.50 441.00" xmlns="http://www.w3.org/2000/svg" xmlns:xlink="http://www.w3.org/1999/xlink">
<g id="graph0" class="graph" transform="scale(1 1) rotate(0) translate(4 437)">
<title>List::dLinkList&lt; T &gt;</title>
<polygon fill="white" stroke="none" points="-4,4 -4,-437 145.5,-437 145.5,4 -4,4"/>
<!-- Node1 -->
<g id="node1" class="node"><title>Node1</title>
<g id="a_node1"><a xlink:title=" ">
<polygon fill="#bfbfbf" stroke="black" points="0,-0.5 0,-178.5 101,-178.5 101,-0.5 0,-0.5"/>
<text text-anchor="middle" x="50.5" y="-166.5" font-family="Helvetica,sans-Serif" font-size="10.00">List::dLinkList&lt; T &gt;</text>
<polyline fill="none" stroke="black" points="0,-159.5 101,-159.5 "/>
<text text-anchor="start" x="8" y="-147.5" font-family="Helvetica,sans-Serif" font-size="10.00">&#45; currentLength</text>
<polyline fill="none" stroke="black" points="0,-140.5 101,-140.5 "/>
<text text-anchor="start" x="8" y="-128.5" font-family="Helvetica,sans-Serif" font-size="10.00">+ dLinkList()</text>
<text text-anchor="start" x="8" y="-117.5" font-family="Helvetica,sans-Serif" font-size="10.00">+ dLinkList()</text>
<text text-anchor="start" x="8" y="-106.5" font-family="Helvetica,sans-Serif" font-size="10.00">+ dLinkList()</text>
<text text-anchor="start" x="8" y="-95.5" font-family="Helvetica,sans-Serif" font-size="10.00">+ operator=()</text>
<text text-anchor="start" x="8" y="-84.5" font-family="Helvetica,sans-Serif" font-size="10.00">+ ~dLinkList()</text>
<text text-anchor="start" x="8" y="-73.5" font-family="Helvetica,sans-Serif" font-size="10.00">+ clear()</text>
<text text-anchor="start" x="8" y="-62.5" font-family="Helvetica,sans-Serif" font-size="10.00">+ length()</text>
<text text-anchor="start" x="8" y="-51.5" font-family="Helvetica,sans-Serif" font-size="10.00">+ insert()</text>
<text text-anchor="start" x="8" y="-40.5" font-family="Helvetica,sans-Serif" font-size="10.00">+ remove()</text>
<text text-anchor="start" x="8" y="-29.5" font-family="Helvetica,sans-Serif" font-size="10.00">+ search()</text>
<text text-anchor="start" x="8" y="-18.5" font-family="Helvetica,sans-Serif" font-size="10.00">and 11 more...</text>
<text text-anchor="start" x="8" y="-7.5" font-family="Helvetica,sans-Serif" font-size="10.00">&#45; move()</text>
</a>
</g>
</g>
<!-- Node2 -->
<g id="node2" class="node"><title>Node2</title>
<g id="a_node2"><a xlink:href="a05373.html" target="_top" xlink:title=" ">
<polygon fill="white" stroke="black" points="4.5,-237.5 4.5,-327.5 96.5,-327.5 96.5,-237.5 4.5,-237.5"/>
<text text-anchor="start" x="12.5" y="-315.5" font-family="Helvetica,sans-Serif" font-size="10.00">List::dLinkList&lt; T</text>
<text text-anchor="middle" x="50.5" y="-304.5" font-family="Helvetica,sans-Serif" font-size="10.00"> &gt;::node</text>
<polyline fill="none" stroke="black" points="4.5,-297.5 96.5,-297.5 "/>
<text text-anchor="middle" x="50.5" y="-285.5" font-family="Helvetica,sans-Serif" font-size="10.00"> </text>
<polyline fill="none" stroke="black" points="4.5,-278.5 96.5,-278.5 "/>
<text text-anchor="start" x="12.5" y="-266.5" font-family="Helvetica,sans-Serif" font-size="10.00">+ node()</text>
<text text-anchor="start" x="12.5" y="-255.5" font-family="Helvetica,sans-Serif" font-size="10.00">+ node()</text>
<text text-anchor="start" x="12.5" y="-244.5" font-family="Helvetica,sans-Serif" font-size="10.00">+ ~node()</text>
</a>
</g>
</g>
<!-- Node2&#45;&gt;Node1 -->
<g id="edge1" class="edge"><title>Node2&#45;&gt;Node1</title>
<path fill="none" stroke="#404040" d="M50.5,-237.201C50.5,-223.238 50.5,-207.202 50.5,-190.973"/>
<polygon fill="none" stroke="#404040" points="50.5001,-190.557 46.5,-184.557 50.5,-178.557 54.5,-184.557 50.5001,-190.557"/>
<text text-anchor="middle" x="64.5" y="-211" font-family="Helvetica,sans-Serif" font-size="10.00"> &#45;head</text>
<text text-anchor="middle" x="64.5" y="-200" font-family="Helvetica,sans-Serif" font-size="10.00">&#45;tail</text>
</g>
<!-- Node2&#45;&gt;Node2 -->
<g id="edge2" class="edge"><title>Node2&#45;&gt;Node2</title>
<path fill="none" stroke="#404040" d="M96.5242,-294.939C106.906,-293.818 114.5,-289.672 114.5,-282.5 114.5,-278.466 112.097,-275.389 108.147,-273.269"/>
<polygon fill="none" stroke="#404040" points="108.092,-273.254 101.244,-275.514 96.5242,-270.061 103.372,-267.802 108.092,-273.254"/>
<text text-anchor="middle" x="128" y="-285.5" font-family="Helvetica,sans-Serif" font-size="10.00"> +prev</text>
<text text-anchor="middle" x="128" y="-274.5" font-family="Helvetica,sans-Serif" font-size="10.00">+next</text>
</g>
<!-- Node3 -->
<g id="node3" class="node"><title>Node3</title>
<g id="a_node3"><a xlink:title=" ">
<polygon fill="white" stroke="#bfbfbf" points="36,-375.5 36,-432.5 65,-432.5 65,-375.5 36,-375.5"/>
<text text-anchor="middle" x="50.5" y="-420.5" font-family="Helvetica,sans-Serif" font-size="10.00">T</text>
<polyline fill="none" stroke="#bfbfbf" points="36,-413.5 65,-413.5 "/>
<text text-anchor="middle" x="50.5" y="-401.5" font-family="Helvetica,sans-Serif" font-size="10.00"> </text>
<polyline fill="none" stroke="#bfbfbf" points="36,-394.5 65,-394.5 "/>
<text text-anchor="middle" x="50.5" y="-382.5" font-family="Helvetica,sans-Serif" font-size="10.00"> </text>
</a>
</g>
</g>
<!-- Node3&#45;&gt;Node2 -->
<g id="edge3" class="edge"><title>Node3&#45;&gt;Node2</title>
<path fill="none" stroke="#404040" d="M50.5,-375.284C50.5,-364.735 50.5,-352.294 50.5,-340.035"/>
<polygon fill="none" stroke="#404040" points="50.5001,-339.912 46.5,-333.912 50.5,-327.912 54.5,-333.912 50.5001,-339.912"/>
<text text-anchor="middle" x="64.5" y="-349" font-family="Helvetica,sans-Serif" font-size="10.00"> +data</text>
</g>
</g>
</svg>
