<?xml version="1.0" encoding="UTF-8" standalone="no"?>
<!DOCTYPE svg PUBLIC "-//W3C//DTD SVG 1.1//EN"
 "http://www.w3.org/Graphics/SVG/1.1/DTD/svg11.dtd">
<!-- Generated by graphviz version 2.38.0 (20140413.2041)
 -->
<!-- Title: List::seqList::clear Pages: 1 -->
<svg width="248pt" height="50pt"
 viewBox="0.00 0.00 248.00 50.00" xmlns="http://www.w3.org/2000/svg" xmlns:xlink="http://www.w3.org/1999/xlink">
<g id="graph0" class="graph" transform="scale(1 1) rotate(0) translate(4 46)">
<title>List::seqList::clear</title>
<polygon fill="white" stroke="none" points="-4,4 -4,-46 244,-46 244,4 -4,4"/>
<!-- Node1 -->
<g id="node1" class="node"><title>Node1</title>
<g id="a_node1"><a xlink:title=" ">
<polygon fill="#bfbfbf" stroke="black" points="143,-11.5 143,-30.5 240,-30.5 240,-11.5 143,-11.5"/>
<text text-anchor="middle" x="191.5" y="-18.5" font-family="Helvetica,sans-Serif" font-size="10.00">List::seqList::clear</text>
</a>
</g>
</g>
<!-- Node2 -->
<g id="node2" class="node"><title>Node2</title>
<g id="a_node2"><a xlink:href="a05365.html#a6b1525cfc014033a5c460e526eafc9e4" target="_top" xlink:title="清空队列">
<polygon fill="white" stroke="black" points="0,-0.5 0,-41.5 107,-41.5 107,-0.5 0,-0.5"/>
<text text-anchor="start" x="8" y="-29.5" font-family="Helvetica,sans-Serif" font-size="10.00">Queue::BinaryHeap&lt;</text>
<text text-anchor="start" x="8" y="-18.5" font-family="Helvetica,sans-Serif" font-size="10.00"> int, std::greater&lt;</text>
<text text-anchor="middle" x="53.5" y="-7.5" font-family="Helvetica,sans-Serif" font-size="10.00"> int &gt; &gt;::clear</text>
</a>
</g>
</g>
<!-- Node1&#45;&gt;Node2 -->
<g id="edge1" class="edge"><title>Node1&#45;&gt;Node2</title>
<path fill="none" stroke="midnightblue" d="M132.791,-21C124.358,-21 115.709,-21 107.379,-21"/>
<polygon fill="midnightblue" stroke="midnightblue" points="132.934,-24.5001 142.934,-21 132.934,-17.5001 132.934,-24.5001"/>
</g>
</g>
</svg>
