<?xml version="1.0" encoding="UTF-8" standalone="no"?>
<!DOCTYPE svg PUBLIC "-//W3C//DTD SVG 1.1//EN"
 "http://www.w3.org/Graphics/SVG/1.1/DTD/svg11.dtd">
<!-- Generated by graphviz version 2.38.0 (20140413.2041)
 -->
<!-- Title: List::seqList::push_back Pages: 1 -->
<svg width="274pt" height="88pt"
 viewBox="0.00 0.00 274.00 88.00" xmlns="http://www.w3.org/2000/svg" xmlns:xlink="http://www.w3.org/1999/xlink">
<g id="graph0" class="graph" transform="scale(1 1) rotate(0) translate(4 84)">
<title>List::seqList::push_back</title>
<polygon fill="white" stroke="none" points="-4,4 -4,-84 270,-84 270,4 -4,4"/>
<!-- Node1 -->
<g id="node1" class="node"><title>Node1</title>
<g id="a_node1"><a xlink:title="在表尾插入新元素">
<polygon fill="#bfbfbf" stroke="black" points="143,-35.5 143,-54.5 266,-54.5 266,-35.5 143,-35.5"/>
<text text-anchor="middle" x="204.5" y="-42.5" font-family="Helvetica,sans-Serif" font-size="10.00">List::seqList::push_back</text>
</a>
</g>
</g>
<!-- Node2 -->
<g id="node2" class="node"><title>Node2</title>
<g id="a_node2"><a xlink:href="a04538.html#abf9e6b7e6f15df4b525a2e7705ba3089" target="_top" xlink:title="测试程序">
<polygon fill="white" stroke="black" points="34.5,-60.5 34.5,-79.5 72.5,-79.5 72.5,-60.5 34.5,-60.5"/>
<text text-anchor="middle" x="53.5" y="-67.5" font-family="Helvetica,sans-Serif" font-size="10.00">main</text>
</a>
</g>
</g>
<!-- Node1&#45;&gt;Node2 -->
<g id="edge1" class="edge"><title>Node1&#45;&gt;Node2</title>
<path fill="none" stroke="midnightblue" d="M136.756,-56.1986C113.237,-60.1448 88.675,-64.2659 72.5842,-66.9657"/>
<polygon fill="midnightblue" stroke="midnightblue" points="137.461,-59.6293 146.744,-54.5227 136.303,-52.7258 137.461,-59.6293"/>
</g>
<!-- Node3 -->
<g id="node3" class="node"><title>Node3</title>
<g id="a_node3"><a xlink:href="a05365.html#a55c7ce3559cf549fe8b2f279fddbb890" target="_top" xlink:title="将x入队">
<polygon fill="white" stroke="black" points="0,-0.5 0,-41.5 107,-41.5 107,-0.5 0,-0.5"/>
<text text-anchor="start" x="8" y="-29.5" font-family="Helvetica,sans-Serif" font-size="10.00">Queue::BinaryHeap&lt;</text>
<text text-anchor="start" x="8" y="-18.5" font-family="Helvetica,sans-Serif" font-size="10.00"> int, std::greater&lt;</text>
<text text-anchor="middle" x="53.5" y="-7.5" font-family="Helvetica,sans-Serif" font-size="10.00"> int &gt; &gt;::push</text>
</a>
</g>
</g>
<!-- Node1&#45;&gt;Node3 -->
<g id="edge2" class="edge"><title>Node1&#45;&gt;Node3</title>
<path fill="none" stroke="midnightblue" d="M134.099,-33.8213C125.104,-32.3725 116.011,-30.9077 107.345,-29.5119"/>
<polygon fill="midnightblue" stroke="midnightblue" points="133.754,-37.3107 144.183,-35.4456 134.867,-30.3998 133.754,-37.3107"/>
</g>
</g>
</svg>
