<?xml version="1.0" encoding="UTF-8" standalone="no"?>
<!DOCTYPE svg PUBLIC "-//W3C//DTD SVG 1.1//EN"
 "http://www.w3.org/Graphics/SVG/1.1/DTD/svg11.dtd">
<!-- Generated by graphviz version 2.38.0 (20140413.2041)
 -->
<!-- Title: List::List&lt; T &gt; Pages: 1 -->
<!--zoomable 628 -->
<svg id="main" version="1.1" xmlns="http://www.w3.org/2000/svg" xmlns:xlink="http://www.w3.org/1999/xlink" xml:space="preserve" onload="init(evt)">
<style type="text/css"><![CDATA[
.edge:hover path { stroke: red; }
.edge:hover polygon { stroke: red; fill: red; }
]]></style>
<script type="text/javascript"><![CDATA[
var edges = document.getElementsByTagName('g');
if (edges && edges.length) {
  for (var i=0;i<edges.length;i++) {
    if (edges[i].id.substr(0,4)=='edge') {
      edges[i].setAttribute('class','edge');
    }
  }
}
]]></script>
        <defs>
                <circle id="rim" cx="0" cy="0" r="7"/>
                <circle id="rim2" cx="0" cy="0" r="3.5"/>
                <g id="zoomPlus">
                        <use xlink:href="#rim" fill="#404040">
                                <set attributeName="fill" to="#808080" begin="zoomplus.mouseover" end="zoomplus.mouseout"/>
                        </use>
                        <path d="M-4,0h8M0,-4v8" fill="none" stroke="white" stroke-width="1.5" pointer-events="none"/>
                </g>
                <g id="zoomMin">
                        <use xlink:href="#rim" fill="#404040">
                                <set attributeName="fill" to="#808080" begin="zoomminus.mouseover" end="zoomminus.mouseout"/>
                        </use>
                        <path d="M-4,0h8" fill="none" stroke="white" stroke-width="1.5" pointer-events="none"/>
                </g>
                <g id="dirArrow">
                        <path fill="none" stroke="white" stroke-width="1.5" d="M0,-3.0v7 M-2.5,-0.5L0,-3.0L2.5,-0.5"/>
                </g>
               <g id="resetDef">
                       <use xlink:href="#rim2" fill="#404040">
                               <set attributeName="fill" to="#808080" begin="reset.mouseover" end="reset.mouseout"/>
                       </use>
               </g>
        </defs>

<script type="text/javascript">
var viewWidth = 363;
var viewHeight = 628;
var sectionId = 'dynsection-0';
</script>
<script xlink:href="svgpan.js"/>
<svg id="graph" class="graph">
<g id="viewport">
<title>List::List&lt; T &gt;</title>
<polygon fill="white" stroke="none" points="-4,4 -4,-624 358.5,-624 358.5,4 -4,4"/>
<!-- Node1 -->
<g id="node1" class="node"><title>Node1</title>
<g id="a_node1"><a xlink:title=" ">
<polygon fill="#bfbfbf" stroke="black" points="123,-496.5 123,-619.5 200,-619.5 200,-496.5 123,-496.5"/>
<text text-anchor="middle" x="161.5" y="-607.5" font-family="Helvetica,sans-Serif" font-size="10.00">List::List&lt; T &gt;</text>
<polyline fill="none" stroke="black" points="123,-600.5 200,-600.5 "/>
<text text-anchor="middle" x="161.5" y="-588.5" font-family="Helvetica,sans-Serif" font-size="10.00"> </text>
<polyline fill="none" stroke="black" points="123,-581.5 200,-581.5 "/>
<text text-anchor="start" x="131" y="-569.5" font-family="Helvetica,sans-Serif" font-size="10.00">+ clear()</text>
<text text-anchor="start" x="131" y="-558.5" font-family="Helvetica,sans-Serif" font-size="10.00">+ length()</text>
<text text-anchor="start" x="131" y="-547.5" font-family="Helvetica,sans-Serif" font-size="10.00">+ insert()</text>
<text text-anchor="start" x="131" y="-536.5" font-family="Helvetica,sans-Serif" font-size="10.00">+ remove()</text>
<text text-anchor="start" x="131" y="-525.5" font-family="Helvetica,sans-Serif" font-size="10.00">+ search()</text>
<text text-anchor="start" x="131" y="-514.5" font-family="Helvetica,sans-Serif" font-size="10.00">+ visit()</text>
<text text-anchor="start" x="131" y="-503.5" font-family="Helvetica,sans-Serif" font-size="10.00">+ ~List()</text>
</a>
</g>
</g>
<!-- Node2 -->
<g id="node2" class="node"><title>Node2</title>
<g id="a_node2"><a xlink:href="a05391.html" target="_top" xlink:title=" ">
<polygon fill="white" stroke="black" points="0,-248.5 0,-448.5 93,-448.5 93,-248.5 0,-248.5"/>
<text text-anchor="middle" x="46.5" y="-436.5" font-family="Helvetica,sans-Serif" font-size="10.00">List::seqList&lt; T &gt;</text>
<polyline fill="none" stroke="black" points="0,-429.5 93,-429.5 "/>
<text text-anchor="start" x="8" y="-417.5" font-family="Helvetica,sans-Serif" font-size="10.00">&#45; data</text>
<text text-anchor="start" x="8" y="-406.5" font-family="Helvetica,sans-Serif" font-size="10.00">&#45; currentLength</text>
<text text-anchor="start" x="8" y="-395.5" font-family="Helvetica,sans-Serif" font-size="10.00">&#45; maxSize</text>
<polyline fill="none" stroke="black" points="0,-388.5 93,-388.5 "/>
<text text-anchor="start" x="8" y="-376.5" font-family="Helvetica,sans-Serif" font-size="10.00">+ seqList()</text>
<text text-anchor="start" x="8" y="-365.5" font-family="Helvetica,sans-Serif" font-size="10.00">+ seqList()</text>
<text text-anchor="start" x="8" y="-354.5" font-family="Helvetica,sans-Serif" font-size="10.00">+ seqList()</text>
<text text-anchor="start" x="8" y="-343.5" font-family="Helvetica,sans-Serif" font-size="10.00">+ seqList()</text>
<text text-anchor="start" x="8" y="-332.5" font-family="Helvetica,sans-Serif" font-size="10.00">+ ~seqList()</text>
<text text-anchor="start" x="8" y="-321.5" font-family="Helvetica,sans-Serif" font-size="10.00">+ clear()</text>
<text text-anchor="start" x="8" y="-310.5" font-family="Helvetica,sans-Serif" font-size="10.00">+ length()</text>
<text text-anchor="start" x="8" y="-299.5" font-family="Helvetica,sans-Serif" font-size="10.00">+ insert()</text>
<text text-anchor="start" x="8" y="-288.5" font-family="Helvetica,sans-Serif" font-size="10.00">+ remove()</text>
<text text-anchor="start" x="8" y="-277.5" font-family="Helvetica,sans-Serif" font-size="10.00">+ search()</text>
<text text-anchor="start" x="8" y="-266.5" font-family="Helvetica,sans-Serif" font-size="10.00">and 17 more...</text>
<text text-anchor="start" x="8" y="-255.5" font-family="Helvetica,sans-Serif" font-size="10.00">&#45; doubleSpace()</text>
</a>
</g>
</g>
<!-- Node1&#45;&gt;Node2 -->
<g id="edge1" class="edge"><title>Node1&#45;&gt;Node2</title>
<path fill="none" stroke="midnightblue" d="M122.948,-487.658C115.812,-474.808 108.427,-461.5 101.5,-449 98.7734,-444.08 95.9722,-439.022 93.1469,-433.918"/>
<polygon fill="none" stroke="midnightblue" points="119.924,-489.422 127.84,-496.465 126.044,-486.023 119.924,-489.422"/>
</g>
<!-- Node4 -->
<g id="node4" class="node"><title>Node4</title>
<g id="a_node4"><a xlink:href="a05403.html" target="_top" xlink:title=" ">
<polygon fill="white" stroke="black" points="111,-254 111,-443 212,-443 212,-254 111,-254"/>
<text text-anchor="middle" x="161.5" y="-431" font-family="Helvetica,sans-Serif" font-size="10.00">List::sLinkList&lt; T &gt;</text>
<polyline fill="none" stroke="black" points="111,-424 212,-424 "/>
<text text-anchor="start" x="119" y="-412" font-family="Helvetica,sans-Serif" font-size="10.00">&#45; head</text>
<text text-anchor="start" x="119" y="-401" font-family="Helvetica,sans-Serif" font-size="10.00">&#45; currentLength</text>
<polyline fill="none" stroke="black" points="111,-394 212,-394 "/>
<text text-anchor="start" x="119" y="-382" font-family="Helvetica,sans-Serif" font-size="10.00">+ sLinkList()</text>
<text text-anchor="start" x="119" y="-371" font-family="Helvetica,sans-Serif" font-size="10.00">+ sLinkList()</text>
<text text-anchor="start" x="119" y="-360" font-family="Helvetica,sans-Serif" font-size="10.00">+ ~sLinkList()</text>
<text text-anchor="start" x="119" y="-349" font-family="Helvetica,sans-Serif" font-size="10.00">+ clear()</text>
<text text-anchor="start" x="119" y="-338" font-family="Helvetica,sans-Serif" font-size="10.00">+ length()</text>
<text text-anchor="start" x="119" y="-327" font-family="Helvetica,sans-Serif" font-size="10.00">+ insert()</text>
<text text-anchor="start" x="119" y="-316" font-family="Helvetica,sans-Serif" font-size="10.00">+ remove()</text>
<text text-anchor="start" x="119" y="-305" font-family="Helvetica,sans-Serif" font-size="10.00">+ search()</text>
<text text-anchor="start" x="119" y="-294" font-family="Helvetica,sans-Serif" font-size="10.00">+ visit()</text>
<text text-anchor="start" x="119" y="-283" font-family="Helvetica,sans-Serif" font-size="10.00">+ traverse()</text>
<text text-anchor="start" x="119" y="-272" font-family="Helvetica,sans-Serif" font-size="10.00">and 8 more...</text>
<text text-anchor="start" x="119" y="-261" font-family="Helvetica,sans-Serif" font-size="10.00">&#45; move()</text>
</a>
</g>
</g>
<!-- Node1&#45;&gt;Node4 -->
<g id="edge3" class="edge"><title>Node1&#45;&gt;Node4</title>
<path fill="none" stroke="midnightblue" d="M161.5,-486.088C161.5,-472.327 161.5,-457.708 161.5,-443.343"/>
<polygon fill="none" stroke="midnightblue" points="158,-486.425 161.5,-496.425 165,-486.425 158,-486.425"/>
</g>
<!-- Node5 -->
<g id="node5" class="node"><title>Node5</title>
<g id="a_node5"><a xlink:href="a05379.html" target="_top" xlink:title=" ">
<polygon fill="white" stroke="black" points="230.5,-287 230.5,-410 354.5,-410 354.5,-287 230.5,-287"/>
<text text-anchor="middle" x="292.5" y="-398" font-family="Helvetica,sans-Serif" font-size="10.00">List::List&lt; Comparable &gt;</text>
<polyline fill="none" stroke="black" points="230.5,-391 354.5,-391 "/>
<text text-anchor="middle" x="292.5" y="-379" font-family="Helvetica,sans-Serif" font-size="10.00"> </text>
<polyline fill="none" stroke="black" points="230.5,-372 354.5,-372 "/>
<text text-anchor="start" x="238.5" y="-360" font-family="Helvetica,sans-Serif" font-size="10.00">+ clear()</text>
<text text-anchor="start" x="238.5" y="-349" font-family="Helvetica,sans-Serif" font-size="10.00">+ length()</text>
<text text-anchor="start" x="238.5" y="-338" font-family="Helvetica,sans-Serif" font-size="10.00">+ insert()</text>
<text text-anchor="start" x="238.5" y="-327" font-family="Helvetica,sans-Serif" font-size="10.00">+ remove()</text>
<text text-anchor="start" x="238.5" y="-316" font-family="Helvetica,sans-Serif" font-size="10.00">+ search()</text>
<text text-anchor="start" x="238.5" y="-305" font-family="Helvetica,sans-Serif" font-size="10.00">+ visit()</text>
<text text-anchor="start" x="238.5" y="-294" font-family="Helvetica,sans-Serif" font-size="10.00">+ ~List()</text>
</a>
</g>
</g>
<!-- Node1&#45;&gt;Node5 -->
<g id="edge4" class="edge"><title>Node1&#45;&gt;Node5</title>
<path fill="none" stroke="orange" d="M205.261,-487.684C221.108,-462.583 238.87,-434.449 254.21,-410.151"/>
<polygon fill="orange" stroke="orange" points="202.122,-486.1 199.743,-496.425 208.041,-489.837 202.122,-486.1"/>
<text text-anchor="middle" x="252" y="-470" font-family="Helvetica,sans-Serif" font-size="10.00"> &lt; Comparable &gt;</text>
</g>
<!-- Node3 -->
<g id="node3" class="node"><title>Node3</title>
<g id="a_node3"><a xlink:href="a05391.html" target="_top" xlink:title=" ">
<polygon fill="white" stroke="black" points="118.5,-0.5 118.5,-200.5 258.5,-200.5 258.5,-0.5 118.5,-0.5"/>
<text text-anchor="middle" x="188.5" y="-188.5" font-family="Helvetica,sans-Serif" font-size="10.00">List::seqList&lt; Comparable &gt;</text>
<polyline fill="none" stroke="black" points="118.5,-181.5 258.5,-181.5 "/>
<text text-anchor="start" x="126.5" y="-169.5" font-family="Helvetica,sans-Serif" font-size="10.00">&#45; data</text>
<text text-anchor="start" x="126.5" y="-158.5" font-family="Helvetica,sans-Serif" font-size="10.00">&#45; currentLength</text>
<text text-anchor="start" x="126.5" y="-147.5" font-family="Helvetica,sans-Serif" font-size="10.00">&#45; maxSize</text>
<polyline fill="none" stroke="black" points="118.5,-140.5 258.5,-140.5 "/>
<text text-anchor="start" x="126.5" y="-128.5" font-family="Helvetica,sans-Serif" font-size="10.00">+ seqList()</text>
<text text-anchor="start" x="126.5" y="-117.5" font-family="Helvetica,sans-Serif" font-size="10.00">+ seqList()</text>
<text text-anchor="start" x="126.5" y="-106.5" font-family="Helvetica,sans-Serif" font-size="10.00">+ seqList()</text>
<text text-anchor="start" x="126.5" y="-95.5" font-family="Helvetica,sans-Serif" font-size="10.00">+ seqList()</text>
<text text-anchor="start" x="126.5" y="-84.5" font-family="Helvetica,sans-Serif" font-size="10.00">+ ~seqList()</text>
<text text-anchor="start" x="126.5" y="-73.5" font-family="Helvetica,sans-Serif" font-size="10.00">+ clear()</text>
<text text-anchor="start" x="126.5" y="-62.5" font-family="Helvetica,sans-Serif" font-size="10.00">+ length()</text>
<text text-anchor="start" x="126.5" y="-51.5" font-family="Helvetica,sans-Serif" font-size="10.00">+ insert()</text>
<text text-anchor="start" x="126.5" y="-40.5" font-family="Helvetica,sans-Serif" font-size="10.00">+ remove()</text>
<text text-anchor="start" x="126.5" y="-29.5" font-family="Helvetica,sans-Serif" font-size="10.00">+ search()</text>
<text text-anchor="start" x="126.5" y="-18.5" font-family="Helvetica,sans-Serif" font-size="10.00">and 17 more...</text>
<text text-anchor="start" x="126.5" y="-7.5" font-family="Helvetica,sans-Serif" font-size="10.00">&#45; doubleSpace()</text>
</a>
</g>
</g>
<!-- Node2&#45;&gt;Node3 -->
<g id="edge2" class="edge"><title>Node2&#45;&gt;Node3</title>
<path fill="none" stroke="orange" d="M98.1257,-253.908C99.2578,-251.919 100.384,-249.948 101.5,-248 110.325,-232.601 119.793,-216.373 129.117,-200.55"/>
<polygon fill="orange" stroke="orange" points="95.0167,-252.295 93.1306,-262.721 101.107,-255.747 95.0167,-252.295"/>
<text text-anchor="middle" x="155" y="-222" font-family="Helvetica,sans-Serif" font-size="10.00"> &lt; Comparable &gt;</text>
</g>
<!-- Node5&#45;&gt;Node3 -->
<g id="edge5" class="edge"><title>Node5&#45;&gt;Node3</title>
<path fill="none" stroke="midnightblue" d="M262.861,-277.393C252.795,-253.582 241.348,-226.505 230.503,-200.854"/>
<polygon fill="none" stroke="midnightblue" points="259.674,-278.843 266.792,-286.691 266.122,-276.117 259.674,-278.843"/>
</g>
</g>
</svg>
        <g id="navigator" transform="translate(0 0)" fill="#404254">
                <rect fill="#f2f5e9" fill-opacity="0.5" stroke="#606060" stroke-width=".5" x="0" y="0" width="60" height="60"/>
                <use id="zoomplus" xlink:href="#zoomPlus" x="17" y="9" onmousedown="handleZoom(evt,'in')"/>
                <use id="zoomminus" xlink:href="#zoomMin" x="42" y="9" onmousedown="handleZoom(evt,'out')"/>
                <use id="reset" xlink:href="#resetDef" x="30" y="36" onmousedown="handleReset()"/>
                <g id="arrowUp" xlink:href="#dirArrow" transform="translate(30 24)" onmousedown="handlePan(0,-1)">
                  <use xlink:href="#rim" fill="#404040">
                        <set attributeName="fill" to="#808080" begin="arrowUp.mouseover" end="arrowUp.mouseout"/>
                  </use>
                  <path fill="none" stroke="white" stroke-width="1.5" d="M0,-3.0v7 M-2.5,-0.5L0,-3.0L2.5,-0.5"/>
                </g>
                <g id="arrowRight" xlink:href="#dirArrow" transform="rotate(90) translate(36 -43)" onmousedown="handlePan(1,0)">
                  <use xlink:href="#rim" fill="#404040">
                        <set attributeName="fill" to="#808080" begin="arrowRight.mouseover" end="arrowRight.mouseout"/>
                  </use>
                  <path fill="none" stroke="white" stroke-width="1.5" d="M0,-3.0v7 M-2.5,-0.5L0,-3.0L2.5,-0.5"/>
                </g>
                <g id="arrowDown" xlink:href="#dirArrow" transform="rotate(180) translate(-30 -48)" onmousedown="handlePan(0,1)">
                  <use xlink:href="#rim" fill="#404040">
                        <set attributeName="fill" to="#808080" begin="arrowDown.mouseover" end="arrowDown.mouseout"/>
                  </use>
                  <path fill="none" stroke="white" stroke-width="1.5" d="M0,-3.0v7 M-2.5,-0.5L0,-3.0L2.5,-0.5"/>
                </g>
                <g id="arrowLeft" xlink:href="#dirArrow" transform="rotate(270) translate(-36 17)" onmousedown="handlePan(-1,0)">
                  <use xlink:href="#rim" fill="#404040">
                        <set attributeName="fill" to="#808080" begin="arrowLeft.mouseover" end="arrowLeft.mouseout"/>
                  </use>
                  <path fill="none" stroke="white" stroke-width="1.5" d="M0,-3.0v7 M-2.5,-0.5L0,-3.0L2.5,-0.5"/>
                </g>
        </g>
        <svg viewBox="0 0 15 15" width="100%" height="30px" preserveAspectRatio="xMaxYMin meet">
         <g id="arrow_out" transform="scale(0.3 0.3)">
          <a xlink:href="a05378_org.svg" target="_base">
           <rect id="button" ry="5" rx="5" y="6" x="6" height="38" width="38"
                fill="#f2f5e9" fill-opacity="0.5" stroke="#606060" stroke-width="1.0"/>
           <path id="arrow"
             d="M 11.500037,31.436501 C 11.940474,20.09759 22.043105,11.32322 32.158766,21.979434 L 37.068811,17.246167 C 37.068811,17.246167 37.088388,32 37.088388,32 L 22.160133,31.978069 C 22.160133,31.978069 26.997745,27.140456 26.997745,27.140456 C 18.528582,18.264221 13.291696,25.230495 11.500037,31.436501 z"
             style="fill:#404040;"/>
          </a>
         </g>
        </svg>
</svg>
