<?xml version="1.0" encoding="UTF-8" standalone="no"?>
<!DOCTYPE svg PUBLIC "-//W3C//DTD SVG 1.1//EN"
 "http://www.w3.org/Graphics/SVG/1.1/DTD/svg11.dtd">
<!-- Generated by graphviz version 2.38.0 (20140413.2041)
 -->
<!-- Title: Priority_queue::BinaryHeap&lt; Comparable &gt; Pages: 1 -->
<!--zoomable 854 -->
<svg id="main" version="1.1" xmlns="http://www.w3.org/2000/svg" xmlns:xlink="http://www.w3.org/1999/xlink" xml:space="preserve" onload="init(evt)">
<style type="text/css"><![CDATA[
.edge:hover path { stroke: red; }
.edge:hover polygon { stroke: red; fill: red; }
]]></style>
<script type="text/javascript"><![CDATA[
var edges = document.getElementsByTagName('g');
if (edges && edges.length) {
  for (var i=0;i<edges.length;i++) {
    if (edges[i].id.substr(0,4)=='edge') {
      edges[i].setAttribute('class','edge');
    }
  }
}
]]></script>
        <defs>
                <circle id="rim" cx="0" cy="0" r="7"/>
                <circle id="rim2" cx="0" cy="0" r="3.5"/>
                <g id="zoomPlus">
                        <use xlink:href="#rim" fill="#404040">
                                <set attributeName="fill" to="#808080" begin="zoomplus.mouseover" end="zoomplus.mouseout"/>
                        </use>
                        <path d="M-4,0h8M0,-4v8" fill="none" stroke="white" stroke-width="1.5" pointer-events="none"/>
                </g>
                <g id="zoomMin">
                        <use xlink:href="#rim" fill="#404040">
                                <set attributeName="fill" to="#808080" begin="zoomminus.mouseover" end="zoomminus.mouseout"/>
                        </use>
                        <path d="M-4,0h8" fill="none" stroke="white" stroke-width="1.5" pointer-events="none"/>
                </g>
                <g id="dirArrow">
                        <path fill="none" stroke="white" stroke-width="1.5" d="M0,-3.0v7 M-2.5,-0.5L0,-3.0L2.5,-0.5"/>
                </g>
               <g id="resetDef">
                       <use xlink:href="#rim2" fill="#404040">
                               <set attributeName="fill" to="#808080" begin="reset.mouseover" end="reset.mouseout"/>
                       </use>
               </g>
        </defs>

<script type="text/javascript">
var viewWidth = 244;
var viewHeight = 854;
var sectionId = 'dynsection-0';
</script>
<script xlink:href="svgpan.js"/>
<svg id="graph" class="graph">
<g id="viewport">
<title>Priority_queue::BinaryHeap&lt; Comparable &gt;</title>
<polygon fill="white" stroke="none" points="-4,4 -4,-850 239.5,-850 239.5,4 -4,4"/>
<!-- Node1 -->
<g id="node1" class="node"><title>Node1</title>
<g id="a_node1"><a xlink:title=" ">
<polygon fill="#bfbfbf" stroke="black" points="33.5,-0.5 33.5,-178.5 168.5,-178.5 168.5,-0.5 33.5,-0.5"/>
<text text-anchor="start" x="41.5" y="-166.5" font-family="Helvetica,sans-Serif" font-size="10.00">Priority_queue::BinaryHeap</text>
<text text-anchor="middle" x="101" y="-155.5" font-family="Helvetica,sans-Serif" font-size="10.00">&lt; Comparable &gt;</text>
<polyline fill="none" stroke="black" points="33.5,-148.5 168.5,-148.5 "/>
<text text-anchor="start" x="41.5" y="-136.5" font-family="Helvetica,sans-Serif" font-size="10.00">&#45; current_size_</text>
<polyline fill="none" stroke="black" points="33.5,-129.5 168.5,-129.5 "/>
<text text-anchor="start" x="41.5" y="-117.5" font-family="Helvetica,sans-Serif" font-size="10.00">+ BinaryHeap()</text>
<text text-anchor="start" x="41.5" y="-106.5" font-family="Helvetica,sans-Serif" font-size="10.00">+ BinaryHeap()</text>
<text text-anchor="start" x="41.5" y="-95.5" font-family="Helvetica,sans-Serif" font-size="10.00">+ ~BinaryHeap()</text>
<text text-anchor="start" x="41.5" y="-84.5" font-family="Helvetica,sans-Serif" font-size="10.00">+ empty()</text>
<text text-anchor="start" x="41.5" y="-73.5" font-family="Helvetica,sans-Serif" font-size="10.00">+ top()</text>
<text text-anchor="start" x="41.5" y="-62.5" font-family="Helvetica,sans-Serif" font-size="10.00">+ pop()</text>
<text text-anchor="start" x="41.5" y="-51.5" font-family="Helvetica,sans-Serif" font-size="10.00">+ pop()</text>
<text text-anchor="start" x="41.5" y="-40.5" font-family="Helvetica,sans-Serif" font-size="10.00">+ push()</text>
<text text-anchor="start" x="41.5" y="-29.5" font-family="Helvetica,sans-Serif" font-size="10.00">+ clear()</text>
<text text-anchor="start" x="41.5" y="-18.5" font-family="Helvetica,sans-Serif" font-size="10.00">&#45; buildHeap()</text>
<text text-anchor="start" x="41.5" y="-7.5" font-family="Helvetica,sans-Serif" font-size="10.00">&#45; percolateDown()</text>
</a>
</g>
</g>
<!-- Node2 -->
<g id="node2" class="node"><title>Node2</title>
<g id="a_node2"><a xlink:href="a05391.html" target="_top" xlink:title=" ">
<polygon fill="white" stroke="black" points="31,-226.5 31,-426.5 171,-426.5 171,-226.5 31,-226.5"/>
<text text-anchor="middle" x="101" y="-414.5" font-family="Helvetica,sans-Serif" font-size="10.00">List::seqList&lt; Comparable &gt;</text>
<polyline fill="none" stroke="black" points="31,-407.5 171,-407.5 "/>
<text text-anchor="start" x="39" y="-395.5" font-family="Helvetica,sans-Serif" font-size="10.00">&#45; data</text>
<text text-anchor="start" x="39" y="-384.5" font-family="Helvetica,sans-Serif" font-size="10.00">&#45; currentLength</text>
<text text-anchor="start" x="39" y="-373.5" font-family="Helvetica,sans-Serif" font-size="10.00">&#45; maxSize</text>
<polyline fill="none" stroke="black" points="31,-366.5 171,-366.5 "/>
<text text-anchor="start" x="39" y="-354.5" font-family="Helvetica,sans-Serif" font-size="10.00">+ seqList()</text>
<text text-anchor="start" x="39" y="-343.5" font-family="Helvetica,sans-Serif" font-size="10.00">+ seqList()</text>
<text text-anchor="start" x="39" y="-332.5" font-family="Helvetica,sans-Serif" font-size="10.00">+ seqList()</text>
<text text-anchor="start" x="39" y="-321.5" font-family="Helvetica,sans-Serif" font-size="10.00">+ seqList()</text>
<text text-anchor="start" x="39" y="-310.5" font-family="Helvetica,sans-Serif" font-size="10.00">+ ~seqList()</text>
<text text-anchor="start" x="39" y="-299.5" font-family="Helvetica,sans-Serif" font-size="10.00">+ clear()</text>
<text text-anchor="start" x="39" y="-288.5" font-family="Helvetica,sans-Serif" font-size="10.00">+ length()</text>
<text text-anchor="start" x="39" y="-277.5" font-family="Helvetica,sans-Serif" font-size="10.00">+ insert()</text>
<text text-anchor="start" x="39" y="-266.5" font-family="Helvetica,sans-Serif" font-size="10.00">+ remove()</text>
<text text-anchor="start" x="39" y="-255.5" font-family="Helvetica,sans-Serif" font-size="10.00">+ search()</text>
<text text-anchor="start" x="39" y="-244.5" font-family="Helvetica,sans-Serif" font-size="10.00">and 17 more...</text>
<text text-anchor="start" x="39" y="-233.5" font-family="Helvetica,sans-Serif" font-size="10.00">&#45; doubleSpace()</text>
</a>
</g>
</g>
<!-- Node2&#45;&gt;Node1 -->
<g id="edge1" class="edge"><title>Node2&#45;&gt;Node1</title>
<path fill="none" stroke="#404040" d="M101,-226.179C101,-214.465 101,-202.504 101,-190.776"/>
<polygon fill="none" stroke="#404040" points="101,-190.66 97,-184.66 101,-178.66 105,-184.66 101,-190.66"/>
<text text-anchor="middle" x="118" y="-200" font-family="Helvetica,sans-Serif" font-size="10.00"> &#45;array_</text>
</g>
<!-- Node3 -->
<g id="node3" class="node"><title>Node3</title>
<g id="a_node3"><a xlink:href="a05379.html" target="_top" xlink:title=" ">
<polygon fill="white" stroke="black" points="0,-513 0,-636 124,-636 124,-513 0,-513"/>
<text text-anchor="middle" x="62" y="-624" font-family="Helvetica,sans-Serif" font-size="10.00">List::List&lt; Comparable &gt;</text>
<polyline fill="none" stroke="black" points="0,-617 124,-617 "/>
<text text-anchor="middle" x="62" y="-605" font-family="Helvetica,sans-Serif" font-size="10.00"> </text>
<polyline fill="none" stroke="black" points="0,-598 124,-598 "/>
<text text-anchor="start" x="8" y="-586" font-family="Helvetica,sans-Serif" font-size="10.00">+ clear()</text>
<text text-anchor="start" x="8" y="-575" font-family="Helvetica,sans-Serif" font-size="10.00">+ length()</text>
<text text-anchor="start" x="8" y="-564" font-family="Helvetica,sans-Serif" font-size="10.00">+ insert()</text>
<text text-anchor="start" x="8" y="-553" font-family="Helvetica,sans-Serif" font-size="10.00">+ remove()</text>
<text text-anchor="start" x="8" y="-542" font-family="Helvetica,sans-Serif" font-size="10.00">+ search()</text>
<text text-anchor="start" x="8" y="-531" font-family="Helvetica,sans-Serif" font-size="10.00">+ visit()</text>
<text text-anchor="start" x="8" y="-520" font-family="Helvetica,sans-Serif" font-size="10.00">+ ~List()</text>
</a>
</g>
</g>
<!-- Node3&#45;&gt;Node2 -->
<g id="edge2" class="edge"><title>Node3&#45;&gt;Node2</title>
<path fill="none" stroke="midnightblue" d="M73.2149,-502.76C76.9654,-479.103 81.2181,-452.278 85.2487,-426.854"/>
<polygon fill="none" stroke="midnightblue" points="69.7495,-502.266 71.6405,-512.691 76.6632,-503.362 69.7495,-502.266"/>
</g>
<!-- Node4 -->
<g id="node4" class="node"><title>Node4</title>
<g id="a_node4"><a xlink:href="a05379.html" target="_top" xlink:title=" ">
<polygon fill="white" stroke="black" points="91.5,-722.5 91.5,-845.5 168.5,-845.5 168.5,-722.5 91.5,-722.5"/>
<text text-anchor="middle" x="130" y="-833.5" font-family="Helvetica,sans-Serif" font-size="10.00">List::List&lt; T &gt;</text>
<polyline fill="none" stroke="black" points="91.5,-826.5 168.5,-826.5 "/>
<text text-anchor="middle" x="130" y="-814.5" font-family="Helvetica,sans-Serif" font-size="10.00"> </text>
<polyline fill="none" stroke="black" points="91.5,-807.5 168.5,-807.5 "/>
<text text-anchor="start" x="99.5" y="-795.5" font-family="Helvetica,sans-Serif" font-size="10.00">+ clear()</text>
<text text-anchor="start" x="99.5" y="-784.5" font-family="Helvetica,sans-Serif" font-size="10.00">+ length()</text>
<text text-anchor="start" x="99.5" y="-773.5" font-family="Helvetica,sans-Serif" font-size="10.00">+ insert()</text>
<text text-anchor="start" x="99.5" y="-762.5" font-family="Helvetica,sans-Serif" font-size="10.00">+ remove()</text>
<text text-anchor="start" x="99.5" y="-751.5" font-family="Helvetica,sans-Serif" font-size="10.00">+ search()</text>
<text text-anchor="start" x="99.5" y="-740.5" font-family="Helvetica,sans-Serif" font-size="10.00">+ visit()</text>
<text text-anchor="start" x="99.5" y="-729.5" font-family="Helvetica,sans-Serif" font-size="10.00">+ ~List()</text>
</a>
</g>
</g>
<!-- Node4&#45;&gt;Node3 -->
<g id="edge3" class="edge"><title>Node4&#45;&gt;Node3</title>
<path fill="none" stroke="orange" d="M86.6864,-717.49C84.5717,-713.017 82.6474,-708.499 81,-704 73.1687,-682.612 68.5593,-658.098 65.8486,-636.255"/>
<polygon fill="orange" stroke="orange" points="83.6427,-719.227 91.2672,-726.584 89.8945,-716.078 83.6427,-719.227"/>
<text text-anchor="middle" x="117.5" y="-696" font-family="Helvetica,sans-Serif" font-size="10.00"> &lt; Comparable &gt;</text>
</g>
<!-- Node5 -->
<g id="node5" class="node"><title>Node5</title>
<g id="a_node5"><a xlink:href="a05391.html" target="_top" xlink:title=" ">
<polygon fill="white" stroke="black" points="142.5,-474.5 142.5,-674.5 235.5,-674.5 235.5,-474.5 142.5,-474.5"/>
<text text-anchor="middle" x="189" y="-662.5" font-family="Helvetica,sans-Serif" font-size="10.00">List::seqList&lt; T &gt;</text>
<polyline fill="none" stroke="black" points="142.5,-655.5 235.5,-655.5 "/>
<text text-anchor="start" x="150.5" y="-643.5" font-family="Helvetica,sans-Serif" font-size="10.00">&#45; data</text>
<text text-anchor="start" x="150.5" y="-632.5" font-family="Helvetica,sans-Serif" font-size="10.00">&#45; currentLength</text>
<text text-anchor="start" x="150.5" y="-621.5" font-family="Helvetica,sans-Serif" font-size="10.00">&#45; maxSize</text>
<polyline fill="none" stroke="black" points="142.5,-614.5 235.5,-614.5 "/>
<text text-anchor="start" x="150.5" y="-602.5" font-family="Helvetica,sans-Serif" font-size="10.00">+ seqList()</text>
<text text-anchor="start" x="150.5" y="-591.5" font-family="Helvetica,sans-Serif" font-size="10.00">+ seqList()</text>
<text text-anchor="start" x="150.5" y="-580.5" font-family="Helvetica,sans-Serif" font-size="10.00">+ seqList()</text>
<text text-anchor="start" x="150.5" y="-569.5" font-family="Helvetica,sans-Serif" font-size="10.00">+ seqList()</text>
<text text-anchor="start" x="150.5" y="-558.5" font-family="Helvetica,sans-Serif" font-size="10.00">+ ~seqList()</text>
<text text-anchor="start" x="150.5" y="-547.5" font-family="Helvetica,sans-Serif" font-size="10.00">+ clear()</text>
<text text-anchor="start" x="150.5" y="-536.5" font-family="Helvetica,sans-Serif" font-size="10.00">+ length()</text>
<text text-anchor="start" x="150.5" y="-525.5" font-family="Helvetica,sans-Serif" font-size="10.00">+ insert()</text>
<text text-anchor="start" x="150.5" y="-514.5" font-family="Helvetica,sans-Serif" font-size="10.00">+ remove()</text>
<text text-anchor="start" x="150.5" y="-503.5" font-family="Helvetica,sans-Serif" font-size="10.00">+ search()</text>
<text text-anchor="start" x="150.5" y="-492.5" font-family="Helvetica,sans-Serif" font-size="10.00">and 17 more...</text>
<text text-anchor="start" x="150.5" y="-481.5" font-family="Helvetica,sans-Serif" font-size="10.00">&#45; doubleSpace()</text>
</a>
</g>
</g>
<!-- Node4&#45;&gt;Node5 -->
<g id="edge5" class="edge"><title>Node4&#45;&gt;Node5</title>
<path fill="none" stroke="midnightblue" d="M155.29,-712.839C156.229,-709.861 157.137,-706.905 158,-704 160.809,-694.54 163.549,-684.633 166.164,-674.695"/>
<polygon fill="none" stroke="midnightblue" points="151.946,-711.803 152.196,-722.395 158.606,-713.959 151.946,-711.803"/>
</g>
<!-- Node5&#45;&gt;Node2 -->
<g id="edge4" class="edge"><title>Node5&#45;&gt;Node2</title>
<path fill="none" stroke="orange" d="M150.04,-464.588C145.543,-452.019 140.976,-439.252 136.529,-426.819"/>
<polygon fill="orange" stroke="orange" points="146.797,-465.915 153.461,-474.151 153.388,-463.557 146.797,-465.915"/>
<text text-anchor="middle" x="181.5" y="-448" font-family="Helvetica,sans-Serif" font-size="10.00"> &lt; Comparable &gt;</text>
</g>
</g>
</svg>
        <g id="navigator" transform="translate(0 0)" fill="#404254">
                <rect fill="#f2f5e9" fill-opacity="0.5" stroke="#606060" stroke-width=".5" x="0" y="0" width="60" height="60"/>
                <use id="zoomplus" xlink:href="#zoomPlus" x="17" y="9" onmousedown="handleZoom(evt,'in')"/>
                <use id="zoomminus" xlink:href="#zoomMin" x="42" y="9" onmousedown="handleZoom(evt,'out')"/>
                <use id="reset" xlink:href="#resetDef" x="30" y="36" onmousedown="handleReset()"/>
                <g id="arrowUp" xlink:href="#dirArrow" transform="translate(30 24)" onmousedown="handlePan(0,-1)">
                  <use xlink:href="#rim" fill="#404040">
                        <set attributeName="fill" to="#808080" begin="arrowUp.mouseover" end="arrowUp.mouseout"/>
                  </use>
                  <path fill="none" stroke="white" stroke-width="1.5" d="M0,-3.0v7 M-2.5,-0.5L0,-3.0L2.5,-0.5"/>
                </g>
                <g id="arrowRight" xlink:href="#dirArrow" transform="rotate(90) translate(36 -43)" onmousedown="handlePan(1,0)">
                  <use xlink:href="#rim" fill="#404040">
                        <set attributeName="fill" to="#808080" begin="arrowRight.mouseover" end="arrowRight.mouseout"/>
                  </use>
                  <path fill="none" stroke="white" stroke-width="1.5" d="M0,-3.0v7 M-2.5,-0.5L0,-3.0L2.5,-0.5"/>
                </g>
                <g id="arrowDown" xlink:href="#dirArrow" transform="rotate(180) translate(-30 -48)" onmousedown="handlePan(0,1)">
                  <use xlink:href="#rim" fill="#404040">
                        <set attributeName="fill" to="#808080" begin="arrowDown.mouseover" end="arrowDown.mouseout"/>
                  </use>
                  <path fill="none" stroke="white" stroke-width="1.5" d="M0,-3.0v7 M-2.5,-0.5L0,-3.0L2.5,-0.5"/>
                </g>
                <g id="arrowLeft" xlink:href="#dirArrow" transform="rotate(270) translate(-36 17)" onmousedown="handlePan(-1,0)">
                  <use xlink:href="#rim" fill="#404040">
                        <set attributeName="fill" to="#808080" begin="arrowLeft.mouseover" end="arrowLeft.mouseout"/>
                  </use>
                  <path fill="none" stroke="white" stroke-width="1.5" d="M0,-3.0v7 M-2.5,-0.5L0,-3.0L2.5,-0.5"/>
                </g>
        </g>
        <svg viewBox="0 0 15 15" width="100%" height="30px" preserveAspectRatio="xMaxYMin meet">
         <g id="arrow_out" transform="scale(0.3 0.3)">
          <a xlink:href="a05357_org.svg" target="_base">
           <rect id="button" ry="5" rx="5" y="6" x="6" height="38" width="38"
                fill="#f2f5e9" fill-opacity="0.5" stroke="#606060" stroke-width="1.0"/>
           <path id="arrow"
             d="M 11.500037,31.436501 C 11.940474,20.09759 22.043105,11.32322 32.158766,21.979434 L 37.068811,17.246167 C 37.068811,17.246167 37.088388,32 37.088388,32 L 22.160133,31.978069 C 22.160133,31.978069 26.997745,27.140456 26.997745,27.140456 C 18.528582,18.264221 13.291696,25.230495 11.500037,31.436501 z"
             style="fill:#404040;"/>
          </a>
         </g>
        </svg>
</svg>
