<?xml version="1.0" encoding="UTF-8" standalone="no"?>
<!DOCTYPE svg PUBLIC "-//W3C//DTD SVG 1.1//EN"
 "http://www.w3.org/Graphics/SVG/1.1/DTD/svg11.dtd">
<!-- Generated by graphviz version 2.38.0 (20140413.2041)
 -->
<!-- Title: List::seqList::size Pages: 1 -->
<svg width="245pt" height="110pt"
 viewBox="0.00 0.00 245.00 110.00" xmlns="http://www.w3.org/2000/svg" xmlns:xlink="http://www.w3.org/1999/xlink">
<g id="graph0" class="graph" transform="scale(1 1) rotate(0) translate(4 106)">
<title>List::seqList::size</title>
<polygon fill="white" stroke="none" points="-4,4 -4,-106 241,-106 241,4 -4,4"/>
<!-- Node1 -->
<g id="node1" class="node"><title>Node1</title>
<g id="a_node1"><a xlink:title="返回线性表的当前元素个数，即长度">
<polygon fill="#bfbfbf" stroke="black" points="143,-41.5 143,-60.5 237,-60.5 237,-41.5 143,-41.5"/>
<text text-anchor="middle" x="190" y="-48.5" font-family="Helvetica,sans-Serif" font-size="10.00">List::seqList::size</text>
</a>
</g>
</g>
<!-- Node2 -->
<g id="node2" class="node"><title>Node2</title>
<g id="a_node2"><a xlink:href="a05365.html#a096f70d6131ff92f03b8cb9454ee6766" target="_top" xlink:title="Construct a new Binary Heap object.">
<polygon fill="white" stroke="black" points="0,-60.5 0,-101.5 107,-101.5 107,-60.5 0,-60.5"/>
<text text-anchor="start" x="8" y="-89.5" font-family="Helvetica,sans-Serif" font-size="10.00">Queue::BinaryHeap&lt;</text>
<text text-anchor="start" x="8" y="-78.5" font-family="Helvetica,sans-Serif" font-size="10.00"> int, std::greater&lt;</text>
<text text-anchor="middle" x="53.5" y="-67.5" font-family="Helvetica,sans-Serif" font-size="10.00"> int &gt; &gt;::BinaryHeap</text>
</a>
</g>
</g>
<!-- Node1&#45;&gt;Node2 -->
<g id="edge1" class="edge"><title>Node1&#45;&gt;Node2</title>
<path fill="none" stroke="midnightblue" d="M136.043,-62.812C126.623,-64.9131 116.811,-67.1017 107.393,-69.2024"/>
<polygon fill="midnightblue" stroke="midnightblue" points="137.075,-66.1678 146.074,-60.5747 135.551,-59.3357 137.075,-66.1678"/>
</g>
<!-- Node3 -->
<g id="node3" class="node"><title>Node3</title>
<g id="a_node3"><a xlink:href="a05365.html#ac066dc2daf01560d8d7dcf20a7e8eaa2" target="_top" xlink:title="Return size.">
<polygon fill="white" stroke="black" points="0,-0.5 0,-41.5 107,-41.5 107,-0.5 0,-0.5"/>
<text text-anchor="start" x="8" y="-29.5" font-family="Helvetica,sans-Serif" font-size="10.00">Queue::BinaryHeap&lt;</text>
<text text-anchor="start" x="8" y="-18.5" font-family="Helvetica,sans-Serif" font-size="10.00"> int, std::greater&lt;</text>
<text text-anchor="middle" x="53.5" y="-7.5" font-family="Helvetica,sans-Serif" font-size="10.00"> int &gt; &gt;::size</text>
</a>
</g>
</g>
<!-- Node1&#45;&gt;Node3 -->
<g id="edge2" class="edge"><title>Node1&#45;&gt;Node3</title>
<path fill="none" stroke="midnightblue" d="M136.043,-39.188C126.623,-37.0869 116.811,-34.8983 107.393,-32.7976"/>
<polygon fill="midnightblue" stroke="midnightblue" points="135.551,-42.6643 146.074,-41.4253 137.075,-35.8322 135.551,-42.6643"/>
</g>
</g>
</svg>
