<?xml version="1.0" encoding="UTF-8" standalone="no"?>
<!DOCTYPE svg PUBLIC "-//W3C//DTD SVG 1.1//EN"
 "http://www.w3.org/Graphics/SVG/1.1/DTD/svg11.dtd">
<!-- Generated by graphviz version 2.38.0 (20140413.2041)
 -->
<!-- Title: List::seqList::pop_back Pages: 1 -->
<svg width="269pt" height="50pt"
 viewBox="0.00 0.00 269.00 50.00" xmlns="http://www.w3.org/2000/svg" xmlns:xlink="http://www.w3.org/1999/xlink">
<g id="graph0" class="graph" transform="scale(1 1) rotate(0) translate(4 46)">
<title>List::seqList::pop_back</title>
<polygon fill="white" stroke="none" points="-4,4 -4,-46 265,-46 265,4 -4,4"/>
<!-- Node1 -->
<g id="node1" class="node"><title>Node1</title>
<g id="a_node1"><a xlink:title="删除表尾元素">
<polygon fill="#bfbfbf" stroke="black" points="143,-11.5 143,-30.5 261,-30.5 261,-11.5 143,-11.5"/>
<text text-anchor="middle" x="202" y="-18.5" font-family="Helvetica,sans-Serif" font-size="10.00">List::seqList::pop_back</text>
</a>
</g>
</g>
<!-- Node2 -->
<g id="node2" class="node"><title>Node2</title>
<g id="a_node2"><a xlink:href="a05365.html#a75c8292669678e23690c332946aa0c32" target="_top" xlink:title="队头元素出队">
<polygon fill="white" stroke="black" points="0,-0.5 0,-41.5 107,-41.5 107,-0.5 0,-0.5"/>
<text text-anchor="start" x="8" y="-29.5" font-family="Helvetica,sans-Serif" font-size="10.00">Queue::BinaryHeap&lt;</text>
<text text-anchor="start" x="8" y="-18.5" font-family="Helvetica,sans-Serif" font-size="10.00"> int, std::greater&lt;</text>
<text text-anchor="middle" x="53.5" y="-7.5" font-family="Helvetica,sans-Serif" font-size="10.00"> int &gt; &gt;::pop</text>
</a>
</g>
</g>
<!-- Node1&#45;&gt;Node2 -->
<g id="edge1" class="edge"><title>Node1&#45;&gt;Node2</title>
<path fill="none" stroke="midnightblue" d="M132.474,-21C124.05,-21 115.542,-21 107.398,-21"/>
<polygon fill="midnightblue" stroke="midnightblue" points="132.678,-24.5001 142.678,-21 132.678,-17.5001 132.678,-24.5001"/>
</g>
</g>
</svg>
