<?xml version="1.0" encoding="UTF-8" standalone="no"?>
<!DOCTYPE svg PUBLIC "-//W3C//DTD SVG 1.1//EN"
 "http://www.w3.org/Graphics/SVG/1.1/DTD/svg11.dtd">
<!-- Generated by graphviz version 2.38.0 (20140413.2041)
 -->
<!-- Title: List::sLinkList&lt; T &gt; Pages: 1 -->
<svg width="242pt" height="463pt"
 viewBox="0.00 0.00 241.50 463.00" xmlns="http://www.w3.org/2000/svg" xmlns:xlink="http://www.w3.org/1999/xlink">
<g id="graph0" class="graph" transform="scale(1 1) rotate(0) translate(4 459)">
<title>List::sLinkList&lt; T &gt;</title>
<polygon fill="white" stroke="none" points="-4,4 -4,-459 237.5,-459 237.5,4 -4,4"/>
<!-- Node1 -->
<g id="node1" class="node"><title>Node1</title>
<g id="a_node1"><a xlink:title=" ">
<polygon fill="#bfbfbf" stroke="black" points="22,-0.5 22,-178.5 123,-178.5 123,-0.5 22,-0.5"/>
<text text-anchor="middle" x="72.5" y="-166.5" font-family="Helvetica,sans-Serif" font-size="10.00">List::sLinkList&lt; T &gt;</text>
<polyline fill="none" stroke="black" points="22,-159.5 123,-159.5 "/>
<text text-anchor="start" x="30" y="-147.5" font-family="Helvetica,sans-Serif" font-size="10.00">&#45; currentLength</text>
<polyline fill="none" stroke="black" points="22,-140.5 123,-140.5 "/>
<text text-anchor="start" x="30" y="-128.5" font-family="Helvetica,sans-Serif" font-size="10.00">+ sLinkList()</text>
<text text-anchor="start" x="30" y="-117.5" font-family="Helvetica,sans-Serif" font-size="10.00">+ sLinkList()</text>
<text text-anchor="start" x="30" y="-106.5" font-family="Helvetica,sans-Serif" font-size="10.00">+ ~sLinkList()</text>
<text text-anchor="start" x="30" y="-95.5" font-family="Helvetica,sans-Serif" font-size="10.00">+ clear()</text>
<text text-anchor="start" x="30" y="-84.5" font-family="Helvetica,sans-Serif" font-size="10.00">+ length()</text>
<text text-anchor="start" x="30" y="-73.5" font-family="Helvetica,sans-Serif" font-size="10.00">+ insert()</text>
<text text-anchor="start" x="30" y="-62.5" font-family="Helvetica,sans-Serif" font-size="10.00">+ remove()</text>
<text text-anchor="start" x="30" y="-51.5" font-family="Helvetica,sans-Serif" font-size="10.00">+ search()</text>
<text text-anchor="start" x="30" y="-40.5" font-family="Helvetica,sans-Serif" font-size="10.00">+ visit()</text>
<text text-anchor="start" x="30" y="-29.5" font-family="Helvetica,sans-Serif" font-size="10.00">+ traverse()</text>
<text text-anchor="start" x="30" y="-18.5" font-family="Helvetica,sans-Serif" font-size="10.00">and 8 more...</text>
<text text-anchor="start" x="30" y="-7.5" font-family="Helvetica,sans-Serif" font-size="10.00">&#45; move()</text>
</a>
</g>
</g>
<!-- Node2 -->
<g id="node2" class="node"><title>Node2</title>
<g id="a_node2"><a xlink:href="a05385.html" target="_top" xlink:title=" ">
<polygon fill="white" stroke="black" points="0,-226.5 0,-349.5 77,-349.5 77,-226.5 0,-226.5"/>
<text text-anchor="middle" x="38.5" y="-337.5" font-family="Helvetica,sans-Serif" font-size="10.00">List::List&lt; T &gt;</text>
<polyline fill="none" stroke="black" points="0,-330.5 77,-330.5 "/>
<text text-anchor="middle" x="38.5" y="-318.5" font-family="Helvetica,sans-Serif" font-size="10.00"> </text>
<polyline fill="none" stroke="black" points="0,-311.5 77,-311.5 "/>
<text text-anchor="start" x="8" y="-299.5" font-family="Helvetica,sans-Serif" font-size="10.00">+ clear()</text>
<text text-anchor="start" x="8" y="-288.5" font-family="Helvetica,sans-Serif" font-size="10.00">+ length()</text>
<text text-anchor="start" x="8" y="-277.5" font-family="Helvetica,sans-Serif" font-size="10.00">+ insert()</text>
<text text-anchor="start" x="8" y="-266.5" font-family="Helvetica,sans-Serif" font-size="10.00">+ remove()</text>
<text text-anchor="start" x="8" y="-255.5" font-family="Helvetica,sans-Serif" font-size="10.00">+ search()</text>
<text text-anchor="start" x="8" y="-244.5" font-family="Helvetica,sans-Serif" font-size="10.00">+ visit()</text>
<text text-anchor="start" x="8" y="-233.5" font-family="Helvetica,sans-Serif" font-size="10.00">+ ~List()</text>
</a>
</g>
</g>
<!-- Node2&#45;&gt;Node1 -->
<g id="edge1" class="edge"><title>Node2&#45;&gt;Node1</title>
<path fill="none" stroke="midnightblue" d="M50.726,-216.341C52.8401,-204.123 55.0614,-191.285 57.2439,-178.671"/>
<polygon fill="none" stroke="midnightblue" points="47.2348,-215.99 48.9786,-226.44 54.1323,-217.183 47.2348,-215.99"/>
</g>
<!-- Node3 -->
<g id="node3" class="node"><title>Node3</title>
<g id="a_node3"><a xlink:href="a05413.html" target="_top" xlink:title=" ">
<polygon fill="white" stroke="black" points="95.5,-248.5 95.5,-327.5 187.5,-327.5 187.5,-248.5 95.5,-248.5"/>
<text text-anchor="start" x="103.5" y="-315.5" font-family="Helvetica,sans-Serif" font-size="10.00">List::sLinkList&lt; T</text>
<text text-anchor="middle" x="141.5" y="-304.5" font-family="Helvetica,sans-Serif" font-size="10.00"> &gt;::node</text>
<polyline fill="none" stroke="black" points="95.5,-297.5 187.5,-297.5 "/>
<text text-anchor="middle" x="141.5" y="-285.5" font-family="Helvetica,sans-Serif" font-size="10.00"> </text>
<polyline fill="none" stroke="black" points="95.5,-278.5 187.5,-278.5 "/>
<text text-anchor="start" x="103.5" y="-266.5" font-family="Helvetica,sans-Serif" font-size="10.00">+ node()</text>
<text text-anchor="start" x="103.5" y="-255.5" font-family="Helvetica,sans-Serif" font-size="10.00">+ ~node()</text>
</a>
</g>
</g>
<!-- Node3&#45;&gt;Node1 -->
<g id="edge2" class="edge"><title>Node3&#45;&gt;Node1</title>
<path fill="none" stroke="#404040" d="M127.868,-248.178C121.969,-231.38 114.767,-210.869 107.534,-190.269"/>
<polygon fill="none" stroke="#404040" points="107.496,-190.161 101.734,-185.825 103.52,-178.839 109.282,-183.175 107.496,-190.161"/>
<text text-anchor="middle" x="126.5" y="-200" font-family="Helvetica,sans-Serif" font-size="10.00"> &#45;head</text>
</g>
<!-- Node3&#45;&gt;Node3 -->
<g id="edge3" class="edge"><title>Node3&#45;&gt;Node3</title>
<path fill="none" stroke="#404040" d="M187.524,-303.365C197.906,-301.981 205.5,-296.859 205.5,-288 205.5,-283.017 203.097,-279.216 199.147,-276.598"/>
<polygon fill="none" stroke="#404040" points="198.882,-276.507 191.912,-278.357 187.524,-272.635 194.494,-270.785 198.882,-276.507"/>
<text text-anchor="middle" x="219.5" y="-285.5" font-family="Helvetica,sans-Serif" font-size="10.00"> +next</text>
</g>
<!-- Node4 -->
<g id="node4" class="node"><title>Node4</title>
<g id="a_node4"><a xlink:title=" ">
<polygon fill="white" stroke="#bfbfbf" points="127,-397.5 127,-454.5 156,-454.5 156,-397.5 127,-397.5"/>
<text text-anchor="middle" x="141.5" y="-442.5" font-family="Helvetica,sans-Serif" font-size="10.00">T</text>
<polyline fill="none" stroke="#bfbfbf" points="127,-435.5 156,-435.5 "/>
<text text-anchor="middle" x="141.5" y="-423.5" font-family="Helvetica,sans-Serif" font-size="10.00"> </text>
<polyline fill="none" stroke="#bfbfbf" points="127,-416.5 156,-416.5 "/>
<text text-anchor="middle" x="141.5" y="-404.5" font-family="Helvetica,sans-Serif" font-size="10.00"> </text>
</a>
</g>
</g>
<!-- Node4&#45;&gt;Node3 -->
<g id="edge4" class="edge"><title>Node4&#45;&gt;Node3</title>
<path fill="none" stroke="#404040" d="M141.5,-397.478C141.5,-380.909 141.5,-359.299 141.5,-339.732"/>
<polygon fill="none" stroke="#404040" points="141.5,-339.56 137.5,-333.56 141.5,-327.56 145.5,-333.56 141.5,-339.56"/>
<text text-anchor="middle" x="155.5" y="-371" font-family="Helvetica,sans-Serif" font-size="10.00"> +data</text>
</g>
</g>
</svg>
