<?xml version="1.0" encoding="UTF-8" standalone="no"?>
<!DOCTYPE svg PUBLIC "-//W3C//DTD SVG 1.1//EN"
 "http://www.w3.org/Graphics/SVG/1.1/DTD/svg11.dtd">
<!-- Generated by graphviz version 2.38.0 (20140413.2041)
 -->
<!-- Title: Queue::priority_queue_int Pages: 1 -->
<svg width="270pt" height="1351pt"
 viewBox="0.00 0.00 269.50 1351.00" xmlns="http://www.w3.org/2000/svg" xmlns:xlink="http://www.w3.org/1999/xlink">
<g id="graph0" class="graph" transform="scale(1 1) rotate(0) translate(4 1347)">
<title>Queue::priority_queue_int</title>
<polygon fill="white" stroke="none" points="-4,4 -4,-1347 265.5,-1347 265.5,4 -4,4"/>
<!-- Node1 -->
<g id="node1" class="node"><title>Node1</title>
<g id="a_node1"><a xlink:title="基于最小堆的整型的优先级队列类">
<polygon fill="#bfbfbf" stroke="black" points="55,-0.5 55,-90.5 183,-90.5 183,-0.5 55,-0.5"/>
<text text-anchor="middle" x="119" y="-78.5" font-family="Helvetica,sans-Serif" font-size="10.00">Queue::priority_queue_int</text>
<polyline fill="none" stroke="black" points="55,-71.5 183,-71.5 "/>
<text text-anchor="middle" x="119" y="-59.5" font-family="Helvetica,sans-Serif" font-size="10.00"> </text>
<polyline fill="none" stroke="black" points="55,-52.5 183,-52.5 "/>
<text text-anchor="start" x="63" y="-40.5" font-family="Helvetica,sans-Serif" font-size="10.00">+ priority_queue_int()</text>
<text text-anchor="start" x="63" y="-29.5" font-family="Helvetica,sans-Serif" font-size="10.00">+ findMin()</text>
<text text-anchor="start" x="63" y="-18.5" font-family="Helvetica,sans-Serif" font-size="10.00">+ decreaseKey()</text>
<text text-anchor="start" x="63" y="-7.5" font-family="Helvetica,sans-Serif" font-size="10.00">+ increaseKey()</text>
</a>
</g>
</g>
<!-- Node2 -->
<g id="node2" class="node"><title>Node2</title>
<g id="a_node2"><a xlink:href="a05365.html" target="_top" xlink:title=" ">
<polygon fill="white" stroke="black" points="65.5,-128.5 65.5,-372.5 172.5,-372.5 172.5,-128.5 65.5,-128.5"/>
<text text-anchor="start" x="73.5" y="-360.5" font-family="Helvetica,sans-Serif" font-size="10.00">Queue::BinaryHeap&lt;</text>
<text text-anchor="start" x="73.5" y="-349.5" font-family="Helvetica,sans-Serif" font-size="10.00"> int, std::greater&lt;</text>
<text text-anchor="middle" x="119" y="-338.5" font-family="Helvetica,sans-Serif" font-size="10.00"> int &gt; &gt;</text>
<polyline fill="none" stroke="black" points="65.5,-331.5 172.5,-331.5 "/>
<text text-anchor="start" x="73.5" y="-319.5" font-family="Helvetica,sans-Serif" font-size="10.00">+ const_reference</text>
<text text-anchor="start" x="73.5" y="-308.5" font-family="Helvetica,sans-Serif" font-size="10.00"># current_size_</text>
<text text-anchor="start" x="73.5" y="-297.5" font-family="Helvetica,sans-Serif" font-size="10.00"># comp</text>
<polyline fill="none" stroke="black" points="65.5,-290.5 172.5,-290.5 "/>
<text text-anchor="start" x="73.5" y="-278.5" font-family="Helvetica,sans-Serif" font-size="10.00">+ BinaryHeap()</text>
<text text-anchor="start" x="73.5" y="-267.5" font-family="Helvetica,sans-Serif" font-size="10.00">+ BinaryHeap()</text>
<text text-anchor="start" x="73.5" y="-256.5" font-family="Helvetica,sans-Serif" font-size="10.00">+ ~BinaryHeap()</text>
<text text-anchor="start" x="73.5" y="-245.5" font-family="Helvetica,sans-Serif" font-size="10.00">+ empty()</text>
<text text-anchor="start" x="73.5" y="-234.5" font-family="Helvetica,sans-Serif" font-size="10.00">+ top()</text>
<text text-anchor="start" x="73.5" y="-223.5" font-family="Helvetica,sans-Serif" font-size="10.00">+ pop()</text>
<text text-anchor="start" x="73.5" y="-212.5" font-family="Helvetica,sans-Serif" font-size="10.00">+ pop()</text>
<text text-anchor="start" x="73.5" y="-201.5" font-family="Helvetica,sans-Serif" font-size="10.00">+ push()</text>
<text text-anchor="start" x="73.5" y="-190.5" font-family="Helvetica,sans-Serif" font-size="10.00">+ clear()</text>
<text text-anchor="start" x="73.5" y="-179.5" font-family="Helvetica,sans-Serif" font-size="10.00">+ size()</text>
<text text-anchor="start" x="73.5" y="-168.5" font-family="Helvetica,sans-Serif" font-size="10.00">+ print_heap()</text>
<text text-anchor="start" x="73.5" y="-157.5" font-family="Helvetica,sans-Serif" font-size="10.00"># buildHeap()</text>
<text text-anchor="start" x="73.5" y="-146.5" font-family="Helvetica,sans-Serif" font-size="10.00"># percolateDown()</text>
<text text-anchor="start" x="73.5" y="-135.5" font-family="Helvetica,sans-Serif" font-size="10.00"># percolateUp()</text>
</a>
</g>
</g>
<!-- Node2&#45;&gt;Node1 -->
<g id="edge1" class="edge"><title>Node2&#45;&gt;Node1</title>
<path fill="none" stroke="midnightblue" d="M119,-118.218C119,-108.49 119,-99.1634 119,-90.6399"/>
<polygon fill="none" stroke="midnightblue" points="115.5,-118.483 119,-128.483 122.5,-118.483 115.5,-118.483"/>
</g>
<!-- Node3 -->
<g id="node3" class="node"><title>Node3</title>
<g id="a_node3"><a xlink:href="a05397.html" target="_top" xlink:title=" ">
<polygon fill="white" stroke="black" points="47.5,-712.5 47.5,-923.5 148.5,-923.5 148.5,-712.5 47.5,-712.5"/>
<text text-anchor="start" x="55.5" y="-911.5" font-family="Helvetica,sans-Serif" font-size="10.00">List::seqList&lt; value</text>
<text text-anchor="middle" x="98" y="-900.5" font-family="Helvetica,sans-Serif" font-size="10.00">_type &gt;</text>
<polyline fill="none" stroke="black" points="47.5,-893.5 148.5,-893.5 "/>
<text text-anchor="start" x="55.5" y="-881.5" font-family="Helvetica,sans-Serif" font-size="10.00">&#45; data</text>
<text text-anchor="start" x="55.5" y="-870.5" font-family="Helvetica,sans-Serif" font-size="10.00">&#45; currentLength</text>
<text text-anchor="start" x="55.5" y="-859.5" font-family="Helvetica,sans-Serif" font-size="10.00">&#45; maxSize</text>
<polyline fill="none" stroke="black" points="47.5,-852.5 148.5,-852.5 "/>
<text text-anchor="start" x="55.5" y="-840.5" font-family="Helvetica,sans-Serif" font-size="10.00">+ seqList()</text>
<text text-anchor="start" x="55.5" y="-829.5" font-family="Helvetica,sans-Serif" font-size="10.00">+ seqList()</text>
<text text-anchor="start" x="55.5" y="-818.5" font-family="Helvetica,sans-Serif" font-size="10.00">+ seqList()</text>
<text text-anchor="start" x="55.5" y="-807.5" font-family="Helvetica,sans-Serif" font-size="10.00">+ seqList()</text>
<text text-anchor="start" x="55.5" y="-796.5" font-family="Helvetica,sans-Serif" font-size="10.00">+ ~seqList()</text>
<text text-anchor="start" x="55.5" y="-785.5" font-family="Helvetica,sans-Serif" font-size="10.00">+ clear()</text>
<text text-anchor="start" x="55.5" y="-774.5" font-family="Helvetica,sans-Serif" font-size="10.00">+ length()</text>
<text text-anchor="start" x="55.5" y="-763.5" font-family="Helvetica,sans-Serif" font-size="10.00">+ insert()</text>
<text text-anchor="start" x="55.5" y="-752.5" font-family="Helvetica,sans-Serif" font-size="10.00">+ remove()</text>
<text text-anchor="start" x="55.5" y="-741.5" font-family="Helvetica,sans-Serif" font-size="10.00">+ search()</text>
<text text-anchor="start" x="55.5" y="-730.5" font-family="Helvetica,sans-Serif" font-size="10.00">and 19 more...</text>
<text text-anchor="start" x="55.5" y="-719.5" font-family="Helvetica,sans-Serif" font-size="10.00">&#45; doubleSpace()</text>
</a>
</g>
</g>
<!-- Node3&#45;&gt;Node2 -->
<g id="edge2" class="edge"><title>Node3&#45;&gt;Node2</title>
<path fill="none" stroke="#404040" d="M92.5478,-712.361C91.9046,-696.497 91.3525,-680.318 91,-665 88.6072,-561.028 82.9615,-534.689 91,-431 92.1542,-416.112 93.8391,-400.592 95.819,-385.182"/>
<polygon fill="none" stroke="#404040" points="95.8758,-384.756 92.7059,-378.279 97.4655,-372.862 100.635,-379.339 95.8758,-384.756"/>
<text text-anchor="middle" x="109" y="-545.5" font-family="Helvetica,sans-Serif" font-size="10.00"> #array_</text>
</g>
<!-- Node7 -->
<g id="node7" class="node"><title>Node7</title>
<g id="a_node7"><a xlink:href="a05365.html" target="_top" xlink:title="Priority queue.">
<polygon fill="white" stroke="black" points="136.5,-431.5 136.5,-664.5 261.5,-664.5 261.5,-431.5 136.5,-431.5"/>
<text text-anchor="start" x="144.5" y="-652.5" font-family="Helvetica,sans-Serif" font-size="10.00">Queue::BinaryHeap&lt;</text>
<text text-anchor="middle" x="199" y="-641.5" font-family="Helvetica,sans-Serif" font-size="10.00"> Comparable, Compare &gt;</text>
<polyline fill="none" stroke="black" points="136.5,-634.5 261.5,-634.5 "/>
<text text-anchor="start" x="144.5" y="-622.5" font-family="Helvetica,sans-Serif" font-size="10.00">+ const_reference</text>
<text text-anchor="start" x="144.5" y="-611.5" font-family="Helvetica,sans-Serif" font-size="10.00"># current_size_</text>
<text text-anchor="start" x="144.5" y="-600.5" font-family="Helvetica,sans-Serif" font-size="10.00"># comp</text>
<polyline fill="none" stroke="black" points="136.5,-593.5 261.5,-593.5 "/>
<text text-anchor="start" x="144.5" y="-581.5" font-family="Helvetica,sans-Serif" font-size="10.00">+ BinaryHeap()</text>
<text text-anchor="start" x="144.5" y="-570.5" font-family="Helvetica,sans-Serif" font-size="10.00">+ BinaryHeap()</text>
<text text-anchor="start" x="144.5" y="-559.5" font-family="Helvetica,sans-Serif" font-size="10.00">+ ~BinaryHeap()</text>
<text text-anchor="start" x="144.5" y="-548.5" font-family="Helvetica,sans-Serif" font-size="10.00">+ empty()</text>
<text text-anchor="start" x="144.5" y="-537.5" font-family="Helvetica,sans-Serif" font-size="10.00">+ top()</text>
<text text-anchor="start" x="144.5" y="-526.5" font-family="Helvetica,sans-Serif" font-size="10.00">+ pop()</text>
<text text-anchor="start" x="144.5" y="-515.5" font-family="Helvetica,sans-Serif" font-size="10.00">+ pop()</text>
<text text-anchor="start" x="144.5" y="-504.5" font-family="Helvetica,sans-Serif" font-size="10.00">+ push()</text>
<text text-anchor="start" x="144.5" y="-493.5" font-family="Helvetica,sans-Serif" font-size="10.00">+ clear()</text>
<text text-anchor="start" x="144.5" y="-482.5" font-family="Helvetica,sans-Serif" font-size="10.00">+ size()</text>
<text text-anchor="start" x="144.5" y="-471.5" font-family="Helvetica,sans-Serif" font-size="10.00">+ print_heap()</text>
<text text-anchor="start" x="144.5" y="-460.5" font-family="Helvetica,sans-Serif" font-size="10.00"># buildHeap()</text>
<text text-anchor="start" x="144.5" y="-449.5" font-family="Helvetica,sans-Serif" font-size="10.00"># percolateDown()</text>
<text text-anchor="start" x="144.5" y="-438.5" font-family="Helvetica,sans-Serif" font-size="10.00"># percolateUp()</text>
</a>
</g>
</g>
<!-- Node3&#45;&gt;Node7 -->
<g id="edge8" class="edge"><title>Node3&#45;&gt;Node7</title>
<path fill="none" stroke="#404040" d="M137.483,-712.233C141.928,-700.44 146.492,-688.329 151.028,-676.291"/>
<polygon fill="none" stroke="#404040" points="151.133,-676.014 149.506,-668.989 155.365,-664.785 156.992,-671.81 151.133,-676.014"/>
<text text-anchor="middle" x="167" y="-686" font-family="Helvetica,sans-Serif" font-size="10.00"> #array_</text>
</g>
<!-- Node4 -->
<g id="node4" class="node"><title>Node4</title>
<g id="a_node4"><a xlink:href="a05385.html" target="_top" xlink:title=" ">
<polygon fill="white" stroke="black" points="0,-1010 0,-1133 118,-1133 118,-1010 0,-1010"/>
<text text-anchor="middle" x="59" y="-1121" font-family="Helvetica,sans-Serif" font-size="10.00">List::List&lt; value_type &gt;</text>
<polyline fill="none" stroke="black" points="0,-1114 118,-1114 "/>
<text text-anchor="middle" x="59" y="-1102" font-family="Helvetica,sans-Serif" font-size="10.00"> </text>
<polyline fill="none" stroke="black" points="0,-1095 118,-1095 "/>
<text text-anchor="start" x="8" y="-1083" font-family="Helvetica,sans-Serif" font-size="10.00">+ clear()</text>
<text text-anchor="start" x="8" y="-1072" font-family="Helvetica,sans-Serif" font-size="10.00">+ length()</text>
<text text-anchor="start" x="8" y="-1061" font-family="Helvetica,sans-Serif" font-size="10.00">+ insert()</text>
<text text-anchor="start" x="8" y="-1050" font-family="Helvetica,sans-Serif" font-size="10.00">+ remove()</text>
<text text-anchor="start" x="8" y="-1039" font-family="Helvetica,sans-Serif" font-size="10.00">+ search()</text>
<text text-anchor="start" x="8" y="-1028" font-family="Helvetica,sans-Serif" font-size="10.00">+ visit()</text>
<text text-anchor="start" x="8" y="-1017" font-family="Helvetica,sans-Serif" font-size="10.00">+ ~List()</text>
</a>
</g>
</g>
<!-- Node4&#45;&gt;Node3 -->
<g id="edge3" class="edge"><title>Node4&#45;&gt;Node3</title>
<path fill="none" stroke="midnightblue" d="M69.9306,-1000.01C73.5995,-976.352 77.7737,-949.434 81.7607,-923.722"/>
<polygon fill="none" stroke="midnightblue" points="66.4649,-999.521 68.3911,-1009.94 73.3822,-1000.59 66.4649,-999.521"/>
</g>
<!-- Node5 -->
<g id="node5" class="node"><title>Node5</title>
<g id="a_node5"><a xlink:href="a05385.html" target="_top" xlink:title=" ">
<polygon fill="white" stroke="black" points="87.5,-1219.5 87.5,-1342.5 164.5,-1342.5 164.5,-1219.5 87.5,-1219.5"/>
<text text-anchor="middle" x="126" y="-1330.5" font-family="Helvetica,sans-Serif" font-size="10.00">List::List&lt; T &gt;</text>
<polyline fill="none" stroke="black" points="87.5,-1323.5 164.5,-1323.5 "/>
<text text-anchor="middle" x="126" y="-1311.5" font-family="Helvetica,sans-Serif" font-size="10.00"> </text>
<polyline fill="none" stroke="black" points="87.5,-1304.5 164.5,-1304.5 "/>
<text text-anchor="start" x="95.5" y="-1292.5" font-family="Helvetica,sans-Serif" font-size="10.00">+ clear()</text>
<text text-anchor="start" x="95.5" y="-1281.5" font-family="Helvetica,sans-Serif" font-size="10.00">+ length()</text>
<text text-anchor="start" x="95.5" y="-1270.5" font-family="Helvetica,sans-Serif" font-size="10.00">+ insert()</text>
<text text-anchor="start" x="95.5" y="-1259.5" font-family="Helvetica,sans-Serif" font-size="10.00">+ remove()</text>
<text text-anchor="start" x="95.5" y="-1248.5" font-family="Helvetica,sans-Serif" font-size="10.00">+ search()</text>
<text text-anchor="start" x="95.5" y="-1237.5" font-family="Helvetica,sans-Serif" font-size="10.00">+ visit()</text>
<text text-anchor="start" x="95.5" y="-1226.5" font-family="Helvetica,sans-Serif" font-size="10.00">+ ~List()</text>
</a>
</g>
</g>
<!-- Node5&#45;&gt;Node4 -->
<g id="edge4" class="edge"><title>Node5&#45;&gt;Node4</title>
<path fill="none" stroke="orange" d="M83.6284,-1210.21C82.3174,-1207.14 81.0992,-1204.06 80,-1201 72.2864,-1179.51 67.3905,-1154.98 64.2897,-1133.15"/>
<polygon fill="orange" stroke="orange" points="80.4795,-1211.74 87.8138,-1219.39 86.8484,-1208.84 80.4795,-1211.74"/>
<text text-anchor="middle" x="113.5" y="-1193" font-family="Helvetica,sans-Serif" font-size="10.00"> &lt; value_type &gt;</text>
</g>
<!-- Node6 -->
<g id="node6" class="node"><title>Node6</title>
<g id="a_node6"><a xlink:href="a05397.html" target="_top" xlink:title=" ">
<polygon fill="white" stroke="black" points="136.5,-971.5 136.5,-1171.5 229.5,-1171.5 229.5,-971.5 136.5,-971.5"/>
<text text-anchor="middle" x="183" y="-1159.5" font-family="Helvetica,sans-Serif" font-size="10.00">List::seqList&lt; T &gt;</text>
<polyline fill="none" stroke="black" points="136.5,-1152.5 229.5,-1152.5 "/>
<text text-anchor="start" x="144.5" y="-1140.5" font-family="Helvetica,sans-Serif" font-size="10.00">&#45; data</text>
<text text-anchor="start" x="144.5" y="-1129.5" font-family="Helvetica,sans-Serif" font-size="10.00">&#45; currentLength</text>
<text text-anchor="start" x="144.5" y="-1118.5" font-family="Helvetica,sans-Serif" font-size="10.00">&#45; maxSize</text>
<polyline fill="none" stroke="black" points="136.5,-1111.5 229.5,-1111.5 "/>
<text text-anchor="start" x="144.5" y="-1099.5" font-family="Helvetica,sans-Serif" font-size="10.00">+ seqList()</text>
<text text-anchor="start" x="144.5" y="-1088.5" font-family="Helvetica,sans-Serif" font-size="10.00">+ seqList()</text>
<text text-anchor="start" x="144.5" y="-1077.5" font-family="Helvetica,sans-Serif" font-size="10.00">+ seqList()</text>
<text text-anchor="start" x="144.5" y="-1066.5" font-family="Helvetica,sans-Serif" font-size="10.00">+ seqList()</text>
<text text-anchor="start" x="144.5" y="-1055.5" font-family="Helvetica,sans-Serif" font-size="10.00">+ ~seqList()</text>
<text text-anchor="start" x="144.5" y="-1044.5" font-family="Helvetica,sans-Serif" font-size="10.00">+ clear()</text>
<text text-anchor="start" x="144.5" y="-1033.5" font-family="Helvetica,sans-Serif" font-size="10.00">+ length()</text>
<text text-anchor="start" x="144.5" y="-1022.5" font-family="Helvetica,sans-Serif" font-size="10.00">+ insert()</text>
<text text-anchor="start" x="144.5" y="-1011.5" font-family="Helvetica,sans-Serif" font-size="10.00">+ remove()</text>
<text text-anchor="start" x="144.5" y="-1000.5" font-family="Helvetica,sans-Serif" font-size="10.00">+ search()</text>
<text text-anchor="start" x="144.5" y="-989.5" font-family="Helvetica,sans-Serif" font-size="10.00">and 19 more...</text>
<text text-anchor="start" x="144.5" y="-978.5" font-family="Helvetica,sans-Serif" font-size="10.00">&#45; doubleSpace()</text>
</a>
</g>
</g>
<!-- Node5&#45;&gt;Node6 -->
<g id="edge6" class="edge"><title>Node5&#45;&gt;Node6</title>
<path fill="none" stroke="midnightblue" d="M148.553,-1209.5C149.393,-1206.63 150.212,-1203.79 151,-1201 153.687,-1191.49 156.374,-1181.54 158.986,-1171.58"/>
<polygon fill="none" stroke="midnightblue" points="145.133,-1208.72 145.629,-1219.3 151.841,-1210.72 145.133,-1208.72"/>
</g>
<!-- Node6&#45;&gt;Node3 -->
<g id="edge5" class="edge"><title>Node6&#45;&gt;Node3</title>
<path fill="none" stroke="orange" d="M146.279,-961.849C142.007,-949.208 137.655,-936.332 133.401,-923.745"/>
<polygon fill="orange" stroke="orange" points="143.01,-963.109 149.528,-971.462 149.642,-960.867 143.01,-963.109"/>
<text text-anchor="middle" x="177.5" y="-945" font-family="Helvetica,sans-Serif" font-size="10.00"> &lt; value_type &gt;</text>
</g>
<!-- Node7&#45;&gt;Node2 -->
<g id="edge7" class="edge"><title>Node7&#45;&gt;Node2</title>
<path fill="none" stroke="orange" d="M165.021,-421.489C160.652,-405.352 156.185,-388.853 151.836,-372.786"/>
<polygon fill="orange" stroke="orange" points="161.735,-422.745 167.726,-431.482 168.491,-420.915 161.735,-422.745"/>
<text text-anchor="start" x="162" y="-405" font-family="Helvetica,sans-Serif" font-size="10.00"> &lt; int, std::greater</text>
<text text-anchor="middle" x="201.5" y="-394" font-family="Helvetica,sans-Serif" font-size="10.00">&lt; int &gt; &gt;</text>
</g>
</g>
</svg>
