<?xml version="1.0" encoding="UTF-8" standalone="no"?>
<!DOCTYPE svg PUBLIC "-//W3C//DTD SVG 1.1//EN"
 "http://www.w3.org/Graphics/SVG/1.1/DTD/svg11.dtd">
<!-- Generated by graphviz version 2.38.0 (20140413.2041)
 -->
<!-- Title: List::sLinkList&lt; T &gt;::iterator Pages: 1 -->
<svg width="146pt" height="547pt"
 viewBox="0.00 0.00 146.00 547.00" xmlns="http://www.w3.org/2000/svg" xmlns:xlink="http://www.w3.org/1999/xlink">
<g id="graph0" class="graph" transform="scale(1 1) rotate(0) translate(4 543)">
<title>List::sLinkList&lt; T &gt;::iterator</title>
<polygon fill="white" stroke="none" points="-4,4 -4,-543 142,-543 142,4 -4,4"/>
<!-- Node1 -->
<g id="node1" class="node"><title>Node1</title>
<g id="a_node1"><a xlink:title=" ">
<polygon fill="#bfbfbf" stroke="black" points="0,-0.5 0,-123.5 92,-123.5 92,-0.5 0,-0.5"/>
<text text-anchor="start" x="8" y="-111.5" font-family="Helvetica,sans-Serif" font-size="10.00">List::sLinkList&lt; T</text>
<text text-anchor="middle" x="46" y="-100.5" font-family="Helvetica,sans-Serif" font-size="10.00"> &gt;::iterator</text>
<polyline fill="none" stroke="black" points="0,-93.5 92,-93.5 "/>
<text text-anchor="start" x="8" y="-81.5" font-family="Helvetica,sans-Serif" font-size="10.00"># sLinkList&lt; T &gt;</text>
<polyline fill="none" stroke="black" points="0,-74.5 92,-74.5 "/>
<text text-anchor="start" x="8" y="-62.5" font-family="Helvetica,sans-Serif" font-size="10.00">+ iterator()</text>
<text text-anchor="start" x="8" y="-51.5" font-family="Helvetica,sans-Serif" font-size="10.00">+ operator*()</text>
<text text-anchor="start" x="8" y="-40.5" font-family="Helvetica,sans-Serif" font-size="10.00">+ operator*()</text>
<text text-anchor="start" x="8" y="-29.5" font-family="Helvetica,sans-Serif" font-size="10.00">+ operator++()</text>
<text text-anchor="start" x="8" y="-18.5" font-family="Helvetica,sans-Serif" font-size="10.00">+ operator++()</text>
<text text-anchor="start" x="8" y="-7.5" font-family="Helvetica,sans-Serif" font-size="10.00"># iterator()</text>
</a>
</g>
</g>
<!-- Node2 -->
<g id="node2" class="node"><title>Node2</title>
<g id="a_node2"><a xlink:href="a05411.html" target="_top" xlink:title=" ">
<polygon fill="white" stroke="black" points="0,-161.5 0,-306.5 92,-306.5 92,-161.5 0,-161.5"/>
<text text-anchor="start" x="8" y="-294.5" font-family="Helvetica,sans-Serif" font-size="10.00">List::sLinkList&lt; T</text>
<text text-anchor="middle" x="46" y="-283.5" font-family="Helvetica,sans-Serif" font-size="10.00"> &gt;::const_iterator</text>
<polyline fill="none" stroke="black" points="0,-276.5 92,-276.5 "/>
<text text-anchor="start" x="8" y="-264.5" font-family="Helvetica,sans-Serif" font-size="10.00"># sLinkList&lt; T &gt;</text>
<polyline fill="none" stroke="black" points="0,-257.5 92,-257.5 "/>
<text text-anchor="start" x="8" y="-245.5" font-family="Helvetica,sans-Serif" font-size="10.00">+ const_iterator()</text>
<text text-anchor="start" x="8" y="-234.5" font-family="Helvetica,sans-Serif" font-size="10.00">+ operator*()</text>
<text text-anchor="start" x="8" y="-223.5" font-family="Helvetica,sans-Serif" font-size="10.00">+ operator++()</text>
<text text-anchor="start" x="8" y="-212.5" font-family="Helvetica,sans-Serif" font-size="10.00">+ operator++()</text>
<text text-anchor="start" x="8" y="-201.5" font-family="Helvetica,sans-Serif" font-size="10.00">+ operator==()</text>
<text text-anchor="start" x="8" y="-190.5" font-family="Helvetica,sans-Serif" font-size="10.00">+ operator!=()</text>
<text text-anchor="start" x="8" y="-179.5" font-family="Helvetica,sans-Serif" font-size="10.00">+ isEnd()</text>
<text text-anchor="start" x="8" y="-168.5" font-family="Helvetica,sans-Serif" font-size="10.00"># const_iterator()</text>
</a>
</g>
</g>
<!-- Node2&#45;&gt;Node1 -->
<g id="edge1" class="edge"><title>Node2&#45;&gt;Node1</title>
<path fill="none" stroke="midnightblue" d="M46,-151.355C46,-142.062 46,-132.716 46,-123.761"/>
<polygon fill="none" stroke="midnightblue" points="42.5001,-151.397 46,-161.397 49.5001,-151.397 42.5001,-151.397"/>
</g>
<!-- Node3 -->
<g id="node3" class="node"><title>Node3</title>
<g id="a_node3"><a xlink:href="a05407.html" target="_top" xlink:title=" ">
<polygon fill="white" stroke="black" points="0,-354.5 0,-433.5 92,-433.5 92,-354.5 0,-354.5"/>
<text text-anchor="start" x="8" y="-421.5" font-family="Helvetica,sans-Serif" font-size="10.00">List::sLinkList&lt; T</text>
<text text-anchor="middle" x="46" y="-410.5" font-family="Helvetica,sans-Serif" font-size="10.00"> &gt;::node</text>
<polyline fill="none" stroke="black" points="0,-403.5 92,-403.5 "/>
<text text-anchor="middle" x="46" y="-391.5" font-family="Helvetica,sans-Serif" font-size="10.00"> </text>
<polyline fill="none" stroke="black" points="0,-384.5 92,-384.5 "/>
<text text-anchor="start" x="8" y="-372.5" font-family="Helvetica,sans-Serif" font-size="10.00">+ node()</text>
<text text-anchor="start" x="8" y="-361.5" font-family="Helvetica,sans-Serif" font-size="10.00">+ ~node()</text>
</a>
</g>
</g>
<!-- Node3&#45;&gt;Node2 -->
<g id="edge2" class="edge"><title>Node3&#45;&gt;Node2</title>
<path fill="none" stroke="#404040" d="M46,-354.349C46,-343.523 46,-331.315 46,-318.945"/>
<polygon fill="none" stroke="#404040" points="46.0001,-318.566 42,-312.566 46,-306.566 50,-312.566 46.0001,-318.566"/>
<text text-anchor="middle" x="65.5" y="-328" font-family="Helvetica,sans-Serif" font-size="10.00"> #current</text>
</g>
<!-- Node3&#45;&gt;Node3 -->
<g id="edge3" class="edge"><title>Node3&#45;&gt;Node3</title>
<path fill="none" stroke="#404040" d="M92.0242,-405.341C102.406,-404.319 110,-400.539 110,-394 110,-390.424 107.729,-387.673 103.973,-385.747"/>
<polygon fill="none" stroke="#404040" points="103.642,-385.662 96.8323,-388.033 92.0242,-382.659 98.8342,-380.288 103.642,-385.662"/>
<text text-anchor="middle" x="124" y="-391.5" font-family="Helvetica,sans-Serif" font-size="10.00"> +next</text>
</g>
<!-- Node4 -->
<g id="node4" class="node"><title>Node4</title>
<g id="a_node4"><a xlink:title=" ">
<polygon fill="white" stroke="#bfbfbf" points="31.5,-481.5 31.5,-538.5 60.5,-538.5 60.5,-481.5 31.5,-481.5"/>
<text text-anchor="middle" x="46" y="-526.5" font-family="Helvetica,sans-Serif" font-size="10.00">T</text>
<polyline fill="none" stroke="#bfbfbf" points="31.5,-519.5 60.5,-519.5 "/>
<text text-anchor="middle" x="46" y="-507.5" font-family="Helvetica,sans-Serif" font-size="10.00"> </text>
<polyline fill="none" stroke="#bfbfbf" points="31.5,-500.5 60.5,-500.5 "/>
<text text-anchor="middle" x="46" y="-488.5" font-family="Helvetica,sans-Serif" font-size="10.00"> </text>
</a>
</g>
</g>
<!-- Node4&#45;&gt;Node3 -->
<g id="edge4" class="edge"><title>Node4&#45;&gt;Node3</title>
<path fill="none" stroke="#404040" d="M46,-481.404C46,-470.63 46,-457.926 46,-445.623"/>
<polygon fill="none" stroke="#404040" points="46.0001,-445.541 42,-439.541 46,-433.541 50,-439.541 46.0001,-445.541"/>
<text text-anchor="middle" x="60" y="-455" font-family="Helvetica,sans-Serif" font-size="10.00"> +data</text>
</g>
</g>
</svg>
