<?xml version="1.0" encoding="UTF-8" standalone="no"?>
<!DOCTYPE svg PUBLIC "-//W3C//DTD SVG 1.1//EN"
 "http://www.w3.org/Graphics/SVG/1.1/DTD/svg11.dtd">
<!-- Generated by graphviz version 2.38.0 (20140413.2041)
 -->
<!-- Title: AckermannLoop Pages: 1 -->
<svg width="269pt" height="218pt"
 viewBox="0.00 0.00 269.00 218.00" xmlns="http://www.w3.org/2000/svg" xmlns:xlink="http://www.w3.org/1999/xlink">
<g id="graph0" class="graph" transform="scale(1 1) rotate(0) translate(4 214)">
<title>AckermannLoop</title>
<polygon fill="white" stroke="none" points="-4,4 -4,-214 265,-214 265,4 -4,4"/>
<!-- Node1 -->
<g id="node1" class="node"><title>Node1</title>
<g id="a_node1"><a xlink:title=" ">
<polygon fill="#bfbfbf" stroke="black" points="0,-95.5 0,-114.5 87,-114.5 87,-95.5 0,-95.5"/>
<text text-anchor="middle" x="43.5" y="-102.5" font-family="Helvetica,sans-Serif" font-size="10.00">AckermannLoop</text>
</a>
</g>
</g>
<!-- Node2 -->
<g id="node2" class="node"><title>Node2</title>
<g id="a_node2"><a xlink:href="class_stack_1_1seq_stack.html#aa4bbd748b258a1a9f9d3588ea2ba6a28" target="_top" xlink:title=" ">
<polygon fill="white" stroke="black" points="123,-190.5 123,-209.5 261,-209.5 261,-190.5 123,-190.5"/>
<text text-anchor="middle" x="192" y="-197.5" font-family="Helvetica,sans-Serif" font-size="10.00">Stack::seqStack::elemMem</text>
</a>
</g>
</g>
<!-- Node1&#45;&gt;Node2 -->
<g id="edge1" class="edge"><title>Node1&#45;&gt;Node2</title>
<path fill="none" stroke="midnightblue" d="M51.8285,-114.74C64.5273,-130.932 92.2313,-163.349 123,-181 126.873,-183.222 131.02,-185.196 135.285,-186.948"/>
<polygon fill="midnightblue" stroke="midnightblue" points="134.156,-190.262 144.749,-190.438 136.578,-183.694 134.156,-190.262"/>
</g>
<!-- Node3 -->
<g id="node3" class="node"><title>Node3</title>
<g id="a_node3"><a xlink:href="class_stack_1_1seq_stack.html#a35a066a0aedc630474fd3e3dcaa9ced8" target="_top" xlink:title=" ">
<polygon fill="white" stroke="black" points="126.5,-152.5 126.5,-171.5 257.5,-171.5 257.5,-152.5 126.5,-152.5"/>
<text text-anchor="middle" x="192" y="-159.5" font-family="Helvetica,sans-Serif" font-size="10.00">Stack::seqStack::isEmpty</text>
</a>
</g>
</g>
<!-- Node1&#45;&gt;Node3 -->
<g id="edge2" class="edge"><title>Node1&#45;&gt;Node3</title>
<path fill="none" stroke="midnightblue" d="M61.8745,-114.524C77.5246,-122.831 101.332,-134.803 123,-143 129.239,-145.36 135.899,-147.576 142.518,-149.601"/>
<polygon fill="midnightblue" stroke="midnightblue" points="141.553,-152.965 152.134,-152.428 143.527,-146.249 141.553,-152.965"/>
</g>
<!-- Node4 -->
<g id="node4" class="node"><title>Node4</title>
<g id="a_node4"><a xlink:href="class_stack_1_1seq_stack.html#ae76c0c31d160cd1dabd0270172e2c88a" target="_top" xlink:title=" ">
<polygon fill="white" stroke="black" points="136.5,-114.5 136.5,-133.5 247.5,-133.5 247.5,-114.5 136.5,-114.5"/>
<text text-anchor="middle" x="192" y="-121.5" font-family="Helvetica,sans-Serif" font-size="10.00">Stack::seqStack::pop</text>
</a>
</g>
</g>
<!-- Node1&#45;&gt;Node4 -->
<g id="edge3" class="edge"><title>Node1&#45;&gt;Node4</title>
<path fill="none" stroke="midnightblue" d="M87.2677,-110.547C99.5165,-112.135 113.149,-113.903 126.399,-115.622"/>
<polygon fill="midnightblue" stroke="midnightblue" points="126.061,-119.107 136.428,-116.922 126.961,-112.165 126.061,-119.107"/>
</g>
<!-- Node5 -->
<g id="node5" class="node"><title>Node5</title>
<g id="a_node5"><a xlink:href="class_stack_1_1seq_stack.html#aa580900cdf97734ca479fe9f68f1c681" target="_top" xlink:title=" ">
<polygon fill="white" stroke="black" points="134,-76.5 134,-95.5 250,-95.5 250,-76.5 134,-76.5"/>
<text text-anchor="middle" x="192" y="-83.5" font-family="Helvetica,sans-Serif" font-size="10.00">Stack::seqStack::push</text>
</a>
</g>
</g>
<!-- Node1&#45;&gt;Node5 -->
<g id="edge4" class="edge"><title>Node1&#45;&gt;Node5</title>
<path fill="none" stroke="midnightblue" d="M87.2677,-99.4533C98.6165,-97.9815 111.153,-96.3555 123.473,-94.7578"/>
<polygon fill="midnightblue" stroke="midnightblue" points="124.273,-98.1834 133.74,-93.4263 123.373,-91.2416 124.273,-98.1834"/>
</g>
<!-- Node6 -->
<g id="node6" class="node"><title>Node6</title>
<g id="a_node6"><a xlink:href="class_stack_1_1seq_stack.html#a91fa28d561e88adc40c3213552c58402" target="_top" xlink:title=" ">
<polygon fill="white" stroke="black" points="135.5,-38.5 135.5,-57.5 248.5,-57.5 248.5,-38.5 135.5,-38.5"/>
<text text-anchor="middle" x="192" y="-45.5" font-family="Helvetica,sans-Serif" font-size="10.00">Stack::seqStack::size</text>
</a>
</g>
</g>
<!-- Node1&#45;&gt;Node6 -->
<g id="edge5" class="edge"><title>Node1&#45;&gt;Node6</title>
<path fill="none" stroke="midnightblue" d="M61.8745,-95.4762C77.5246,-87.169 101.332,-75.1965 123,-67 129.239,-64.6397 135.899,-62.4243 142.518,-60.3989"/>
<polygon fill="midnightblue" stroke="midnightblue" points="143.527,-63.7506 152.134,-57.5725 141.553,-57.0347 143.527,-63.7506"/>
</g>
<!-- Node7 -->
<g id="node7" class="node"><title>Node7</title>
<g id="a_node7"><a xlink:href="class_stack_1_1seq_stack.html#aae3a405f01cc5ba788a111fe15c6f5ed" target="_top" xlink:title=" ">
<polygon fill="white" stroke="black" points="137.5,-0.5 137.5,-19.5 246.5,-19.5 246.5,-0.5 137.5,-0.5"/>
<text text-anchor="middle" x="192" y="-7.5" font-family="Helvetica,sans-Serif" font-size="10.00">Stack::seqStack::top</text>
</a>
</g>
</g>
<!-- Node1&#45;&gt;Node7 -->
<g id="edge6" class="edge"><title>Node1&#45;&gt;Node7</title>
<path fill="none" stroke="midnightblue" d="M51.8285,-95.2597C64.5273,-79.0676 92.2313,-46.6514 123,-29 126.873,-26.7784 131.02,-24.8044 135.285,-23.0525"/>
<polygon fill="midnightblue" stroke="midnightblue" points="136.578,-26.3059 144.749,-19.562 134.156,-19.7383 136.578,-26.3059"/>
</g>
</g>
</svg>
