<?xml version="1.0" encoding="UTF-8" standalone="no"?>
<!DOCTYPE svg PUBLIC "-//W3C//DTD SVG 1.1//EN"
 "http://www.w3.org/Graphics/SVG/1.1/DTD/svg11.dtd">
<!-- Generated by graphviz version 2.38.0 (20140413.2041)
 -->
<!-- Title: include/Stack.hh Pages: 1 -->
<svg width="687pt" height="140pt"
 viewBox="0.00 0.00 687.00 140.00" xmlns="http://www.w3.org/2000/svg" xmlns:xlink="http://www.w3.org/1999/xlink">
<g id="graph0" class="graph" transform="scale(1 1) rotate(0) translate(4 136)">
<title>include/Stack.hh</title>
<polygon fill="white" stroke="none" points="-4,4 -4,-136 683,-136 683,4 -4,4"/>
<!-- Node1 -->
<g id="node1" class="node"><title>Node1</title>
<g id="a_node1"><a xlink:title="栈的抽象类">
<polygon fill="#bfbfbf" stroke="black" points="270,-112.5 270,-131.5 359,-131.5 359,-112.5 270,-112.5"/>
<text text-anchor="middle" x="314.5" y="-119.5" font-family="Helvetica,sans-Serif" font-size="10.00">include/Stack.hh</text>
</a>
</g>
</g>
<!-- Node2 -->
<g id="node2" class="node"><title>Node2</title>
<g id="a_node2"><a xlink:href="_ackermann_8hh.html" target="_top" xlink:title="Ackermann库">
<polygon fill="white" stroke="black" points="0,-56.5 0,-75.5 113,-75.5 113,-56.5 0,-56.5"/>
<text text-anchor="middle" x="56.5" y="-63.5" font-family="Helvetica,sans-Serif" font-size="10.00">include/Ackermann.hh</text>
</a>
</g>
</g>
<!-- Node1&#45;&gt;Node2 -->
<g id="edge1" class="edge"><title>Node1&#45;&gt;Node2</title>
<path fill="none" stroke="midnightblue" d="M263.596,-110.346C214.838,-100.141 142.213,-84.94 97.1896,-75.5164"/>
<polygon fill="midnightblue" stroke="midnightblue" points="263.114,-113.821 273.619,-112.444 264.548,-106.969 263.114,-113.821"/>
</g>
<!-- Node4 -->
<g id="node4" class="node"><title>Node4</title>
<g id="a_node4"><a xlink:href="link_stack_8hpp.html" target="_top" xlink:title="顺序栈类">
<polygon fill="white" stroke="black" points="131.5,-56.5 131.5,-75.5 241.5,-75.5 241.5,-56.5 131.5,-56.5"/>
<text text-anchor="middle" x="186.5" y="-63.5" font-family="Helvetica,sans-Serif" font-size="10.00">include/linkStack.hpp</text>
</a>
</g>
</g>
<!-- Node1&#45;&gt;Node4 -->
<g id="edge3" class="edge"><title>Node1&#45;&gt;Node4</title>
<path fill="none" stroke="midnightblue" d="M279.758,-108.772C254.194,-98.6287 220.851,-84.4669 201.607,-75.5164"/>
<polygon fill="midnightblue" stroke="midnightblue" points="278.542,-112.054 289.129,-112.444 281.095,-105.537 278.542,-112.054"/>
</g>
<!-- Node5 -->
<g id="node5" class="node"><title>Node5</title>
<g id="a_node5"><a xlink:href="seq_stack_8hxx.html" target="_top" xlink:title="顺序栈类的定义和实现">
<polygon fill="white" stroke="black" points="259.5,-56.5 259.5,-75.5 369.5,-75.5 369.5,-56.5 259.5,-56.5"/>
<text text-anchor="middle" x="314.5" y="-63.5" font-family="Helvetica,sans-Serif" font-size="10.00">include/seqStack.hxx</text>
</a>
</g>
</g>
<!-- Node1&#45;&gt;Node5 -->
<g id="edge5" class="edge"><title>Node1&#45;&gt;Node5</title>
<path fill="none" stroke="midnightblue" d="M308.028,-102.101C307.396,-93.1357 307.843,-82.8579 309.369,-75.7511"/>
<polygon fill="midnightblue" stroke="midnightblue" points="304.566,-102.622 309.334,-112.083 311.507,-101.713 304.566,-102.622"/>
</g>
<!-- Node6 -->
<g id="node6" class="node"><title>Node6</title>
<g id="a_node6"><a xlink:href="_permute_8hh.html" target="_top" xlink:title="全排列">
<polygon fill="white" stroke="black" points="388,-56.5 388,-75.5 489,-75.5 489,-56.5 388,-56.5"/>
<text text-anchor="middle" x="438.5" y="-63.5" font-family="Helvetica,sans-Serif" font-size="10.00">include/Permute.hh</text>
</a>
</g>
</g>
<!-- Node1&#45;&gt;Node6 -->
<g id="edge7" class="edge"><title>Node1&#45;&gt;Node6</title>
<path fill="none" stroke="midnightblue" d="M343.507,-108.368C366.729,-98.2553 398.663,-84.3486 418.944,-75.5164"/>
<polygon fill="midnightblue" stroke="midnightblue" points="341.919,-105.242 334.148,-112.444 344.714,-111.66 341.919,-105.242"/>
</g>
<!-- Node8 -->
<g id="node8" class="node"><title>Node8</title>
<g id="a_node8"><a xlink:href="_rpn_8hh.html" target="_top" xlink:title="后缀表达式类">
<polygon fill="white" stroke="black" points="507,-56.5 507,-75.5 588,-75.5 588,-56.5 507,-56.5"/>
<text text-anchor="middle" x="547.5" y="-63.5" font-family="Helvetica,sans-Serif" font-size="10.00">include/Rpn.hh</text>
</a>
</g>
</g>
<!-- Node1&#45;&gt;Node8 -->
<g id="edge9" class="edge"><title>Node1&#45;&gt;Node8</title>
<path fill="none" stroke="midnightblue" d="M361.303,-110.153C405.327,-99.95 470.347,-84.8809 510.753,-75.5164"/>
<polygon fill="midnightblue" stroke="midnightblue" points="360.371,-106.776 351.42,-112.444 361.952,-113.595 360.371,-106.776"/>
</g>
<!-- Node11 -->
<g id="node11" class="node"><title>Node11</title>
<g id="a_node11"><a xlink:href="ch3__2_8cc.html" target="_top" xlink:title=" ">
<polygon fill="white" stroke="black" points="606,-56.5 606,-75.5 679,-75.5 679,-56.5 606,-56.5"/>
<text text-anchor="middle" x="642.5" y="-63.5" font-family="Helvetica,sans-Serif" font-size="10.00">src/ch3_2.cc</text>
</a>
</g>
</g>
<!-- Node1&#45;&gt;Node11 -->
<g id="edge12" class="edge"><title>Node1&#45;&gt;Node11</title>
<path fill="none" stroke="midnightblue" d="M369.087,-112.977C426.16,-104.436 518.278,-90.215 597.5,-76 600.166,-75.5216 602.918,-75.0115 605.686,-74.4866"/>
<polygon fill="midnightblue" stroke="midnightblue" points="368.57,-109.516 359.196,-114.453 369.603,-116.439 368.57,-109.516"/>
</g>
<!-- Node3 -->
<g id="node3" class="node"><title>Node3</title>
<g id="a_node3"><a xlink:href="ch3__7_8cc.html" target="_top" xlink:title=" ">
<polygon fill="white" stroke="black" points="20,-0.5 20,-19.5 93,-19.5 93,-0.5 20,-0.5"/>
<text text-anchor="middle" x="56.5" y="-7.5" font-family="Helvetica,sans-Serif" font-size="10.00">src/ch3_7.cc</text>
</a>
</g>
</g>
<!-- Node2&#45;&gt;Node3 -->
<g id="edge2" class="edge"><title>Node2&#45;&gt;Node3</title>
<path fill="none" stroke="midnightblue" d="M56.5,-45.8045C56.5,-36.9102 56.5,-26.7798 56.5,-19.7511"/>
<polygon fill="midnightblue" stroke="midnightblue" points="53.0001,-46.083 56.5,-56.083 60.0001,-46.083 53.0001,-46.083"/>
</g>
<!-- Node4&#45;&gt;Node1 -->
<g id="edge4" class="edge"><title>Node4&#45;&gt;Node1</title>
<path fill="none" stroke="midnightblue" d="M221.128,-79.1827C246.668,-89.314 280.021,-103.478 299.307,-112.444"/>
<polygon fill="midnightblue" stroke="midnightblue" points="222.355,-75.9045 211.767,-75.5164 219.802,-82.4224 222.355,-75.9045"/>
</g>
<!-- Node5&#45;&gt;Node1 -->
<g id="edge6" class="edge"><title>Node5&#45;&gt;Node1</title>
<path fill="none" stroke="midnightblue" d="M320.958,-85.6911C321.606,-94.6353 321.176,-104.927 319.666,-112.083"/>
<polygon fill="midnightblue" stroke="midnightblue" points="324.423,-85.2002 319.631,-75.7511 317.485,-86.1262 324.423,-85.2002"/>
</g>
<!-- Node7 -->
<g id="node7" class="node"><title>Node7</title>
<g id="a_node7"><a xlink:href="ch3__3_8cc.html" target="_top" xlink:title=" ">
<polygon fill="white" stroke="black" points="402,-0.5 402,-19.5 475,-19.5 475,-0.5 402,-0.5"/>
<text text-anchor="middle" x="438.5" y="-7.5" font-family="Helvetica,sans-Serif" font-size="10.00">src/ch3_3.cc</text>
</a>
</g>
</g>
<!-- Node6&#45;&gt;Node7 -->
<g id="edge8" class="edge"><title>Node6&#45;&gt;Node7</title>
<path fill="none" stroke="midnightblue" d="M438.5,-45.8045C438.5,-36.9102 438.5,-26.7798 438.5,-19.7511"/>
<polygon fill="midnightblue" stroke="midnightblue" points="435,-46.083 438.5,-56.083 442,-46.083 435,-46.083"/>
</g>
<!-- Node9 -->
<g id="node9" class="node"><title>Node9</title>
<g id="a_node9"><a xlink:href="ch3__4_8cc.html" target="_top" xlink:title=" ">
<polygon fill="white" stroke="black" points="502,-0.5 502,-19.5 575,-19.5 575,-0.5 502,-0.5"/>
<text text-anchor="middle" x="538.5" y="-7.5" font-family="Helvetica,sans-Serif" font-size="10.00">src/ch3_4.cc</text>
</a>
</g>
</g>
<!-- Node8&#45;&gt;Node9 -->
<g id="edge10" class="edge"><title>Node8&#45;&gt;Node9</title>
<path fill="none" stroke="midnightblue" d="M544.35,-46.1005C542.856,-37.1357 541.143,-26.8579 539.959,-19.7511"/>
<polygon fill="midnightblue" stroke="midnightblue" points="540.917,-46.7945 546.014,-56.083 547.822,-45.6436 540.917,-46.7945"/>
</g>
<!-- Node10 -->
<g id="node10" class="node"><title>Node10</title>
<g id="a_node10"><a xlink:href="ch3__5_8cc.html" target="_top" xlink:title=" ">
<polygon fill="white" stroke="black" points="593,-0.5 593,-19.5 666,-19.5 666,-0.5 593,-0.5"/>
<text text-anchor="middle" x="629.5" y="-7.5" font-family="Helvetica,sans-Serif" font-size="10.00">src/ch3_5.cc</text>
</a>
</g>
</g>
<!-- Node8&#45;&gt;Node10 -->
<g id="edge11" class="edge"><title>Node8&#45;&gt;Node10</title>
<path fill="none" stroke="midnightblue" d="M569.333,-50.6221C584.313,-40.7574 603.697,-27.9919 616.358,-19.6545"/>
<polygon fill="midnightblue" stroke="midnightblue" points="567.101,-47.9009 560.675,-56.324 570.951,-53.7471 567.101,-47.9009"/>
</g>
</g>
</svg>
