<?xml version="1.0" encoding="UTF-8" standalone="no"?>
<!DOCTYPE svg PUBLIC "-//W3C//DTD SVG 1.1//EN"
 "http://www.w3.org/Graphics/SVG/1.1/DTD/svg11.dtd">
<!-- Generated by graphviz version 2.38.0 (20140413.2041)
 -->
<!-- Title: ch3_3::permute_stl Pages: 1 -->
<svg width="462pt" height="47pt"
 viewBox="0.00 0.00 462.00 47.00" xmlns="http://www.w3.org/2000/svg" xmlns:xlink="http://www.w3.org/1999/xlink">
<g id="graph0" class="graph" transform="scale(1 1) rotate(0) translate(4 43)">
<title>ch3_3::permute_stl</title>
<polygon fill="white" stroke="none" points="-4,4 -4,-43 458,-43 458,4 -4,4"/>
<!-- Node1 -->
<g id="node1" class="node"><title>Node1</title>
<g id="a_node1"><a xlink:title=" ">
<polygon fill="#bfbfbf" stroke="black" points="0,-0.5 0,-19.5 100,-19.5 100,-0.5 0,-0.5"/>
<text text-anchor="middle" x="50" y="-7.5" font-family="Helvetica,sans-Serif" font-size="10.00">ch3_3::permute_stl</text>
</a>
</g>
</g>
<!-- Node2 -->
<g id="node2" class="node"><title>Node2</title>
<g id="a_node2"><a xlink:href="a04574.html#abbf4d2e48f6886a82d3735dd968b0e2e" target="_top" xlink:title=" ">
<polygon fill="white" stroke="black" points="136,-0.5 136,-19.5 231,-19.5 231,-0.5 136,-0.5"/>
<text text-anchor="middle" x="183.5" y="-7.5" font-family="Helvetica,sans-Serif" font-size="10.00">ch3_3::next_perm</text>
</a>
</g>
</g>
<!-- Node1&#45;&gt;Node2 -->
<g id="edge1" class="edge"><title>Node1&#45;&gt;Node2</title>
<path fill="none" stroke="midnightblue" d="M100.34,-10C108.63,-10 117.291,-10 125.751,-10"/>
<polygon fill="midnightblue" stroke="midnightblue" points="125.93,-13.5001 135.93,-10 125.93,-6.5001 125.93,-13.5001"/>
</g>
<!-- Node3 -->
<g id="node3" class="node"><title>Node3</title>
<g id="a_node3"><a xlink:href="a04574.html#a1f0a8d6a2a47b55f90cd65ea1680973a" target="_top" xlink:title=" ">
<polygon fill="white" stroke="black" points="267,-19.5 267,-38.5 347,-38.5 347,-19.5 267,-19.5"/>
<text text-anchor="middle" x="307" y="-26.5" font-family="Helvetica,sans-Serif" font-size="10.00">ch3_3::reverse</text>
</a>
</g>
</g>
<!-- Node2&#45;&gt;Node3 -->
<g id="edge2" class="edge"><title>Node2&#45;&gt;Node3</title>
<path fill="none" stroke="midnightblue" d="M231.128,-17.2916C239.501,-18.601 248.254,-19.9697 256.7,-21.2905"/>
<polygon fill="midnightblue" stroke="midnightblue" points="256.383,-24.7835 266.804,-22.8706 257.465,-17.8675 256.383,-24.7835"/>
</g>
<!-- Node4 -->
<g id="node4" class="node"><title>Node4</title>
<g id="a_node4"><a xlink:href="a04574.html#a13d462b8e9446c367d8b0fad0fea496e" target="_top" xlink:title=" ">
<polygon fill="white" stroke="black" points="383,-0.5 383,-19.5 454,-19.5 454,-0.5 383,-0.5"/>
<text text-anchor="middle" x="418.5" y="-7.5" font-family="Helvetica,sans-Serif" font-size="10.00">ch3_3::swap</text>
</a>
</g>
</g>
<!-- Node2&#45;&gt;Node4 -->
<g id="edge4" class="edge"><title>Node2&#45;&gt;Node4</title>
<path fill="none" stroke="midnightblue" d="M231.091,-10C272.262,-10 331.917,-10 372.578,-10"/>
<polygon fill="midnightblue" stroke="midnightblue" points="372.741,-13.5001 382.74,-10 372.74,-6.5001 372.741,-13.5001"/>
</g>
<!-- Node3&#45;&gt;Node4 -->
<g id="edge3" class="edge"><title>Node3&#45;&gt;Node4</title>
<path fill="none" stroke="midnightblue" d="M347.223,-22.1942C355.512,-20.7559 364.319,-19.2277 372.794,-17.7573"/>
<polygon fill="midnightblue" stroke="midnightblue" points="373.654,-21.1603 382.909,-16.0021 372.458,-14.2634 373.654,-21.1603"/>
</g>
</g>
</svg>
