<?xml version="1.0" encoding="UTF-8" standalone="no"?>
<!DOCTYPE svg PUBLIC "-//W3C//DTD SVG 1.1//EN"
 "http://www.w3.org/Graphics/SVG/1.1/DTD/svg11.dtd">
<!-- Generated by graphviz version 2.38.0 (20140413.2041)
 -->
<!-- Title: main Pages: 1 -->
<svg width="509pt" height="218pt"
 viewBox="0.00 0.00 509.00 218.00" xmlns="http://www.w3.org/2000/svg" xmlns:xlink="http://www.w3.org/1999/xlink">
<g id="graph0" class="graph" transform="scale(1 1) rotate(0) translate(4 214)">
<title>main</title>
<polygon fill="white" stroke="none" points="-4,4 -4,-214 505,-214 505,4 -4,4"/>
<!-- Node1 -->
<g id="node1" class="node"><title>Node1</title>
<g id="a_node1"><a xlink:title="Ackermann类测试例程">
<polygon fill="#bfbfbf" stroke="black" points="0,-57.5 0,-76.5 38,-76.5 38,-57.5 0,-57.5"/>
<text text-anchor="middle" x="19" y="-64.5" font-family="Helvetica,sans-Serif" font-size="10.00">main</text>
</a>
</g>
</g>
<!-- Node2 -->
<g id="node2" class="node"><title>Node2</title>
<g id="a_node2"><a xlink:href="a05391.html#acce004321aba1561adc7622c3e9f9e72" target="_top" xlink:title="堆栈版本的Ackermann函数">
<polygon fill="white" stroke="black" points="74,-76.5 74,-95.5 169,-95.5 169,-76.5 74,-76.5"/>
<text text-anchor="middle" x="121.5" y="-83.5" font-family="Helvetica,sans-Serif" font-size="10.00">Akm_t::Akm_loop</text>
</a>
</g>
</g>
<!-- Node1&#45;&gt;Node2 -->
<g id="edge1" class="edge"><title>Node1&#45;&gt;Node2</title>
<path fill="none" stroke="midnightblue" d="M38.4332,-70.4849C45.7575,-71.8696 54.6136,-73.5439 63.7616,-75.2733"/>
<polygon fill="midnightblue" stroke="midnightblue" points="63.2677,-78.7419 73.7439,-77.1605 64.5681,-71.8637 63.2677,-78.7419"/>
</g>
<!-- Node11 -->
<g id="node11" class="node"><title>Node11</title>
<g id="a_node11"><a xlink:href="a05391.html#ad6156801029eb664e589ea5013e9bd4a" target="_top" xlink:title="递归版本的Ackermann函数">
<polygon fill="white" stroke="black" points="76.5,-38.5 76.5,-57.5 166.5,-57.5 166.5,-38.5 76.5,-38.5"/>
<text text-anchor="middle" x="121.5" y="-45.5" font-family="Helvetica,sans-Serif" font-size="10.00">Akm_t::Akm_rec</text>
</a>
</g>
</g>
<!-- Node1&#45;&gt;Node11 -->
<g id="edge10" class="edge"><title>Node1&#45;&gt;Node11</title>
<path fill="none" stroke="midnightblue" d="M38.4332,-63.5151C46.4233,-62.0046 56.2365,-60.1493 66.2628,-58.2538"/>
<polygon fill="midnightblue" stroke="midnightblue" points="67.1247,-61.6529 76.3004,-56.3561 65.8243,-54.7748 67.1247,-61.6529"/>
</g>
<!-- Node3 -->
<g id="node3" class="node"><title>Node3</title>
<g id="a_node3"><a xlink:href="a05391.html#a0036aac01f88b4e9c22c43c14970a506" target="_top" xlink:title="Ackermann函数堆栈模拟递归版本">
<polygon fill="white" stroke="black" points="205,-95.5 205,-114.5 327,-114.5 327,-95.5 205,-95.5"/>
<text text-anchor="middle" x="266" y="-102.5" font-family="Helvetica,sans-Serif" font-size="10.00">Akm_t::AckermannLoop</text>
</a>
</g>
</g>
<!-- Node2&#45;&gt;Node3 -->
<g id="edge2" class="edge"><title>Node2&#45;&gt;Node3</title>
<path fill="none" stroke="midnightblue" d="M169.16,-92.2213C177.386,-93.3181 186.11,-94.4814 194.814,-95.6418"/>
<polygon fill="midnightblue" stroke="midnightblue" points="194.615,-99.1462 204.99,-96.9986 195.54,-92.2076 194.615,-99.1462"/>
</g>
<!-- Node10 -->
<g id="node10" class="node"><title>Node10</title>
<g id="a_node10"><a xlink:href="a05391.html#a864a85602360a8d5f10d124b54a1d9ff" target="_top" xlink:title="初始化类内部的静态计数器">
<polygon fill="white" stroke="black" points="224,-57.5 224,-76.5 308,-76.5 308,-57.5 224,-57.5"/>
<text text-anchor="middle" x="266" y="-64.5" font-family="Helvetica,sans-Serif" font-size="10.00">Akm_t::AkmInit</text>
</a>
</g>
</g>
<!-- Node2&#45;&gt;Node10 -->
<g id="edge9" class="edge"><title>Node2&#45;&gt;Node10</title>
<path fill="none" stroke="midnightblue" d="M169.16,-79.7787C183.399,-77.8802 199.131,-75.7825 213.662,-73.845"/>
<polygon fill="midnightblue" stroke="midnightblue" points="214.543,-77.2587 223.992,-72.4677 213.617,-70.3201 214.543,-77.2587"/>
</g>
<!-- Node4 -->
<g id="node4" class="node"><title>Node4</title>
<g id="a_node4"><a xlink:href="a05455.html#aa4bbd748b258a1a9f9d3588ea2ba6a28" target="_top" xlink:title=" ">
<polygon fill="white" stroke="black" points="363,-190.5 363,-209.5 501,-209.5 501,-190.5 363,-190.5"/>
<text text-anchor="middle" x="432" y="-197.5" font-family="Helvetica,sans-Serif" font-size="10.00">Stack::seqStack::elemMem</text>
</a>
</g>
</g>
<!-- Node3&#45;&gt;Node4 -->
<g id="edge3" class="edge"><title>Node3&#45;&gt;Node4</title>
<path fill="none" stroke="midnightblue" d="M276.443,-114.656C292.681,-130.723 327.578,-162.96 363,-181 367.526,-183.305 372.369,-185.362 377.306,-187.19"/>
<polygon fill="midnightblue" stroke="midnightblue" points="376.267,-190.533 386.862,-190.43 378.515,-183.904 376.267,-190.533"/>
</g>
<!-- Node5 -->
<g id="node5" class="node"><title>Node5</title>
<g id="a_node5"><a xlink:href="a05455.html#a35a066a0aedc630474fd3e3dcaa9ced8" target="_top" xlink:title=" ">
<polygon fill="white" stroke="black" points="366.5,-152.5 366.5,-171.5 497.5,-171.5 497.5,-152.5 366.5,-152.5"/>
<text text-anchor="middle" x="432" y="-159.5" font-family="Helvetica,sans-Serif" font-size="10.00">Stack::seqStack::isEmpty</text>
</a>
</g>
</g>
<!-- Node3&#45;&gt;Node5 -->
<g id="edge4" class="edge"><title>Node3&#45;&gt;Node5</title>
<path fill="none" stroke="midnightblue" d="M289.255,-114.576C308.557,-122.696 337.348,-134.365 363,-143 369.869,-145.312 377.192,-147.57 384.393,-149.674"/>
<polygon fill="midnightblue" stroke="midnightblue" points="383.507,-153.061 394.083,-152.441 385.429,-146.33 383.507,-153.061"/>
</g>
<!-- Node6 -->
<g id="node6" class="node"><title>Node6</title>
<g id="a_node6"><a xlink:href="a05455.html#ae76c0c31d160cd1dabd0270172e2c88a" target="_top" xlink:title=" ">
<polygon fill="white" stroke="black" points="376.5,-114.5 376.5,-133.5 487.5,-133.5 487.5,-114.5 376.5,-114.5"/>
<text text-anchor="middle" x="432" y="-121.5" font-family="Helvetica,sans-Serif" font-size="10.00">Stack::seqStack::pop</text>
</a>
</g>
</g>
<!-- Node3&#45;&gt;Node6 -->
<g id="edge5" class="edge"><title>Node3&#45;&gt;Node6</title>
<path fill="none" stroke="midnightblue" d="M327.136,-111.967C339.832,-113.438 353.282,-114.996 366.143,-116.486"/>
<polygon fill="midnightblue" stroke="midnightblue" points="365.969,-119.989 376.305,-117.663 366.774,-113.036 365.969,-119.989"/>
</g>
<!-- Node7 -->
<g id="node7" class="node"><title>Node7</title>
<g id="a_node7"><a xlink:href="a05455.html#aa580900cdf97734ca479fe9f68f1c681" target="_top" xlink:title=" ">
<polygon fill="white" stroke="black" points="374,-76.5 374,-95.5 490,-95.5 490,-76.5 374,-76.5"/>
<text text-anchor="middle" x="432" y="-83.5" font-family="Helvetica,sans-Serif" font-size="10.00">Stack::seqStack::push</text>
</a>
</g>
</g>
<!-- Node3&#45;&gt;Node7 -->
<g id="edge6" class="edge"><title>Node3&#45;&gt;Node7</title>
<path fill="none" stroke="midnightblue" d="M327.136,-98.033C339.063,-96.6512 351.656,-95.1923 363.801,-93.7853"/>
<polygon fill="midnightblue" stroke="midnightblue" points="364.342,-97.2461 373.873,-92.6184 363.536,-90.2926 364.342,-97.2461"/>
</g>
<!-- Node8 -->
<g id="node8" class="node"><title>Node8</title>
<g id="a_node8"><a xlink:href="a05455.html#a91fa28d561e88adc40c3213552c58402" target="_top" xlink:title=" ">
<polygon fill="white" stroke="black" points="375.5,-38.5 375.5,-57.5 488.5,-57.5 488.5,-38.5 375.5,-38.5"/>
<text text-anchor="middle" x="432" y="-45.5" font-family="Helvetica,sans-Serif" font-size="10.00">Stack::seqStack::size</text>
</a>
</g>
</g>
<!-- Node3&#45;&gt;Node8 -->
<g id="edge7" class="edge"><title>Node3&#45;&gt;Node8</title>
<path fill="none" stroke="midnightblue" d="M300.706,-95.491C309.385,-92.7269 318.633,-89.4994 327,-86 343.691,-79.019 346.192,-73.6945 363,-67 368.904,-64.6485 375.205,-62.4702 381.501,-60.4914"/>
<polygon fill="midnightblue" stroke="midnightblue" points="382.755,-63.7696 391.332,-57.5498 380.748,-57.0633 382.755,-63.7696"/>
</g>
<!-- Node9 -->
<g id="node9" class="node"><title>Node9</title>
<g id="a_node9"><a xlink:href="a05455.html#aae3a405f01cc5ba788a111fe15c6f5ed" target="_top" xlink:title=" ">
<polygon fill="white" stroke="black" points="377.5,-0.5 377.5,-19.5 486.5,-19.5 486.5,-0.5 377.5,-0.5"/>
<text text-anchor="middle" x="432" y="-7.5" font-family="Helvetica,sans-Serif" font-size="10.00">Stack::seqStack::top</text>
</a>
</g>
</g>
<!-- Node3&#45;&gt;Node9 -->
<g id="edge8" class="edge"><title>Node3&#45;&gt;Node9</title>
<path fill="none" stroke="midnightblue" d="M310.151,-95.4307C316.158,-92.9631 321.982,-89.8709 327,-86 350.724,-67.6985 338.966,-46.893 363,-29 365.524,-27.1208 368.226,-25.4275 371.044,-23.9016"/>
<polygon fill="midnightblue" stroke="midnightblue" points="372.769,-26.9596 380.367,-19.5756 369.823,-20.6098 372.769,-26.9596"/>
</g>
<!-- Node11&#45;&gt;Node10 -->
<g id="edge12" class="edge"><title>Node11&#45;&gt;Node10</title>
<path fill="none" stroke="midnightblue" d="M166.807,-53.9076C181.544,-55.8725 198.084,-58.0779 213.328,-60.1104"/>
<polygon fill="midnightblue" stroke="midnightblue" points="213.262,-63.6325 223.637,-61.4849 214.187,-56.6939 213.262,-63.6325"/>
</g>
<!-- Node12 -->
<g id="node12" class="node"><title>Node12</title>
<g id="a_node12"><a xlink:href="a05391.html#a51975f6e439a660d39944f6516ce63e8" target="_top" xlink:title="Ackermann函数递归版本">
<polygon fill="white" stroke="black" points="215.5,-19.5 215.5,-38.5 316.5,-38.5 316.5,-19.5 215.5,-19.5"/>
<text text-anchor="middle" x="266" y="-26.5" font-family="Helvetica,sans-Serif" font-size="10.00">Akm_t::Ackermann</text>
</a>
</g>
</g>
<!-- Node11&#45;&gt;Node12 -->
<g id="edge11" class="edge"><title>Node11&#45;&gt;Node12</title>
<path fill="none" stroke="midnightblue" d="M166.807,-42.0924C178.927,-40.4764 192.266,-38.6978 205.102,-36.9864"/>
<polygon fill="midnightblue" stroke="midnightblue" points="205.805,-40.4238 215.254,-35.6328 204.879,-33.4852 205.805,-40.4238"/>
</g>
</g>
</svg>
