<?xml version="1.0" encoding="UTF-8" standalone="no"?>
<!DOCTYPE svg PUBLIC "-//W3C//DTD SVG 1.1//EN"
 "http://www.w3.org/Graphics/SVG/1.1/DTD/svg11.dtd">
<!-- Generated by graphviz version 2.38.0 (20140413.2041)
 -->
<!-- Title: src/ch3_2.cc Pages: 1 -->
<svg width="417pt" height="196pt"
 viewBox="0.00 0.00 417.00 196.00" xmlns="http://www.w3.org/2000/svg" xmlns:xlink="http://www.w3.org/1999/xlink">
<g id="graph0" class="graph" transform="scale(1 1) rotate(0) translate(4 192)">
<title>src/ch3_2.cc</title>
<polygon fill="white" stroke="none" points="-4,4 -4,-192 413,-192 413,4 -4,4"/>
<!-- Node1 -->
<g id="node1" class="node"><title>Node1</title>
<g id="a_node1"><a xlink:title="将十进制非负实数以二进制打印">
<polygon fill="#bfbfbf" stroke="black" points="252,-168.5 252,-187.5 325,-187.5 325,-168.5 252,-168.5"/>
<text text-anchor="middle" x="288.5" y="-175.5" font-family="Helvetica,sans-Serif" font-size="10.00">src/ch3_2.cc</text>
</a>
</g>
</g>
<!-- Node2 -->
<g id="node2" class="node"><title>Node2</title>
<g id="a_node2"><a xlink:href="a04547.html" target="_top" xlink:title="栈的抽象类">
<polygon fill="white" stroke="black" points="159.5,-112.5 159.5,-131.5 215.5,-131.5 215.5,-112.5 159.5,-112.5"/>
<text text-anchor="middle" x="187.5" y="-119.5" font-family="Helvetica,sans-Serif" font-size="10.00">Stack.hh</text>
</a>
</g>
</g>
<!-- Node1&#45;&gt;Node2 -->
<g id="edge1" class="edge"><title>Node1&#45;&gt;Node2</title>
<path fill="none" stroke="midnightblue" d="M272.273,-168.324C256.149,-159.703 231.2,-146.364 212.536,-136.386"/>
<polygon fill="midnightblue" stroke="midnightblue" points="214.156,-133.283 203.687,-131.655 210.856,-139.456 214.156,-133.283"/>
</g>
<!-- Node8 -->
<g id="node8" class="node"><title>Node8</title>
<g id="a_node8"><a xlink:title=" ">
<polygon fill="white" stroke="#bfbfbf" points="233.5,-112.5 233.5,-131.5 277.5,-131.5 277.5,-112.5 233.5,-112.5"/>
<text text-anchor="middle" x="255.5" y="-119.5" font-family="Helvetica,sans-Serif" font-size="10.00">cmath</text>
</a>
</g>
</g>
<!-- Node1&#45;&gt;Node8 -->
<g id="edge9" class="edge"><title>Node1&#45;&gt;Node8</title>
<path fill="none" stroke="midnightblue" d="M283.051,-168.083C278.486,-160.613 271.832,-149.724 266.207,-140.52"/>
<polygon fill="midnightblue" stroke="midnightblue" points="269.049,-138.459 260.848,-131.751 263.076,-142.109 269.049,-138.459"/>
</g>
<!-- Node9 -->
<g id="node9" class="node"><title>Node9</title>
<g id="a_node9"><a xlink:title=" ">
<polygon fill="white" stroke="#bfbfbf" points="295.5,-112.5 295.5,-131.5 349.5,-131.5 349.5,-112.5 295.5,-112.5"/>
<text text-anchor="middle" x="322.5" y="-119.5" font-family="Helvetica,sans-Serif" font-size="10.00">iostream</text>
</a>
</g>
</g>
<!-- Node1&#45;&gt;Node9 -->
<g id="edge10" class="edge"><title>Node1&#45;&gt;Node9</title>
<path fill="none" stroke="midnightblue" d="M294.114,-168.083C298.867,-160.534 305.818,-149.495 311.652,-140.23"/>
<polygon fill="midnightblue" stroke="midnightblue" points="314.624,-142.078 316.99,-131.751 308.7,-138.349 314.624,-142.078"/>
</g>
<!-- Node10 -->
<g id="node10" class="node"><title>Node10</title>
<g id="a_node10"><a xlink:title=" ">
<polygon fill="white" stroke="#bfbfbf" points="368,-112.5 368,-131.5 409,-131.5 409,-112.5 368,-112.5"/>
<text text-anchor="middle" x="388.5" y="-119.5" font-family="Helvetica,sans-Serif" font-size="10.00">string</text>
</a>
</g>
</g>
<!-- Node1&#45;&gt;Node10 -->
<g id="edge11" class="edge"><title>Node1&#45;&gt;Node10</title>
<path fill="none" stroke="midnightblue" d="M304.567,-168.324C320.458,-159.743 345.007,-146.486 363.458,-136.522"/>
<polygon fill="midnightblue" stroke="midnightblue" points="365.337,-139.486 372.473,-131.655 362.011,-133.326 365.337,-139.486"/>
</g>
<!-- Node3 -->
<g id="node3" class="node"><title>Node3</title>
<g id="a_node3"><a xlink:title=" ">
<polygon fill="white" stroke="#bfbfbf" points="0,-56.5 0,-75.5 73,-75.5 73,-56.5 0,-56.5"/>
<text text-anchor="middle" x="36.5" y="-63.5" font-family="Helvetica,sans-Serif" font-size="10.00">initializer_list</text>
</a>
</g>
</g>
<!-- Node2&#45;&gt;Node3 -->
<g id="edge2" class="edge"><title>Node2&#45;&gt;Node3</title>
<path fill="none" stroke="midnightblue" d="M163.574,-112.444C138.281,-103.399 98.1976,-89.064 69.8202,-78.9158"/>
<polygon fill="midnightblue" stroke="midnightblue" points="70.9091,-75.5882 60.3145,-75.5164 68.5519,-82.1794 70.9091,-75.5882"/>
</g>
<!-- Node4 -->
<g id="node4" class="node"><title>Node4</title>
<g id="a_node4"><a xlink:title=" ">
<polygon fill="white" stroke="#bfbfbf" points="91.5,-56.5 91.5,-75.5 131.5,-75.5 131.5,-56.5 91.5,-56.5"/>
<text text-anchor="middle" x="111.5" y="-63.5" font-family="Helvetica,sans-Serif" font-size="10.00">utility</text>
</a>
</g>
</g>
<!-- Node2&#45;&gt;Node4 -->
<g id="edge3" class="edge"><title>Node2&#45;&gt;Node4</title>
<path fill="none" stroke="midnightblue" d="M175.289,-112.324C163.724,-104.107 146.125,-91.6017 132.339,-81.8069"/>
<polygon fill="midnightblue" stroke="midnightblue" points="134.112,-78.7729 123.933,-75.8339 130.057,-84.4791 134.112,-78.7729"/>
</g>
<!-- Node5 -->
<g id="node5" class="node"><title>Node5</title>
<g id="a_node5"><a xlink:href="a04526.html" target="_top" xlink:title="顺序栈类">
<polygon fill="white" stroke="black" points="149.5,-56.5 149.5,-75.5 225.5,-75.5 225.5,-56.5 149.5,-56.5"/>
<text text-anchor="middle" x="187.5" y="-63.5" font-family="Helvetica,sans-Serif" font-size="10.00">linkStack.hpp</text>
</a>
</g>
</g>
<!-- Node2&#45;&gt;Node5 -->
<g id="edge4" class="edge"><title>Node2&#45;&gt;Node5</title>
<path fill="none" stroke="midnightblue" d="M182.334,-112.083C180.824,-104.927 180.394,-94.6353 181.042,-85.6911"/>
<polygon fill="midnightblue" stroke="midnightblue" points="184.515,-86.1262 182.369,-75.7511 177.577,-85.2002 184.515,-86.1262"/>
</g>
<!-- Node6 -->
<g id="node6" class="node"><title>Node6</title>
<g id="a_node6"><a xlink:href="a04541.html" target="_top" xlink:title="顺序栈类的定义和实现">
<polygon fill="white" stroke="black" points="244,-56.5 244,-75.5 321,-75.5 321,-56.5 244,-56.5"/>
<text text-anchor="middle" x="282.5" y="-63.5" font-family="Helvetica,sans-Serif" font-size="10.00">seqStack.hxx</text>
</a>
</g>
</g>
<!-- Node2&#45;&gt;Node6 -->
<g id="edge6" class="edge"><title>Node2&#45;&gt;Node6</title>
<path fill="none" stroke="midnightblue" d="M197.649,-112.324C210.948,-103.703 234.146,-90.3643 253.031,-80.3855"/>
<polygon fill="midnightblue" stroke="midnightblue" points="254.895,-83.3618 262.164,-75.6545 251.675,-77.1461 254.895,-83.3618"/>
</g>
<!-- Node5&#45;&gt;Node2 -->
<g id="edge5" class="edge"><title>Node5&#45;&gt;Node2</title>
<path fill="none" stroke="midnightblue" d="M192.631,-75.7511C194.157,-82.8579 194.604,-93.1357 193.972,-102.101"/>
<polygon fill="midnightblue" stroke="midnightblue" points="190.493,-101.713 192.666,-112.083 197.434,-102.622 190.493,-101.713"/>
</g>
<!-- Node6&#45;&gt;Node2 -->
<g id="edge7" class="edge"><title>Node6&#45;&gt;Node2</title>
<path fill="none" stroke="midnightblue" d="M272.385,-75.6545C259.102,-84.2672 235.908,-97.6052 217.016,-107.59"/>
<polygon fill="midnightblue" stroke="midnightblue" points="215.147,-104.616 207.878,-112.324 218.367,-110.831 215.147,-104.616"/>
</g>
<!-- Node7 -->
<g id="node7" class="node"><title>Node7</title>
<g id="a_node7"><a xlink:title=" ">
<polygon fill="white" stroke="#bfbfbf" points="260,-0.5 260,-19.5 305,-19.5 305,-0.5 260,-0.5"/>
<text text-anchor="middle" x="282.5" y="-7.5" font-family="Helvetica,sans-Serif" font-size="10.00">climits</text>
</a>
</g>
</g>
<!-- Node6&#45;&gt;Node7 -->
<g id="edge8" class="edge"><title>Node6&#45;&gt;Node7</title>
<path fill="none" stroke="midnightblue" d="M282.5,-56.083C282.5,-49.0059 282.5,-38.8611 282.5,-29.9865"/>
<polygon fill="midnightblue" stroke="midnightblue" points="286,-29.751 282.5,-19.7511 279,-29.7511 286,-29.751"/>
</g>
</g>
</svg>
