<?xml version="1.0" encoding="UTF-8" standalone="no"?>
<!DOCTYPE svg PUBLIC "-//W3C//DTD SVG 1.1//EN"
 "http://www.w3.org/Graphics/SVG/1.1/DTD/svg11.dtd">
<!-- Generated by graphviz version 2.38.0 (20140413.2041)
 -->
<!-- Title: ch3_3::next_perm Pages: 1 -->
<svg width="326pt" height="47pt"
 viewBox="0.00 0.00 326.00 47.00" xmlns="http://www.w3.org/2000/svg" xmlns:xlink="http://www.w3.org/1999/xlink">
<g id="graph0" class="graph" transform="scale(1 1) rotate(0) translate(4 43)">
<title>ch3_3::next_perm</title>
<polygon fill="white" stroke="none" points="-4,4 -4,-43 322,-43 322,4 -4,4"/>
<!-- Node1 -->
<g id="node1" class="node"><title>Node1</title>
<g id="a_node1"><a xlink:title=" ">
<polygon fill="#bfbfbf" stroke="black" points="0,-0.5 0,-19.5 95,-19.5 95,-0.5 0,-0.5"/>
<text text-anchor="middle" x="47.5" y="-7.5" font-family="Helvetica,sans-Serif" font-size="10.00">ch3_3::next_perm</text>
</a>
</g>
</g>
<!-- Node2 -->
<g id="node2" class="node"><title>Node2</title>
<g id="a_node2"><a xlink:href="a04574.html#a1f0a8d6a2a47b55f90cd65ea1680973a" target="_top" xlink:title=" ">
<polygon fill="white" stroke="black" points="131,-19.5 131,-38.5 211,-38.5 211,-19.5 131,-19.5"/>
<text text-anchor="middle" x="171" y="-26.5" font-family="Helvetica,sans-Serif" font-size="10.00">ch3_3::reverse</text>
</a>
</g>
</g>
<!-- Node1&#45;&gt;Node2 -->
<g id="edge1" class="edge"><title>Node1&#45;&gt;Node2</title>
<path fill="none" stroke="midnightblue" d="M95.1276,-17.2916C103.501,-18.601 112.254,-19.9697 120.7,-21.2905"/>
<polygon fill="midnightblue" stroke="midnightblue" points="120.383,-24.7835 130.804,-22.8706 121.465,-17.8675 120.383,-24.7835"/>
</g>
<!-- Node3 -->
<g id="node3" class="node"><title>Node3</title>
<g id="a_node3"><a xlink:href="a04574.html#a13d462b8e9446c367d8b0fad0fea496e" target="_top" xlink:title=" ">
<polygon fill="white" stroke="black" points="247,-0.5 247,-19.5 318,-19.5 318,-0.5 247,-0.5"/>
<text text-anchor="middle" x="282.5" y="-7.5" font-family="Helvetica,sans-Serif" font-size="10.00">ch3_3::swap</text>
</a>
</g>
</g>
<!-- Node1&#45;&gt;Node3 -->
<g id="edge3" class="edge"><title>Node1&#45;&gt;Node3</title>
<path fill="none" stroke="midnightblue" d="M95.091,-10C136.262,-10 195.917,-10 236.578,-10"/>
<polygon fill="midnightblue" stroke="midnightblue" points="236.741,-13.5001 246.74,-10 236.74,-6.5001 236.741,-13.5001"/>
</g>
<!-- Node2&#45;&gt;Node3 -->
<g id="edge2" class="edge"><title>Node2&#45;&gt;Node3</title>
<path fill="none" stroke="midnightblue" d="M211.223,-22.1942C219.512,-20.7559 228.319,-19.2277 236.794,-17.7573"/>
<polygon fill="midnightblue" stroke="midnightblue" points="237.654,-21.1603 246.909,-16.0021 236.458,-14.2634 237.654,-21.1603"/>
</g>
</g>
</svg>
