<?xml version="1.0" encoding="UTF-8" standalone="no"?>
<!DOCTYPE svg PUBLIC "-//W3C//DTD SVG 1.1//EN"
 "http://www.w3.org/Graphics/SVG/1.1/DTD/svg11.dtd">
<!-- Generated by graphviz version 2.38.0 (20140413.2041)
 -->
<!-- Title: include/seqStack.hxx Pages: 1 -->
<svg width="559pt" height="196pt"
 viewBox="0.00 0.00 559.00 196.00" xmlns="http://www.w3.org/2000/svg" xmlns:xlink="http://www.w3.org/1999/xlink">
<g id="graph0" class="graph" transform="scale(1 1) rotate(0) translate(4 192)">
<title>include/seqStack.hxx</title>
<polygon fill="white" stroke="none" points="-4,4 -4,-192 555,-192 555,4 -4,4"/>
<!-- Node1 -->
<g id="node1" class="node"><title>Node1</title>
<g id="a_node1"><a xlink:title="顺序栈类的定义和实现">
<polygon fill="#bfbfbf" stroke="black" points="193.5,-168.5 193.5,-187.5 303.5,-187.5 303.5,-168.5 193.5,-168.5"/>
<text text-anchor="middle" x="248.5" y="-175.5" font-family="Helvetica,sans-Serif" font-size="10.00">include/seqStack.hxx</text>
</a>
</g>
</g>
<!-- Node2 -->
<g id="node2" class="node"><title>Node2</title>
<g id="a_node2"><a xlink:href="a04547.html" target="_top" xlink:title="栈的抽象类">
<polygon fill="white" stroke="black" points="204,-112.5 204,-131.5 293,-131.5 293,-112.5 204,-112.5"/>
<text text-anchor="middle" x="248.5" y="-119.5" font-family="Helvetica,sans-Serif" font-size="10.00">include/Stack.hh</text>
</a>
</g>
</g>
<!-- Node1&#45;&gt;Node2 -->
<g id="edge1" class="edge"><title>Node1&#45;&gt;Node2</title>
<path fill="none" stroke="midnightblue" d="M242.028,-158.101C241.396,-149.136 241.843,-138.858 243.369,-131.751"/>
<polygon fill="midnightblue" stroke="midnightblue" points="238.566,-158.622 243.334,-168.083 245.507,-157.713 238.566,-158.622"/>
</g>
<!-- Node2&#45;&gt;Node1 -->
<g id="edge6" class="edge"><title>Node2&#45;&gt;Node1</title>
<path fill="none" stroke="midnightblue" d="M254.958,-141.691C255.606,-150.635 255.176,-160.927 253.666,-168.083"/>
<polygon fill="midnightblue" stroke="midnightblue" points="258.423,-141.2 253.631,-131.751 251.485,-142.126 258.423,-141.2"/>
</g>
<!-- Node3 -->
<g id="node3" class="node"><title>Node3</title>
<g id="a_node3"><a xlink:href="a04520.html" target="_top" xlink:title="Ackermann库">
<polygon fill="white" stroke="black" points="0,-56.5 0,-75.5 113,-75.5 113,-56.5 0,-56.5"/>
<text text-anchor="middle" x="56.5" y="-63.5" font-family="Helvetica,sans-Serif" font-size="10.00">include/Ackermann.hh</text>
</a>
</g>
</g>
<!-- Node2&#45;&gt;Node3 -->
<g id="edge2" class="edge"><title>Node2&#45;&gt;Node3</title>
<path fill="none" stroke="midnightblue" d="M208.317,-109.699C172.081,-99.507 119.586,-84.7429 86.7806,-75.5164"/>
<polygon fill="midnightblue" stroke="midnightblue" points="207.503,-113.105 218.077,-112.444 209.398,-106.367 207.503,-113.105"/>
</g>
<!-- Node5 -->
<g id="node5" class="node"><title>Node5</title>
<g id="a_node5"><a xlink:href="a04526.html" target="_top" xlink:title="顺序栈类">
<polygon fill="white" stroke="black" points="131.5,-56.5 131.5,-75.5 241.5,-75.5 241.5,-56.5 131.5,-56.5"/>
<text text-anchor="middle" x="186.5" y="-63.5" font-family="Helvetica,sans-Serif" font-size="10.00">include/linkStack.hpp</text>
</a>
</g>
</g>
<!-- Node2&#45;&gt;Node5 -->
<g id="edge4" class="edge"><title>Node2&#45;&gt;Node5</title>
<path fill="none" stroke="midnightblue" d="M225.286,-106.101C213.023,-96.3824 199.157,-84.0269 191.494,-75.8339"/>
<polygon fill="midnightblue" stroke="midnightblue" points="223.354,-109.029 233.424,-112.324 227.607,-103.469 223.354,-109.029"/>
</g>
<!-- Node6 -->
<g id="node6" class="node"><title>Node6</title>
<g id="a_node6"><a xlink:href="a04532.html" target="_top" xlink:title="全排列">
<polygon fill="white" stroke="black" points="260,-56.5 260,-75.5 361,-75.5 361,-56.5 260,-56.5"/>
<text text-anchor="middle" x="310.5" y="-63.5" font-family="Helvetica,sans-Serif" font-size="10.00">include/Permute.hh</text>
</a>
</g>
</g>
<!-- Node2&#45;&gt;Node6 -->
<g id="edge7" class="edge"><title>Node2&#45;&gt;Node6</title>
<path fill="none" stroke="midnightblue" d="M266.254,-105.537C277.308,-95.9087 291.131,-83.8694 300.357,-75.8339"/>
<polygon fill="midnightblue" stroke="midnightblue" points="263.703,-103.117 258.461,-112.324 268.301,-108.395 263.703,-103.117"/>
</g>
<!-- Node8 -->
<g id="node8" class="node"><title>Node8</title>
<g id="a_node8"><a xlink:href="a04535.html" target="_top" xlink:title="后缀表达式类">
<polygon fill="white" stroke="black" points="379,-56.5 379,-75.5 460,-75.5 460,-56.5 379,-56.5"/>
<text text-anchor="middle" x="419.5" y="-63.5" font-family="Helvetica,sans-Serif" font-size="10.00">include/Rpn.hh</text>
</a>
</g>
</g>
<!-- Node2&#45;&gt;Node8 -->
<g id="edge9" class="edge"><title>Node2&#45;&gt;Node8</title>
<path fill="none" stroke="midnightblue" d="M285.536,-109.304C317.757,-99.1294 363.689,-84.6246 392.531,-75.5164"/>
<polygon fill="midnightblue" stroke="midnightblue" points="284.077,-106.095 275.595,-112.444 286.185,-112.77 284.077,-106.095"/>
</g>
<!-- Node11 -->
<g id="node11" class="node"><title>Node11</title>
<g id="a_node11"><a xlink:href="a04553.html" target="_top" xlink:title="将十进制非负实数以二进制打印">
<polygon fill="white" stroke="black" points="478,-56.5 478,-75.5 551,-75.5 551,-56.5 478,-56.5"/>
<text text-anchor="middle" x="514.5" y="-63.5" font-family="Helvetica,sans-Serif" font-size="10.00">src/ch3_2.cc</text>
</a>
</g>
</g>
<!-- Node2&#45;&gt;Node11 -->
<g id="edge12" class="edge"><title>Node2&#45;&gt;Node11</title>
<path fill="none" stroke="midnightblue" d="M300.708,-110.401C352.876,-99.8108 431.745,-83.7999 477.688,-74.473"/>
<polygon fill="midnightblue" stroke="midnightblue" points="299.752,-107.024 290.648,-112.444 301.145,-113.884 299.752,-107.024"/>
</g>
<!-- Node4 -->
<g id="node4" class="node"><title>Node4</title>
<g id="a_node4"><a xlink:href="a04565.html" target="_top" xlink:title="Ackerman函数的递归和非递归实现">
<polygon fill="white" stroke="black" points="20,-0.5 20,-19.5 93,-19.5 93,-0.5 20,-0.5"/>
<text text-anchor="middle" x="56.5" y="-7.5" font-family="Helvetica,sans-Serif" font-size="10.00">src/ch3_7.cc</text>
</a>
</g>
</g>
<!-- Node3&#45;&gt;Node4 -->
<g id="edge3" class="edge"><title>Node3&#45;&gt;Node4</title>
<path fill="none" stroke="midnightblue" d="M56.5,-45.8045C56.5,-36.9102 56.5,-26.7798 56.5,-19.7511"/>
<polygon fill="midnightblue" stroke="midnightblue" points="53.0001,-46.083 56.5,-56.083 60.0001,-46.083 53.0001,-46.083"/>
</g>
<!-- Node5&#45;&gt;Node2 -->
<g id="edge5" class="edge"><title>Node5&#45;&gt;Node2</title>
<path fill="none" stroke="midnightblue" d="M209.782,-81.9535C221.987,-91.6307 235.764,-103.905 243.428,-112.083"/>
<polygon fill="midnightblue" stroke="midnightblue" points="211.747,-79.0496 201.679,-75.7511 207.492,-84.6084 211.747,-79.0496"/>
</g>
<!-- Node7 -->
<g id="node7" class="node"><title>Node7</title>
<g id="a_node7"><a xlink:href="a04556.html" target="_top" xlink:title="全排列的递归和非递归实现">
<polygon fill="white" stroke="black" points="274,-0.5 274,-19.5 347,-19.5 347,-0.5 274,-0.5"/>
<text text-anchor="middle" x="310.5" y="-7.5" font-family="Helvetica,sans-Serif" font-size="10.00">src/ch3_3.cc</text>
</a>
</g>
</g>
<!-- Node6&#45;&gt;Node7 -->
<g id="edge8" class="edge"><title>Node6&#45;&gt;Node7</title>
<path fill="none" stroke="midnightblue" d="M310.5,-45.8045C310.5,-36.9102 310.5,-26.7798 310.5,-19.7511"/>
<polygon fill="midnightblue" stroke="midnightblue" points="307,-46.083 310.5,-56.083 314,-46.083 307,-46.083"/>
</g>
<!-- Node9 -->
<g id="node9" class="node"><title>Node9</title>
<g id="a_node9"><a xlink:href="a04559.html" target="_top" xlink:title="中缀表达式转为后缀表达式">
<polygon fill="white" stroke="black" points="374,-0.5 374,-19.5 447,-19.5 447,-0.5 374,-0.5"/>
<text text-anchor="middle" x="410.5" y="-7.5" font-family="Helvetica,sans-Serif" font-size="10.00">src/ch3_4.cc</text>
</a>
</g>
</g>
<!-- Node8&#45;&gt;Node9 -->
<g id="edge10" class="edge"><title>Node8&#45;&gt;Node9</title>
<path fill="none" stroke="midnightblue" d="M416.35,-46.1005C414.856,-37.1357 413.143,-26.8579 411.959,-19.7511"/>
<polygon fill="midnightblue" stroke="midnightblue" points="412.917,-46.7945 418.014,-56.083 419.822,-45.6436 412.917,-46.7945"/>
</g>
<!-- Node10 -->
<g id="node10" class="node"><title>Node10</title>
<g id="a_node10"><a xlink:href="a04562.html" target="_top" xlink:title="后缀表达式的计算">
<polygon fill="white" stroke="black" points="465,-0.5 465,-19.5 538,-19.5 538,-0.5 465,-0.5"/>
<text text-anchor="middle" x="501.5" y="-7.5" font-family="Helvetica,sans-Serif" font-size="10.00">src/ch3_5.cc</text>
</a>
</g>
</g>
<!-- Node8&#45;&gt;Node10 -->
<g id="edge11" class="edge"><title>Node8&#45;&gt;Node10</title>
<path fill="none" stroke="midnightblue" d="M441.333,-50.6221C456.313,-40.7574 475.697,-27.9919 488.358,-19.6545"/>
<polygon fill="midnightblue" stroke="midnightblue" points="439.101,-47.9009 432.675,-56.324 442.951,-53.7471 439.101,-47.9009"/>
</g>
</g>
</svg>
