<?xml version="1.0" encoding="UTF-8" standalone="no"?>
<!DOCTYPE svg PUBLIC "-//W3C//DTD SVG 1.1//EN"
 "http://www.w3.org/Graphics/SVG/1.1/DTD/svg11.dtd">
<!-- Generated by graphviz version 2.38.0 (20140413.2041)
 -->
<!-- Title: include/linkStack.hpp Pages: 1 -->
<svg width="252pt" height="196pt"
 viewBox="0.00 0.00 252.00 196.00" xmlns="http://www.w3.org/2000/svg" xmlns:xlink="http://www.w3.org/1999/xlink">
<g id="graph0" class="graph" transform="scale(1 1) rotate(0) translate(4 192)">
<title>include/linkStack.hpp</title>
<polygon fill="white" stroke="none" points="-4,4 -4,-192 248,-192 248,4 -4,4"/>
<!-- Node1 -->
<g id="node1" class="node"><title>Node1</title>
<g id="a_node1"><a xlink:title="顺序栈类">
<polygon fill="#bfbfbf" stroke="black" points="56.5,-168.5 56.5,-187.5 166.5,-187.5 166.5,-168.5 56.5,-168.5"/>
<text text-anchor="middle" x="111.5" y="-175.5" font-family="Helvetica,sans-Serif" font-size="10.00">include/linkStack.hpp</text>
</a>
</g>
</g>
<!-- Node2 -->
<g id="node2" class="node"><title>Node2</title>
<g id="a_node2"><a xlink:href="a04547.html" target="_top" xlink:title="栈的抽象类">
<polygon fill="white" stroke="black" points="83.5,-112.5 83.5,-131.5 139.5,-131.5 139.5,-112.5 83.5,-112.5"/>
<text text-anchor="middle" x="111.5" y="-119.5" font-family="Helvetica,sans-Serif" font-size="10.00">Stack.hh</text>
</a>
</g>
</g>
<!-- Node1&#45;&gt;Node2 -->
<g id="edge1" class="edge"><title>Node1&#45;&gt;Node2</title>
<path fill="none" stroke="midnightblue" d="M106.334,-168.083C104.824,-160.927 104.394,-150.635 105.042,-141.691"/>
<polygon fill="midnightblue" stroke="midnightblue" points="108.515,-142.126 106.369,-131.751 101.577,-141.2 108.515,-142.126"/>
</g>
<!-- Node2&#45;&gt;Node1 -->
<g id="edge4" class="edge"><title>Node2&#45;&gt;Node1</title>
<path fill="none" stroke="midnightblue" d="M116.631,-131.751C118.157,-138.858 118.604,-149.136 117.972,-158.101"/>
<polygon fill="midnightblue" stroke="midnightblue" points="114.493,-157.713 116.666,-168.083 121.434,-158.622 114.493,-157.713"/>
</g>
<!-- Node3 -->
<g id="node3" class="node"><title>Node3</title>
<g id="a_node3"><a xlink:title=" ">
<polygon fill="white" stroke="#bfbfbf" points="0,-56.5 0,-75.5 73,-75.5 73,-56.5 0,-56.5"/>
<text text-anchor="middle" x="36.5" y="-63.5" font-family="Helvetica,sans-Serif" font-size="10.00">initializer_list</text>
</a>
</g>
</g>
<!-- Node2&#45;&gt;Node3 -->
<g id="edge2" class="edge"><title>Node2&#45;&gt;Node3</title>
<path fill="none" stroke="midnightblue" d="M99.45,-112.324C88.0369,-104.107 70.669,-91.6017 57.0651,-81.8069"/>
<polygon fill="midnightblue" stroke="midnightblue" points="58.9297,-78.8366 48.7693,-75.8339 54.8396,-84.5174 58.9297,-78.8366"/>
</g>
<!-- Node4 -->
<g id="node4" class="node"><title>Node4</title>
<g id="a_node4"><a xlink:title=" ">
<polygon fill="white" stroke="#bfbfbf" points="91.5,-56.5 91.5,-75.5 131.5,-75.5 131.5,-56.5 91.5,-56.5"/>
<text text-anchor="middle" x="111.5" y="-63.5" font-family="Helvetica,sans-Serif" font-size="10.00">utility</text>
</a>
</g>
</g>
<!-- Node2&#45;&gt;Node4 -->
<g id="edge3" class="edge"><title>Node2&#45;&gt;Node4</title>
<path fill="none" stroke="midnightblue" d="M111.5,-112.083C111.5,-105.006 111.5,-94.8611 111.5,-85.9865"/>
<polygon fill="midnightblue" stroke="midnightblue" points="115,-85.751 111.5,-75.7511 108,-85.7511 115,-85.751"/>
</g>
<!-- Node5 -->
<g id="node5" class="node"><title>Node5</title>
<g id="a_node5"><a xlink:href="a04541.html" target="_top" xlink:title=" ">
<polygon fill="white" stroke="black" points="150,-56.5 150,-75.5 227,-75.5 227,-56.5 150,-56.5"/>
<text text-anchor="middle" x="188.5" y="-63.5" font-family="Helvetica,sans-Serif" font-size="10.00">seqStack.hxx</text>
</a>
</g>
</g>
<!-- Node2&#45;&gt;Node5 -->
<g id="edge5" class="edge"><title>Node2&#45;&gt;Node5</title>
<path fill="none" stroke="midnightblue" d="M123.871,-112.324C135.658,-104.058 153.632,-91.4527 167.636,-81.6322"/>
<polygon fill="midnightblue" stroke="midnightblue" points="169.982,-84.2619 176.159,-75.6545 165.962,-78.5307 169.982,-84.2619"/>
</g>
<!-- Node6 -->
<g id="node6" class="node"><title>Node6</title>
<g id="a_node6"><a xlink:title=" ">
<polygon fill="white" stroke="#bfbfbf" points="130.5,-0.5 130.5,-19.5 180.5,-19.5 180.5,-0.5 130.5,-0.5"/>
<text text-anchor="middle" x="155.5" y="-7.5" font-family="Helvetica,sans-Serif" font-size="10.00">Stack.h</text>
</a>
</g>
</g>
<!-- Node5&#45;&gt;Node6 -->
<g id="edge6" class="edge"><title>Node5&#45;&gt;Node6</title>
<path fill="none" stroke="midnightblue" d="M183.051,-56.083C178.486,-48.6127 171.832,-37.7244 166.207,-28.5199"/>
<polygon fill="midnightblue" stroke="midnightblue" points="169.049,-26.4588 160.848,-19.7511 163.076,-30.109 169.049,-26.4588"/>
</g>
<!-- Node7 -->
<g id="node7" class="node"><title>Node7</title>
<g id="a_node7"><a xlink:title=" ">
<polygon fill="white" stroke="#bfbfbf" points="199,-0.5 199,-19.5 244,-19.5 244,-0.5 199,-0.5"/>
<text text-anchor="middle" x="221.5" y="-7.5" font-family="Helvetica,sans-Serif" font-size="10.00">climits</text>
</a>
</g>
</g>
<!-- Node5&#45;&gt;Node7 -->
<g id="edge7" class="edge"><title>Node5&#45;&gt;Node7</title>
<path fill="none" stroke="midnightblue" d="M193.949,-56.083C198.514,-48.6127 205.168,-37.7244 210.793,-28.5199"/>
<polygon fill="midnightblue" stroke="midnightblue" points="213.924,-30.109 216.152,-19.7511 207.951,-26.4588 213.924,-30.109"/>
</g>
</g>
</svg>
