<?xml version="1.0" encoding="UTF-8" standalone="no"?>
<!DOCTYPE svg PUBLIC "-//W3C//DTD SVG 1.1//EN"
 "http://www.w3.org/Graphics/SVG/1.1/DTD/svg11.dtd">
<!-- Generated by graphviz version 2.38.0 (20140413.2041)
 -->
<!-- Title: include/linkStack.hpp Pages: 1 -->
<svg width="235pt" height="196pt"
 viewBox="0.00 0.00 235.00 196.00" xmlns="http://www.w3.org/2000/svg" xmlns:xlink="http://www.w3.org/1999/xlink">
<g id="graph0" class="graph" transform="scale(1 1) rotate(0) translate(4 192)">
<title>include/linkStack.hpp</title>
<polygon fill="white" stroke="none" points="-4,4 -4,-192 231,-192 231,4 -4,4"/>
<!-- Node1 -->
<g id="node1" class="node"><title>Node1</title>
<g id="a_node1"><a xlink:title="顺序栈类">
<polygon fill="#bfbfbf" stroke="black" points="94.5,-168.5 94.5,-187.5 204.5,-187.5 204.5,-168.5 94.5,-168.5"/>
<text text-anchor="middle" x="149.5" y="-175.5" font-family="Helvetica,sans-Serif" font-size="10.00">include/linkStack.hpp</text>
</a>
</g>
</g>
<!-- Node2 -->
<g id="node2" class="node"><title>Node2</title>
<g id="a_node2"><a xlink:href="a04547.html" target="_top" xlink:title="栈的抽象类">
<polygon fill="white" stroke="black" points="121.5,-112.5 121.5,-131.5 177.5,-131.5 177.5,-112.5 121.5,-112.5"/>
<text text-anchor="middle" x="149.5" y="-119.5" font-family="Helvetica,sans-Serif" font-size="10.00">Stack.hh</text>
</a>
</g>
</g>
<!-- Node1&#45;&gt;Node2 -->
<g id="edge1" class="edge"><title>Node1&#45;&gt;Node2</title>
<path fill="none" stroke="midnightblue" d="M144.334,-168.083C142.824,-160.927 142.394,-150.635 143.042,-141.691"/>
<polygon fill="midnightblue" stroke="midnightblue" points="146.515,-142.126 144.369,-131.751 139.577,-141.2 146.515,-142.126"/>
</g>
<!-- Node2&#45;&gt;Node1 -->
<g id="edge4" class="edge"><title>Node2&#45;&gt;Node1</title>
<path fill="none" stroke="midnightblue" d="M154.631,-131.751C156.157,-138.858 156.604,-149.136 155.972,-158.101"/>
<polygon fill="midnightblue" stroke="midnightblue" points="152.493,-157.713 154.666,-168.083 159.434,-158.622 152.493,-157.713"/>
</g>
<!-- Node3 -->
<g id="node3" class="node"><title>Node3</title>
<g id="a_node3"><a xlink:title=" ">
<polygon fill="white" stroke="#bfbfbf" points="0,-56.5 0,-75.5 73,-75.5 73,-56.5 0,-56.5"/>
<text text-anchor="middle" x="36.5" y="-63.5" font-family="Helvetica,sans-Serif" font-size="10.00">initializer_list</text>
</a>
</g>
</g>
<!-- Node2&#45;&gt;Node3 -->
<g id="edge2" class="edge"><title>Node2&#45;&gt;Node3</title>
<path fill="none" stroke="midnightblue" d="M131.595,-112.444C113.246,-103.675 84.4946,-89.9355 63.4064,-79.8579"/>
<polygon fill="midnightblue" stroke="midnightblue" points="64.8532,-76.6703 54.3214,-75.5164 61.835,-82.9862 64.8532,-76.6703"/>
</g>
<!-- Node4 -->
<g id="node4" class="node"><title>Node4</title>
<g id="a_node4"><a xlink:title=" ">
<polygon fill="white" stroke="#bfbfbf" points="91.5,-56.5 91.5,-75.5 131.5,-75.5 131.5,-56.5 91.5,-56.5"/>
<text text-anchor="middle" x="111.5" y="-63.5" font-family="Helvetica,sans-Serif" font-size="10.00">utility</text>
</a>
</g>
</g>
<!-- Node2&#45;&gt;Node4 -->
<g id="edge3" class="edge"><title>Node2&#45;&gt;Node4</title>
<path fill="none" stroke="midnightblue" d="M143.225,-112.083C137.858,-104.455 129.982,-93.2645 123.421,-83.9408"/>
<polygon fill="midnightblue" stroke="midnightblue" points="126.275,-81.9149 117.658,-75.7511 120.551,-85.9434 126.275,-81.9149"/>
</g>
<!-- Node5 -->
<g id="node5" class="node"><title>Node5</title>
<g id="a_node5"><a xlink:href="a04541.html" target="_top" xlink:title="顺序栈类的定义和实现">
<polygon fill="white" stroke="black" points="150,-56.5 150,-75.5 227,-75.5 227,-56.5 150,-56.5"/>
<text text-anchor="middle" x="188.5" y="-63.5" font-family="Helvetica,sans-Serif" font-size="10.00">seqStack.hxx</text>
</a>
</g>
</g>
<!-- Node2&#45;&gt;Node5 -->
<g id="edge5" class="edge"><title>Node2&#45;&gt;Node5</title>
<path fill="none" stroke="midnightblue" d="M150.774,-112.083C154.754,-104.298 162.692,-92.8015 170.418,-83.3665"/>
<polygon fill="midnightblue" stroke="midnightblue" points="173.122,-85.5914 177.049,-75.7511 167.843,-80.9948 173.122,-85.5914"/>
</g>
<!-- Node5&#45;&gt;Node2 -->
<g id="edge6" class="edge"><title>Node5&#45;&gt;Node2</title>
<path fill="none" stroke="midnightblue" d="M187.311,-75.7511C183.387,-83.4827 175.476,-94.9673 167.747,-104.431"/>
<polygon fill="midnightblue" stroke="midnightblue" points="165.018,-102.236 161.106,-112.083 170.304,-106.825 165.018,-102.236"/>
</g>
<!-- Node6 -->
<g id="node6" class="node"><title>Node6</title>
<g id="a_node6"><a xlink:title=" ">
<polygon fill="white" stroke="#bfbfbf" points="166,-0.5 166,-19.5 211,-19.5 211,-0.5 166,-0.5"/>
<text text-anchor="middle" x="188.5" y="-7.5" font-family="Helvetica,sans-Serif" font-size="10.00">climits</text>
</a>
</g>
</g>
<!-- Node5&#45;&gt;Node6 -->
<g id="edge7" class="edge"><title>Node5&#45;&gt;Node6</title>
<path fill="none" stroke="midnightblue" d="M188.5,-56.083C188.5,-49.0059 188.5,-38.8611 188.5,-29.9865"/>
<polygon fill="midnightblue" stroke="midnightblue" points="192,-29.751 188.5,-19.7511 185,-29.7511 192,-29.751"/>
</g>
</g>
</svg>
