<?xml version="1.0" encoding="UTF-8" standalone="no"?>
<!DOCTYPE svg PUBLIC "-//W3C//DTD SVG 1.1//EN"
 "http://www.w3.org/Graphics/SVG/1.1/DTD/svg11.dtd">
<!-- Generated by graphviz version 2.38.0 (20140413.2041)
 -->
<!-- Title: main Pages: 1 -->
<svg width="763pt" height="522pt"
 viewBox="0.00 0.00 763.00 522.00" xmlns="http://www.w3.org/2000/svg" xmlns:xlink="http://www.w3.org/1999/xlink">
<g id="graph0" class="graph" transform="scale(1 1) rotate(0) translate(4 518)">
<title>main</title>
<polygon fill="white" stroke="none" points="-4,4 -4,-518 759,-518 759,4 -4,4"/>
<!-- Node1 -->
<g id="node1" class="node"><title>Node1</title>
<g id="a_node1"><a xlink:title=" ">
<polygon fill="#bfbfbf" stroke="black" points="0,-152.5 0,-171.5 38,-171.5 38,-152.5 0,-152.5"/>
<text text-anchor="middle" x="19" y="-159.5" font-family="Helvetica,sans-Serif" font-size="10.00">main</text>
</a>
</g>
</g>
<!-- Node2 -->
<g id="node2" class="node"><title>Node2</title>
<g id="a_node2"><a xlink:href="a05435.html#a13f84208d6722039432be70b4bffee8c" target="_top" xlink:title="设置Rpn_t类对象的值">
<polygon fill="white" stroke="black" points="76,-304.5 76,-323.5 179,-323.5 179,-304.5 76,-304.5"/>
<text text-anchor="middle" x="127.5" y="-311.5" font-family="Helvetica,sans-Serif" font-size="10.00">RPN::Rpn_t::assign</text>
</a>
</g>
</g>
<!-- Node1&#45;&gt;Node2 -->
<g id="edge1" class="edge"><title>Node1&#45;&gt;Node2</title>
<path fill="none" stroke="midnightblue" d="M26.6621,-171.508C44.0697,-196.353 91.1365,-263.528 113.871,-295.976"/>
<polygon fill="midnightblue" stroke="midnightblue" points="111.236,-298.314 119.84,-304.495 116.969,-294.297 111.236,-298.314"/>
</g>
<!-- Node20 -->
<g id="node20" class="node"><title>Node20</title>
<g id="a_node20"><a xlink:href="a05435.html#a760c2a7b4a404cfe61345e06110c40ff" target="_top" xlink:title="计算(后缀)表达式的值">
<polygon fill="white" stroke="black" points="74,-152.5 74,-171.5 181,-171.5 181,-152.5 74,-152.5"/>
<text text-anchor="middle" x="127.5" y="-159.5" font-family="Helvetica,sans-Serif" font-size="10.00">RPN::Rpn_t::calcVal</text>
</a>
</g>
</g>
<!-- Node1&#45;&gt;Node20 -->
<g id="edge20" class="edge"><title>Node1&#45;&gt;Node20</title>
<path fill="none" stroke="midnightblue" d="M38.0663,-162C45.388,-162 54.3161,-162 63.6512,-162"/>
<polygon fill="midnightblue" stroke="midnightblue" points="63.8838,-165.5 73.8838,-162 63.8837,-158.5 63.8838,-165.5"/>
</g>
<!-- Node26 -->
<g id="node26" class="node"><title>Node26</title>
<g id="a_node26"><a xlink:href="a05435.html#a62b11e5c5e6e89370bd9388f652d4d4e" target="_top" xlink:title="获取后缀形式的string">
<polygon fill="white" stroke="black" points="76,-114.5 76,-133.5 179,-133.5 179,-114.5 76,-114.5"/>
<text text-anchor="middle" x="127.5" y="-121.5" font-family="Helvetica,sans-Serif" font-size="10.00">RPN::Rpn_t::postfix</text>
</a>
</g>
</g>
<!-- Node1&#45;&gt;Node26 -->
<g id="edge28" class="edge"><title>Node1&#45;&gt;Node26</title>
<path fill="none" stroke="midnightblue" d="M38.0663,-155.554C52.1553,-150.527 72.1921,-143.377 89.6317,-137.155"/>
<polygon fill="midnightblue" stroke="midnightblue" points="91.293,-140.278 99.5352,-133.621 88.9406,-133.685 91.293,-140.278"/>
</g>
<!-- Node3 -->
<g id="node3" class="node"><title>Node3</title>
<g id="a_node3"><a xlink:href="a05435.html#a673867029e31811b1c70d28fe360b715" target="_top" xlink:title="用string中的表达式创建一个list">
<polygon fill="white" stroke="black" points="233,-342.5 233,-361.5 365,-361.5 365,-342.5 233,-342.5"/>
<text text-anchor="middle" x="299" y="-349.5" font-family="Helvetica,sans-Serif" font-size="10.00">RPN::Rpn_t::exprStrToList</text>
</a>
</g>
</g>
<!-- Node2&#45;&gt;Node3 -->
<g id="edge2" class="edge"><title>Node2&#45;&gt;Node3</title>
<path fill="none" stroke="midnightblue" d="M171.272,-323.589C193.841,-328.649 221.723,-334.9 245.583,-340.249"/>
<polygon fill="midnightblue" stroke="midnightblue" points="245.012,-343.708 255.536,-342.48 246.543,-336.877 245.012,-343.708"/>
</g>
<!-- Node5 -->
<g id="node5" class="node"><title>Node5</title>
<g id="a_node5"><a xlink:href="a05435.html#a8dd551d02431c034e10f256ff384c39f" target="_top" xlink:title="用一个中缀list创建一个后缀list">
<polygon fill="white" stroke="black" points="217,-266.5 217,-285.5 381,-285.5 381,-266.5 217,-266.5"/>
<text text-anchor="middle" x="299" y="-273.5" font-family="Helvetica,sans-Serif" font-size="10.00">RPN::Rpn_t::infixListToPostfixList</text>
</a>
</g>
</g>
<!-- Node2&#45;&gt;Node5 -->
<g id="edge4" class="edge"><title>Node2&#45;&gt;Node5</title>
<path fill="none" stroke="midnightblue" d="M171.272,-304.411C193.841,-299.351 221.723,-293.1 245.583,-287.751"/>
<polygon fill="midnightblue" stroke="midnightblue" points="246.543,-291.123 255.536,-285.52 245.012,-284.292 246.543,-291.123"/>
</g>
<!-- Node18 -->
<g id="node18" class="node"><title>Node18</title>
<g id="a_node18"><a xlink:href="a05435.html#a8bf0b803ffe55b4ecdf5d99d05b5897f" target="_top" xlink:title="获取表示itemList的string">
<polygon fill="white" stroke="black" points="233,-456.5 233,-475.5 365,-475.5 365,-456.5 233,-456.5"/>
<text text-anchor="middle" x="299" y="-463.5" font-family="Helvetica,sans-Serif" font-size="10.00">RPN::Rpn_t::itemListToStr</text>
</a>
</g>
</g>
<!-- Node2&#45;&gt;Node18 -->
<g id="edge18" class="edge"><title>Node2&#45;&gt;Node18</title>
<path fill="none" stroke="midnightblue" d="M139.103,-323.508C167.284,-348.779 244.303,-417.847 279.729,-449.616"/>
<polygon fill="midnightblue" stroke="midnightblue" points="277.619,-452.425 287.401,-456.495 282.293,-447.213 277.619,-452.425"/>
</g>
<!-- Node4 -->
<g id="node4" class="node"><title>Node4</title>
<g id="a_node4"><a xlink:href="a05435.html#afd8fb64bcf5a70cbe919497eea4e209a" target="_top" xlink:title="Rpn类的工具函数">
<polygon fill="white" stroke="black" points="442.5,-456.5 442.5,-475.5 549.5,-475.5 549.5,-456.5 442.5,-456.5"/>
<text text-anchor="middle" x="496" y="-463.5" font-family="Helvetica,sans-Serif" font-size="10.00">RPN::Rpn_t::stoItem</text>
</a>
</g>
</g>
<!-- Node3&#45;&gt;Node4 -->
<g id="edge3" class="edge"><title>Node3&#45;&gt;Node4</title>
<path fill="none" stroke="midnightblue" d="M308.978,-361.749C327.332,-381.075 371.292,-424.328 417,-447 421.916,-449.439 427.166,-451.577 432.529,-453.449"/>
<polygon fill="midnightblue" stroke="midnightblue" points="431.669,-456.848 442.259,-456.539 433.788,-450.176 431.669,-456.848"/>
</g>
<!-- Node6 -->
<g id="node6" class="node"><title>Node6</title>
<g id="a_node6"><a xlink:href="a05395.html#affb0e531ea57721ecd9b6dde83d2ebf0" target="_top" xlink:title=" ">
<polygon fill="white" stroke="black" points="442.5,-266.5 442.5,-285.5 549.5,-285.5 549.5,-266.5 442.5,-266.5"/>
<text text-anchor="middle" x="496" y="-273.5" font-family="Helvetica,sans-Serif" font-size="10.00">List::dLinkList::begin</text>
</a>
</g>
</g>
<!-- Node5&#45;&gt;Node6 -->
<g id="edge5" class="edge"><title>Node5&#45;&gt;Node6</title>
<path fill="none" stroke="midnightblue" d="M381.003,-276C397.999,-276 415.684,-276 431.91,-276"/>
<polygon fill="midnightblue" stroke="midnightblue" points="432.341,-279.5 442.341,-276 432.341,-272.5 432.341,-279.5"/>
</g>
<!-- Node7 -->
<g id="node7" class="node"><title>Node7</title>
<g id="a_node7"><a xlink:href="a05395.html#ae8e62a19d3afc64b6fdb9b36d52a9a46" target="_top" xlink:title=" ">
<polygon fill="white" stroke="black" points="446.5,-228.5 446.5,-247.5 545.5,-247.5 545.5,-228.5 446.5,-228.5"/>
<text text-anchor="middle" x="496" y="-235.5" font-family="Helvetica,sans-Serif" font-size="10.00">List::dLinkList::end</text>
</a>
</g>
</g>
<!-- Node5&#45;&gt;Node7 -->
<g id="edge6" class="edge"><title>Node5&#45;&gt;Node7</title>
<path fill="none" stroke="midnightblue" d="M348.955,-266.46C375.481,-261.291 408.444,-254.867 436.337,-249.432"/>
<polygon fill="midnightblue" stroke="midnightblue" points="437.217,-252.826 446.363,-247.478 435.878,-245.955 437.217,-252.826"/>
</g>
<!-- Node8 -->
<g id="node8" class="node"><title>Node8</title>
<g id="a_node8"><a xlink:href="a05439.html#a108cf06868968311383cf866288db1e1" target="_top" xlink:title="Item内嵌类的工具函数">
<polygon fill="white" stroke="black" points="417,-190.5 417,-209.5 575,-209.5 575,-190.5 417,-190.5"/>
<text text-anchor="middle" x="496" y="-197.5" font-family="Helvetica,sans-Serif" font-size="10.00">RPN::Rpn_t::Item::hasLoPriThan</text>
</a>
</g>
</g>
<!-- Node5&#45;&gt;Node8 -->
<g id="edge7" class="edge"><title>Node5&#45;&gt;Node8</title>
<path fill="none" stroke="midnightblue" d="M316.939,-266.307C339.257,-253.877 380.017,-232.338 417,-219 424.02,-216.468 431.515,-214.165 438.979,-212.104"/>
<polygon fill="midnightblue" stroke="midnightblue" points="439.952,-215.467 448.732,-209.537 438.171,-208.698 439.952,-215.467"/>
</g>
<!-- Node9 -->
<g id="node9" class="node"><title>Node9</title>
<g id="a_node9"><a xlink:href="a05439.html#a781e416a993decb9ee170f4b716952f9" target="_top" xlink:title="获取优先级.">
<polygon fill="white" stroke="black" points="619,-171.5 619,-190.5 747,-190.5 747,-171.5 619,-171.5"/>
<text text-anchor="middle" x="683" y="-178.5" font-family="Helvetica,sans-Serif" font-size="10.00">RPN::Rpn_t::Item::priority</text>
</a>
</g>
</g>
<!-- Node5&#45;&gt;Node9 -->
<g id="edge14" class="edge"><title>Node5&#45;&gt;Node9</title>
<path fill="none" stroke="midnightblue" d="M315.599,-266.352C332.424,-255.648 359.666,-237.442 381,-219 398.6,-203.786 395.629,-190.192 417,-181 486.627,-151.051 576.386,-159.649 631.531,-169.584"/>
<polygon fill="midnightblue" stroke="midnightblue" points="630.937,-173.033 641.412,-171.445 632.233,-166.154 630.937,-173.033"/>
</g>
<!-- Node10 -->
<g id="node10" class="node"><title>Node10</title>
<g id="a_node10"><a xlink:href="a05439.html#aba8239b34b7b75b7d0c5e9e8c781ee19" target="_top" xlink:title="是NAO?">
<polygon fill="white" stroke="black" points="432,-76.5 432,-95.5 560,-95.5 560,-76.5 432,-76.5"/>
<text text-anchor="middle" x="496" y="-83.5" font-family="Helvetica,sans-Serif" font-size="10.00">RPN::Rpn_t::Item::isNAO</text>
</a>
</g>
</g>
<!-- Node5&#45;&gt;Node10 -->
<g id="edge9" class="edge"><title>Node5&#45;&gt;Node10</title>
<path fill="none" stroke="midnightblue" d="M320.526,-266.428C338.886,-256.868 365.26,-240.509 381,-219 412.377,-176.121 378.193,-141.292 417,-105 418.915,-103.209 420.97,-101.579 423.134,-100.095"/>
<polygon fill="midnightblue" stroke="midnightblue" points="424.997,-103.061 431.954,-95.0702 421.532,-96.9793 424.997,-103.061"/>
</g>
<!-- Node12 -->
<g id="node12" class="node"><title>Node12</title>
<g id="a_node12"><a xlink:href="a05439.html#ab22913295d9ad6d4cd8ba84105eb13f3" target="_top" xlink:title="获得一个NAO(非法操作符)">
<polygon fill="white" stroke="black" points="438.5,-114.5 438.5,-133.5 553.5,-133.5 553.5,-114.5 438.5,-114.5"/>
<text text-anchor="middle" x="496" y="-121.5" font-family="Helvetica,sans-Serif" font-size="10.00">RPN::Rpn_t::Item::nao</text>
</a>
</g>
</g>
<!-- Node5&#45;&gt;Node12 -->
<g id="edge11" class="edge"><title>Node5&#45;&gt;Node12</title>
<path fill="none" stroke="midnightblue" d="M318.706,-266.367C336.533,-256.441 363.22,-239.543 381,-219 404.154,-192.248 389.94,-170.793 417,-148 421.907,-143.867 427.518,-140.445 433.431,-137.612"/>
<polygon fill="midnightblue" stroke="midnightblue" points="435.05,-140.728 442.914,-133.628 432.339,-134.275 435.05,-140.728"/>
</g>
<!-- Node14 -->
<g id="node14" class="node"><title>Node14</title>
<g id="a_node14"><a xlink:href="a05411.html#a79e4a90c4530c70eaea1d37c139fc620" target="_top" xlink:title=" ">
<polygon fill="white" stroke="black" points="441,-418.5 441,-437.5 551,-437.5 551,-418.5 441,-418.5"/>
<text text-anchor="middle" x="496" y="-425.5" font-family="Helvetica,sans-Serif" font-size="10.00">Stack::linkStack::pop</text>
</a>
</g>
</g>
<!-- Node5&#45;&gt;Node14 -->
<g id="edge13" class="edge"><title>Node5&#45;&gt;Node14</title>
<path fill="none" stroke="midnightblue" d="M318.828,-285.528C336.745,-295.378 363.498,-312.22 381,-333 405.078,-361.587 388.024,-385.392 417,-409 421.322,-412.521 426.198,-415.406 431.349,-417.768"/>
<polygon fill="midnightblue" stroke="midnightblue" points="430.269,-421.103 440.857,-421.477 432.813,-414.582 430.269,-421.103"/>
</g>
<!-- Node15 -->
<g id="node15" class="node"><title>Node15</title>
<g id="a_node15"><a xlink:href="a05411.html#a3425bfbff5c6945af2dd9683405a0e0b" target="_top" xlink:title=" ">
<polygon fill="white" stroke="black" points="438,-380.5 438,-399.5 554,-399.5 554,-380.5 438,-380.5"/>
<text text-anchor="middle" x="496" y="-387.5" font-family="Helvetica,sans-Serif" font-size="10.00">Stack::linkStack::push</text>
</a>
</g>
</g>
<!-- Node5&#45;&gt;Node15 -->
<g id="edge15" class="edge"><title>Node5&#45;&gt;Node15</title>
<path fill="none" stroke="midnightblue" d="M315.599,-285.648C332.424,-296.352 359.666,-314.558 381,-333 398.6,-348.214 396.877,-359.326 417,-371 420.73,-373.164 424.697,-375.082 428.79,-376.782"/>
<polygon fill="midnightblue" stroke="midnightblue" points="427.923,-380.193 438.517,-380.368 430.345,-373.625 427.923,-380.193"/>
</g>
<!-- Node16 -->
<g id="node16" class="node"><title>Node16</title>
<g id="a_node16"><a xlink:href="a05395.html#a6cfc6d4245a507047fe729057227e0ad" target="_top" xlink:title=" ">
<polygon fill="white" stroke="black" points="430.5,-342.5 430.5,-361.5 561.5,-361.5 561.5,-342.5 430.5,-342.5"/>
<text text-anchor="middle" x="496" y="-349.5" font-family="Helvetica,sans-Serif" font-size="10.00">List::dLinkList::push_back</text>
</a>
</g>
</g>
<!-- Node5&#45;&gt;Node16 -->
<g id="edge16" class="edge"><title>Node5&#45;&gt;Node16</title>
<path fill="none" stroke="midnightblue" d="M316.939,-285.693C339.257,-298.123 380.017,-319.662 417,-333 424.02,-335.532 431.515,-337.835 438.979,-339.896"/>
<polygon fill="midnightblue" stroke="midnightblue" points="438.171,-343.302 448.732,-342.463 439.952,-336.533 438.171,-343.302"/>
</g>
<!-- Node17 -->
<g id="node17" class="node"><title>Node17</title>
<g id="a_node17"><a xlink:href="a05411.html#a5c7f1f07843fa15b71a1033ca309fa2e" target="_top" xlink:title=" ">
<polygon fill="white" stroke="black" points="442,-304.5 442,-323.5 550,-323.5 550,-304.5 442,-304.5"/>
<text text-anchor="middle" x="496" y="-311.5" font-family="Helvetica,sans-Serif" font-size="10.00">Stack::linkStack::top</text>
</a>
</g>
</g>
<!-- Node5&#45;&gt;Node17 -->
<g id="edge17" class="edge"><title>Node5&#45;&gt;Node17</title>
<path fill="none" stroke="midnightblue" d="M348.955,-285.54C375.381,-290.69 408.194,-297.084 436.02,-302.506"/>
<polygon fill="midnightblue" stroke="midnightblue" points="435.54,-305.979 446.025,-304.456 436.879,-299.108 435.54,-305.979"/>
</g>
<!-- Node8&#45;&gt;Node9 -->
<g id="edge8" class="edge"><title>Node8&#45;&gt;Node9</title>
<path fill="none" stroke="midnightblue" d="M575.189,-191.97C586.363,-190.822 597.823,-189.645 608.894,-188.508"/>
<polygon fill="midnightblue" stroke="midnightblue" points="609.344,-191.981 618.934,-187.477 608.628,-185.017 609.344,-191.981"/>
</g>
<!-- Node11 -->
<g id="node11" class="node"><title>Node11</title>
<g id="a_node11"><a xlink:href="a05439.html#a4a108f7cc08c900fbfbd69e4a2c43c2b" target="_top" xlink:title="是操作符">
<polygon fill="white" stroke="black" points="611,-57.5 611,-76.5 755,-76.5 755,-57.5 611,-57.5"/>
<text text-anchor="middle" x="683" y="-64.5" font-family="Helvetica,sans-Serif" font-size="10.00">RPN::Rpn_t::Item::isOperator</text>
</a>
</g>
</g>
<!-- Node10&#45;&gt;Node11 -->
<g id="edge10" class="edge"><title>Node10&#45;&gt;Node11</title>
<path fill="none" stroke="midnightblue" d="M560.149,-79.5144C573.161,-78.178 587.038,-76.7528 600.593,-75.3608"/>
<polygon fill="midnightblue" stroke="midnightblue" points="601.285,-78.8081 610.875,-74.3047 600.57,-71.8448 601.285,-78.8081"/>
</g>
<!-- Node13 -->
<g id="node13" class="node"><title>Node13</title>
<g id="a_node13"><a xlink:href="a05439.html#a6f69830ca198b197719c4fc841745c46" target="_top" xlink:title="Construct a new Item object.">
<polygon fill="white" stroke="black" points="624,-114.5 624,-133.5 742,-133.5 742,-114.5 624,-114.5"/>
<text text-anchor="middle" x="683" y="-121.5" font-family="Helvetica,sans-Serif" font-size="10.00">RPN::Rpn_t::Item::Item</text>
</a>
</g>
</g>
<!-- Node12&#45;&gt;Node13 -->
<g id="edge12" class="edge"><title>Node12&#45;&gt;Node13</title>
<path fill="none" stroke="midnightblue" d="M553.511,-124C572.514,-124 593.916,-124 613.725,-124"/>
<polygon fill="midnightblue" stroke="midnightblue" points="613.917,-127.5 623.917,-124 613.917,-120.5 613.917,-127.5"/>
</g>
<!-- Node19 -->
<g id="node19" class="node"><title>Node19</title>
<g id="a_node19"><a xlink:href="a05435.html#a7db7b05c3ce06c9b98cf957498aba17b" target="_top" xlink:title="获取表示项(操作符/操作数)的string">
<polygon fill="white" stroke="black" points="438,-494.5 438,-513.5 554,-513.5 554,-494.5 438,-494.5"/>
<text text-anchor="middle" x="496" y="-501.5" font-family="Helvetica,sans-Serif" font-size="10.00">RPN::Rpn_t::itemToStr</text>
</a>
</g>
</g>
<!-- Node18&#45;&gt;Node19 -->
<g id="edge19" class="edge"><title>Node18&#45;&gt;Node19</title>
<path fill="none" stroke="midnightblue" d="M348.955,-475.54C375.381,-480.69 408.194,-487.084 436.02,-492.506"/>
<polygon fill="midnightblue" stroke="midnightblue" points="435.54,-495.979 446.025,-494.456 436.879,-489.108 435.54,-495.979"/>
</g>
<!-- Node21 -->
<g id="node21" class="node"><title>Node21</title>
<g id="a_node21"><a xlink:href="a05439.html#acc416b0c2ea4a909b71732a5bfa5f401" target="_top" xlink:title="执行一次运算.">
<polygon fill="white" stroke="black" points="235,-57.5 235,-76.5 363,-76.5 363,-57.5 235,-57.5"/>
<text text-anchor="middle" x="299" y="-64.5" font-family="Helvetica,sans-Serif" font-size="10.00">RPN::Rpn_t::Item::excOp</text>
</a>
</g>
</g>
<!-- Node20&#45;&gt;Node21 -->
<g id="edge21" class="edge"><title>Node20&#45;&gt;Node21</title>
<path fill="none" stroke="midnightblue" d="M162.105,-152.481C168.641,-149.911 175.243,-146.771 181,-143 200.462,-130.254 198.141,-118.622 217,-105 230.738,-95.0771 247.478,-86.7102 262.166,-80.3753"/>
<polygon fill="midnightblue" stroke="midnightblue" points="263.578,-83.5788 271.47,-76.5098 260.893,-77.1145 263.578,-83.5788"/>
</g>
<!-- Node23 -->
<g id="node23" class="node"><title>Node23</title>
<g id="a_node23"><a xlink:href="a05455.html#a35a066a0aedc630474fd3e3dcaa9ced8" target="_top" xlink:title=" ">
<polygon fill="white" stroke="black" points="233.5,-190.5 233.5,-209.5 364.5,-209.5 364.5,-190.5 233.5,-190.5"/>
<text text-anchor="middle" x="299" y="-197.5" font-family="Helvetica,sans-Serif" font-size="10.00">Stack::seqStack::isEmpty</text>
</a>
</g>
</g>
<!-- Node20&#45;&gt;Node23 -->
<g id="edge25" class="edge"><title>Node20&#45;&gt;Node23</title>
<path fill="none" stroke="midnightblue" d="M171.272,-171.589C193.841,-176.649 221.723,-182.9 245.583,-188.249"/>
<polygon fill="midnightblue" stroke="midnightblue" points="245.012,-191.708 255.536,-190.48 246.543,-184.877 245.012,-191.708"/>
</g>
<!-- Node24 -->
<g id="node24" class="node"><title>Node24</title>
<g id="a_node24"><a xlink:href="a05455.html#ae76c0c31d160cd1dabd0270172e2c88a" target="_top" xlink:title=" ">
<polygon fill="white" stroke="black" points="243.5,-152.5 243.5,-171.5 354.5,-171.5 354.5,-152.5 243.5,-152.5"/>
<text text-anchor="middle" x="299" y="-159.5" font-family="Helvetica,sans-Serif" font-size="10.00">Stack::seqStack::pop</text>
</a>
</g>
</g>
<!-- Node20&#45;&gt;Node24 -->
<g id="edge26" class="edge"><title>Node20&#45;&gt;Node24</title>
<path fill="none" stroke="midnightblue" d="M181.202,-162C197.539,-162 215.739,-162 232.818,-162"/>
<polygon fill="midnightblue" stroke="midnightblue" points="233.281,-165.5 243.281,-162 233.281,-158.5 233.281,-165.5"/>
</g>
<!-- Node25 -->
<g id="node25" class="node"><title>Node25</title>
<g id="a_node25"><a xlink:href="a05455.html#aa580900cdf97734ca479fe9f68f1c681" target="_top" xlink:title=" ">
<polygon fill="white" stroke="black" points="241,-114.5 241,-133.5 357,-133.5 357,-114.5 241,-114.5"/>
<text text-anchor="middle" x="299" y="-121.5" font-family="Helvetica,sans-Serif" font-size="10.00">Stack::seqStack::push</text>
</a>
</g>
</g>
<!-- Node20&#45;&gt;Node25 -->
<g id="edge27" class="edge"><title>Node20&#45;&gt;Node25</title>
<path fill="none" stroke="midnightblue" d="M171.272,-152.411C193.841,-147.351 221.723,-141.1 245.583,-135.751"/>
<polygon fill="midnightblue" stroke="midnightblue" points="246.543,-139.123 255.536,-133.52 245.012,-132.292 246.543,-139.123"/>
</g>
<!-- Node21&#45;&gt;Node10 -->
<g id="edge22" class="edge"><title>Node21&#45;&gt;Node10</title>
<path fill="none" stroke="midnightblue" d="M363.042,-73.1425C381.803,-74.9706 402.519,-76.989 421.866,-78.8742"/>
<polygon fill="midnightblue" stroke="midnightblue" points="421.549,-82.3598 431.842,-79.8461 422.228,-75.3927 421.549,-82.3598"/>
</g>
<!-- Node21&#45;&gt;Node11 -->
<g id="edge24" class="edge"><title>Node21&#45;&gt;Node11</title>
<path fill="none" stroke="midnightblue" d="M363.08,-67C428.016,-67 529.46,-67 600.453,-67"/>
<polygon fill="midnightblue" stroke="midnightblue" points="600.698,-70.5001 610.698,-67 600.698,-63.5001 600.698,-70.5001"/>
</g>
<!-- Node22 -->
<g id="node22" class="node"><title>Node22</title>
<g id="a_node22"><a xlink:href="a05439.html#ac7e91de809cf7ec85bd1a5e1ef016861" target="_top" xlink:title="是操作数">
<polygon fill="white" stroke="black" points="424.5,-0.5 424.5,-19.5 567.5,-19.5 567.5,-0.5 424.5,-0.5"/>
<text text-anchor="middle" x="496" y="-7.5" font-family="Helvetica,sans-Serif" font-size="10.00">RPN::Rpn_t::Item::isOperand</text>
</a>
</g>
</g>
<!-- Node21&#45;&gt;Node22 -->
<g id="edge23" class="edge"><title>Node21&#45;&gt;Node22</title>
<path fill="none" stroke="midnightblue" d="M332.639,-57.4595C365.541,-47.8418 416.479,-32.9523 452.514,-22.419"/>
<polygon fill="midnightblue" stroke="midnightblue" points="453.639,-25.7368 462.255,-19.5716 451.675,-19.018 453.639,-25.7368"/>
</g>
</g>
</svg>
