<?xml version="1.0" encoding="UTF-8" standalone="no"?>
<!DOCTYPE svg PUBLIC "-//W3C//DTD SVG 1.1//EN"
 "http://www.w3.org/Graphics/SVG/1.1/DTD/svg11.dtd">
<!-- Generated by graphviz version 2.38.0 (20140413.2041)
 -->
<!-- Title: include/List.h Pages: 1 -->
<svg width="235pt" height="140pt"
 viewBox="0.00 0.00 234.50 140.00" xmlns="http://www.w3.org/2000/svg" xmlns:xlink="http://www.w3.org/1999/xlink">
<g id="graph0" class="graph" transform="scale(1 1) rotate(0) translate(4 136)">
<title>include/List.h</title>
<polygon fill="white" stroke="none" points="-4,4 -4,-136 230.5,-136 230.5,4 -4,4"/>
<!-- Node1 -->
<g id="node1" class="node"><title>Node1</title>
<g id="a_node1"><a xlink:title="栈的抽象类">
<polygon fill="#bfbfbf" stroke="black" points="73,-112.5 73,-131.5 147,-131.5 147,-112.5 73,-112.5"/>
<text text-anchor="middle" x="110" y="-119.5" font-family="Helvetica,sans-Serif" font-size="10.00">include/List.h</text>
</a>
</g>
</g>
<!-- Node2 -->
<g id="node2" class="node"><title>Node2</title>
<g id="a_node2"><a xlink:href="a04523.html" target="_top" xlink:title="双链表类">
<polygon fill="white" stroke="black" points="0,-56.5 0,-75.5 64,-75.5 64,-56.5 0,-56.5"/>
<text text-anchor="middle" x="32" y="-63.5" font-family="Helvetica,sans-Serif" font-size="10.00">dLinkList.h</text>
</a>
</g>
</g>
<!-- Node1&#45;&gt;Node2 -->
<g id="edge1" class="edge"><title>Node1&#45;&gt;Node2</title>
<path fill="none" stroke="midnightblue" d="M92.3531,-112.324C78.8344,-104.185 60.6644,-91.8395 47.6645,-82.0874"/>
<polygon fill="midnightblue" stroke="midnightblue" points="49.6563,-79.2028 39.6114,-75.8339 45.363,-84.7316 49.6563,-79.2028"/>
</g>
<!-- Node5 -->
<g id="node5" class="node"><title>Node5</title>
<g id="a_node5"><a xlink:href="a04544.html" target="_top" xlink:title="单链表类的定义和实现">
<polygon fill="white" stroke="black" points="156,-56.5 156,-75.5 220,-75.5 220,-56.5 156,-56.5"/>
<text text-anchor="middle" x="188" y="-63.5" font-family="Helvetica,sans-Serif" font-size="10.00">sLinkList.h</text>
</a>
</g>
</g>
<!-- Node1&#45;&gt;Node5 -->
<g id="edge5" class="edge"><title>Node1&#45;&gt;Node5</title>
<path fill="none" stroke="midnightblue" d="M117.417,-112.324C127.761,-103.9 146.139,-90.9709 161.661,-81.0741"/>
<polygon fill="midnightblue" stroke="midnightblue" points="163.74,-83.9034 170.389,-75.6545 160.047,-77.9567 163.74,-83.9034"/>
</g>
<!-- Node7 -->
<g id="node7" class="node"><title>Node7</title>
<g id="a_node7"><a xlink:href="a04538.html" target="_top" xlink:title="顺序表类">
<polygon fill="white" stroke="black" points="82,-56.5 82,-75.5 138,-75.5 138,-56.5 82,-56.5"/>
<text text-anchor="middle" x="110" y="-63.5" font-family="Helvetica,sans-Serif" font-size="10.00">seqList.h</text>
</a>
</g>
</g>
<!-- Node1&#45;&gt;Node7 -->
<g id="edge9" class="edge"><title>Node1&#45;&gt;Node7</title>
<path fill="none" stroke="midnightblue" d="M104.834,-112.083C103.324,-104.927 102.894,-94.6353 103.542,-85.6911"/>
<polygon fill="midnightblue" stroke="midnightblue" points="107.015,-86.1262 104.869,-75.7511 100.077,-85.2002 107.015,-86.1262"/>
</g>
<!-- Node2&#45;&gt;Node1 -->
<g id="edge2" class="edge"><title>Node2&#45;&gt;Node1</title>
<path fill="none" stroke="midnightblue" d="M49.6111,-75.6545C63.202,-83.8346 81.5086,-96.2772 94.5328,-106.061"/>
<polygon fill="midnightblue" stroke="midnightblue" points="92.541,-108.946 102.583,-112.324 96.8395,-103.421 92.541,-108.946"/>
</g>
<!-- Node3 -->
<g id="node3" class="node"><title>Node3</title>
<g id="a_node3"><a xlink:title=" ">
<polygon fill="white" stroke="#bfbfbf" points="81,-0.5 81,-19.5 135,-19.5 135,-0.5 81,-0.5"/>
<text text-anchor="middle" x="108" y="-7.5" font-family="Helvetica,sans-Serif" font-size="10.00">iostream</text>
</a>
</g>
</g>
<!-- Node2&#45;&gt;Node3 -->
<g id="edge3" class="edge"><title>Node2&#45;&gt;Node3</title>
<path fill="none" stroke="midnightblue" d="M44.2107,-56.324C55.7759,-48.1066 73.3754,-35.6017 87.1607,-25.8069"/>
<polygon fill="midnightblue" stroke="midnightblue" points="89.4425,-28.4791 95.5671,-19.8339 85.388,-22.7729 89.4425,-28.4791"/>
</g>
<!-- Node4 -->
<g id="node4" class="node"><title>Node4</title>
<g id="a_node4"><a xlink:title=" ">
<polygon fill="white" stroke="#bfbfbf" points="12,-0.5 12,-19.5 52,-19.5 52,-0.5 12,-0.5"/>
<text text-anchor="middle" x="32" y="-7.5" font-family="Helvetica,sans-Serif" font-size="10.00">utility</text>
</a>
</g>
</g>
<!-- Node2&#45;&gt;Node4 -->
<g id="edge4" class="edge"><title>Node2&#45;&gt;Node4</title>
<path fill="none" stroke="midnightblue" d="M32,-56.083C32,-49.0059 32,-38.8611 32,-29.9865"/>
<polygon fill="midnightblue" stroke="midnightblue" points="35.5001,-29.751 32,-19.7511 28.5001,-29.7511 35.5001,-29.751"/>
</g>
<!-- Node5&#45;&gt;Node1 -->
<g id="edge6" class="edge"><title>Node5&#45;&gt;Node1</title>
<path fill="none" stroke="midnightblue" d="M180.389,-75.8339C170.007,-84.2633 151.753,-97.0987 136.324,-106.935"/>
<polygon fill="midnightblue" stroke="midnightblue" points="134.295,-104.075 127.647,-112.324 137.988,-110.021 134.295,-104.075"/>
</g>
<!-- Node5&#45;&gt;Node3 -->
<g id="edge8" class="edge"><title>Node5&#45;&gt;Node3</title>
<path fill="none" stroke="midnightblue" d="M175.147,-56.324C162.784,-47.979 143.87,-35.2122 129.263,-25.3524"/>
<polygon fill="midnightblue" stroke="midnightblue" points="131.068,-22.3483 120.821,-19.6545 127.152,-28.1503 131.068,-22.3483"/>
</g>
<!-- Node6 -->
<g id="node6" class="node"><title>Node6</title>
<g id="a_node6"><a xlink:title=" ">
<polygon fill="white" stroke="#bfbfbf" points="153.5,-0.5 153.5,-19.5 226.5,-19.5 226.5,-0.5 153.5,-0.5"/>
<text text-anchor="middle" x="190" y="-7.5" font-family="Helvetica,sans-Serif" font-size="10.00">initializer_list</text>
</a>
</g>
</g>
<!-- Node5&#45;&gt;Node6 -->
<g id="edge7" class="edge"><title>Node5&#45;&gt;Node6</title>
<path fill="none" stroke="midnightblue" d="M188.33,-56.083C188.592,-49.0059 188.968,-38.8611 189.297,-29.9865"/>
<polygon fill="midnightblue" stroke="midnightblue" points="192.803,-29.8738 189.676,-19.7511 185.808,-29.6147 192.803,-29.8738"/>
</g>
<!-- Node7&#45;&gt;Node1 -->
<g id="edge10" class="edge"><title>Node7&#45;&gt;Node1</title>
<path fill="none" stroke="midnightblue" d="M115.131,-75.7511C116.657,-82.8579 117.104,-93.1357 116.472,-102.101"/>
<polygon fill="midnightblue" stroke="midnightblue" points="112.993,-101.713 115.166,-112.083 119.934,-102.622 112.993,-101.713"/>
</g>
<!-- Node7&#45;&gt;Node3 -->
<g id="edge11" class="edge"><title>Node7&#45;&gt;Node3</title>
<path fill="none" stroke="midnightblue" d="M109.67,-56.083C109.408,-49.0059 109.032,-38.8611 108.703,-29.9865"/>
<polygon fill="midnightblue" stroke="midnightblue" points="112.192,-29.6147 108.324,-19.7511 105.197,-29.8738 112.192,-29.6147"/>
</g>
</g>
</svg>
