<?xml version="1.0" encoding="UTF-8" standalone="no"?>
<!DOCTYPE svg PUBLIC "-//W3C//DTD SVG 1.1//EN"
 "http://www.w3.org/Graphics/SVG/1.1/DTD/svg11.dtd">
<!-- Generated by graphviz version 2.38.0 (20140413.2041)
 -->
<!-- Title: main Pages: 1 -->
<svg width="474pt" height="218pt"
 viewBox="0.00 0.00 474.00 218.00" xmlns="http://www.w3.org/2000/svg" xmlns:xlink="http://www.w3.org/1999/xlink">
<g id="graph0" class="graph" transform="scale(1 1) rotate(0) translate(4 214)">
<title>main</title>
<polygon fill="white" stroke="none" points="-4,4 -4,-214 470,-214 470,4 -4,4"/>
<!-- Node1 -->
<g id="node1" class="node"><title>Node1</title>
<g id="a_node1"><a xlink:title=" ">
<polygon fill="#bfbfbf" stroke="black" points="0,-76.5 0,-95.5 38,-95.5 38,-76.5 0,-76.5"/>
<text text-anchor="middle" x="19" y="-83.5" font-family="Helvetica,sans-Serif" font-size="10.00">main</text>
</a>
</g>
</g>
<!-- Node2 -->
<g id="node2" class="node"><title>Node2</title>
<g id="a_node2"><a xlink:href="a05391.html#acce004321aba1561adc7622c3e9f9e72" target="_top" xlink:title=" ">
<polygon fill="white" stroke="black" points="74,-95.5 74,-114.5 169,-114.5 169,-95.5 74,-95.5"/>
<text text-anchor="middle" x="121.5" y="-102.5" font-family="Helvetica,sans-Serif" font-size="10.00">Akm_t::Akm_loop</text>
</a>
</g>
</g>
<!-- Node1&#45;&gt;Node2 -->
<g id="edge1" class="edge"><title>Node1&#45;&gt;Node2</title>
<path fill="none" stroke="midnightblue" d="M38.4332,-89.4849C45.7575,-90.8696 54.6136,-92.5439 63.7616,-94.2733"/>
<polygon fill="midnightblue" stroke="midnightblue" points="63.2677,-97.7419 73.7439,-96.1605 64.5681,-90.8637 63.2677,-97.7419"/>
</g>
<!-- Node10 -->
<g id="node10" class="node"><title>Node10</title>
<g id="a_node10"><a xlink:href="a05391.html#ad6156801029eb664e589ea5013e9bd4a" target="_top" xlink:title=" ">
<polygon fill="white" stroke="black" points="76.5,-57.5 76.5,-76.5 166.5,-76.5 166.5,-57.5 76.5,-57.5"/>
<text text-anchor="middle" x="121.5" y="-64.5" font-family="Helvetica,sans-Serif" font-size="10.00">Akm_t::Akm_rec</text>
</a>
</g>
</g>
<!-- Node1&#45;&gt;Node10 -->
<g id="edge9" class="edge"><title>Node1&#45;&gt;Node10</title>
<path fill="none" stroke="midnightblue" d="M38.4332,-82.5151C46.4233,-81.0046 56.2365,-79.1493 66.2628,-77.2538"/>
<polygon fill="midnightblue" stroke="midnightblue" points="67.1247,-80.6529 76.3004,-75.3561 65.8243,-73.7748 67.1247,-80.6529"/>
</g>
<!-- Node3 -->
<g id="node3" class="node"><title>Node3</title>
<g id="a_node3"><a xlink:href="a04520.html#a09828dd70ee57ea0c5d9832aded20690" target="_top" xlink:title=" ">
<polygon fill="white" stroke="black" points="205,-95.5 205,-114.5 292,-114.5 292,-95.5 205,-95.5"/>
<text text-anchor="middle" x="248.5" y="-102.5" font-family="Helvetica,sans-Serif" font-size="10.00">AckermannLoop</text>
</a>
</g>
</g>
<!-- Node2&#45;&gt;Node3 -->
<g id="edge2" class="edge"><title>Node2&#45;&gt;Node3</title>
<path fill="none" stroke="midnightblue" d="M169.045,-105C177.336,-105 186.028,-105 194.483,-105"/>
<polygon fill="midnightblue" stroke="midnightblue" points="194.635,-108.5 204.635,-105 194.635,-101.5 194.635,-108.5"/>
</g>
<!-- Node4 -->
<g id="node4" class="node"><title>Node4</title>
<g id="a_node4"><a xlink:href="a05455.html#aa4bbd748b258a1a9f9d3588ea2ba6a28" target="_top" xlink:title=" ">
<polygon fill="white" stroke="black" points="328,-190.5 328,-209.5 466,-209.5 466,-190.5 328,-190.5"/>
<text text-anchor="middle" x="397" y="-197.5" font-family="Helvetica,sans-Serif" font-size="10.00">Stack::seqStack::elemMem</text>
</a>
</g>
</g>
<!-- Node3&#45;&gt;Node4 -->
<g id="edge3" class="edge"><title>Node3&#45;&gt;Node4</title>
<path fill="none" stroke="midnightblue" d="M256.828,-114.74C269.527,-130.932 297.231,-163.349 328,-181 331.873,-183.222 336.02,-185.196 340.285,-186.948"/>
<polygon fill="midnightblue" stroke="midnightblue" points="339.156,-190.262 349.749,-190.438 341.578,-183.694 339.156,-190.262"/>
</g>
<!-- Node5 -->
<g id="node5" class="node"><title>Node5</title>
<g id="a_node5"><a xlink:href="a05455.html#a35a066a0aedc630474fd3e3dcaa9ced8" target="_top" xlink:title=" ">
<polygon fill="white" stroke="black" points="331.5,-152.5 331.5,-171.5 462.5,-171.5 462.5,-152.5 331.5,-152.5"/>
<text text-anchor="middle" x="397" y="-159.5" font-family="Helvetica,sans-Serif" font-size="10.00">Stack::seqStack::isEmpty</text>
</a>
</g>
</g>
<!-- Node3&#45;&gt;Node5 -->
<g id="edge4" class="edge"><title>Node3&#45;&gt;Node5</title>
<path fill="none" stroke="midnightblue" d="M266.874,-114.524C282.525,-122.831 306.332,-134.803 328,-143 334.239,-145.36 340.899,-147.576 347.518,-149.601"/>
<polygon fill="midnightblue" stroke="midnightblue" points="346.553,-152.965 357.134,-152.428 348.527,-146.249 346.553,-152.965"/>
</g>
<!-- Node6 -->
<g id="node6" class="node"><title>Node6</title>
<g id="a_node6"><a xlink:href="a05455.html#ae76c0c31d160cd1dabd0270172e2c88a" target="_top" xlink:title=" ">
<polygon fill="white" stroke="black" points="341.5,-114.5 341.5,-133.5 452.5,-133.5 452.5,-114.5 341.5,-114.5"/>
<text text-anchor="middle" x="397" y="-121.5" font-family="Helvetica,sans-Serif" font-size="10.00">Stack::seqStack::pop</text>
</a>
</g>
</g>
<!-- Node3&#45;&gt;Node6 -->
<g id="edge5" class="edge"><title>Node3&#45;&gt;Node6</title>
<path fill="none" stroke="midnightblue" d="M292.268,-110.547C304.516,-112.135 318.149,-113.903 331.399,-115.622"/>
<polygon fill="midnightblue" stroke="midnightblue" points="331.061,-119.107 341.428,-116.922 331.961,-112.165 331.061,-119.107"/>
</g>
<!-- Node7 -->
<g id="node7" class="node"><title>Node7</title>
<g id="a_node7"><a xlink:href="a05455.html#aa580900cdf97734ca479fe9f68f1c681" target="_top" xlink:title=" ">
<polygon fill="white" stroke="black" points="339,-76.5 339,-95.5 455,-95.5 455,-76.5 339,-76.5"/>
<text text-anchor="middle" x="397" y="-83.5" font-family="Helvetica,sans-Serif" font-size="10.00">Stack::seqStack::push</text>
</a>
</g>
</g>
<!-- Node3&#45;&gt;Node7 -->
<g id="edge6" class="edge"><title>Node3&#45;&gt;Node7</title>
<path fill="none" stroke="midnightblue" d="M292.268,-99.4533C303.616,-97.9815 316.153,-96.3555 328.473,-94.7578"/>
<polygon fill="midnightblue" stroke="midnightblue" points="329.273,-98.1834 338.74,-93.4263 328.373,-91.2416 329.273,-98.1834"/>
</g>
<!-- Node8 -->
<g id="node8" class="node"><title>Node8</title>
<g id="a_node8"><a xlink:href="a05455.html#a91fa28d561e88adc40c3213552c58402" target="_top" xlink:title=" ">
<polygon fill="white" stroke="black" points="340.5,-38.5 340.5,-57.5 453.5,-57.5 453.5,-38.5 340.5,-38.5"/>
<text text-anchor="middle" x="397" y="-45.5" font-family="Helvetica,sans-Serif" font-size="10.00">Stack::seqStack::size</text>
</a>
</g>
</g>
<!-- Node3&#45;&gt;Node8 -->
<g id="edge7" class="edge"><title>Node3&#45;&gt;Node8</title>
<path fill="none" stroke="midnightblue" d="M271.685,-95.4097C278.265,-92.4772 285.46,-89.1837 292,-86 308.267,-78.0817 311.192,-73.6945 328,-67 333.904,-64.6485 340.205,-62.4702 346.501,-60.4914"/>
<polygon fill="midnightblue" stroke="midnightblue" points="347.755,-63.7696 356.332,-57.5498 345.748,-57.0633 347.755,-63.7696"/>
</g>
<!-- Node9 -->
<g id="node9" class="node"><title>Node9</title>
<g id="a_node9"><a xlink:href="a05455.html#aae3a405f01cc5ba788a111fe15c6f5ed" target="_top" xlink:title=" ">
<polygon fill="white" stroke="black" points="342.5,-0.5 342.5,-19.5 451.5,-19.5 451.5,-0.5 342.5,-0.5"/>
<text text-anchor="middle" x="397" y="-7.5" font-family="Helvetica,sans-Serif" font-size="10.00">Stack::seqStack::top</text>
</a>
</g>
</g>
<!-- Node3&#45;&gt;Node9 -->
<g id="edge8" class="edge"><title>Node3&#45;&gt;Node9</title>
<path fill="none" stroke="midnightblue" d="M277.433,-95.3519C282.609,-92.804 287.724,-89.7047 292,-86 314.646,-66.3797 303.966,-46.893 328,-29 330.524,-27.1208 333.226,-25.4275 336.044,-23.9016"/>
<polygon fill="midnightblue" stroke="midnightblue" points="337.769,-26.9596 345.367,-19.5756 334.823,-20.6098 337.769,-26.9596"/>
</g>
<!-- Node11 -->
<g id="node11" class="node"><title>Node11</title>
<g id="a_node11"><a xlink:href="a04520.html#a779e6d0f676b89e7b2bcfaf974a59544" target="_top" xlink:title=" ">
<polygon fill="white" stroke="black" points="215.5,-57.5 215.5,-76.5 281.5,-76.5 281.5,-57.5 215.5,-57.5"/>
<text text-anchor="middle" x="248.5" y="-64.5" font-family="Helvetica,sans-Serif" font-size="10.00">Ackermann</text>
</a>
</g>
</g>
<!-- Node10&#45;&gt;Node11 -->
<g id="edge10" class="edge"><title>Node10&#45;&gt;Node11</title>
<path fill="none" stroke="midnightblue" d="M166.57,-67C179.091,-67 192.695,-67 205.113,-67"/>
<polygon fill="midnightblue" stroke="midnightblue" points="205.215,-70.5001 215.215,-67 205.215,-63.5001 205.215,-70.5001"/>
</g>
</g>
</svg>
