<?xml version="1.0" encoding="UTF-8" standalone="no"?>
<!DOCTYPE svg PUBLIC "-//W3C//DTD SVG 1.1//EN"
 "http://www.w3.org/Graphics/SVG/1.1/DTD/svg11.dtd">
<!-- Generated by graphviz version 2.38.0 (20140413.2041)
 -->
<!-- Title: include/linkStack.hpp Pages: 1 -->
<svg width="430pt" height="196pt"
 viewBox="0.00 0.00 430.00 196.00" xmlns="http://www.w3.org/2000/svg" xmlns:xlink="http://www.w3.org/1999/xlink">
<g id="graph0" class="graph" transform="scale(1 1) rotate(0) translate(4 192)">
<title>include/linkStack.hpp</title>
<polygon fill="white" stroke="none" points="-4,4 -4,-192 426,-192 426,4 -4,4"/>
<!-- Node1 -->
<g id="node1" class="node"><title>Node1</title>
<g id="a_node1"><a xlink:title="顺序栈类">
<polygon fill="#bfbfbf" stroke="black" points="180.5,-168.5 180.5,-187.5 290.5,-187.5 290.5,-168.5 180.5,-168.5"/>
<text text-anchor="middle" x="235.5" y="-175.5" font-family="Helvetica,sans-Serif" font-size="10.00">include/linkStack.hpp</text>
</a>
</g>
</g>
<!-- Node2 -->
<g id="node2" class="node"><title>Node2</title>
<g id="a_node2"><a xlink:href="a04547.html" target="_top" xlink:title="栈的抽象类">
<polygon fill="white" stroke="black" points="191,-112.5 191,-131.5 280,-131.5 280,-112.5 191,-112.5"/>
<text text-anchor="middle" x="235.5" y="-119.5" font-family="Helvetica,sans-Serif" font-size="10.00">include/Stack.hh</text>
</a>
</g>
</g>
<!-- Node1&#45;&gt;Node2 -->
<g id="edge1" class="edge"><title>Node1&#45;&gt;Node2</title>
<path fill="none" stroke="midnightblue" d="M229.028,-158.101C228.396,-149.136 228.843,-138.858 230.369,-131.751"/>
<polygon fill="midnightblue" stroke="midnightblue" points="225.566,-158.622 230.334,-168.083 232.507,-157.713 225.566,-158.622"/>
</g>
<!-- Node2&#45;&gt;Node1 -->
<g id="edge4" class="edge"><title>Node2&#45;&gt;Node1</title>
<path fill="none" stroke="midnightblue" d="M241.958,-141.691C242.606,-150.635 242.176,-160.927 240.666,-168.083"/>
<polygon fill="midnightblue" stroke="midnightblue" points="245.423,-141.2 240.631,-131.751 238.485,-142.126 245.423,-141.2"/>
</g>
<!-- Node3 -->
<g id="node3" class="node"><title>Node3</title>
<g id="a_node3"><a xlink:href="a04520.html" target="_top" xlink:title="Ackermann库">
<polygon fill="white" stroke="black" points="0,-56.5 0,-75.5 113,-75.5 113,-56.5 0,-56.5"/>
<text text-anchor="middle" x="56.5" y="-63.5" font-family="Helvetica,sans-Serif" font-size="10.00">include/Ackermann.hh</text>
</a>
</g>
</g>
<!-- Node2&#45;&gt;Node3 -->
<g id="edge2" class="edge"><title>Node2&#45;&gt;Node3</title>
<path fill="none" stroke="midnightblue" d="M197.169,-109.436C163.42,-99.2551 115.053,-84.664 84.7304,-75.5164"/>
<polygon fill="midnightblue" stroke="midnightblue" points="196.552,-112.906 207.137,-112.444 198.574,-106.204 196.552,-112.906"/>
</g>
<!-- Node5 -->
<g id="node5" class="node"><title>Node5</title>
<g id="a_node5"><a xlink:href="a04532.html" target="_top" xlink:title="全排列">
<polygon fill="white" stroke="black" points="131,-56.5 131,-75.5 232,-75.5 232,-56.5 131,-56.5"/>
<text text-anchor="middle" x="181.5" y="-63.5" font-family="Helvetica,sans-Serif" font-size="10.00">include/Permute.hh</text>
</a>
</g>
</g>
<!-- Node2&#45;&gt;Node5 -->
<g id="edge5" class="edge"><title>Node2&#45;&gt;Node5</title>
<path fill="none" stroke="midnightblue" d="M219.502,-105.002C209.933,-95.4329 198.139,-83.6389 190.251,-75.7511"/>
<polygon fill="midnightblue" stroke="midnightblue" points="217.037,-107.487 226.583,-112.083 221.987,-102.537 217.037,-107.487"/>
</g>
<!-- Node7 -->
<g id="node7" class="node"><title>Node7</title>
<g id="a_node7"><a xlink:href="a04535.html" target="_top" xlink:title="后缀表达式类">
<polygon fill="white" stroke="black" points="250,-56.5 250,-75.5 331,-75.5 331,-56.5 250,-56.5"/>
<text text-anchor="middle" x="290.5" y="-63.5" font-family="Helvetica,sans-Serif" font-size="10.00">include/Rpn.hh</text>
</a>
</g>
</g>
<!-- Node2&#45;&gt;Node7 -->
<g id="edge7" class="edge"><title>Node2&#45;&gt;Node7</title>
<path fill="none" stroke="midnightblue" d="M251.794,-105.002C261.541,-95.4329 273.553,-83.6389 281.587,-75.7511"/>
<polygon fill="midnightblue" stroke="midnightblue" points="249.266,-102.58 244.582,-112.083 254.17,-107.575 249.266,-102.58"/>
</g>
<!-- Node10 -->
<g id="node10" class="node"><title>Node10</title>
<g id="a_node10"><a xlink:href="a04553.html" target="_top" xlink:title="将十进制非负实数以二进制打印">
<polygon fill="white" stroke="black" points="349,-56.5 349,-75.5 422,-75.5 422,-56.5 349,-56.5"/>
<text text-anchor="middle" x="385.5" y="-63.5" font-family="Helvetica,sans-Serif" font-size="10.00">src/ch3_2.cc</text>
</a>
</g>
</g>
<!-- Node2&#45;&gt;Node10 -->
<g id="edge10" class="edge"><title>Node2&#45;&gt;Node10</title>
<path fill="none" stroke="midnightblue" d="M268.725,-109.039C296.948,-98.8786 336.762,-84.5457 361.843,-75.5164"/>
<polygon fill="midnightblue" stroke="midnightblue" points="267.491,-105.763 259.268,-112.444 269.862,-112.349 267.491,-105.763"/>
</g>
<!-- Node4 -->
<g id="node4" class="node"><title>Node4</title>
<g id="a_node4"><a xlink:href="a04565.html" target="_top" xlink:title="Ackerman函数的递归和非递归实现">
<polygon fill="white" stroke="black" points="20,-0.5 20,-19.5 93,-19.5 93,-0.5 20,-0.5"/>
<text text-anchor="middle" x="56.5" y="-7.5" font-family="Helvetica,sans-Serif" font-size="10.00">src/ch3_7.cc</text>
</a>
</g>
</g>
<!-- Node3&#45;&gt;Node4 -->
<g id="edge3" class="edge"><title>Node3&#45;&gt;Node4</title>
<path fill="none" stroke="midnightblue" d="M56.5,-45.8045C56.5,-36.9102 56.5,-26.7798 56.5,-19.7511"/>
<polygon fill="midnightblue" stroke="midnightblue" points="53.0001,-46.083 56.5,-56.083 60.0001,-46.083 53.0001,-46.083"/>
</g>
<!-- Node6 -->
<g id="node6" class="node"><title>Node6</title>
<g id="a_node6"><a xlink:href="a04556.html" target="_top" xlink:title="全排列的递归和非递归实现">
<polygon fill="white" stroke="black" points="145,-0.5 145,-19.5 218,-19.5 218,-0.5 145,-0.5"/>
<text text-anchor="middle" x="181.5" y="-7.5" font-family="Helvetica,sans-Serif" font-size="10.00">src/ch3_3.cc</text>
</a>
</g>
</g>
<!-- Node5&#45;&gt;Node6 -->
<g id="edge6" class="edge"><title>Node5&#45;&gt;Node6</title>
<path fill="none" stroke="midnightblue" d="M181.5,-45.8045C181.5,-36.9102 181.5,-26.7798 181.5,-19.7511"/>
<polygon fill="midnightblue" stroke="midnightblue" points="178,-46.083 181.5,-56.083 185,-46.083 178,-46.083"/>
</g>
<!-- Node8 -->
<g id="node8" class="node"><title>Node8</title>
<g id="a_node8"><a xlink:href="a04559.html" target="_top" xlink:title="中缀表达式转为后缀表达式">
<polygon fill="white" stroke="black" points="245,-0.5 245,-19.5 318,-19.5 318,-0.5 245,-0.5"/>
<text text-anchor="middle" x="281.5" y="-7.5" font-family="Helvetica,sans-Serif" font-size="10.00">src/ch3_4.cc</text>
</a>
</g>
</g>
<!-- Node7&#45;&gt;Node8 -->
<g id="edge8" class="edge"><title>Node7&#45;&gt;Node8</title>
<path fill="none" stroke="midnightblue" d="M287.35,-46.1005C285.856,-37.1357 284.143,-26.8579 282.959,-19.7511"/>
<polygon fill="midnightblue" stroke="midnightblue" points="283.917,-46.7945 289.014,-56.083 290.822,-45.6436 283.917,-46.7945"/>
</g>
<!-- Node9 -->
<g id="node9" class="node"><title>Node9</title>
<g id="a_node9"><a xlink:href="a04562.html" target="_top" xlink:title="后缀表达式的计算">
<polygon fill="white" stroke="black" points="336,-0.5 336,-19.5 409,-19.5 409,-0.5 336,-0.5"/>
<text text-anchor="middle" x="372.5" y="-7.5" font-family="Helvetica,sans-Serif" font-size="10.00">src/ch3_5.cc</text>
</a>
</g>
</g>
<!-- Node7&#45;&gt;Node9 -->
<g id="edge9" class="edge"><title>Node7&#45;&gt;Node9</title>
<path fill="none" stroke="midnightblue" d="M312.333,-50.6221C327.313,-40.7574 346.697,-27.9919 359.358,-19.6545"/>
<polygon fill="midnightblue" stroke="midnightblue" points="310.101,-47.9009 303.675,-56.324 313.951,-53.7471 310.101,-47.9009"/>
</g>
</g>
</svg>
