<?xml version="1.0" encoding="UTF-8" standalone="no"?>
<!DOCTYPE svg PUBLIC "-//W3C//DTD SVG 1.1//EN"
 "http://www.w3.org/Graphics/SVG/1.1/DTD/svg11.dtd">
<!-- Generated by graphviz version 2.38.0 (20140413.2041)
 -->
<!-- Title: include/sLinkList.h Pages: 1 -->
<svg width="355pt" height="196pt"
 viewBox="0.00 0.00 354.50 196.00" xmlns="http://www.w3.org/2000/svg" xmlns:xlink="http://www.w3.org/1999/xlink">
<g id="graph0" class="graph" transform="scale(1 1) rotate(0) translate(4 192)">
<title>include/sLinkList.h</title>
<polygon fill="white" stroke="none" points="-4,4 -4,-192 350.5,-192 350.5,4 -4,4"/>
<!-- Node1 -->
<g id="node1" class="node"><title>Node1</title>
<g id="a_node1"><a xlink:title="单链表类的定义和实现">
<polygon fill="#bfbfbf" stroke="black" points="112,-168.5 112,-187.5 210,-187.5 210,-168.5 112,-168.5"/>
<text text-anchor="middle" x="161" y="-175.5" font-family="Helvetica,sans-Serif" font-size="10.00">include/sLinkList.h</text>
</a>
</g>
</g>
<!-- Node2 -->
<g id="node2" class="node"><title>Node2</title>
<g id="a_node2"><a xlink:href="a04529.html" target="_top" xlink:title="栈的抽象类">
<polygon fill="white" stroke="black" points="124,-112.5 124,-131.5 198,-131.5 198,-112.5 124,-112.5"/>
<text text-anchor="middle" x="161" y="-119.5" font-family="Helvetica,sans-Serif" font-size="10.00">include/List.h</text>
</a>
</g>
</g>
<!-- Node1&#45;&gt;Node2 -->
<g id="edge1" class="edge"><title>Node1&#45;&gt;Node2</title>
<path fill="none" stroke="midnightblue" d="M154.528,-158.101C153.896,-149.136 154.343,-138.858 155.869,-131.751"/>
<polygon fill="midnightblue" stroke="midnightblue" points="151.066,-158.622 155.834,-168.083 158.007,-157.713 151.066,-158.622"/>
</g>
<!-- Node2&#45;&gt;Node1 -->
<g id="edge4" class="edge"><title>Node2&#45;&gt;Node1</title>
<path fill="none" stroke="midnightblue" d="M167.458,-141.691C168.106,-150.635 167.676,-160.927 166.166,-168.083"/>
<polygon fill="midnightblue" stroke="midnightblue" points="170.923,-141.2 166.131,-131.751 163.985,-142.126 170.923,-141.2"/>
</g>
<!-- Node3 -->
<g id="node3" class="node"><title>Node3</title>
<g id="a_node3"><a xlink:href="a04523.html" target="_top" xlink:title="双链表类">
<polygon fill="white" stroke="black" points="0,-56.5 0,-75.5 98,-75.5 98,-56.5 0,-56.5"/>
<text text-anchor="middle" x="49" y="-63.5" font-family="Helvetica,sans-Serif" font-size="10.00">include/dLinkList.h</text>
</a>
</g>
</g>
<!-- Node2&#45;&gt;Node3 -->
<g id="edge2" class="edge"><title>Node2&#45;&gt;Node3</title>
<path fill="none" stroke="midnightblue" d="M128.983,-108.368C106.554,-98.2553 77.9565,-84.3486 61.5837,-75.5164"/>
<polygon fill="midnightblue" stroke="midnightblue" points="127.605,-111.585 138.165,-112.444 130.445,-105.187 127.605,-111.585"/>
</g>
<!-- Node4 -->
<g id="node4" class="node"><title>Node4</title>
<g id="a_node4"><a xlink:href="a04538.html" target="_top" xlink:title="顺序表类">
<polygon fill="white" stroke="black" points="116,-56.5 116,-75.5 206,-75.5 206,-56.5 116,-56.5"/>
<text text-anchor="middle" x="161" y="-63.5" font-family="Helvetica,sans-Serif" font-size="10.00">include/seqList.h</text>
</a>
</g>
</g>
<!-- Node2&#45;&gt;Node4 -->
<g id="edge5" class="edge"><title>Node2&#45;&gt;Node4</title>
<path fill="none" stroke="midnightblue" d="M154.528,-102.101C153.896,-93.1357 154.343,-82.8579 155.869,-75.7511"/>
<polygon fill="midnightblue" stroke="midnightblue" points="151.066,-102.622 155.834,-112.083 158.007,-101.713 151.066,-102.622"/>
</g>
<!-- Node5 -->
<g id="node5" class="node"><title>Node5</title>
<g id="a_node5"><a xlink:href="a04535.html" target="_top" xlink:title="后缀表达式类">
<polygon fill="white" stroke="black" points="224.5,-56.5 224.5,-75.5 305.5,-75.5 305.5,-56.5 224.5,-56.5"/>
<text text-anchor="middle" x="265" y="-63.5" font-family="Helvetica,sans-Serif" font-size="10.00">include/Rpn.hh</text>
</a>
</g>
</g>
<!-- Node2&#45;&gt;Node5 -->
<g id="edge7" class="edge"><title>Node2&#45;&gt;Node5</title>
<path fill="none" stroke="midnightblue" d="M186.828,-107.59C206.057,-97.6052 231.745,-84.2672 248.332,-75.6545"/>
<polygon fill="midnightblue" stroke="midnightblue" points="184.971,-104.61 177.709,-112.324 188.197,-110.822 184.971,-104.61"/>
</g>
<!-- Node3&#45;&gt;Node2 -->
<g id="edge3" class="edge"><title>Node3&#45;&gt;Node2</title>
<path fill="none" stroke="midnightblue" d="M81.4818,-79.8421C103.705,-89.8754 131.814,-103.546 148.12,-112.324"/>
<polygon fill="midnightblue" stroke="midnightblue" points="82.6198,-76.5179 72.0602,-75.6545 79.7767,-82.9145 82.6198,-76.5179"/>
</g>
<!-- Node4&#45;&gt;Node2 -->
<g id="edge6" class="edge"><title>Node4&#45;&gt;Node2</title>
<path fill="none" stroke="midnightblue" d="M167.458,-85.6911C168.106,-94.6353 167.676,-104.927 166.166,-112.083"/>
<polygon fill="midnightblue" stroke="midnightblue" points="170.923,-85.2002 166.131,-75.7511 163.985,-86.1262 170.923,-85.2002"/>
</g>
<!-- Node6 -->
<g id="node6" class="node"><title>Node6</title>
<g id="a_node6"><a xlink:href="a04559.html" target="_top" xlink:title=" ">
<polygon fill="white" stroke="black" points="182.5,-0.5 182.5,-19.5 255.5,-19.5 255.5,-0.5 182.5,-0.5"/>
<text text-anchor="middle" x="219" y="-7.5" font-family="Helvetica,sans-Serif" font-size="10.00">src/ch3_4.cc</text>
</a>
</g>
</g>
<!-- Node5&#45;&gt;Node6 -->
<g id="edge8" class="edge"><title>Node5&#45;&gt;Node6</title>
<path fill="none" stroke="midnightblue" d="M250.886,-48.4314C242.824,-38.9673 233.041,-27.4827 226.455,-19.7511"/>
<polygon fill="midnightblue" stroke="midnightblue" points="248.255,-50.7402 257.404,-56.083 253.584,-46.2009 248.255,-50.7402"/>
</g>
<!-- Node7 -->
<g id="node7" class="node"><title>Node7</title>
<g id="a_node7"><a xlink:href="a04562.html" target="_top" xlink:title=" ">
<polygon fill="white" stroke="black" points="273.5,-0.5 273.5,-19.5 346.5,-19.5 346.5,-0.5 273.5,-0.5"/>
<text text-anchor="middle" x="310" y="-7.5" font-family="Helvetica,sans-Serif" font-size="10.00">src/ch3_5.cc</text>
</a>
</g>
</g>
<!-- Node5&#45;&gt;Node7 -->
<g id="edge9" class="edge"><title>Node5&#45;&gt;Node7</title>
<path fill="none" stroke="midnightblue" d="M279.047,-48.144C286.887,-38.7357 296.329,-27.4046 302.707,-19.7511"/>
<polygon fill="midnightblue" stroke="midnightblue" points="276.144,-46.1601 272.431,-56.083 281.521,-50.6414 276.144,-46.1601"/>
</g>
</g>
</svg>
