<?xml version="1.0" encoding="UTF-8" standalone="no"?>
<!DOCTYPE svg PUBLIC "-//W3C//DTD SVG 1.1//EN"
 "http://www.w3.org/Graphics/SVG/1.1/DTD/svg11.dtd">
<!-- Generated by graphviz version 2.38.0 (20140413.2041)
 -->
<!-- Title: include/Permute.hh Pages: 1 -->
<svg width="490pt" height="196pt"
 viewBox="0.00 0.00 489.50 196.00" xmlns="http://www.w3.org/2000/svg" xmlns:xlink="http://www.w3.org/1999/xlink">
<g id="graph0" class="graph" transform="scale(1 1) rotate(0) translate(4 192)">
<title>include/Permute.hh</title>
<polygon fill="white" stroke="none" points="-4,4 -4,-192 485.5,-192 485.5,4 -4,4"/>
<!-- Node1 -->
<g id="node1" class="node"><title>Node1</title>
<g id="a_node1"><a xlink:title="全排列">
<polygon fill="#bfbfbf" stroke="black" points="244.5,-168.5 244.5,-187.5 345.5,-187.5 345.5,-168.5 244.5,-168.5"/>
<text text-anchor="middle" x="295" y="-175.5" font-family="Helvetica,sans-Serif" font-size="10.00">include/Permute.hh</text>
</a>
</g>
</g>
<!-- Node2 -->
<g id="node2" class="node"><title>Node2</title>
<g id="a_node2"><a xlink:href="a04547.html" target="_top" xlink:title="栈的抽象类">
<polygon fill="white" stroke="black" points="160,-112.5 160,-131.5 216,-131.5 216,-112.5 160,-112.5"/>
<text text-anchor="middle" x="188" y="-119.5" font-family="Helvetica,sans-Serif" font-size="10.00">Stack.hh</text>
</a>
</g>
</g>
<!-- Node1&#45;&gt;Node2 -->
<g id="edge1" class="edge"><title>Node1&#45;&gt;Node2</title>
<path fill="none" stroke="midnightblue" d="M277.809,-168.324C260.649,-159.664 234.054,-146.242 214.253,-136.249"/>
<polygon fill="midnightblue" stroke="midnightblue" points="215.653,-133.035 205.149,-131.655 212.499,-139.285 215.653,-133.035"/>
</g>
<!-- Node4 -->
<g id="node4" class="node"><title>Node4</title>
<g id="a_node4"><a xlink:title=" ">
<polygon fill="white" stroke="#bfbfbf" points="0,-56.5 0,-75.5 40,-75.5 40,-56.5 0,-56.5"/>
<text text-anchor="middle" x="20" y="-63.5" font-family="Helvetica,sans-Serif" font-size="10.00">utility</text>
</a>
</g>
</g>
<!-- Node1&#45;&gt;Node4 -->
<g id="edge13" class="edge"><title>Node1&#45;&gt;Node4</title>
<path fill="none" stroke="midnightblue" d="M262.75,-168.497C233.229,-160.345 188.554,-147.075 151,-132 112.767,-116.652 70.3694,-94.6453 44.4481,-80.5877"/>
<polygon fill="midnightblue" stroke="midnightblue" points="45.8164,-77.3468 35.3633,-75.6196 42.4578,-83.4885 45.8164,-77.3468"/>
</g>
<!-- Node8 -->
<g id="node8" class="node"><title>Node8</title>
<g id="a_node8"><a xlink:title=" ">
<polygon fill="white" stroke="#bfbfbf" points="234,-112.5 234,-131.5 290,-131.5 290,-112.5 234,-112.5"/>
<text text-anchor="middle" x="262" y="-119.5" font-family="Helvetica,sans-Serif" font-size="10.00">algorithm</text>
</a>
</g>
</g>
<!-- Node1&#45;&gt;Node8 -->
<g id="edge9" class="edge"><title>Node1&#45;&gt;Node8</title>
<path fill="none" stroke="midnightblue" d="M289.551,-168.083C284.986,-160.613 278.332,-149.724 272.707,-140.52"/>
<polygon fill="midnightblue" stroke="midnightblue" points="275.549,-138.459 267.348,-131.751 269.576,-142.109 275.549,-138.459"/>
</g>
<!-- Node9 -->
<g id="node9" class="node"><title>Node9</title>
<g id="a_node9"><a xlink:title=" ">
<polygon fill="white" stroke="#bfbfbf" points="308.5,-112.5 308.5,-131.5 349.5,-131.5 349.5,-112.5 308.5,-112.5"/>
<text text-anchor="middle" x="329" y="-119.5" font-family="Helvetica,sans-Serif" font-size="10.00">ctime</text>
</a>
</g>
</g>
<!-- Node1&#45;&gt;Node9 -->
<g id="edge10" class="edge"><title>Node1&#45;&gt;Node9</title>
<path fill="none" stroke="midnightblue" d="M300.614,-168.083C305.367,-160.534 312.318,-149.495 318.152,-140.23"/>
<polygon fill="midnightblue" stroke="midnightblue" points="321.124,-142.078 323.49,-131.751 315.2,-138.349 321.124,-142.078"/>
</g>
<!-- Node10 -->
<g id="node10" class="node"><title>Node10</title>
<g id="a_node10"><a xlink:title=" ">
<polygon fill="white" stroke="#bfbfbf" points="368,-112.5 368,-131.5 422,-131.5 422,-112.5 368,-112.5"/>
<text text-anchor="middle" x="395" y="-119.5" font-family="Helvetica,sans-Serif" font-size="10.00">iostream</text>
</a>
</g>
</g>
<!-- Node1&#45;&gt;Node10 -->
<g id="edge11" class="edge"><title>Node1&#45;&gt;Node10</title>
<path fill="none" stroke="midnightblue" d="M311.067,-168.324C326.958,-159.743 351.507,-146.486 369.958,-136.522"/>
<polygon fill="midnightblue" stroke="midnightblue" points="371.837,-139.486 378.973,-131.655 368.511,-133.326 371.837,-139.486"/>
</g>
<!-- Node11 -->
<g id="node11" class="node"><title>Node11</title>
<g id="a_node11"><a xlink:title=" ">
<polygon fill="white" stroke="#bfbfbf" points="440.5,-112.5 440.5,-131.5 481.5,-131.5 481.5,-112.5 440.5,-112.5"/>
<text text-anchor="middle" x="461" y="-119.5" font-family="Helvetica,sans-Serif" font-size="10.00">string</text>
</a>
</g>
</g>
<!-- Node1&#45;&gt;Node11 -->
<g id="edge12" class="edge"><title>Node1&#45;&gt;Node11</title>
<path fill="none" stroke="midnightblue" d="M321.303,-168.444C351.001,-158.783 399.248,-143.088 430.552,-132.905"/>
<polygon fill="midnightblue" stroke="midnightblue" points="431.649,-136.228 440.076,-129.807 429.484,-129.572 431.649,-136.228"/>
</g>
<!-- Node3 -->
<g id="node3" class="node"><title>Node3</title>
<g id="a_node3"><a xlink:title=" ">
<polygon fill="white" stroke="#bfbfbf" points="58.5,-56.5 58.5,-75.5 131.5,-75.5 131.5,-56.5 58.5,-56.5"/>
<text text-anchor="middle" x="95" y="-63.5" font-family="Helvetica,sans-Serif" font-size="10.00">initializer_list</text>
</a>
</g>
</g>
<!-- Node2&#45;&gt;Node3 -->
<g id="edge2" class="edge"><title>Node2&#45;&gt;Node3</title>
<path fill="none" stroke="midnightblue" d="M173.058,-112.324C158.415,-103.822 135.866,-90.7288 118.762,-80.7975"/>
<polygon fill="midnightblue" stroke="midnightblue" points="120.31,-77.6491 109.905,-75.6545 116.795,-83.7027 120.31,-77.6491"/>
</g>
<!-- Node2&#45;&gt;Node4 -->
<g id="edge3" class="edge"><title>Node2&#45;&gt;Node4</title>
<path fill="none" stroke="midnightblue" d="M161.38,-112.444C130.991,-102.676 81.4086,-86.7385 49.7648,-76.5673"/>
<polygon fill="midnightblue" stroke="midnightblue" points="50.7595,-73.2107 40.1682,-73.4826 48.6174,-79.8749 50.7595,-73.2107"/>
</g>
<!-- Node5 -->
<g id="node5" class="node"><title>Node5</title>
<g id="a_node5"><a xlink:href="a04526.html" target="_top" xlink:title="顺序栈类">
<polygon fill="white" stroke="black" points="150,-56.5 150,-75.5 226,-75.5 226,-56.5 150,-56.5"/>
<text text-anchor="middle" x="188" y="-63.5" font-family="Helvetica,sans-Serif" font-size="10.00">linkStack.hpp</text>
</a>
</g>
</g>
<!-- Node2&#45;&gt;Node5 -->
<g id="edge4" class="edge"><title>Node2&#45;&gt;Node5</title>
<path fill="none" stroke="midnightblue" d="M182.834,-112.083C181.324,-104.927 180.894,-94.6353 181.542,-85.6911"/>
<polygon fill="midnightblue" stroke="midnightblue" points="185.015,-86.1262 182.869,-75.7511 178.077,-85.2002 185.015,-86.1262"/>
</g>
<!-- Node6 -->
<g id="node6" class="node"><title>Node6</title>
<g id="a_node6"><a xlink:href="a04541.html" target="_top" xlink:title="顺序栈类的定义和实现">
<polygon fill="white" stroke="black" points="244.5,-56.5 244.5,-75.5 321.5,-75.5 321.5,-56.5 244.5,-56.5"/>
<text text-anchor="middle" x="283" y="-63.5" font-family="Helvetica,sans-Serif" font-size="10.00">seqStack.hxx</text>
</a>
</g>
</g>
<!-- Node2&#45;&gt;Node6 -->
<g id="edge6" class="edge"><title>Node2&#45;&gt;Node6</title>
<path fill="none" stroke="midnightblue" d="M198.149,-112.324C211.448,-103.703 234.646,-90.3643 253.531,-80.3855"/>
<polygon fill="midnightblue" stroke="midnightblue" points="255.395,-83.3618 262.664,-75.6545 252.175,-77.1461 255.395,-83.3618"/>
</g>
<!-- Node5&#45;&gt;Node2 -->
<g id="edge5" class="edge"><title>Node5&#45;&gt;Node2</title>
<path fill="none" stroke="midnightblue" d="M193.131,-75.7511C194.657,-82.8579 195.104,-93.1357 194.472,-102.101"/>
<polygon fill="midnightblue" stroke="midnightblue" points="190.993,-101.713 193.166,-112.083 197.934,-102.622 190.993,-101.713"/>
</g>
<!-- Node6&#45;&gt;Node2 -->
<g id="edge7" class="edge"><title>Node6&#45;&gt;Node2</title>
<path fill="none" stroke="midnightblue" d="M272.885,-75.6545C259.602,-84.2672 236.408,-97.6052 217.516,-107.59"/>
<polygon fill="midnightblue" stroke="midnightblue" points="215.647,-104.616 208.378,-112.324 218.867,-110.831 215.647,-104.616"/>
</g>
<!-- Node7 -->
<g id="node7" class="node"><title>Node7</title>
<g id="a_node7"><a xlink:title=" ">
<polygon fill="white" stroke="#bfbfbf" points="260.5,-0.5 260.5,-19.5 305.5,-19.5 305.5,-0.5 260.5,-0.5"/>
<text text-anchor="middle" x="283" y="-7.5" font-family="Helvetica,sans-Serif" font-size="10.00">climits</text>
</a>
</g>
</g>
<!-- Node6&#45;&gt;Node7 -->
<g id="edge8" class="edge"><title>Node6&#45;&gt;Node7</title>
<path fill="none" stroke="midnightblue" d="M283,-56.083C283,-49.0059 283,-38.8611 283,-29.9865"/>
<polygon fill="midnightblue" stroke="midnightblue" points="286.5,-29.751 283,-19.7511 279.5,-29.7511 286.5,-29.751"/>
</g>
</g>
</svg>
