<?xml version="1.0" encoding="UTF-8" standalone="no"?>
<!DOCTYPE svg PUBLIC "-//W3C//DTD SVG 1.1//EN"
 "http://www.w3.org/Graphics/SVG/1.1/DTD/svg11.dtd">
<!-- Generated by graphviz version 2.38.0 (20140413.2041)
 -->
<!-- Title: include/Rpn.hh Pages: 1 -->
<!--zoomable 252 -->
<svg id="main" version="1.1" xmlns="http://www.w3.org/2000/svg" xmlns:xlink="http://www.w3.org/1999/xlink" xml:space="preserve" onload="init(evt)">
<style type="text/css"><![CDATA[
.edge:hover path { stroke: red; }
.edge:hover polygon { stroke: red; fill: red; }
]]></style>
<script type="text/javascript"><![CDATA[
var edges = document.getElementsByTagName('g');
if (edges && edges.length) {
  for (var i=0;i<edges.length;i++) {
    if (edges[i].id.substr(0,4)=='edge') {
      edges[i].setAttribute('class','edge');
    }
  }
}
]]></script>
        <defs>
                <circle id="rim" cx="0" cy="0" r="7"/>
                <circle id="rim2" cx="0" cy="0" r="3.5"/>
                <g id="zoomPlus">
                        <use xlink:href="#rim" fill="#404040">
                                <set attributeName="fill" to="#808080" begin="zoomplus.mouseover" end="zoomplus.mouseout"/>
                        </use>
                        <path d="M-4,0h8M0,-4v8" fill="none" stroke="white" stroke-width="1.5" pointer-events="none"/>
                </g>
                <g id="zoomMin">
                        <use xlink:href="#rim" fill="#404040">
                                <set attributeName="fill" to="#808080" begin="zoomminus.mouseover" end="zoomminus.mouseout"/>
                        </use>
                        <path d="M-4,0h8" fill="none" stroke="white" stroke-width="1.5" pointer-events="none"/>
                </g>
                <g id="dirArrow">
                        <path fill="none" stroke="white" stroke-width="1.5" d="M0,-3.0v7 M-2.5,-0.5L0,-3.0L2.5,-0.5"/>
                </g>
               <g id="resetDef">
                       <use xlink:href="#rim2" fill="#404040">
                               <set attributeName="fill" to="#808080" begin="reset.mouseover" end="reset.mouseout"/>
                       </use>
               </g>
        </defs>

<script type="text/javascript">
var viewWidth = 640;
var viewHeight = 252;
var sectionId = 'dynsection-0';
</script>
<script xlink:href="svgpan.js"/>
<svg id="graph" class="graph">
<g id="viewport">
<title>include/Rpn.hh</title>
<polygon fill="white" stroke="none" points="-4,4 -4,-248 635.841,-248 635.841,4 -4,4"/>
<!-- Node1 -->
<g id="node1" class="node"><title>Node1</title>
<g id="a_node1"><a xlink:title="后缀表达式类">
<polygon fill="#bfbfbf" stroke="black" points="308.841,-224.5 308.841,-243.5 389.841,-243.5 389.841,-224.5 308.841,-224.5"/>
<text text-anchor="middle" x="349.341" y="-231.5" font-family="Helvetica,sans-Serif" font-size="10.00">include/Rpn.hh</text>
</a>
</g>
</g>
<!-- Node2 -->
<g id="node2" class="node"><title>Node2</title>
<g id="a_node2"><a xlink:href="a04529.html" target="_top" xlink:title="栈的抽象类">
<polygon fill="white" stroke="black" points="97.8413,-168.5 97.8413,-187.5 138.841,-187.5 138.841,-168.5 97.8413,-168.5"/>
<text text-anchor="middle" x="118.341" y="-175.5" font-family="Helvetica,sans-Serif" font-size="10.00">List.h</text>
</a>
</g>
</g>
<!-- Node1&#45;&gt;Node2 -->
<g id="edge1" class="edge"><title>Node1&#45;&gt;Node2</title>
<path fill="none" stroke="midnightblue" d="M312.739,-224.444C267.469,-213.861 191.224,-196.038 148.927,-186.15"/>
<polygon fill="midnightblue" stroke="midnightblue" points="149.478,-182.684 138.944,-183.816 147.885,-189.501 149.478,-182.684"/>
</g>
<!-- Node4 -->
<g id="node4" class="node"><title>Node4</title>
<g id="a_node4"><a xlink:title=" ">
<polygon fill="white" stroke="#bfbfbf" points="33.3413,-56.5 33.3413,-75.5 87.3413,-75.5 87.3413,-56.5 33.3413,-56.5"/>
<text text-anchor="middle" x="60.3413" y="-63.5" font-family="Helvetica,sans-Serif" font-size="10.00">iostream</text>
</a>
</g>
</g>
<!-- Node1&#45;&gt;Node4 -->
<g id="edge25" class="edge"><title>Node1&#45;&gt;Node4</title>
<path fill="none" stroke="midnightblue" d="M308.607,-231.134C256.039,-227.582 162.526,-217.342 88.3413,-188 46.2729,-171.361 24.7966,-171.828 3.34134,-132 -7.39933,-112.062 14.3239,-93.0455 33.973,-80.7913"/>
<polygon fill="midnightblue" stroke="midnightblue" points="35.8737,-83.7342 42.7309,-75.6578 32.3338,-77.6952 35.8737,-83.7342"/>
</g>
<!-- Node5 -->
<g id="node5" class="node"><title>Node5</title>
<g id="a_node5"><a xlink:title=" ">
<polygon fill="white" stroke="#bfbfbf" points="199.341,-56.5 199.341,-75.5 239.341,-75.5 239.341,-56.5 199.341,-56.5"/>
<text text-anchor="middle" x="219.341" y="-63.5" font-family="Helvetica,sans-Serif" font-size="10.00">utility</text>
</a>
</g>
</g>
<!-- Node1&#45;&gt;Node5 -->
<g id="edge27" class="edge"><title>Node1&#45;&gt;Node5</title>
<path fill="none" stroke="midnightblue" d="M341.386,-224.19C333.371,-215.229 320.735,-200.868 310.341,-188 281.033,-151.717 248.634,-107.598 231.509,-83.9386"/>
<polygon fill="midnightblue" stroke="midnightblue" points="234.23,-81.7267 225.541,-75.6643 228.552,-85.822 234.23,-81.7267"/>
</g>
<!-- Node9 -->
<g id="node9" class="node"><title>Node9</title>
<g id="a_node9"><a xlink:href="a04547.html" target="_top" xlink:title="栈的抽象类">
<polygon fill="white" stroke="black" points="288.341,-112.5 288.341,-131.5 344.341,-131.5 344.341,-112.5 288.341,-112.5"/>
<text text-anchor="middle" x="316.341" y="-119.5" font-family="Helvetica,sans-Serif" font-size="10.00">Stack.hh</text>
</a>
</g>
</g>
<!-- Node1&#45;&gt;Node9 -->
<g id="edge13" class="edge"><title>Node1&#45;&gt;Node9</title>
<path fill="none" stroke="midnightblue" d="M340.64,-224.27C332.863,-215.812 322,-202.211 317.341,-188 312.447,-173.069 312.58,-155.155 313.72,-141.917"/>
<polygon fill="midnightblue" stroke="midnightblue" points="317.232,-142.011 314.88,-131.681 310.276,-141.223 317.232,-142.011"/>
</g>
<!-- Node14 -->
<g id="node14" class="node"><title>Node14</title>
<g id="a_node14"><a xlink:title=" ">
<polygon fill="white" stroke="#bfbfbf" points="326.341,-168.5 326.341,-187.5 372.341,-187.5 372.341,-168.5 326.341,-168.5"/>
<text text-anchor="middle" x="349.341" y="-175.5" font-family="Helvetica,sans-Serif" font-size="10.00">cctype</text>
</a>
</g>
</g>
<!-- Node1&#45;&gt;Node14 -->
<g id="edge21" class="edge"><title>Node1&#45;&gt;Node14</title>
<path fill="none" stroke="midnightblue" d="M349.341,-224.083C349.341,-217.006 349.341,-206.861 349.341,-197.986"/>
<polygon fill="midnightblue" stroke="midnightblue" points="352.841,-197.751 349.341,-187.751 345.841,-197.751 352.841,-197.751"/>
</g>
<!-- Node15 -->
<g id="node15" class="node"><title>Node15</title>
<g id="a_node15"><a xlink:title=" ">
<polygon fill="white" stroke="#bfbfbf" points="390.341,-168.5 390.341,-187.5 434.341,-187.5 434.341,-168.5 390.341,-168.5"/>
<text text-anchor="middle" x="412.341" y="-175.5" font-family="Helvetica,sans-Serif" font-size="10.00">cmath</text>
</a>
</g>
</g>
<!-- Node1&#45;&gt;Node15 -->
<g id="edge22" class="edge"><title>Node1&#45;&gt;Node15</title>
<path fill="none" stroke="midnightblue" d="M359.463,-224.324C368.868,-216.263 383.085,-204.077 394.41,-194.369"/>
<polygon fill="midnightblue" stroke="midnightblue" points="396.72,-196.999 402.035,-187.834 392.165,-191.684 396.72,-196.999"/>
</g>
<!-- Node16 -->
<g id="node16" class="node"><title>Node16</title>
<g id="a_node16"><a xlink:title=" ">
<polygon fill="white" stroke="#bfbfbf" points="452.841,-168.5 452.841,-187.5 495.841,-187.5 495.841,-168.5 452.841,-168.5"/>
<text text-anchor="middle" x="474.341" y="-175.5" font-family="Helvetica,sans-Serif" font-size="10.00">cstdio</text>
</a>
</g>
</g>
<!-- Node1&#45;&gt;Node16 -->
<g id="edge23" class="edge"><title>Node1&#45;&gt;Node16</title>
<path fill="none" stroke="midnightblue" d="M369.148,-224.444C389.628,-215.596 421.824,-201.687 445.206,-191.586"/>
<polygon fill="midnightblue" stroke="midnightblue" points="446.835,-194.695 454.627,-187.516 444.059,-188.269 446.835,-194.695"/>
</g>
<!-- Node17 -->
<g id="node17" class="node"><title>Node17</title>
<g id="a_node17"><a xlink:title=" ">
<polygon fill="white" stroke="#bfbfbf" points="513.841,-168.5 513.841,-187.5 572.841,-187.5 572.841,-168.5 513.841,-168.5"/>
<text text-anchor="middle" x="543.341" y="-175.5" font-family="Helvetica,sans-Serif" font-size="10.00">exception</text>
</a>
</g>
</g>
<!-- Node1&#45;&gt;Node17 -->
<g id="edge24" class="edge"><title>Node1&#45;&gt;Node17</title>
<path fill="none" stroke="midnightblue" d="M380.081,-224.444C413.578,-215.12 467.27,-200.175 503.863,-189.989"/>
<polygon fill="midnightblue" stroke="midnightblue" points="505.004,-193.304 513.7,-187.251 503.127,-186.561 505.004,-193.304"/>
</g>
<!-- Node18 -->
<g id="node18" class="node"><title>Node18</title>
<g id="a_node18"><a xlink:title=" ">
<polygon fill="white" stroke="#bfbfbf" points="590.841,-168.5 590.841,-187.5 631.841,-187.5 631.841,-168.5 590.841,-168.5"/>
<text text-anchor="middle" x="611.341" y="-175.5" font-family="Helvetica,sans-Serif" font-size="10.00">string</text>
</a>
</g>
</g>
<!-- Node1&#45;&gt;Node18 -->
<g id="edge26" class="edge"><title>Node1&#45;&gt;Node18</title>
<path fill="none" stroke="midnightblue" d="M390.048,-226.537C434.779,-219.126 508.894,-205.941 581.112,-188.104"/>
<polygon fill="midnightblue" stroke="midnightblue" points="581.974,-191.496 590.825,-185.673 580.275,-184.706 581.974,-191.496"/>
</g>
<!-- Node3 -->
<g id="node3" class="node"><title>Node3</title>
<g id="a_node3"><a xlink:href="a04523.html" target="_top" xlink:title="双链表类">
<polygon fill="white" stroke="black" points="168.341,-112.5 168.341,-131.5 232.341,-131.5 232.341,-112.5 168.341,-112.5"/>
<text text-anchor="middle" x="200.341" y="-119.5" font-family="Helvetica,sans-Serif" font-size="10.00">dLinkList.h</text>
</a>
</g>
</g>
<!-- Node2&#45;&gt;Node3 -->
<g id="edge2" class="edge"><title>Node2&#45;&gt;Node3</title>
<path fill="none" stroke="midnightblue" d="M126.401,-168.324C137.471,-159.822 157.066,-146.729 173.415,-136.797"/>
<polygon fill="midnightblue" stroke="midnightblue" points="175.273,-139.765 182.089,-131.655 171.702,-133.744 175.273,-139.765"/>
</g>
<!-- Node6 -->
<g id="node6" class="node"><title>Node6</title>
<g id="a_node6"><a xlink:href="a04544.html" target="_top" xlink:title="单链表类的定义和实现">
<polygon fill="white" stroke="black" points="86.3413,-112.5 86.3413,-131.5 150.341,-131.5 150.341,-112.5 86.3413,-112.5"/>
<text text-anchor="middle" x="118.341" y="-119.5" font-family="Helvetica,sans-Serif" font-size="10.00">sLinkList.h</text>
</a>
</g>
</g>
<!-- Node2&#45;&gt;Node6 -->
<g id="edge6" class="edge"><title>Node2&#45;&gt;Node6</title>
<path fill="none" stroke="midnightblue" d="M113.175,-168.083C111.666,-160.927 111.235,-150.635 111.884,-141.691"/>
<polygon fill="midnightblue" stroke="midnightblue" points="115.357,-142.126 113.21,-131.751 108.418,-141.2 115.357,-142.126"/>
</g>
<!-- Node8 -->
<g id="node8" class="node"><title>Node8</title>
<g id="a_node8"><a xlink:href="a04538.html" target="_top" xlink:title="顺序表类">
<polygon fill="white" stroke="black" points="12.3413,-112.5 12.3413,-131.5 68.3413,-131.5 68.3413,-112.5 12.3413,-112.5"/>
<text text-anchor="middle" x="40.3413" y="-119.5" font-family="Helvetica,sans-Serif" font-size="10.00">seqList.h</text>
</a>
</g>
</g>
<!-- Node2&#45;&gt;Node8 -->
<g id="edge10" class="edge"><title>Node2&#45;&gt;Node8</title>
<path fill="none" stroke="midnightblue" d="M100.694,-168.324C87.1758,-160.185 69.0057,-147.839 56.0059,-138.087"/>
<polygon fill="midnightblue" stroke="midnightblue" points="57.9977,-135.203 47.9527,-131.834 53.7044,-140.732 57.9977,-135.203"/>
</g>
<!-- Node3&#45;&gt;Node2 -->
<g id="edge3" class="edge"><title>Node3&#45;&gt;Node2</title>
<path fill="none" stroke="midnightblue" d="M192.076,-131.834C180.967,-140.342 161.506,-153.339 145.255,-163.21"/>
<polygon fill="midnightblue" stroke="midnightblue" points="143.447,-160.213 136.631,-168.324 147.018,-166.234 143.447,-160.213"/>
</g>
<!-- Node3&#45;&gt;Node4 -->
<g id="edge4" class="edge"><title>Node3&#45;&gt;Node4</title>
<path fill="none" stroke="midnightblue" d="M178.158,-112.444C154.913,-103.478 118.193,-89.314 91.9261,-79.1827"/>
<polygon fill="midnightblue" stroke="midnightblue" points="93.0106,-75.8497 82.421,-75.5164 90.4914,-82.3807 93.0106,-75.8497"/>
</g>
<!-- Node3&#45;&gt;Node5 -->
<g id="edge5" class="edge"><title>Node3&#45;&gt;Node5</title>
<path fill="none" stroke="midnightblue" d="M203.479,-112.083C206.024,-104.849 209.698,-94.4087 212.868,-85.3968"/>
<polygon fill="midnightblue" stroke="midnightblue" points="216.245,-86.3459 216.262,-75.7511 209.642,-84.0225 216.245,-86.3459"/>
</g>
<!-- Node6&#45;&gt;Node2 -->
<g id="edge7" class="edge"><title>Node6&#45;&gt;Node2</title>
<path fill="none" stroke="midnightblue" d="M123.472,-131.751C124.999,-138.858 125.446,-149.136 124.814,-158.101"/>
<polygon fill="midnightblue" stroke="midnightblue" points="121.335,-157.713 123.508,-168.083 128.275,-158.622 121.335,-157.713"/>
</g>
<!-- Node6&#45;&gt;Node4 -->
<g id="edge9" class="edge"><title>Node6&#45;&gt;Node4</title>
<path fill="none" stroke="midnightblue" d="M109.023,-112.324C100.449,-104.341 87.5291,-92.3128 77.1537,-82.6529"/>
<polygon fill="midnightblue" stroke="midnightblue" points="79.5335,-80.0865 69.8296,-75.8339 74.7636,-85.2098 79.5335,-80.0865"/>
</g>
<!-- Node7 -->
<g id="node7" class="node"><title>Node7</title>
<g id="a_node7"><a xlink:title=" ">
<polygon fill="white" stroke="#bfbfbf" points="106.841,-56.5 106.841,-75.5 179.841,-75.5 179.841,-56.5 106.841,-56.5"/>
<text text-anchor="middle" x="143.341" y="-63.5" font-family="Helvetica,sans-Serif" font-size="10.00">initializer_list</text>
</a>
</g>
</g>
<!-- Node6&#45;&gt;Node7 -->
<g id="edge8" class="edge"><title>Node6&#45;&gt;Node7</title>
<path fill="none" stroke="midnightblue" d="M122.47,-112.083C125.855,-104.77 130.757,-94.1814 134.96,-85.1034"/>
<polygon fill="midnightblue" stroke="midnightblue" points="138.265,-86.2962 139.29,-75.7511 131.912,-83.3553 138.265,-86.2962"/>
</g>
<!-- Node8&#45;&gt;Node2 -->
<g id="edge11" class="edge"><title>Node8&#45;&gt;Node2</title>
<path fill="none" stroke="midnightblue" d="M57.9524,-131.655C71.5434,-139.835 89.8499,-152.277 102.874,-162.061"/>
<polygon fill="midnightblue" stroke="midnightblue" points="100.882,-164.946 110.924,-168.324 105.181,-159.421 100.882,-164.946"/>
</g>
<!-- Node8&#45;&gt;Node4 -->
<g id="edge12" class="edge"><title>Node8&#45;&gt;Node4</title>
<path fill="none" stroke="midnightblue" d="M43.6439,-112.083C46.3233,-104.849 50.19,-94.4087 53.5277,-85.3968"/>
<polygon fill="midnightblue" stroke="midnightblue" points="56.9091,-86.3442 57.1002,-75.7511 50.3449,-83.9129 56.9091,-86.3442"/>
</g>
<!-- Node9&#45;&gt;Node5 -->
<g id="edge15" class="edge"><title>Node9&#45;&gt;Node5</title>
<path fill="none" stroke="midnightblue" d="M300.757,-112.324C285.342,-103.743 261.529,-90.486 243.632,-80.5224"/>
<polygon fill="midnightblue" stroke="midnightblue" points="245.327,-77.4606 234.887,-75.6545 241.922,-83.5767 245.327,-77.4606"/>
</g>
<!-- Node9&#45;&gt;Node7 -->
<g id="edge14" class="edge"><title>Node9&#45;&gt;Node7</title>
<path fill="none" stroke="midnightblue" d="M288.929,-112.444C259.572,-103.28 212.822,-88.6876 180.245,-78.5192"/>
<polygon fill="midnightblue" stroke="midnightblue" points="181.214,-75.1551 170.625,-75.5164 179.128,-81.8371 181.214,-75.1551"/>
</g>
<!-- Node10 -->
<g id="node10" class="node"><title>Node10</title>
<g id="a_node10"><a xlink:href="a04526.html" target="_top" xlink:title="顺序栈类">
<polygon fill="white" stroke="black" points="353.341,-56.5 353.341,-75.5 429.341,-75.5 429.341,-56.5 353.341,-56.5"/>
<text text-anchor="middle" x="391.341" y="-63.5" font-family="Helvetica,sans-Serif" font-size="10.00">linkStack.hpp</text>
</a>
</g>
</g>
<!-- Node9&#45;&gt;Node10 -->
<g id="edge16" class="edge"><title>Node9&#45;&gt;Node10</title>
<path fill="none" stroke="midnightblue" d="M323.277,-112.324C333.152,-103.9 350.812,-90.9709 365.785,-81.0741"/>
<polygon fill="midnightblue" stroke="midnightblue" points="367.694,-84.0077 374.211,-75.6545 363.907,-78.1203 367.694,-84.0077"/>
</g>
<!-- Node11 -->
<g id="node11" class="node"><title>Node11</title>
<g id="a_node11"><a xlink:href="a04541.html" target="_top" xlink:title=" ">
<polygon fill="white" stroke="black" points="257.841,-56.5 257.841,-75.5 334.841,-75.5 334.841,-56.5 257.841,-56.5"/>
<text text-anchor="middle" x="296.341" y="-63.5" font-family="Helvetica,sans-Serif" font-size="10.00">seqStack.hxx</text>
</a>
</g>
</g>
<!-- Node9&#45;&gt;Node11 -->
<g id="edge18" class="edge"><title>Node9&#45;&gt;Node11</title>
<path fill="none" stroke="midnightblue" d="M313.039,-112.083C310.359,-104.849 306.493,-94.4087 303.155,-85.3968"/>
<polygon fill="midnightblue" stroke="midnightblue" points="306.338,-83.9129 299.582,-75.7511 299.774,-86.3442 306.338,-83.9129"/>
</g>
<!-- Node10&#45;&gt;Node9 -->
<g id="edge17" class="edge"><title>Node10&#45;&gt;Node9</title>
<path fill="none" stroke="midnightblue" d="M384.221,-75.8339C374.4,-84.1845 357.094,-96.8592 342.302,-106.658"/>
<polygon fill="midnightblue" stroke="midnightblue" points="340.018,-103.966 333.506,-112.324 343.808,-109.851 340.018,-103.966"/>
</g>
<!-- Node12 -->
<g id="node12" class="node"><title>Node12</title>
<g id="a_node12"><a xlink:title=" ">
<polygon fill="white" stroke="#bfbfbf" points="238.341,-0.5 238.341,-19.5 288.341,-19.5 288.341,-0.5 238.341,-0.5"/>
<text text-anchor="middle" x="263.341" y="-7.5" font-family="Helvetica,sans-Serif" font-size="10.00">Stack.h</text>
</a>
</g>
</g>
<!-- Node11&#45;&gt;Node12 -->
<g id="edge19" class="edge"><title>Node11&#45;&gt;Node12</title>
<path fill="none" stroke="midnightblue" d="M290.892,-56.083C286.327,-48.6127 279.673,-37.7244 274.048,-28.5199"/>
<polygon fill="midnightblue" stroke="midnightblue" points="276.89,-26.4588 268.689,-19.7511 270.917,-30.109 276.89,-26.4588"/>
</g>
<!-- Node13 -->
<g id="node13" class="node"><title>Node13</title>
<g id="a_node13"><a xlink:title=" ">
<polygon fill="white" stroke="#bfbfbf" points="306.841,-0.5 306.841,-19.5 351.841,-19.5 351.841,-0.5 306.841,-0.5"/>
<text text-anchor="middle" x="329.341" y="-7.5" font-family="Helvetica,sans-Serif" font-size="10.00">climits</text>
</a>
</g>
</g>
<!-- Node11&#45;&gt;Node13 -->
<g id="edge20" class="edge"><title>Node11&#45;&gt;Node13</title>
<path fill="none" stroke="midnightblue" d="M301.791,-56.083C306.356,-48.6127 313.01,-37.7244 318.635,-28.5199"/>
<polygon fill="midnightblue" stroke="midnightblue" points="321.765,-30.109 323.993,-19.7511 315.792,-26.4588 321.765,-30.109"/>
</g>
</g>
</svg>
        <g id="navigator" transform="translate(0 0)" fill="#404254">
                <rect fill="#f2f5e9" fill-opacity="0.5" stroke="#606060" stroke-width=".5" x="0" y="0" width="60" height="60"/>
                <use id="zoomplus" xlink:href="#zoomPlus" x="17" y="9" onmousedown="handleZoom(evt,'in')"/>
                <use id="zoomminus" xlink:href="#zoomMin" x="42" y="9" onmousedown="handleZoom(evt,'out')"/>
                <use id="reset" xlink:href="#resetDef" x="30" y="36" onmousedown="handleReset()"/>
                <g id="arrowUp" xlink:href="#dirArrow" transform="translate(30 24)" onmousedown="handlePan(0,-1)">
                  <use xlink:href="#rim" fill="#404040">
                        <set attributeName="fill" to="#808080" begin="arrowUp.mouseover" end="arrowUp.mouseout"/>
                  </use>
                  <path fill="none" stroke="white" stroke-width="1.5" d="M0,-3.0v7 M-2.5,-0.5L0,-3.0L2.5,-0.5"/>
                </g>
                <g id="arrowRight" xlink:href="#dirArrow" transform="rotate(90) translate(36 -43)" onmousedown="handlePan(1,0)">
                  <use xlink:href="#rim" fill="#404040">
                        <set attributeName="fill" to="#808080" begin="arrowRight.mouseover" end="arrowRight.mouseout"/>
                  </use>
                  <path fill="none" stroke="white" stroke-width="1.5" d="M0,-3.0v7 M-2.5,-0.5L0,-3.0L2.5,-0.5"/>
                </g>
                <g id="arrowDown" xlink:href="#dirArrow" transform="rotate(180) translate(-30 -48)" onmousedown="handlePan(0,1)">
                  <use xlink:href="#rim" fill="#404040">
                        <set attributeName="fill" to="#808080" begin="arrowDown.mouseover" end="arrowDown.mouseout"/>
                  </use>
                  <path fill="none" stroke="white" stroke-width="1.5" d="M0,-3.0v7 M-2.5,-0.5L0,-3.0L2.5,-0.5"/>
                </g>
                <g id="arrowLeft" xlink:href="#dirArrow" transform="rotate(270) translate(-36 17)" onmousedown="handlePan(-1,0)">
                  <use xlink:href="#rim" fill="#404040">
                        <set attributeName="fill" to="#808080" begin="arrowLeft.mouseover" end="arrowLeft.mouseout"/>
                  </use>
                  <path fill="none" stroke="white" stroke-width="1.5" d="M0,-3.0v7 M-2.5,-0.5L0,-3.0L2.5,-0.5"/>
                </g>
        </g>
        <svg viewBox="0 0 15 15" width="100%" height="30px" preserveAspectRatio="xMaxYMin meet">
         <g id="arrow_out" transform="scale(0.3 0.3)">
          <a xlink:href="a04536_org.svg" target="_base">
           <rect id="button" ry="5" rx="5" y="6" x="6" height="38" width="38"
                fill="#f2f5e9" fill-opacity="0.5" stroke="#606060" stroke-width="1.0"/>
           <path id="arrow"
             d="M 11.500037,31.436501 C 11.940474,20.09759 22.043105,11.32322 32.158766,21.979434 L 37.068811,17.246167 C 37.068811,17.246167 37.088388,32 37.088388,32 L 22.160133,31.978069 C 22.160133,31.978069 26.997745,27.140456 26.997745,27.140456 C 18.528582,18.264221 13.291696,25.230495 11.500037,31.436501 z"
             style="fill:#404040;"/>
          </a>
         </g>
        </svg>
</svg>
