<?xml version="1.0" encoding="UTF-8" standalone="no"?>
<!DOCTYPE svg PUBLIC "-//W3C//DTD SVG 1.1//EN"
 "http://www.w3.org/Graphics/SVG/1.1/DTD/svg11.dtd">
<!-- Generated by graphviz version 2.38.0 (20140413.2041)
 -->
<!-- Title: include/dLinkList.h Pages: 1 -->
<svg width="249pt" height="196pt"
 viewBox="0.00 0.00 248.50 196.00" xmlns="http://www.w3.org/2000/svg" xmlns:xlink="http://www.w3.org/1999/xlink">
<g id="graph0" class="graph" transform="scale(1 1) rotate(0) translate(4 192)">
<title>include/dLinkList.h</title>
<polygon fill="white" stroke="none" points="-4,4 -4,-192 244.5,-192 244.5,4 -4,4"/>
<!-- Node1 -->
<g id="node1" class="node"><title>Node1</title>
<g id="a_node1"><a xlink:title="双链表类">
<polygon fill="#bfbfbf" stroke="black" points="95.5,-168.5 95.5,-187.5 193.5,-187.5 193.5,-168.5 95.5,-168.5"/>
<text text-anchor="middle" x="144.5" y="-175.5" font-family="Helvetica,sans-Serif" font-size="10.00">include/dLinkList.h</text>
</a>
</g>
</g>
<!-- Node2 -->
<g id="node2" class="node"><title>Node2</title>
<g id="a_node2"><a xlink:href="a04529.html" target="_top" xlink:title="栈的抽象类">
<polygon fill="white" stroke="black" points="96,-112.5 96,-131.5 137,-131.5 137,-112.5 96,-112.5"/>
<text text-anchor="middle" x="116.5" y="-119.5" font-family="Helvetica,sans-Serif" font-size="10.00">List.h</text>
</a>
</g>
</g>
<!-- Node1&#45;&gt;Node2 -->
<g id="edge1" class="edge"><title>Node1&#45;&gt;Node2</title>
<path fill="none" stroke="midnightblue" d="M134.71,-168.083C129.375,-160.77 123.469,-150.181 119.474,-141.103"/>
<polygon fill="midnightblue" stroke="midnightblue" points="122.741,-139.847 115.907,-131.751 116.2,-142.342 122.741,-139.847"/>
</g>
<!-- Node5 -->
<g id="node5" class="node"><title>Node5</title>
<g id="a_node5"><a xlink:title=" ">
<polygon fill="white" stroke="#bfbfbf" points="91.5,-0.5 91.5,-19.5 145.5,-19.5 145.5,-0.5 91.5,-0.5"/>
<text text-anchor="middle" x="118.5" y="-7.5" font-family="Helvetica,sans-Serif" font-size="10.00">iostream</text>
</a>
</g>
</g>
<!-- Node1&#45;&gt;Node5 -->
<g id="edge10" class="edge"><title>Node1&#45;&gt;Node5</title>
<path fill="none" stroke="midnightblue" d="M147.376,-168.492C153.722,-148.317 167.309,-96.2481 153.5,-56 149.781,-45.161 142.267,-34.9216 135.151,-26.9566"/>
<polygon fill="midnightblue" stroke="midnightblue" points="137.501,-24.3498 128.056,-19.5497 132.446,-29.1922 137.501,-24.3498"/>
</g>
<!-- Node7 -->
<g id="node7" class="node"><title>Node7</title>
<g id="a_node7"><a xlink:title=" ">
<polygon fill="white" stroke="#bfbfbf" points="200.5,-112.5 200.5,-131.5 240.5,-131.5 240.5,-112.5 200.5,-112.5"/>
<text text-anchor="middle" x="220.5" y="-119.5" font-family="Helvetica,sans-Serif" font-size="10.00">utility</text>
</a>
</g>
</g>
<!-- Node1&#45;&gt;Node7 -->
<g id="edge11" class="edge"><title>Node1&#45;&gt;Node7</title>
<path fill="none" stroke="midnightblue" d="M156.711,-168.324C168.276,-160.107 185.875,-147.602 199.661,-137.807"/>
<polygon fill="midnightblue" stroke="midnightblue" points="201.943,-140.479 208.067,-131.834 197.888,-134.773 201.943,-140.479"/>
</g>
<!-- Node2&#45;&gt;Node1 -->
<g id="edge2" class="edge"><title>Node2&#45;&gt;Node1</title>
<path fill="none" stroke="midnightblue" d="M126.169,-131.751C131.494,-139.014 137.41,-149.589 141.435,-158.69"/>
<polygon fill="midnightblue" stroke="midnightblue" points="138.19,-160.003 145.043,-168.083 144.725,-157.493 138.19,-160.003"/>
</g>
<!-- Node3 -->
<g id="node3" class="node"><title>Node3</title>
<g id="a_node3"><a xlink:href="a04544.html" target="_top" xlink:title="单链表类的定义和实现">
<polygon fill="white" stroke="black" points="6.5,-56.5 6.5,-75.5 70.5,-75.5 70.5,-56.5 6.5,-56.5"/>
<text text-anchor="middle" x="38.5" y="-63.5" font-family="Helvetica,sans-Serif" font-size="10.00">sLinkList.h</text>
</a>
</g>
</g>
<!-- Node2&#45;&gt;Node3 -->
<g id="edge3" class="edge"><title>Node2&#45;&gt;Node3</title>
<path fill="none" stroke="midnightblue" d="M98.8531,-112.324C85.3344,-104.185 67.1644,-91.8395 54.1645,-82.0874"/>
<polygon fill="midnightblue" stroke="midnightblue" points="56.1563,-79.2028 46.1114,-75.8339 51.863,-84.7316 56.1563,-79.2028"/>
</g>
<!-- Node6 -->
<g id="node6" class="node"><title>Node6</title>
<g id="a_node6"><a xlink:href="a04538.html" target="_top" xlink:title="顺序表类">
<polygon fill="white" stroke="black" points="88.5,-56.5 88.5,-75.5 144.5,-75.5 144.5,-56.5 88.5,-56.5"/>
<text text-anchor="middle" x="116.5" y="-63.5" font-family="Helvetica,sans-Serif" font-size="10.00">seqList.h</text>
</a>
</g>
</g>
<!-- Node2&#45;&gt;Node6 -->
<g id="edge7" class="edge"><title>Node2&#45;&gt;Node6</title>
<path fill="none" stroke="midnightblue" d="M111.334,-112.083C109.824,-104.927 109.394,-94.6353 110.042,-85.6911"/>
<polygon fill="midnightblue" stroke="midnightblue" points="113.515,-86.1262 111.369,-75.7511 106.577,-85.2002 113.515,-86.1262"/>
</g>
<!-- Node3&#45;&gt;Node2 -->
<g id="edge4" class="edge"><title>Node3&#45;&gt;Node2</title>
<path fill="none" stroke="midnightblue" d="M56.1111,-75.6545C69.702,-83.8346 88.0086,-96.2772 101.033,-106.061"/>
<polygon fill="midnightblue" stroke="midnightblue" points="99.041,-108.946 109.083,-112.324 103.34,-103.421 99.041,-108.946"/>
</g>
<!-- Node4 -->
<g id="node4" class="node"><title>Node4</title>
<g id="a_node4"><a xlink:title=" ">
<polygon fill="white" stroke="#bfbfbf" points="0,-0.5 0,-19.5 73,-19.5 73,-0.5 0,-0.5"/>
<text text-anchor="middle" x="36.5" y="-7.5" font-family="Helvetica,sans-Serif" font-size="10.00">initializer_list</text>
</a>
</g>
</g>
<!-- Node3&#45;&gt;Node4 -->
<g id="edge5" class="edge"><title>Node3&#45;&gt;Node4</title>
<path fill="none" stroke="midnightblue" d="M38.1697,-56.083C37.9076,-49.0059 37.5319,-38.8611 37.2032,-29.9865"/>
<polygon fill="midnightblue" stroke="midnightblue" points="40.6919,-29.6147 36.8241,-19.7511 33.6967,-29.8738 40.6919,-29.6147"/>
</g>
<!-- Node3&#45;&gt;Node5 -->
<g id="edge6" class="edge"><title>Node3&#45;&gt;Node5</title>
<path fill="none" stroke="midnightblue" d="M51.3534,-56.324C63.7164,-47.979 82.6301,-35.2122 97.2372,-25.3524"/>
<polygon fill="midnightblue" stroke="midnightblue" points="99.3482,-28.1503 105.679,-19.6545 95.4318,-22.3483 99.3482,-28.1503"/>
</g>
<!-- Node6&#45;&gt;Node2 -->
<g id="edge8" class="edge"><title>Node6&#45;&gt;Node2</title>
<path fill="none" stroke="midnightblue" d="M121.631,-75.7511C123.157,-82.8579 123.604,-93.1357 122.972,-102.101"/>
<polygon fill="midnightblue" stroke="midnightblue" points="119.493,-101.713 121.666,-112.083 126.434,-102.622 119.493,-101.713"/>
</g>
<!-- Node6&#45;&gt;Node5 -->
<g id="edge9" class="edge"><title>Node6&#45;&gt;Node5</title>
<path fill="none" stroke="midnightblue" d="M116.83,-56.083C117.092,-49.0059 117.468,-38.8611 117.797,-29.9865"/>
<polygon fill="midnightblue" stroke="midnightblue" points="121.303,-29.8738 118.176,-19.7511 114.308,-29.6147 121.303,-29.8738"/>
</g>
</g>
</svg>
