<?xml version="1.0" encoding="UTF-8" standalone="no"?>
<!DOCTYPE svg PUBLIC "-//W3C//DTD SVG 1.1//EN"
 "http://www.w3.org/Graphics/SVG/1.1/DTD/svg11.dtd">
<!-- Generated by graphviz version 2.38.0 (20140413.2041)
 -->
<!-- Title: main Pages: 1 -->
<svg width="310pt" height="66pt"
 viewBox="0.00 0.00 310.00 66.00" xmlns="http://www.w3.org/2000/svg" xmlns:xlink="http://www.w3.org/1999/xlink">
<g id="graph0" class="graph" transform="scale(1 1) rotate(0) translate(4 62)">
<title>main</title>
<polygon fill="white" stroke="none" points="-4,4 -4,-62 306,-62 306,4 -4,4"/>
<!-- Node1 -->
<g id="node1" class="node"><title>Node1</title>
<g id="a_node1"><a xlink:title="将非负十进制实数以其二进制形式打印">
<polygon fill="#bfbfbf" stroke="black" points="0,-19.5 0,-38.5 38,-38.5 38,-19.5 0,-19.5"/>
<text text-anchor="middle" x="19" y="-26.5" font-family="Helvetica,sans-Serif" font-size="10.00">main</text>
</a>
</g>
</g>
<!-- Node2 -->
<g id="node2" class="node"><title>Node2</title>
<g id="a_node2"><a xlink:href="a04553.html#a2a1cc28671495c0727d788f23efbf908" target="_top" xlink:title="将（非负）十进制纯小数以其二进制形式打印">
<polygon fill="white" stroke="black" points="74,-38.5 74,-57.5 150,-57.5 150,-38.5 74,-38.5"/>
<text text-anchor="middle" x="112" y="-45.5" font-family="Helvetica,sans-Serif" font-size="10.00">prnPDecInBin</text>
</a>
</g>
</g>
<!-- Node1&#45;&gt;Node2 -->
<g id="edge1" class="edge"><title>Node1&#45;&gt;Node2</title>
<path fill="none" stroke="midnightblue" d="M38.4152,-32.8449C45.8905,-34.4057 54.8994,-36.2867 63.9888,-38.1845"/>
<polygon fill="midnightblue" stroke="midnightblue" points="63.3103,-41.6182 73.8145,-40.236 64.741,-34.766 63.3103,-41.6182"/>
</g>
<!-- Node3 -->
<g id="node3" class="node"><title>Node3</title>
<g id="a_node3"><a xlink:href="a04553.html#aaa0bbb610bee03cf93ee15fed263627a" target="_top" xlink:title="将十进制非负整数以其二进制形式打印">
<polygon fill="white" stroke="black" points="77.5,-0.5 77.5,-19.5 146.5,-19.5 146.5,-0.5 77.5,-0.5"/>
<text text-anchor="middle" x="112" y="-7.5" font-family="Helvetica,sans-Serif" font-size="10.00">prnUIntInBin</text>
</a>
</g>
</g>
<!-- Node1&#45;&gt;Node3 -->
<g id="edge2" class="edge"><title>Node1&#45;&gt;Node3</title>
<path fill="none" stroke="midnightblue" d="M38.4152,-25.1551C46.7507,-23.4147 56.993,-21.2762 67.1274,-19.1602"/>
<polygon fill="midnightblue" stroke="midnightblue" points="68.0778,-22.5373 77.1513,-17.0673 66.6471,-15.6851 68.0778,-22.5373"/>
</g>
<!-- Node4 -->
<g id="node4" class="node"><title>Node4</title>
<g id="a_node4"><a xlink:href="a05411.html#a3425bfbff5c6945af2dd9683405a0e0b" target="_top" xlink:title=" ">
<polygon fill="white" stroke="black" points="186,-0.5 186,-19.5 302,-19.5 302,-0.5 186,-0.5"/>
<text text-anchor="middle" x="244" y="-7.5" font-family="Helvetica,sans-Serif" font-size="10.00">Stack::linkStack::push</text>
</a>
</g>
</g>
<!-- Node3&#45;&gt;Node4 -->
<g id="edge3" class="edge"><title>Node3&#45;&gt;Node4</title>
<path fill="none" stroke="midnightblue" d="M146.817,-10C155.788,-10 165.798,-10 175.876,-10"/>
<polygon fill="midnightblue" stroke="midnightblue" points="175.941,-13.5001 185.941,-10 175.941,-6.5001 175.941,-13.5001"/>
</g>
</g>
</svg>
