<?xml version="1.0" encoding="UTF-8" standalone="no"?>
<!DOCTYPE svg PUBLIC "-//W3C//DTD SVG 1.1//EN"
 "http://www.w3.org/Graphics/SVG/1.1/DTD/svg11.dtd">
<!-- Generated by graphviz version 2.38.0 (20140413.2041)
 -->
<!-- Title: include/List.h Pages: 1 -->
<svg width="471pt" height="140pt"
 viewBox="0.00 0.00 470.50 140.00" xmlns="http://www.w3.org/2000/svg" xmlns:xlink="http://www.w3.org/1999/xlink">
<g id="graph0" class="graph" transform="scale(1 1) rotate(0) translate(4 136)">
<title>include/List.h</title>
<polygon fill="white" stroke="none" points="-4,4 -4,-136 466.5,-136 466.5,4 -4,4"/>
<!-- Node1 -->
<g id="node1" class="node"><title>Node1</title>
<g id="a_node1"><a xlink:title="栈的抽象类">
<polygon fill="#bfbfbf" stroke="black" points="128,-112.5 128,-131.5 202,-131.5 202,-112.5 128,-112.5"/>
<text text-anchor="middle" x="165" y="-119.5" font-family="Helvetica,sans-Serif" font-size="10.00">include/List.h</text>
</a>
</g>
</g>
<!-- Node2 -->
<g id="node2" class="node"><title>Node2</title>
<g id="a_node2"><a xlink:href="a04523.html" target="_top" xlink:title="双链表类">
<polygon fill="white" stroke="black" points="0,-56.5 0,-75.5 98,-75.5 98,-56.5 0,-56.5"/>
<text text-anchor="middle" x="49" y="-63.5" font-family="Helvetica,sans-Serif" font-size="10.00">include/dLinkList.h</text>
</a>
</g>
</g>
<!-- Node1&#45;&gt;Node2 -->
<g id="edge1" class="edge"><title>Node1&#45;&gt;Node2</title>
<path fill="none" stroke="midnightblue" d="M132.048,-108.368C108.87,-98.2553 79.2415,-84.3486 62.2146,-75.5164"/>
<polygon fill="midnightblue" stroke="midnightblue" points="130.961,-111.71 141.531,-112.444 133.725,-105.279 130.961,-111.71"/>
</g>
<!-- Node3 -->
<g id="node3" class="node"><title>Node3</title>
<g id="a_node3"><a xlink:href="a04544.html" target="_top" xlink:title="单链表类的定义和实现">
<polygon fill="white" stroke="black" points="116,-56.5 116,-75.5 214,-75.5 214,-56.5 116,-56.5"/>
<text text-anchor="middle" x="165" y="-63.5" font-family="Helvetica,sans-Serif" font-size="10.00">include/sLinkList.h</text>
</a>
</g>
</g>
<!-- Node1&#45;&gt;Node3 -->
<g id="edge3" class="edge"><title>Node1&#45;&gt;Node3</title>
<path fill="none" stroke="midnightblue" d="M158.528,-102.101C157.896,-93.1357 158.343,-82.8579 159.869,-75.7511"/>
<polygon fill="midnightblue" stroke="midnightblue" points="155.066,-102.622 159.834,-112.083 162.007,-101.713 155.066,-102.622"/>
</g>
<!-- Node4 -->
<g id="node4" class="node"><title>Node4</title>
<g id="a_node4"><a xlink:href="a04538.html" target="_top" xlink:title="顺序表类">
<polygon fill="white" stroke="black" points="232,-56.5 232,-75.5 322,-75.5 322,-56.5 232,-56.5"/>
<text text-anchor="middle" x="277" y="-63.5" font-family="Helvetica,sans-Serif" font-size="10.00">include/seqList.h</text>
</a>
</g>
</g>
<!-- Node1&#45;&gt;Node4 -->
<g id="edge5" class="edge"><title>Node1&#45;&gt;Node4</title>
<path fill="none" stroke="midnightblue" d="M186.89,-107.59C206.272,-97.6052 234.207,-84.2672 253.94,-75.6545"/>
<polygon fill="midnightblue" stroke="midnightblue" points="185.104,-104.574 177.88,-112.324 188.36,-110.771 185.104,-104.574"/>
</g>
<!-- Node5 -->
<g id="node5" class="node"><title>Node5</title>
<g id="a_node5"><a xlink:href="a04535.html" target="_top" xlink:title="后缀表达式类">
<polygon fill="white" stroke="black" points="340.5,-56.5 340.5,-75.5 421.5,-75.5 421.5,-56.5 340.5,-56.5"/>
<text text-anchor="middle" x="381" y="-63.5" font-family="Helvetica,sans-Serif" font-size="10.00">include/Rpn.hh</text>
</a>
</g>
</g>
<!-- Node1&#45;&gt;Node5 -->
<g id="edge7" class="edge"><title>Node1&#45;&gt;Node5</title>
<path fill="none" stroke="midnightblue" d="M209.164,-109.959C249.961,-99.7598 309.713,-84.8217 346.934,-75.5164"/>
<polygon fill="midnightblue" stroke="midnightblue" points="208.078,-106.623 199.226,-112.444 209.776,-113.414 208.078,-106.623"/>
</g>
<!-- Node2&#45;&gt;Node1 -->
<g id="edge2" class="edge"><title>Node2&#45;&gt;Node1</title>
<path fill="none" stroke="midnightblue" d="M82.1245,-79.7074C105.138,-89.7527 134.445,-103.507 151.477,-112.324"/>
<polygon fill="midnightblue" stroke="midnightblue" points="83.2706,-76.3904 72.7013,-75.6545 80.5048,-82.8208 83.2706,-76.3904"/>
</g>
<!-- Node3&#45;&gt;Node1 -->
<g id="edge4" class="edge"><title>Node3&#45;&gt;Node1</title>
<path fill="none" stroke="midnightblue" d="M171.458,-85.6911C172.106,-94.6353 171.676,-104.927 170.166,-112.083"/>
<polygon fill="midnightblue" stroke="midnightblue" points="174.923,-85.2002 170.131,-75.7511 167.985,-86.1262 174.923,-85.2002"/>
</g>
<!-- Node4&#45;&gt;Node1 -->
<g id="edge6" class="edge"><title>Node4&#45;&gt;Node1</title>
<path fill="none" stroke="midnightblue" d="M255.385,-80.2685C235.92,-90.3059 207.674,-103.794 187.835,-112.444"/>
<polygon fill="midnightblue" stroke="midnightblue" points="257.196,-83.2704 264.416,-75.5164 253.937,-77.0757 257.196,-83.2704"/>
</g>
<!-- Node6 -->
<g id="node6" class="node"><title>Node6</title>
<g id="a_node6"><a xlink:href="a04559.html" target="_top" xlink:title="中缀表达式转为后缀表达式">
<polygon fill="white" stroke="black" points="298.5,-0.5 298.5,-19.5 371.5,-19.5 371.5,-0.5 298.5,-0.5"/>
<text text-anchor="middle" x="335" y="-7.5" font-family="Helvetica,sans-Serif" font-size="10.00">src/ch3_4.cc</text>
</a>
</g>
</g>
<!-- Node5&#45;&gt;Node6 -->
<g id="edge8" class="edge"><title>Node5&#45;&gt;Node6</title>
<path fill="none" stroke="midnightblue" d="M366.886,-48.4314C358.824,-38.9673 349.041,-27.4827 342.455,-19.7511"/>
<polygon fill="midnightblue" stroke="midnightblue" points="364.255,-50.7402 373.404,-56.083 369.584,-46.2009 364.255,-50.7402"/>
</g>
<!-- Node7 -->
<g id="node7" class="node"><title>Node7</title>
<g id="a_node7"><a xlink:href="a04562.html" target="_top" xlink:title="后缀表达式的计算">
<polygon fill="white" stroke="black" points="389.5,-0.5 389.5,-19.5 462.5,-19.5 462.5,-0.5 389.5,-0.5"/>
<text text-anchor="middle" x="426" y="-7.5" font-family="Helvetica,sans-Serif" font-size="10.00">src/ch3_5.cc</text>
</a>
</g>
</g>
<!-- Node5&#45;&gt;Node7 -->
<g id="edge9" class="edge"><title>Node5&#45;&gt;Node7</title>
<path fill="none" stroke="midnightblue" d="M395.047,-48.144C402.887,-38.7357 412.329,-27.4046 418.707,-19.7511"/>
<polygon fill="midnightblue" stroke="midnightblue" points="392.144,-46.1601 388.431,-56.083 397.521,-50.6414 392.144,-46.1601"/>
</g>
</g>
</svg>
