<?xml version="1.0" encoding="UTF-8" standalone="no"?>
<!DOCTYPE svg PUBLIC "-//W3C//DTD SVG 1.1//EN"
 "http://www.w3.org/Graphics/SVG/1.1/DTD/svg11.dtd">
<!-- Generated by graphviz version 2.38.0 (20140413.2041)
 -->
<!-- Title: src/ch3_3.cc Pages: 1 -->
<svg width="443pt" height="252pt"
 viewBox="0.00 0.00 442.50 252.00" xmlns="http://www.w3.org/2000/svg" xmlns:xlink="http://www.w3.org/1999/xlink">
<g id="graph0" class="graph" transform="scale(1 1) rotate(0) translate(4 248)">
<title>src/ch3_3.cc</title>
<polygon fill="white" stroke="none" points="-4,4 -4,-248 438.5,-248 438.5,4 -4,4"/>
<!-- Node1 -->
<g id="node1" class="node"><title>Node1</title>
<g id="a_node1"><a xlink:title="全排列的递归和非递归实现">
<polygon fill="#bfbfbf" stroke="black" points="211.5,-224.5 211.5,-243.5 284.5,-243.5 284.5,-224.5 211.5,-224.5"/>
<text text-anchor="middle" x="248" y="-231.5" font-family="Helvetica,sans-Serif" font-size="10.00">src/ch3_3.cc</text>
</a>
</g>
</g>
<!-- Node2 -->
<g id="node2" class="node"><title>Node2</title>
<g id="a_node2"><a xlink:href="a04532.html" target="_top" xlink:title="全排列">
<polygon fill="white" stroke="black" points="214.5,-168.5 214.5,-187.5 281.5,-187.5 281.5,-168.5 214.5,-168.5"/>
<text text-anchor="middle" x="248" y="-175.5" font-family="Helvetica,sans-Serif" font-size="10.00">Permute.hh</text>
</a>
</g>
</g>
<!-- Node1&#45;&gt;Node2 -->
<g id="edge1" class="edge"><title>Node1&#45;&gt;Node2</title>
<path fill="none" stroke="midnightblue" d="M248,-224.083C248,-217.006 248,-206.861 248,-197.986"/>
<polygon fill="midnightblue" stroke="midnightblue" points="251.5,-197.751 248,-187.751 244.5,-197.751 251.5,-197.751"/>
</g>
<!-- Node3 -->
<g id="node3" class="node"><title>Node3</title>
<g id="a_node3"><a xlink:href="a04547.html" target="_top" xlink:title="栈的抽象类">
<polygon fill="white" stroke="black" points="113,-112.5 113,-131.5 169,-131.5 169,-112.5 113,-112.5"/>
<text text-anchor="middle" x="141" y="-119.5" font-family="Helvetica,sans-Serif" font-size="10.00">Stack.hh</text>
</a>
</g>
</g>
<!-- Node2&#45;&gt;Node3 -->
<g id="edge2" class="edge"><title>Node2&#45;&gt;Node3</title>
<path fill="none" stroke="midnightblue" d="M230.809,-168.324C213.649,-159.664 187.054,-146.242 167.253,-136.249"/>
<polygon fill="midnightblue" stroke="midnightblue" points="168.653,-133.035 158.149,-131.655 165.499,-139.285 168.653,-133.035"/>
</g>
<!-- Node5 -->
<g id="node5" class="node"><title>Node5</title>
<g id="a_node5"><a xlink:title=" ">
<polygon fill="white" stroke="#bfbfbf" points="0,-56.5 0,-75.5 40,-75.5 40,-56.5 0,-56.5"/>
<text text-anchor="middle" x="20" y="-63.5" font-family="Helvetica,sans-Serif" font-size="10.00">utility</text>
</a>
</g>
</g>
<!-- Node2&#45;&gt;Node5 -->
<g id="edge14" class="edge"><title>Node2&#45;&gt;Node5</title>
<path fill="none" stroke="midnightblue" d="M214.376,-170.076C184.319,-163.067 139.648,-150.592 104,-132 78.3822,-118.639 52.6557,-97.2836 36.5506,-82.7249"/>
<polygon fill="midnightblue" stroke="midnightblue" points="38.7797,-80.0193 29.0571,-75.8095 34.0323,-85.1635 38.7797,-80.0193"/>
</g>
<!-- Node10 -->
<g id="node10" class="node"><title>Node10</title>
<g id="a_node10"><a xlink:title=" ">
<polygon fill="white" stroke="#bfbfbf" points="187,-112.5 187,-131.5 243,-131.5 243,-112.5 187,-112.5"/>
<text text-anchor="middle" x="215" y="-119.5" font-family="Helvetica,sans-Serif" font-size="10.00">algorithm</text>
</a>
</g>
</g>
<!-- Node2&#45;&gt;Node10 -->
<g id="edge10" class="edge"><title>Node2&#45;&gt;Node10</title>
<path fill="none" stroke="midnightblue" d="M242.551,-168.083C237.986,-160.613 231.332,-149.724 225.707,-140.52"/>
<polygon fill="midnightblue" stroke="midnightblue" points="228.549,-138.459 220.348,-131.751 222.576,-142.109 228.549,-138.459"/>
</g>
<!-- Node11 -->
<g id="node11" class="node"><title>Node11</title>
<g id="a_node11"><a xlink:title=" ">
<polygon fill="white" stroke="#bfbfbf" points="261.5,-112.5 261.5,-131.5 302.5,-131.5 302.5,-112.5 261.5,-112.5"/>
<text text-anchor="middle" x="282" y="-119.5" font-family="Helvetica,sans-Serif" font-size="10.00">ctime</text>
</a>
</g>
</g>
<!-- Node2&#45;&gt;Node11 -->
<g id="edge11" class="edge"><title>Node2&#45;&gt;Node11</title>
<path fill="none" stroke="midnightblue" d="M253.614,-168.083C258.367,-160.534 265.318,-149.495 271.152,-140.23"/>
<polygon fill="midnightblue" stroke="midnightblue" points="274.124,-142.078 276.49,-131.751 268.2,-138.349 274.124,-142.078"/>
</g>
<!-- Node12 -->
<g id="node12" class="node"><title>Node12</title>
<g id="a_node12"><a xlink:title=" ">
<polygon fill="white" stroke="#bfbfbf" points="321,-112.5 321,-131.5 375,-131.5 375,-112.5 321,-112.5"/>
<text text-anchor="middle" x="348" y="-119.5" font-family="Helvetica,sans-Serif" font-size="10.00">iostream</text>
</a>
</g>
</g>
<!-- Node2&#45;&gt;Node12 -->
<g id="edge12" class="edge"><title>Node2&#45;&gt;Node12</title>
<path fill="none" stroke="midnightblue" d="M264.067,-168.324C279.958,-159.743 304.507,-146.486 322.958,-136.522"/>
<polygon fill="midnightblue" stroke="midnightblue" points="324.837,-139.486 331.973,-131.655 321.511,-133.326 324.837,-139.486"/>
</g>
<!-- Node13 -->
<g id="node13" class="node"><title>Node13</title>
<g id="a_node13"><a xlink:title=" ">
<polygon fill="white" stroke="#bfbfbf" points="393.5,-112.5 393.5,-131.5 434.5,-131.5 434.5,-112.5 393.5,-112.5"/>
<text text-anchor="middle" x="414" y="-119.5" font-family="Helvetica,sans-Serif" font-size="10.00">string</text>
</a>
</g>
</g>
<!-- Node2&#45;&gt;Node13 -->
<g id="edge13" class="edge"><title>Node2&#45;&gt;Node13</title>
<path fill="none" stroke="midnightblue" d="M274.303,-168.444C304.001,-158.783 352.248,-143.088 383.552,-132.905"/>
<polygon fill="midnightblue" stroke="midnightblue" points="384.649,-136.228 393.076,-129.807 382.484,-129.572 384.649,-136.228"/>
</g>
<!-- Node4 -->
<g id="node4" class="node"><title>Node4</title>
<g id="a_node4"><a xlink:title=" ">
<polygon fill="white" stroke="#bfbfbf" points="58.5,-56.5 58.5,-75.5 131.5,-75.5 131.5,-56.5 58.5,-56.5"/>
<text text-anchor="middle" x="95" y="-63.5" font-family="Helvetica,sans-Serif" font-size="10.00">initializer_list</text>
</a>
</g>
</g>
<!-- Node3&#45;&gt;Node4 -->
<g id="edge3" class="edge"><title>Node3&#45;&gt;Node4</title>
<path fill="none" stroke="midnightblue" d="M133.404,-112.083C126.773,-104.298 116.979,-92.8015 108.942,-83.3665"/>
<polygon fill="midnightblue" stroke="midnightblue" points="111.604,-81.0939 102.455,-75.7511 106.275,-85.6332 111.604,-81.0939"/>
</g>
<!-- Node3&#45;&gt;Node5 -->
<g id="edge4" class="edge"><title>Node3&#45;&gt;Node5</title>
<path fill="none" stroke="midnightblue" d="M121.827,-112.444C102.091,-103.636 71.1148,-89.8116 48.5066,-79.722"/>
<polygon fill="midnightblue" stroke="midnightblue" points="49.6414,-76.3957 39.0831,-75.5164 46.7886,-82.788 49.6414,-76.3957"/>
</g>
<!-- Node6 -->
<g id="node6" class="node"><title>Node6</title>
<g id="a_node6"><a xlink:href="a04526.html" target="_top" xlink:title="顺序栈类">
<polygon fill="white" stroke="black" points="150,-56.5 150,-75.5 226,-75.5 226,-56.5 150,-56.5"/>
<text text-anchor="middle" x="188" y="-63.5" font-family="Helvetica,sans-Serif" font-size="10.00">linkStack.hpp</text>
</a>
</g>
</g>
<!-- Node3&#45;&gt;Node6 -->
<g id="edge5" class="edge"><title>Node3&#45;&gt;Node6</title>
<path fill="none" stroke="midnightblue" d="M143.595,-112.083C148.832,-104.141 158.761,-92.3354 168.046,-82.7973"/>
<polygon fill="midnightblue" stroke="midnightblue" points="170.549,-85.2448 175.252,-75.7511 165.655,-80.2397 170.549,-85.2448"/>
</g>
<!-- Node7 -->
<g id="node7" class="node"><title>Node7</title>
<g id="a_node7"><a xlink:href="a04541.html" target="_top" xlink:title=" ">
<polygon fill="white" stroke="black" points="244.5,-56.5 244.5,-75.5 321.5,-75.5 321.5,-56.5 244.5,-56.5"/>
<text text-anchor="middle" x="283" y="-63.5" font-family="Helvetica,sans-Serif" font-size="10.00">seqStack.hxx</text>
</a>
</g>
</g>
<!-- Node3&#45;&gt;Node7 -->
<g id="edge7" class="edge"><title>Node3&#45;&gt;Node7</title>
<path fill="none" stroke="midnightblue" d="M163.5,-112.444C187.077,-103.478 224.322,-89.314 250.964,-79.1827"/>
<polygon fill="midnightblue" stroke="midnightblue" points="252.502,-82.3424 260.605,-75.5164 250.014,-75.7995 252.502,-82.3424"/>
</g>
<!-- Node6&#45;&gt;Node3 -->
<g id="edge6" class="edge"><title>Node6&#45;&gt;Node3</title>
<path fill="none" stroke="midnightblue" d="M185.46,-75.8339C180.228,-83.7906 170.236,-95.6731 160.905,-105.253"/>
<polygon fill="midnightblue" stroke="midnightblue" points="158.374,-102.833 153.666,-112.324 163.265,-107.84 158.374,-102.833"/>
</g>
<!-- Node8 -->
<g id="node8" class="node"><title>Node8</title>
<g id="a_node8"><a xlink:title=" ">
<polygon fill="white" stroke="#bfbfbf" points="225,-0.5 225,-19.5 275,-19.5 275,-0.5 225,-0.5"/>
<text text-anchor="middle" x="250" y="-7.5" font-family="Helvetica,sans-Serif" font-size="10.00">Stack.h</text>
</a>
</g>
</g>
<!-- Node7&#45;&gt;Node8 -->
<g id="edge8" class="edge"><title>Node7&#45;&gt;Node8</title>
<path fill="none" stroke="midnightblue" d="M277.551,-56.083C272.986,-48.6127 266.332,-37.7244 260.707,-28.5199"/>
<polygon fill="midnightblue" stroke="midnightblue" points="263.549,-26.4588 255.348,-19.7511 257.576,-30.109 263.549,-26.4588"/>
</g>
<!-- Node9 -->
<g id="node9" class="node"><title>Node9</title>
<g id="a_node9"><a xlink:title=" ">
<polygon fill="white" stroke="#bfbfbf" points="293.5,-0.5 293.5,-19.5 338.5,-19.5 338.5,-0.5 293.5,-0.5"/>
<text text-anchor="middle" x="316" y="-7.5" font-family="Helvetica,sans-Serif" font-size="10.00">climits</text>
</a>
</g>
</g>
<!-- Node7&#45;&gt;Node9 -->
<g id="edge9" class="edge"><title>Node7&#45;&gt;Node9</title>
<path fill="none" stroke="midnightblue" d="M288.449,-56.083C293.014,-48.6127 299.668,-37.7244 305.293,-28.5199"/>
<polygon fill="midnightblue" stroke="midnightblue" points="308.424,-30.109 310.652,-19.7511 302.451,-26.4588 308.424,-30.109"/>
</g>
</g>
</svg>
