<?xml version="1.0" encoding="UTF-8" standalone="no"?>
<!DOCTYPE svg PUBLIC "-//W3C//DTD SVG 1.1//EN"
 "http://www.w3.org/Graphics/SVG/1.1/DTD/svg11.dtd">
<!-- Generated by graphviz version 2.38.0 (20140413.2041)
 -->
<!-- Title: include/Stack.hh Pages: 1 -->
<svg width="346pt" height="140pt"
 viewBox="0.00 0.00 346.00 140.00" xmlns="http://www.w3.org/2000/svg" xmlns:xlink="http://www.w3.org/1999/xlink">
<g id="graph0" class="graph" transform="scale(1 1) rotate(0) translate(4 136)">
<title>include/Stack.hh</title>
<polygon fill="white" stroke="none" points="-4,4 -4,-136 342,-136 342,4 -4,4"/>
<!-- Node1 -->
<g id="node1" class="node"><title>Node1</title>
<g id="a_node1"><a xlink:title="栈的抽象类">
<polygon fill="#bfbfbf" stroke="black" points="143,-112.5 143,-131.5 232,-131.5 232,-112.5 143,-112.5"/>
<text text-anchor="middle" x="187.5" y="-119.5" font-family="Helvetica,sans-Serif" font-size="10.00">include/Stack.hh</text>
</a>
</g>
</g>
<!-- Node2 -->
<g id="node2" class="node"><title>Node2</title>
<g id="a_node2"><a xlink:title=" ">
<polygon fill="white" stroke="#bfbfbf" points="0,-56.5 0,-75.5 73,-75.5 73,-56.5 0,-56.5"/>
<text text-anchor="middle" x="36.5" y="-63.5" font-family="Helvetica,sans-Serif" font-size="10.00">initializer_list</text>
</a>
</g>
</g>
<!-- Node1&#45;&gt;Node2 -->
<g id="edge1" class="edge"><title>Node1&#45;&gt;Node2</title>
<path fill="none" stroke="midnightblue" d="M163.574,-112.444C138.281,-103.399 98.1976,-89.064 69.8202,-78.9158"/>
<polygon fill="midnightblue" stroke="midnightblue" points="70.9091,-75.5882 60.3145,-75.5164 68.5519,-82.1794 70.9091,-75.5882"/>
</g>
<!-- Node3 -->
<g id="node3" class="node"><title>Node3</title>
<g id="a_node3"><a xlink:title=" ">
<polygon fill="white" stroke="#bfbfbf" points="91.5,-56.5 91.5,-75.5 131.5,-75.5 131.5,-56.5 91.5,-56.5"/>
<text text-anchor="middle" x="111.5" y="-63.5" font-family="Helvetica,sans-Serif" font-size="10.00">utility</text>
</a>
</g>
</g>
<!-- Node1&#45;&gt;Node3 -->
<g id="edge2" class="edge"><title>Node1&#45;&gt;Node3</title>
<path fill="none" stroke="midnightblue" d="M175.289,-112.324C163.724,-104.107 146.125,-91.6017 132.339,-81.8069"/>
<polygon fill="midnightblue" stroke="midnightblue" points="134.112,-78.7729 123.933,-75.8339 130.057,-84.4791 134.112,-78.7729"/>
</g>
<!-- Node4 -->
<g id="node4" class="node"><title>Node4</title>
<g id="a_node4"><a xlink:href="a04526.html" target="_top" xlink:title="顺序栈类">
<polygon fill="white" stroke="black" points="149.5,-56.5 149.5,-75.5 225.5,-75.5 225.5,-56.5 149.5,-56.5"/>
<text text-anchor="middle" x="187.5" y="-63.5" font-family="Helvetica,sans-Serif" font-size="10.00">linkStack.hpp</text>
</a>
</g>
</g>
<!-- Node1&#45;&gt;Node4 -->
<g id="edge3" class="edge"><title>Node1&#45;&gt;Node4</title>
<path fill="none" stroke="midnightblue" d="M182.334,-112.083C180.824,-104.927 180.394,-94.6353 181.042,-85.6911"/>
<polygon fill="midnightblue" stroke="midnightblue" points="184.515,-86.1262 182.369,-75.7511 177.577,-85.2002 184.515,-86.1262"/>
</g>
<!-- Node5 -->
<g id="node5" class="node"><title>Node5</title>
<g id="a_node5"><a xlink:href="a04541.html" target="_top" xlink:title=" ">
<polygon fill="white" stroke="black" points="244,-56.5 244,-75.5 321,-75.5 321,-56.5 244,-56.5"/>
<text text-anchor="middle" x="282.5" y="-63.5" font-family="Helvetica,sans-Serif" font-size="10.00">seqStack.hxx</text>
</a>
</g>
</g>
<!-- Node1&#45;&gt;Node5 -->
<g id="edge5" class="edge"><title>Node1&#45;&gt;Node5</title>
<path fill="none" stroke="midnightblue" d="M202.763,-112.324C217.721,-103.822 240.755,-90.7288 258.227,-80.7975"/>
<polygon fill="midnightblue" stroke="midnightblue" points="260.31,-83.639 267.274,-75.6545 256.851,-77.5534 260.31,-83.639"/>
</g>
<!-- Node4&#45;&gt;Node1 -->
<g id="edge4" class="edge"><title>Node4&#45;&gt;Node1</title>
<path fill="none" stroke="midnightblue" d="M192.631,-75.7511C194.157,-82.8579 194.604,-93.1357 193.972,-102.101"/>
<polygon fill="midnightblue" stroke="midnightblue" points="190.493,-101.713 192.666,-112.083 197.434,-102.622 190.493,-101.713"/>
</g>
<!-- Node6 -->
<g id="node6" class="node"><title>Node6</title>
<g id="a_node6"><a xlink:title=" ">
<polygon fill="white" stroke="#bfbfbf" points="224.5,-0.5 224.5,-19.5 274.5,-19.5 274.5,-0.5 224.5,-0.5"/>
<text text-anchor="middle" x="249.5" y="-7.5" font-family="Helvetica,sans-Serif" font-size="10.00">Stack.h</text>
</a>
</g>
</g>
<!-- Node5&#45;&gt;Node6 -->
<g id="edge6" class="edge"><title>Node5&#45;&gt;Node6</title>
<path fill="none" stroke="midnightblue" d="M277.051,-56.083C272.486,-48.6127 265.832,-37.7244 260.207,-28.5199"/>
<polygon fill="midnightblue" stroke="midnightblue" points="263.049,-26.4588 254.848,-19.7511 257.076,-30.109 263.049,-26.4588"/>
</g>
<!-- Node7 -->
<g id="node7" class="node"><title>Node7</title>
<g id="a_node7"><a xlink:title=" ">
<polygon fill="white" stroke="#bfbfbf" points="293,-0.5 293,-19.5 338,-19.5 338,-0.5 293,-0.5"/>
<text text-anchor="middle" x="315.5" y="-7.5" font-family="Helvetica,sans-Serif" font-size="10.00">climits</text>
</a>
</g>
</g>
<!-- Node5&#45;&gt;Node7 -->
<g id="edge7" class="edge"><title>Node5&#45;&gt;Node7</title>
<path fill="none" stroke="midnightblue" d="M287.949,-56.083C292.514,-48.6127 299.168,-37.7244 304.793,-28.5199"/>
<polygon fill="midnightblue" stroke="midnightblue" points="307.924,-30.109 310.152,-19.7511 301.951,-26.4588 307.924,-30.109"/>
</g>
</g>
</svg>
