<?xml version="1.0" encoding="UTF-8" standalone="no"?>
<!DOCTYPE svg PUBLIC "-//W3C//DTD SVG 1.1//EN"
 "http://www.w3.org/Graphics/SVG/1.1/DTD/svg11.dtd">
<!-- Generated by graphviz version 2.38.0 (20140413.2041)
 -->
<!-- Title: Akm_t::AkmInit Pages: 1 -->
<svg width="297pt" height="66pt"
 viewBox="0.00 0.00 297.00 66.00" xmlns="http://www.w3.org/2000/svg" xmlns:xlink="http://www.w3.org/1999/xlink">
<g id="graph0" class="graph" transform="scale(1 1) rotate(0) translate(4 62)">
<title>Akm_t::AkmInit</title>
<polygon fill="white" stroke="none" points="-4,4 -4,-62 293,-62 293,4 -4,4"/>
<!-- Node1 -->
<g id="node1" class="node"><title>Node1</title>
<g id="a_node1"><a xlink:title="初始化类内部的静态计数器">
<polygon fill="#bfbfbf" stroke="black" points="205,-19.5 205,-38.5 289,-38.5 289,-19.5 205,-19.5"/>
<text text-anchor="middle" x="247" y="-26.5" font-family="Helvetica,sans-Serif" font-size="10.00">Akm_t::AkmInit</text>
</a>
</g>
</g>
<!-- Node2 -->
<g id="node2" class="node"><title>Node2</title>
<g id="a_node2"><a xlink:href="a05391.html#acce004321aba1561adc7622c3e9f9e72" target="_top" xlink:title="堆栈版本的Ackermann函数">
<polygon fill="white" stroke="black" points="74,-38.5 74,-57.5 169,-57.5 169,-38.5 74,-38.5"/>
<text text-anchor="middle" x="121.5" y="-45.5" font-family="Helvetica,sans-Serif" font-size="10.00">Akm_t::Akm_loop</text>
</a>
</g>
</g>
<!-- Node1&#45;&gt;Node2 -->
<g id="edge1" class="edge"><title>Node1&#45;&gt;Node2</title>
<path fill="none" stroke="midnightblue" d="M194.798,-36.8772C186.391,-38.1706 177.715,-39.5054 169.418,-40.7818"/>
<polygon fill="midnightblue" stroke="midnightblue" points="195.525,-40.3067 204.876,-35.3267 194.46,-33.3881 195.525,-40.3067"/>
</g>
<!-- Node4 -->
<g id="node4" class="node"><title>Node4</title>
<g id="a_node4"><a xlink:href="a05391.html#ad6156801029eb664e589ea5013e9bd4a" target="_top" xlink:title="递归版本的Ackermann函数">
<polygon fill="white" stroke="black" points="76.5,-0.5 76.5,-19.5 166.5,-19.5 166.5,-0.5 76.5,-0.5"/>
<text text-anchor="middle" x="121.5" y="-7.5" font-family="Helvetica,sans-Serif" font-size="10.00">Akm_t::Akm_rec</text>
</a>
</g>
</g>
<!-- Node1&#45;&gt;Node4 -->
<g id="edge3" class="edge"><title>Node1&#45;&gt;Node4</title>
<path fill="none" stroke="midnightblue" d="M194.932,-21.1433C185.607,-19.7088 175.947,-18.2227 166.838,-16.8213"/>
<polygon fill="midnightblue" stroke="midnightblue" points="194.46,-24.6119 204.876,-22.6733 195.525,-17.6933 194.46,-24.6119"/>
</g>
<!-- Node3 -->
<g id="node3" class="node"><title>Node3</title>
<g id="a_node3"><a xlink:href="a04565.html#abf9e6b7e6f15df4b525a2e7705ba3089" target="_top" xlink:title="Ackermann类测试例程">
<polygon fill="white" stroke="black" points="0,-19.5 0,-38.5 38,-38.5 38,-19.5 0,-19.5"/>
<text text-anchor="middle" x="19" y="-26.5" font-family="Helvetica,sans-Serif" font-size="10.00">main</text>
</a>
</g>
</g>
<!-- Node2&#45;&gt;Node3 -->
<g id="edge2" class="edge"><title>Node2&#45;&gt;Node3</title>
<path fill="none" stroke="midnightblue" d="M63.9441,-37.3078C54.5549,-35.5328 45.464,-33.8141 38.0109,-32.405"/>
<polygon fill="midnightblue" stroke="midnightblue" points="63.3045,-40.7488 73.7806,-39.1675 64.6049,-33.8707 63.3045,-40.7488"/>
</g>
<!-- Node4&#45;&gt;Node3 -->
<g id="edge4" class="edge"><title>Node4&#45;&gt;Node3</title>
<path fill="none" stroke="midnightblue" d="M66.5599,-20.1976C56.2837,-22.1404 46.2143,-24.0441 38.0835,-25.5812"/>
<polygon fill="midnightblue" stroke="midnightblue" points="67.2435,-23.6305 76.4192,-18.3337 65.9431,-16.7523 67.2435,-23.6305"/>
</g>
</g>
</svg>
