<?xml version="1.0" encoding="UTF-8" standalone="no"?>
<!DOCTYPE svg PUBLIC "-//W3C//DTD SVG 1.1//EN"
 "http://www.w3.org/Graphics/SVG/1.1/DTD/svg11.dtd">
<!-- Generated by graphviz version 2.38.0 (20140413.2041)
 -->
<!-- Title: Akm_t::AckermannLoop Pages: 1 -->
<svg width="304pt" height="218pt"
 viewBox="0.00 0.00 304.00 218.00" xmlns="http://www.w3.org/2000/svg" xmlns:xlink="http://www.w3.org/1999/xlink">
<g id="graph0" class="graph" transform="scale(1 1) rotate(0) translate(4 214)">
<title>Akm_t::AckermannLoop</title>
<polygon fill="white" stroke="none" points="-4,4 -4,-214 300,-214 300,4 -4,4"/>
<!-- Node1 -->
<g id="node1" class="node"><title>Node1</title>
<g id="a_node1"><a xlink:title="Ackermann函数堆栈模拟递归版本">
<polygon fill="#bfbfbf" stroke="black" points="0,-95.5 0,-114.5 122,-114.5 122,-95.5 0,-95.5"/>
<text text-anchor="middle" x="61" y="-102.5" font-family="Helvetica,sans-Serif" font-size="10.00">Akm_t::AckermannLoop</text>
</a>
</g>
</g>
<!-- Node2 -->
<g id="node2" class="node"><title>Node2</title>
<g id="a_node2"><a xlink:href="a05455.html#aa4bbd748b258a1a9f9d3588ea2ba6a28" target="_top" xlink:title=" ">
<polygon fill="white" stroke="black" points="158,-190.5 158,-209.5 296,-209.5 296,-190.5 158,-190.5"/>
<text text-anchor="middle" x="227" y="-197.5" font-family="Helvetica,sans-Serif" font-size="10.00">Stack::seqStack::elemMem</text>
</a>
</g>
</g>
<!-- Node1&#45;&gt;Node2 -->
<g id="edge1" class="edge"><title>Node1&#45;&gt;Node2</title>
<path fill="none" stroke="midnightblue" d="M71.443,-114.656C87.6813,-130.723 122.578,-162.96 158,-181 162.526,-183.305 167.369,-185.362 172.306,-187.19"/>
<polygon fill="midnightblue" stroke="midnightblue" points="171.267,-190.533 181.862,-190.43 173.515,-183.904 171.267,-190.533"/>
</g>
<!-- Node3 -->
<g id="node3" class="node"><title>Node3</title>
<g id="a_node3"><a xlink:href="a05455.html#a35a066a0aedc630474fd3e3dcaa9ced8" target="_top" xlink:title=" ">
<polygon fill="white" stroke="black" points="161.5,-152.5 161.5,-171.5 292.5,-171.5 292.5,-152.5 161.5,-152.5"/>
<text text-anchor="middle" x="227" y="-159.5" font-family="Helvetica,sans-Serif" font-size="10.00">Stack::seqStack::isEmpty</text>
</a>
</g>
</g>
<!-- Node1&#45;&gt;Node3 -->
<g id="edge2" class="edge"><title>Node1&#45;&gt;Node3</title>
<path fill="none" stroke="midnightblue" d="M84.2554,-114.576C103.557,-122.696 132.348,-134.365 158,-143 164.869,-145.312 172.192,-147.57 179.393,-149.674"/>
<polygon fill="midnightblue" stroke="midnightblue" points="178.507,-153.061 189.083,-152.441 180.429,-146.33 178.507,-153.061"/>
</g>
<!-- Node4 -->
<g id="node4" class="node"><title>Node4</title>
<g id="a_node4"><a xlink:href="a05455.html#ae76c0c31d160cd1dabd0270172e2c88a" target="_top" xlink:title=" ">
<polygon fill="white" stroke="black" points="171.5,-114.5 171.5,-133.5 282.5,-133.5 282.5,-114.5 171.5,-114.5"/>
<text text-anchor="middle" x="227" y="-121.5" font-family="Helvetica,sans-Serif" font-size="10.00">Stack::seqStack::pop</text>
</a>
</g>
</g>
<!-- Node1&#45;&gt;Node4 -->
<g id="edge3" class="edge"><title>Node1&#45;&gt;Node4</title>
<path fill="none" stroke="midnightblue" d="M122.136,-111.967C134.832,-113.438 148.282,-114.996 161.143,-116.486"/>
<polygon fill="midnightblue" stroke="midnightblue" points="160.969,-119.989 171.305,-117.663 161.774,-113.036 160.969,-119.989"/>
</g>
<!-- Node5 -->
<g id="node5" class="node"><title>Node5</title>
<g id="a_node5"><a xlink:href="a05455.html#aa580900cdf97734ca479fe9f68f1c681" target="_top" xlink:title=" ">
<polygon fill="white" stroke="black" points="169,-76.5 169,-95.5 285,-95.5 285,-76.5 169,-76.5"/>
<text text-anchor="middle" x="227" y="-83.5" font-family="Helvetica,sans-Serif" font-size="10.00">Stack::seqStack::push</text>
</a>
</g>
</g>
<!-- Node1&#45;&gt;Node5 -->
<g id="edge4" class="edge"><title>Node1&#45;&gt;Node5</title>
<path fill="none" stroke="midnightblue" d="M122.136,-98.033C134.063,-96.6512 146.656,-95.1923 158.801,-93.7853"/>
<polygon fill="midnightblue" stroke="midnightblue" points="159.342,-97.2461 168.873,-92.6184 158.536,-90.2926 159.342,-97.2461"/>
</g>
<!-- Node6 -->
<g id="node6" class="node"><title>Node6</title>
<g id="a_node6"><a xlink:href="a05455.html#a91fa28d561e88adc40c3213552c58402" target="_top" xlink:title=" ">
<polygon fill="white" stroke="black" points="170.5,-38.5 170.5,-57.5 283.5,-57.5 283.5,-38.5 170.5,-38.5"/>
<text text-anchor="middle" x="227" y="-45.5" font-family="Helvetica,sans-Serif" font-size="10.00">Stack::seqStack::size</text>
</a>
</g>
</g>
<!-- Node1&#45;&gt;Node6 -->
<g id="edge5" class="edge"><title>Node1&#45;&gt;Node6</title>
<path fill="none" stroke="midnightblue" d="M84.2554,-95.4237C103.557,-87.3038 132.348,-75.6345 158,-67 164.869,-64.688 172.192,-62.4305 179.393,-60.3256"/>
<polygon fill="midnightblue" stroke="midnightblue" points="180.429,-63.6699 189.083,-57.5591 178.507,-56.9388 180.429,-63.6699"/>
</g>
<!-- Node7 -->
<g id="node7" class="node"><title>Node7</title>
<g id="a_node7"><a xlink:href="a05455.html#aae3a405f01cc5ba788a111fe15c6f5ed" target="_top" xlink:title=" ">
<polygon fill="white" stroke="black" points="172.5,-0.5 172.5,-19.5 281.5,-19.5 281.5,-0.5 172.5,-0.5"/>
<text text-anchor="middle" x="227" y="-7.5" font-family="Helvetica,sans-Serif" font-size="10.00">Stack::seqStack::top</text>
</a>
</g>
</g>
<!-- Node1&#45;&gt;Node7 -->
<g id="edge6" class="edge"><title>Node1&#45;&gt;Node7</title>
<path fill="none" stroke="midnightblue" d="M71.443,-95.3444C87.6813,-79.2771 122.578,-47.04 158,-29 162.526,-26.6949 167.369,-24.6382 172.306,-22.8099"/>
<polygon fill="midnightblue" stroke="midnightblue" points="173.515,-26.0959 181.862,-19.5703 171.267,-19.4666 173.515,-26.0959"/>
</g>
</g>
</svg>
