<?xml version="1.0" encoding="UTF-8" standalone="no"?>
<!DOCTYPE svg PUBLIC "-//W3C//DTD SVG 1.1//EN"
 "http://www.w3.org/Graphics/SVG/1.1/DTD/svg11.dtd">
<!-- Generated by graphviz version 2.38.0 (20140413.2041)
 -->
<!-- Title: List::dLinkList::push_back Pages: 1 -->
<svg width="552pt" height="85pt"
 viewBox="0.00 0.00 552.00 85.00" xmlns="http://www.w3.org/2000/svg" xmlns:xlink="http://www.w3.org/1999/xlink">
<g id="graph0" class="graph" transform="scale(1 1) rotate(0) translate(4 81)">
<title>List::dLinkList::push_back</title>
<polygon fill="white" stroke="none" points="-4,4 -4,-81 548,-81 548,4 -4,4"/>
<!-- Node1 -->
<g id="node1" class="node"><title>Node1</title>
<g id="a_node1"><a xlink:title=" ">
<polygon fill="#bfbfbf" stroke="black" points="413,-19.5 413,-38.5 544,-38.5 544,-19.5 413,-19.5"/>
<text text-anchor="middle" x="478.5" y="-26.5" font-family="Helvetica,sans-Serif" font-size="10.00">List::dLinkList::push_back</text>
</a>
</g>
</g>
<!-- Node2 -->
<g id="node2" class="node"><title>Node2</title>
<g id="a_node2"><a xlink:href="a05435.html#a8dd551d02431c034e10f256ff384c39f" target="_top" xlink:title="用一个中缀list创建一个后缀list">
<polygon fill="white" stroke="black" points="213,-38.5 213,-57.5 377,-57.5 377,-38.5 213,-38.5"/>
<text text-anchor="middle" x="295" y="-45.5" font-family="Helvetica,sans-Serif" font-size="10.00">RPN::Rpn_t::infixListToPostfixList</text>
</a>
</g>
</g>
<!-- Node1&#45;&gt;Node2 -->
<g id="edge1" class="edge"><title>Node1&#45;&gt;Node2</title>
<path fill="none" stroke="midnightblue" d="M402.789,-36.821C394.324,-37.7071 385.667,-38.6134 377.124,-39.5077"/>
<polygon fill="midnightblue" stroke="midnightblue" points="403.418,-40.2744 412.999,-35.7522 402.689,-33.3124 403.418,-40.2744"/>
</g>
<!-- Node6 -->
<g id="node6" class="node"><title>Node6</title>
<g id="a_node6"><a xlink:href="a04572.html#a16b7ac860c6f2221ce8e4602276db440" target="_top" xlink:title=" ">
<polygon fill="white" stroke="black" points="255,-0.5 255,-19.5 335,-19.5 335,-0.5 255,-0.5"/>
<text text-anchor="middle" x="295" y="-7.5" font-family="Helvetica,sans-Serif" font-size="10.00">List::operator+</text>
</a>
</g>
</g>
<!-- Node1&#45;&gt;Node6 -->
<g id="edge5" class="edge"><title>Node1&#45;&gt;Node6</title>
<path fill="none" stroke="midnightblue" d="M402.815,-21.1817C379.615,-18.7531 354.968,-16.173 335.203,-14.1039"/>
<polygon fill="midnightblue" stroke="midnightblue" points="402.689,-24.6876 412.999,-22.2478 403.418,-17.7256 402.689,-24.6876"/>
</g>
<!-- Node3 -->
<g id="node3" class="node"><title>Node3</title>
<g id="a_node3"><a xlink:href="a05435.html#a13f84208d6722039432be70b4bffee8c" target="_top" xlink:title="设置Rpn_t类对象的值">
<polygon fill="white" stroke="black" points="74,-57.5 74,-76.5 177,-76.5 177,-57.5 74,-57.5"/>
<text text-anchor="middle" x="125.5" y="-64.5" font-family="Helvetica,sans-Serif" font-size="10.00">RPN::Rpn_t::assign</text>
</a>
</g>
</g>
<!-- Node2&#45;&gt;Node3 -->
<g id="edge2" class="edge"><title>Node2&#45;&gt;Node3</title>
<path fill="none" stroke="midnightblue" d="M202.726,-58.3535C193.913,-59.3532 185.211,-60.3402 177.016,-61.2698"/>
<polygon fill="midnightblue" stroke="midnightblue" points="203.162,-61.8266 212.703,-57.2217 202.373,-54.8712 203.162,-61.8266"/>
</g>
<!-- Node5 -->
<g id="node5" class="node"><title>Node5</title>
<g id="a_node5"><a xlink:href="a05435.html#a2328e43bfa616ee63c9bf475188ca511" target="_top" xlink:title="Construct a new Rpn_t object.">
<polygon fill="white" stroke="black" points="75.5,-19.5 75.5,-38.5 175.5,-38.5 175.5,-19.5 75.5,-19.5"/>
<text text-anchor="middle" x="125.5" y="-26.5" font-family="Helvetica,sans-Serif" font-size="10.00">RPN::Rpn_t::Rpn_t</text>
</a>
</g>
</g>
<!-- Node2&#45;&gt;Node5 -->
<g id="edge4" class="edge"><title>Node2&#45;&gt;Node5</title>
<path fill="none" stroke="midnightblue" d="M202.613,-37.6337C193.34,-36.5818 184.192,-35.5442 175.631,-34.573"/>
<polygon fill="midnightblue" stroke="midnightblue" points="202.373,-41.1288 212.703,-38.7783 203.162,-34.1734 202.373,-41.1288"/>
</g>
<!-- Node4 -->
<g id="node4" class="node"><title>Node4</title>
<g id="a_node4"><a xlink:href="a04562.html#abf9e6b7e6f15df4b525a2e7705ba3089" target="_top" xlink:title=" ">
<polygon fill="white" stroke="black" points="0,-57.5 0,-76.5 38,-76.5 38,-57.5 0,-57.5"/>
<text text-anchor="middle" x="19" y="-64.5" font-family="Helvetica,sans-Serif" font-size="10.00">main</text>
</a>
</g>
</g>
<!-- Node3&#45;&gt;Node4 -->
<g id="edge3" class="edge"><title>Node3&#45;&gt;Node4</title>
<path fill="none" stroke="midnightblue" d="M63.7001,-67C54.4902,-67 45.6446,-67 38.3502,-67"/>
<polygon fill="midnightblue" stroke="midnightblue" points="63.7806,-70.5001 73.7806,-67 63.7805,-63.5001 63.7806,-70.5001"/>
</g>
</g>
</svg>
