<?xml version="1.0" encoding="UTF-8" standalone="no"?>
<!DOCTYPE svg PUBLIC "-//W3C//DTD SVG 1.1//EN"
 "http://www.w3.org/Graphics/SVG/1.1/DTD/svg11.dtd">
<!-- Generated by graphviz version 2.38.0 (20140413.2041)
 -->
<!-- Title: List::dLinkList::end Pages: 1 -->
<svg width="520pt" height="97pt"
 viewBox="0.00 0.00 520.00 96.50" xmlns="http://www.w3.org/2000/svg" xmlns:xlink="http://www.w3.org/1999/xlink">
<g id="graph0" class="graph" transform="scale(1 1) rotate(0) translate(4 92.5)">
<title>List::dLinkList::end</title>
<polygon fill="white" stroke="none" points="-4,4 -4,-92.5 516,-92.5 516,4 -4,4"/>
<!-- Node1 -->
<g id="node1" class="node"><title>Node1</title>
<g id="a_node1"><a xlink:title=" ">
<polygon fill="#bfbfbf" stroke="black" points="413,-41.5 413,-60.5 512,-60.5 512,-41.5 413,-41.5"/>
<text text-anchor="middle" x="462.5" y="-48.5" font-family="Helvetica,sans-Serif" font-size="10.00">List::dLinkList::end</text>
</a>
</g>
</g>
<!-- Node2 -->
<g id="node2" class="node"><title>Node2</title>
<g id="a_node2"><a xlink:href="a05395.html#aa63c1809536621634a7847420977fed7" target="_top" xlink:title=" ">
<polygon fill="white" stroke="black" points="231.5,-58 231.5,-88 358.5,-88 358.5,-58 231.5,-58"/>
<text text-anchor="start" x="239.5" y="-76" font-family="Helvetica,sans-Serif" font-size="10.00">List::dLinkList&lt; RPN</text>
<text text-anchor="middle" x="295" y="-65" font-family="Helvetica,sans-Serif" font-size="10.00">::Rpn_t::Item &gt;::dLinkList</text>
</a>
</g>
</g>
<!-- Node1&#45;&gt;Node2 -->
<g id="edge1" class="edge"><title>Node1&#45;&gt;Node2</title>
<path fill="none" stroke="midnightblue" d="M402.558,-58.8352C388.287,-60.7322 372.984,-62.7664 358.554,-64.6847"/>
<polygon fill="midnightblue" stroke="midnightblue" points="403.288,-62.269 412.74,-57.4817 402.366,-55.3301 403.288,-62.269"/>
</g>
<!-- Node3 -->
<g id="node3" class="node"><title>Node3</title>
<g id="a_node3"><a xlink:href="a05435.html#a8dd551d02431c034e10f256ff384c39f" target="_top" xlink:title="用一个中缀list创建一个后缀list">
<polygon fill="white" stroke="black" points="213,-19.5 213,-38.5 377,-38.5 377,-19.5 213,-19.5"/>
<text text-anchor="middle" x="295" y="-26.5" font-family="Helvetica,sans-Serif" font-size="10.00">RPN::Rpn_t::infixListToPostfixList</text>
</a>
</g>
</g>
<!-- Node1&#45;&gt;Node3 -->
<g id="edge2" class="edge"><title>Node1&#45;&gt;Node3</title>
<path fill="none" stroke="midnightblue" d="M402.581,-43.1679C391.293,-41.6673 379.357,-40.0807 367.718,-38.5336"/>
<polygon fill="midnightblue" stroke="midnightblue" points="402.366,-46.6699 412.74,-44.5183 403.288,-39.731 402.366,-46.6699"/>
</g>
<!-- Node4 -->
<g id="node4" class="node"><title>Node4</title>
<g id="a_node4"><a xlink:href="a05435.html#a13f84208d6722039432be70b4bffee8c" target="_top" xlink:title="设置Rpn_t类对象的值">
<polygon fill="white" stroke="black" points="74,-38.5 74,-57.5 177,-57.5 177,-38.5 74,-38.5"/>
<text text-anchor="middle" x="125.5" y="-45.5" font-family="Helvetica,sans-Serif" font-size="10.00">RPN::Rpn_t::assign</text>
</a>
</g>
</g>
<!-- Node3&#45;&gt;Node4 -->
<g id="edge3" class="edge"><title>Node3&#45;&gt;Node4</title>
<path fill="none" stroke="midnightblue" d="M202.726,-39.3535C193.913,-40.3532 185.211,-41.3402 177.016,-42.2698"/>
<polygon fill="midnightblue" stroke="midnightblue" points="203.162,-42.8266 212.703,-38.2217 202.373,-35.8712 203.162,-42.8266"/>
</g>
<!-- Node6 -->
<g id="node6" class="node"><title>Node6</title>
<g id="a_node6"><a xlink:href="a05435.html#a2328e43bfa616ee63c9bf475188ca511" target="_top" xlink:title="Construct a new Rpn_t object.">
<polygon fill="white" stroke="black" points="75.5,-0.5 75.5,-19.5 175.5,-19.5 175.5,-0.5 75.5,-0.5"/>
<text text-anchor="middle" x="125.5" y="-7.5" font-family="Helvetica,sans-Serif" font-size="10.00">RPN::Rpn_t::Rpn_t</text>
</a>
</g>
</g>
<!-- Node3&#45;&gt;Node6 -->
<g id="edge5" class="edge"><title>Node3&#45;&gt;Node6</title>
<path fill="none" stroke="midnightblue" d="M202.613,-18.6337C193.34,-17.5818 184.192,-16.5442 175.631,-15.573"/>
<polygon fill="midnightblue" stroke="midnightblue" points="202.373,-22.1288 212.703,-19.7783 203.162,-15.1734 202.373,-22.1288"/>
</g>
<!-- Node5 -->
<g id="node5" class="node"><title>Node5</title>
<g id="a_node5"><a xlink:href="a04562.html#abf9e6b7e6f15df4b525a2e7705ba3089" target="_top" xlink:title=" ">
<polygon fill="white" stroke="black" points="0,-38.5 0,-57.5 38,-57.5 38,-38.5 0,-38.5"/>
<text text-anchor="middle" x="19" y="-45.5" font-family="Helvetica,sans-Serif" font-size="10.00">main</text>
</a>
</g>
</g>
<!-- Node4&#45;&gt;Node5 -->
<g id="edge4" class="edge"><title>Node4&#45;&gt;Node5</title>
<path fill="none" stroke="midnightblue" d="M63.7001,-48C54.4902,-48 45.6446,-48 38.3502,-48"/>
<polygon fill="midnightblue" stroke="midnightblue" points="63.7806,-51.5001 73.7806,-48 63.7805,-44.5001 63.7806,-51.5001"/>
</g>
</g>
</svg>
