<?xml version="1.0" encoding="UTF-8" standalone="no"?>
<!DOCTYPE svg PUBLIC "-//W3C//DTD SVG 1.1//EN"
 "http://www.w3.org/Graphics/SVG/1.1/DTD/svg11.dtd">
<!-- Generated by graphviz version 2.38.0 (20140413.2041)
 -->
<!-- Title: Akm_t::Ackermann Pages: 1 -->
<svg width="309pt" height="28pt"
 viewBox="0.00 0.00 309.00 28.00" xmlns="http://www.w3.org/2000/svg" xmlns:xlink="http://www.w3.org/1999/xlink">
<g id="graph0" class="graph" transform="scale(1 1) rotate(0) translate(4 24)">
<title>Akm_t::Ackermann</title>
<polygon fill="white" stroke="none" points="-4,4 -4,-24 305,-24 305,4 -4,4"/>
<!-- Node1 -->
<g id="node1" class="node"><title>Node1</title>
<g id="a_node1"><a xlink:title="Ackermann函数递归版本">
<polygon fill="#bfbfbf" stroke="black" points="200,-0.5 200,-19.5 301,-19.5 301,-0.5 200,-0.5"/>
<text text-anchor="middle" x="250.5" y="-7.5" font-family="Helvetica,sans-Serif" font-size="10.00">Akm_t::Ackermann</text>
</a>
</g>
</g>
<!-- Node2 -->
<g id="node2" class="node"><title>Node2</title>
<g id="a_node2"><a xlink:href="a05391.html#ad6156801029eb664e589ea5013e9bd4a" target="_top" xlink:title="递归版本的Ackermann函数">
<polygon fill="white" stroke="black" points="74,-0.5 74,-19.5 164,-19.5 164,-0.5 74,-0.5"/>
<text text-anchor="middle" x="119" y="-7.5" font-family="Helvetica,sans-Serif" font-size="10.00">Akm_t::Akm_rec</text>
</a>
</g>
</g>
<!-- Node1&#45;&gt;Node2 -->
<g id="edge1" class="edge"><title>Node1&#45;&gt;Node2</title>
<path fill="none" stroke="midnightblue" d="M189.524,-10C181.02,-10 172.406,-10 164.272,-10"/>
<polygon fill="midnightblue" stroke="midnightblue" points="189.802,-13.5001 199.802,-10 189.802,-6.5001 189.802,-13.5001"/>
</g>
<!-- Node3 -->
<g id="node3" class="node"><title>Node3</title>
<g id="a_node3"><a xlink:href="a04565.html#abf9e6b7e6f15df4b525a2e7705ba3089" target="_top" xlink:title="Ackermann类测试例程">
<polygon fill="white" stroke="black" points="0,-0.5 0,-19.5 38,-19.5 38,-0.5 0,-0.5"/>
<text text-anchor="middle" x="19" y="-7.5" font-family="Helvetica,sans-Serif" font-size="10.00">main</text>
</a>
</g>
</g>
<!-- Node2&#45;&gt;Node3 -->
<g id="edge2" class="edge"><title>Node2&#45;&gt;Node3</title>
<path fill="none" stroke="midnightblue" d="M63.8049,-10C54.5578,-10 45.5603,-10 38.1497,-10"/>
<polygon fill="midnightblue" stroke="midnightblue" points="63.8737,-13.5001 73.8737,-10 63.8737,-6.5001 63.8737,-13.5001"/>
</g>
</g>
</svg>
