<?xml version="1.0" encoding="UTF-8" standalone="no"?>
<!DOCTYPE svg PUBLIC "-//W3C//DTD SVG 1.1//EN"
 "http://www.w3.org/Graphics/SVG/1.1/DTD/svg11.dtd">
<!-- Generated by graphviz version 2.38.0 (20140413.2041)
 -->
<!-- Title: Akm_t::Akm_loop Pages: 1 -->
<svg width="400pt" height="218pt"
 viewBox="0.00 0.00 400.00 218.00" xmlns="http://www.w3.org/2000/svg" xmlns:xlink="http://www.w3.org/1999/xlink">
<g id="graph0" class="graph" transform="scale(1 1) rotate(0) translate(4 214)">
<title>Akm_t::Akm_loop</title>
<polygon fill="white" stroke="none" points="-4,4 -4,-214 396,-214 396,4 -4,4"/>
<!-- Node1 -->
<g id="node1" class="node"><title>Node1</title>
<g id="a_node1"><a xlink:title=" ">
<polygon fill="#bfbfbf" stroke="black" points="0,-95.5 0,-114.5 95,-114.5 95,-95.5 0,-95.5"/>
<text text-anchor="middle" x="47.5" y="-102.5" font-family="Helvetica,sans-Serif" font-size="10.00">Akm_t::Akm_loop</text>
</a>
</g>
</g>
<!-- Node2 -->
<g id="node2" class="node"><title>Node2</title>
<g id="a_node2"><a xlink:href="a04520.html#a09828dd70ee57ea0c5d9832aded20690" target="_top" xlink:title=" ">
<polygon fill="white" stroke="black" points="131,-95.5 131,-114.5 218,-114.5 218,-95.5 131,-95.5"/>
<text text-anchor="middle" x="174.5" y="-102.5" font-family="Helvetica,sans-Serif" font-size="10.00">AckermannLoop</text>
</a>
</g>
</g>
<!-- Node1&#45;&gt;Node2 -->
<g id="edge1" class="edge"><title>Node1&#45;&gt;Node2</title>
<path fill="none" stroke="midnightblue" d="M95.0454,-105C103.336,-105 112.028,-105 120.483,-105"/>
<polygon fill="midnightblue" stroke="midnightblue" points="120.635,-108.5 130.635,-105 120.635,-101.5 120.635,-108.5"/>
</g>
<!-- Node3 -->
<g id="node3" class="node"><title>Node3</title>
<g id="a_node3"><a xlink:href="a05455.html#aa4bbd748b258a1a9f9d3588ea2ba6a28" target="_top" xlink:title=" ">
<polygon fill="white" stroke="black" points="254,-190.5 254,-209.5 392,-209.5 392,-190.5 254,-190.5"/>
<text text-anchor="middle" x="323" y="-197.5" font-family="Helvetica,sans-Serif" font-size="10.00">Stack::seqStack::elemMem</text>
</a>
</g>
</g>
<!-- Node2&#45;&gt;Node3 -->
<g id="edge2" class="edge"><title>Node2&#45;&gt;Node3</title>
<path fill="none" stroke="midnightblue" d="M182.828,-114.74C195.527,-130.932 223.231,-163.349 254,-181 257.873,-183.222 262.02,-185.196 266.285,-186.948"/>
<polygon fill="midnightblue" stroke="midnightblue" points="265.156,-190.262 275.749,-190.438 267.578,-183.694 265.156,-190.262"/>
</g>
<!-- Node4 -->
<g id="node4" class="node"><title>Node4</title>
<g id="a_node4"><a xlink:href="a05455.html#a35a066a0aedc630474fd3e3dcaa9ced8" target="_top" xlink:title=" ">
<polygon fill="white" stroke="black" points="257.5,-152.5 257.5,-171.5 388.5,-171.5 388.5,-152.5 257.5,-152.5"/>
<text text-anchor="middle" x="323" y="-159.5" font-family="Helvetica,sans-Serif" font-size="10.00">Stack::seqStack::isEmpty</text>
</a>
</g>
</g>
<!-- Node2&#45;&gt;Node4 -->
<g id="edge3" class="edge"><title>Node2&#45;&gt;Node4</title>
<path fill="none" stroke="midnightblue" d="M192.874,-114.524C208.525,-122.831 232.332,-134.803 254,-143 260.239,-145.36 266.899,-147.576 273.518,-149.601"/>
<polygon fill="midnightblue" stroke="midnightblue" points="272.553,-152.965 283.134,-152.428 274.527,-146.249 272.553,-152.965"/>
</g>
<!-- Node5 -->
<g id="node5" class="node"><title>Node5</title>
<g id="a_node5"><a xlink:href="a05455.html#ae76c0c31d160cd1dabd0270172e2c88a" target="_top" xlink:title=" ">
<polygon fill="white" stroke="black" points="267.5,-114.5 267.5,-133.5 378.5,-133.5 378.5,-114.5 267.5,-114.5"/>
<text text-anchor="middle" x="323" y="-121.5" font-family="Helvetica,sans-Serif" font-size="10.00">Stack::seqStack::pop</text>
</a>
</g>
</g>
<!-- Node2&#45;&gt;Node5 -->
<g id="edge4" class="edge"><title>Node2&#45;&gt;Node5</title>
<path fill="none" stroke="midnightblue" d="M218.268,-110.547C230.516,-112.135 244.149,-113.903 257.399,-115.622"/>
<polygon fill="midnightblue" stroke="midnightblue" points="257.061,-119.107 267.428,-116.922 257.961,-112.165 257.061,-119.107"/>
</g>
<!-- Node6 -->
<g id="node6" class="node"><title>Node6</title>
<g id="a_node6"><a xlink:href="a05455.html#aa580900cdf97734ca479fe9f68f1c681" target="_top" xlink:title=" ">
<polygon fill="white" stroke="black" points="265,-76.5 265,-95.5 381,-95.5 381,-76.5 265,-76.5"/>
<text text-anchor="middle" x="323" y="-83.5" font-family="Helvetica,sans-Serif" font-size="10.00">Stack::seqStack::push</text>
</a>
</g>
</g>
<!-- Node2&#45;&gt;Node6 -->
<g id="edge5" class="edge"><title>Node2&#45;&gt;Node6</title>
<path fill="none" stroke="midnightblue" d="M218.268,-99.4533C229.616,-97.9815 242.153,-96.3555 254.473,-94.7578"/>
<polygon fill="midnightblue" stroke="midnightblue" points="255.273,-98.1834 264.74,-93.4263 254.373,-91.2416 255.273,-98.1834"/>
</g>
<!-- Node7 -->
<g id="node7" class="node"><title>Node7</title>
<g id="a_node7"><a xlink:href="a05455.html#a91fa28d561e88adc40c3213552c58402" target="_top" xlink:title=" ">
<polygon fill="white" stroke="black" points="266.5,-38.5 266.5,-57.5 379.5,-57.5 379.5,-38.5 266.5,-38.5"/>
<text text-anchor="middle" x="323" y="-45.5" font-family="Helvetica,sans-Serif" font-size="10.00">Stack::seqStack::size</text>
</a>
</g>
</g>
<!-- Node2&#45;&gt;Node7 -->
<g id="edge6" class="edge"><title>Node2&#45;&gt;Node7</title>
<path fill="none" stroke="midnightblue" d="M192.874,-95.4762C208.525,-87.169 232.332,-75.1965 254,-67 260.239,-64.6397 266.899,-62.4243 273.518,-60.3989"/>
<polygon fill="midnightblue" stroke="midnightblue" points="274.527,-63.7506 283.134,-57.5725 272.553,-57.0347 274.527,-63.7506"/>
</g>
<!-- Node8 -->
<g id="node8" class="node"><title>Node8</title>
<g id="a_node8"><a xlink:href="a05455.html#aae3a405f01cc5ba788a111fe15c6f5ed" target="_top" xlink:title=" ">
<polygon fill="white" stroke="black" points="268.5,-0.5 268.5,-19.5 377.5,-19.5 377.5,-0.5 268.5,-0.5"/>
<text text-anchor="middle" x="323" y="-7.5" font-family="Helvetica,sans-Serif" font-size="10.00">Stack::seqStack::top</text>
</a>
</g>
</g>
<!-- Node2&#45;&gt;Node8 -->
<g id="edge7" class="edge"><title>Node2&#45;&gt;Node8</title>
<path fill="none" stroke="midnightblue" d="M182.828,-95.2597C195.527,-79.0676 223.231,-46.6514 254,-29 257.873,-26.7784 262.02,-24.8044 266.285,-23.0525"/>
<polygon fill="midnightblue" stroke="midnightblue" points="267.578,-26.3059 275.749,-19.562 265.156,-19.7383 267.578,-26.3059"/>
</g>
</g>
</svg>
