<?xml version="1.0" encoding="UTF-8" standalone="no"?>
<!DOCTYPE svg PUBLIC "-//W3C//DTD SVG 1.1//EN"
 "http://www.w3.org/Graphics/SVG/1.1/DTD/svg11.dtd">
<!-- Generated by graphviz version 2.38.0 (20140413.2041)
 -->
<!-- Title: Akm_t::Akm_loop Pages: 1 -->
<svg width="435pt" height="218pt"
 viewBox="0.00 0.00 435.00 218.00" xmlns="http://www.w3.org/2000/svg" xmlns:xlink="http://www.w3.org/1999/xlink">
<g id="graph0" class="graph" transform="scale(1 1) rotate(0) translate(4 214)">
<title>Akm_t::Akm_loop</title>
<polygon fill="white" stroke="none" points="-4,4 -4,-214 431,-214 431,4 -4,4"/>
<!-- Node1 -->
<g id="node1" class="node"><title>Node1</title>
<g id="a_node1"><a xlink:title="堆栈版本的Ackermann函数">
<polygon fill="#bfbfbf" stroke="black" points="0,-76.5 0,-95.5 95,-95.5 95,-76.5 0,-76.5"/>
<text text-anchor="middle" x="47.5" y="-83.5" font-family="Helvetica,sans-Serif" font-size="10.00">Akm_t::Akm_loop</text>
</a>
</g>
</g>
<!-- Node2 -->
<g id="node2" class="node"><title>Node2</title>
<g id="a_node2"><a xlink:href="a05391.html#a0036aac01f88b4e9c22c43c14970a506" target="_top" xlink:title="Ackermann函数堆栈模拟递归版本">
<polygon fill="white" stroke="black" points="131,-95.5 131,-114.5 253,-114.5 253,-95.5 131,-95.5"/>
<text text-anchor="middle" x="192" y="-102.5" font-family="Helvetica,sans-Serif" font-size="10.00">Akm_t::AckermannLoop</text>
</a>
</g>
</g>
<!-- Node1&#45;&gt;Node2 -->
<g id="edge1" class="edge"><title>Node1&#45;&gt;Node2</title>
<path fill="none" stroke="midnightblue" d="M95.1598,-92.2213C103.386,-93.3181 112.11,-94.4814 120.814,-95.6418"/>
<polygon fill="midnightblue" stroke="midnightblue" points="120.615,-99.1462 130.99,-96.9986 121.54,-92.2076 120.615,-99.1462"/>
</g>
<!-- Node9 -->
<g id="node9" class="node"><title>Node9</title>
<g id="a_node9"><a xlink:href="a05391.html#a864a85602360a8d5f10d124b54a1d9ff" target="_top" xlink:title="初始化类内部的静态计数器">
<polygon fill="white" stroke="black" points="150,-57.5 150,-76.5 234,-76.5 234,-57.5 150,-57.5"/>
<text text-anchor="middle" x="192" y="-64.5" font-family="Helvetica,sans-Serif" font-size="10.00">Akm_t::AkmInit</text>
</a>
</g>
</g>
<!-- Node1&#45;&gt;Node9 -->
<g id="edge8" class="edge"><title>Node1&#45;&gt;Node9</title>
<path fill="none" stroke="midnightblue" d="M95.1598,-79.7787C109.399,-77.8802 125.131,-75.7825 139.662,-73.845"/>
<polygon fill="midnightblue" stroke="midnightblue" points="140.543,-77.2587 149.992,-72.4677 139.617,-70.3201 140.543,-77.2587"/>
</g>
<!-- Node3 -->
<g id="node3" class="node"><title>Node3</title>
<g id="a_node3"><a xlink:href="a05455.html#aa4bbd748b258a1a9f9d3588ea2ba6a28" target="_top" xlink:title=" ">
<polygon fill="white" stroke="black" points="289,-190.5 289,-209.5 427,-209.5 427,-190.5 289,-190.5"/>
<text text-anchor="middle" x="358" y="-197.5" font-family="Helvetica,sans-Serif" font-size="10.00">Stack::seqStack::elemMem</text>
</a>
</g>
</g>
<!-- Node2&#45;&gt;Node3 -->
<g id="edge2" class="edge"><title>Node2&#45;&gt;Node3</title>
<path fill="none" stroke="midnightblue" d="M202.443,-114.656C218.681,-130.723 253.578,-162.96 289,-181 293.526,-183.305 298.369,-185.362 303.306,-187.19"/>
<polygon fill="midnightblue" stroke="midnightblue" points="302.267,-190.533 312.862,-190.43 304.515,-183.904 302.267,-190.533"/>
</g>
<!-- Node4 -->
<g id="node4" class="node"><title>Node4</title>
<g id="a_node4"><a xlink:href="a05455.html#a35a066a0aedc630474fd3e3dcaa9ced8" target="_top" xlink:title=" ">
<polygon fill="white" stroke="black" points="292.5,-152.5 292.5,-171.5 423.5,-171.5 423.5,-152.5 292.5,-152.5"/>
<text text-anchor="middle" x="358" y="-159.5" font-family="Helvetica,sans-Serif" font-size="10.00">Stack::seqStack::isEmpty</text>
</a>
</g>
</g>
<!-- Node2&#45;&gt;Node4 -->
<g id="edge3" class="edge"><title>Node2&#45;&gt;Node4</title>
<path fill="none" stroke="midnightblue" d="M215.255,-114.576C234.557,-122.696 263.348,-134.365 289,-143 295.869,-145.312 303.192,-147.57 310.393,-149.674"/>
<polygon fill="midnightblue" stroke="midnightblue" points="309.507,-153.061 320.083,-152.441 311.429,-146.33 309.507,-153.061"/>
</g>
<!-- Node5 -->
<g id="node5" class="node"><title>Node5</title>
<g id="a_node5"><a xlink:href="a05455.html#ae76c0c31d160cd1dabd0270172e2c88a" target="_top" xlink:title=" ">
<polygon fill="white" stroke="black" points="302.5,-114.5 302.5,-133.5 413.5,-133.5 413.5,-114.5 302.5,-114.5"/>
<text text-anchor="middle" x="358" y="-121.5" font-family="Helvetica,sans-Serif" font-size="10.00">Stack::seqStack::pop</text>
</a>
</g>
</g>
<!-- Node2&#45;&gt;Node5 -->
<g id="edge4" class="edge"><title>Node2&#45;&gt;Node5</title>
<path fill="none" stroke="midnightblue" d="M253.136,-111.967C265.832,-113.438 279.282,-114.996 292.143,-116.486"/>
<polygon fill="midnightblue" stroke="midnightblue" points="291.969,-119.989 302.305,-117.663 292.774,-113.036 291.969,-119.989"/>
</g>
<!-- Node6 -->
<g id="node6" class="node"><title>Node6</title>
<g id="a_node6"><a xlink:href="a05455.html#aa580900cdf97734ca479fe9f68f1c681" target="_top" xlink:title=" ">
<polygon fill="white" stroke="black" points="300,-76.5 300,-95.5 416,-95.5 416,-76.5 300,-76.5"/>
<text text-anchor="middle" x="358" y="-83.5" font-family="Helvetica,sans-Serif" font-size="10.00">Stack::seqStack::push</text>
</a>
</g>
</g>
<!-- Node2&#45;&gt;Node6 -->
<g id="edge5" class="edge"><title>Node2&#45;&gt;Node6</title>
<path fill="none" stroke="midnightblue" d="M253.136,-98.033C265.063,-96.6512 277.656,-95.1923 289.801,-93.7853"/>
<polygon fill="midnightblue" stroke="midnightblue" points="290.342,-97.2461 299.873,-92.6184 289.536,-90.2926 290.342,-97.2461"/>
</g>
<!-- Node7 -->
<g id="node7" class="node"><title>Node7</title>
<g id="a_node7"><a xlink:href="a05455.html#a91fa28d561e88adc40c3213552c58402" target="_top" xlink:title=" ">
<polygon fill="white" stroke="black" points="301.5,-38.5 301.5,-57.5 414.5,-57.5 414.5,-38.5 301.5,-38.5"/>
<text text-anchor="middle" x="358" y="-45.5" font-family="Helvetica,sans-Serif" font-size="10.00">Stack::seqStack::size</text>
</a>
</g>
</g>
<!-- Node2&#45;&gt;Node7 -->
<g id="edge6" class="edge"><title>Node2&#45;&gt;Node7</title>
<path fill="none" stroke="midnightblue" d="M226.706,-95.491C235.385,-92.7269 244.633,-89.4994 253,-86 269.691,-79.019 272.192,-73.6945 289,-67 294.904,-64.6485 301.205,-62.4702 307.501,-60.4914"/>
<polygon fill="midnightblue" stroke="midnightblue" points="308.755,-63.7696 317.332,-57.5498 306.748,-57.0633 308.755,-63.7696"/>
</g>
<!-- Node8 -->
<g id="node8" class="node"><title>Node8</title>
<g id="a_node8"><a xlink:href="a05455.html#aae3a405f01cc5ba788a111fe15c6f5ed" target="_top" xlink:title=" ">
<polygon fill="white" stroke="black" points="303.5,-0.5 303.5,-19.5 412.5,-19.5 412.5,-0.5 303.5,-0.5"/>
<text text-anchor="middle" x="358" y="-7.5" font-family="Helvetica,sans-Serif" font-size="10.00">Stack::seqStack::top</text>
</a>
</g>
</g>
<!-- Node2&#45;&gt;Node8 -->
<g id="edge7" class="edge"><title>Node2&#45;&gt;Node8</title>
<path fill="none" stroke="midnightblue" d="M236.151,-95.4307C242.158,-92.9631 247.982,-89.8709 253,-86 276.724,-67.6985 264.966,-46.893 289,-29 291.524,-27.1208 294.226,-25.4275 297.044,-23.9016"/>
<polygon fill="midnightblue" stroke="midnightblue" points="298.769,-26.9596 306.367,-19.5756 295.823,-20.6098 298.769,-26.9596"/>
</g>
</g>
</svg>
