<?xml version="1.0" encoding="UTF-8" standalone="no"?>
<!DOCTYPE svg PUBLIC "-//W3C//DTD SVG 1.1//EN"
 "http://www.w3.org/Graphics/SVG/1.1/DTD/svg11.dtd">
<!-- Generated by graphviz version 2.38.0 (20140413.2041)
 -->
<!-- Title: Akm_t::Akm_rec Pages: 1 -->
<svg width="235pt" height="66pt"
 viewBox="0.00 0.00 235.00 66.00" xmlns="http://www.w3.org/2000/svg" xmlns:xlink="http://www.w3.org/1999/xlink">
<g id="graph0" class="graph" transform="scale(1 1) rotate(0) translate(4 62)">
<title>Akm_t::Akm_rec</title>
<polygon fill="white" stroke="none" points="-4,4 -4,-62 231,-62 231,4 -4,4"/>
<!-- Node1 -->
<g id="node1" class="node"><title>Node1</title>
<g id="a_node1"><a xlink:title="递归版本的Ackermann函数">
<polygon fill="#bfbfbf" stroke="black" points="0,-19.5 0,-38.5 90,-38.5 90,-19.5 0,-19.5"/>
<text text-anchor="middle" x="45" y="-26.5" font-family="Helvetica,sans-Serif" font-size="10.00">Akm_t::Akm_rec</text>
</a>
</g>
</g>
<!-- Node2 -->
<g id="node2" class="node"><title>Node2</title>
<g id="a_node2"><a xlink:href="a05391.html#a51975f6e439a660d39944f6516ce63e8" target="_top" xlink:title="Ackermann函数递归版本">
<polygon fill="white" stroke="black" points="126,-38.5 126,-57.5 227,-57.5 227,-38.5 126,-38.5"/>
<text text-anchor="middle" x="176.5" y="-45.5" font-family="Helvetica,sans-Serif" font-size="10.00">Akm_t::Ackermann</text>
</a>
</g>
</g>
<!-- Node1&#45;&gt;Node2 -->
<g id="edge1" class="edge"><title>Node1&#45;&gt;Node2</title>
<path fill="none" stroke="midnightblue" d="M90.2044,-35.4856C98.42,-36.691 107.128,-37.9686 115.718,-39.229"/>
<polygon fill="midnightblue" stroke="midnightblue" points="115.31,-42.7065 125.713,-40.6953 116.327,-35.7806 115.31,-42.7065"/>
</g>
<!-- Node3 -->
<g id="node3" class="node"><title>Node3</title>
<g id="a_node3"><a xlink:href="a05391.html#a864a85602360a8d5f10d124b54a1d9ff" target="_top" xlink:title="初始化类内部的静态计数器">
<polygon fill="white" stroke="black" points="134.5,-0.5 134.5,-19.5 218.5,-19.5 218.5,-0.5 134.5,-0.5"/>
<text text-anchor="middle" x="176.5" y="-7.5" font-family="Helvetica,sans-Serif" font-size="10.00">Akm_t::AkmInit</text>
</a>
</g>
</g>
<!-- Node1&#45;&gt;Node3 -->
<g id="edge2" class="edge"><title>Node1&#45;&gt;Node3</title>
<path fill="none" stroke="midnightblue" d="M90.2044,-22.5144C101.088,-20.9177 112.835,-19.1942 124.028,-17.5518"/>
<polygon fill="midnightblue" stroke="midnightblue" points="124.726,-20.987 134.112,-16.0723 123.71,-14.0611 124.726,-20.987"/>
</g>
</g>
</svg>
