<?xml version="1.0" encoding="UTF-8" standalone="no"?>
<!DOCTYPE svg PUBLIC "-//W3C//DTD SVG 1.1//EN"
 "http://www.w3.org/Graphics/SVG/1.1/DTD/svg11.dtd">
<!-- Generated by graphviz version 2.38.0 (20140413.2041)
 -->
<!-- Title: RPN::Rpn_t::Rpn_t Pages: 1 -->
<!--zoomable 446 -->
<svg id="main" version="1.1" xmlns="http://www.w3.org/2000/svg" xmlns:xlink="http://www.w3.org/1999/xlink" xml:space="preserve" onload="init(evt)">
<style type="text/css"><![CDATA[
.edge:hover path { stroke: red; }
.edge:hover polygon { stroke: red; fill: red; }
]]></style>
<script type="text/javascript"><![CDATA[
var edges = document.getElementsByTagName('g');
if (edges && edges.length) {
  for (var i=0;i<edges.length;i++) {
    if (edges[i].id.substr(0,4)=='edge') {
      edges[i].setAttribute('class','edge');
    }
  }
}
]]></script>
        <defs>
                <circle id="rim" cx="0" cy="0" r="7"/>
                <circle id="rim2" cx="0" cy="0" r="3.5"/>
                <g id="zoomPlus">
                        <use xlink:href="#rim" fill="#404040">
                                <set attributeName="fill" to="#808080" begin="zoomplus.mouseover" end="zoomplus.mouseout"/>
                        </use>
                        <path d="M-4,0h8M0,-4v8" fill="none" stroke="white" stroke-width="1.5" pointer-events="none"/>
                </g>
                <g id="zoomMin">
                        <use xlink:href="#rim" fill="#404040">
                                <set attributeName="fill" to="#808080" begin="zoomminus.mouseover" end="zoomminus.mouseout"/>
                        </use>
                        <path d="M-4,0h8" fill="none" stroke="white" stroke-width="1.5" pointer-events="none"/>
                </g>
                <g id="dirArrow">
                        <path fill="none" stroke="white" stroke-width="1.5" d="M0,-3.0v7 M-2.5,-0.5L0,-3.0L2.5,-0.5"/>
                </g>
               <g id="resetDef">
                       <use xlink:href="#rim2" fill="#404040">
                               <set attributeName="fill" to="#808080" begin="reset.mouseover" end="reset.mouseout"/>
                       </use>
               </g>
        </defs>

<script type="text/javascript">
var viewWidth = 682;
var viewHeight = 446;
var sectionId = 'dynsection-1';
</script>
<script xlink:href="svgpan.js"/>
<svg id="graph" class="graph">
<g id="viewport">
<title>RPN::Rpn_t::Rpn_t</title>
<polygon fill="white" stroke="none" points="-4,4 -4,-442 678,-442 678,4 -4,4"/>
<!-- Node1 -->
<g id="node1" class="node"><title>Node1</title>
<g id="a_node1"><a xlink:title="Construct a new Rpn_t object.">
<polygon fill="#bfbfbf" stroke="black" points="0,-209.5 0,-228.5 100,-228.5 100,-209.5 0,-209.5"/>
<text text-anchor="middle" x="50" y="-216.5" font-family="Helvetica,sans-Serif" font-size="10.00">RPN::Rpn_t::Rpn_t</text>
</a>
</g>
</g>
<!-- Node2 -->
<g id="node2" class="node"><title>Node2</title>
<g id="a_node2"><a xlink:href="a05435.html#a673867029e31811b1c70d28fe360b715" target="_top" xlink:title="用string中的表达式创建一个list">
<polygon fill="white" stroke="black" points="152,-342.5 152,-361.5 284,-361.5 284,-342.5 152,-342.5"/>
<text text-anchor="middle" x="218" y="-349.5" font-family="Helvetica,sans-Serif" font-size="10.00">RPN::Rpn_t::exprStrToList</text>
</a>
</g>
</g>
<!-- Node1&#45;&gt;Node2 -->
<g id="edge1" class="edge"><title>Node1&#45;&gt;Node2</title>
<path fill="none" stroke="midnightblue" d="M62.9383,-228.565C91.0367,-251.078 161.608,-307.62 196.631,-335.68"/>
<polygon fill="midnightblue" stroke="midnightblue" points="194.729,-338.642 204.722,-342.163 199.106,-333.179 194.729,-338.642"/>
</g>
<!-- Node4 -->
<g id="node4" class="node"><title>Node4</title>
<g id="a_node4"><a xlink:href="a05435.html#a8dd551d02431c034e10f256ff384c39f" target="_top" xlink:title="用一个中缀list创建一个后缀list">
<polygon fill="white" stroke="black" points="136,-209.5 136,-228.5 300,-228.5 300,-209.5 136,-209.5"/>
<text text-anchor="middle" x="218" y="-216.5" font-family="Helvetica,sans-Serif" font-size="10.00">RPN::Rpn_t::infixListToPostfixList</text>
</a>
</g>
</g>
<!-- Node1&#45;&gt;Node4 -->
<g id="edge3" class="edge"><title>Node1&#45;&gt;Node4</title>
<path fill="none" stroke="midnightblue" d="M100.356,-219C108.393,-219 116.936,-219 125.603,-219"/>
<polygon fill="midnightblue" stroke="midnightblue" points="125.811,-222.5 135.811,-219 125.811,-215.5 125.811,-222.5"/>
</g>
<!-- Node17 -->
<g id="node17" class="node"><title>Node17</title>
<g id="a_node17"><a xlink:href="a05435.html#a8bf0b803ffe55b4ecdf5d99d05b5897f" target="_top" xlink:title="获取表示itemList的string">
<polygon fill="white" stroke="black" points="152,-95.5 152,-114.5 284,-114.5 284,-95.5 152,-95.5"/>
<text text-anchor="middle" x="218" y="-102.5" font-family="Helvetica,sans-Serif" font-size="10.00">RPN::Rpn_t::itemListToStr</text>
</a>
</g>
</g>
<!-- Node1&#45;&gt;Node17 -->
<g id="edge17" class="edge"><title>Node1&#45;&gt;Node17</title>
<path fill="none" stroke="midnightblue" d="M64.8675,-209.477C93.4798,-189.827 159.298,-144.627 194.241,-120.63"/>
<polygon fill="midnightblue" stroke="midnightblue" points="196.558,-123.284 202.82,-114.738 192.595,-117.514 196.558,-123.284"/>
</g>
<!-- Node3 -->
<g id="node3" class="node"><title>Node3</title>
<g id="a_node3"><a xlink:href="a05435.html#afd8fb64bcf5a70cbe919497eea4e209a" target="_top" xlink:title="Rpn类的工具函数">
<polygon fill="white" stroke="black" points="361.5,-418.5 361.5,-437.5 468.5,-437.5 468.5,-418.5 361.5,-418.5"/>
<text text-anchor="middle" x="415" y="-425.5" font-family="Helvetica,sans-Serif" font-size="10.00">RPN::Rpn_t::stoItem</text>
</a>
</g>
</g>
<!-- Node2&#45;&gt;Node3 -->
<g id="edge2" class="edge"><title>Node2&#45;&gt;Node3</title>
<path fill="none" stroke="midnightblue" d="M235.939,-361.693C258.257,-374.123 299.017,-395.662 336,-409 343.02,-411.532 350.515,-413.835 357.979,-415.896"/>
<polygon fill="midnightblue" stroke="midnightblue" points="357.171,-419.302 367.732,-418.463 358.952,-412.533 357.171,-419.302"/>
</g>
<!-- Node5 -->
<g id="node5" class="node"><title>Node5</title>
<g id="a_node5"><a xlink:href="a05395.html#affb0e531ea57721ecd9b6dde83d2ebf0" target="_top" xlink:title=" ">
<polygon fill="white" stroke="black" points="361.5,-380.5 361.5,-399.5 468.5,-399.5 468.5,-380.5 361.5,-380.5"/>
<text text-anchor="middle" x="415" y="-387.5" font-family="Helvetica,sans-Serif" font-size="10.00">List::dLinkList::begin</text>
</a>
</g>
</g>
<!-- Node4&#45;&gt;Node5 -->
<g id="edge4" class="edge"><title>Node4&#45;&gt;Node5</title>
<path fill="none" stroke="midnightblue" d="M225.887,-228.696C248.67,-260.662 320.997,-361.238 336,-371 340.865,-374.165 346.21,-376.804 351.752,-379.003"/>
<polygon fill="midnightblue" stroke="midnightblue" points="350.618,-382.314 361.213,-382.304 352.924,-375.705 350.618,-382.314"/>
</g>
<!-- Node6 -->
<g id="node6" class="node"><title>Node6</title>
<g id="a_node6"><a xlink:href="a05395.html#ae8e62a19d3afc64b6fdb9b36d52a9a46" target="_top" xlink:title=" ">
<polygon fill="white" stroke="black" points="365.5,-342.5 365.5,-361.5 464.5,-361.5 464.5,-342.5 365.5,-342.5"/>
<text text-anchor="middle" x="415" y="-349.5" font-family="Helvetica,sans-Serif" font-size="10.00">List::dLinkList::end</text>
</a>
</g>
</g>
<!-- Node4&#45;&gt;Node6 -->
<g id="edge5" class="edge"><title>Node4&#45;&gt;Node6</title>
<path fill="none" stroke="midnightblue" d="M225.975,-228.701C242.444,-250.858 286.13,-305.387 336,-333 342.062,-336.357 348.712,-339.126 355.492,-341.41"/>
<polygon fill="midnightblue" stroke="midnightblue" points="354.881,-344.882 365.466,-344.42 356.904,-338.18 354.881,-344.882"/>
</g>
<!-- Node7 -->
<g id="node7" class="node"><title>Node7</title>
<g id="a_node7"><a xlink:href="a05439.html#a108cf06868968311383cf866288db1e1" target="_top" xlink:title="Item内嵌类的工具函数">
<polygon fill="white" stroke="black" points="336,-304.5 336,-323.5 494,-323.5 494,-304.5 336,-304.5"/>
<text text-anchor="middle" x="415" y="-311.5" font-family="Helvetica,sans-Serif" font-size="10.00">RPN::Rpn_t::Item::hasLoPriThan</text>
</a>
</g>
</g>
<!-- Node4&#45;&gt;Node7 -->
<g id="edge6" class="edge"><title>Node4&#45;&gt;Node7</title>
<path fill="none" stroke="midnightblue" d="M232.439,-228.683C253.59,-243.563 296.333,-272.192 336,-290 345.697,-294.353 356.41,-298.216 366.709,-301.502"/>
<polygon fill="midnightblue" stroke="midnightblue" points="365.825,-304.892 376.411,-304.474 367.874,-298.199 365.825,-304.892"/>
</g>
<!-- Node8 -->
<g id="node8" class="node"><title>Node8</title>
<g id="a_node8"><a xlink:href="a05439.html#a781e416a993decb9ee170f4b716952f9" target="_top" xlink:title="获取优先级.">
<polygon fill="white" stroke="black" points="538,-285.5 538,-304.5 666,-304.5 666,-285.5 538,-285.5"/>
<text text-anchor="middle" x="602" y="-292.5" font-family="Helvetica,sans-Serif" font-size="10.00">RPN::Rpn_t::Item::priority</text>
</a>
</g>
</g>
<!-- Node4&#45;&gt;Node8 -->
<g id="edge13" class="edge"><title>Node4&#45;&gt;Node8</title>
<path fill="none" stroke="midnightblue" d="M244.208,-228.58C267.665,-237.16 303.755,-249.51 336,-257 400.009,-271.868 474.148,-281.904 527.702,-287.91"/>
<polygon fill="midnightblue" stroke="midnightblue" points="527.468,-291.406 537.792,-289.022 528.235,-284.448 527.468,-291.406"/>
</g>
<!-- Node9 -->
<g id="node9" class="node"><title>Node9</title>
<g id="a_node9"><a xlink:href="a05439.html#aba8239b34b7b75b7d0c5e9e8c781ee19" target="_top" xlink:title="是NAO?">
<polygon fill="white" stroke="black" points="351,-228.5 351,-247.5 479,-247.5 479,-228.5 351,-228.5"/>
<text text-anchor="middle" x="415" y="-235.5" font-family="Helvetica,sans-Serif" font-size="10.00">RPN::Rpn_t::Item::isNAO</text>
</a>
</g>
</g>
<!-- Node4&#45;&gt;Node9 -->
<g id="edge8" class="edge"><title>Node4&#45;&gt;Node9</title>
<path fill="none" stroke="midnightblue" d="M300.003,-226.893C313.512,-228.209 327.456,-229.567 340.756,-230.863"/>
<polygon fill="midnightblue" stroke="midnightblue" points="340.491,-234.354 350.784,-231.84 341.17,-227.387 340.491,-234.354"/>
</g>
<!-- Node11 -->
<g id="node11" class="node"><title>Node11</title>
<g id="a_node11"><a xlink:href="a05439.html#ab22913295d9ad6d4cd8ba84105eb13f3" target="_top" xlink:title="获得一个NAO(非法操作符)">
<polygon fill="white" stroke="black" points="357.5,-190.5 357.5,-209.5 472.5,-209.5 472.5,-190.5 357.5,-190.5"/>
<text text-anchor="middle" x="415" y="-197.5" font-family="Helvetica,sans-Serif" font-size="10.00">RPN::Rpn_t::Item::nao</text>
</a>
</g>
</g>
<!-- Node4&#45;&gt;Node11 -->
<g id="edge10" class="edge"><title>Node4&#45;&gt;Node11</title>
<path fill="none" stroke="midnightblue" d="M300.003,-211.107C315.647,-209.583 331.875,-208.002 347.011,-206.527"/>
<polygon fill="midnightblue" stroke="midnightblue" points="347.682,-209.978 357.295,-205.525 347.003,-203.011 347.682,-209.978"/>
</g>
<!-- Node13 -->
<g id="node13" class="node"><title>Node13</title>
<g id="a_node13"><a xlink:href="a05411.html#a79e4a90c4530c70eaea1d37c139fc620" target="_top" xlink:title=" ">
<polygon fill="white" stroke="black" points="360,-152.5 360,-171.5 470,-171.5 470,-152.5 360,-152.5"/>
<text text-anchor="middle" x="415" y="-159.5" font-family="Helvetica,sans-Serif" font-size="10.00">Stack::linkStack::pop</text>
</a>
</g>
</g>
<!-- Node4&#45;&gt;Node13 -->
<g id="edge12" class="edge"><title>Node4&#45;&gt;Node13</title>
<path fill="none" stroke="midnightblue" d="M246.715,-209.348C270.309,-201.288 305.181,-189.745 336,-181 344.476,-178.595 353.521,-176.219 362.338,-174.005"/>
<polygon fill="midnightblue" stroke="midnightblue" points="363.285,-177.377 372.154,-171.581 361.606,-170.581 363.285,-177.377"/>
</g>
<!-- Node14 -->
<g id="node14" class="node"><title>Node14</title>
<g id="a_node14"><a xlink:href="a05411.html#a3425bfbff5c6945af2dd9683405a0e0b" target="_top" xlink:title=" ">
<polygon fill="white" stroke="black" points="357,-114.5 357,-133.5 473,-133.5 473,-114.5 357,-114.5"/>
<text text-anchor="middle" x="415" y="-121.5" font-family="Helvetica,sans-Serif" font-size="10.00">Stack::linkStack::push</text>
</a>
</g>
</g>
<!-- Node4&#45;&gt;Node14 -->
<g id="edge14" class="edge"><title>Node4&#45;&gt;Node14</title>
<path fill="none" stroke="midnightblue" d="M230.854,-209.325C251.153,-193.229 294.414,-160.951 336,-143 341.794,-140.499 347.979,-138.288 354.235,-136.343"/>
<polygon fill="midnightblue" stroke="midnightblue" points="355.441,-139.638 364.079,-133.502 353.5,-132.912 355.441,-139.638"/>
</g>
<!-- Node15 -->
<g id="node15" class="node"><title>Node15</title>
<g id="a_node15"><a xlink:href="a05395.html#a6cfc6d4245a507047fe729057227e0ad" target="_top" xlink:title=" ">
<polygon fill="white" stroke="black" points="349.5,-76.5 349.5,-95.5 480.5,-95.5 480.5,-76.5 349.5,-76.5"/>
<text text-anchor="middle" x="415" y="-83.5" font-family="Helvetica,sans-Serif" font-size="10.00">List::dLinkList::push_back</text>
</a>
</g>
</g>
<!-- Node4&#45;&gt;Node15 -->
<g id="edge15" class="edge"><title>Node4&#45;&gt;Node15</title>
<path fill="none" stroke="midnightblue" d="M225.975,-209.299C242.444,-187.142 286.13,-132.613 336,-105 340.018,-102.775 344.294,-100.808 348.695,-99.0699"/>
<polygon fill="midnightblue" stroke="midnightblue" points="350.213,-102.246 358.478,-95.6175 347.883,-95.645 350.213,-102.246"/>
</g>
<!-- Node16 -->
<g id="node16" class="node"><title>Node16</title>
<g id="a_node16"><a xlink:href="a05411.html#a5c7f1f07843fa15b71a1033ca309fa2e" target="_top" xlink:title=" ">
<polygon fill="white" stroke="black" points="361,-38.5 361,-57.5 469,-57.5 469,-38.5 361,-38.5"/>
<text text-anchor="middle" x="415" y="-45.5" font-family="Helvetica,sans-Serif" font-size="10.00">Stack::linkStack::top</text>
</a>
</g>
</g>
<!-- Node4&#45;&gt;Node16 -->
<g id="edge16" class="edge"><title>Node4&#45;&gt;Node16</title>
<path fill="none" stroke="midnightblue" d="M227.995,-209.398C243.481,-192.666 275.84,-156.813 300,-124 317.765,-99.8718 311.67,-84.4877 336,-67 340.598,-63.6953 345.7,-60.961 351.032,-58.6993"/>
<polygon fill="midnightblue" stroke="midnightblue" points="352.63,-61.8417 360.817,-55.1174 350.223,-55.2683 352.63,-61.8417"/>
</g>
<!-- Node7&#45;&gt;Node8 -->
<g id="edge7" class="edge"><title>Node7&#45;&gt;Node8</title>
<path fill="none" stroke="midnightblue" d="M494.189,-305.97C505.363,-304.822 516.823,-303.645 527.894,-302.508"/>
<polygon fill="midnightblue" stroke="midnightblue" points="528.344,-305.981 537.934,-301.477 527.628,-299.017 528.344,-305.981"/>
</g>
<!-- Node10 -->
<g id="node10" class="node"><title>Node10</title>
<g id="a_node10"><a xlink:href="a05439.html#a4a108f7cc08c900fbfbd69e4a2c43c2b" target="_top" xlink:title="是操作符">
<polygon fill="white" stroke="black" points="530,-228.5 530,-247.5 674,-247.5 674,-228.5 530,-228.5"/>
<text text-anchor="middle" x="602" y="-235.5" font-family="Helvetica,sans-Serif" font-size="10.00">RPN::Rpn_t::Item::isOperator</text>
</a>
</g>
</g>
<!-- Node9&#45;&gt;Node10 -->
<g id="edge9" class="edge"><title>Node9&#45;&gt;Node10</title>
<path fill="none" stroke="midnightblue" d="M479.149,-238C492.161,-238 506.038,-238 519.593,-238"/>
<polygon fill="midnightblue" stroke="midnightblue" points="519.875,-241.5 529.875,-238 519.875,-234.5 519.875,-241.5"/>
</g>
<!-- Node12 -->
<g id="node12" class="node"><title>Node12</title>
<g id="a_node12"><a xlink:href="a05439.html#a6f69830ca198b197719c4fc841745c46" target="_top" xlink:title="Construct a new Item object.">
<polygon fill="white" stroke="black" points="543,-190.5 543,-209.5 661,-209.5 661,-190.5 543,-190.5"/>
<text text-anchor="middle" x="602" y="-197.5" font-family="Helvetica,sans-Serif" font-size="10.00">RPN::Rpn_t::Item::Item</text>
</a>
</g>
</g>
<!-- Node11&#45;&gt;Node12 -->
<g id="edge11" class="edge"><title>Node11&#45;&gt;Node12</title>
<path fill="none" stroke="midnightblue" d="M472.511,-200C491.514,-200 512.916,-200 532.725,-200"/>
<polygon fill="midnightblue" stroke="midnightblue" points="532.917,-203.5 542.917,-200 532.917,-196.5 532.917,-203.5"/>
</g>
<!-- Node18 -->
<g id="node18" class="node"><title>Node18</title>
<g id="a_node18"><a xlink:href="a05435.html#a7db7b05c3ce06c9b98cf957498aba17b" target="_top" xlink:title="获取表示项(操作符/操作数)的string">
<polygon fill="white" stroke="black" points="357,-0.5 357,-19.5 473,-19.5 473,-0.5 357,-0.5"/>
<text text-anchor="middle" x="415" y="-7.5" font-family="Helvetica,sans-Serif" font-size="10.00">RPN::Rpn_t::itemToStr</text>
</a>
</g>
</g>
<!-- Node17&#45;&gt;Node18 -->
<g id="edge18" class="edge"><title>Node17&#45;&gt;Node18</title>
<path fill="none" stroke="midnightblue" d="M230.854,-95.325C251.153,-79.2292 294.414,-46.9512 336,-29 341.794,-26.4988 347.979,-24.2879 354.235,-22.343"/>
<polygon fill="midnightblue" stroke="midnightblue" points="355.441,-25.6378 364.079,-19.5021 353.5,-18.9123 355.441,-25.6378"/>
</g>
</g>
</svg>
        <g id="navigator" transform="translate(0 0)" fill="#404254">
                <rect fill="#f2f5e9" fill-opacity="0.5" stroke="#606060" stroke-width=".5" x="0" y="0" width="60" height="60"/>
                <use id="zoomplus" xlink:href="#zoomPlus" x="17" y="9" onmousedown="handleZoom(evt,'in')"/>
                <use id="zoomminus" xlink:href="#zoomMin" x="42" y="9" onmousedown="handleZoom(evt,'out')"/>
                <use id="reset" xlink:href="#resetDef" x="30" y="36" onmousedown="handleReset()"/>
                <g id="arrowUp" xlink:href="#dirArrow" transform="translate(30 24)" onmousedown="handlePan(0,-1)">
                  <use xlink:href="#rim" fill="#404040">
                        <set attributeName="fill" to="#808080" begin="arrowUp.mouseover" end="arrowUp.mouseout"/>
                  </use>
                  <path fill="none" stroke="white" stroke-width="1.5" d="M0,-3.0v7 M-2.5,-0.5L0,-3.0L2.5,-0.5"/>
                </g>
                <g id="arrowRight" xlink:href="#dirArrow" transform="rotate(90) translate(36 -43)" onmousedown="handlePan(1,0)">
                  <use xlink:href="#rim" fill="#404040">
                        <set attributeName="fill" to="#808080" begin="arrowRight.mouseover" end="arrowRight.mouseout"/>
                  </use>
                  <path fill="none" stroke="white" stroke-width="1.5" d="M0,-3.0v7 M-2.5,-0.5L0,-3.0L2.5,-0.5"/>
                </g>
                <g id="arrowDown" xlink:href="#dirArrow" transform="rotate(180) translate(-30 -48)" onmousedown="handlePan(0,1)">
                  <use xlink:href="#rim" fill="#404040">
                        <set attributeName="fill" to="#808080" begin="arrowDown.mouseover" end="arrowDown.mouseout"/>
                  </use>
                  <path fill="none" stroke="white" stroke-width="1.5" d="M0,-3.0v7 M-2.5,-0.5L0,-3.0L2.5,-0.5"/>
                </g>
                <g id="arrowLeft" xlink:href="#dirArrow" transform="rotate(270) translate(-36 17)" onmousedown="handlePan(-1,0)">
                  <use xlink:href="#rim" fill="#404040">
                        <set attributeName="fill" to="#808080" begin="arrowLeft.mouseover" end="arrowLeft.mouseout"/>
                  </use>
                  <path fill="none" stroke="white" stroke-width="1.5" d="M0,-3.0v7 M-2.5,-0.5L0,-3.0L2.5,-0.5"/>
                </g>
        </g>
        <svg viewBox="0 0 15 15" width="100%" height="30px" preserveAspectRatio="xMaxYMin meet">
         <g id="arrow_out" transform="scale(0.3 0.3)">
          <a xlink:href="a05435_a2328e43bfa616ee63c9bf475188ca511_cgraph_org.svg" target="_base">
           <rect id="button" ry="5" rx="5" y="6" x="6" height="38" width="38"
                fill="#f2f5e9" fill-opacity="0.5" stroke="#606060" stroke-width="1.0"/>
           <path id="arrow"
             d="M 11.500037,31.436501 C 11.940474,20.09759 22.043105,11.32322 32.158766,21.979434 L 37.068811,17.246167 C 37.068811,17.246167 37.088388,32 37.088388,32 L 22.160133,31.978069 C 22.160133,31.978069 26.997745,27.140456 26.997745,27.140456 C 18.528582,18.264221 13.291696,25.230495 11.500037,31.436501 z"
             style="fill:#404040;"/>
          </a>
         </g>
        </svg>
</svg>
