<?xml version="1.0" encoding="UTF-8" standalone="no"?>
<!DOCTYPE svg PUBLIC "-//W3C//DTD SVG 1.1//EN"
 "http://www.w3.org/Graphics/SVG/1.1/DTD/svg11.dtd">
<!-- Generated by graphviz version 2.38.0 (20140413.2041)
 -->
<!-- Title: RPN::Rpn_t::calcVal Pages: 1 -->
<svg width="641pt" height="180pt"
 viewBox="0.00 0.00 641.00 180.00" xmlns="http://www.w3.org/2000/svg" xmlns:xlink="http://www.w3.org/1999/xlink">
<g id="graph0" class="graph" transform="scale(1 1) rotate(0) translate(4 176)">
<title>RPN::Rpn_t::calcVal</title>
<polygon fill="white" stroke="none" points="-4,4 -4,-176 637,-176 637,4 -4,4"/>
<!-- Node1 -->
<g id="node1" class="node"><title>Node1</title>
<g id="a_node1"><a xlink:title="计算(后缀)表达式的值">
<polygon fill="#bfbfbf" stroke="black" points="0,-57.5 0,-76.5 107,-76.5 107,-57.5 0,-57.5"/>
<text text-anchor="middle" x="53.5" y="-64.5" font-family="Helvetica,sans-Serif" font-size="10.00">RPN::Rpn_t::calcVal</text>
</a>
</g>
</g>
<!-- Node2 -->
<g id="node2" class="node"><title>Node2</title>
<g id="a_node2"><a xlink:href="a05439.html#acc416b0c2ea4a909b71732a5bfa5f401" target="_top" xlink:title="执行一次运算.">
<polygon fill="white" stroke="black" points="144.5,-114.5 144.5,-133.5 272.5,-133.5 272.5,-114.5 144.5,-114.5"/>
<text text-anchor="middle" x="208.5" y="-121.5" font-family="Helvetica,sans-Serif" font-size="10.00">RPN::Rpn_t::Item::excOp</text>
</a>
</g>
</g>
<!-- Node1&#45;&gt;Node2 -->
<g id="edge1" class="edge"><title>Node1&#45;&gt;Node2</title>
<path fill="none" stroke="midnightblue" d="M74.9642,-76.6122C92.7252,-84.7546 119.248,-96.4367 143,-105 149.345,-107.288 156.112,-109.511 162.787,-111.581"/>
<polygon fill="midnightblue" stroke="midnightblue" points="161.856,-114.956 172.441,-114.497 163.88,-108.255 161.856,-114.956"/>
</g>
<!-- Node6 -->
<g id="node6" class="node"><title>Node6</title>
<g id="a_node6"><a xlink:href="a05455.html#a35a066a0aedc630474fd3e3dcaa9ced8" target="_top" xlink:title=" ">
<polygon fill="white" stroke="black" points="143,-76.5 143,-95.5 274,-95.5 274,-76.5 143,-76.5"/>
<text text-anchor="middle" x="208.5" y="-83.5" font-family="Helvetica,sans-Serif" font-size="10.00">Stack::seqStack::isEmpty</text>
</a>
</g>
</g>
<!-- Node1&#45;&gt;Node6 -->
<g id="edge6" class="edge"><title>Node1&#45;&gt;Node6</title>
<path fill="none" stroke="midnightblue" d="M107.154,-73.5387C115.417,-74.5649 124.093,-75.6422 132.739,-76.7159"/>
<polygon fill="midnightblue" stroke="midnightblue" points="132.493,-80.2122 142.848,-77.9713 133.356,-73.2656 132.493,-80.2122"/>
</g>
<!-- Node7 -->
<g id="node7" class="node"><title>Node7</title>
<g id="a_node7"><a xlink:href="a05455.html#ae76c0c31d160cd1dabd0270172e2c88a" target="_top" xlink:title=" ">
<polygon fill="white" stroke="black" points="153,-38.5 153,-57.5 264,-57.5 264,-38.5 153,-38.5"/>
<text text-anchor="middle" x="208.5" y="-45.5" font-family="Helvetica,sans-Serif" font-size="10.00">Stack::seqStack::pop</text>
</a>
</g>
</g>
<!-- Node1&#45;&gt;Node7 -->
<g id="edge7" class="edge"><title>Node1&#45;&gt;Node7</title>
<path fill="none" stroke="midnightblue" d="M107.154,-60.4613C118.586,-59.0416 130.808,-57.5238 142.649,-56.0534"/>
<polygon fill="midnightblue" stroke="midnightblue" points="143.434,-59.4829 152.927,-54.7771 142.572,-52.5362 143.434,-59.4829"/>
</g>
<!-- Node8 -->
<g id="node8" class="node"><title>Node8</title>
<g id="a_node8"><a xlink:href="a05455.html#aa580900cdf97734ca479fe9f68f1c681" target="_top" xlink:title=" ">
<polygon fill="white" stroke="black" points="150.5,-0.5 150.5,-19.5 266.5,-19.5 266.5,-0.5 150.5,-0.5"/>
<text text-anchor="middle" x="208.5" y="-7.5" font-family="Helvetica,sans-Serif" font-size="10.00">Stack::seqStack::push</text>
</a>
</g>
</g>
<!-- Node1&#45;&gt;Node8 -->
<g id="edge8" class="edge"><title>Node1&#45;&gt;Node8</title>
<path fill="none" stroke="midnightblue" d="M74.9642,-57.3878C92.7252,-49.2454 119.248,-37.5633 143,-29 149.345,-26.7123 156.112,-24.4894 162.787,-22.4185"/>
<polygon fill="midnightblue" stroke="midnightblue" points="163.88,-25.7448 172.441,-19.5035 161.856,-19.0437 163.88,-25.7448"/>
</g>
<!-- Node3 -->
<g id="node3" class="node"><title>Node3</title>
<g id="a_node3"><a xlink:href="a05439.html#aba8239b34b7b75b7d0c5e9e8c781ee19" target="_top" xlink:title="是NAO?">
<polygon fill="white" stroke="black" points="317.5,-152.5 317.5,-171.5 445.5,-171.5 445.5,-152.5 317.5,-152.5"/>
<text text-anchor="middle" x="381.5" y="-159.5" font-family="Helvetica,sans-Serif" font-size="10.00">RPN::Rpn_t::Item::isNAO</text>
</a>
</g>
</g>
<!-- Node2&#45;&gt;Node3 -->
<g id="edge2" class="edge"><title>Node2&#45;&gt;Node3</title>
<path fill="none" stroke="midnightblue" d="M252.651,-133.589C275.419,-138.649 303.548,-144.9 327.619,-150.249"/>
<polygon fill="midnightblue" stroke="midnightblue" points="327.139,-153.727 337.66,-152.48 328.657,-146.894 327.139,-153.727"/>
</g>
<!-- Node4 -->
<g id="node4" class="node"><title>Node4</title>
<g id="a_node4"><a xlink:href="a05439.html#a4a108f7cc08c900fbfbd69e4a2c43c2b" target="_top" xlink:title="是操作符">
<polygon fill="white" stroke="black" points="489,-133.5 489,-152.5 633,-152.5 633,-133.5 489,-133.5"/>
<text text-anchor="middle" x="561" y="-140.5" font-family="Helvetica,sans-Serif" font-size="10.00">RPN::Rpn_t::Item::isOperator</text>
</a>
</g>
</g>
<!-- Node2&#45;&gt;Node4 -->
<g id="edge5" class="edge"><title>Node2&#45;&gt;Node4</title>
<path fill="none" stroke="midnightblue" d="M272.567,-127.419C330.257,-130.546 415.927,-135.19 478.73,-138.595"/>
<polygon fill="midnightblue" stroke="midnightblue" points="478.823,-142.105 488.998,-139.151 479.202,-135.115 478.823,-142.105"/>
</g>
<!-- Node5 -->
<g id="node5" class="node"><title>Node5</title>
<g id="a_node5"><a xlink:href="a05439.html#ac7e91de809cf7ec85bd1a5e1ef016861" target="_top" xlink:title="是操作数">
<polygon fill="white" stroke="black" points="310,-76.5 310,-95.5 453,-95.5 453,-76.5 310,-76.5"/>
<text text-anchor="middle" x="381.5" y="-83.5" font-family="Helvetica,sans-Serif" font-size="10.00">RPN::Rpn_t::Item::isOperand</text>
</a>
</g>
</g>
<!-- Node2&#45;&gt;Node5 -->
<g id="edge4" class="edge"><title>Node2&#45;&gt;Node5</title>
<path fill="none" stroke="midnightblue" d="M252.651,-114.411C275.419,-109.351 303.548,-103.1 327.619,-97.7512"/>
<polygon fill="midnightblue" stroke="midnightblue" points="328.657,-101.106 337.66,-95.5201 327.139,-94.2728 328.657,-101.106"/>
</g>
<!-- Node3&#45;&gt;Node4 -->
<g id="edge3" class="edge"><title>Node3&#45;&gt;Node4</title>
<path fill="none" stroke="midnightblue" d="M445.58,-155.248C456.337,-154.096 467.644,-152.886 478.792,-151.693"/>
<polygon fill="midnightblue" stroke="midnightblue" points="479.394,-155.148 488.964,-150.604 478.649,-148.188 479.394,-155.148"/>
</g>
</g>
</svg>
