<?xml version="1.0" encoding="UTF-8" standalone="no"?>
<!DOCTYPE svg PUBLIC "-//W3C//DTD SVG 1.1//EN"
 "http://www.w3.org/Graphics/SVG/1.1/DTD/svg11.dtd">
<!-- Generated by graphviz version 2.38.0 (20140413.2041)
 -->
<!-- Title: Stack::linkStack::push Pages: 1 -->
<svg width="556pt" height="161pt"
 viewBox="0.00 0.00 556.00 161.00" xmlns="http://www.w3.org/2000/svg" xmlns:xlink="http://www.w3.org/1999/xlink">
<g id="graph0" class="graph" transform="scale(1 1) rotate(0) translate(4 157)">
<title>Stack::linkStack::push</title>
<polygon fill="white" stroke="none" points="-4,4 -4,-157 552,-157 552,4 -4,4"/>
<!-- Node1 -->
<g id="node1" class="node"><title>Node1</title>
<g id="a_node1"><a xlink:title=" ">
<polygon fill="#bfbfbf" stroke="black" points="432,-57.5 432,-76.5 548,-76.5 548,-57.5 432,-57.5"/>
<text text-anchor="middle" x="490" y="-64.5" font-family="Helvetica,sans-Serif" font-size="10.00">Stack::linkStack::push</text>
</a>
</g>
</g>
<!-- Node2 -->
<g id="node2" class="node"><title>Node2</title>
<g id="a_node2"><a xlink:href="a05435.html#a8dd551d02431c034e10f256ff384c39f" target="_top" xlink:title="用一个中缀list创建一个后缀list">
<polygon fill="white" stroke="black" points="224.5,-114.5 224.5,-133.5 388.5,-133.5 388.5,-114.5 224.5,-114.5"/>
<text text-anchor="middle" x="306.5" y="-121.5" font-family="Helvetica,sans-Serif" font-size="10.00">RPN::Rpn_t::infixListToPostfixList</text>
</a>
</g>
</g>
<!-- Node1&#45;&gt;Node2 -->
<g id="edge1" class="edge"><title>Node1&#45;&gt;Node2</title>
<path fill="none" stroke="midnightblue" d="M459.308,-80.7014C441.285,-88.6208 417.653,-98.3093 396,-105 384.289,-108.619 371.498,-111.796 359.373,-114.465"/>
<polygon fill="midnightblue" stroke="midnightblue" points="460.988,-83.7841 468.695,-76.514 458.137,-77.3912 460.988,-83.7841"/>
</g>
<!-- Node6 -->
<g id="node6" class="node"><title>Node6</title>
<g id="a_node6"><a xlink:href="a05411.html#ace2c93447270b068ea2efac732226794" target="_top" xlink:title=" ">
<polygon fill="white" stroke="black" points="239,-76.5 239,-95.5 374,-95.5 374,-76.5 239,-76.5"/>
<text text-anchor="middle" x="306.5" y="-83.5" font-family="Helvetica,sans-Serif" font-size="10.00">Stack::linkStack::linkStack</text>
</a>
</g>
</g>
<!-- Node1&#45;&gt;Node6 -->
<g id="edge5" class="edge"><title>Node1&#45;&gt;Node6</title>
<path fill="none" stroke="midnightblue" d="M421.537,-74.0622C406.021,-75.6865 389.531,-77.4128 374.053,-79.033"/>
<polygon fill="midnightblue" stroke="midnightblue" points="421.991,-77.5339 431.572,-73.0117 421.262,-70.572 421.991,-77.5339"/>
</g>
<!-- Node7 -->
<g id="node7" class="node"><title>Node7</title>
<g id="a_node7"><a xlink:href="a04574.html#a0458a737a0c683a8a26d8f6423b9e101" target="_top" xlink:title=" ">
<polygon fill="white" stroke="black" points="217,-38.5 217,-57.5 396,-57.5 396,-38.5 217,-38.5"/>
<text text-anchor="middle" x="306.5" y="-45.5" font-family="Helvetica,sans-Serif" font-size="10.00">ch3_3::permuteWithFixedPrefix_Loop</text>
</a>
</g>
</g>
<!-- Node1&#45;&gt;Node7 -->
<g id="edge6" class="edge"><title>Node1&#45;&gt;Node7</title>
<path fill="none" stroke="midnightblue" d="M421.575,-59.9417C413.247,-59.07 404.639,-58.1688 396.057,-57.2704"/>
<polygon fill="midnightblue" stroke="midnightblue" points="421.262,-63.428 431.572,-60.9883 421.991,-56.4661 421.262,-63.428"/>
</g>
<!-- Node10 -->
<g id="node10" class="node"><title>Node10</title>
<g id="a_node10"><a xlink:href="a04553.html#a62ce3117115c8823ed9ab22c5df86de9" target="_top" xlink:title=" ">
<polygon fill="white" stroke="black" points="254.5,-0.5 254.5,-19.5 358.5,-19.5 358.5,-0.5 254.5,-0.5"/>
<text text-anchor="middle" x="306.5" y="-7.5" font-family="Helvetica,sans-Serif" font-size="10.00">prnNonNegDecInBin</text>
</a>
</g>
</g>
<!-- Node1&#45;&gt;Node10 -->
<g id="edge9" class="edge"><title>Node1&#45;&gt;Node10</title>
<path fill="none" stroke="midnightblue" d="M459.308,-53.2986C441.285,-45.3792 417.653,-35.6907 396,-29 384.139,-25.3349 371.17,-22.1225 358.907,-19.4324"/>
<polygon fill="midnightblue" stroke="midnightblue" points="458.137,-56.6088 468.695,-57.486 460.988,-50.2159 458.137,-56.6088"/>
</g>
<!-- Node3 -->
<g id="node3" class="node"><title>Node3</title>
<g id="a_node3"><a xlink:href="a05435.html#a13f84208d6722039432be70b4bffee8c" target="_top" xlink:title="设置Rpn_t类对象的值">
<polygon fill="white" stroke="black" points="76,-133.5 76,-152.5 179,-152.5 179,-133.5 76,-133.5"/>
<text text-anchor="middle" x="127.5" y="-140.5" font-family="Helvetica,sans-Serif" font-size="10.00">RPN::Rpn_t::assign</text>
</a>
</g>
</g>
<!-- Node2&#45;&gt;Node3 -->
<g id="edge2" class="edge"><title>Node2&#45;&gt;Node3</title>
<path fill="none" stroke="midnightblue" d="M214.211,-133.799C202.252,-135.083 190.362,-136.359 179.414,-137.535"/>
<polygon fill="midnightblue" stroke="midnightblue" points="214.683,-137.269 224.253,-132.721 213.936,-130.309 214.683,-137.269"/>
</g>
<!-- Node5 -->
<g id="node5" class="node"><title>Node5</title>
<g id="a_node5"><a xlink:href="a05435.html#a2328e43bfa616ee63c9bf475188ca511" target="_top" xlink:title="Construct a new Rpn_t object.">
<polygon fill="white" stroke="black" points="77.5,-95.5 77.5,-114.5 177.5,-114.5 177.5,-95.5 77.5,-95.5"/>
<text text-anchor="middle" x="127.5" y="-102.5" font-family="Helvetica,sans-Serif" font-size="10.00">RPN::Rpn_t::Rpn_t</text>
</a>
</g>
</g>
<!-- Node2&#45;&gt;Node5 -->
<g id="edge4" class="edge"><title>Node2&#45;&gt;Node5</title>
<path fill="none" stroke="midnightblue" d="M214.223,-114.202C201.714,-112.859 189.279,-111.524 177.918,-110.305"/>
<polygon fill="midnightblue" stroke="midnightblue" points="213.936,-117.691 224.253,-115.279 214.683,-110.731 213.936,-117.691"/>
</g>
<!-- Node4 -->
<g id="node4" class="node"><title>Node4</title>
<g id="a_node4"><a xlink:href="a04562.html#abf9e6b7e6f15df4b525a2e7705ba3089" target="_top" xlink:title=" ">
<polygon fill="white" stroke="black" points="0,-133.5 0,-152.5 38,-152.5 38,-133.5 0,-133.5"/>
<text text-anchor="middle" x="19" y="-140.5" font-family="Helvetica,sans-Serif" font-size="10.00">main</text>
</a>
</g>
</g>
<!-- Node3&#45;&gt;Node4 -->
<g id="edge3" class="edge"><title>Node3&#45;&gt;Node4</title>
<path fill="none" stroke="midnightblue" d="M65.6339,-143C55.5911,-143 45.9173,-143 38.0813,-143"/>
<polygon fill="midnightblue" stroke="midnightblue" points="65.7453,-146.5 75.7453,-143 65.7452,-139.5 65.7453,-146.5"/>
</g>
<!-- Node8 -->
<g id="node8" class="node"><title>Node8</title>
<g id="a_node8"><a xlink:href="a04574.html#a2e6617e99689d9f762dc193ecf3fcda2" target="_top" xlink:title=" ">
<polygon fill="white" stroke="black" points="74,-38.5 74,-57.5 181,-57.5 181,-38.5 74,-38.5"/>
<text text-anchor="middle" x="127.5" y="-45.5" font-family="Helvetica,sans-Serif" font-size="10.00">ch3_3::permute_loop</text>
</a>
</g>
</g>
<!-- Node7&#45;&gt;Node8 -->
<g id="edge7" class="edge"><title>Node7&#45;&gt;Node8</title>
<path fill="none" stroke="midnightblue" d="M206.573,-48C197.947,-48 189.456,-48 181.432,-48"/>
<polygon fill="midnightblue" stroke="midnightblue" points="206.741,-51.5001 216.741,-48 206.741,-44.5001 206.741,-51.5001"/>
</g>
<!-- Node9 -->
<g id="node9" class="node"><title>Node9</title>
<g id="a_node9"><a xlink:href="a04556.html#abf9e6b7e6f15df4b525a2e7705ba3089" target="_top" xlink:title=" ">
<polygon fill="white" stroke="black" points="0,-38.5 0,-57.5 38,-57.5 38,-38.5 0,-38.5"/>
<text text-anchor="middle" x="19" y="-45.5" font-family="Helvetica,sans-Serif" font-size="10.00">main</text>
</a>
</g>
</g>
<!-- Node8&#45;&gt;Node9 -->
<g id="edge8" class="edge"><title>Node8&#45;&gt;Node9</title>
<path fill="none" stroke="midnightblue" d="M63.7296,-48C54.4734,-48 45.6139,-48 38.3194,-48"/>
<polygon fill="midnightblue" stroke="midnightblue" points="63.874,-51.5001 73.874,-48 63.874,-44.5001 63.874,-51.5001"/>
</g>
<!-- Node11 -->
<g id="node11" class="node"><title>Node11</title>
<g id="a_node11"><a xlink:href="a04553.html#abf9e6b7e6f15df4b525a2e7705ba3089" target="_top" xlink:title=" ">
<polygon fill="white" stroke="black" points="108.5,-0.5 108.5,-19.5 146.5,-19.5 146.5,-0.5 108.5,-0.5"/>
<text text-anchor="middle" x="127.5" y="-7.5" font-family="Helvetica,sans-Serif" font-size="10.00">main</text>
</a>
</g>
</g>
<!-- Node10&#45;&gt;Node11 -->
<g id="edge10" class="edge"><title>Node10&#45;&gt;Node11</title>
<path fill="none" stroke="midnightblue" d="M243.897,-10C209.665,-10 169.501,-10 146.721,-10"/>
<polygon fill="midnightblue" stroke="midnightblue" points="244.304,-13.5001 254.304,-10 244.304,-6.5001 244.304,-13.5001"/>
</g>
</g>
</svg>
