<?xml version="1.0" encoding="UTF-8" standalone="no"?>
<!DOCTYPE svg PUBLIC "-//W3C//DTD SVG 1.1//EN"
 "http://www.w3.org/Graphics/SVG/1.1/DTD/svg11.dtd">
<!-- Generated by graphviz version 2.38.0 (20140413.2041)
 -->
<!-- Title: RPN::Rpn_t::Item::excOp Pages: 1 -->
<svg width="353pt" height="28pt"
 viewBox="0.00 0.00 353.00 28.00" xmlns="http://www.w3.org/2000/svg" xmlns:xlink="http://www.w3.org/1999/xlink">
<g id="graph0" class="graph" transform="scale(1 1) rotate(0) translate(4 24)">
<title>RPN::Rpn_t::Item::excOp</title>
<polygon fill="white" stroke="none" points="-4,4 -4,-24 349,-24 349,4 -4,4"/>
<!-- Node1 -->
<g id="node1" class="node"><title>Node1</title>
<g id="a_node1"><a xlink:title="执行一次运算.">
<polygon fill="#bfbfbf" stroke="black" points="217,-0.5 217,-19.5 345,-19.5 345,-0.5 217,-0.5"/>
<text text-anchor="middle" x="281" y="-7.5" font-family="Helvetica,sans-Serif" font-size="10.00">RPN::Rpn_t::Item::excOp</text>
</a>
</g>
</g>
<!-- Node2 -->
<g id="node2" class="node"><title>Node2</title>
<g id="a_node2"><a xlink:href="a05435.html#a760c2a7b4a404cfe61345e06110c40ff" target="_top" xlink:title="计算(后缀)表达式的值">
<polygon fill="white" stroke="black" points="74,-0.5 74,-19.5 181,-19.5 181,-0.5 74,-0.5"/>
<text text-anchor="middle" x="127.5" y="-7.5" font-family="Helvetica,sans-Serif" font-size="10.00">RPN::Rpn_t::calcVal</text>
</a>
</g>
</g>
<!-- Node1&#45;&gt;Node2 -->
<g id="edge1" class="edge"><title>Node1&#45;&gt;Node2</title>
<path fill="none" stroke="midnightblue" d="M206.568,-10C197.96,-10 189.312,-10 181.069,-10"/>
<polygon fill="midnightblue" stroke="midnightblue" points="206.628,-13.5001 216.628,-10 206.628,-6.5001 206.628,-13.5001"/>
</g>
<!-- Node3 -->
<g id="node3" class="node"><title>Node3</title>
<g id="a_node3"><a xlink:href="a04562.html#abf9e6b7e6f15df4b525a2e7705ba3089" target="_top" xlink:title=" ">
<polygon fill="white" stroke="black" points="0,-0.5 0,-19.5 38,-19.5 38,-0.5 0,-0.5"/>
<text text-anchor="middle" x="19" y="-7.5" font-family="Helvetica,sans-Serif" font-size="10.00">main</text>
</a>
</g>
</g>
<!-- Node2&#45;&gt;Node3 -->
<g id="edge2" class="edge"><title>Node2&#45;&gt;Node3</title>
<path fill="none" stroke="midnightblue" d="M63.7296,-10C54.4734,-10 45.6139,-10 38.3194,-10"/>
<polygon fill="midnightblue" stroke="midnightblue" points="63.874,-13.5001 73.874,-10 63.874,-6.5001 63.874,-13.5001"/>
</g>
</g>
</svg>
