<?xml version="1.0" encoding="UTF-8" standalone="no"?>
<!DOCTYPE svg PUBLIC "-//W3C//DTD SVG 1.1//EN"
 "http://www.w3.org/Graphics/SVG/1.1/DTD/svg11.dtd">
<!-- Generated by graphviz version 2.38.0 (20140413.2041)
 -->
<!-- Title: RPN::Rpn_t::Item::excOp Pages: 1 -->
<svg width="495pt" height="104pt"
 viewBox="0.00 0.00 495.00 104.00" xmlns="http://www.w3.org/2000/svg" xmlns:xlink="http://www.w3.org/1999/xlink">
<g id="graph0" class="graph" transform="scale(1 1) rotate(0) translate(4 100)">
<title>RPN::Rpn_t::Item::excOp</title>
<polygon fill="white" stroke="none" points="-4,4 -4,-100 491,-100 491,4 -4,4"/>
<!-- Node1 -->
<g id="node1" class="node"><title>Node1</title>
<g id="a_node1"><a xlink:title="执行一次运算.">
<polygon fill="#bfbfbf" stroke="black" points="0,-38.5 0,-57.5 128,-57.5 128,-38.5 0,-38.5"/>
<text text-anchor="middle" x="64" y="-45.5" font-family="Helvetica,sans-Serif" font-size="10.00">RPN::Rpn_t::Item::excOp</text>
</a>
</g>
</g>
<!-- Node2 -->
<g id="node2" class="node"><title>Node2</title>
<g id="a_node2"><a xlink:href="a05439.html#aba8239b34b7b75b7d0c5e9e8c781ee19" target="_top" xlink:title="是NAO?">
<polygon fill="white" stroke="black" points="171.5,-76.5 171.5,-95.5 299.5,-95.5 299.5,-76.5 171.5,-76.5"/>
<text text-anchor="middle" x="235.5" y="-83.5" font-family="Helvetica,sans-Serif" font-size="10.00">RPN::Rpn_t::Item::isNAO</text>
</a>
</g>
</g>
<!-- Node1&#45;&gt;Node2 -->
<g id="edge1" class="edge"><title>Node1&#45;&gt;Node2</title>
<path fill="none" stroke="midnightblue" d="M107.772,-57.589C130.341,-62.6487 158.223,-68.8996 182.083,-74.2488"/>
<polygon fill="midnightblue" stroke="midnightblue" points="181.512,-77.7075 192.036,-76.4799 183.043,-70.8771 181.512,-77.7075"/>
</g>
<!-- Node3 -->
<g id="node3" class="node"><title>Node3</title>
<g id="a_node3"><a xlink:href="a05439.html#a4a108f7cc08c900fbfbd69e4a2c43c2b" target="_top" xlink:title="是操作符">
<polygon fill="white" stroke="black" points="343,-57.5 343,-76.5 487,-76.5 487,-57.5 343,-57.5"/>
<text text-anchor="middle" x="415" y="-64.5" font-family="Helvetica,sans-Serif" font-size="10.00">RPN::Rpn_t::Item::isOperator</text>
</a>
</g>
</g>
<!-- Node1&#45;&gt;Node3 -->
<g id="edge4" class="edge"><title>Node1&#45;&gt;Node3</title>
<path fill="none" stroke="midnightblue" d="M128.201,-51.4408C185.511,-54.5608 270.31,-59.1773 332.66,-62.5717"/>
<polygon fill="midnightblue" stroke="midnightblue" points="332.68,-66.0779 342.855,-63.1268 333.06,-59.0883 332.68,-66.0779"/>
</g>
<!-- Node4 -->
<g id="node4" class="node"><title>Node4</title>
<g id="a_node4"><a xlink:href="a05439.html#ac7e91de809cf7ec85bd1a5e1ef016861" target="_top" xlink:title="是操作数">
<polygon fill="white" stroke="black" points="164,-0.5 164,-19.5 307,-19.5 307,-0.5 164,-0.5"/>
<text text-anchor="middle" x="235.5" y="-7.5" font-family="Helvetica,sans-Serif" font-size="10.00">RPN::Rpn_t::Item::isOperand</text>
</a>
</g>
</g>
<!-- Node1&#45;&gt;Node4 -->
<g id="edge3" class="edge"><title>Node1&#45;&gt;Node4</title>
<path fill="none" stroke="midnightblue" d="M107.772,-38.411C130.341,-33.3513 158.223,-27.1004 182.083,-21.7512"/>
<polygon fill="midnightblue" stroke="midnightblue" points="183.043,-25.1229 192.036,-19.5201 181.512,-18.2925 183.043,-25.1229"/>
</g>
<!-- Node2&#45;&gt;Node3 -->
<g id="edge2" class="edge"><title>Node2&#45;&gt;Node3</title>
<path fill="none" stroke="midnightblue" d="M299.58,-79.2478C310.337,-78.0964 321.644,-76.886 332.792,-75.6927"/>
<polygon fill="midnightblue" stroke="midnightblue" points="333.394,-79.1484 342.964,-74.6038 332.649,-72.1881 333.394,-79.1484"/>
</g>
</g>
</svg>
