<?xml version="1.0" encoding="UTF-8" standalone="no"?>
<!DOCTYPE svg PUBLIC "-//W3C//DTD SVG 1.1//EN"
 "http://www.w3.org/Graphics/SVG/1.1/DTD/svg11.dtd">
<!-- Generated by graphviz version 2.38.0 (20140413.2041)
 -->
<!-- Title: Stack::linkStack&lt; T &gt; Pages: 1 -->
<svg width="266pt" height="173pt"
 viewBox="0.00 0.00 266.00 173.00" xmlns="http://www.w3.org/2000/svg" xmlns:xlink="http://www.w3.org/1999/xlink">
<g id="graph0" class="graph" transform="scale(1 1) rotate(0) translate(4 169)">
<title>Stack::linkStack&lt; T &gt;</title>
<polygon fill="white" stroke="none" points="-4,4 -4,-169 262,-169 262,4 -4,4"/>
<!-- Node1 -->
<g id="node1" class="node"><title>Node1</title>
<g id="a_node1"><a xlink:title=" ">
<polygon fill="#bfbfbf" stroke="black" points="29.5,-0.5 29.5,-19.5 141.5,-19.5 141.5,-0.5 29.5,-0.5"/>
<text text-anchor="middle" x="85.5" y="-7.5" font-family="Helvetica,sans-Serif" font-size="10.00">Stack::linkStack&lt; T &gt;</text>
</a>
</g>
</g>
<!-- Node2 -->
<g id="node2" class="node"><title>Node2</title>
<g id="a_node2"><a xlink:href="a05475.html" target="_top" xlink:title=" ">
<polygon fill="white" stroke="black" points="0,-73 0,-92 97,-92 97,-73 0,-73"/>
<text text-anchor="middle" x="48.5" y="-80" font-family="Helvetica,sans-Serif" font-size="10.00">Stack::Stack&lt; T &gt;</text>
</a>
</g>
</g>
<!-- Node2&#45;&gt;Node1 -->
<g id="edge1" class="edge"><title>Node2&#45;&gt;Node1</title>
<path fill="none" stroke="midnightblue" d="M57.8512,-63.6821C65.2261,-49.63 75.1933,-30.6384 80.926,-19.7154"/>
<polygon fill="midnightblue" stroke="midnightblue" points="54.585,-62.3742 53.0369,-72.8553 60.7832,-65.6272 54.585,-62.3742"/>
</g>
<!-- Node3 -->
<g id="node3" class="node"><title>Node3</title>
<g id="a_node3"><a xlink:href="a05415.html" target="_top" xlink:title=" ">
<polygon fill="white" stroke="black" points="115,-67.5 115,-97.5 218,-97.5 218,-67.5 115,-67.5"/>
<text text-anchor="start" x="123" y="-85.5" font-family="Helvetica,sans-Serif" font-size="10.00">Stack::linkStack&lt; T</text>
<text text-anchor="middle" x="166.5" y="-74.5" font-family="Helvetica,sans-Serif" font-size="10.00"> &gt;::node</text>
</a>
</g>
</g>
<!-- Node3&#45;&gt;Node1 -->
<g id="edge2" class="edge"><title>Node3&#45;&gt;Node1</title>
<path fill="none" stroke="#9a32cd" stroke-dasharray="5,2" d="M142.385,-60.5106C126.819,-46.9628 107.37,-30.0348 95.7177,-19.8932"/>
<polygon fill="#9a32cd" stroke="#9a32cd" points="140.268,-63.3081 150.108,-67.2333 144.863,-58.0279 140.268,-63.3081"/>
<text text-anchor="middle" x="141.5" y="-41" font-family="Helvetica,sans-Serif" font-size="10.00"> top_p</text>
</g>
<!-- Node3&#45;&gt;Node3 -->
<g id="edge3" class="edge"><title>Node3&#45;&gt;Node3</title>
<path fill="none" stroke="#9a32cd" stroke-dasharray="5,2" d="M227.956,-87.9525C232.922,-86.7661 236,-84.9486 236,-82.5 236,-78.6777 228.5,-76.3933 218.025,-75.6468"/>
<polygon fill="#9a32cd" stroke="#9a32cd" points="227.438,-84.4907 218.025,-89.3532 228.416,-91.4221 227.438,-84.4907"/>
<text text-anchor="middle" x="247" y="-80" font-family="Helvetica,sans-Serif" font-size="10.00"> next</text>
</g>
<!-- Node4 -->
<g id="node4" class="node"><title>Node4</title>
<g id="a_node4"><a xlink:title=" ">
<polygon fill="white" stroke="#bfbfbf" points="152,-145.5 152,-164.5 181,-164.5 181,-145.5 152,-145.5"/>
<text text-anchor="middle" x="166.5" y="-152.5" font-family="Helvetica,sans-Serif" font-size="10.00">T</text>
</a>
</g>
</g>
<!-- Node4&#45;&gt;Node3 -->
<g id="edge4" class="edge"><title>Node4&#45;&gt;Node3</title>
<path fill="none" stroke="#9a32cd" stroke-dasharray="5,2" d="M166.5,-135.236C166.5,-123.408 166.5,-108.383 166.5,-97.5762"/>
<polygon fill="#9a32cd" stroke="#9a32cd" points="163,-135.355 166.5,-145.355 170,-135.355 163,-135.355"/>
<text text-anchor="middle" x="177.5" y="-119" font-family="Helvetica,sans-Serif" font-size="10.00"> data</text>
</g>
</g>
</svg>
