<?xml version="1.0" encoding="UTF-8" standalone="no"?>
<!DOCTYPE svg PUBLIC "-//W3C//DTD SVG 1.1//EN"
 "http://www.w3.org/Graphics/SVG/1.1/DTD/svg11.dtd">
<!-- Generated by graphviz version 2.38.0 (20140413.2041)
 -->
<!-- Title: RPN::Rpn_t::itemToStr Pages: 1 -->
<svg width="505pt" height="66pt"
 viewBox="0.00 0.00 505.00 66.00" xmlns="http://www.w3.org/2000/svg" xmlns:xlink="http://www.w3.org/1999/xlink">
<g id="graph0" class="graph" transform="scale(1 1) rotate(0) translate(4 62)">
<title>RPN::Rpn_t::itemToStr</title>
<polygon fill="white" stroke="none" points="-4,4 -4,-62 501,-62 501,4 -4,4"/>
<!-- Node1 -->
<g id="node1" class="node"><title>Node1</title>
<g id="a_node1"><a xlink:title="获取表示项(操作符/操作数)的string">
<polygon fill="#bfbfbf" stroke="black" points="381,-19.5 381,-38.5 497,-38.5 497,-19.5 381,-19.5"/>
<text text-anchor="middle" x="439" y="-26.5" font-family="Helvetica,sans-Serif" font-size="10.00">RPN::Rpn_t::itemToStr</text>
</a>
</g>
</g>
<!-- Node2 -->
<g id="node2" class="node"><title>Node2</title>
<g id="a_node2"><a xlink:href="a05435.html#a8bf0b803ffe55b4ecdf5d99d05b5897f" target="_top" xlink:title="获取表示itemList的string">
<polygon fill="white" stroke="black" points="213,-19.5 213,-38.5 345,-38.5 345,-19.5 213,-19.5"/>
<text text-anchor="middle" x="279" y="-26.5" font-family="Helvetica,sans-Serif" font-size="10.00">RPN::Rpn_t::itemListToStr</text>
</a>
</g>
</g>
<!-- Node1&#45;&gt;Node2 -->
<g id="edge1" class="edge"><title>Node1&#45;&gt;Node2</title>
<path fill="none" stroke="midnightblue" d="M370.694,-29C362.18,-29 353.482,-29 345.006,-29"/>
<polygon fill="midnightblue" stroke="midnightblue" points="370.958,-32.5001 380.958,-29 370.958,-25.5001 370.958,-32.5001"/>
</g>
<!-- Node3 -->
<g id="node3" class="node"><title>Node3</title>
<g id="a_node3"><a xlink:href="a05435.html#a13f84208d6722039432be70b4bffee8c" target="_top" xlink:title="设置Rpn_t类对象的值">
<polygon fill="white" stroke="black" points="74,-38.5 74,-57.5 177,-57.5 177,-38.5 74,-38.5"/>
<text text-anchor="middle" x="125.5" y="-45.5" font-family="Helvetica,sans-Serif" font-size="10.00">RPN::Rpn_t::assign</text>
</a>
</g>
</g>
<!-- Node2&#45;&gt;Node3 -->
<g id="edge2" class="edge"><title>Node2&#45;&gt;Node3</title>
<path fill="none" stroke="midnightblue" d="M202.799,-38.4312C194.192,-39.5106 185.576,-40.5911 177.395,-41.6171"/>
<polygon fill="midnightblue" stroke="midnightblue" points="203.384,-41.8852 212.871,-37.168 202.513,-34.9396 203.384,-41.8852"/>
</g>
<!-- Node5 -->
<g id="node5" class="node"><title>Node5</title>
<g id="a_node5"><a xlink:href="a05435.html#a2328e43bfa616ee63c9bf475188ca511" target="_top" xlink:title="Construct a new Rpn_t object.">
<polygon fill="white" stroke="black" points="75.5,-0.5 75.5,-19.5 175.5,-19.5 175.5,-0.5 75.5,-0.5"/>
<text text-anchor="middle" x="125.5" y="-7.5" font-family="Helvetica,sans-Serif" font-size="10.00">RPN::Rpn_t::Rpn_t</text>
</a>
</g>
</g>
<!-- Node2&#45;&gt;Node5 -->
<g id="edge4" class="edge"><title>Node2&#45;&gt;Node5</title>
<path fill="none" stroke="midnightblue" d="M202.844,-19.5745C193.575,-18.4121 184.294,-17.2481 175.557,-16.1524"/>
<polygon fill="midnightblue" stroke="midnightblue" points="202.513,-23.0604 212.871,-20.832 203.384,-16.1148 202.513,-23.0604"/>
</g>
<!-- Node4 -->
<g id="node4" class="node"><title>Node4</title>
<g id="a_node4"><a xlink:href="a04562.html#abf9e6b7e6f15df4b525a2e7705ba3089" target="_top" xlink:title=" ">
<polygon fill="white" stroke="black" points="0,-38.5 0,-57.5 38,-57.5 38,-38.5 0,-38.5"/>
<text text-anchor="middle" x="19" y="-45.5" font-family="Helvetica,sans-Serif" font-size="10.00">main</text>
</a>
</g>
</g>
<!-- Node3&#45;&gt;Node4 -->
<g id="edge3" class="edge"><title>Node3&#45;&gt;Node4</title>
<path fill="none" stroke="midnightblue" d="M63.7001,-48C54.4902,-48 45.6446,-48 38.3502,-48"/>
<polygon fill="midnightblue" stroke="midnightblue" points="63.7806,-51.5001 73.7806,-48 63.7805,-44.5001 63.7806,-51.5001"/>
</g>
</g>
</svg>
