<?xml version="1.0" encoding="UTF-8" standalone="no"?>
<!DOCTYPE svg PUBLIC "-//W3C//DTD SVG 1.1//EN"
 "http://www.w3.org/Graphics/SVG/1.1/DTD/svg11.dtd">
<!-- Generated by graphviz version 2.38.0 (20140413.2041)
 -->
<!-- Title: RPN::Rpn_t::assign Pages: 1 -->
<!--zoomable 446 -->
<svg id="main" version="1.1" xmlns="http://www.w3.org/2000/svg" xmlns:xlink="http://www.w3.org/1999/xlink" xml:space="preserve" onload="init(evt)">
<style type="text/css"><![CDATA[
.edge:hover path { stroke: red; }
.edge:hover polygon { stroke: red; fill: red; }
]]></style>
<script type="text/javascript"><![CDATA[
var edges = document.getElementsByTagName('g');
if (edges && edges.length) {
  for (var i=0;i<edges.length;i++) {
    if (edges[i].id.substr(0,4)=='edge') {
      edges[i].setAttribute('class','edge');
    }
  }
}
]]></script>
        <defs>
                <circle id="rim" cx="0" cy="0" r="7"/>
                <circle id="rim2" cx="0" cy="0" r="3.5"/>
                <g id="zoomPlus">
                        <use xlink:href="#rim" fill="#404040">
                                <set attributeName="fill" to="#808080" begin="zoomplus.mouseover" end="zoomplus.mouseout"/>
                        </use>
                        <path d="M-4,0h8M0,-4v8" fill="none" stroke="white" stroke-width="1.5" pointer-events="none"/>
                </g>
                <g id="zoomMin">
                        <use xlink:href="#rim" fill="#404040">
                                <set attributeName="fill" to="#808080" begin="zoomminus.mouseover" end="zoomminus.mouseout"/>
                        </use>
                        <path d="M-4,0h8" fill="none" stroke="white" stroke-width="1.5" pointer-events="none"/>
                </g>
                <g id="dirArrow">
                        <path fill="none" stroke="white" stroke-width="1.5" d="M0,-3.0v7 M-2.5,-0.5L0,-3.0L2.5,-0.5"/>
                </g>
               <g id="resetDef">
                       <use xlink:href="#rim2" fill="#404040">
                               <set attributeName="fill" to="#808080" begin="reset.mouseover" end="reset.mouseout"/>
                       </use>
               </g>
        </defs>

<script type="text/javascript">
var viewWidth = 685;
var viewHeight = 446;
var sectionId = 'dynsection-2';
</script>
<script xlink:href="svgpan.js"/>
<svg id="graph" class="graph">
<g id="viewport">
<title>RPN::Rpn_t::assign</title>
<polygon fill="white" stroke="none" points="-4,4 -4,-442 681,-442 681,4 -4,4"/>
<!-- Node1 -->
<g id="node1" class="node"><title>Node1</title>
<g id="a_node1"><a xlink:title="设置Rpn_t类对象的值">
<polygon fill="#bfbfbf" stroke="black" points="0,-209.5 0,-228.5 103,-228.5 103,-209.5 0,-209.5"/>
<text text-anchor="middle" x="51.5" y="-216.5" font-family="Helvetica,sans-Serif" font-size="10.00">RPN::Rpn_t::assign</text>
</a>
</g>
</g>
<!-- Node2 -->
<g id="node2" class="node"><title>Node2</title>
<g id="a_node2"><a xlink:href="a05435.html#a673867029e31811b1c70d28fe360b715" target="_top" xlink:title="用string中的表达式创建一个list">
<polygon fill="white" stroke="black" points="155,-342.5 155,-361.5 287,-361.5 287,-342.5 155,-342.5"/>
<text text-anchor="middle" x="221" y="-349.5" font-family="Helvetica,sans-Serif" font-size="10.00">RPN::Rpn_t::exprStrToList</text>
</a>
</g>
</g>
<!-- Node1&#45;&gt;Node2 -->
<g id="edge1" class="edge"><title>Node1&#45;&gt;Node2</title>
<path fill="none" stroke="midnightblue" d="M64.5462,-228.565C92.8984,-251.078 164.108,-307.62 199.447,-335.68"/>
<polygon fill="midnightblue" stroke="midnightblue" points="197.603,-338.685 207.611,-342.163 201.956,-333.203 197.603,-338.685"/>
</g>
<!-- Node4 -->
<g id="node4" class="node"><title>Node4</title>
<g id="a_node4"><a xlink:href="a05435.html#a8dd551d02431c034e10f256ff384c39f" target="_top" xlink:title="用一个中缀list创建一个后缀list">
<polygon fill="white" stroke="black" points="139,-209.5 139,-228.5 303,-228.5 303,-209.5 139,-209.5"/>
<text text-anchor="middle" x="221" y="-216.5" font-family="Helvetica,sans-Serif" font-size="10.00">RPN::Rpn_t::infixListToPostfixList</text>
</a>
</g>
</g>
<!-- Node1&#45;&gt;Node4 -->
<g id="edge3" class="edge"><title>Node1&#45;&gt;Node4</title>
<path fill="none" stroke="midnightblue" d="M103.21,-219C111.307,-219 119.895,-219 128.594,-219"/>
<polygon fill="midnightblue" stroke="midnightblue" points="128.835,-222.5 138.835,-219 128.835,-215.5 128.835,-222.5"/>
</g>
<!-- Node17 -->
<g id="node17" class="node"><title>Node17</title>
<g id="a_node17"><a xlink:href="a05435.html#a8bf0b803ffe55b4ecdf5d99d05b5897f" target="_top" xlink:title="获取表示itemList的string">
<polygon fill="white" stroke="black" points="155,-95.5 155,-114.5 287,-114.5 287,-95.5 155,-95.5"/>
<text text-anchor="middle" x="221" y="-102.5" font-family="Helvetica,sans-Serif" font-size="10.00">RPN::Rpn_t::itemListToStr</text>
</a>
</g>
</g>
<!-- Node1&#45;&gt;Node17 -->
<g id="edge17" class="edge"><title>Node1&#45;&gt;Node17</title>
<path fill="none" stroke="midnightblue" d="M66.4929,-209.477C95.3636,-189.827 161.777,-144.627 197.035,-120.63"/>
<polygon fill="midnightblue" stroke="midnightblue" points="199.394,-123.258 205.692,-114.738 195.456,-117.471 199.394,-123.258"/>
</g>
<!-- Node3 -->
<g id="node3" class="node"><title>Node3</title>
<g id="a_node3"><a xlink:href="a05435.html#afd8fb64bcf5a70cbe919497eea4e209a" target="_top" xlink:title="Rpn类的工具函数">
<polygon fill="white" stroke="black" points="364.5,-418.5 364.5,-437.5 471.5,-437.5 471.5,-418.5 364.5,-418.5"/>
<text text-anchor="middle" x="418" y="-425.5" font-family="Helvetica,sans-Serif" font-size="10.00">RPN::Rpn_t::stoItem</text>
</a>
</g>
</g>
<!-- Node2&#45;&gt;Node3 -->
<g id="edge2" class="edge"><title>Node2&#45;&gt;Node3</title>
<path fill="none" stroke="midnightblue" d="M238.939,-361.693C261.257,-374.123 302.017,-395.662 339,-409 346.02,-411.532 353.515,-413.835 360.979,-415.896"/>
<polygon fill="midnightblue" stroke="midnightblue" points="360.171,-419.302 370.732,-418.463 361.952,-412.533 360.171,-419.302"/>
</g>
<!-- Node5 -->
<g id="node5" class="node"><title>Node5</title>
<g id="a_node5"><a xlink:href="a05395.html#affb0e531ea57721ecd9b6dde83d2ebf0" target="_top" xlink:title=" ">
<polygon fill="white" stroke="black" points="364.5,-380.5 364.5,-399.5 471.5,-399.5 471.5,-380.5 364.5,-380.5"/>
<text text-anchor="middle" x="418" y="-387.5" font-family="Helvetica,sans-Serif" font-size="10.00">List::dLinkList::begin</text>
</a>
</g>
</g>
<!-- Node4&#45;&gt;Node5 -->
<g id="edge4" class="edge"><title>Node4&#45;&gt;Node5</title>
<path fill="none" stroke="midnightblue" d="M228.887,-228.696C251.67,-260.662 323.997,-361.238 339,-371 343.865,-374.165 349.21,-376.804 354.752,-379.003"/>
<polygon fill="midnightblue" stroke="midnightblue" points="353.618,-382.314 364.213,-382.304 355.924,-375.705 353.618,-382.314"/>
</g>
<!-- Node6 -->
<g id="node6" class="node"><title>Node6</title>
<g id="a_node6"><a xlink:href="a05395.html#ae8e62a19d3afc64b6fdb9b36d52a9a46" target="_top" xlink:title=" ">
<polygon fill="white" stroke="black" points="368.5,-342.5 368.5,-361.5 467.5,-361.5 467.5,-342.5 368.5,-342.5"/>
<text text-anchor="middle" x="418" y="-349.5" font-family="Helvetica,sans-Serif" font-size="10.00">List::dLinkList::end</text>
</a>
</g>
</g>
<!-- Node4&#45;&gt;Node6 -->
<g id="edge5" class="edge"><title>Node4&#45;&gt;Node6</title>
<path fill="none" stroke="midnightblue" d="M228.975,-228.701C245.444,-250.858 289.13,-305.387 339,-333 345.062,-336.357 351.712,-339.126 358.492,-341.41"/>
<polygon fill="midnightblue" stroke="midnightblue" points="357.881,-344.882 368.466,-344.42 359.904,-338.18 357.881,-344.882"/>
</g>
<!-- Node7 -->
<g id="node7" class="node"><title>Node7</title>
<g id="a_node7"><a xlink:href="a05439.html#a108cf06868968311383cf866288db1e1" target="_top" xlink:title="Item内嵌类的工具函数">
<polygon fill="white" stroke="black" points="339,-304.5 339,-323.5 497,-323.5 497,-304.5 339,-304.5"/>
<text text-anchor="middle" x="418" y="-311.5" font-family="Helvetica,sans-Serif" font-size="10.00">RPN::Rpn_t::Item::hasLoPriThan</text>
</a>
</g>
</g>
<!-- Node4&#45;&gt;Node7 -->
<g id="edge6" class="edge"><title>Node4&#45;&gt;Node7</title>
<path fill="none" stroke="midnightblue" d="M235.439,-228.683C256.59,-243.563 299.333,-272.192 339,-290 348.697,-294.353 359.41,-298.216 369.709,-301.502"/>
<polygon fill="midnightblue" stroke="midnightblue" points="368.825,-304.892 379.411,-304.474 370.874,-298.199 368.825,-304.892"/>
</g>
<!-- Node8 -->
<g id="node8" class="node"><title>Node8</title>
<g id="a_node8"><a xlink:href="a05439.html#a781e416a993decb9ee170f4b716952f9" target="_top" xlink:title="获取优先级.">
<polygon fill="white" stroke="black" points="541,-285.5 541,-304.5 669,-304.5 669,-285.5 541,-285.5"/>
<text text-anchor="middle" x="605" y="-292.5" font-family="Helvetica,sans-Serif" font-size="10.00">RPN::Rpn_t::Item::priority</text>
</a>
</g>
</g>
<!-- Node4&#45;&gt;Node8 -->
<g id="edge13" class="edge"><title>Node4&#45;&gt;Node8</title>
<path fill="none" stroke="midnightblue" d="M247.208,-228.58C270.665,-237.16 306.755,-249.51 339,-257 403.009,-271.868 477.148,-281.904 530.702,-287.91"/>
<polygon fill="midnightblue" stroke="midnightblue" points="530.468,-291.406 540.792,-289.022 531.235,-284.448 530.468,-291.406"/>
</g>
<!-- Node9 -->
<g id="node9" class="node"><title>Node9</title>
<g id="a_node9"><a xlink:href="a05439.html#aba8239b34b7b75b7d0c5e9e8c781ee19" target="_top" xlink:title="是NAO?">
<polygon fill="white" stroke="black" points="354,-228.5 354,-247.5 482,-247.5 482,-228.5 354,-228.5"/>
<text text-anchor="middle" x="418" y="-235.5" font-family="Helvetica,sans-Serif" font-size="10.00">RPN::Rpn_t::Item::isNAO</text>
</a>
</g>
</g>
<!-- Node4&#45;&gt;Node9 -->
<g id="edge8" class="edge"><title>Node4&#45;&gt;Node9</title>
<path fill="none" stroke="midnightblue" d="M303.003,-226.893C316.512,-228.209 330.456,-229.567 343.756,-230.863"/>
<polygon fill="midnightblue" stroke="midnightblue" points="343.491,-234.354 353.784,-231.84 344.17,-227.387 343.491,-234.354"/>
</g>
<!-- Node11 -->
<g id="node11" class="node"><title>Node11</title>
<g id="a_node11"><a xlink:href="a05439.html#ab22913295d9ad6d4cd8ba84105eb13f3" target="_top" xlink:title="获得一个NAO(非法操作符)">
<polygon fill="white" stroke="black" points="360.5,-190.5 360.5,-209.5 475.5,-209.5 475.5,-190.5 360.5,-190.5"/>
<text text-anchor="middle" x="418" y="-197.5" font-family="Helvetica,sans-Serif" font-size="10.00">RPN::Rpn_t::Item::nao</text>
</a>
</g>
</g>
<!-- Node4&#45;&gt;Node11 -->
<g id="edge10" class="edge"><title>Node4&#45;&gt;Node11</title>
<path fill="none" stroke="midnightblue" d="M303.003,-211.107C318.647,-209.583 334.875,-208.002 350.011,-206.527"/>
<polygon fill="midnightblue" stroke="midnightblue" points="350.682,-209.978 360.295,-205.525 350.003,-203.011 350.682,-209.978"/>
</g>
<!-- Node13 -->
<g id="node13" class="node"><title>Node13</title>
<g id="a_node13"><a xlink:href="a05411.html#a79e4a90c4530c70eaea1d37c139fc620" target="_top" xlink:title=" ">
<polygon fill="white" stroke="black" points="363,-152.5 363,-171.5 473,-171.5 473,-152.5 363,-152.5"/>
<text text-anchor="middle" x="418" y="-159.5" font-family="Helvetica,sans-Serif" font-size="10.00">Stack::linkStack::pop</text>
</a>
</g>
</g>
<!-- Node4&#45;&gt;Node13 -->
<g id="edge12" class="edge"><title>Node4&#45;&gt;Node13</title>
<path fill="none" stroke="midnightblue" d="M249.715,-209.348C273.309,-201.288 308.181,-189.745 339,-181 347.476,-178.595 356.521,-176.219 365.338,-174.005"/>
<polygon fill="midnightblue" stroke="midnightblue" points="366.285,-177.377 375.154,-171.581 364.606,-170.581 366.285,-177.377"/>
</g>
<!-- Node14 -->
<g id="node14" class="node"><title>Node14</title>
<g id="a_node14"><a xlink:href="a05411.html#a3425bfbff5c6945af2dd9683405a0e0b" target="_top" xlink:title=" ">
<polygon fill="white" stroke="black" points="360,-114.5 360,-133.5 476,-133.5 476,-114.5 360,-114.5"/>
<text text-anchor="middle" x="418" y="-121.5" font-family="Helvetica,sans-Serif" font-size="10.00">Stack::linkStack::push</text>
</a>
</g>
</g>
<!-- Node4&#45;&gt;Node14 -->
<g id="edge14" class="edge"><title>Node4&#45;&gt;Node14</title>
<path fill="none" stroke="midnightblue" d="M233.854,-209.325C254.153,-193.229 297.414,-160.951 339,-143 344.794,-140.499 350.979,-138.288 357.235,-136.343"/>
<polygon fill="midnightblue" stroke="midnightblue" points="358.441,-139.638 367.079,-133.502 356.5,-132.912 358.441,-139.638"/>
</g>
<!-- Node15 -->
<g id="node15" class="node"><title>Node15</title>
<g id="a_node15"><a xlink:href="a05395.html#a6cfc6d4245a507047fe729057227e0ad" target="_top" xlink:title=" ">
<polygon fill="white" stroke="black" points="352.5,-76.5 352.5,-95.5 483.5,-95.5 483.5,-76.5 352.5,-76.5"/>
<text text-anchor="middle" x="418" y="-83.5" font-family="Helvetica,sans-Serif" font-size="10.00">List::dLinkList::push_back</text>
</a>
</g>
</g>
<!-- Node4&#45;&gt;Node15 -->
<g id="edge15" class="edge"><title>Node4&#45;&gt;Node15</title>
<path fill="none" stroke="midnightblue" d="M228.975,-209.299C245.444,-187.142 289.13,-132.613 339,-105 343.018,-102.775 347.294,-100.808 351.695,-99.0699"/>
<polygon fill="midnightblue" stroke="midnightblue" points="353.213,-102.246 361.478,-95.6175 350.883,-95.645 353.213,-102.246"/>
</g>
<!-- Node16 -->
<g id="node16" class="node"><title>Node16</title>
<g id="a_node16"><a xlink:href="a05411.html#a5c7f1f07843fa15b71a1033ca309fa2e" target="_top" xlink:title=" ">
<polygon fill="white" stroke="black" points="364,-38.5 364,-57.5 472,-57.5 472,-38.5 364,-38.5"/>
<text text-anchor="middle" x="418" y="-45.5" font-family="Helvetica,sans-Serif" font-size="10.00">Stack::linkStack::top</text>
</a>
</g>
</g>
<!-- Node4&#45;&gt;Node16 -->
<g id="edge16" class="edge"><title>Node4&#45;&gt;Node16</title>
<path fill="none" stroke="midnightblue" d="M230.995,-209.398C246.481,-192.666 278.84,-156.813 303,-124 320.765,-99.8718 314.67,-84.4877 339,-67 343.598,-63.6953 348.7,-60.961 354.032,-58.6993"/>
<polygon fill="midnightblue" stroke="midnightblue" points="355.63,-61.8417 363.817,-55.1174 353.223,-55.2683 355.63,-61.8417"/>
</g>
<!-- Node7&#45;&gt;Node8 -->
<g id="edge7" class="edge"><title>Node7&#45;&gt;Node8</title>
<path fill="none" stroke="midnightblue" d="M497.189,-305.97C508.363,-304.822 519.823,-303.645 530.894,-302.508"/>
<polygon fill="midnightblue" stroke="midnightblue" points="531.344,-305.981 540.934,-301.477 530.628,-299.017 531.344,-305.981"/>
</g>
<!-- Node10 -->
<g id="node10" class="node"><title>Node10</title>
<g id="a_node10"><a xlink:href="a05439.html#a4a108f7cc08c900fbfbd69e4a2c43c2b" target="_top" xlink:title="是操作符">
<polygon fill="white" stroke="black" points="533,-228.5 533,-247.5 677,-247.5 677,-228.5 533,-228.5"/>
<text text-anchor="middle" x="605" y="-235.5" font-family="Helvetica,sans-Serif" font-size="10.00">RPN::Rpn_t::Item::isOperator</text>
</a>
</g>
</g>
<!-- Node9&#45;&gt;Node10 -->
<g id="edge9" class="edge"><title>Node9&#45;&gt;Node10</title>
<path fill="none" stroke="midnightblue" d="M482.149,-238C495.161,-238 509.038,-238 522.593,-238"/>
<polygon fill="midnightblue" stroke="midnightblue" points="522.875,-241.5 532.875,-238 522.875,-234.5 522.875,-241.5"/>
</g>
<!-- Node12 -->
<g id="node12" class="node"><title>Node12</title>
<g id="a_node12"><a xlink:href="a05439.html#a6f69830ca198b197719c4fc841745c46" target="_top" xlink:title="Construct a new Item object.">
<polygon fill="white" stroke="black" points="546,-190.5 546,-209.5 664,-209.5 664,-190.5 546,-190.5"/>
<text text-anchor="middle" x="605" y="-197.5" font-family="Helvetica,sans-Serif" font-size="10.00">RPN::Rpn_t::Item::Item</text>
</a>
</g>
</g>
<!-- Node11&#45;&gt;Node12 -->
<g id="edge11" class="edge"><title>Node11&#45;&gt;Node12</title>
<path fill="none" stroke="midnightblue" d="M475.511,-200C494.514,-200 515.916,-200 535.725,-200"/>
<polygon fill="midnightblue" stroke="midnightblue" points="535.917,-203.5 545.917,-200 535.917,-196.5 535.917,-203.5"/>
</g>
<!-- Node18 -->
<g id="node18" class="node"><title>Node18</title>
<g id="a_node18"><a xlink:href="a05435.html#a7db7b05c3ce06c9b98cf957498aba17b" target="_top" xlink:title="获取表示项(操作符/操作数)的string">
<polygon fill="white" stroke="black" points="360,-0.5 360,-19.5 476,-19.5 476,-0.5 360,-0.5"/>
<text text-anchor="middle" x="418" y="-7.5" font-family="Helvetica,sans-Serif" font-size="10.00">RPN::Rpn_t::itemToStr</text>
</a>
</g>
</g>
<!-- Node17&#45;&gt;Node18 -->
<g id="edge18" class="edge"><title>Node17&#45;&gt;Node18</title>
<path fill="none" stroke="midnightblue" d="M233.854,-95.325C254.153,-79.2292 297.414,-46.9512 339,-29 344.794,-26.4988 350.979,-24.2879 357.235,-22.343"/>
<polygon fill="midnightblue" stroke="midnightblue" points="358.441,-25.6378 367.079,-19.5021 356.5,-18.9123 358.441,-25.6378"/>
</g>
</g>
</svg>
        <g id="navigator" transform="translate(0 0)" fill="#404254">
                <rect fill="#f2f5e9" fill-opacity="0.5" stroke="#606060" stroke-width=".5" x="0" y="0" width="60" height="60"/>
                <use id="zoomplus" xlink:href="#zoomPlus" x="17" y="9" onmousedown="handleZoom(evt,'in')"/>
                <use id="zoomminus" xlink:href="#zoomMin" x="42" y="9" onmousedown="handleZoom(evt,'out')"/>
                <use id="reset" xlink:href="#resetDef" x="30" y="36" onmousedown="handleReset()"/>
                <g id="arrowUp" xlink:href="#dirArrow" transform="translate(30 24)" onmousedown="handlePan(0,-1)">
                  <use xlink:href="#rim" fill="#404040">
                        <set attributeName="fill" to="#808080" begin="arrowUp.mouseover" end="arrowUp.mouseout"/>
                  </use>
                  <path fill="none" stroke="white" stroke-width="1.5" d="M0,-3.0v7 M-2.5,-0.5L0,-3.0L2.5,-0.5"/>
                </g>
                <g id="arrowRight" xlink:href="#dirArrow" transform="rotate(90) translate(36 -43)" onmousedown="handlePan(1,0)">
                  <use xlink:href="#rim" fill="#404040">
                        <set attributeName="fill" to="#808080" begin="arrowRight.mouseover" end="arrowRight.mouseout"/>
                  </use>
                  <path fill="none" stroke="white" stroke-width="1.5" d="M0,-3.0v7 M-2.5,-0.5L0,-3.0L2.5,-0.5"/>
                </g>
                <g id="arrowDown" xlink:href="#dirArrow" transform="rotate(180) translate(-30 -48)" onmousedown="handlePan(0,1)">
                  <use xlink:href="#rim" fill="#404040">
                        <set attributeName="fill" to="#808080" begin="arrowDown.mouseover" end="arrowDown.mouseout"/>
                  </use>
                  <path fill="none" stroke="white" stroke-width="1.5" d="M0,-3.0v7 M-2.5,-0.5L0,-3.0L2.5,-0.5"/>
                </g>
                <g id="arrowLeft" xlink:href="#dirArrow" transform="rotate(270) translate(-36 17)" onmousedown="handlePan(-1,0)">
                  <use xlink:href="#rim" fill="#404040">
                        <set attributeName="fill" to="#808080" begin="arrowLeft.mouseover" end="arrowLeft.mouseout"/>
                  </use>
                  <path fill="none" stroke="white" stroke-width="1.5" d="M0,-3.0v7 M-2.5,-0.5L0,-3.0L2.5,-0.5"/>
                </g>
        </g>
        <svg viewBox="0 0 15 15" width="100%" height="30px" preserveAspectRatio="xMaxYMin meet">
         <g id="arrow_out" transform="scale(0.3 0.3)">
          <a xlink:href="a05435_a13f84208d6722039432be70b4bffee8c_cgraph_org.svg" target="_base">
           <rect id="button" ry="5" rx="5" y="6" x="6" height="38" width="38"
                fill="#f2f5e9" fill-opacity="0.5" stroke="#606060" stroke-width="1.0"/>
           <path id="arrow"
             d="M 11.500037,31.436501 C 11.940474,20.09759 22.043105,11.32322 32.158766,21.979434 L 37.068811,17.246167 C 37.068811,17.246167 37.088388,32 37.088388,32 L 22.160133,31.978069 C 22.160133,31.978069 26.997745,27.140456 26.997745,27.140456 C 18.528582,18.264221 13.291696,25.230495 11.500037,31.436501 z"
             style="fill:#404040;"/>
          </a>
         </g>
        </svg>
</svg>
