<?xml version="1.0" encoding="UTF-8" standalone="no"?>
<!DOCTYPE svg PUBLIC "-//W3C//DTD SVG 1.1//EN"
 "http://www.w3.org/Graphics/SVG/1.1/DTD/svg11.dtd">
<!-- Generated by graphviz version 2.38.0 (20140413.2041)
 -->
<!-- Title: Stack::seqStack::isEmpty Pages: 1 -->
<svg width="502pt" height="66pt"
 viewBox="0.00 0.00 502.00 66.00" xmlns="http://www.w3.org/2000/svg" xmlns:xlink="http://www.w3.org/1999/xlink">
<g id="graph0" class="graph" transform="scale(1 1) rotate(0) translate(4 62)">
<title>Stack::seqStack::isEmpty</title>
<polygon fill="white" stroke="none" points="-4,4 -4,-62 498,-62 498,4 -4,4"/>
<!-- Node1 -->
<g id="node1" class="node"><title>Node1</title>
<g id="a_node1"><a xlink:title=" ">
<polygon fill="#bfbfbf" stroke="black" points="363,-19.5 363,-38.5 494,-38.5 494,-19.5 363,-19.5"/>
<text text-anchor="middle" x="428.5" y="-26.5" font-family="Helvetica,sans-Serif" font-size="10.00">Stack::seqStack::isEmpty</text>
</a>
</g>
</g>
<!-- Node2 -->
<g id="node2" class="node"><title>Node2</title>
<g id="a_node2"><a xlink:href="a05391.html#a0036aac01f88b4e9c22c43c14970a506" target="_top" xlink:title="Ackermann函数堆栈模拟递归版本">
<polygon fill="white" stroke="black" points="205,-38.5 205,-57.5 327,-57.5 327,-38.5 205,-38.5"/>
<text text-anchor="middle" x="266" y="-45.5" font-family="Helvetica,sans-Serif" font-size="10.00">Akm_t::AckermannLoop</text>
</a>
</g>
</g>
<!-- Node1&#45;&gt;Node2 -->
<g id="edge1" class="edge"><title>Node1&#45;&gt;Node2</title>
<path fill="none" stroke="midnightblue" d="M352.686,-37.8565C344.119,-38.8707 335.469,-39.8946 327.129,-40.8819"/>
<polygon fill="midnightblue" stroke="midnightblue" points="353.162,-41.3247 362.681,-36.6733 352.339,-34.3732 353.162,-41.3247"/>
</g>
<!-- Node5 -->
<g id="node5" class="node"><title>Node5</title>
<g id="a_node5"><a xlink:href="a05435.html#a760c2a7b4a404cfe61345e06110c40ff" target="_top" xlink:title="计算(后缀)表达式的值">
<polygon fill="white" stroke="black" points="212.5,-0.5 212.5,-19.5 319.5,-19.5 319.5,-0.5 212.5,-0.5"/>
<text text-anchor="middle" x="266" y="-7.5" font-family="Helvetica,sans-Serif" font-size="10.00">RPN::Rpn_t::calcVal</text>
</a>
</g>
</g>
<!-- Node1&#45;&gt;Node5 -->
<g id="edge4" class="edge"><title>Node1&#45;&gt;Node5</title>
<path fill="none" stroke="midnightblue" d="M352.562,-20.1288C341.475,-18.8163 330.252,-17.4878 319.745,-16.2439"/>
<polygon fill="midnightblue" stroke="midnightblue" points="352.339,-23.6268 362.681,-21.3267 353.162,-16.6753 352.339,-23.6268"/>
</g>
<!-- Node3 -->
<g id="node3" class="node"><title>Node3</title>
<g id="a_node3"><a xlink:href="a05391.html#acce004321aba1561adc7622c3e9f9e72" target="_top" xlink:title="堆栈版本的Ackermann函数">
<polygon fill="white" stroke="black" points="74,-38.5 74,-57.5 169,-57.5 169,-38.5 74,-38.5"/>
<text text-anchor="middle" x="121.5" y="-45.5" font-family="Helvetica,sans-Serif" font-size="10.00">Akm_t::Akm_loop</text>
</a>
</g>
</g>
<!-- Node2&#45;&gt;Node3 -->
<g id="edge2" class="edge"><title>Node2&#45;&gt;Node3</title>
<path fill="none" stroke="midnightblue" d="M194.768,-48C186.033,-48 177.279,-48 169.029,-48"/>
<polygon fill="midnightblue" stroke="midnightblue" points="194.98,-51.5001 204.98,-48 194.98,-44.5001 194.98,-51.5001"/>
</g>
<!-- Node4 -->
<g id="node4" class="node"><title>Node4</title>
<g id="a_node4"><a xlink:href="a04565.html#abf9e6b7e6f15df4b525a2e7705ba3089" target="_top" xlink:title="Ackermann类测试例程">
<polygon fill="white" stroke="black" points="0,-38.5 0,-57.5 38,-57.5 38,-38.5 0,-38.5"/>
<text text-anchor="middle" x="19" y="-45.5" font-family="Helvetica,sans-Serif" font-size="10.00">main</text>
</a>
</g>
</g>
<!-- Node3&#45;&gt;Node4 -->
<g id="edge3" class="edge"><title>Node3&#45;&gt;Node4</title>
<path fill="none" stroke="midnightblue" d="M63.6477,-48C54.3637,-48 45.3856,-48 38.0109,-48"/>
<polygon fill="midnightblue" stroke="midnightblue" points="63.7806,-51.5001 73.7806,-48 63.7806,-44.5001 63.7806,-51.5001"/>
</g>
<!-- Node6 -->
<g id="node6" class="node"><title>Node6</title>
<g id="a_node6"><a xlink:href="a04562.html#abf9e6b7e6f15df4b525a2e7705ba3089" target="_top" xlink:title=" ">
<polygon fill="white" stroke="black" points="102.5,-0.5 102.5,-19.5 140.5,-19.5 140.5,-0.5 102.5,-0.5"/>
<text text-anchor="middle" x="121.5" y="-7.5" font-family="Helvetica,sans-Serif" font-size="10.00">main</text>
</a>
</g>
</g>
<!-- Node5&#45;&gt;Node6 -->
<g id="edge5" class="edge"><title>Node5&#45;&gt;Node6</title>
<path fill="none" stroke="midnightblue" d="M202.153,-10C179.733,-10 156.187,-10 140.562,-10"/>
<polygon fill="midnightblue" stroke="midnightblue" points="202.343,-13.5001 212.343,-10 202.343,-6.5001 202.343,-13.5001"/>
</g>
</g>
</svg>
