<?xml version="1.0" encoding="UTF-8" standalone="no"?>
<!DOCTYPE svg PUBLIC "-//W3C//DTD SVG 1.1//EN"
 "http://www.w3.org/Graphics/SVG/1.1/DTD/svg11.dtd">
<!-- Generated by graphviz version 2.38.0 (20140413.2041)
 -->
<!-- Title: RPN::Rpn_t::infixListToPostfixList Pages: 1 -->
<svg width="546pt" height="370pt"
 viewBox="0.00 0.00 546.00 370.00" xmlns="http://www.w3.org/2000/svg" xmlns:xlink="http://www.w3.org/1999/xlink">
<g id="graph0" class="graph" transform="scale(1 1) rotate(0) translate(4 366)">
<title>RPN::Rpn_t::infixListToPostfixList</title>
<polygon fill="white" stroke="none" points="-4,4 -4,-366 542,-366 542,4 -4,4"/>
<!-- Node1 -->
<g id="node1" class="node"><title>Node1</title>
<g id="a_node1"><a xlink:title="用一个中缀list创建一个后缀list">
<polygon fill="#bfbfbf" stroke="black" points="0,-171.5 0,-190.5 164,-190.5 164,-171.5 0,-171.5"/>
<text text-anchor="middle" x="82" y="-178.5" font-family="Helvetica,sans-Serif" font-size="10.00">RPN::Rpn_t::infixListToPostfixList</text>
</a>
</g>
</g>
<!-- Node2 -->
<g id="node2" class="node"><title>Node2</title>
<g id="a_node2"><a xlink:href="a05395.html#affb0e531ea57721ecd9b6dde83d2ebf0" target="_top" xlink:title=" ">
<polygon fill="white" stroke="black" points="225.5,-342.5 225.5,-361.5 332.5,-361.5 332.5,-342.5 225.5,-342.5"/>
<text text-anchor="middle" x="279" y="-349.5" font-family="Helvetica,sans-Serif" font-size="10.00">List::dLinkList::begin</text>
</a>
</g>
</g>
<!-- Node1&#45;&gt;Node2 -->
<g id="edge1" class="edge"><title>Node1&#45;&gt;Node2</title>
<path fill="none" stroke="midnightblue" d="M87.4839,-190.651C100.597,-217.751 141.663,-295.041 200,-333 204.865,-336.165 210.21,-338.804 215.752,-341.003"/>
<polygon fill="midnightblue" stroke="midnightblue" points="214.618,-344.314 225.213,-344.304 216.924,-337.705 214.618,-344.314"/>
</g>
<!-- Node3 -->
<g id="node3" class="node"><title>Node3</title>
<g id="a_node3"><a xlink:href="a05395.html#ae8e62a19d3afc64b6fdb9b36d52a9a46" target="_top" xlink:title=" ">
<polygon fill="white" stroke="black" points="229.5,-304.5 229.5,-323.5 328.5,-323.5 328.5,-304.5 229.5,-304.5"/>
<text text-anchor="middle" x="279" y="-311.5" font-family="Helvetica,sans-Serif" font-size="10.00">List::dLinkList::end</text>
</a>
</g>
</g>
<!-- Node1&#45;&gt;Node3 -->
<g id="edge2" class="edge"><title>Node1&#45;&gt;Node3</title>
<path fill="none" stroke="midnightblue" d="M89.9752,-190.701C106.444,-212.858 150.13,-267.387 200,-295 206.062,-298.357 212.712,-301.126 219.492,-303.41"/>
<polygon fill="midnightblue" stroke="midnightblue" points="218.881,-306.882 229.466,-306.42 220.904,-300.18 218.881,-306.882"/>
</g>
<!-- Node4 -->
<g id="node4" class="node"><title>Node4</title>
<g id="a_node4"><a xlink:href="a05439.html#a108cf06868968311383cf866288db1e1" target="_top" xlink:title="Item内嵌类的工具函数">
<polygon fill="white" stroke="black" points="200,-266.5 200,-285.5 358,-285.5 358,-266.5 200,-266.5"/>
<text text-anchor="middle" x="279" y="-273.5" font-family="Helvetica,sans-Serif" font-size="10.00">RPN::Rpn_t::Item::hasLoPriThan</text>
</a>
</g>
</g>
<!-- Node1&#45;&gt;Node4 -->
<g id="edge3" class="edge"><title>Node1&#45;&gt;Node4</title>
<path fill="none" stroke="midnightblue" d="M96.439,-190.683C117.59,-205.563 160.333,-234.192 200,-252 209.697,-256.353 220.41,-260.216 230.709,-263.502"/>
<polygon fill="midnightblue" stroke="midnightblue" points="229.825,-266.892 240.411,-266.474 231.874,-260.199 229.825,-266.892"/>
</g>
<!-- Node5 -->
<g id="node5" class="node"><title>Node5</title>
<g id="a_node5"><a xlink:href="a05439.html#a781e416a993decb9ee170f4b716952f9" target="_top" xlink:title="获取优先级.">
<polygon fill="white" stroke="black" points="402,-247.5 402,-266.5 530,-266.5 530,-247.5 402,-247.5"/>
<text text-anchor="middle" x="466" y="-254.5" font-family="Helvetica,sans-Serif" font-size="10.00">RPN::Rpn_t::Item::priority</text>
</a>
</g>
</g>
<!-- Node1&#45;&gt;Node5 -->
<g id="edge10" class="edge"><title>Node1&#45;&gt;Node5</title>
<path fill="none" stroke="midnightblue" d="M108.208,-190.58C131.665,-199.16 167.755,-211.51 200,-219 264.009,-233.868 338.148,-243.904 391.702,-249.91"/>
<polygon fill="midnightblue" stroke="midnightblue" points="391.468,-253.406 401.792,-251.022 392.235,-246.448 391.468,-253.406"/>
</g>
<!-- Node6 -->
<g id="node6" class="node"><title>Node6</title>
<g id="a_node6"><a xlink:href="a05439.html#aba8239b34b7b75b7d0c5e9e8c781ee19" target="_top" xlink:title="是NAO?">
<polygon fill="white" stroke="black" points="215,-190.5 215,-209.5 343,-209.5 343,-190.5 215,-190.5"/>
<text text-anchor="middle" x="279" y="-197.5" font-family="Helvetica,sans-Serif" font-size="10.00">RPN::Rpn_t::Item::isNAO</text>
</a>
</g>
</g>
<!-- Node1&#45;&gt;Node6 -->
<g id="edge5" class="edge"><title>Node1&#45;&gt;Node6</title>
<path fill="none" stroke="midnightblue" d="M164.003,-188.893C177.512,-190.209 191.456,-191.567 204.756,-192.863"/>
<polygon fill="midnightblue" stroke="midnightblue" points="204.491,-196.354 214.784,-193.84 205.17,-189.387 204.491,-196.354"/>
</g>
<!-- Node8 -->
<g id="node8" class="node"><title>Node8</title>
<g id="a_node8"><a xlink:href="a05439.html#ab22913295d9ad6d4cd8ba84105eb13f3" target="_top" xlink:title="获得一个NAO(非法操作符)">
<polygon fill="white" stroke="black" points="221.5,-152.5 221.5,-171.5 336.5,-171.5 336.5,-152.5 221.5,-152.5"/>
<text text-anchor="middle" x="279" y="-159.5" font-family="Helvetica,sans-Serif" font-size="10.00">RPN::Rpn_t::Item::nao</text>
</a>
</g>
</g>
<!-- Node1&#45;&gt;Node8 -->
<g id="edge7" class="edge"><title>Node1&#45;&gt;Node8</title>
<path fill="none" stroke="midnightblue" d="M164.003,-173.107C179.647,-171.583 195.875,-170.002 211.011,-168.527"/>
<polygon fill="midnightblue" stroke="midnightblue" points="211.682,-171.978 221.295,-167.525 211.003,-165.011 211.682,-171.978"/>
</g>
<!-- Node10 -->
<g id="node10" class="node"><title>Node10</title>
<g id="a_node10"><a xlink:href="a05411.html#a79e4a90c4530c70eaea1d37c139fc620" target="_top" xlink:title=" ">
<polygon fill="white" stroke="black" points="224,-114.5 224,-133.5 334,-133.5 334,-114.5 224,-114.5"/>
<text text-anchor="middle" x="279" y="-121.5" font-family="Helvetica,sans-Serif" font-size="10.00">Stack::linkStack::pop</text>
</a>
</g>
</g>
<!-- Node1&#45;&gt;Node10 -->
<g id="edge9" class="edge"><title>Node1&#45;&gt;Node10</title>
<path fill="none" stroke="midnightblue" d="M110.715,-171.348C134.309,-163.288 169.181,-151.745 200,-143 208.476,-140.595 217.521,-138.219 226.338,-136.005"/>
<polygon fill="midnightblue" stroke="midnightblue" points="227.285,-139.377 236.154,-133.581 225.606,-132.581 227.285,-139.377"/>
</g>
<!-- Node11 -->
<g id="node11" class="node"><title>Node11</title>
<g id="a_node11"><a xlink:href="a05411.html#a3425bfbff5c6945af2dd9683405a0e0b" target="_top" xlink:title=" ">
<polygon fill="white" stroke="black" points="221,-76.5 221,-95.5 337,-95.5 337,-76.5 221,-76.5"/>
<text text-anchor="middle" x="279" y="-83.5" font-family="Helvetica,sans-Serif" font-size="10.00">Stack::linkStack::push</text>
</a>
</g>
</g>
<!-- Node1&#45;&gt;Node11 -->
<g id="edge11" class="edge"><title>Node1&#45;&gt;Node11</title>
<path fill="none" stroke="midnightblue" d="M94.8541,-171.325C115.153,-155.229 158.414,-122.951 200,-105 205.794,-102.499 211.979,-100.288 218.235,-98.343"/>
<polygon fill="midnightblue" stroke="midnightblue" points="219.441,-101.638 228.079,-95.5021 217.5,-94.9123 219.441,-101.638"/>
</g>
<!-- Node12 -->
<g id="node12" class="node"><title>Node12</title>
<g id="a_node12"><a xlink:href="a05395.html#a6cfc6d4245a507047fe729057227e0ad" target="_top" xlink:title=" ">
<polygon fill="white" stroke="black" points="213.5,-38.5 213.5,-57.5 344.5,-57.5 344.5,-38.5 213.5,-38.5"/>
<text text-anchor="middle" x="279" y="-45.5" font-family="Helvetica,sans-Serif" font-size="10.00">List::dLinkList::push_back</text>
</a>
</g>
</g>
<!-- Node1&#45;&gt;Node12 -->
<g id="edge12" class="edge"><title>Node1&#45;&gt;Node12</title>
<path fill="none" stroke="midnightblue" d="M89.9752,-171.299C106.444,-149.142 150.13,-94.6127 200,-67 204.018,-64.7752 208.294,-62.8084 212.695,-61.0699"/>
<polygon fill="midnightblue" stroke="midnightblue" points="214.213,-64.246 222.478,-57.6175 211.883,-57.645 214.213,-64.246"/>
</g>
<!-- Node13 -->
<g id="node13" class="node"><title>Node13</title>
<g id="a_node13"><a xlink:href="a05411.html#a5c7f1f07843fa15b71a1033ca309fa2e" target="_top" xlink:title=" ">
<polygon fill="white" stroke="black" points="225,-0.5 225,-19.5 333,-19.5 333,-0.5 225,-0.5"/>
<text text-anchor="middle" x="279" y="-7.5" font-family="Helvetica,sans-Serif" font-size="10.00">Stack::linkStack::top</text>
</a>
</g>
</g>
<!-- Node1&#45;&gt;Node13 -->
<g id="edge13" class="edge"><title>Node1&#45;&gt;Node13</title>
<path fill="none" stroke="midnightblue" d="M87.4839,-171.349C100.597,-144.249 141.663,-66.9592 200,-29 204.673,-25.9594 209.79,-23.4051 215.098,-21.2594"/>
<polygon fill="midnightblue" stroke="midnightblue" points="216.547,-24.4594 224.804,-17.8216 214.21,-17.8611 216.547,-24.4594"/>
</g>
<!-- Node4&#45;&gt;Node5 -->
<g id="edge4" class="edge"><title>Node4&#45;&gt;Node5</title>
<path fill="none" stroke="midnightblue" d="M358.189,-267.97C369.363,-266.822 380.823,-265.645 391.894,-264.508"/>
<polygon fill="midnightblue" stroke="midnightblue" points="392.344,-267.981 401.934,-263.477 391.628,-261.017 392.344,-267.981"/>
</g>
<!-- Node7 -->
<g id="node7" class="node"><title>Node7</title>
<g id="a_node7"><a xlink:href="a05439.html#a4a108f7cc08c900fbfbd69e4a2c43c2b" target="_top" xlink:title="是操作符">
<polygon fill="white" stroke="black" points="394,-190.5 394,-209.5 538,-209.5 538,-190.5 394,-190.5"/>
<text text-anchor="middle" x="466" y="-197.5" font-family="Helvetica,sans-Serif" font-size="10.00">RPN::Rpn_t::Item::isOperator</text>
</a>
</g>
</g>
<!-- Node6&#45;&gt;Node7 -->
<g id="edge6" class="edge"><title>Node6&#45;&gt;Node7</title>
<path fill="none" stroke="midnightblue" d="M343.149,-200C356.161,-200 370.038,-200 383.593,-200"/>
<polygon fill="midnightblue" stroke="midnightblue" points="383.875,-203.5 393.875,-200 383.875,-196.5 383.875,-203.5"/>
</g>
<!-- Node9 -->
<g id="node9" class="node"><title>Node9</title>
<g id="a_node9"><a xlink:href="a05439.html#a6f69830ca198b197719c4fc841745c46" target="_top" xlink:title="Construct a new Item object.">
<polygon fill="white" stroke="black" points="407,-152.5 407,-171.5 525,-171.5 525,-152.5 407,-152.5"/>
<text text-anchor="middle" x="466" y="-159.5" font-family="Helvetica,sans-Serif" font-size="10.00">RPN::Rpn_t::Item::Item</text>
</a>
</g>
</g>
<!-- Node8&#45;&gt;Node9 -->
<g id="edge8" class="edge"><title>Node8&#45;&gt;Node9</title>
<path fill="none" stroke="midnightblue" d="M336.511,-162C355.514,-162 376.916,-162 396.725,-162"/>
<polygon fill="midnightblue" stroke="midnightblue" points="396.917,-165.5 406.917,-162 396.917,-158.5 396.917,-165.5"/>
</g>
</g>
</svg>
