<?xml version="1.0" encoding="UTF-8" standalone="no"?>
<!DOCTYPE svg PUBLIC "-//W3C//DTD SVG 1.1//EN"
 "http://www.w3.org/Graphics/SVG/1.1/DTD/svg11.dtd">
<!-- Generated by graphviz version 2.38.0 (20140413.2041)
 -->
<!-- Title: main Pages: 1 -->
<svg width="439pt" height="218pt"
 viewBox="0.00 0.00 439.00 218.00" xmlns="http://www.w3.org/2000/svg" xmlns:xlink="http://www.w3.org/1999/xlink">
<g id="graph0" class="graph" transform="scale(1 1) rotate(0) translate(4 214)">
<title>main</title>
<polygon fill="white" stroke="none" points="-4,4 -4,-214 435,-214 435,4 -4,4"/>
<!-- Node1 -->
<g id="node1" class="node"><title>Node1</title>
<g id="a_node1"><a xlink:title=" ">
<polygon fill="#bfbfbf" stroke="black" points="0,-76.5 0,-95.5 38,-95.5 38,-76.5 0,-76.5"/>
<text text-anchor="middle" x="19" y="-83.5" font-family="Helvetica,sans-Serif" font-size="10.00">main</text>
</a>
</g>
</g>
<!-- Node2 -->
<g id="node2" class="node"><title>Node2</title>
<g id="a_node2"><a xlink:href="ch3__7_8cc.html#a94409377a0d682893262661b427aaa8f" target="_top" xlink:title=" ">
<polygon fill="white" stroke="black" points="74,-95.5 74,-114.5 134,-114.5 134,-95.5 74,-95.5"/>
<text text-anchor="middle" x="104" y="-102.5" font-family="Helvetica,sans-Serif" font-size="10.00">Akm_loop</text>
</a>
</g>
</g>
<!-- Node1&#45;&gt;Node2 -->
<g id="edge1" class="edge"><title>Node1&#45;&gt;Node2</title>
<path fill="none" stroke="midnightblue" d="M38.0098,-90.1227C45.7127,-91.886 55.0255,-94.0179 64.1653,-96.1101"/>
<polygon fill="midnightblue" stroke="midnightblue" points="63.4017,-99.5258 73.9306,-98.3455 64.9637,-92.7023 63.4017,-99.5258"/>
</g>
<!-- Node10 -->
<g id="node10" class="node"><title>Node10</title>
<g id="a_node10"><a xlink:href="ch3__7_8cc.html#a44a5a71de93e01d66159ca98b7d57bfd" target="_top" xlink:title=" ">
<polygon fill="white" stroke="black" points="76,-57.5 76,-76.5 132,-76.5 132,-57.5 76,-57.5"/>
<text text-anchor="middle" x="104" y="-64.5" font-family="Helvetica,sans-Serif" font-size="10.00">Akm_rec</text>
</a>
</g>
</g>
<!-- Node1&#45;&gt;Node10 -->
<g id="edge9" class="edge"><title>Node1&#45;&gt;Node10</title>
<path fill="none" stroke="midnightblue" d="M38.0098,-81.8773C46.2193,-79.998 56.2574,-77.7001 65.9657,-75.4777"/>
<polygon fill="midnightblue" stroke="midnightblue" points="66.9061,-78.8531 75.873,-73.2098 65.3441,-72.0296 66.9061,-78.8531"/>
</g>
<!-- Node3 -->
<g id="node3" class="node"><title>Node3</title>
<g id="a_node3"><a xlink:href="_ackermann_8hh.html#a09828dd70ee57ea0c5d9832aded20690" target="_top" xlink:title=" ">
<polygon fill="white" stroke="black" points="170,-95.5 170,-114.5 257,-114.5 257,-95.5 170,-95.5"/>
<text text-anchor="middle" x="213.5" y="-102.5" font-family="Helvetica,sans-Serif" font-size="10.00">AckermannLoop</text>
</a>
</g>
</g>
<!-- Node2&#45;&gt;Node3 -->
<g id="edge2" class="edge"><title>Node2&#45;&gt;Node3</title>
<path fill="none" stroke="midnightblue" d="M134.091,-105C141.957,-105 150.722,-105 159.463,-105"/>
<polygon fill="midnightblue" stroke="midnightblue" points="159.656,-108.5 169.656,-105 159.656,-101.5 159.656,-108.5"/>
</g>
<!-- Node4 -->
<g id="node4" class="node"><title>Node4</title>
<g id="a_node4"><a xlink:href="class_stack_1_1seq_stack.html#aa4bbd748b258a1a9f9d3588ea2ba6a28" target="_top" xlink:title=" ">
<polygon fill="white" stroke="black" points="293,-190.5 293,-209.5 431,-209.5 431,-190.5 293,-190.5"/>
<text text-anchor="middle" x="362" y="-197.5" font-family="Helvetica,sans-Serif" font-size="10.00">Stack::seqStack::elemMem</text>
</a>
</g>
</g>
<!-- Node3&#45;&gt;Node4 -->
<g id="edge3" class="edge"><title>Node3&#45;&gt;Node4</title>
<path fill="none" stroke="midnightblue" d="M221.828,-114.74C234.527,-130.932 262.231,-163.349 293,-181 296.873,-183.222 301.02,-185.196 305.285,-186.948"/>
<polygon fill="midnightblue" stroke="midnightblue" points="304.156,-190.262 314.749,-190.438 306.578,-183.694 304.156,-190.262"/>
</g>
<!-- Node5 -->
<g id="node5" class="node"><title>Node5</title>
<g id="a_node5"><a xlink:href="class_stack_1_1seq_stack.html#a35a066a0aedc630474fd3e3dcaa9ced8" target="_top" xlink:title=" ">
<polygon fill="white" stroke="black" points="296.5,-152.5 296.5,-171.5 427.5,-171.5 427.5,-152.5 296.5,-152.5"/>
<text text-anchor="middle" x="362" y="-159.5" font-family="Helvetica,sans-Serif" font-size="10.00">Stack::seqStack::isEmpty</text>
</a>
</g>
</g>
<!-- Node3&#45;&gt;Node5 -->
<g id="edge4" class="edge"><title>Node3&#45;&gt;Node5</title>
<path fill="none" stroke="midnightblue" d="M231.874,-114.524C247.525,-122.831 271.332,-134.803 293,-143 299.239,-145.36 305.899,-147.576 312.518,-149.601"/>
<polygon fill="midnightblue" stroke="midnightblue" points="311.553,-152.965 322.134,-152.428 313.527,-146.249 311.553,-152.965"/>
</g>
<!-- Node6 -->
<g id="node6" class="node"><title>Node6</title>
<g id="a_node6"><a xlink:href="class_stack_1_1seq_stack.html#ae76c0c31d160cd1dabd0270172e2c88a" target="_top" xlink:title=" ">
<polygon fill="white" stroke="black" points="306.5,-114.5 306.5,-133.5 417.5,-133.5 417.5,-114.5 306.5,-114.5"/>
<text text-anchor="middle" x="362" y="-121.5" font-family="Helvetica,sans-Serif" font-size="10.00">Stack::seqStack::pop</text>
</a>
</g>
</g>
<!-- Node3&#45;&gt;Node6 -->
<g id="edge5" class="edge"><title>Node3&#45;&gt;Node6</title>
<path fill="none" stroke="midnightblue" d="M257.268,-110.547C269.516,-112.135 283.149,-113.903 296.399,-115.622"/>
<polygon fill="midnightblue" stroke="midnightblue" points="296.061,-119.107 306.428,-116.922 296.961,-112.165 296.061,-119.107"/>
</g>
<!-- Node7 -->
<g id="node7" class="node"><title>Node7</title>
<g id="a_node7"><a xlink:href="class_stack_1_1seq_stack.html#aa580900cdf97734ca479fe9f68f1c681" target="_top" xlink:title=" ">
<polygon fill="white" stroke="black" points="304,-76.5 304,-95.5 420,-95.5 420,-76.5 304,-76.5"/>
<text text-anchor="middle" x="362" y="-83.5" font-family="Helvetica,sans-Serif" font-size="10.00">Stack::seqStack::push</text>
</a>
</g>
</g>
<!-- Node3&#45;&gt;Node7 -->
<g id="edge6" class="edge"><title>Node3&#45;&gt;Node7</title>
<path fill="none" stroke="midnightblue" d="M257.268,-99.4533C268.616,-97.9815 281.153,-96.3555 293.473,-94.7578"/>
<polygon fill="midnightblue" stroke="midnightblue" points="294.273,-98.1834 303.74,-93.4263 293.373,-91.2416 294.273,-98.1834"/>
</g>
<!-- Node8 -->
<g id="node8" class="node"><title>Node8</title>
<g id="a_node8"><a xlink:href="class_stack_1_1seq_stack.html#a91fa28d561e88adc40c3213552c58402" target="_top" xlink:title=" ">
<polygon fill="white" stroke="black" points="305.5,-38.5 305.5,-57.5 418.5,-57.5 418.5,-38.5 305.5,-38.5"/>
<text text-anchor="middle" x="362" y="-45.5" font-family="Helvetica,sans-Serif" font-size="10.00">Stack::seqStack::size</text>
</a>
</g>
</g>
<!-- Node3&#45;&gt;Node8 -->
<g id="edge7" class="edge"><title>Node3&#45;&gt;Node8</title>
<path fill="none" stroke="midnightblue" d="M236.685,-95.4097C243.265,-92.4772 250.46,-89.1837 257,-86 273.267,-78.0817 276.192,-73.6945 293,-67 298.904,-64.6485 305.205,-62.4702 311.501,-60.4914"/>
<polygon fill="midnightblue" stroke="midnightblue" points="312.755,-63.7696 321.332,-57.5498 310.748,-57.0633 312.755,-63.7696"/>
</g>
<!-- Node9 -->
<g id="node9" class="node"><title>Node9</title>
<g id="a_node9"><a xlink:href="class_stack_1_1seq_stack.html#aae3a405f01cc5ba788a111fe15c6f5ed" target="_top" xlink:title=" ">
<polygon fill="white" stroke="black" points="307.5,-0.5 307.5,-19.5 416.5,-19.5 416.5,-0.5 307.5,-0.5"/>
<text text-anchor="middle" x="362" y="-7.5" font-family="Helvetica,sans-Serif" font-size="10.00">Stack::seqStack::top</text>
</a>
</g>
</g>
<!-- Node3&#45;&gt;Node9 -->
<g id="edge8" class="edge"><title>Node3&#45;&gt;Node9</title>
<path fill="none" stroke="midnightblue" d="M242.433,-95.3519C247.609,-92.804 252.724,-89.7047 257,-86 279.646,-66.3797 268.966,-46.893 293,-29 295.524,-27.1208 298.226,-25.4275 301.044,-23.9016"/>
<polygon fill="midnightblue" stroke="midnightblue" points="302.769,-26.9596 310.367,-19.5756 299.823,-20.6098 302.769,-26.9596"/>
</g>
<!-- Node11 -->
<g id="node11" class="node"><title>Node11</title>
<g id="a_node11"><a xlink:href="_ackermann_8hh.html#a779e6d0f676b89e7b2bcfaf974a59544" target="_top" xlink:title=" ">
<polygon fill="white" stroke="black" points="180.5,-57.5 180.5,-76.5 246.5,-76.5 246.5,-57.5 180.5,-57.5"/>
<text text-anchor="middle" x="213.5" y="-64.5" font-family="Helvetica,sans-Serif" font-size="10.00">Ackermann</text>
</a>
</g>
</g>
<!-- Node10&#45;&gt;Node11 -->
<g id="edge10" class="edge"><title>Node10&#45;&gt;Node11</title>
<path fill="none" stroke="midnightblue" d="M132.127,-67C143.709,-67 157.499,-67 170.357,-67"/>
<polygon fill="midnightblue" stroke="midnightblue" points="170.41,-70.5001 180.41,-67 170.41,-63.5001 170.41,-70.5001"/>
</g>
</g>
</svg>
