<?xml version="1.0" encoding="UTF-8" standalone="no"?>
<!DOCTYPE svg PUBLIC "-//W3C//DTD SVG 1.1//EN"
 "http://www.w3.org/Graphics/SVG/1.1/DTD/svg11.dtd">
<!-- Generated by graphviz version 2.38.0 (20140413.2041)
 -->
<!-- Title: src/ch3_5.cc Pages: 1 -->
<!--zoomable 308 -->
<svg id="main" version="1.1" xmlns="http://www.w3.org/2000/svg" xmlns:xlink="http://www.w3.org/1999/xlink" xml:space="preserve" onload="init(evt)">
<style type="text/css"><![CDATA[
.edge:hover path { stroke: red; }
.edge:hover polygon { stroke: red; fill: red; }
]]></style>
<script type="text/javascript"><![CDATA[
var edges = document.getElementsByTagName('g');
if (edges && edges.length) {
  for (var i=0;i<edges.length;i++) {
    if (edges[i].id.substr(0,4)=='edge') {
      edges[i].setAttribute('class','edge');
    }
  }
}
]]></script>
        <defs>
                <circle id="rim" cx="0" cy="0" r="7"/>
                <circle id="rim2" cx="0" cy="0" r="3.5"/>
                <g id="zoomPlus">
                        <use xlink:href="#rim" fill="#404040">
                                <set attributeName="fill" to="#808080" begin="zoomplus.mouseover" end="zoomplus.mouseout"/>
                        </use>
                        <path d="M-4,0h8M0,-4v8" fill="none" stroke="white" stroke-width="1.5" pointer-events="none"/>
                </g>
                <g id="zoomMin">
                        <use xlink:href="#rim" fill="#404040">
                                <set attributeName="fill" to="#808080" begin="zoomminus.mouseover" end="zoomminus.mouseout"/>
                        </use>
                        <path d="M-4,0h8" fill="none" stroke="white" stroke-width="1.5" pointer-events="none"/>
                </g>
                <g id="dirArrow">
                        <path fill="none" stroke="white" stroke-width="1.5" d="M0,-3.0v7 M-2.5,-0.5L0,-3.0L2.5,-0.5"/>
                </g>
               <g id="resetDef">
                       <use xlink:href="#rim2" fill="#404040">
                               <set attributeName="fill" to="#808080" begin="reset.mouseover" end="reset.mouseout"/>
                       </use>
               </g>
        </defs>

<script type="text/javascript">
var viewWidth = 640;
var viewHeight = 308;
var sectionId = 'dynsection-0';
</script>
<script xlink:href="svgpan.js"/>
<svg id="graph" class="graph">
<g id="viewport">
<title>src/ch3_5.cc</title>
<polygon fill="white" stroke="none" points="-4,4 -4,-304 635.736,-304 635.736,4 -4,4"/>
<!-- Node1 -->
<g id="node1" class="node"><title>Node1</title>
<g id="a_node1"><a xlink:title=" ">
<polygon fill="#bfbfbf" stroke="black" points="377.736,-280.5 377.736,-299.5 450.736,-299.5 450.736,-280.5 377.736,-280.5"/>
<text text-anchor="middle" x="414.236" y="-287.5" font-family="Helvetica,sans-Serif" font-size="10.00">src/ch3_5.cc</text>
</a>
</g>
</g>
<!-- Node2 -->
<g id="node2" class="node"><title>Node2</title>
<g id="a_node2"><a xlink:href="_rpn_8hh.html" target="_top" xlink:title="后缀表达式类">
<polygon fill="white" stroke="black" points="325.736,-224.5 325.736,-243.5 372.736,-243.5 372.736,-224.5 325.736,-224.5"/>
<text text-anchor="middle" x="349.236" y="-231.5" font-family="Helvetica,sans-Serif" font-size="10.00">Rpn.hh</text>
</a>
</g>
</g>
<!-- Node1&#45;&gt;Node2 -->
<g id="edge1" class="edge"><title>Node1&#45;&gt;Node2</title>
<path fill="none" stroke="midnightblue" d="M403.793,-280.324C394.09,-272.263 379.421,-260.077 367.736,-250.369"/>
<polygon fill="midnightblue" stroke="midnightblue" points="369.798,-247.532 359.869,-243.834 365.325,-252.916 369.798,-247.532"/>
</g>
<!-- Node19 -->
<g id="node19" class="node"><title>Node19</title>
<g id="a_node19"><a xlink:title=" ">
<polygon fill="white" stroke="#bfbfbf" points="391.236,-224.5 391.236,-243.5 437.236,-243.5 437.236,-224.5 391.236,-224.5"/>
<text text-anchor="middle" x="414.236" y="-231.5" font-family="Helvetica,sans-Serif" font-size="10.00">cstring</text>
</a>
</g>
</g>
<!-- Node1&#45;&gt;Node19 -->
<g id="edge29" class="edge"><title>Node1&#45;&gt;Node19</title>
<path fill="none" stroke="midnightblue" d="M414.236,-280.083C414.236,-273.006 414.236,-262.861 414.236,-253.986"/>
<polygon fill="midnightblue" stroke="midnightblue" points="417.736,-253.751 414.236,-243.751 410.736,-253.751 417.736,-253.751"/>
</g>
<!-- Node20 -->
<g id="node20" class="node"><title>Node20</title>
<g id="a_node20"><a xlink:title=" ">
<polygon fill="white" stroke="#bfbfbf" points="455.736,-224.5 455.736,-243.5 496.736,-243.5 496.736,-224.5 455.736,-224.5"/>
<text text-anchor="middle" x="476.236" y="-231.5" font-family="Helvetica,sans-Serif" font-size="10.00">ctime</text>
</a>
</g>
</g>
<!-- Node1&#45;&gt;Node20 -->
<g id="edge30" class="edge"><title>Node1&#45;&gt;Node20</title>
<path fill="none" stroke="midnightblue" d="M424.197,-280.324C433.362,-272.341 447.173,-260.313 458.264,-250.653"/>
<polygon fill="midnightblue" stroke="midnightblue" points="460.851,-253.041 466.093,-243.834 456.254,-247.762 460.851,-253.041"/>
</g>
<!-- Node3 -->
<g id="node3" class="node"><title>Node3</title>
<g id="a_node3"><a xlink:href="_list_8h.html" target="_top" xlink:title="栈的抽象类">
<polygon fill="white" stroke="black" points="97.7359,-168.5 97.7359,-187.5 138.736,-187.5 138.736,-168.5 97.7359,-168.5"/>
<text text-anchor="middle" x="118.236" y="-175.5" font-family="Helvetica,sans-Serif" font-size="10.00">List.h</text>
</a>
</g>
</g>
<!-- Node2&#45;&gt;Node3 -->
<g id="edge2" class="edge"><title>Node2&#45;&gt;Node3</title>
<path fill="none" stroke="midnightblue" d="M325.385,-227.424C283.161,-217.554 195.328,-197.021 148.757,-186.135"/>
<polygon fill="midnightblue" stroke="midnightblue" points="149.47,-182.707 138.936,-183.839 147.876,-189.523 149.47,-182.707"/>
</g>
<!-- Node5 -->
<g id="node5" class="node"><title>Node5</title>
<g id="a_node5"><a xlink:title=" ">
<polygon fill="white" stroke="#bfbfbf" points="24.2359,-56.5 24.2359,-75.5 78.2359,-75.5 78.2359,-56.5 24.2359,-56.5"/>
<text text-anchor="middle" x="51.2359" y="-63.5" font-family="Helvetica,sans-Serif" font-size="10.00">iostream</text>
</a>
</g>
</g>
<!-- Node2&#45;&gt;Node5 -->
<g id="edge26" class="edge"><title>Node2&#45;&gt;Node5</title>
<path fill="none" stroke="midnightblue" d="M325.683,-232.152C278.854,-229.78 171.4,-220.894 88.2359,-188 46.1675,-171.361 24.6912,-171.828 3.23592,-132 -6.79189,-113.385 11.6281,-94.1574 28.4733,-81.4916"/>
<polygon fill="midnightblue" stroke="midnightblue" points="30.8168,-84.1223 36.9797,-75.5044 26.7877,-78.398 30.8168,-84.1223"/>
</g>
<!-- Node6 -->
<g id="node6" class="node"><title>Node6</title>
<g id="a_node6"><a xlink:title=" ">
<polygon fill="white" stroke="#bfbfbf" points="219.236,-56.5 219.236,-75.5 259.236,-75.5 259.236,-56.5 219.236,-56.5"/>
<text text-anchor="middle" x="239.236" y="-63.5" font-family="Helvetica,sans-Serif" font-size="10.00">utility</text>
</a>
</g>
</g>
<!-- Node2&#45;&gt;Node6 -->
<g id="edge28" class="edge"><title>Node2&#45;&gt;Node6</title>
<path fill="none" stroke="midnightblue" d="M340.964,-224.432C332.702,-215.658 319.879,-201.44 310.236,-188 285.14,-153.022 260.853,-108.664 248.221,-84.5519"/>
<polygon fill="midnightblue" stroke="midnightblue" points="251.261,-82.8121 243.552,-75.5442 245.046,-86.0332 251.261,-82.8121"/>
</g>
<!-- Node10 -->
<g id="node10" class="node"><title>Node10</title>
<g id="a_node10"><a xlink:href="_stack_8hh.html" target="_top" xlink:title="栈的抽象类">
<polygon fill="white" stroke="black" points="288.236,-112.5 288.236,-131.5 344.236,-131.5 344.236,-112.5 288.236,-112.5"/>
<text text-anchor="middle" x="316.236" y="-119.5" font-family="Helvetica,sans-Serif" font-size="10.00">Stack.hh</text>
</a>
</g>
</g>
<!-- Node2&#45;&gt;Node10 -->
<g id="edge14" class="edge"><title>Node2&#45;&gt;Node10</title>
<path fill="none" stroke="midnightblue" d="M340.535,-224.27C332.758,-215.812 321.894,-202.211 317.236,-188 312.342,-173.069 312.475,-155.155 313.615,-141.917"/>
<polygon fill="midnightblue" stroke="midnightblue" points="317.127,-142.011 314.775,-131.681 310.171,-141.223 317.127,-142.011"/>
</g>
<!-- Node14 -->
<g id="node14" class="node"><title>Node14</title>
<g id="a_node14"><a xlink:title=" ">
<polygon fill="white" stroke="#bfbfbf" points="326.236,-168.5 326.236,-187.5 372.236,-187.5 372.236,-168.5 326.236,-168.5"/>
<text text-anchor="middle" x="349.236" y="-175.5" font-family="Helvetica,sans-Serif" font-size="10.00">cctype</text>
</a>
</g>
</g>
<!-- Node2&#45;&gt;Node14 -->
<g id="edge22" class="edge"><title>Node2&#45;&gt;Node14</title>
<path fill="none" stroke="midnightblue" d="M349.236,-224.083C349.236,-217.006 349.236,-206.861 349.236,-197.986"/>
<polygon fill="midnightblue" stroke="midnightblue" points="352.736,-197.751 349.236,-187.751 345.736,-197.751 352.736,-197.751"/>
</g>
<!-- Node15 -->
<g id="node15" class="node"><title>Node15</title>
<g id="a_node15"><a xlink:title=" ">
<polygon fill="white" stroke="#bfbfbf" points="390.236,-168.5 390.236,-187.5 434.236,-187.5 434.236,-168.5 390.236,-168.5"/>
<text text-anchor="middle" x="412.236" y="-175.5" font-family="Helvetica,sans-Serif" font-size="10.00">cmath</text>
</a>
</g>
</g>
<!-- Node2&#45;&gt;Node15 -->
<g id="edge23" class="edge"><title>Node2&#45;&gt;Node15</title>
<path fill="none" stroke="midnightblue" d="M359.358,-224.324C368.762,-216.263 382.98,-204.077 394.305,-194.369"/>
<polygon fill="midnightblue" stroke="midnightblue" points="396.615,-196.999 401.93,-187.834 392.059,-191.684 396.615,-196.999"/>
</g>
<!-- Node16 -->
<g id="node16" class="node"><title>Node16</title>
<g id="a_node16"><a xlink:title=" ">
<polygon fill="white" stroke="#bfbfbf" points="452.736,-168.5 452.736,-187.5 495.736,-187.5 495.736,-168.5 452.736,-168.5"/>
<text text-anchor="middle" x="474.236" y="-175.5" font-family="Helvetica,sans-Serif" font-size="10.00">cstdio</text>
</a>
</g>
</g>
<!-- Node2&#45;&gt;Node16 -->
<g id="edge24" class="edge"><title>Node2&#45;&gt;Node16</title>
<path fill="none" stroke="midnightblue" d="M369.043,-224.444C389.523,-215.596 421.719,-201.687 445.101,-191.586"/>
<polygon fill="midnightblue" stroke="midnightblue" points="446.73,-194.695 454.522,-187.516 443.954,-188.269 446.73,-194.695"/>
</g>
<!-- Node17 -->
<g id="node17" class="node"><title>Node17</title>
<g id="a_node17"><a xlink:title=" ">
<polygon fill="white" stroke="#bfbfbf" points="513.736,-168.5 513.736,-187.5 572.736,-187.5 572.736,-168.5 513.736,-168.5"/>
<text text-anchor="middle" x="543.236" y="-175.5" font-family="Helvetica,sans-Serif" font-size="10.00">exception</text>
</a>
</g>
</g>
<!-- Node2&#45;&gt;Node17 -->
<g id="edge25" class="edge"><title>Node2&#45;&gt;Node17</title>
<path fill="none" stroke="midnightblue" d="M373.024,-226.379C405.601,-217.311 464.517,-200.911 503.763,-189.987"/>
<polygon fill="midnightblue" stroke="midnightblue" points="504.839,-193.321 513.534,-187.268 502.962,-186.577 504.839,-193.321"/>
</g>
<!-- Node18 -->
<g id="node18" class="node"><title>Node18</title>
<g id="a_node18"><a xlink:title=" ">
<polygon fill="white" stroke="#bfbfbf" points="590.736,-168.5 590.736,-187.5 631.736,-187.5 631.736,-168.5 590.736,-168.5"/>
<text text-anchor="middle" x="611.236" y="-175.5" font-family="Helvetica,sans-Serif" font-size="10.00">string</text>
</a>
</g>
</g>
<!-- Node2&#45;&gt;Node18 -->
<g id="edge27" class="edge"><title>Node2&#45;&gt;Node18</title>
<path fill="none" stroke="midnightblue" d="M372.966,-226.259C376.074,-225.456 379.224,-224.68 382.236,-224 467.236,-204.798 492.719,-209.082 580.84,-188.103"/>
<polygon fill="midnightblue" stroke="midnightblue" points="581.834,-191.463 590.728,-185.706 580.185,-184.66 581.834,-191.463"/>
</g>
<!-- Node4 -->
<g id="node4" class="node"><title>Node4</title>
<g id="a_node4"><a xlink:href="d_link_list_8h.html" target="_top" xlink:title="双链表类">
<polygon fill="white" stroke="black" points="168.236,-112.5 168.236,-131.5 232.236,-131.5 232.236,-112.5 168.236,-112.5"/>
<text text-anchor="middle" x="200.236" y="-119.5" font-family="Helvetica,sans-Serif" font-size="10.00">dLinkList.h</text>
</a>
</g>
</g>
<!-- Node3&#45;&gt;Node4 -->
<g id="edge3" class="edge"><title>Node3&#45;&gt;Node4</title>
<path fill="none" stroke="midnightblue" d="M126.296,-168.324C137.366,-159.822 156.961,-146.729 173.31,-136.797"/>
<polygon fill="midnightblue" stroke="midnightblue" points="175.167,-139.765 181.984,-131.655 171.597,-133.744 175.167,-139.765"/>
</g>
<!-- Node7 -->
<g id="node7" class="node"><title>Node7</title>
<g id="a_node7"><a xlink:href="s_link_list_8h.html" target="_top" xlink:title="单链表类的定义和实现">
<polygon fill="white" stroke="black" points="86.2359,-112.5 86.2359,-131.5 150.236,-131.5 150.236,-112.5 86.2359,-112.5"/>
<text text-anchor="middle" x="118.236" y="-119.5" font-family="Helvetica,sans-Serif" font-size="10.00">sLinkList.h</text>
</a>
</g>
</g>
<!-- Node3&#45;&gt;Node7 -->
<g id="edge7" class="edge"><title>Node3&#45;&gt;Node7</title>
<path fill="none" stroke="midnightblue" d="M113.07,-168.083C111.56,-160.927 111.13,-150.635 111.778,-141.691"/>
<polygon fill="midnightblue" stroke="midnightblue" points="115.251,-142.126 113.105,-131.751 108.313,-141.2 115.251,-142.126"/>
</g>
<!-- Node9 -->
<g id="node9" class="node"><title>Node9</title>
<g id="a_node9"><a xlink:href="seq_list_8h.html" target="_top" xlink:title="顺序表类">
<polygon fill="white" stroke="black" points="12.2359,-112.5 12.2359,-131.5 68.2359,-131.5 68.2359,-112.5 12.2359,-112.5"/>
<text text-anchor="middle" x="40.2359" y="-119.5" font-family="Helvetica,sans-Serif" font-size="10.00">seqList.h</text>
</a>
</g>
</g>
<!-- Node3&#45;&gt;Node9 -->
<g id="edge11" class="edge"><title>Node3&#45;&gt;Node9</title>
<path fill="none" stroke="midnightblue" d="M100.589,-168.324C87.0703,-160.185 68.9003,-147.839 55.9004,-138.087"/>
<polygon fill="midnightblue" stroke="midnightblue" points="57.8922,-135.203 47.8473,-131.834 53.5989,-140.732 57.8922,-135.203"/>
</g>
<!-- Node4&#45;&gt;Node3 -->
<g id="edge4" class="edge"><title>Node4&#45;&gt;Node3</title>
<path fill="none" stroke="midnightblue" d="M191.97,-131.834C180.861,-140.342 161.4,-153.339 145.15,-163.21"/>
<polygon fill="midnightblue" stroke="midnightblue" points="143.342,-160.213 136.525,-168.324 146.912,-166.234 143.342,-160.213"/>
</g>
<!-- Node4&#45;&gt;Node5 -->
<g id="edge5" class="edge"><title>Node4&#45;&gt;Node5</title>
<path fill="none" stroke="midnightblue" d="M176.626,-112.444C151.778,-103.438 112.462,-89.1891 84.4823,-79.049"/>
<polygon fill="midnightblue" stroke="midnightblue" points="85.3291,-75.6332 74.7349,-75.5164 82.944,-82.2144 85.3291,-75.6332"/>
</g>
<!-- Node4&#45;&gt;Node6 -->
<g id="edge6" class="edge"><title>Node4&#45;&gt;Node6</title>
<path fill="none" stroke="midnightblue" d="M206.676,-112.083C212.185,-104.455 220.267,-93.2645 227.001,-83.9408"/>
<polygon fill="midnightblue" stroke="midnightblue" points="229.898,-85.9071 232.916,-75.7511 224.223,-81.8087 229.898,-85.9071"/>
</g>
<!-- Node7&#45;&gt;Node3 -->
<g id="edge8" class="edge"><title>Node7&#45;&gt;Node3</title>
<path fill="none" stroke="midnightblue" d="M123.367,-131.751C124.893,-138.858 125.34,-149.136 124.708,-158.101"/>
<polygon fill="midnightblue" stroke="midnightblue" points="121.229,-157.713 123.402,-168.083 128.17,-158.622 121.229,-157.713"/>
</g>
<!-- Node7&#45;&gt;Node5 -->
<g id="edge10" class="edge"><title>Node7&#45;&gt;Node5</title>
<path fill="none" stroke="midnightblue" d="M107.471,-112.324C97.4698,-104.263 82.3494,-92.0765 70.3054,-82.3695"/>
<polygon fill="midnightblue" stroke="midnightblue" points="72.1788,-79.3841 62.1965,-75.8339 67.7861,-84.8343 72.1788,-79.3841"/>
</g>
<!-- Node8 -->
<g id="node8" class="node"><title>Node8</title>
<g id="a_node8"><a xlink:title=" ">
<polygon fill="white" stroke="#bfbfbf" points="117.736,-56.5 117.736,-75.5 190.736,-75.5 190.736,-56.5 117.736,-56.5"/>
<text text-anchor="middle" x="154.236" y="-63.5" font-family="Helvetica,sans-Serif" font-size="10.00">initializer_list</text>
</a>
</g>
</g>
<!-- Node7&#45;&gt;Node8 -->
<g id="edge9" class="edge"><title>Node7&#45;&gt;Node8</title>
<path fill="none" stroke="midnightblue" d="M124.181,-112.083C129.213,-104.534 136.573,-93.4948 142.749,-84.2298"/>
<polygon fill="midnightblue" stroke="midnightblue" points="145.767,-86.0131 148.402,-75.7511 139.943,-82.1301 145.767,-86.0131"/>
</g>
<!-- Node9&#45;&gt;Node3 -->
<g id="edge12" class="edge"><title>Node9&#45;&gt;Node3</title>
<path fill="none" stroke="midnightblue" d="M57.847,-131.655C71.4379,-139.835 89.7445,-152.277 102.769,-162.061"/>
<polygon fill="midnightblue" stroke="midnightblue" points="100.777,-164.946 110.819,-168.324 105.075,-159.421 100.777,-164.946"/>
</g>
<!-- Node9&#45;&gt;Node5 -->
<g id="edge13" class="edge"><title>Node9&#45;&gt;Node5</title>
<path fill="none" stroke="midnightblue" d="M42.0523,-112.083C43.51,-104.927 45.6065,-94.6353 47.4285,-85.6911"/>
<polygon fill="midnightblue" stroke="midnightblue" points="50.8867,-86.2485 49.4533,-75.7511 44.0276,-84.8512 50.8867,-86.2485"/>
</g>
<!-- Node10&#45;&gt;Node6 -->
<g id="edge16" class="edge"><title>Node10&#45;&gt;Node6</title>
<path fill="none" stroke="midnightblue" d="M303.865,-112.324C292.077,-104.058 274.104,-91.4527 260.1,-81.6322"/>
<polygon fill="midnightblue" stroke="midnightblue" points="261.774,-78.5307 251.577,-75.6545 257.754,-84.2619 261.774,-78.5307"/>
</g>
<!-- Node10&#45;&gt;Node8 -->
<g id="edge15" class="edge"><title>Node10&#45;&gt;Node8</title>
<path fill="none" stroke="midnightblue" d="M290.567,-112.444C263.313,-103.359 220.052,-88.9388 189.585,-78.7831"/>
<polygon fill="midnightblue" stroke="midnightblue" points="190.379,-75.3584 179.785,-75.5164 188.165,-81.9992 190.379,-75.3584"/>
</g>
<!-- Node11 -->
<g id="node11" class="node"><title>Node11</title>
<g id="a_node11"><a xlink:href="link_stack_8hpp.html" target="_top" xlink:title="顺序栈类">
<polygon fill="white" stroke="black" points="373.236,-56.5 373.236,-75.5 449.236,-75.5 449.236,-56.5 373.236,-56.5"/>
<text text-anchor="middle" x="411.236" y="-63.5" font-family="Helvetica,sans-Serif" font-size="10.00">linkStack.hpp</text>
</a>
</g>
</g>
<!-- Node10&#45;&gt;Node11 -->
<g id="edge17" class="edge"><title>Node10&#45;&gt;Node11</title>
<path fill="none" stroke="midnightblue" d="M326.384,-112.324C339.684,-103.703 362.882,-90.3643 381.767,-80.3855"/>
<polygon fill="midnightblue" stroke="midnightblue" points="383.631,-83.3618 390.9,-75.6545 380.411,-77.1461 383.631,-83.3618"/>
</g>
<!-- Node12 -->
<g id="node12" class="node"><title>Node12</title>
<g id="a_node12"><a xlink:href="seq_stack_8hxx.html" target="_top" xlink:title="顺序栈类的定义和实现">
<polygon fill="white" stroke="black" points="277.736,-56.5 277.736,-75.5 354.736,-75.5 354.736,-56.5 277.736,-56.5"/>
<text text-anchor="middle" x="316.236" y="-63.5" font-family="Helvetica,sans-Serif" font-size="10.00">seqStack.hxx</text>
</a>
</g>
</g>
<!-- Node10&#45;&gt;Node12 -->
<g id="edge19" class="edge"><title>Node10&#45;&gt;Node12</title>
<path fill="none" stroke="midnightblue" d="M311.07,-112.083C309.56,-104.927 309.13,-94.6353 309.778,-85.6911"/>
<polygon fill="midnightblue" stroke="midnightblue" points="313.251,-86.1262 311.105,-75.7511 306.313,-85.2002 313.251,-86.1262"/>
</g>
<!-- Node11&#45;&gt;Node10 -->
<g id="edge18" class="edge"><title>Node11&#45;&gt;Node10</title>
<path fill="none" stroke="midnightblue" d="M401.121,-75.6545C387.838,-84.2672 364.644,-97.6052 345.752,-107.59"/>
<polygon fill="midnightblue" stroke="midnightblue" points="343.883,-104.616 336.614,-112.324 347.103,-110.831 343.883,-104.616"/>
</g>
<!-- Node12&#45;&gt;Node10 -->
<g id="edge20" class="edge"><title>Node12&#45;&gt;Node10</title>
<path fill="none" stroke="midnightblue" d="M321.367,-75.7511C322.893,-82.8579 323.34,-93.1357 322.708,-102.101"/>
<polygon fill="midnightblue" stroke="midnightblue" points="319.229,-101.713 321.402,-112.083 326.17,-102.622 319.229,-101.713"/>
</g>
<!-- Node13 -->
<g id="node13" class="node"><title>Node13</title>
<g id="a_node13"><a xlink:title=" ">
<polygon fill="white" stroke="#bfbfbf" points="293.736,-0.5 293.736,-19.5 338.736,-19.5 338.736,-0.5 293.736,-0.5"/>
<text text-anchor="middle" x="316.236" y="-7.5" font-family="Helvetica,sans-Serif" font-size="10.00">climits</text>
</a>
</g>
</g>
<!-- Node12&#45;&gt;Node13 -->
<g id="edge21" class="edge"><title>Node12&#45;&gt;Node13</title>
<path fill="none" stroke="midnightblue" d="M316.236,-56.083C316.236,-49.0059 316.236,-38.8611 316.236,-29.9865"/>
<polygon fill="midnightblue" stroke="midnightblue" points="319.736,-29.751 316.236,-19.7511 312.736,-29.7511 319.736,-29.751"/>
</g>
</g>
</svg>
        <g id="navigator" transform="translate(0 0)" fill="#404254">
                <rect fill="#f2f5e9" fill-opacity="0.5" stroke="#606060" stroke-width=".5" x="0" y="0" width="60" height="60"/>
                <use id="zoomplus" xlink:href="#zoomPlus" x="17" y="9" onmousedown="handleZoom(evt,'in')"/>
                <use id="zoomminus" xlink:href="#zoomMin" x="42" y="9" onmousedown="handleZoom(evt,'out')"/>
                <use id="reset" xlink:href="#resetDef" x="30" y="36" onmousedown="handleReset()"/>
                <g id="arrowUp" xlink:href="#dirArrow" transform="translate(30 24)" onmousedown="handlePan(0,-1)">
                  <use xlink:href="#rim" fill="#404040">
                        <set attributeName="fill" to="#808080" begin="arrowUp.mouseover" end="arrowUp.mouseout"/>
                  </use>
                  <path fill="none" stroke="white" stroke-width="1.5" d="M0,-3.0v7 M-2.5,-0.5L0,-3.0L2.5,-0.5"/>
                </g>
                <g id="arrowRight" xlink:href="#dirArrow" transform="rotate(90) translate(36 -43)" onmousedown="handlePan(1,0)">
                  <use xlink:href="#rim" fill="#404040">
                        <set attributeName="fill" to="#808080" begin="arrowRight.mouseover" end="arrowRight.mouseout"/>
                  </use>
                  <path fill="none" stroke="white" stroke-width="1.5" d="M0,-3.0v7 M-2.5,-0.5L0,-3.0L2.5,-0.5"/>
                </g>
                <g id="arrowDown" xlink:href="#dirArrow" transform="rotate(180) translate(-30 -48)" onmousedown="handlePan(0,1)">
                  <use xlink:href="#rim" fill="#404040">
                        <set attributeName="fill" to="#808080" begin="arrowDown.mouseover" end="arrowDown.mouseout"/>
                  </use>
                  <path fill="none" stroke="white" stroke-width="1.5" d="M0,-3.0v7 M-2.5,-0.5L0,-3.0L2.5,-0.5"/>
                </g>
                <g id="arrowLeft" xlink:href="#dirArrow" transform="rotate(270) translate(-36 17)" onmousedown="handlePan(-1,0)">
                  <use xlink:href="#rim" fill="#404040">
                        <set attributeName="fill" to="#808080" begin="arrowLeft.mouseover" end="arrowLeft.mouseout"/>
                  </use>
                  <path fill="none" stroke="white" stroke-width="1.5" d="M0,-3.0v7 M-2.5,-0.5L0,-3.0L2.5,-0.5"/>
                </g>
        </g>
        <svg viewBox="0 0 15 15" width="100%" height="30px" preserveAspectRatio="xMaxYMin meet">
         <g id="arrow_out" transform="scale(0.3 0.3)">
          <a xlink:href="ch3__5_8cc__incl_org.svg" target="_base">
           <rect id="button" ry="5" rx="5" y="6" x="6" height="38" width="38"
                fill="#f2f5e9" fill-opacity="0.5" stroke="#606060" stroke-width="1.0"/>
           <path id="arrow"
             d="M 11.500037,31.436501 C 11.940474,20.09759 22.043105,11.32322 32.158766,21.979434 L 37.068811,17.246167 C 37.068811,17.246167 37.088388,32 37.088388,32 L 22.160133,31.978069 C 22.160133,31.978069 26.997745,27.140456 26.997745,27.140456 C 18.528582,18.264221 13.291696,25.230495 11.500037,31.436501 z"
             style="fill:#404040;"/>
          </a>
         </g>
        </svg>
</svg>
