<?xml version="1.0" encoding="UTF-8" standalone="no"?>
<!DOCTYPE svg PUBLIC "-//W3C//DTD SVG 1.1//EN"
 "http://www.w3.org/Graphics/SVG/1.1/DTD/svg11.dtd">
<!-- Generated by graphviz version 2.38.0 (20140413.2041)
 -->
<!-- Title: Akm_loop Pages: 1 -->
<svg width="365pt" height="218pt"
 viewBox="0.00 0.00 365.00 218.00" xmlns="http://www.w3.org/2000/svg" xmlns:xlink="http://www.w3.org/1999/xlink">
<g id="graph0" class="graph" transform="scale(1 1) rotate(0) translate(4 214)">
<title>Akm_loop</title>
<polygon fill="white" stroke="none" points="-4,4 -4,-214 361,-214 361,4 -4,4"/>
<!-- Node1 -->
<g id="node1" class="node"><title>Node1</title>
<g id="a_node1"><a xlink:title=" ">
<polygon fill="#bfbfbf" stroke="black" points="0,-95.5 0,-114.5 60,-114.5 60,-95.5 0,-95.5"/>
<text text-anchor="middle" x="30" y="-102.5" font-family="Helvetica,sans-Serif" font-size="10.00">Akm_loop</text>
</a>
</g>
</g>
<!-- Node2 -->
<g id="node2" class="node"><title>Node2</title>
<g id="a_node2"><a xlink:href="_ackermann_8hh.html#a09828dd70ee57ea0c5d9832aded20690" target="_top" xlink:title=" ">
<polygon fill="white" stroke="black" points="96,-95.5 96,-114.5 183,-114.5 183,-95.5 96,-95.5"/>
<text text-anchor="middle" x="139.5" y="-102.5" font-family="Helvetica,sans-Serif" font-size="10.00">AckermannLoop</text>
</a>
</g>
</g>
<!-- Node1&#45;&gt;Node2 -->
<g id="edge1" class="edge"><title>Node1&#45;&gt;Node2</title>
<path fill="none" stroke="midnightblue" d="M60.091,-105C67.9569,-105 76.7223,-105 85.4626,-105"/>
<polygon fill="midnightblue" stroke="midnightblue" points="85.656,-108.5 95.656,-105 85.6559,-101.5 85.656,-108.5"/>
</g>
<!-- Node3 -->
<g id="node3" class="node"><title>Node3</title>
<g id="a_node3"><a xlink:href="class_stack_1_1seq_stack.html#aa4bbd748b258a1a9f9d3588ea2ba6a28" target="_top" xlink:title=" ">
<polygon fill="white" stroke="black" points="219,-190.5 219,-209.5 357,-209.5 357,-190.5 219,-190.5"/>
<text text-anchor="middle" x="288" y="-197.5" font-family="Helvetica,sans-Serif" font-size="10.00">Stack::seqStack::elemMem</text>
</a>
</g>
</g>
<!-- Node2&#45;&gt;Node3 -->
<g id="edge2" class="edge"><title>Node2&#45;&gt;Node3</title>
<path fill="none" stroke="midnightblue" d="M147.828,-114.74C160.527,-130.932 188.231,-163.349 219,-181 222.873,-183.222 227.02,-185.196 231.285,-186.948"/>
<polygon fill="midnightblue" stroke="midnightblue" points="230.156,-190.262 240.749,-190.438 232.578,-183.694 230.156,-190.262"/>
</g>
<!-- Node4 -->
<g id="node4" class="node"><title>Node4</title>
<g id="a_node4"><a xlink:href="class_stack_1_1seq_stack.html#a35a066a0aedc630474fd3e3dcaa9ced8" target="_top" xlink:title=" ">
<polygon fill="white" stroke="black" points="222.5,-152.5 222.5,-171.5 353.5,-171.5 353.5,-152.5 222.5,-152.5"/>
<text text-anchor="middle" x="288" y="-159.5" font-family="Helvetica,sans-Serif" font-size="10.00">Stack::seqStack::isEmpty</text>
</a>
</g>
</g>
<!-- Node2&#45;&gt;Node4 -->
<g id="edge3" class="edge"><title>Node2&#45;&gt;Node4</title>
<path fill="none" stroke="midnightblue" d="M157.874,-114.524C173.525,-122.831 197.332,-134.803 219,-143 225.239,-145.36 231.899,-147.576 238.518,-149.601"/>
<polygon fill="midnightblue" stroke="midnightblue" points="237.553,-152.965 248.134,-152.428 239.527,-146.249 237.553,-152.965"/>
</g>
<!-- Node5 -->
<g id="node5" class="node"><title>Node5</title>
<g id="a_node5"><a xlink:href="class_stack_1_1seq_stack.html#ae76c0c31d160cd1dabd0270172e2c88a" target="_top" xlink:title=" ">
<polygon fill="white" stroke="black" points="232.5,-114.5 232.5,-133.5 343.5,-133.5 343.5,-114.5 232.5,-114.5"/>
<text text-anchor="middle" x="288" y="-121.5" font-family="Helvetica,sans-Serif" font-size="10.00">Stack::seqStack::pop</text>
</a>
</g>
</g>
<!-- Node2&#45;&gt;Node5 -->
<g id="edge4" class="edge"><title>Node2&#45;&gt;Node5</title>
<path fill="none" stroke="midnightblue" d="M183.268,-110.547C195.516,-112.135 209.149,-113.903 222.399,-115.622"/>
<polygon fill="midnightblue" stroke="midnightblue" points="222.061,-119.107 232.428,-116.922 222.961,-112.165 222.061,-119.107"/>
</g>
<!-- Node6 -->
<g id="node6" class="node"><title>Node6</title>
<g id="a_node6"><a xlink:href="class_stack_1_1seq_stack.html#aa580900cdf97734ca479fe9f68f1c681" target="_top" xlink:title=" ">
<polygon fill="white" stroke="black" points="230,-76.5 230,-95.5 346,-95.5 346,-76.5 230,-76.5"/>
<text text-anchor="middle" x="288" y="-83.5" font-family="Helvetica,sans-Serif" font-size="10.00">Stack::seqStack::push</text>
</a>
</g>
</g>
<!-- Node2&#45;&gt;Node6 -->
<g id="edge5" class="edge"><title>Node2&#45;&gt;Node6</title>
<path fill="none" stroke="midnightblue" d="M183.268,-99.4533C194.616,-97.9815 207.153,-96.3555 219.473,-94.7578"/>
<polygon fill="midnightblue" stroke="midnightblue" points="220.273,-98.1834 229.74,-93.4263 219.373,-91.2416 220.273,-98.1834"/>
</g>
<!-- Node7 -->
<g id="node7" class="node"><title>Node7</title>
<g id="a_node7"><a xlink:href="class_stack_1_1seq_stack.html#a91fa28d561e88adc40c3213552c58402" target="_top" xlink:title=" ">
<polygon fill="white" stroke="black" points="231.5,-38.5 231.5,-57.5 344.5,-57.5 344.5,-38.5 231.5,-38.5"/>
<text text-anchor="middle" x="288" y="-45.5" font-family="Helvetica,sans-Serif" font-size="10.00">Stack::seqStack::size</text>
</a>
</g>
</g>
<!-- Node2&#45;&gt;Node7 -->
<g id="edge6" class="edge"><title>Node2&#45;&gt;Node7</title>
<path fill="none" stroke="midnightblue" d="M157.874,-95.4762C173.525,-87.169 197.332,-75.1965 219,-67 225.239,-64.6397 231.899,-62.4243 238.518,-60.3989"/>
<polygon fill="midnightblue" stroke="midnightblue" points="239.527,-63.7506 248.134,-57.5725 237.553,-57.0347 239.527,-63.7506"/>
</g>
<!-- Node8 -->
<g id="node8" class="node"><title>Node8</title>
<g id="a_node8"><a xlink:href="class_stack_1_1seq_stack.html#aae3a405f01cc5ba788a111fe15c6f5ed" target="_top" xlink:title=" ">
<polygon fill="white" stroke="black" points="233.5,-0.5 233.5,-19.5 342.5,-19.5 342.5,-0.5 233.5,-0.5"/>
<text text-anchor="middle" x="288" y="-7.5" font-family="Helvetica,sans-Serif" font-size="10.00">Stack::seqStack::top</text>
</a>
</g>
</g>
<!-- Node2&#45;&gt;Node8 -->
<g id="edge7" class="edge"><title>Node2&#45;&gt;Node8</title>
<path fill="none" stroke="midnightblue" d="M147.828,-95.2597C160.527,-79.0676 188.231,-46.6514 219,-29 222.873,-26.7784 227.02,-24.8044 231.285,-23.0525"/>
<polygon fill="midnightblue" stroke="midnightblue" points="232.578,-26.3059 240.749,-19.562 230.156,-19.7383 232.578,-26.3059"/>
</g>
</g>
</svg>
