<?xml version="1.0" encoding="UTF-8" standalone="no"?>
<!DOCTYPE svg PUBLIC "-//W3C//DTD SVG 1.1//EN"
 "http://www.w3.org/Graphics/SVG/1.1/DTD/svg11.dtd">
<!-- Generated by graphviz version 2.38.0 (20140413.2041)
 -->
<!-- Title: main Pages: 1 -->
<!--zoomable 294 -->
<svg id="main" version="1.1" xmlns="http://www.w3.org/2000/svg" xmlns:xlink="http://www.w3.org/1999/xlink" xml:space="preserve" onload="init(evt)">
<style type="text/css"><![CDATA[
.edge:hover path { stroke: red; }
.edge:hover polygon { stroke: red; fill: red; }
]]></style>
<script type="text/javascript"><![CDATA[
var edges = document.getElementsByTagName('g');
if (edges && edges.length) {
  for (var i=0;i<edges.length;i++) {
    if (edges[i].id.substr(0,4)=='edge') {
      edges[i].setAttribute('class','edge');
    }
  }
}
]]></script>
        <defs>
                <circle id="rim" cx="0" cy="0" r="7"/>
                <circle id="rim2" cx="0" cy="0" r="3.5"/>
                <g id="zoomPlus">
                        <use xlink:href="#rim" fill="#404040">
                                <set attributeName="fill" to="#808080" begin="zoomplus.mouseover" end="zoomplus.mouseout"/>
                        </use>
                        <path d="M-4,0h8M0,-4v8" fill="none" stroke="white" stroke-width="1.5" pointer-events="none"/>
                </g>
                <g id="zoomMin">
                        <use xlink:href="#rim" fill="#404040">
                                <set attributeName="fill" to="#808080" begin="zoomminus.mouseover" end="zoomminus.mouseout"/>
                        </use>
                        <path d="M-4,0h8" fill="none" stroke="white" stroke-width="1.5" pointer-events="none"/>
                </g>
                <g id="dirArrow">
                        <path fill="none" stroke="white" stroke-width="1.5" d="M0,-3.0v7 M-2.5,-0.5L0,-3.0L2.5,-0.5"/>
                </g>
               <g id="resetDef">
                       <use xlink:href="#rim2" fill="#404040">
                               <set attributeName="fill" to="#808080" begin="reset.mouseover" end="reset.mouseout"/>
                       </use>
               </g>
        </defs>

<script type="text/javascript">
var viewWidth = 678;
var viewHeight = 294;
var sectionId = 'dynsection-1';
</script>
<script xlink:href="svgpan.js"/>
<svg id="graph" class="graph">
<g id="viewport">
<title>main</title>
<polygon fill="white" stroke="none" points="-4,4 -4,-290 674,-290 674,4 -4,4"/>
<!-- Node1 -->
<g id="node1" class="node"><title>Node1</title>
<g id="a_node1"><a xlink:title=" ">
<polygon fill="#bfbfbf" stroke="black" points="0,-76.5 0,-95.5 38,-95.5 38,-76.5 0,-76.5"/>
<text text-anchor="middle" x="19" y="-83.5" font-family="Helvetica,sans-Serif" font-size="10.00">main</text>
</a>
</g>
</g>
<!-- Node2 -->
<g id="node2" class="node"><title>Node2</title>
<g id="a_node2"><a xlink:href="namespacech3__3.html#a2e6617e99689d9f762dc193ecf3fcda2" target="_top" xlink:title=" ">
<polygon fill="white" stroke="black" points="74,-152.5 74,-171.5 181,-171.5 181,-152.5 74,-152.5"/>
<text text-anchor="middle" x="127.5" y="-159.5" font-family="Helvetica,sans-Serif" font-size="10.00">ch3_3::permute_loop</text>
</a>
</g>
</g>
<!-- Node1&#45;&gt;Node2 -->
<g id="edge1" class="edge"><title>Node1&#45;&gt;Node2</title>
<path fill="none" stroke="midnightblue" d="M33.4883,-95.6255C51.4934,-108.474 83.5891,-131.378 104.962,-146.63"/>
<polygon fill="midnightblue" stroke="midnightblue" points="102.948,-149.493 113.121,-152.453 107.014,-143.795 102.948,-149.493"/>
</g>
<!-- Node9 -->
<g id="node9" class="node"><title>Node9</title>
<g id="a_node9"><a xlink:href="namespacech3__3.html#a43955fc712564f9a0e0b88ef806846be" target="_top" xlink:title=" ">
<polygon fill="white" stroke="black" points="76,-76.5 76,-95.5 179,-95.5 179,-76.5 76,-76.5"/>
<text text-anchor="middle" x="127.5" y="-83.5" font-family="Helvetica,sans-Serif" font-size="10.00">ch3_3::permute_rec</text>
</a>
</g>
</g>
<!-- Node1&#45;&gt;Node9 -->
<g id="edge8" class="edge"><title>Node1&#45;&gt;Node9</title>
<path fill="none" stroke="midnightblue" d="M38.0663,-86C45.8999,-86 55.5722,-86 65.6146,-86"/>
<polygon fill="midnightblue" stroke="midnightblue" points="65.7258,-89.5001 75.7258,-86 65.7258,-82.5001 65.7258,-89.5001"/>
</g>
<!-- Node11 -->
<g id="node11" class="node"><title>Node11</title>
<g id="a_node11"><a xlink:href="namespacech3__3.html#abed7d842eef9919613afe146aa2c5f56" target="_top" xlink:title=" ">
<polygon fill="white" stroke="black" points="77.5,-38.5 77.5,-57.5 177.5,-57.5 177.5,-38.5 77.5,-38.5"/>
<text text-anchor="middle" x="127.5" y="-45.5" font-family="Helvetica,sans-Serif" font-size="10.00">ch3_3::permute_stl</text>
</a>
</g>
</g>
<!-- Node1&#45;&gt;Node11 -->
<g id="edge11" class="edge"><title>Node1&#45;&gt;Node11</title>
<path fill="none" stroke="midnightblue" d="M38.0663,-79.5538C52.1553,-74.5268 72.1921,-67.3775 89.6317,-61.1549"/>
<polygon fill="midnightblue" stroke="midnightblue" points="91.293,-64.2783 99.5352,-57.6212 88.9406,-57.6854 91.293,-64.2783"/>
</g>
<!-- Node3 -->
<g id="node3" class="node"><title>Node3</title>
<g id="a_node3"><a xlink:href="namespacech3__3.html#a0458a737a0c683a8a26d8f6423b9e101" target="_top" xlink:title=" ">
<polygon fill="white" stroke="black" points="217,-171.5 217,-190.5 396,-190.5 396,-171.5 217,-171.5"/>
<text text-anchor="middle" x="306.5" y="-178.5" font-family="Helvetica,sans-Serif" font-size="10.00">ch3_3::permuteWithFixedPrefix_Loop</text>
</a>
</g>
</g>
<!-- Node2&#45;&gt;Node3 -->
<g id="edge2" class="edge"><title>Node2&#45;&gt;Node3</title>
<path fill="none" stroke="midnightblue" d="M181.127,-167.649C189.345,-168.531 198.06,-169.467 206.912,-170.417"/>
<polygon fill="midnightblue" stroke="midnightblue" points="206.628,-173.907 216.944,-171.494 207.375,-166.947 206.628,-173.907"/>
</g>
<!-- Node4 -->
<g id="node4" class="node"><title>Node4</title>
<g id="a_node4"><a xlink:href="class_stack_1_1link_stack.html#a81ac09b9fbd4c7b522b4de83e2ce1d00" target="_top" xlink:title=" ">
<polygon fill="white" stroke="black" points="432,-266.5 432,-285.5 563,-285.5 563,-266.5 432,-266.5"/>
<text text-anchor="middle" x="497.5" y="-273.5" font-family="Helvetica,sans-Serif" font-size="10.00">Stack::linkStack::isEmpty</text>
</a>
</g>
</g>
<!-- Node3&#45;&gt;Node4 -->
<g id="edge3" class="edge"><title>Node3&#45;&gt;Node4</title>
<path fill="none" stroke="midnightblue" d="M320.677,-190.658C342.729,-206.441 388.939,-237.911 432,-257 437.136,-259.277 442.62,-261.369 448.141,-263.266"/>
<polygon fill="midnightblue" stroke="midnightblue" points="447.457,-266.723 458.048,-266.466 449.608,-260.061 447.457,-266.723"/>
</g>
<!-- Node5 -->
<g id="node5" class="node"><title>Node5</title>
<g id="a_node5"><a xlink:href="class_stack_1_1link_stack.html#a79e4a90c4530c70eaea1d37c139fc620" target="_top" xlink:title=" ">
<polygon fill="white" stroke="black" points="442.5,-228.5 442.5,-247.5 552.5,-247.5 552.5,-228.5 442.5,-228.5"/>
<text text-anchor="middle" x="497.5" y="-235.5" font-family="Helvetica,sans-Serif" font-size="10.00">Stack::linkStack::pop</text>
</a>
</g>
</g>
<!-- Node3&#45;&gt;Node5 -->
<g id="edge4" class="edge"><title>Node3&#45;&gt;Node5</title>
<path fill="none" stroke="midnightblue" d="M338.429,-190.532C363.605,-198.269 400.071,-209.425 432,-219 439.231,-221.168 446.924,-223.454 454.384,-225.658"/>
<polygon fill="midnightblue" stroke="midnightblue" points="453.418,-229.022 464,-228.493 455.398,-222.308 453.418,-229.022"/>
</g>
<!-- Node6 -->
<g id="node6" class="node"><title>Node6</title>
<g id="a_node6"><a xlink:href="class_stack_1_1link_stack.html#a3425bfbff5c6945af2dd9683405a0e0b" target="_top" xlink:title=" ">
<polygon fill="white" stroke="black" points="439.5,-190.5 439.5,-209.5 555.5,-209.5 555.5,-190.5 439.5,-190.5"/>
<text text-anchor="middle" x="497.5" y="-197.5" font-family="Helvetica,sans-Serif" font-size="10.00">Stack::linkStack::push</text>
</a>
</g>
</g>
<!-- Node3&#45;&gt;Node6 -->
<g id="edge5" class="edge"><title>Node3&#45;&gt;Node6</title>
<path fill="none" stroke="midnightblue" d="M396.189,-189.916C407.309,-191.034 418.537,-192.162 429.254,-193.24"/>
<polygon fill="midnightblue" stroke="midnightblue" points="429.052,-196.737 439.352,-194.255 429.752,-189.772 429.052,-196.737"/>
</g>
<!-- Node7 -->
<g id="node7" class="node"><title>Node7</title>
<g id="a_node7"><a xlink:href="namespacech3__3.html#a13d462b8e9446c367d8b0fad0fea496e" target="_top" xlink:title=" ">
<polygon fill="white" stroke="black" points="599,-57.5 599,-76.5 670,-76.5 670,-57.5 599,-57.5"/>
<text text-anchor="middle" x="634.5" y="-64.5" font-family="Helvetica,sans-Serif" font-size="10.00">ch3_3::swap</text>
</a>
</g>
</g>
<!-- Node3&#45;&gt;Node7 -->
<g id="edge6" class="edge"><title>Node3&#45;&gt;Node7</title>
<path fill="none" stroke="midnightblue" d="M396.271,-182.131C447.601,-179.387 511.928,-169.933 563,-143 588.621,-129.489 609.892,-102.927 622.156,-85.0646"/>
<polygon fill="midnightblue" stroke="midnightblue" points="625.134,-86.9056 627.723,-76.6319 619.293,-83.0488 625.134,-86.9056"/>
</g>
<!-- Node8 -->
<g id="node8" class="node"><title>Node8</title>
<g id="a_node8"><a xlink:href="class_stack_1_1link_stack.html#a5c7f1f07843fa15b71a1033ca309fa2e" target="_top" xlink:title=" ">
<polygon fill="white" stroke="black" points="443.5,-114.5 443.5,-133.5 551.5,-133.5 551.5,-114.5 443.5,-114.5"/>
<text text-anchor="middle" x="497.5" y="-121.5" font-family="Helvetica,sans-Serif" font-size="10.00">Stack::linkStack::top</text>
</a>
</g>
</g>
<!-- Node3&#45;&gt;Node8 -->
<g id="edge7" class="edge"><title>Node3&#45;&gt;Node8</title>
<path fill="none" stroke="midnightblue" d="M339.134,-171.459C370.888,-161.883 419.973,-147.079 454.873,-136.554"/>
<polygon fill="midnightblue" stroke="midnightblue" points="456.199,-139.81 464.762,-133.572 454.178,-133.108 456.199,-139.81"/>
</g>
<!-- Node10 -->
<g id="node10" class="node"><title>Node10</title>
<g id="a_node10"><a xlink:href="namespacech3__3.html#a56e0c24b8b5c8103503ecc9a019cf12d" target="_top" xlink:title=" ">
<polygon fill="white" stroke="black" points="230,-76.5 230,-95.5 383,-95.5 383,-76.5 230,-76.5"/>
<text text-anchor="middle" x="306.5" y="-83.5" font-family="Helvetica,sans-Serif" font-size="10.00">ch3_3::permuteWithFixedPrefix</text>
</a>
</g>
</g>
<!-- Node9&#45;&gt;Node10 -->
<g id="edge9" class="edge"><title>Node9&#45;&gt;Node10</title>
<path fill="none" stroke="midnightblue" d="M179.221,-86C191.88,-86 205.809,-86 219.651,-86"/>
<polygon fill="midnightblue" stroke="midnightblue" points="219.696,-89.5001 229.696,-86 219.696,-82.5001 219.696,-89.5001"/>
</g>
<!-- Node10&#45;&gt;Node7 -->
<g id="edge10" class="edge"><title>Node10&#45;&gt;Node7</title>
<path fill="none" stroke="midnightblue" d="M383.11,-81.5933C446.768,-77.8831 535.673,-72.7016 588.633,-69.6149"/>
<polygon fill="midnightblue" stroke="midnightblue" points="588.949,-73.1026 598.728,-69.0266 588.541,-66.1144 588.949,-73.1026"/>
</g>
<!-- Node12 -->
<g id="node12" class="node"><title>Node12</title>
<g id="a_node12"><a xlink:href="namespacech3__3.html#abbf4d2e48f6886a82d3735dd968b0e2e" target="_top" xlink:title=" ">
<polygon fill="white" stroke="black" points="259,-38.5 259,-57.5 354,-57.5 354,-38.5 259,-38.5"/>
<text text-anchor="middle" x="306.5" y="-45.5" font-family="Helvetica,sans-Serif" font-size="10.00">ch3_3::next_perm</text>
</a>
</g>
</g>
<!-- Node11&#45;&gt;Node12 -->
<g id="edge12" class="edge"><title>Node11&#45;&gt;Node12</title>
<path fill="none" stroke="midnightblue" d="M177.804,-48C199.803,-48 225.851,-48 248.666,-48"/>
<polygon fill="midnightblue" stroke="midnightblue" points="248.894,-51.5001 258.894,-48 248.894,-44.5001 248.894,-51.5001"/>
</g>
<!-- Node12&#45;&gt;Node7 -->
<g id="edge15" class="edge"><title>Node12&#45;&gt;Node7</title>
<path fill="none" stroke="midnightblue" d="M354.208,-50.7222C416.786,-54.3694 527.079,-60.7975 588.68,-64.3878"/>
<polygon fill="midnightblue" stroke="midnightblue" points="588.676,-67.8934 598.863,-64.9813 589.084,-60.9053 588.676,-67.8934"/>
</g>
<!-- Node13 -->
<g id="node13" class="node"><title>Node13</title>
<g id="a_node13"><a xlink:href="namespacech3__3.html#a1f0a8d6a2a47b55f90cd65ea1680973a" target="_top" xlink:title=" ">
<polygon fill="white" stroke="black" points="457.5,-0.5 457.5,-19.5 537.5,-19.5 537.5,-0.5 457.5,-0.5"/>
<text text-anchor="middle" x="497.5" y="-7.5" font-family="Helvetica,sans-Serif" font-size="10.00">ch3_3::reverse</text>
</a>
</g>
</g>
<!-- Node12&#45;&gt;Node13 -->
<g id="edge13" class="edge"><title>Node12&#45;&gt;Node13</title>
<path fill="none" stroke="midnightblue" d="M354.219,-38.6067C382.576,-32.9053 418.724,-25.6376 447.487,-19.8544"/>
<polygon fill="midnightblue" stroke="midnightblue" points="448.214,-23.2783 457.328,-17.8758 446.835,-16.4157 448.214,-23.2783"/>
</g>
<!-- Node13&#45;&gt;Node7 -->
<g id="edge14" class="edge"><title>Node13&#45;&gt;Node7</title>
<path fill="none" stroke="midnightblue" d="M525.681,-19.5559C537.266,-23.7725 550.879,-28.9182 563,-34 577.003,-39.8712 592.295,-46.9456 605.047,-53.036"/>
<polygon fill="midnightblue" stroke="midnightblue" points="603.712,-56.2778 614.24,-57.4654 606.751,-49.9716 603.712,-56.2778"/>
</g>
</g>
</svg>
        <g id="navigator" transform="translate(0 0)" fill="#404254">
                <rect fill="#f2f5e9" fill-opacity="0.5" stroke="#606060" stroke-width=".5" x="0" y="0" width="60" height="60"/>
                <use id="zoomplus" xlink:href="#zoomPlus" x="17" y="9" onmousedown="handleZoom(evt,'in')"/>
                <use id="zoomminus" xlink:href="#zoomMin" x="42" y="9" onmousedown="handleZoom(evt,'out')"/>
                <use id="reset" xlink:href="#resetDef" x="30" y="36" onmousedown="handleReset()"/>
                <g id="arrowUp" xlink:href="#dirArrow" transform="translate(30 24)" onmousedown="handlePan(0,-1)">
                  <use xlink:href="#rim" fill="#404040">
                        <set attributeName="fill" to="#808080" begin="arrowUp.mouseover" end="arrowUp.mouseout"/>
                  </use>
                  <path fill="none" stroke="white" stroke-width="1.5" d="M0,-3.0v7 M-2.5,-0.5L0,-3.0L2.5,-0.5"/>
                </g>
                <g id="arrowRight" xlink:href="#dirArrow" transform="rotate(90) translate(36 -43)" onmousedown="handlePan(1,0)">
                  <use xlink:href="#rim" fill="#404040">
                        <set attributeName="fill" to="#808080" begin="arrowRight.mouseover" end="arrowRight.mouseout"/>
                  </use>
                  <path fill="none" stroke="white" stroke-width="1.5" d="M0,-3.0v7 M-2.5,-0.5L0,-3.0L2.5,-0.5"/>
                </g>
                <g id="arrowDown" xlink:href="#dirArrow" transform="rotate(180) translate(-30 -48)" onmousedown="handlePan(0,1)">
                  <use xlink:href="#rim" fill="#404040">
                        <set attributeName="fill" to="#808080" begin="arrowDown.mouseover" end="arrowDown.mouseout"/>
                  </use>
                  <path fill="none" stroke="white" stroke-width="1.5" d="M0,-3.0v7 M-2.5,-0.5L0,-3.0L2.5,-0.5"/>
                </g>
                <g id="arrowLeft" xlink:href="#dirArrow" transform="rotate(270) translate(-36 17)" onmousedown="handlePan(-1,0)">
                  <use xlink:href="#rim" fill="#404040">
                        <set attributeName="fill" to="#808080" begin="arrowLeft.mouseover" end="arrowLeft.mouseout"/>
                  </use>
                  <path fill="none" stroke="white" stroke-width="1.5" d="M0,-3.0v7 M-2.5,-0.5L0,-3.0L2.5,-0.5"/>
                </g>
        </g>
        <svg viewBox="0 0 15 15" width="100%" height="30px" preserveAspectRatio="xMaxYMin meet">
         <g id="arrow_out" transform="scale(0.3 0.3)">
          <a xlink:href="ch3__3_8cc_abf9e6b7e6f15df4b525a2e7705ba3089_cgraph_org.svg" target="_base">
           <rect id="button" ry="5" rx="5" y="6" x="6" height="38" width="38"
                fill="#f2f5e9" fill-opacity="0.5" stroke="#606060" stroke-width="1.0"/>
           <path id="arrow"
             d="M 11.500037,31.436501 C 11.940474,20.09759 22.043105,11.32322 32.158766,21.979434 L 37.068811,17.246167 C 37.068811,17.246167 37.088388,32 37.088388,32 L 22.160133,31.978069 C 22.160133,31.978069 26.997745,27.140456 26.997745,27.140456 C 18.528582,18.264221 13.291696,25.230495 11.500037,31.436501 z"
             style="fill:#404040;"/>
          </a>
         </g>
        </svg>
</svg>
