<?xml version="1.0" encoding="UTF-8" standalone="no"?>
<!DOCTYPE svg PUBLIC "-//W3C//DTD SVG 1.1//EN"
 "http://www.w3.org/Graphics/SVG/1.1/DTD/svg11.dtd">
<!-- Generated by graphviz version 2.38.0 (20140413.2041)
 -->
<!-- Title: Stack::seqStack::pop Pages: 1 -->
<svg width="467pt" height="66pt"
 viewBox="0.00 0.00 467.00 66.00" xmlns="http://www.w3.org/2000/svg" xmlns:xlink="http://www.w3.org/1999/xlink">
<g id="graph0" class="graph" transform="scale(1 1) rotate(0) translate(4 62)">
<title>Stack::seqStack::pop</title>
<polygon fill="white" stroke="none" points="-4,4 -4,-62 463,-62 463,4 -4,4"/>
<!-- Node1 -->
<g id="node1" class="node"><title>Node1</title>
<g id="a_node1"><a xlink:title=" ">
<polygon fill="#bfbfbf" stroke="black" points="348,-19.5 348,-38.5 459,-38.5 459,-19.5 348,-19.5"/>
<text text-anchor="middle" x="403.5" y="-26.5" font-family="Helvetica,sans-Serif" font-size="10.00">Stack::seqStack::pop</text>
</a>
</g>
</g>
<!-- Node2 -->
<g id="node2" class="node"><title>Node2</title>
<g id="a_node2"><a xlink:href="_ackermann_8hh.html#a09828dd70ee57ea0c5d9832aded20690" target="_top" xlink:title=" ">
<polygon fill="white" stroke="black" points="215,-38.5 215,-57.5 302,-57.5 302,-38.5 215,-38.5"/>
<text text-anchor="middle" x="258.5" y="-45.5" font-family="Helvetica,sans-Serif" font-size="10.00">AckermannLoop</text>
</a>
</g>
</g>
<!-- Node1&#45;&gt;Node2 -->
<g id="edge1" class="edge"><title>Node1&#45;&gt;Node2</title>
<path fill="none" stroke="midnightblue" d="M337.577,-37.6261C325.513,-39.2291 313.196,-40.8655 302.018,-42.3508"/>
<polygon fill="midnightblue" stroke="midnightblue" points="338.17,-41.0782 347.621,-36.2916 337.248,-34.1392 338.17,-41.0782"/>
</g>
<!-- Node5 -->
<g id="node5" class="node"><title>Node5</title>
<g id="a_node5"><a xlink:href="class_r_p_n_1_1_rpn__t.html#a760c2a7b4a404cfe61345e06110c40ff" target="_top" xlink:title="计算(后缀)表达式的值">
<polygon fill="white" stroke="black" points="205,-0.5 205,-19.5 312,-19.5 312,-0.5 205,-0.5"/>
<text text-anchor="middle" x="258.5" y="-7.5" font-family="Helvetica,sans-Serif" font-size="10.00">RPN::Rpn_t::calcVal</text>
</a>
</g>
</g>
<!-- Node1&#45;&gt;Node5 -->
<g id="edge4" class="edge"><title>Node1&#45;&gt;Node5</title>
<path fill="none" stroke="midnightblue" d="M337.667,-20.3859C329.113,-19.2492 320.429,-18.0955 312.113,-16.9906"/>
<polygon fill="midnightblue" stroke="midnightblue" points="337.248,-23.8608 347.621,-21.7084 338.17,-16.9218 337.248,-23.8608"/>
</g>
<!-- Node3 -->
<g id="node3" class="node"><title>Node3</title>
<g id="a_node3"><a xlink:href="class_akm__t.html#acce004321aba1561adc7622c3e9f9e72" target="_top" xlink:title=" ">
<polygon fill="white" stroke="black" points="74,-38.5 74,-57.5 169,-57.5 169,-38.5 74,-38.5"/>
<text text-anchor="middle" x="121.5" y="-45.5" font-family="Helvetica,sans-Serif" font-size="10.00">Akm_t::Akm_loop</text>
</a>
</g>
</g>
<!-- Node2&#45;&gt;Node3 -->
<g id="edge2" class="edge"><title>Node2&#45;&gt;Node3</title>
<path fill="none" stroke="midnightblue" d="M204.679,-48C192.953,-48 180.606,-48 169.148,-48"/>
<polygon fill="midnightblue" stroke="midnightblue" points="204.785,-51.5001 214.785,-48 204.785,-44.5001 204.785,-51.5001"/>
</g>
<!-- Node4 -->
<g id="node4" class="node"><title>Node4</title>
<g id="a_node4"><a xlink:href="ch3__7_8cc.html#abf9e6b7e6f15df4b525a2e7705ba3089" target="_top" xlink:title=" ">
<polygon fill="white" stroke="black" points="0,-38.5 0,-57.5 38,-57.5 38,-38.5 0,-38.5"/>
<text text-anchor="middle" x="19" y="-45.5" font-family="Helvetica,sans-Serif" font-size="10.00">main</text>
</a>
</g>
</g>
<!-- Node3&#45;&gt;Node4 -->
<g id="edge3" class="edge"><title>Node3&#45;&gt;Node4</title>
<path fill="none" stroke="midnightblue" d="M63.6477,-48C54.3637,-48 45.3856,-48 38.0109,-48"/>
<polygon fill="midnightblue" stroke="midnightblue" points="63.7806,-51.5001 73.7806,-48 63.7806,-44.5001 63.7806,-51.5001"/>
</g>
<!-- Node6 -->
<g id="node6" class="node"><title>Node6</title>
<g id="a_node6"><a xlink:href="ch3__5_8cc.html#abf9e6b7e6f15df4b525a2e7705ba3089" target="_top" xlink:title=" ">
<polygon fill="white" stroke="black" points="102.5,-0.5 102.5,-19.5 140.5,-19.5 140.5,-0.5 102.5,-0.5"/>
<text text-anchor="middle" x="121.5" y="-7.5" font-family="Helvetica,sans-Serif" font-size="10.00">main</text>
</a>
</g>
</g>
<!-- Node5&#45;&gt;Node6 -->
<g id="edge5" class="edge"><title>Node5&#45;&gt;Node6</title>
<path fill="none" stroke="midnightblue" d="M194.71,-10C175.027,-10 154.806,-10 140.788,-10"/>
<polygon fill="midnightblue" stroke="midnightblue" points="194.919,-13.5001 204.919,-10 194.919,-6.5001 194.919,-13.5001"/>
</g>
</g>
</svg>
