<?xml version="1.0" encoding="UTF-8" standalone="no"?>
<!DOCTYPE svg PUBLIC "-//W3C//DTD SVG 1.1//EN"
 "http://www.w3.org/Graphics/SVG/1.1/DTD/svg11.dtd">
<!-- Generated by graphviz version 2.38.0 (20140413.2041)
 -->
<!-- Title: Stack::linkStack::pop Pages: 1 -->
<svg width="550pt" height="104pt"
 viewBox="0.00 0.00 550.00 104.00" xmlns="http://www.w3.org/2000/svg" xmlns:xlink="http://www.w3.org/1999/xlink">
<g id="graph0" class="graph" transform="scale(1 1) rotate(0) translate(4 100)">
<title>Stack::linkStack::pop</title>
<polygon fill="white" stroke="none" points="-4,4 -4,-100 546,-100 546,4 -4,4"/>
<!-- Node1 -->
<g id="node1" class="node"><title>Node1</title>
<g id="a_node1"><a xlink:title=" ">
<polygon fill="#bfbfbf" stroke="black" points="432,-19.5 432,-38.5 542,-38.5 542,-19.5 432,-19.5"/>
<text text-anchor="middle" x="487" y="-26.5" font-family="Helvetica,sans-Serif" font-size="10.00">Stack::linkStack::pop</text>
</a>
</g>
</g>
<!-- Node2 -->
<g id="node2" class="node"><title>Node2</title>
<g id="a_node2"><a xlink:href="class_r_p_n_1_1_rpn__t.html#a8dd551d02431c034e10f256ff384c39f" target="_top" xlink:title="用一个中缀list创建一个后缀list">
<polygon fill="white" stroke="black" points="224.5,-38.5 224.5,-57.5 388.5,-57.5 388.5,-38.5 224.5,-38.5"/>
<text text-anchor="middle" x="306.5" y="-45.5" font-family="Helvetica,sans-Serif" font-size="10.00">RPN::Rpn_t::infixListToPostfixList</text>
</a>
</g>
</g>
<!-- Node1&#45;&gt;Node2 -->
<g id="edge1" class="edge"><title>Node1&#45;&gt;Node2</title>
<path fill="none" stroke="midnightblue" d="M421.837,-35.8297C411.085,-36.9741 399.806,-38.1747 388.694,-39.3575"/>
<polygon fill="midnightblue" stroke="midnightblue" points="422.386,-39.2911 431.96,-34.7522 421.645,-32.3304 422.386,-39.2911"/>
</g>
<!-- Node6 -->
<g id="node6" class="node"><title>Node6</title>
<g id="a_node6"><a xlink:href="namespacech3__3.html#a0458a737a0c683a8a26d8f6423b9e101" target="_top" xlink:title=" ">
<polygon fill="white" stroke="black" points="217,-0.5 217,-19.5 396,-19.5 396,-0.5 217,-0.5"/>
<text text-anchor="middle" x="306.5" y="-7.5" font-family="Helvetica,sans-Serif" font-size="10.00">ch3_3::permuteWithFixedPrefix_Loop</text>
</a>
</g>
</g>
<!-- Node1&#45;&gt;Node6 -->
<g id="edge5" class="edge"><title>Node1&#45;&gt;Node6</title>
<path fill="none" stroke="midnightblue" d="M421.969,-22.1844C413.631,-21.2968 404.972,-20.3752 396.319,-19.4541"/>
<polygon fill="midnightblue" stroke="midnightblue" points="421.645,-25.6696 431.96,-23.2478 422.386,-18.7089 421.645,-25.6696"/>
</g>
<!-- Node3 -->
<g id="node3" class="node"><title>Node3</title>
<g id="a_node3"><a xlink:href="class_r_p_n_1_1_rpn__t.html#a13f84208d6722039432be70b4bffee8c" target="_top" xlink:title="设置Rpn_t类对象的值">
<polygon fill="white" stroke="black" points="76,-76.5 76,-95.5 179,-95.5 179,-76.5 76,-76.5"/>
<text text-anchor="middle" x="127.5" y="-83.5" font-family="Helvetica,sans-Serif" font-size="10.00">RPN::Rpn_t::assign</text>
</a>
</g>
</g>
<!-- Node2&#45;&gt;Node3 -->
<g id="edge2" class="edge"><title>Node2&#45;&gt;Node3</title>
<path fill="none" stroke="midnightblue" d="M250.758,-59.7526C225.73,-65.1258 196.465,-71.4086 172.843,-76.4799"/>
<polygon fill="midnightblue" stroke="midnightblue" points="251.793,-63.1102 260.835,-57.589 250.324,-56.2661 251.793,-63.1102"/>
</g>
<!-- Node5 -->
<g id="node5" class="node"><title>Node5</title>
<g id="a_node5"><a xlink:href="class_r_p_n_1_1_rpn__t.html#a2328e43bfa616ee63c9bf475188ca511" target="_top" xlink:title="Construct a new Rpn_t object.">
<polygon fill="white" stroke="black" points="77.5,-38.5 77.5,-57.5 177.5,-57.5 177.5,-38.5 77.5,-38.5"/>
<text text-anchor="middle" x="127.5" y="-45.5" font-family="Helvetica,sans-Serif" font-size="10.00">RPN::Rpn_t::Rpn_t</text>
</a>
</g>
</g>
<!-- Node2&#45;&gt;Node5 -->
<g id="edge4" class="edge"><title>Node2&#45;&gt;Node5</title>
<path fill="none" stroke="midnightblue" d="M214.223,-48C201.714,-48 189.279,-48 177.918,-48"/>
<polygon fill="midnightblue" stroke="midnightblue" points="214.253,-51.5001 224.253,-48 214.252,-44.5001 214.253,-51.5001"/>
</g>
<!-- Node4 -->
<g id="node4" class="node"><title>Node4</title>
<g id="a_node4"><a xlink:href="ch3__5_8cc.html#abf9e6b7e6f15df4b525a2e7705ba3089" target="_top" xlink:title=" ">
<polygon fill="white" stroke="black" points="0,-76.5 0,-95.5 38,-95.5 38,-76.5 0,-76.5"/>
<text text-anchor="middle" x="19" y="-83.5" font-family="Helvetica,sans-Serif" font-size="10.00">main</text>
</a>
</g>
</g>
<!-- Node3&#45;&gt;Node4 -->
<g id="edge3" class="edge"><title>Node3&#45;&gt;Node4</title>
<path fill="none" stroke="midnightblue" d="M65.6339,-86C55.5911,-86 45.9173,-86 38.0813,-86"/>
<polygon fill="midnightblue" stroke="midnightblue" points="65.7453,-89.5001 75.7453,-86 65.7452,-82.5001 65.7453,-89.5001"/>
</g>
<!-- Node7 -->
<g id="node7" class="node"><title>Node7</title>
<g id="a_node7"><a xlink:href="namespacech3__3.html#a2e6617e99689d9f762dc193ecf3fcda2" target="_top" xlink:title=" ">
<polygon fill="white" stroke="black" points="74,-0.5 74,-19.5 181,-19.5 181,-0.5 74,-0.5"/>
<text text-anchor="middle" x="127.5" y="-7.5" font-family="Helvetica,sans-Serif" font-size="10.00">ch3_3::permute_loop</text>
</a>
</g>
</g>
<!-- Node6&#45;&gt;Node7 -->
<g id="edge6" class="edge"><title>Node6&#45;&gt;Node7</title>
<path fill="none" stroke="midnightblue" d="M206.573,-10C197.947,-10 189.456,-10 181.432,-10"/>
<polygon fill="midnightblue" stroke="midnightblue" points="206.741,-13.5001 216.741,-10 206.741,-6.5001 206.741,-13.5001"/>
</g>
<!-- Node8 -->
<g id="node8" class="node"><title>Node8</title>
<g id="a_node8"><a xlink:href="ch3__3_8cc.html#abf9e6b7e6f15df4b525a2e7705ba3089" target="_top" xlink:title=" ">
<polygon fill="white" stroke="black" points="0,-0.5 0,-19.5 38,-19.5 38,-0.5 0,-0.5"/>
<text text-anchor="middle" x="19" y="-7.5" font-family="Helvetica,sans-Serif" font-size="10.00">main</text>
</a>
</g>
</g>
<!-- Node7&#45;&gt;Node8 -->
<g id="edge7" class="edge"><title>Node7&#45;&gt;Node8</title>
<path fill="none" stroke="midnightblue" d="M63.7296,-10C54.4734,-10 45.6139,-10 38.3194,-10"/>
<polygon fill="midnightblue" stroke="midnightblue" points="63.874,-13.5001 73.874,-10 63.874,-6.5001 63.874,-13.5001"/>
</g>
</g>
</svg>
