<?xml version="1.0" encoding="UTF-8" standalone="no"?>
<!DOCTYPE svg PUBLIC "-//W3C//DTD SVG 1.1//EN"
 "http://www.w3.org/Graphics/SVG/1.1/DTD/svg11.dtd">
<!-- Generated by graphviz version 2.38.0 (20140413.2041)
 -->
<!-- Title: Stack::seqStack::push Pages: 1 -->
<svg width="437pt" height="66pt"
 viewBox="0.00 0.00 437.00 66.00" xmlns="http://www.w3.org/2000/svg" xmlns:xlink="http://www.w3.org/1999/xlink">
<g id="graph0" class="graph" transform="scale(1 1) rotate(0) translate(4 62)">
<title>Stack::seqStack::push</title>
<polygon fill="white" stroke="none" points="-4,4 -4,-62 433,-62 433,4 -4,4"/>
<!-- Node1 -->
<g id="node1" class="node"><title>Node1</title>
<g id="a_node1"><a xlink:title=" ">
<polygon fill="#bfbfbf" stroke="black" points="313,-19.5 313,-38.5 429,-38.5 429,-19.5 313,-19.5"/>
<text text-anchor="middle" x="371" y="-26.5" font-family="Helvetica,sans-Serif" font-size="10.00">Stack::seqStack::push</text>
</a>
</g>
</g>
<!-- Node2 -->
<g id="node2" class="node"><title>Node2</title>
<g id="a_node2"><a xlink:href="_ackermann_8hh.html#a09828dd70ee57ea0c5d9832aded20690" target="_top" xlink:title=" ">
<polygon fill="white" stroke="black" points="180,-38.5 180,-57.5 267,-57.5 267,-38.5 180,-38.5"/>
<text text-anchor="middle" x="223.5" y="-45.5" font-family="Helvetica,sans-Serif" font-size="10.00">AckermannLoop</text>
</a>
</g>
</g>
<!-- Node1&#45;&gt;Node2 -->
<g id="edge1" class="edge"><title>Node1&#45;&gt;Node2</title>
<path fill="none" stroke="midnightblue" d="M302.772,-37.7789C290.606,-39.3676 278.233,-40.9833 267.025,-42.4469"/>
<polygon fill="midnightblue" stroke="midnightblue" points="303.45,-41.2202 312.912,-36.4548 302.543,-34.2792 303.45,-41.2202"/>
</g>
<!-- Node5 -->
<g id="node5" class="node"><title>Node5</title>
<g id="a_node5"><a xlink:href="class_r_p_n_1_1_rpn__t.html#a760c2a7b4a404cfe61345e06110c40ff" target="_top" xlink:title="计算(后缀)表达式的值">
<polygon fill="white" stroke="black" points="170,-0.5 170,-19.5 277,-19.5 277,-0.5 170,-0.5"/>
<text text-anchor="middle" x="223.5" y="-7.5" font-family="Helvetica,sans-Serif" font-size="10.00">RPN::Rpn_t::calcVal</text>
</a>
</g>
</g>
<!-- Node1&#45;&gt;Node5 -->
<g id="edge4" class="edge"><title>Node1&#45;&gt;Node5</title>
<path fill="none" stroke="midnightblue" d="M302.863,-20.233C294.236,-19.1065 285.504,-17.9661 277.154,-16.8758"/>
<polygon fill="midnightblue" stroke="midnightblue" points="302.543,-23.7208 312.912,-21.5452 303.45,-16.7798 302.543,-23.7208"/>
</g>
<!-- Node3 -->
<g id="node3" class="node"><title>Node3</title>
<g id="a_node3"><a xlink:href="ch3__7_8cc.html#a94409377a0d682893262661b427aaa8f" target="_top" xlink:title=" ">
<polygon fill="white" stroke="black" points="74,-38.5 74,-57.5 134,-57.5 134,-38.5 74,-38.5"/>
<text text-anchor="middle" x="104" y="-45.5" font-family="Helvetica,sans-Serif" font-size="10.00">Akm_loop</text>
</a>
</g>
</g>
<!-- Node2&#45;&gt;Node3 -->
<g id="edge2" class="edge"><title>Node2&#45;&gt;Node3</title>
<path fill="none" stroke="midnightblue" d="M169.671,-48C157.524,-48 145.036,-48 134.313,-48"/>
<polygon fill="midnightblue" stroke="midnightblue" points="169.747,-51.5001 179.747,-48 169.747,-44.5001 169.747,-51.5001"/>
</g>
<!-- Node4 -->
<g id="node4" class="node"><title>Node4</title>
<g id="a_node4"><a xlink:href="ch3__7_8cc.html#abf9e6b7e6f15df4b525a2e7705ba3089" target="_top" xlink:title=" ">
<polygon fill="white" stroke="black" points="0,-38.5 0,-57.5 38,-57.5 38,-38.5 0,-38.5"/>
<text text-anchor="middle" x="19" y="-45.5" font-family="Helvetica,sans-Serif" font-size="10.00">main</text>
</a>
</g>
</g>
<!-- Node3&#45;&gt;Node4 -->
<g id="edge3" class="edge"><title>Node3&#45;&gt;Node4</title>
<path fill="none" stroke="midnightblue" d="M63.9038,-48C54.8481,-48 45.6393,-48 38.0098,-48"/>
<polygon fill="midnightblue" stroke="midnightblue" points="63.9707,-51.5001 73.9706,-48 63.9706,-44.5001 63.9707,-51.5001"/>
</g>
<!-- Node6 -->
<g id="node6" class="node"><title>Node6</title>
<g id="a_node6"><a xlink:href="ch3__5_8cc.html#abf9e6b7e6f15df4b525a2e7705ba3089" target="_top" xlink:title=" ">
<polygon fill="white" stroke="black" points="85,-0.5 85,-19.5 123,-19.5 123,-0.5 85,-0.5"/>
<text text-anchor="middle" x="104" y="-7.5" font-family="Helvetica,sans-Serif" font-size="10.00">main</text>
</a>
</g>
</g>
<!-- Node5&#45;&gt;Node6 -->
<g id="edge5" class="edge"><title>Node5&#45;&gt;Node6</title>
<path fill="none" stroke="midnightblue" d="M159.696,-10C146.317,-10 133.219,-10 123.196,-10"/>
<polygon fill="midnightblue" stroke="midnightblue" points="159.936,-13.5001 169.936,-10 159.936,-6.5001 159.936,-13.5001"/>
</g>
</g>
</svg>
