<?xml version="1.0" encoding="UTF-8" standalone="no"?>
<!DOCTYPE svg PUBLIC "-//W3C//DTD SVG 1.1//EN"
 "http://www.w3.org/Graphics/SVG/1.1/DTD/svg11.dtd">
<!-- Generated by graphviz version 2.38.0 (20140413.2041)
 -->
<!-- Title: RPN::Rpn_t Pages: 1 -->
<svg width="253pt" height="262pt"
 viewBox="0.00 0.00 252.50 262.00" xmlns="http://www.w3.org/2000/svg" xmlns:xlink="http://www.w3.org/1999/xlink">
<g id="graph0" class="graph" transform="scale(1 1) rotate(0) translate(4 258)">
<title>RPN::Rpn_t</title>
<polygon fill="white" stroke="none" points="-4,4 -4,-258 248.5,-258 248.5,4 -4,4"/>
<!-- Node1 -->
<g id="node1" class="node"><title>Node1</title>
<g id="a_node1"><a xlink:title=" ">
<polygon fill="#bfbfbf" stroke="black" points="101,-0.5 101,-19.5 169,-19.5 169,-0.5 101,-0.5"/>
<text text-anchor="middle" x="135" y="-7.5" font-family="Helvetica,sans-Serif" font-size="10.00">RPN::Rpn_t</text>
</a>
</g>
</g>
<!-- Node2 -->
<g id="node2" class="node"><title>Node2</title>
<g id="a_node2"><a xlink:href="class_list_1_1d_link_list.html" target="_top" xlink:title=" ">
<polygon fill="white" stroke="black" points="11.5,-67.5 11.5,-97.5 118.5,-97.5 118.5,-67.5 11.5,-67.5"/>
<text text-anchor="start" x="19.5" y="-85.5" font-family="Helvetica,sans-Serif" font-size="10.00">List::dLinkList&lt; RPN</text>
<text text-anchor="middle" x="65" y="-74.5" font-family="Helvetica,sans-Serif" font-size="10.00">::Rpn_t::Item &gt;</text>
</a>
</g>
</g>
<!-- Node2&#45;&gt;Node1 -->
<g id="edge1" class="edge"><title>Node2&#45;&gt;Node1</title>
<path fill="none" stroke="#9a32cd" stroke-dasharray="5,2" d="M86.2116,-60.1369C99.6001,-46.6528 116.193,-29.9417 126.17,-19.8932"/>
<polygon fill="#9a32cd" stroke="#9a32cd" points="83.7278,-57.671 79.1655,-67.2333 88.6951,-62.6031 83.7278,-57.671"/>
<text text-anchor="middle" x="126" y="-41" font-family="Helvetica,sans-Serif" font-size="10.00"> itemList</text>
</g>
<!-- Node3 -->
<g id="node3" class="node"><title>Node3</title>
<g id="a_node3"><a xlink:href="struct_list_1_1d_link_list_1_1node.html" target="_top" xlink:title=" ">
<polygon fill="white" stroke="black" points="0,-156.5 0,-186.5 92,-186.5 92,-156.5 0,-156.5"/>
<text text-anchor="start" x="8" y="-174.5" font-family="Helvetica,sans-Serif" font-size="10.00">List::dLinkList&lt; T</text>
<text text-anchor="middle" x="46" y="-163.5" font-family="Helvetica,sans-Serif" font-size="10.00"> &gt;::node</text>
</a>
</g>
</g>
<!-- Node3&#45;&gt;Node2 -->
<g id="edge2" class="edge"><title>Node3&#45;&gt;Node2</title>
<path fill="none" stroke="#9a32cd" stroke-dasharray="5,2" d="M51.3309,-146.09C54.7481,-130.443 59.0631,-110.685 61.9209,-97.599"/>
<polygon fill="#9a32cd" stroke="#9a32cd" points="47.8518,-145.617 49.1375,-156.134 54.6906,-147.111 47.8518,-145.617"/>
<text text-anchor="middle" x="70.5" y="-130" font-family="Helvetica,sans-Serif" font-size="10.00"> head</text>
<text text-anchor="middle" x="70.5" y="-119" font-family="Helvetica,sans-Serif" font-size="10.00">tail</text>
</g>
<!-- Node3&#45;&gt;Node3 -->
<g id="edge3" class="edge"><title>Node3&#45;&gt;Node3</title>
<path fill="none" stroke="#9a32cd" stroke-dasharray="5,2" d="M102.274,-177.033C107.034,-175.849 110,-174.005 110,-171.5 110,-167.492 102.406,-165.175 92.0242,-164.549"/>
<polygon fill="#9a32cd" stroke="#9a32cd" points="101.45,-173.614 92.0242,-178.451 102.409,-180.548 101.45,-173.614"/>
<text text-anchor="middle" x="120.5" y="-174.5" font-family="Helvetica,sans-Serif" font-size="10.00"> prev</text>
<text text-anchor="middle" x="120.5" y="-163.5" font-family="Helvetica,sans-Serif" font-size="10.00">next</text>
</g>
<!-- Node4 -->
<g id="node4" class="node"><title>Node4</title>
<g id="a_node4"><a xlink:title=" ">
<polygon fill="white" stroke="#bfbfbf" points="31.5,-234.5 31.5,-253.5 60.5,-253.5 60.5,-234.5 31.5,-234.5"/>
<text text-anchor="middle" x="46" y="-241.5" font-family="Helvetica,sans-Serif" font-size="10.00">T</text>
</a>
</g>
</g>
<!-- Node4&#45;&gt;Node3 -->
<g id="edge4" class="edge"><title>Node4&#45;&gt;Node3</title>
<path fill="none" stroke="#9a32cd" stroke-dasharray="5,2" d="M46,-224.236C46,-212.408 46,-197.383 46,-186.576"/>
<polygon fill="#9a32cd" stroke="#9a32cd" points="42.5001,-224.355 46,-234.355 49.5001,-224.355 42.5001,-224.355"/>
<text text-anchor="middle" x="57" y="-208" font-family="Helvetica,sans-Serif" font-size="10.00"> data</text>
</g>
<!-- Node5 -->
<g id="node5" class="node"><title>Node5</title>
<g id="a_node5"><a xlink:title="STL class.">
<polygon fill="white" stroke="#bfbfbf" points="161,-73 161,-92 221,-92 221,-73 161,-73"/>
<text text-anchor="middle" x="191" y="-80" font-family="Helvetica,sans-Serif" font-size="10.00">std::string</text>
</a>
</g>
</g>
<!-- Node5&#45;&gt;Node1 -->
<g id="edge5" class="edge"><title>Node5&#45;&gt;Node1</title>
<path fill="none" stroke="#9a32cd" stroke-dasharray="5,2" d="M177.812,-64.8971C166.569,-50.7431 150.852,-30.9566 141.923,-19.7154"/>
<polygon fill="#9a32cd" stroke="#9a32cd" points="175.173,-67.2019 184.133,-72.8553 180.654,-62.848 175.173,-67.2019"/>
<text text-anchor="middle" x="187.5" y="-41" font-family="Helvetica,sans-Serif" font-size="10.00"> postfixStr</text>
</g>
<!-- Node6 -->
<g id="node6" class="node"><title>Node6</title>
<g id="a_node6"><a xlink:title="STL class.">
<polygon fill="white" stroke="#bfbfbf" points="149.5,-156.5 149.5,-186.5 244.5,-186.5 244.5,-156.5 149.5,-156.5"/>
<text text-anchor="start" x="157.5" y="-174.5" font-family="Helvetica,sans-Serif" font-size="10.00">std::basic_string&lt;</text>
<text text-anchor="middle" x="197" y="-163.5" font-family="Helvetica,sans-Serif" font-size="10.00"> char &gt;</text>
</a>
</g>
</g>
<!-- Node6&#45;&gt;Node5 -->
<g id="edge6" class="edge"><title>Node6&#45;&gt;Node5</title>
<path fill="none" stroke="midnightblue" d="M195.315,-146.063C194.078,-128.127 192.469,-104.8 191.608,-92.3107"/>
<polygon fill="midnightblue" stroke="midnightblue" points="191.829,-146.398 196.009,-156.134 198.813,-145.917 191.829,-146.398"/>
</g>
</g>
</svg>
