<?xml version="1.0" encoding="UTF-8" standalone="no"?>
<!DOCTYPE svg PUBLIC "-//W3C//DTD SVG 1.1//EN"
 "http://www.w3.org/Graphics/SVG/1.1/DTD/svg11.dtd">
<!-- Generated by graphviz version 2.38.0 (20140413.2041)
 -->
<!-- Title: List::dLinkList&lt; T &gt; Pages: 1 -->
<svg width="144pt" height="184pt"
 viewBox="0.00 0.00 143.50 184.00" xmlns="http://www.w3.org/2000/svg" xmlns:xlink="http://www.w3.org/1999/xlink">
<g id="graph0" class="graph" transform="scale(1 1) rotate(0) translate(4 180)">
<title>List::dLinkList&lt; T &gt;</title>
<polygon fill="white" stroke="none" points="-4,4 -4,-180 139.5,-180 139.5,4 -4,4"/>
<!-- Node1 -->
<g id="node1" class="node"><title>Node1</title>
<g id="a_node1"><a xlink:title=" ">
<polygon fill="#bfbfbf" stroke="black" points="0,-0.5 0,-19.5 101,-19.5 101,-0.5 0,-0.5"/>
<text text-anchor="middle" x="50.5" y="-7.5" font-family="Helvetica,sans-Serif" font-size="10.00">List::dLinkList&lt; T &gt;</text>
</a>
</g>
</g>
<!-- Node2 -->
<g id="node2" class="node"><title>Node2</title>
<g id="a_node2"><a xlink:href="struct_list_1_1d_link_list_1_1node.html" target="_top" xlink:title=" ">
<polygon fill="white" stroke="black" points="4.5,-78.5 4.5,-108.5 96.5,-108.5 96.5,-78.5 4.5,-78.5"/>
<text text-anchor="start" x="12.5" y="-96.5" font-family="Helvetica,sans-Serif" font-size="10.00">List::dLinkList&lt; T</text>
<text text-anchor="middle" x="50.5" y="-85.5" font-family="Helvetica,sans-Serif" font-size="10.00"> &gt;::node</text>
</a>
</g>
</g>
<!-- Node2&#45;&gt;Node1 -->
<g id="edge1" class="edge"><title>Node2&#45;&gt;Node1</title>
<path fill="none" stroke="#9a32cd" stroke-dasharray="5,2" d="M50.5,-68.2485C50.5,-51.781 50.5,-30.9886 50.5,-19.5391"/>
<polygon fill="#9a32cd" stroke="#9a32cd" points="47.0001,-68.3037 50.5,-78.3038 54.0001,-68.3038 47.0001,-68.3037"/>
<text text-anchor="middle" x="63" y="-52" font-family="Helvetica,sans-Serif" font-size="10.00"> head</text>
<text text-anchor="middle" x="63" y="-41" font-family="Helvetica,sans-Serif" font-size="10.00">tail</text>
</g>
<!-- Node2&#45;&gt;Node2 -->
<g id="edge2" class="edge"><title>Node2&#45;&gt;Node2</title>
<path fill="none" stroke="#9a32cd" stroke-dasharray="5,2" d="M106.774,-99.0332C111.534,-97.8493 114.5,-96.0049 114.5,-93.5 114.5,-89.4922 106.906,-87.1752 96.5242,-86.549"/>
<polygon fill="#9a32cd" stroke="#9a32cd" points="105.95,-95.6138 96.5242,-100.451 106.909,-102.548 105.95,-95.6138"/>
<text text-anchor="middle" x="125" y="-96.5" font-family="Helvetica,sans-Serif" font-size="10.00"> prev</text>
<text text-anchor="middle" x="125" y="-85.5" font-family="Helvetica,sans-Serif" font-size="10.00">next</text>
</g>
<!-- Node3 -->
<g id="node3" class="node"><title>Node3</title>
<g id="a_node3"><a xlink:title=" ">
<polygon fill="white" stroke="#bfbfbf" points="36,-156.5 36,-175.5 65,-175.5 65,-156.5 36,-156.5"/>
<text text-anchor="middle" x="50.5" y="-163.5" font-family="Helvetica,sans-Serif" font-size="10.00">T</text>
</a>
</g>
</g>
<!-- Node3&#45;&gt;Node2 -->
<g id="edge3" class="edge"><title>Node3&#45;&gt;Node2</title>
<path fill="none" stroke="#9a32cd" stroke-dasharray="5,2" d="M50.5,-146.236C50.5,-134.408 50.5,-119.383 50.5,-108.576"/>
<polygon fill="#9a32cd" stroke="#9a32cd" points="47.0001,-146.355 50.5,-156.355 54.0001,-146.355 47.0001,-146.355"/>
<text text-anchor="middle" x="61.5" y="-130" font-family="Helvetica,sans-Serif" font-size="10.00"> data</text>
</g>
</g>
</svg>
