<?xml version="1.0" encoding="UTF-8" standalone="no"?>
<!DOCTYPE svg PUBLIC "-//W3C//DTD SVG 1.1//EN"
 "http://www.w3.org/Graphics/SVG/1.1/DTD/svg11.dtd">
<!-- Generated by graphviz version 2.38.0 (20140413.2041)
 -->
<!-- Title: ch3_3::swap Pages: 1 -->
<svg width="676pt" height="177pt"
 viewBox="0.00 0.00 676.00 176.96" xmlns="http://www.w3.org/2000/svg" xmlns:xlink="http://www.w3.org/1999/xlink">
<g id="graph0" class="graph" transform="scale(1 1) rotate(0) translate(4 172.96)">
<title>ch3_3::swap</title>
<polygon fill="white" stroke="none" points="-4,4 -4,-172.96 672,-172.96 672,4 -4,4"/>
<!-- Node1 -->
<g id="node1" class="node"><title>Node1</title>
<g id="a_node1"><a xlink:title=" ">
<polygon fill="#bfbfbf" stroke="black" points="597,-76.5 597,-95.5 668,-95.5 668,-76.5 597,-76.5"/>
<text text-anchor="middle" x="632.5" y="-83.5" font-family="Helvetica,sans-Serif" font-size="10.00">ch3_3::swap</text>
</a>
</g>
</g>
<!-- Node2 -->
<g id="node2" class="node"><title>Node2</title>
<g id="a_node2"><a xlink:href="namespacech3__3.html#abbf4d2e48f6886a82d3735dd968b0e2e" target="_top" xlink:title=" ">
<polygon fill="white" stroke="black" points="259,-76.5 259,-95.5 354,-95.5 354,-76.5 259,-76.5"/>
<text text-anchor="middle" x="306.5" y="-83.5" font-family="Helvetica,sans-Serif" font-size="10.00">ch3_3::next_perm</text>
</a>
</g>
</g>
<!-- Node1&#45;&gt;Node2 -->
<g id="edge1" class="edge"><title>Node1&#45;&gt;Node2</title>
<path fill="none" stroke="midnightblue" d="M619.379,-104.17C606.979,-120.957 586.02,-144.793 561,-155 507.914,-176.655 487.508,-169.353 432,-155 387.021,-143.369 340.961,-111.609 319.665,-95.557"/>
<polygon fill="midnightblue" stroke="midnightblue" points="622.451,-105.887 625.359,-95.6995 616.732,-101.85 622.451,-105.887"/>
</g>
<!-- Node5 -->
<g id="node5" class="node"><title>Node5</title>
<g id="a_node5"><a xlink:href="class_list_1_1d_link_list.html#a951485bf585224eed6c0cf6be14bc8e4" target="_top" xlink:title=" ">
<polygon fill="white" stroke="black" points="432,-115 432,-145 561,-145 561,-115 432,-115"/>
<text text-anchor="start" x="440" y="-133" font-family="Helvetica,sans-Serif" font-size="10.00">List::dLinkList&lt; RPN</text>
<text text-anchor="middle" x="496.5" y="-122" font-family="Helvetica,sans-Serif" font-size="10.00">::Rpn_t::Item &gt;::operator=</text>
</a>
</g>
</g>
<!-- Node1&#45;&gt;Node5 -->
<g id="edge4" class="edge"><title>Node1&#45;&gt;Node5</title>
<path fill="none" stroke="midnightblue" d="M592.69,-98.7436C577.276,-103.805 559.428,-109.665 543.381,-114.935"/>
<polygon fill="midnightblue" stroke="midnightblue" points="594.015,-101.992 602.424,-95.5473 591.831,-95.3418 594.015,-101.992"/>
</g>
<!-- Node6 -->
<g id="node6" class="node"><title>Node6</title>
<g id="a_node6"><a xlink:href="namespacech3__3.html#a56e0c24b8b5c8103503ecc9a019cf12d" target="_top" xlink:title=" ">
<polygon fill="white" stroke="black" points="230,-38.5 230,-57.5 383,-57.5 383,-38.5 230,-38.5"/>
<text text-anchor="middle" x="306.5" y="-45.5" font-family="Helvetica,sans-Serif" font-size="10.00">ch3_3::permuteWithFixedPrefix</text>
</a>
</g>
</g>
<!-- Node1&#45;&gt;Node6 -->
<g id="edge5" class="edge"><title>Node1&#45;&gt;Node6</title>
<path fill="none" stroke="midnightblue" d="M591.033,-73.6952C581.277,-71.1186 570.831,-68.6777 561,-67 501.725,-56.8842 433.737,-52.1541 383.102,-49.9424"/>
<polygon fill="midnightblue" stroke="midnightblue" points="590.324,-77.1301 600.894,-76.4031 592.178,-70.38 590.324,-77.1301"/>
</g>
<!-- Node8 -->
<g id="node8" class="node"><title>Node8</title>
<g id="a_node8"><a xlink:href="namespacech3__3.html#a0458a737a0c683a8a26d8f6423b9e101" target="_top" xlink:title=" ">
<polygon fill="white" stroke="black" points="217,-0.5 217,-19.5 396,-19.5 396,-0.5 217,-0.5"/>
<text text-anchor="middle" x="306.5" y="-7.5" font-family="Helvetica,sans-Serif" font-size="10.00">ch3_3::permuteWithFixedPrefix_Loop</text>
</a>
</g>
</g>
<!-- Node1&#45;&gt;Node8 -->
<g id="edge8" class="edge"><title>Node1&#45;&gt;Node8</title>
<path fill="none" stroke="midnightblue" d="M607.817,-71.0426C594.53,-63.311 577.376,-54.3903 561,-49 507.813,-31.4936 445.711,-21.7756 396.287,-16.4186"/>
<polygon fill="midnightblue" stroke="midnightblue" points="606.365,-74.2532 616.741,-76.3947 609.965,-68.2499 606.365,-74.2532"/>
</g>
<!-- Node10 -->
<g id="node10" class="node"><title>Node10</title>
<g id="a_node10"><a xlink:href="namespacech3__3.html#a1f0a8d6a2a47b55f90cd65ea1680973a" target="_top" xlink:title=" ">
<polygon fill="white" stroke="black" points="456.5,-76.5 456.5,-95.5 536.5,-95.5 536.5,-76.5 456.5,-76.5"/>
<text text-anchor="middle" x="496.5" y="-83.5" font-family="Helvetica,sans-Serif" font-size="10.00">ch3_3::reverse</text>
</a>
</g>
</g>
<!-- Node1&#45;&gt;Node10 -->
<g id="edge11" class="edge"><title>Node1&#45;&gt;Node10</title>
<path fill="none" stroke="midnightblue" d="M586.669,-86C570.463,-86 552.306,-86 536.627,-86"/>
<polygon fill="midnightblue" stroke="midnightblue" points="586.992,-89.5001 596.992,-86 586.992,-82.5001 586.992,-89.5001"/>
</g>
<!-- Node3 -->
<g id="node3" class="node"><title>Node3</title>
<g id="a_node3"><a xlink:href="namespacech3__3.html#abed7d842eef9919613afe146aa2c5f56" target="_top" xlink:title=" ">
<polygon fill="white" stroke="black" points="77.5,-76.5 77.5,-95.5 177.5,-95.5 177.5,-76.5 77.5,-76.5"/>
<text text-anchor="middle" x="127.5" y="-83.5" font-family="Helvetica,sans-Serif" font-size="10.00">ch3_3::permute_stl</text>
</a>
</g>
</g>
<!-- Node2&#45;&gt;Node3 -->
<g id="edge2" class="edge"><title>Node2&#45;&gt;Node3</title>
<path fill="none" stroke="midnightblue" d="M248.756,-86C225.915,-86 199.821,-86 177.79,-86"/>
<polygon fill="midnightblue" stroke="midnightblue" points="248.995,-89.5001 258.995,-86 248.995,-82.5001 248.995,-89.5001"/>
</g>
<!-- Node4 -->
<g id="node4" class="node"><title>Node4</title>
<g id="a_node4"><a xlink:href="ch3__3_8cc.html#abf9e6b7e6f15df4b525a2e7705ba3089" target="_top" xlink:title=" ">
<polygon fill="white" stroke="black" points="0,-38.5 0,-57.5 38,-57.5 38,-38.5 0,-38.5"/>
<text text-anchor="middle" x="19" y="-45.5" font-family="Helvetica,sans-Serif" font-size="10.00">main</text>
</a>
</g>
</g>
<!-- Node3&#45;&gt;Node4 -->
<g id="edge3" class="edge"><title>Node3&#45;&gt;Node4</title>
<path fill="none" stroke="midnightblue" d="M89.732,-72.8809C72.3062,-66.6632 52.268,-59.5135 38.1568,-54.4785"/>
<polygon fill="midnightblue" stroke="midnightblue" points="89.0309,-76.3468 99.6256,-76.411 91.3833,-69.7539 89.0309,-76.3468"/>
</g>
<!-- Node7 -->
<g id="node7" class="node"><title>Node7</title>
<g id="a_node7"><a xlink:href="namespacech3__3.html#a43955fc712564f9a0e0b88ef806846be" target="_top" xlink:title=" ">
<polygon fill="white" stroke="black" points="76,-38.5 76,-57.5 179,-57.5 179,-38.5 76,-38.5"/>
<text text-anchor="middle" x="127.5" y="-45.5" font-family="Helvetica,sans-Serif" font-size="10.00">ch3_3::permute_rec</text>
</a>
</g>
</g>
<!-- Node6&#45;&gt;Node7 -->
<g id="edge6" class="edge"><title>Node6&#45;&gt;Node7</title>
<path fill="none" stroke="midnightblue" d="M219.791,-48C205.828,-48 191.771,-48 179.015,-48"/>
<polygon fill="midnightblue" stroke="midnightblue" points="219.923,-51.5001 229.923,-48 219.923,-44.5001 219.923,-51.5001"/>
</g>
<!-- Node7&#45;&gt;Node4 -->
<g id="edge7" class="edge"><title>Node7&#45;&gt;Node4</title>
<path fill="none" stroke="midnightblue" d="M65.6339,-48C55.5911,-48 45.9173,-48 38.0813,-48"/>
<polygon fill="midnightblue" stroke="midnightblue" points="65.7453,-51.5001 75.7453,-48 65.7452,-44.5001 65.7453,-51.5001"/>
</g>
<!-- Node9 -->
<g id="node9" class="node"><title>Node9</title>
<g id="a_node9"><a xlink:href="namespacech3__3.html#a2e6617e99689d9f762dc193ecf3fcda2" target="_top" xlink:title=" ">
<polygon fill="white" stroke="black" points="74,-0.5 74,-19.5 181,-19.5 181,-0.5 74,-0.5"/>
<text text-anchor="middle" x="127.5" y="-7.5" font-family="Helvetica,sans-Serif" font-size="10.00">ch3_3::permute_loop</text>
</a>
</g>
</g>
<!-- Node8&#45;&gt;Node9 -->
<g id="edge9" class="edge"><title>Node8&#45;&gt;Node9</title>
<path fill="none" stroke="midnightblue" d="M206.573,-10C197.947,-10 189.456,-10 181.432,-10"/>
<polygon fill="midnightblue" stroke="midnightblue" points="206.741,-13.5001 216.741,-10 206.741,-6.5001 206.741,-13.5001"/>
</g>
<!-- Node9&#45;&gt;Node4 -->
<g id="edge10" class="edge"><title>Node9&#45;&gt;Node4</title>
<path fill="none" stroke="midnightblue" d="M89.732,-23.1191C72.3062,-29.3368 52.268,-36.4865 38.1568,-41.5215"/>
<polygon fill="midnightblue" stroke="midnightblue" points="91.3833,-26.2461 99.6256,-19.589 89.0309,-19.6532 91.3833,-26.2461"/>
</g>
<!-- Node10&#45;&gt;Node2 -->
<g id="edge12" class="edge"><title>Node10&#45;&gt;Node2</title>
<path fill="none" stroke="midnightblue" d="M445.965,-86C417.548,-86 382.086,-86 354.164,-86"/>
<polygon fill="midnightblue" stroke="midnightblue" points="446.089,-89.5001 456.089,-86 446.089,-82.5001 446.089,-89.5001"/>
</g>
</g>
</svg>
