<?xml version="1.0" encoding="UTF-8" standalone="no"?>
<!DOCTYPE svg PUBLIC "-//W3C//DTD SVG 1.1//EN"
 "http://www.w3.org/Graphics/SVG/1.1/DTD/svg11.dtd">
<!-- Generated by graphviz version 2.38.0 (20140413.2041)
 -->
<!-- Title: ch3_3::permuteWithFixedPrefix_Loop Pages: 1 -->
<svg width="354pt" height="180pt"
 viewBox="0.00 0.00 354.00 180.00" xmlns="http://www.w3.org/2000/svg" xmlns:xlink="http://www.w3.org/1999/xlink">
<g id="graph0" class="graph" transform="scale(1 1) rotate(0) translate(4 176)">
<title>ch3_3::permuteWithFixedPrefix_Loop</title>
<polygon fill="white" stroke="none" points="-4,4 -4,-176 350,-176 350,4 -4,4"/>
<!-- Node1 -->
<g id="node1" class="node"><title>Node1</title>
<g id="a_node1"><a xlink:title=" ">
<polygon fill="#bfbfbf" stroke="black" points="0,-76.5 0,-95.5 179,-95.5 179,-76.5 0,-76.5"/>
<text text-anchor="middle" x="89.5" y="-83.5" font-family="Helvetica,sans-Serif" font-size="10.00">ch3_3::permuteWithFixedPrefix_Loop</text>
</a>
</g>
</g>
<!-- Node2 -->
<g id="node2" class="node"><title>Node2</title>
<g id="a_node2"><a xlink:href="class_stack_1_1link_stack.html#a81ac09b9fbd4c7b522b4de83e2ce1d00" target="_top" xlink:title=" ">
<polygon fill="white" stroke="black" points="215,-152.5 215,-171.5 346,-171.5 346,-152.5 215,-152.5"/>
<text text-anchor="middle" x="280.5" y="-159.5" font-family="Helvetica,sans-Serif" font-size="10.00">Stack::linkStack::isEmpty</text>
</a>
</g>
</g>
<!-- Node1&#45;&gt;Node2 -->
<g id="edge1" class="edge"><title>Node1&#45;&gt;Node2</title>
<path fill="none" stroke="midnightblue" d="M109.128,-95.5466C133.166,-107.627 176.48,-128.593 215,-143 221.027,-145.254 227.45,-147.419 233.817,-149.428"/>
<polygon fill="midnightblue" stroke="midnightblue" points="233.128,-152.876 243.714,-152.447 235.171,-146.181 233.128,-152.876"/>
</g>
<!-- Node3 -->
<g id="node3" class="node"><title>Node3</title>
<g id="a_node3"><a xlink:href="class_stack_1_1link_stack.html#a79e4a90c4530c70eaea1d37c139fc620" target="_top" xlink:title=" ">
<polygon fill="white" stroke="black" points="225.5,-114.5 225.5,-133.5 335.5,-133.5 335.5,-114.5 225.5,-114.5"/>
<text text-anchor="middle" x="280.5" y="-121.5" font-family="Helvetica,sans-Serif" font-size="10.00">Stack::linkStack::pop</text>
</a>
</g>
</g>
<!-- Node1&#45;&gt;Node3 -->
<g id="edge2" class="edge"><title>Node1&#45;&gt;Node3</title>
<path fill="none" stroke="midnightblue" d="M138.193,-95.589C163.695,-100.716 195.282,-107.067 222.12,-112.463"/>
<polygon fill="midnightblue" stroke="midnightblue" points="221.657,-115.94 232.15,-114.48 223.036,-109.077 221.657,-115.94"/>
</g>
<!-- Node4 -->
<g id="node4" class="node"><title>Node4</title>
<g id="a_node4"><a xlink:href="class_stack_1_1link_stack.html#a3425bfbff5c6945af2dd9683405a0e0b" target="_top" xlink:title=" ">
<polygon fill="white" stroke="black" points="222.5,-76.5 222.5,-95.5 338.5,-95.5 338.5,-76.5 222.5,-76.5"/>
<text text-anchor="middle" x="280.5" y="-83.5" font-family="Helvetica,sans-Serif" font-size="10.00">Stack::linkStack::push</text>
</a>
</g>
</g>
<!-- Node1&#45;&gt;Node4 -->
<g id="edge3" class="edge"><title>Node1&#45;&gt;Node4</title>
<path fill="none" stroke="midnightblue" d="M179.189,-86C190.309,-86 201.537,-86 212.254,-86"/>
<polygon fill="midnightblue" stroke="midnightblue" points="212.352,-89.5001 222.352,-86 212.352,-82.5001 212.352,-89.5001"/>
</g>
<!-- Node5 -->
<g id="node5" class="node"><title>Node5</title>
<g id="a_node5"><a xlink:href="namespacech3__3.html#a13d462b8e9446c367d8b0fad0fea496e" target="_top" xlink:title=" ">
<polygon fill="white" stroke="black" points="245,-38.5 245,-57.5 316,-57.5 316,-38.5 245,-38.5"/>
<text text-anchor="middle" x="280.5" y="-45.5" font-family="Helvetica,sans-Serif" font-size="10.00">ch3_3::swap</text>
</a>
</g>
</g>
<!-- Node1&#45;&gt;Node5 -->
<g id="edge4" class="edge"><title>Node1&#45;&gt;Node5</title>
<path fill="none" stroke="midnightblue" d="M138.193,-76.411C167.93,-70.432 205.941,-62.7896 235.048,-56.9374"/>
<polygon fill="midnightblue" stroke="midnightblue" points="235.831,-60.3502 244.944,-54.9477 234.451,-53.4876 235.831,-60.3502"/>
</g>
<!-- Node6 -->
<g id="node6" class="node"><title>Node6</title>
<g id="a_node6"><a xlink:href="class_stack_1_1link_stack.html#a5c7f1f07843fa15b71a1033ca309fa2e" target="_top" xlink:title=" ">
<polygon fill="white" stroke="black" points="226.5,-0.5 226.5,-19.5 334.5,-19.5 334.5,-0.5 226.5,-0.5"/>
<text text-anchor="middle" x="280.5" y="-7.5" font-family="Helvetica,sans-Serif" font-size="10.00">Stack::linkStack::top</text>
</a>
</g>
</g>
<!-- Node1&#45;&gt;Node6 -->
<g id="edge5" class="edge"><title>Node1&#45;&gt;Node6</title>
<path fill="none" stroke="midnightblue" d="M109.128,-76.4534C133.166,-64.3729 176.48,-43.4071 215,-29 221.027,-26.7457 227.45,-24.5812 233.817,-22.5725"/>
<polygon fill="midnightblue" stroke="midnightblue" points="235.171,-25.819 243.714,-19.5534 233.128,-19.1236 235.171,-25.819"/>
</g>
</g>
</svg>
