<?xml version="1.0" encoding="UTF-8" standalone="no"?>
<!DOCTYPE svg PUBLIC "-//W3C//DTD SVG 1.1//EN"
 "http://www.w3.org/Graphics/SVG/1.1/DTD/svg11.dtd">
<!-- Generated by graphviz version 2.38.0 (20140413.2041)
 -->
<!-- Title: ch3_3::next_perm Pages: 1 -->
<svg width="313pt" height="28pt"
 viewBox="0.00 0.00 313.00 28.00" xmlns="http://www.w3.org/2000/svg" xmlns:xlink="http://www.w3.org/1999/xlink">
<g id="graph0" class="graph" transform="scale(1 1) rotate(0) translate(4 24)">
<title>ch3_3::next_perm</title>
<polygon fill="white" stroke="none" points="-4,4 -4,-24 309,-24 309,4 -4,4"/>
<!-- Node1 -->
<g id="node1" class="node"><title>Node1</title>
<g id="a_node1"><a xlink:title=" ">
<polygon fill="#bfbfbf" stroke="black" points="210,-0.5 210,-19.5 305,-19.5 305,-0.5 210,-0.5"/>
<text text-anchor="middle" x="257.5" y="-7.5" font-family="Helvetica,sans-Serif" font-size="10.00">ch3_3::next_perm</text>
</a>
</g>
</g>
<!-- Node2 -->
<g id="node2" class="node"><title>Node2</title>
<g id="a_node2"><a xlink:href="namespacech3__3.html#abed7d842eef9919613afe146aa2c5f56" target="_top" xlink:title=" ">
<polygon fill="white" stroke="black" points="74,-0.5 74,-19.5 174,-19.5 174,-0.5 74,-0.5"/>
<text text-anchor="middle" x="124" y="-7.5" font-family="Helvetica,sans-Serif" font-size="10.00">ch3_3::permute_stl</text>
</a>
</g>
</g>
<!-- Node1&#45;&gt;Node2 -->
<g id="edge1" class="edge"><title>Node1&#45;&gt;Node2</title>
<path fill="none" stroke="midnightblue" d="M199.606,-10C191.163,-10 182.521,-10 174.252,-10"/>
<polygon fill="midnightblue" stroke="midnightblue" points="199.768,-13.5001 209.768,-10 199.768,-6.5001 199.768,-13.5001"/>
</g>
<!-- Node3 -->
<g id="node3" class="node"><title>Node3</title>
<g id="a_node3"><a xlink:href="ch3__3_8cc.html#abf9e6b7e6f15df4b525a2e7705ba3089" target="_top" xlink:title=" ">
<polygon fill="white" stroke="black" points="0,-0.5 0,-19.5 38,-19.5 38,-0.5 0,-0.5"/>
<text text-anchor="middle" x="19" y="-7.5" font-family="Helvetica,sans-Serif" font-size="10.00">main</text>
</a>
</g>
</g>
<!-- Node2&#45;&gt;Node3 -->
<g id="edge2" class="edge"><title>Node2&#45;&gt;Node3</title>
<path fill="none" stroke="midnightblue" d="M63.8548,-10C54.653,-10 45.7841,-10 38.4589,-10"/>
<polygon fill="midnightblue" stroke="midnightblue" points="63.9133,-13.5001 73.9133,-10 63.9132,-6.5001 63.9133,-13.5001"/>
</g>
</g>
</svg>
