<?xml version="1.0" encoding="UTF-8" standalone="no"?>
<!DOCTYPE svg PUBLIC "-//W3C//DTD SVG 1.1//EN"
 "http://www.w3.org/Graphics/SVG/1.1/DTD/svg11.dtd">
<!-- Generated by graphviz version 2.38.0 (20140413.2041)
 -->
<!-- Title: include/seqList.h Pages: 1 -->
<svg width="232pt" height="196pt"
 viewBox="0.00 0.00 231.50 196.00" xmlns="http://www.w3.org/2000/svg" xmlns:xlink="http://www.w3.org/1999/xlink">
<g id="graph0" class="graph" transform="scale(1 1) rotate(0) translate(4 192)">
<title>include/seqList.h</title>
<polygon fill="white" stroke="none" points="-4,4 -4,-192 227.5,-192 227.5,4 -4,4"/>
<!-- Node1 -->
<g id="node1" class="node"><title>Node1</title>
<g id="a_node1"><a xlink:title="顺序表类">
<polygon fill="#bfbfbf" stroke="black" points="69,-168.5 69,-187.5 159,-187.5 159,-168.5 69,-168.5"/>
<text text-anchor="middle" x="114" y="-175.5" font-family="Helvetica,sans-Serif" font-size="10.00">include/seqList.h</text>
</a>
</g>
</g>
<!-- Node2 -->
<g id="node2" class="node"><title>Node2</title>
<g id="a_node2"><a xlink:href="_list_8h.html" target="_top" xlink:title="栈的抽象类">
<polygon fill="white" stroke="black" points="93.5,-112.5 93.5,-131.5 134.5,-131.5 134.5,-112.5 93.5,-112.5"/>
<text text-anchor="middle" x="114" y="-119.5" font-family="Helvetica,sans-Serif" font-size="10.00">List.h</text>
</a>
</g>
</g>
<!-- Node1&#45;&gt;Node2 -->
<g id="edge1" class="edge"><title>Node1&#45;&gt;Node2</title>
<path fill="none" stroke="midnightblue" d="M108.834,-168.083C107.324,-160.927 106.894,-150.635 107.542,-141.691"/>
<polygon fill="midnightblue" stroke="midnightblue" points="111.015,-142.126 108.869,-131.751 104.077,-141.2 111.015,-142.126"/>
</g>
<!-- Node4 -->
<g id="node4" class="node"><title>Node4</title>
<g id="a_node4"><a xlink:title=" ">
<polygon fill="white" stroke="#bfbfbf" points="78,-0.5 78,-19.5 132,-19.5 132,-0.5 78,-0.5"/>
<text text-anchor="middle" x="105" y="-7.5" font-family="Helvetica,sans-Serif" font-size="10.00">iostream</text>
</a>
</g>
</g>
<!-- Node1&#45;&gt;Node4 -->
<g id="edge11" class="edge"><title>Node1&#45;&gt;Node4</title>
<path fill="none" stroke="midnightblue" d="M121.376,-168.284C137.518,-148.092 173.138,-96.7257 155,-56 149.432,-43.4981 138.484,-33.0124 128.249,-25.3167"/>
<polygon fill="midnightblue" stroke="midnightblue" points="130.156,-22.3794 119.952,-19.5256 126.149,-28.1193 130.156,-22.3794"/>
</g>
<!-- Node2&#45;&gt;Node1 -->
<g id="edge10" class="edge"><title>Node2&#45;&gt;Node1</title>
<path fill="none" stroke="midnightblue" d="M119.131,-131.751C120.657,-138.858 121.104,-149.136 120.472,-158.101"/>
<polygon fill="midnightblue" stroke="midnightblue" points="116.993,-157.713 119.166,-168.083 123.934,-158.622 116.993,-157.713"/>
</g>
<!-- Node3 -->
<g id="node3" class="node"><title>Node3</title>
<g id="a_node3"><a xlink:href="d_link_list_8h.html" target="_top" xlink:title="双链表类">
<polygon fill="white" stroke="black" points="0,-56.5 0,-75.5 64,-75.5 64,-56.5 0,-56.5"/>
<text text-anchor="middle" x="32" y="-63.5" font-family="Helvetica,sans-Serif" font-size="10.00">dLinkList.h</text>
</a>
</g>
</g>
<!-- Node2&#45;&gt;Node3 -->
<g id="edge2" class="edge"><title>Node2&#45;&gt;Node3</title>
<path fill="none" stroke="midnightblue" d="M95.7105,-112.324C81.4531,-104.107 62.1368,-91.6017 48.3878,-81.8069"/>
<polygon fill="midnightblue" stroke="midnightblue" points="50.3954,-78.9388 40.2657,-75.8339 46.2483,-84.578 50.3954,-78.9388"/>
</g>
<!-- Node6 -->
<g id="node6" class="node"><title>Node6</title>
<g id="a_node6"><a xlink:href="s_link_list_8h.html" target="_top" xlink:title="单链表类的定义和实现">
<polygon fill="white" stroke="black" points="82,-56.5 82,-75.5 146,-75.5 146,-56.5 82,-56.5"/>
<text text-anchor="middle" x="114" y="-63.5" font-family="Helvetica,sans-Serif" font-size="10.00">sLinkList.h</text>
</a>
</g>
</g>
<!-- Node2&#45;&gt;Node6 -->
<g id="edge6" class="edge"><title>Node2&#45;&gt;Node6</title>
<path fill="none" stroke="midnightblue" d="M108.834,-112.083C107.324,-104.927 106.894,-94.6353 107.542,-85.6911"/>
<polygon fill="midnightblue" stroke="midnightblue" points="111.015,-86.1262 108.869,-75.7511 104.077,-85.2002 111.015,-86.1262"/>
</g>
<!-- Node3&#45;&gt;Node2 -->
<g id="edge3" class="edge"><title>Node3&#45;&gt;Node2</title>
<path fill="none" stroke="midnightblue" d="M50.2522,-75.6545C64.5855,-83.9132 84.0475,-96.5169 97.8213,-106.342"/>
<polygon fill="midnightblue" stroke="midnightblue" points="95.8132,-109.21 105.94,-112.324 99.9654,-103.574 95.8132,-109.21"/>
</g>
<!-- Node3&#45;&gt;Node4 -->
<g id="edge4" class="edge"><title>Node3&#45;&gt;Node4</title>
<path fill="none" stroke="midnightblue" d="M43.7287,-56.324C54.8374,-48.1066 71.7422,-35.6017 84.9833,-25.8069"/>
<polygon fill="midnightblue" stroke="midnightblue" points="87.0999,-28.5948 93.0579,-19.8339 82.9369,-22.9671 87.0999,-28.5948"/>
</g>
<!-- Node5 -->
<g id="node5" class="node"><title>Node5</title>
<g id="a_node5"><a xlink:title=" ">
<polygon fill="white" stroke="#bfbfbf" points="12,-0.5 12,-19.5 52,-19.5 52,-0.5 12,-0.5"/>
<text text-anchor="middle" x="32" y="-7.5" font-family="Helvetica,sans-Serif" font-size="10.00">utility</text>
</a>
</g>
</g>
<!-- Node3&#45;&gt;Node5 -->
<g id="edge5" class="edge"><title>Node3&#45;&gt;Node5</title>
<path fill="none" stroke="midnightblue" d="M32,-56.083C32,-49.0059 32,-38.8611 32,-29.9865"/>
<polygon fill="midnightblue" stroke="midnightblue" points="35.5001,-29.751 32,-19.7511 28.5001,-29.7511 35.5001,-29.751"/>
</g>
<!-- Node6&#45;&gt;Node2 -->
<g id="edge7" class="edge"><title>Node6&#45;&gt;Node2</title>
<path fill="none" stroke="midnightblue" d="M119.131,-75.7511C120.657,-82.8579 121.104,-93.1357 120.472,-102.101"/>
<polygon fill="midnightblue" stroke="midnightblue" points="116.993,-101.713 119.166,-112.083 123.934,-102.622 116.993,-101.713"/>
</g>
<!-- Node6&#45;&gt;Node4 -->
<g id="edge9" class="edge"><title>Node6&#45;&gt;Node4</title>
<path fill="none" stroke="midnightblue" d="M112.514,-56.083C111.321,-48.9272 109.606,-38.6353 108.115,-29.6911"/>
<polygon fill="midnightblue" stroke="midnightblue" points="111.555,-29.0396 106.459,-19.7511 104.65,-30.1904 111.555,-29.0396"/>
</g>
<!-- Node7 -->
<g id="node7" class="node"><title>Node7</title>
<g id="a_node7"><a xlink:title=" ">
<polygon fill="white" stroke="#bfbfbf" points="150.5,-0.5 150.5,-19.5 223.5,-19.5 223.5,-0.5 150.5,-0.5"/>
<text text-anchor="middle" x="187" y="-7.5" font-family="Helvetica,sans-Serif" font-size="10.00">initializer_list</text>
</a>
</g>
</g>
<!-- Node6&#45;&gt;Node7 -->
<g id="edge8" class="edge"><title>Node6&#45;&gt;Node7</title>
<path fill="none" stroke="midnightblue" d="M125.729,-56.324C136.837,-48.1066 153.742,-35.6017 166.983,-25.8069"/>
<polygon fill="midnightblue" stroke="midnightblue" points="169.1,-28.5948 175.058,-19.8339 164.937,-22.9671 169.1,-28.5948"/>
</g>
</g>
</svg>
