<?xml version="1.0" encoding="UTF-8" standalone="no"?>
<!DOCTYPE svg PUBLIC "-//W3C//DTD SVG 1.1//EN"
 "http://www.w3.org/Graphics/SVG/1.1/DTD/svg11.dtd">
<!-- Generated by graphviz version 2.38.0 (20140413.2041)
 -->
<!-- Title: include/seqList.h Pages: 1 -->
<svg width="363pt" height="196pt"
 viewBox="0.00 0.00 362.50 196.00" xmlns="http://www.w3.org/2000/svg" xmlns:xlink="http://www.w3.org/1999/xlink">
<g id="graph0" class="graph" transform="scale(1 1) rotate(0) translate(4 192)">
<title>include/seqList.h</title>
<polygon fill="white" stroke="none" points="-4,4 -4,-192 358.5,-192 358.5,4 -4,4"/>
<!-- Node1 -->
<g id="node1" class="node"><title>Node1</title>
<g id="a_node1"><a xlink:title="顺序表类">
<polygon fill="#bfbfbf" stroke="black" points="120,-168.5 120,-187.5 210,-187.5 210,-168.5 120,-168.5"/>
<text text-anchor="middle" x="165" y="-175.5" font-family="Helvetica,sans-Serif" font-size="10.00">include/seqList.h</text>
</a>
</g>
</g>
<!-- Node2 -->
<g id="node2" class="node"><title>Node2</title>
<g id="a_node2"><a xlink:href="_list_8h.html" target="_top" xlink:title="栈的抽象类">
<polygon fill="white" stroke="black" points="128,-112.5 128,-131.5 202,-131.5 202,-112.5 128,-112.5"/>
<text text-anchor="middle" x="165" y="-119.5" font-family="Helvetica,sans-Serif" font-size="10.00">include/List.h</text>
</a>
</g>
</g>
<!-- Node1&#45;&gt;Node2 -->
<g id="edge1" class="edge"><title>Node1&#45;&gt;Node2</title>
<path fill="none" stroke="midnightblue" d="M158.528,-158.101C157.896,-149.136 158.343,-138.858 159.869,-131.751"/>
<polygon fill="midnightblue" stroke="midnightblue" points="155.066,-158.622 159.834,-168.083 162.007,-157.713 155.066,-158.622"/>
</g>
<!-- Node2&#45;&gt;Node1 -->
<g id="edge6" class="edge"><title>Node2&#45;&gt;Node1</title>
<path fill="none" stroke="midnightblue" d="M171.458,-141.691C172.106,-150.635 171.676,-160.927 170.166,-168.083"/>
<polygon fill="midnightblue" stroke="midnightblue" points="174.923,-141.2 170.131,-131.751 167.985,-142.126 174.923,-141.2"/>
</g>
<!-- Node3 -->
<g id="node3" class="node"><title>Node3</title>
<g id="a_node3"><a xlink:href="d_link_list_8h.html" target="_top" xlink:title="双链表类">
<polygon fill="white" stroke="black" points="0,-56.5 0,-75.5 98,-75.5 98,-56.5 0,-56.5"/>
<text text-anchor="middle" x="49" y="-63.5" font-family="Helvetica,sans-Serif" font-size="10.00">include/dLinkList.h</text>
</a>
</g>
</g>
<!-- Node2&#45;&gt;Node3 -->
<g id="edge2" class="edge"><title>Node2&#45;&gt;Node3</title>
<path fill="none" stroke="midnightblue" d="M132.048,-108.368C108.87,-98.2553 79.2415,-84.3486 62.2146,-75.5164"/>
<polygon fill="midnightblue" stroke="midnightblue" points="130.961,-111.71 141.531,-112.444 133.725,-105.279 130.961,-111.71"/>
</g>
<!-- Node4 -->
<g id="node4" class="node"><title>Node4</title>
<g id="a_node4"><a xlink:href="s_link_list_8h.html" target="_top" xlink:title="单链表类的定义和实现">
<polygon fill="white" stroke="black" points="116,-56.5 116,-75.5 214,-75.5 214,-56.5 116,-56.5"/>
<text text-anchor="middle" x="165" y="-63.5" font-family="Helvetica,sans-Serif" font-size="10.00">include/sLinkList.h</text>
</a>
</g>
</g>
<!-- Node2&#45;&gt;Node4 -->
<g id="edge4" class="edge"><title>Node2&#45;&gt;Node4</title>
<path fill="none" stroke="midnightblue" d="M158.528,-102.101C157.896,-93.1357 158.343,-82.8579 159.869,-75.7511"/>
<polygon fill="midnightblue" stroke="midnightblue" points="155.066,-102.622 159.834,-112.083 162.007,-101.713 155.066,-102.622"/>
</g>
<!-- Node5 -->
<g id="node5" class="node"><title>Node5</title>
<g id="a_node5"><a xlink:href="_rpn_8hh.html" target="_top" xlink:title="后缀表达式类">
<polygon fill="white" stroke="black" points="232.5,-56.5 232.5,-75.5 313.5,-75.5 313.5,-56.5 232.5,-56.5"/>
<text text-anchor="middle" x="273" y="-63.5" font-family="Helvetica,sans-Serif" font-size="10.00">include/Rpn.hh</text>
</a>
</g>
</g>
<!-- Node2&#45;&gt;Node5 -->
<g id="edge7" class="edge"><title>Node2&#45;&gt;Node5</title>
<path fill="none" stroke="midnightblue" d="M191.548,-107.726C211.546,-97.7271 238.387,-84.3065 255.691,-75.6545"/>
<polygon fill="midnightblue" stroke="midnightblue" points="189.731,-104.721 182.352,-112.324 192.862,-110.982 189.731,-104.721"/>
</g>
<!-- Node3&#45;&gt;Node2 -->
<g id="edge3" class="edge"><title>Node3&#45;&gt;Node2</title>
<path fill="none" stroke="midnightblue" d="M82.1245,-79.7074C105.138,-89.7527 134.445,-103.507 151.477,-112.324"/>
<polygon fill="midnightblue" stroke="midnightblue" points="83.2706,-76.3904 72.7013,-75.6545 80.5048,-82.8208 83.2706,-76.3904"/>
</g>
<!-- Node4&#45;&gt;Node2 -->
<g id="edge5" class="edge"><title>Node4&#45;&gt;Node2</title>
<path fill="none" stroke="midnightblue" d="M171.458,-85.6911C172.106,-94.6353 171.676,-104.927 170.166,-112.083"/>
<polygon fill="midnightblue" stroke="midnightblue" points="174.923,-85.2002 170.131,-75.7511 167.985,-86.1262 174.923,-85.2002"/>
</g>
<!-- Node6 -->
<g id="node6" class="node"><title>Node6</title>
<g id="a_node6"><a xlink:href="ch3__4_8cc.html" target="_top" xlink:title=" ">
<polygon fill="white" stroke="black" points="190.5,-0.5 190.5,-19.5 263.5,-19.5 263.5,-0.5 190.5,-0.5"/>
<text text-anchor="middle" x="227" y="-7.5" font-family="Helvetica,sans-Serif" font-size="10.00">src/ch3_4.cc</text>
</a>
</g>
</g>
<!-- Node5&#45;&gt;Node6 -->
<g id="edge8" class="edge"><title>Node5&#45;&gt;Node6</title>
<path fill="none" stroke="midnightblue" d="M258.886,-48.4314C250.824,-38.9673 241.041,-27.4827 234.455,-19.7511"/>
<polygon fill="midnightblue" stroke="midnightblue" points="256.255,-50.7402 265.404,-56.083 261.584,-46.2009 256.255,-50.7402"/>
</g>
<!-- Node7 -->
<g id="node7" class="node"><title>Node7</title>
<g id="a_node7"><a xlink:href="ch3__5_8cc.html" target="_top" xlink:title=" ">
<polygon fill="white" stroke="black" points="281.5,-0.5 281.5,-19.5 354.5,-19.5 354.5,-0.5 281.5,-0.5"/>
<text text-anchor="middle" x="318" y="-7.5" font-family="Helvetica,sans-Serif" font-size="10.00">src/ch3_5.cc</text>
</a>
</g>
</g>
<!-- Node5&#45;&gt;Node7 -->
<g id="edge9" class="edge"><title>Node5&#45;&gt;Node7</title>
<path fill="none" stroke="midnightblue" d="M287.047,-48.144C294.887,-38.7357 304.329,-27.4046 310.707,-19.7511"/>
<polygon fill="midnightblue" stroke="midnightblue" points="284.144,-46.1601 280.431,-56.083 289.521,-50.6414 284.144,-46.1601"/>
</g>
</g>
</svg>
