<?xml version="1.0" encoding="UTF-8" standalone="no"?>
<!DOCTYPE svg PUBLIC "-//W3C//DTD SVG 1.1//EN"
 "http://www.w3.org/Graphics/SVG/1.1/DTD/svg11.dtd">
<!-- Generated by graphviz version 2.38.0 (20140413.2041)
 -->
<!-- Title: RPN::Rpn_t::Item::Item Pages: 1 -->
<svg width="690pt" height="66pt"
 viewBox="0.00 0.00 690.00 66.00" xmlns="http://www.w3.org/2000/svg" xmlns:xlink="http://www.w3.org/1999/xlink">
<g id="graph0" class="graph" transform="scale(1 1) rotate(0) translate(4 62)">
<title>RPN::Rpn_t::Item::Item</title>
<polygon fill="white" stroke="none" points="-4,4 -4,-62 686,-62 686,4 -4,4"/>
<!-- Node1 -->
<g id="node1" class="node"><title>Node1</title>
<g id="a_node1"><a xlink:title="Construct a new Item object.">
<polygon fill="#bfbfbf" stroke="black" points="564,-19.5 564,-38.5 682,-38.5 682,-19.5 564,-19.5"/>
<text text-anchor="middle" x="623" y="-26.5" font-family="Helvetica,sans-Serif" font-size="10.00">RPN::Rpn_t::Item::Item</text>
</a>
</g>
</g>
<!-- Node2 -->
<g id="node2" class="node"><title>Node2</title>
<g id="a_node2"><a xlink:href="struct_r_p_n_1_1_rpn__t_1_1_item.html#ab22913295d9ad6d4cd8ba84105eb13f3" target="_top" xlink:title="获得一个NAO(非法操作符)">
<polygon fill="white" stroke="black" points="413,-19.5 413,-38.5 528,-38.5 528,-19.5 413,-19.5"/>
<text text-anchor="middle" x="470.5" y="-26.5" font-family="Helvetica,sans-Serif" font-size="10.00">RPN::Rpn_t::Item::nao</text>
</a>
</g>
</g>
<!-- Node1&#45;&gt;Node2 -->
<g id="edge1" class="edge"><title>Node1&#45;&gt;Node2</title>
<path fill="none" stroke="midnightblue" d="M553.791,-29C545.182,-29 536.449,-29 528.048,-29"/>
<polygon fill="midnightblue" stroke="midnightblue" points="553.813,-32.5001 563.813,-29 553.813,-25.5001 553.813,-32.5001"/>
</g>
<!-- Node3 -->
<g id="node3" class="node"><title>Node3</title>
<g id="a_node3"><a xlink:href="class_r_p_n_1_1_rpn__t.html#a8dd551d02431c034e10f256ff384c39f" target="_top" xlink:title="用一个中缀list创建一个后缀list">
<polygon fill="white" stroke="black" points="213,-19.5 213,-38.5 377,-38.5 377,-19.5 213,-19.5"/>
<text text-anchor="middle" x="295" y="-26.5" font-family="Helvetica,sans-Serif" font-size="10.00">RPN::Rpn_t::infixListToPostfixList</text>
</a>
</g>
</g>
<!-- Node2&#45;&gt;Node3 -->
<g id="edge2" class="edge"><title>Node2&#45;&gt;Node3</title>
<path fill="none" stroke="midnightblue" d="M402.66,-29C394.314,-29 385.708,-29 377.174,-29"/>
<polygon fill="midnightblue" stroke="midnightblue" points="402.69,-32.5001 412.69,-29 402.69,-25.5001 402.69,-32.5001"/>
</g>
<!-- Node4 -->
<g id="node4" class="node"><title>Node4</title>
<g id="a_node4"><a xlink:href="class_r_p_n_1_1_rpn__t.html#a13f84208d6722039432be70b4bffee8c" target="_top" xlink:title="设置Rpn_t类对象的值">
<polygon fill="white" stroke="black" points="74,-38.5 74,-57.5 177,-57.5 177,-38.5 74,-38.5"/>
<text text-anchor="middle" x="125.5" y="-45.5" font-family="Helvetica,sans-Serif" font-size="10.00">RPN::Rpn_t::assign</text>
</a>
</g>
</g>
<!-- Node3&#45;&gt;Node4 -->
<g id="edge3" class="edge"><title>Node3&#45;&gt;Node4</title>
<path fill="none" stroke="midnightblue" d="M202.726,-39.3535C193.913,-40.3532 185.211,-41.3402 177.016,-42.2698"/>
<polygon fill="midnightblue" stroke="midnightblue" points="203.162,-42.8266 212.703,-38.2217 202.373,-35.8712 203.162,-42.8266"/>
</g>
<!-- Node6 -->
<g id="node6" class="node"><title>Node6</title>
<g id="a_node6"><a xlink:href="class_r_p_n_1_1_rpn__t.html#a2328e43bfa616ee63c9bf475188ca511" target="_top" xlink:title="Construct a new Rpn_t object.">
<polygon fill="white" stroke="black" points="75.5,-0.5 75.5,-19.5 175.5,-19.5 175.5,-0.5 75.5,-0.5"/>
<text text-anchor="middle" x="125.5" y="-7.5" font-family="Helvetica,sans-Serif" font-size="10.00">RPN::Rpn_t::Rpn_t</text>
</a>
</g>
</g>
<!-- Node3&#45;&gt;Node6 -->
<g id="edge5" class="edge"><title>Node3&#45;&gt;Node6</title>
<path fill="none" stroke="midnightblue" d="M202.613,-18.6337C193.34,-17.5818 184.192,-16.5442 175.631,-15.573"/>
<polygon fill="midnightblue" stroke="midnightblue" points="202.373,-22.1288 212.703,-19.7783 203.162,-15.1734 202.373,-22.1288"/>
</g>
<!-- Node5 -->
<g id="node5" class="node"><title>Node5</title>
<g id="a_node5"><a xlink:href="ch3__5_8cc.html#abf9e6b7e6f15df4b525a2e7705ba3089" target="_top" xlink:title=" ">
<polygon fill="white" stroke="black" points="0,-38.5 0,-57.5 38,-57.5 38,-38.5 0,-38.5"/>
<text text-anchor="middle" x="19" y="-45.5" font-family="Helvetica,sans-Serif" font-size="10.00">main</text>
</a>
</g>
</g>
<!-- Node4&#45;&gt;Node5 -->
<g id="edge4" class="edge"><title>Node4&#45;&gt;Node5</title>
<path fill="none" stroke="midnightblue" d="M63.7001,-48C54.4902,-48 45.6446,-48 38.3502,-48"/>
<polygon fill="midnightblue" stroke="midnightblue" points="63.7806,-51.5001 73.7806,-48 63.7805,-44.5001 63.7806,-51.5001"/>
</g>
</g>
</svg>
