<?xml version="1.0" encoding="UTF-8" standalone="no"?>
<!DOCTYPE svg PUBLIC "-//W3C//DTD SVG 1.1//EN"
 "http://www.w3.org/Graphics/SVG/1.1/DTD/svg11.dtd">
<!-- Generated by graphviz version 2.38.0 (20140413.2041)
 -->
<!-- Title: main Pages: 1 -->
<svg width="117pt" height="104pt"
 viewBox="0.00 0.00 117.00 104.00" xmlns="http://www.w3.org/2000/svg" xmlns:xlink="http://www.w3.org/1999/xlink">
<g id="graph0" class="graph" transform="scale(1 1) rotate(0) translate(4 100)">
<title>main</title>
<polygon fill="white" stroke="none" points="-4,4 -4,-100 113,-100 113,4 -4,4"/>
<!-- Node1 -->
<g id="node1" class="node"><title>Node1</title>
<g id="a_node1"><a xlink:title=" ">
<polygon fill="#bfbfbf" stroke="black" points="0,-38.5 0,-57.5 38,-57.5 38,-38.5 0,-38.5"/>
<text text-anchor="middle" x="19" y="-45.5" font-family="Helvetica,sans-Serif" font-size="10.00">main</text>
</a>
</g>
</g>
<!-- Node2 -->
<g id="node2" class="node"><title>Node2</title>
<g id="a_node2"><a xlink:href="a04532.html#a6b4dabde63e1dea8e4f855a3b6d765c2" target="_top" xlink:title=" ">
<polygon fill="white" stroke="black" points="74,-76.5 74,-95.5 109,-95.5 109,-76.5 74,-76.5"/>
<text text-anchor="middle" x="91.5" y="-83.5" font-family="Helvetica,sans-Serif" font-size="10.00">fun1</text>
</a>
</g>
</g>
<!-- Node1&#45;&gt;Node2 -->
<g id="edge1" class="edge"><title>Node1&#45;&gt;Node2</title>
<path fill="none" stroke="midnightblue" d="M37.7901,-57.589C46.0248,-62.0276 55.9603,-67.3828 64.9751,-72.2419"/>
<polygon fill="midnightblue" stroke="midnightblue" points="63.463,-75.4029 73.9263,-77.0667 66.7843,-69.241 63.463,-75.4029"/>
</g>
<!-- Node3 -->
<g id="node3" class="node"><title>Node3</title>
<g id="a_node3"><a xlink:href="a04535.html#a27d350bdca17f3959a02aed84c648a06" target="_top" xlink:title=" ">
<polygon fill="white" stroke="black" points="74,-38.5 74,-57.5 109,-57.5 109,-38.5 74,-38.5"/>
<text text-anchor="middle" x="91.5" y="-45.5" font-family="Helvetica,sans-Serif" font-size="10.00">fun2</text>
</a>
</g>
</g>
<!-- Node1&#45;&gt;Node3 -->
<g id="edge2" class="edge"><title>Node1&#45;&gt;Node3</title>
<path fill="none" stroke="midnightblue" d="M38.1555,-48C45.8434,-48 54.9627,-48 63.4184,-48"/>
<polygon fill="midnightblue" stroke="midnightblue" points="63.6163,-51.5001 73.6163,-48 63.6163,-44.5001 63.6163,-51.5001"/>
</g>
<!-- Node4 -->
<g id="node4" class="node"><title>Node4</title>
<g id="a_node4"><a xlink:href="a04538.html#a951fdcad6d037adbc06bcd92d47077d0" target="_top" xlink:title=" ">
<polygon fill="white" stroke="black" points="74,-0.5 74,-19.5 109,-19.5 109,-0.5 74,-0.5"/>
<text text-anchor="middle" x="91.5" y="-7.5" font-family="Helvetica,sans-Serif" font-size="10.00">fun3</text>
</a>
</g>
</g>
<!-- Node1&#45;&gt;Node4 -->
<g id="edge3" class="edge"><title>Node1&#45;&gt;Node4</title>
<path fill="none" stroke="midnightblue" d="M37.7901,-38.411C46.0248,-33.9724 55.9603,-28.6172 64.9751,-23.7581"/>
<polygon fill="midnightblue" stroke="midnightblue" points="66.7843,-26.759 73.9263,-18.9333 63.463,-20.5971 66.7843,-26.759"/>
</g>
</g>
</svg>
