<?xml version="1.0" encoding="UTF-8" standalone="no"?>
<!DOCTYPE svg PUBLIC "-//W3C//DTD SVG 1.1//EN"
 "http://www.w3.org/Graphics/SVG/1.1/DTD/svg11.dtd">
<!-- Generated by graphviz version 2.38.0 (20140413.2041)
 -->
<!-- Title: cmake/func/func.h Pages: 1 -->
<svg width="472pt" height="84pt"
 viewBox="0.00 0.00 472.00 84.00" xmlns="http://www.w3.org/2000/svg" xmlns:xlink="http://www.w3.org/1999/xlink">
<g id="graph0" class="graph" transform="scale(1 1) rotate(0) translate(4 80)">
<title>cmake/func/func.h</title>
<polygon fill="white" stroke="none" points="-4,4 -4,-80 468,-80 468,4 -4,4"/>
<!-- Node1 -->
<g id="node1" class="node"><title>Node1</title>
<g id="a_node1"><a xlink:title=" ">
<polygon fill="#bfbfbf" stroke="black" points="192.5,-56.5 192.5,-75.5 288.5,-75.5 288.5,-56.5 192.5,-56.5"/>
<text text-anchor="middle" x="240.5" y="-63.5" font-family="Helvetica,sans-Serif" font-size="10.00">cmake/func/func.h</text>
</a>
</g>
</g>
<!-- Node2 -->
<g id="node2" class="node"><title>Node2</title>
<g id="a_node2"><a xlink:href="a04532.html" target="_top" xlink:title=" ">
<polygon fill="white" stroke="black" points="0,-0.5 0,-19.5 107,-19.5 107,-0.5 0,-0.5"/>
<text text-anchor="middle" x="53.5" y="-7.5" font-family="Helvetica,sans-Serif" font-size="10.00">cmake/func/fun1.cxx</text>
</a>
</g>
</g>
<!-- Node1&#45;&gt;Node2 -->
<g id="edge1" class="edge"><title>Node1&#45;&gt;Node2</title>
<path fill="none" stroke="midnightblue" d="M200.91,-53.5677C165.634,-43.381 114.806,-28.7034 82.9921,-19.5164"/>
<polygon fill="midnightblue" stroke="midnightblue" points="200.291,-57.0317 210.869,-56.4435 202.233,-50.3065 200.291,-57.0317"/>
</g>
<!-- Node3 -->
<g id="node3" class="node"><title>Node3</title>
<g id="a_node3"><a xlink:href="a04535.html" target="_top" xlink:title=" ">
<polygon fill="white" stroke="black" points="125,-0.5 125,-19.5 232,-19.5 232,-0.5 125,-0.5"/>
<text text-anchor="middle" x="178.5" y="-7.5" font-family="Helvetica,sans-Serif" font-size="10.00">cmake/func/fun2.cxx</text>
</a>
</g>
</g>
<!-- Node1&#45;&gt;Node3 -->
<g id="edge2" class="edge"><title>Node1&#45;&gt;Node3</title>
<path fill="none" stroke="midnightblue" d="M222.746,-49.5372C211.692,-39.9087 197.869,-27.8694 188.643,-19.8339"/>
<polygon fill="midnightblue" stroke="midnightblue" points="220.699,-52.3954 230.539,-56.324 225.297,-47.1168 220.699,-52.3954"/>
</g>
<!-- Node4 -->
<g id="node4" class="node"><title>Node4</title>
<g id="a_node4"><a xlink:href="a04538.html" target="_top" xlink:title=" ">
<polygon fill="white" stroke="black" points="250,-0.5 250,-19.5 357,-19.5 357,-0.5 250,-0.5"/>
<text text-anchor="middle" x="303.5" y="-7.5" font-family="Helvetica,sans-Serif" font-size="10.00">cmake/func/fun3.cxx</text>
</a>
</g>
</g>
<!-- Node1&#45;&gt;Node4 -->
<g id="edge3" class="edge"><title>Node1&#45;&gt;Node4</title>
<path fill="none" stroke="midnightblue" d="M258.54,-49.5372C269.773,-39.9087 283.819,-27.8694 293.194,-19.8339"/>
<polygon fill="midnightblue" stroke="midnightblue" points="255.937,-47.1586 250.622,-56.324 260.492,-52.4734 255.937,-47.1586"/>
</g>
<!-- Node5 -->
<g id="node5" class="node"><title>Node5</title>
<g id="a_node5"><a xlink:href="a04544.html" target="_top" xlink:title=" ">
<polygon fill="white" stroke="black" points="375,-0.5 375,-19.5 464,-19.5 464,-0.5 375,-0.5"/>
<text text-anchor="middle" x="419.5" y="-7.5" font-family="Helvetica,sans-Serif" font-size="10.00">cmake/main.cxx</text>
</a>
</g>
</g>
<!-- Node1&#45;&gt;Node5 -->
<g id="edge4" class="edge"><title>Node1&#45;&gt;Node5</title>
<path fill="none" stroke="midnightblue" d="M278.831,-53.4363C312.58,-43.2551 360.947,-28.664 391.27,-19.5164"/>
<polygon fill="midnightblue" stroke="midnightblue" points="277.426,-50.2044 268.863,-56.4435 279.448,-56.9061 277.426,-50.2044"/>
</g>
</g>
</svg>
