<?xml version="1.0" encoding="UTF-8" standalone="no"?>
<!DOCTYPE svg PUBLIC "-//W3C//DTD SVG 1.1//EN"
 "http://www.w3.org/Graphics/SVG/1.1/DTD/svg11.dtd">
<!-- Generated by graphviz version 2.38.0 (20140413.2041)
 -->
<!-- Title: include/Queue.h Pages: 1 -->
<svg width="332pt" height="140pt"
 viewBox="0.00 0.00 331.50 140.00" xmlns="http://www.w3.org/2000/svg" xmlns:xlink="http://www.w3.org/1999/xlink">
<g id="graph0" class="graph" transform="scale(1 1) rotate(0) translate(4 136)">
<title>include/Queue.h</title>
<polygon fill="white" stroke="none" points="-4,4 -4,-136 327.5,-136 327.5,4 -4,4"/>
<!-- Node1 -->
<g id="node1" class="node"><title>Node1</title>
<g id="a_node1"><a xlink:title=" ">
<polygon fill="#bfbfbf" stroke="black" points="151.5,-112.5 151.5,-131.5 238.5,-131.5 238.5,-112.5 151.5,-112.5"/>
<text text-anchor="middle" x="195" y="-119.5" font-family="Helvetica,sans-Serif" font-size="10.00">include/Queue.h</text>
</a>
</g>
</g>
<!-- Node2 -->
<g id="node2" class="node"><title>Node2</title>
<g id="a_node2"><a xlink:title=" ">
<polygon fill="white" stroke="#bfbfbf" points="0,-56.5 0,-75.5 48,-75.5 48,-56.5 0,-56.5"/>
<text text-anchor="middle" x="24" y="-63.5" font-family="Helvetica,sans-Serif" font-size="10.00">cstddef</text>
</a>
</g>
</g>
<!-- Node1&#45;&gt;Node2 -->
<g id="edge1" class="edge"><title>Node1&#45;&gt;Node2</title>
<path fill="none" stroke="midnightblue" d="M167.905,-112.444C138.162,-103.051 90.3584,-87.9553 58.0916,-77.7658"/>
<polygon fill="midnightblue" stroke="midnightblue" points="58.7937,-74.3172 48.2039,-74.6433 56.6857,-80.9923 58.7937,-74.3172"/>
</g>
<!-- Node3 -->
<g id="node3" class="node"><title>Node3</title>
<g id="a_node3"><a xlink:href="link_queue_8hh.html" target="_top" xlink:title=" ">
<polygon fill="white" stroke="black" points="66,-56.5 66,-75.5 140,-75.5 140,-56.5 66,-56.5"/>
<text text-anchor="middle" x="103" y="-63.5" font-family="Helvetica,sans-Serif" font-size="10.00">linkQueue.hh</text>
</a>
</g>
</g>
<!-- Node1&#45;&gt;Node3 -->
<g id="edge2" class="edge"><title>Node1&#45;&gt;Node3</title>
<path fill="none" stroke="midnightblue" d="M175.104,-112.324C159.08,-103.979 137.019,-91.2122 121.409,-81.3524"/>
<polygon fill="midnightblue" stroke="midnightblue" points="122.928,-78.1653 112.635,-75.6545 119.115,-84.0361 122.928,-78.1653"/>
</g>
<!-- Node5 -->
<g id="node5" class="node"><title>Node5</title>
<g id="a_node5"><a xlink:href="seq_queue_8hh.html" target="_top" xlink:title=" ">
<polygon fill="white" stroke="black" points="158,-56.5 158,-75.5 232,-75.5 232,-56.5 158,-56.5"/>
<text text-anchor="middle" x="195" y="-63.5" font-family="Helvetica,sans-Serif" font-size="10.00">seqQueue.hh</text>
</a>
</g>
</g>
<!-- Node1&#45;&gt;Node5 -->
<g id="edge5" class="edge"><title>Node1&#45;&gt;Node5</title>
<path fill="none" stroke="midnightblue" d="M189.834,-112.083C188.324,-104.927 187.894,-94.6353 188.542,-85.6911"/>
<polygon fill="midnightblue" stroke="midnightblue" points="192.015,-86.1262 189.869,-75.7511 185.077,-85.2002 192.015,-86.1262"/>
</g>
<!-- Node6 -->
<g id="node6" class="node"><title>Node6</title>
<g id="a_node6"><a xlink:href="vec_queue_8hh.html" target="_top" xlink:title=" ">
<polygon fill="white" stroke="black" points="250.5,-56.5 250.5,-75.5 323.5,-75.5 323.5,-56.5 250.5,-56.5"/>
<text text-anchor="middle" x="287" y="-63.5" font-family="Helvetica,sans-Serif" font-size="10.00">vecQueue.hh</text>
</a>
</g>
</g>
<!-- Node1&#45;&gt;Node6 -->
<g id="edge8" class="edge"><title>Node1&#45;&gt;Node6</title>
<path fill="none" stroke="midnightblue" d="M204.667,-112.324C217.487,-103.703 239.944,-90.3643 258.274,-80.3855"/>
<polygon fill="midnightblue" stroke="midnightblue" points="259.969,-83.4486 267.145,-75.6545 256.675,-77.2721 259.969,-83.4486"/>
</g>
<!-- Node3&#45;&gt;Node1 -->
<g id="edge3" class="edge"><title>Node3&#45;&gt;Node1</title>
<path fill="none" stroke="midnightblue" d="M122.855,-75.6545C138.869,-83.9919 160.929,-96.7574 176.551,-106.622"/>
<polygon fill="midnightblue" stroke="midnightblue" points="175.04,-109.814 185.333,-112.324 178.852,-103.943 175.04,-109.814"/>
</g>
<!-- Node4 -->
<g id="node4" class="node"><title>Node4</title>
<g id="a_node4"><a xlink:title=" ">
<polygon fill="white" stroke="#bfbfbf" points="175,-0.5 175,-19.5 215,-19.5 215,-0.5 175,-0.5"/>
<text text-anchor="middle" x="195" y="-7.5" font-family="Helvetica,sans-Serif" font-size="10.00">utility</text>
</a>
</g>
</g>
<!-- Node3&#45;&gt;Node4 -->
<g id="edge4" class="edge"><title>Node3&#45;&gt;Node4</title>
<path fill="none" stroke="midnightblue" d="M117.781,-56.324C132.267,-47.8215 154.573,-34.7288 171.493,-24.7975"/>
<polygon fill="midnightblue" stroke="midnightblue" points="173.403,-27.735 180.255,-19.6545 169.859,-21.6981 173.403,-27.735"/>
</g>
<!-- Node5&#45;&gt;Node1 -->
<g id="edge6" class="edge"><title>Node5&#45;&gt;Node1</title>
<path fill="none" stroke="midnightblue" d="M200.131,-75.7511C201.657,-82.8579 202.104,-93.1357 201.472,-102.101"/>
<polygon fill="midnightblue" stroke="midnightblue" points="197.993,-101.713 200.166,-112.083 204.934,-102.622 197.993,-101.713"/>
</g>
<!-- Node5&#45;&gt;Node4 -->
<g id="edge7" class="edge"><title>Node5&#45;&gt;Node4</title>
<path fill="none" stroke="midnightblue" d="M195,-56.083C195,-49.0059 195,-38.8611 195,-29.9865"/>
<polygon fill="midnightblue" stroke="midnightblue" points="198.5,-29.751 195,-19.7511 191.5,-29.7511 198.5,-29.751"/>
</g>
<!-- Node6&#45;&gt;Node1 -->
<g id="edge9" class="edge"><title>Node6&#45;&gt;Node1</title>
<path fill="none" stroke="midnightblue" d="M277.365,-75.6545C264.561,-84.2672 242.108,-97.6052 223.771,-107.59"/>
<polygon fill="midnightblue" stroke="midnightblue" points="222.072,-104.529 214.896,-112.324 225.367,-110.705 222.072,-104.529"/>
</g>
<!-- Node6&#45;&gt;Node4 -->
<g id="edge10" class="edge"><title>Node6&#45;&gt;Node4</title>
<path fill="none" stroke="midnightblue" d="M272.219,-56.324C257.733,-47.8215 235.427,-34.7288 218.507,-24.7975"/>
<polygon fill="midnightblue" stroke="midnightblue" points="220.141,-21.6981 209.745,-19.6545 216.597,-27.735 220.141,-21.6981"/>
</g>
</g>
</svg>
