<?xml version="1.0" encoding="UTF-8" standalone="no"?>
<!DOCTYPE svg PUBLIC "-//W3C//DTD SVG 1.1//EN"
 "http://www.w3.org/Graphics/SVG/1.1/DTD/svg11.dtd">
<!-- Generated by graphviz version 2.38.0 (20140413.2041)
 -->
<!-- Title: include/vecQueue.hh Pages: 1 -->
<svg width="328pt" height="140pt"
 viewBox="0.00 0.00 327.50 140.00" xmlns="http://www.w3.org/2000/svg" xmlns:xlink="http://www.w3.org/1999/xlink">
<g id="graph0" class="graph" transform="scale(1 1) rotate(0) translate(4 136)">
<title>include/vecQueue.hh</title>
<polygon fill="white" stroke="none" points="-4,4 -4,-136 323.5,-136 323.5,4 -4,4"/>
<!-- Node1 -->
<g id="node1" class="node"><title>Node1</title>
<g id="a_node1"><a xlink:title=" ">
<polygon fill="#bfbfbf" stroke="black" points="126,-112.5 126,-131.5 233,-131.5 233,-112.5 126,-112.5"/>
<text text-anchor="middle" x="179.5" y="-119.5" font-family="Helvetica,sans-Serif" font-size="10.00">include/vecQueue.hh</text>
</a>
</g>
</g>
<!-- Node2 -->
<g id="node2" class="node"><title>Node2</title>
<g id="a_node2"><a xlink:href="a04523.html" target="_top" xlink:title=" ">
<polygon fill="white" stroke="black" points="136,-56.5 136,-75.5 223,-75.5 223,-56.5 136,-56.5"/>
<text text-anchor="middle" x="179.5" y="-63.5" font-family="Helvetica,sans-Serif" font-size="10.00">include/Queue.h</text>
</a>
</g>
</g>
<!-- Node1&#45;&gt;Node2 -->
<g id="edge1" class="edge"><title>Node1&#45;&gt;Node2</title>
<path fill="none" stroke="midnightblue" d="M173.028,-102.101C172.396,-93.1357 172.843,-82.8579 174.369,-75.7511"/>
<polygon fill="midnightblue" stroke="midnightblue" points="169.566,-102.622 174.334,-112.083 176.507,-101.713 169.566,-102.622"/>
</g>
<!-- Node2&#45;&gt;Node1 -->
<g id="edge6" class="edge"><title>Node2&#45;&gt;Node1</title>
<path fill="none" stroke="midnightblue" d="M185.958,-85.6911C186.606,-94.6353 186.176,-104.927 184.666,-112.083"/>
<polygon fill="midnightblue" stroke="midnightblue" points="189.423,-85.2002 184.631,-75.7511 182.485,-86.1262 189.423,-85.2002"/>
</g>
<!-- Node3 -->
<g id="node3" class="node"><title>Node3</title>
<g id="a_node3"><a xlink:href="a04520.html" target="_top" xlink:title=" ">
<polygon fill="white" stroke="black" points="0,-0.5 0,-19.5 107,-19.5 107,-0.5 0,-0.5"/>
<text text-anchor="middle" x="53.5" y="-7.5" font-family="Helvetica,sans-Serif" font-size="10.00">include/linkQueue.hh</text>
</a>
</g>
</g>
<!-- Node2&#45;&gt;Node3 -->
<g id="edge2" class="edge"><title>Node2&#45;&gt;Node3</title>
<path fill="none" stroke="midnightblue" d="M144.878,-52.6377C119.734,-42.504 87.1209,-28.4274 68.2917,-19.5164"/>
<polygon fill="midnightblue" stroke="midnightblue" points="143.861,-55.9998 154.446,-56.4435 146.448,-49.4954 143.861,-55.9998"/>
</g>
<!-- Node4 -->
<g id="node4" class="node"><title>Node4</title>
<g id="a_node4"><a xlink:href="a04526.html" target="_top" xlink:title=" ">
<polygon fill="white" stroke="black" points="125.5,-0.5 125.5,-19.5 233.5,-19.5 233.5,-0.5 125.5,-0.5"/>
<text text-anchor="middle" x="179.5" y="-7.5" font-family="Helvetica,sans-Serif" font-size="10.00">include/seqQueue.hh</text>
</a>
</g>
</g>
<!-- Node2&#45;&gt;Node4 -->
<g id="edge4" class="edge"><title>Node2&#45;&gt;Node4</title>
<path fill="none" stroke="midnightblue" d="M173.028,-46.1005C172.396,-37.1357 172.843,-26.8579 174.369,-19.7511"/>
<polygon fill="midnightblue" stroke="midnightblue" points="169.566,-46.6216 174.334,-56.083 176.507,-45.7134 169.566,-46.6216"/>
</g>
<!-- Node5 -->
<g id="node5" class="node"><title>Node5</title>
<g id="a_node5"><a xlink:href="a04535.html" target="_top" xlink:title=" ">
<polygon fill="white" stroke="black" points="251.5,-0.5 251.5,-19.5 319.5,-19.5 319.5,-0.5 251.5,-0.5"/>
<text text-anchor="middle" x="285.5" y="-7.5" font-family="Helvetica,sans-Serif" font-size="10.00">src/test0.cc</text>
</a>
</g>
</g>
<!-- Node2&#45;&gt;Node5 -->
<g id="edge7" class="edge"><title>Node2&#45;&gt;Node5</title>
<path fill="none" stroke="midnightblue" d="M205.556,-51.7261C225.184,-41.7271 251.528,-28.3065 268.512,-19.6545"/>
<polygon fill="midnightblue" stroke="midnightblue" points="203.852,-48.666 196.531,-56.324 207.03,-54.9033 203.852,-48.666"/>
</g>
<!-- Node3&#45;&gt;Node2 -->
<g id="edge3" class="edge"><title>Node3&#45;&gt;Node2</title>
<path fill="none" stroke="midnightblue" d="M88.0095,-23.3168C113.131,-33.4387 145.753,-47.5171 164.624,-56.4435"/>
<polygon fill="midnightblue" stroke="midnightblue" points="89.0372,-19.959 78.4516,-19.5164 86.4508,-26.4636 89.0372,-19.959"/>
</g>
<!-- Node4&#45;&gt;Node2 -->
<g id="edge5" class="edge"><title>Node4&#45;&gt;Node2</title>
<path fill="none" stroke="midnightblue" d="M185.958,-29.6911C186.606,-38.6353 186.176,-48.9272 184.666,-56.083"/>
<polygon fill="midnightblue" stroke="midnightblue" points="189.423,-29.2002 184.631,-19.7511 182.485,-30.1262 189.423,-29.2002"/>
</g>
</g>
</svg>
