<?xml version="1.0" encoding="UTF-8" standalone="no"?>
<!DOCTYPE svg PUBLIC "-//W3C//DTD SVG 1.1//EN"
 "http://www.w3.org/Graphics/SVG/1.1/DTD/svg11.dtd">
<!-- Generated by graphviz version 2.38.0 (20140413.2041)
 -->
<!-- Title: include/Queue.h Pages: 1 -->
<svg width="454pt" height="84pt"
 viewBox="0.00 0.00 453.50 84.00" xmlns="http://www.w3.org/2000/svg" xmlns:xlink="http://www.w3.org/1999/xlink">
<g id="graph0" class="graph" transform="scale(1 1) rotate(0) translate(4 80)">
<title>include/Queue.h</title>
<polygon fill="white" stroke="none" points="-4,4 -4,-80 449.5,-80 449.5,4 -4,4"/>
<!-- Node1 -->
<g id="node1" class="node"><title>Node1</title>
<g id="a_node1"><a xlink:title=" ">
<polygon fill="#bfbfbf" stroke="black" points="136,-56.5 136,-75.5 223,-75.5 223,-56.5 136,-56.5"/>
<text text-anchor="middle" x="179.5" y="-63.5" font-family="Helvetica,sans-Serif" font-size="10.00">include/Queue.h</text>
</a>
</g>
</g>
<!-- Node2 -->
<g id="node2" class="node"><title>Node2</title>
<g id="a_node2"><a xlink:href="a04520.html" target="_top" xlink:title=" ">
<polygon fill="white" stroke="black" points="0,-0.5 0,-19.5 107,-19.5 107,-0.5 0,-0.5"/>
<text text-anchor="middle" x="53.5" y="-7.5" font-family="Helvetica,sans-Serif" font-size="10.00">include/linkQueue.hh</text>
</a>
</g>
</g>
<!-- Node1&#45;&gt;Node2 -->
<g id="edge1" class="edge"><title>Node1&#45;&gt;Node2</title>
<path fill="none" stroke="midnightblue" d="M144.878,-52.6377C119.734,-42.504 87.1209,-28.4274 68.2917,-19.5164"/>
<polygon fill="midnightblue" stroke="midnightblue" points="143.861,-55.9998 154.446,-56.4435 146.448,-49.4954 143.861,-55.9998"/>
</g>
<!-- Node3 -->
<g id="node3" class="node"><title>Node3</title>
<g id="a_node3"><a xlink:href="a04526.html" target="_top" xlink:title=" ">
<polygon fill="white" stroke="black" points="125.5,-0.5 125.5,-19.5 233.5,-19.5 233.5,-0.5 125.5,-0.5"/>
<text text-anchor="middle" x="179.5" y="-7.5" font-family="Helvetica,sans-Serif" font-size="10.00">include/seqQueue.hh</text>
</a>
</g>
</g>
<!-- Node1&#45;&gt;Node3 -->
<g id="edge3" class="edge"><title>Node1&#45;&gt;Node3</title>
<path fill="none" stroke="midnightblue" d="M173.028,-46.1005C172.396,-37.1357 172.843,-26.8579 174.369,-19.7511"/>
<polygon fill="midnightblue" stroke="midnightblue" points="169.566,-46.6216 174.334,-56.083 176.507,-45.7134 169.566,-46.6216"/>
</g>
<!-- Node4 -->
<g id="node4" class="node"><title>Node4</title>
<g id="a_node4"><a xlink:href="a04529.html" target="_top" xlink:title=" ">
<polygon fill="white" stroke="black" points="252,-0.5 252,-19.5 359,-19.5 359,-0.5 252,-0.5"/>
<text text-anchor="middle" x="305.5" y="-7.5" font-family="Helvetica,sans-Serif" font-size="10.00">include/vecQueue.hh</text>
</a>
</g>
</g>
<!-- Node1&#45;&gt;Node4 -->
<g id="edge5" class="edge"><title>Node1&#45;&gt;Node4</title>
<path fill="none" stroke="midnightblue" d="M203.456,-52.2321C225.592,-42.1312 258.095,-28.3091 280.548,-19.5164"/>
<polygon fill="midnightblue" stroke="midnightblue" points="201.975,-49.0607 194.376,-56.4435 204.921,-55.4109 201.975,-49.0607"/>
</g>
<!-- Node5 -->
<g id="node5" class="node"><title>Node5</title>
<g id="a_node5"><a xlink:href="a04535.html" target="_top" xlink:title=" ">
<polygon fill="white" stroke="black" points="377.5,-0.5 377.5,-19.5 445.5,-19.5 445.5,-0.5 377.5,-0.5"/>
<text text-anchor="middle" x="411.5" y="-7.5" font-family="Helvetica,sans-Serif" font-size="10.00">src/test0.cc</text>
</a>
</g>
</g>
<!-- Node1&#45;&gt;Node5 -->
<g id="edge7" class="edge"><title>Node1&#45;&gt;Node5</title>
<path fill="none" stroke="midnightblue" d="M226.002,-54.1763C270.671,-43.7792 337.119,-28.3129 377.18,-18.9883"/>
<polygon fill="midnightblue" stroke="midnightblue" points="225.207,-50.7676 216.261,-56.4435 226.794,-57.5854 225.207,-50.7676"/>
</g>
<!-- Node2&#45;&gt;Node1 -->
<g id="edge2" class="edge"><title>Node2&#45;&gt;Node1</title>
<path fill="none" stroke="midnightblue" d="M88.0095,-23.3168C113.131,-33.4387 145.753,-47.5171 164.624,-56.4435"/>
<polygon fill="midnightblue" stroke="midnightblue" points="89.0372,-19.959 78.4516,-19.5164 86.4508,-26.4636 89.0372,-19.959"/>
</g>
<!-- Node3&#45;&gt;Node1 -->
<g id="edge4" class="edge"><title>Node3&#45;&gt;Node1</title>
<path fill="none" stroke="midnightblue" d="M185.958,-29.6911C186.606,-38.6353 186.176,-48.9272 184.666,-56.083"/>
<polygon fill="midnightblue" stroke="midnightblue" points="189.423,-29.2002 184.631,-19.7511 182.485,-30.1262 189.423,-29.2002"/>
</g>
<!-- Node4&#45;&gt;Node1 -->
<g id="edge6" class="edge"><title>Node4&#45;&gt;Node1</title>
<path fill="none" stroke="midnightblue" d="M281.347,-23.8579C259.249,-33.9355 226.937,-47.6751 204.554,-56.4435"/>
<polygon fill="midnightblue" stroke="midnightblue" points="283.109,-26.8988 290.708,-19.5164 280.164,-20.5484 283.109,-26.8988"/>
</g>
</g>
</svg>
