<?xml version="1.0" encoding="UTF-8" standalone="no"?>
<!DOCTYPE svg PUBLIC "-//W3C//DTD SVG 1.1//EN"
 "http://www.w3.org/Graphics/SVG/1.1/DTD/svg11.dtd">
<!-- Generated by graphviz version 2.38.0 (20140413.2041)
 -->
<!-- Title: include/linkQueue.hh Pages: 1 -->
<svg width="328pt" height="140pt"
 viewBox="0.00 0.00 328.00 140.00" xmlns="http://www.w3.org/2000/svg" xmlns:xlink="http://www.w3.org/1999/xlink">
<g id="graph0" class="graph" transform="scale(1 1) rotate(0) translate(4 136)">
<title>include/linkQueue.hh</title>
<polygon fill="white" stroke="none" points="-4,4 -4,-136 324,-136 324,4 -4,4"/>
<!-- Node1 -->
<g id="node1" class="node"><title>Node1</title>
<g id="a_node1"><a xlink:title=" ">
<polygon fill="#bfbfbf" stroke="black" points="126.5,-112.5 126.5,-131.5 233.5,-131.5 233.5,-112.5 126.5,-112.5"/>
<text text-anchor="middle" x="180" y="-119.5" font-family="Helvetica,sans-Serif" font-size="10.00">include/linkQueue.hh</text>
</a>
</g>
</g>
<!-- Node2 -->
<g id="node2" class="node"><title>Node2</title>
<g id="a_node2"><a xlink:href="a04523.html" target="_top" xlink:title=" ">
<polygon fill="white" stroke="black" points="136.5,-56.5 136.5,-75.5 223.5,-75.5 223.5,-56.5 136.5,-56.5"/>
<text text-anchor="middle" x="180" y="-63.5" font-family="Helvetica,sans-Serif" font-size="10.00">include/Queue.h</text>
</a>
</g>
</g>
<!-- Node1&#45;&gt;Node2 -->
<g id="edge1" class="edge"><title>Node1&#45;&gt;Node2</title>
<path fill="none" stroke="midnightblue" d="M173.528,-102.101C172.896,-93.1357 173.343,-82.8579 174.869,-75.7511"/>
<polygon fill="midnightblue" stroke="midnightblue" points="170.066,-102.622 174.834,-112.083 177.007,-101.713 170.066,-102.622"/>
</g>
<!-- Node2&#45;&gt;Node1 -->
<g id="edge2" class="edge"><title>Node2&#45;&gt;Node1</title>
<path fill="none" stroke="midnightblue" d="M186.458,-85.6911C187.106,-94.6353 186.676,-104.927 185.166,-112.083"/>
<polygon fill="midnightblue" stroke="midnightblue" points="189.923,-85.2002 185.131,-75.7511 182.985,-86.1262 189.923,-85.2002"/>
</g>
<!-- Node3 -->
<g id="node3" class="node"><title>Node3</title>
<g id="a_node3"><a xlink:href="a04526.html" target="_top" xlink:title=" ">
<polygon fill="white" stroke="black" points="0,-0.5 0,-19.5 108,-19.5 108,-0.5 0,-0.5"/>
<text text-anchor="middle" x="54" y="-7.5" font-family="Helvetica,sans-Serif" font-size="10.00">include/seqQueue.hh</text>
</a>
</g>
</g>
<!-- Node2&#45;&gt;Node3 -->
<g id="edge3" class="edge"><title>Node2&#45;&gt;Node3</title>
<path fill="none" stroke="midnightblue" d="M145.378,-52.6377C120.234,-42.504 87.6209,-28.4274 68.7917,-19.5164"/>
<polygon fill="midnightblue" stroke="midnightblue" points="144.361,-55.9998 154.946,-56.4435 146.948,-49.4954 144.361,-55.9998"/>
</g>
<!-- Node4 -->
<g id="node4" class="node"><title>Node4</title>
<g id="a_node4"><a xlink:href="a04529.html" target="_top" xlink:title=" ">
<polygon fill="white" stroke="black" points="126.5,-0.5 126.5,-19.5 233.5,-19.5 233.5,-0.5 126.5,-0.5"/>
<text text-anchor="middle" x="180" y="-7.5" font-family="Helvetica,sans-Serif" font-size="10.00">include/vecQueue.hh</text>
</a>
</g>
</g>
<!-- Node2&#45;&gt;Node4 -->
<g id="edge5" class="edge"><title>Node2&#45;&gt;Node4</title>
<path fill="none" stroke="midnightblue" d="M173.528,-46.1005C172.896,-37.1357 173.343,-26.8579 174.869,-19.7511"/>
<polygon fill="midnightblue" stroke="midnightblue" points="170.066,-46.6216 174.834,-56.083 177.007,-45.7134 170.066,-46.6216"/>
</g>
<!-- Node5 -->
<g id="node5" class="node"><title>Node5</title>
<g id="a_node5"><a xlink:href="a04535.html" target="_top" xlink:title=" ">
<polygon fill="white" stroke="black" points="252,-0.5 252,-19.5 320,-19.5 320,-0.5 252,-0.5"/>
<text text-anchor="middle" x="286" y="-7.5" font-family="Helvetica,sans-Serif" font-size="10.00">src/test0.cc</text>
</a>
</g>
</g>
<!-- Node2&#45;&gt;Node5 -->
<g id="edge7" class="edge"><title>Node2&#45;&gt;Node5</title>
<path fill="none" stroke="midnightblue" d="M206.056,-51.7261C225.684,-41.7271 252.028,-28.3065 269.012,-19.6545"/>
<polygon fill="midnightblue" stroke="midnightblue" points="204.352,-48.666 197.031,-56.324 207.53,-54.9033 204.352,-48.666"/>
</g>
<!-- Node3&#45;&gt;Node2 -->
<g id="edge4" class="edge"><title>Node3&#45;&gt;Node2</title>
<path fill="none" stroke="midnightblue" d="M88.5095,-23.3168C113.631,-33.4387 146.253,-47.5171 165.124,-56.4435"/>
<polygon fill="midnightblue" stroke="midnightblue" points="89.5372,-19.959 78.9516,-19.5164 86.9508,-26.4636 89.5372,-19.959"/>
</g>
<!-- Node4&#45;&gt;Node2 -->
<g id="edge6" class="edge"><title>Node4&#45;&gt;Node2</title>
<path fill="none" stroke="midnightblue" d="M186.458,-29.6911C187.106,-38.6353 186.676,-48.9272 185.166,-56.083"/>
<polygon fill="midnightblue" stroke="midnightblue" points="189.923,-29.2002 185.131,-19.7511 182.985,-30.1262 189.923,-29.2002"/>
</g>
</g>
</svg>
