<?xml version="1.0" encoding="UTF-8" standalone="no"?>
<!DOCTYPE svg PUBLIC "-//W3C//DTD SVG 1.1//EN"
 "http://www.w3.org/Graphics/SVG/1.1/DTD/svg11.dtd">
<!-- Generated by graphviz version 2.38.0 (20140413.2041)
 -->
<!-- Title: Queue::linkQueue&lt; T &gt; Pages: 1 -->
<svg width="284pt" height="184pt"
 viewBox="0.00 0.00 284.00 184.00" xmlns="http://www.w3.org/2000/svg" xmlns:xlink="http://www.w3.org/1999/xlink">
<g id="graph0" class="graph" transform="scale(1 1) rotate(0) translate(4 180)">
<title>Queue::linkQueue&lt; T &gt;</title>
<polygon fill="white" stroke="none" points="-4,4 -4,-180 280,-180 280,4 -4,4"/>
<!-- Node1 -->
<g id="node1" class="node"><title>Node1</title>
<g id="a_node1"><a xlink:title="链接队列类">
<polygon fill="#bfbfbf" stroke="black" points="31.5,-0.5 31.5,-19.5 149.5,-19.5 149.5,-0.5 31.5,-0.5"/>
<text text-anchor="middle" x="90.5" y="-7.5" font-family="Helvetica,sans-Serif" font-size="10.00">Queue::linkQueue&lt; T &gt;</text>
</a>
</g>
</g>
<!-- Node2 -->
<g id="node2" class="node"><title>Node2</title>
<g id="a_node2"><a xlink:href="a05363.html" target="_top" xlink:title="队列的抽象类">
<polygon fill="white" stroke="black" points="0,-84 0,-103 103,-103 103,-84 0,-84"/>
<text text-anchor="middle" x="51.5" y="-91" font-family="Helvetica,sans-Serif" font-size="10.00">Queue::Queue&lt; T &gt;</text>
</a>
</g>
</g>
<!-- Node2&#45;&gt;Node1 -->
<g id="edge1" class="edge"><title>Node2&#45;&gt;Node1</title>
<path fill="none" stroke="#8b1a1a" d="M60.1863,-74.3478C68.3317,-57.3261 80.1582,-32.6117 86.3563,-19.6592"/>
<polygon fill="#8b1a1a" stroke="#8b1a1a" points="56.8331,-73.2469 55.6737,-83.7781 63.1474,-76.2685 56.8331,-73.2469"/>
</g>
<!-- Node3 -->
<g id="node3" class="node"><title>Node3</title>
<g id="a_node3"><a xlink:href="a05359.html" target="_top" xlink:title="linkQueue的结点类">
<polygon fill="white" stroke="black" points="121,-78.5 121,-108.5 230,-108.5 230,-78.5 121,-78.5"/>
<text text-anchor="start" x="129" y="-96.5" font-family="Helvetica,sans-Serif" font-size="10.00">Queue::linkQueue&lt; T</text>
<text text-anchor="middle" x="175.5" y="-85.5" font-family="Helvetica,sans-Serif" font-size="10.00"> &gt;::node</text>
</a>
</g>
</g>
<!-- Node3&#45;&gt;Node1 -->
<g id="edge2" class="edge"><title>Node3&#45;&gt;Node1</title>
<path fill="none" stroke="#9a32cd" stroke-dasharray="5,2" d="M153.104,-71.0266C135.542,-54.1878 112.029,-31.6429 99.4058,-19.5391"/>
<polygon fill="#9a32cd" stroke="#9a32cd" points="151.054,-73.9092 160.694,-78.3038 155.898,-68.8565 151.054,-73.9092"/>
<text text-anchor="middle" x="154.5" y="-52" font-family="Helvetica,sans-Serif" font-size="10.00"> _front</text>
<text text-anchor="middle" x="154.5" y="-41" font-family="Helvetica,sans-Serif" font-size="10.00">_rear</text>
</g>
<!-- Node3&#45;&gt;Node3 -->
<g id="edge3" class="edge"><title>Node3&#45;&gt;Node3</title>
<path fill="none" stroke="#9a32cd" stroke-dasharray="5,2" d="M240.412,-98.7593C245.119,-97.5724 248,-95.8193 248,-93.5 248,-89.7891 240.625,-87.5277 230.196,-86.7159"/>
<polygon fill="#9a32cd" stroke="#9a32cd" points="239.57,-95.3462 230.196,-100.284 240.603,-102.269 239.57,-95.3462"/>
<text text-anchor="middle" x="262" y="-91" font-family="Helvetica,sans-Serif" font-size="10.00"> _next</text>
</g>
<!-- Node4 -->
<g id="node4" class="node"><title>Node4</title>
<g id="a_node4"><a xlink:title=" ">
<polygon fill="white" stroke="#bfbfbf" points="161,-156.5 161,-175.5 190,-175.5 190,-156.5 161,-156.5"/>
<text text-anchor="middle" x="175.5" y="-163.5" font-family="Helvetica,sans-Serif" font-size="10.00">T</text>
</a>
</g>
</g>
<!-- Node4&#45;&gt;Node3 -->
<g id="edge4" class="edge"><title>Node4&#45;&gt;Node3</title>
<path fill="none" stroke="#9a32cd" stroke-dasharray="5,2" d="M175.5,-146.236C175.5,-134.408 175.5,-119.383 175.5,-108.576"/>
<polygon fill="#9a32cd" stroke="#9a32cd" points="172,-146.355 175.5,-156.355 179,-146.355 172,-146.355"/>
<text text-anchor="middle" x="189.5" y="-130" font-family="Helvetica,sans-Serif" font-size="10.00"> _data</text>
</g>
</g>
</svg>
