<?xml version="1.0" encoding="UTF-8" standalone="no"?>
<!DOCTYPE svg PUBLIC "-//W3C//DTD SVG 1.1//EN"
 "http://www.w3.org/Graphics/SVG/1.1/DTD/svg11.dtd">
<!-- Generated by graphviz version 2.38.0 (20140413.2041)
 -->
<!-- Title: Queue::Queue&lt; T &gt; Pages: 1 -->
<svg width="399pt" height="84pt"
 viewBox="0.00 0.00 398.50 84.00" xmlns="http://www.w3.org/2000/svg" xmlns:xlink="http://www.w3.org/1999/xlink">
<g id="graph0" class="graph" transform="scale(1 1) rotate(0) translate(4 80)">
<title>Queue::Queue&lt; T &gt;</title>
<polygon fill="white" stroke="none" points="-4,4 -4,-80 394.5,-80 394.5,4 -4,4"/>
<!-- Node1 -->
<g id="node1" class="node"><title>Node1</title>
<g id="a_node1"><a xlink:title="队列的抽象类">
<polygon fill="#bfbfbf" stroke="black" points="144.5,-56.5 144.5,-75.5 247.5,-75.5 247.5,-56.5 144.5,-56.5"/>
<text text-anchor="middle" x="196" y="-63.5" font-family="Helvetica,sans-Serif" font-size="10.00">Queue::Queue&lt; T &gt;</text>
</a>
</g>
</g>
<!-- Node2 -->
<g id="node2" class="node"><title>Node2</title>
<g id="a_node2"><a xlink:href="class_queue_1_1link_queue.html" target="_top" xlink:title="链接队列类">
<polygon fill="white" stroke="black" points="0,-0.5 0,-19.5 118,-19.5 118,-0.5 0,-0.5"/>
<text text-anchor="middle" x="59" y="-7.5" font-family="Helvetica,sans-Serif" font-size="10.00">Queue::linkQueue&lt; T &gt;</text>
</a>
</g>
</g>
<!-- Node1&#45;&gt;Node2 -->
<g id="edge1" class="edge"><title>Node1&#45;&gt;Node2</title>
<path fill="none" stroke="#8b1a1a" d="M164.977,-52.772C139.243,-42.6287 103.314,-28.4669 80.6065,-19.5164"/>
<polygon fill="#8b1a1a" stroke="#8b1a1a" points="163.705,-56.0326 174.292,-56.4435 166.272,-49.5203 163.705,-56.0326"/>
</g>
<!-- Node3 -->
<g id="node3" class="node"><title>Node3</title>
<g id="a_node3"><a xlink:href="class_queue_1_1seq_queue.html" target="_top" xlink:title="循环队列类">
<polygon fill="white" stroke="black" points="136.5,-0.5 136.5,-19.5 255.5,-19.5 255.5,-0.5 136.5,-0.5"/>
<text text-anchor="middle" x="196" y="-7.5" font-family="Helvetica,sans-Serif" font-size="10.00">Queue::seqQueue&lt; T &gt;</text>
</a>
</g>
</g>
<!-- Node1&#45;&gt;Node3 -->
<g id="edge2" class="edge"><title>Node1&#45;&gt;Node3</title>
<path fill="none" stroke="midnightblue" d="M196,-45.8045C196,-36.9102 196,-26.7798 196,-19.7511"/>
<polygon fill="midnightblue" stroke="midnightblue" points="192.5,-46.083 196,-56.083 199.5,-46.083 192.5,-46.083"/>
</g>
<!-- Node4 -->
<g id="node4" class="node"><title>Node4</title>
<g id="a_node4"><a xlink:href="class_queue_1_1vec_queue.html" target="_top" xlink:title="队头位置固定的队列类">
<polygon fill="white" stroke="black" points="273.5,-0.5 273.5,-19.5 390.5,-19.5 390.5,-0.5 273.5,-0.5"/>
<text text-anchor="middle" x="332" y="-7.5" font-family="Helvetica,sans-Serif" font-size="10.00">Queue::vecQueue&lt; T &gt;</text>
</a>
</g>
</g>
<!-- Node1&#45;&gt;Node4 -->
<g id="edge3" class="edge"><title>Node1&#45;&gt;Node4</title>
<path fill="none" stroke="midnightblue" d="M227.135,-52.6377C252.657,-42.504 288.109,-28.4274 310.551,-19.5164"/>
<polygon fill="midnightblue" stroke="midnightblue" points="225.552,-49.5002 217.55,-56.4435 228.135,-56.0061 225.552,-49.5002"/>
</g>
</g>
</svg>
