<?xml version="1.0" encoding="UTF-8" standalone="no"?>
<!DOCTYPE svg PUBLIC "-//W3C//DTD SVG 1.1//EN"
 "http://www.w3.org/Graphics/SVG/1.1/DTD/svg11.dtd">
<!-- Generated by graphviz version 2.38.0 (20140413.2041)
 -->
<!-- Title: include/linkQueue.hh Pages: 1 -->
<svg width="252pt" height="196pt"
 viewBox="0.00 0.00 251.53 196.00" xmlns="http://www.w3.org/2000/svg" xmlns:xlink="http://www.w3.org/1999/xlink">
<g id="graph0" class="graph" transform="scale(1 1) rotate(0) translate(4 192)">
<title>include/linkQueue.hh</title>
<polygon fill="white" stroke="none" points="-4,4 -4,-192 247.526,-192 247.526,4 -4,4"/>
<!-- Node1 -->
<g id="node1" class="node"><title>Node1</title>
<g id="a_node1"><a xlink:title=" ">
<polygon fill="#bfbfbf" stroke="black" points="95.5,-168.5 95.5,-187.5 202.5,-187.5 202.5,-168.5 95.5,-168.5"/>
<text text-anchor="middle" x="149" y="-175.5" font-family="Helvetica,sans-Serif" font-size="10.00">include/linkQueue.hh</text>
</a>
</g>
</g>
<!-- Node2 -->
<g id="node2" class="node"><title>Node2</title>
<g id="a_node2"><a xlink:href="_queue_8h.html" target="_top" xlink:title=" ">
<polygon fill="white" stroke="black" points="122.5,-112.5 122.5,-131.5 175.5,-131.5 175.5,-112.5 122.5,-112.5"/>
<text text-anchor="middle" x="149" y="-119.5" font-family="Helvetica,sans-Serif" font-size="10.00">Queue.h</text>
</a>
</g>
</g>
<!-- Node1&#45;&gt;Node2 -->
<g id="edge1" class="edge"><title>Node1&#45;&gt;Node2</title>
<path fill="none" stroke="midnightblue" d="M143.834,-168.083C142.324,-160.927 141.894,-150.635 142.542,-141.691"/>
<polygon fill="midnightblue" stroke="midnightblue" points="146.015,-142.126 143.869,-131.751 139.077,-141.2 146.015,-142.126"/>
</g>
<!-- Node5 -->
<g id="node5" class="node"><title>Node5</title>
<g id="a_node5"><a xlink:title=" ">
<polygon fill="white" stroke="#bfbfbf" points="175,-0.5 175,-19.5 215,-19.5 215,-0.5 175,-0.5"/>
<text text-anchor="middle" x="195" y="-7.5" font-family="Helvetica,sans-Serif" font-size="10.00">utility</text>
</a>
</g>
</g>
<!-- Node1&#45;&gt;Node5 -->
<g id="edge10" class="edge"><title>Node1&#45;&gt;Node5</title>
<path fill="none" stroke="midnightblue" d="M161.281,-168.457C182.382,-152.933 224.814,-117.804 241,-76 244.209,-67.7107 244.447,-64.1934 241,-56 235.974,-44.0528 226.056,-33.6922 216.713,-25.9339"/>
<polygon fill="midnightblue" stroke="midnightblue" points="218.84,-23.1547 208.787,-19.8113 214.561,-28.6944 218.84,-23.1547"/>
</g>
<!-- Node2&#45;&gt;Node1 -->
<g id="edge3" class="edge"><title>Node2&#45;&gt;Node1</title>
<path fill="none" stroke="midnightblue" d="M154.131,-131.751C155.657,-138.858 156.104,-149.136 155.472,-158.101"/>
<polygon fill="midnightblue" stroke="midnightblue" points="151.993,-157.713 154.166,-168.083 158.934,-158.622 151.993,-157.713"/>
</g>
<!-- Node3 -->
<g id="node3" class="node"><title>Node3</title>
<g id="a_node3"><a xlink:title=" ">
<polygon fill="white" stroke="#bfbfbf" points="0,-56.5 0,-75.5 48,-75.5 48,-56.5 0,-56.5"/>
<text text-anchor="middle" x="24" y="-63.5" font-family="Helvetica,sans-Serif" font-size="10.00">cstddef</text>
</a>
</g>
</g>
<!-- Node2&#45;&gt;Node3 -->
<g id="edge2" class="edge"><title>Node2&#45;&gt;Node3</title>
<path fill="none" stroke="midnightblue" d="M129.193,-112.444C108.713,-103.596 76.5173,-89.6875 53.1353,-79.5865"/>
<polygon fill="midnightblue" stroke="midnightblue" points="54.282,-76.2692 43.714,-75.5164 51.5059,-82.6953 54.282,-76.2692"/>
</g>
<!-- Node4 -->
<g id="node4" class="node"><title>Node4</title>
<g id="a_node4"><a xlink:href="seq_queue_8hh.html" target="_top" xlink:title=" ">
<polygon fill="white" stroke="black" points="66,-56.5 66,-75.5 140,-75.5 140,-56.5 66,-56.5"/>
<text text-anchor="middle" x="103" y="-63.5" font-family="Helvetica,sans-Serif" font-size="10.00">seqQueue.hh</text>
</a>
</g>
</g>
<!-- Node2&#45;&gt;Node4 -->
<g id="edge4" class="edge"><title>Node2&#45;&gt;Node4</title>
<path fill="none" stroke="midnightblue" d="M136.494,-112.324C128.384,-104.733 118.396,-93.4823 111.229,-84.0898"/>
<polygon fill="midnightblue" stroke="midnightblue" points="114.015,-81.9675 105.376,-75.8339 108.305,-86.016 114.015,-81.9675"/>
</g>
<!-- Node6 -->
<g id="node6" class="node"><title>Node6</title>
<g id="a_node6"><a xlink:href="vec_queue_8hh.html" target="_top" xlink:title=" ">
<polygon fill="white" stroke="black" points="158.5,-56.5 158.5,-75.5 231.5,-75.5 231.5,-56.5 158.5,-56.5"/>
<text text-anchor="middle" x="195" y="-63.5" font-family="Helvetica,sans-Serif" font-size="10.00">vecQueue.hh</text>
</a>
</g>
</g>
<!-- Node2&#45;&gt;Node6 -->
<g id="edge7" class="edge"><title>Node2&#45;&gt;Node6</title>
<path fill="none" stroke="midnightblue" d="M151.43,-112.083C156.469,-104.22 166.038,-92.5688 175.068,-83.0813"/>
<polygon fill="midnightblue" stroke="midnightblue" points="177.807,-85.2919 182.414,-75.7511 172.863,-80.3366 177.807,-85.2919"/>
</g>
<!-- Node4&#45;&gt;Node2 -->
<g id="edge5" class="edge"><title>Node4&#45;&gt;Node2</title>
<path fill="none" stroke="midnightblue" d="M115.586,-75.7511C123.666,-83.3265 133.589,-94.5048 140.729,-103.855"/>
<polygon fill="midnightblue" stroke="midnightblue" points="137.927,-105.955 146.57,-112.083 143.635,-101.903 137.927,-105.955"/>
</g>
<!-- Node4&#45;&gt;Node5 -->
<g id="edge6" class="edge"><title>Node4&#45;&gt;Node5</title>
<path fill="none" stroke="midnightblue" d="M117.781,-56.324C132.267,-47.8215 154.573,-34.7288 171.493,-24.7975"/>
<polygon fill="midnightblue" stroke="midnightblue" points="173.403,-27.735 180.255,-19.6545 169.859,-21.6981 173.403,-27.735"/>
</g>
<!-- Node6&#45;&gt;Node2 -->
<g id="edge8" class="edge"><title>Node6&#45;&gt;Node2</title>
<path fill="none" stroke="midnightblue" d="M192.624,-75.8339C187.539,-83.7906 177.767,-95.6731 168.613,-105.253"/>
<polygon fill="midnightblue" stroke="midnightblue" points="166.127,-102.79 161.506,-112.324 171.063,-107.753 166.127,-102.79"/>
</g>
<!-- Node6&#45;&gt;Node5 -->
<g id="edge9" class="edge"><title>Node6&#45;&gt;Node5</title>
<path fill="none" stroke="midnightblue" d="M195,-56.083C195,-49.0059 195,-38.8611 195,-29.9865"/>
<polygon fill="midnightblue" stroke="midnightblue" points="198.5,-29.751 195,-19.7511 191.5,-29.7511 198.5,-29.751"/>
</g>
</g>
</svg>
