<?xml version="1.0" encoding="UTF-8" standalone="no"?>
<!DOCTYPE svg PUBLIC "-//W3C//DTD SVG 1.1//EN"
 "http://www.w3.org/Graphics/SVG/1.1/DTD/svg11.dtd">
<!-- Generated by graphviz version 2.38.0 (20140413.2041)
 -->
<!-- Title: include/seqQueue.hh Pages: 1 -->
<svg width="327pt" height="140pt"
 viewBox="0.00 0.00 326.50 140.00" xmlns="http://www.w3.org/2000/svg" xmlns:xlink="http://www.w3.org/1999/xlink">
<g id="graph0" class="graph" transform="scale(1 1) rotate(0) translate(4 136)">
<title>include/seqQueue.hh</title>
<polygon fill="white" stroke="none" points="-4,4 -4,-136 322.5,-136 322.5,4 -4,4"/>
<!-- Node1 -->
<g id="node1" class="node"><title>Node1</title>
<g id="a_node1"><a xlink:title=" ">
<polygon fill="#bfbfbf" stroke="black" points="124.5,-112.5 124.5,-131.5 232.5,-131.5 232.5,-112.5 124.5,-112.5"/>
<text text-anchor="middle" x="178.5" y="-119.5" font-family="Helvetica,sans-Serif" font-size="10.00">include/seqQueue.hh</text>
</a>
</g>
</g>
<!-- Node2 -->
<g id="node2" class="node"><title>Node2</title>
<g id="a_node2"><a xlink:href="_queue_8h.html" target="_top" xlink:title=" ">
<polygon fill="white" stroke="black" points="135,-56.5 135,-75.5 222,-75.5 222,-56.5 135,-56.5"/>
<text text-anchor="middle" x="178.5" y="-63.5" font-family="Helvetica,sans-Serif" font-size="10.00">include/Queue.h</text>
</a>
</g>
</g>
<!-- Node1&#45;&gt;Node2 -->
<g id="edge1" class="edge"><title>Node1&#45;&gt;Node2</title>
<path fill="none" stroke="midnightblue" d="M172.028,-102.101C171.396,-93.1357 171.843,-82.8579 173.369,-75.7511"/>
<polygon fill="midnightblue" stroke="midnightblue" points="168.566,-102.622 173.334,-112.083 175.507,-101.713 168.566,-102.622"/>
</g>
<!-- Node2&#45;&gt;Node1 -->
<g id="edge4" class="edge"><title>Node2&#45;&gt;Node1</title>
<path fill="none" stroke="midnightblue" d="M184.958,-85.6911C185.606,-94.6353 185.176,-104.927 183.666,-112.083"/>
<polygon fill="midnightblue" stroke="midnightblue" points="188.423,-85.2002 183.631,-75.7511 181.485,-86.1262 188.423,-85.2002"/>
</g>
<!-- Node3 -->
<g id="node3" class="node"><title>Node3</title>
<g id="a_node3"><a xlink:href="link_queue_8hh.html" target="_top" xlink:title=" ">
<polygon fill="white" stroke="black" points="0,-0.5 0,-19.5 107,-19.5 107,-0.5 0,-0.5"/>
<text text-anchor="middle" x="53.5" y="-7.5" font-family="Helvetica,sans-Serif" font-size="10.00">include/linkQueue.hh</text>
</a>
</g>
</g>
<!-- Node2&#45;&gt;Node3 -->
<g id="edge2" class="edge"><title>Node2&#45;&gt;Node3</title>
<path fill="none" stroke="midnightblue" d="M144.107,-52.6377C119.15,-42.504 86.7981,-28.4274 68.134,-19.5164"/>
<polygon fill="midnightblue" stroke="midnightblue" points="143.02,-55.9729 153.605,-56.4435 145.624,-49.4751 143.02,-55.9729"/>
</g>
<!-- Node4 -->
<g id="node4" class="node"><title>Node4</title>
<g id="a_node4"><a xlink:href="vec_queue_8hh.html" target="_top" xlink:title=" ">
<polygon fill="white" stroke="black" points="125,-0.5 125,-19.5 232,-19.5 232,-0.5 125,-0.5"/>
<text text-anchor="middle" x="178.5" y="-7.5" font-family="Helvetica,sans-Serif" font-size="10.00">include/vecQueue.hh</text>
</a>
</g>
</g>
<!-- Node2&#45;&gt;Node4 -->
<g id="edge5" class="edge"><title>Node2&#45;&gt;Node4</title>
<path fill="none" stroke="midnightblue" d="M172.028,-46.1005C171.396,-37.1357 171.843,-26.8579 173.369,-19.7511"/>
<polygon fill="midnightblue" stroke="midnightblue" points="168.566,-46.6216 173.334,-56.083 175.507,-45.7134 168.566,-46.6216"/>
</g>
<!-- Node5 -->
<g id="node5" class="node"><title>Node5</title>
<g id="a_node5"><a xlink:href="test0_8cc.html" target="_top" xlink:title=" ">
<polygon fill="white" stroke="black" points="250.5,-0.5 250.5,-19.5 318.5,-19.5 318.5,-0.5 250.5,-0.5"/>
<text text-anchor="middle" x="284.5" y="-7.5" font-family="Helvetica,sans-Serif" font-size="10.00">src/test0.cc</text>
</a>
</g>
</g>
<!-- Node2&#45;&gt;Node5 -->
<g id="edge7" class="edge"><title>Node2&#45;&gt;Node5</title>
<path fill="none" stroke="midnightblue" d="M204.556,-51.7261C224.184,-41.7271 250.528,-28.3065 267.512,-19.6545"/>
<polygon fill="midnightblue" stroke="midnightblue" points="202.852,-48.666 195.531,-56.324 206.03,-54.9033 202.852,-48.666"/>
</g>
<!-- Node3&#45;&gt;Node2 -->
<g id="edge3" class="edge"><title>Node3&#45;&gt;Node2</title>
<path fill="none" stroke="midnightblue" d="M87.7814,-23.3168C112.715,-33.4387 145.077,-47.5171 163.782,-56.4435"/>
<polygon fill="midnightblue" stroke="midnightblue" points="88.8784,-19.9859 78.2939,-19.5164 86.2754,-26.484 88.8784,-19.9859"/>
</g>
<!-- Node4&#45;&gt;Node2 -->
<g id="edge6" class="edge"><title>Node4&#45;&gt;Node2</title>
<path fill="none" stroke="midnightblue" d="M184.958,-29.6911C185.606,-38.6353 185.176,-48.9272 183.666,-56.083"/>
<polygon fill="midnightblue" stroke="midnightblue" points="188.423,-29.2002 183.631,-19.7511 181.485,-30.1262 188.423,-29.2002"/>
</g>
</g>
</svg>
