<?xml version="1.0" encoding="UTF-8" standalone="no"?>
<!DOCTYPE svg PUBLIC "-//W3C//DTD SVG 1.1//EN"
 "http://www.w3.org/Graphics/SVG/1.1/DTD/svg11.dtd">
<!-- Generated by graphviz version 2.38.0 (20140413.2041)
 -->
<!-- Title: src/ch8_2.cc Pages: 1 -->
<svg width="374pt" height="84pt"
 viewBox="0.00 0.00 373.50 84.00" xmlns="http://www.w3.org/2000/svg" xmlns:xlink="http://www.w3.org/1999/xlink">
<g id="graph0" class="graph" transform="scale(1 1) rotate(0) translate(4 80)">
<title>src/ch8_2.cc</title>
<polygon fill="white" stroke="none" points="-4,4 -4,-80 369.5,-80 369.5,4 -4,4"/>
<!-- Node1 -->
<g id="node1" class="node"><title>Node1</title>
<g id="a_node1"><a xlink:title="程序设计题第2题：顺序查找有序单链表">
<polygon fill="#bfbfbf" stroke="black" points="152.5,-56.5 152.5,-75.5 225.5,-75.5 225.5,-56.5 152.5,-56.5"/>
<text text-anchor="middle" x="189" y="-63.5" font-family="Helvetica,sans-Serif" font-size="10.00">src/ch8_2.cc</text>
</a>
</g>
</g>
<!-- Node2 -->
<g id="node2" class="node"><title>Node2</title>
<g id="a_node2"><a xlink:title=" ">
<polygon fill="white" stroke="#bfbfbf" points="0,-0.5 0,-19.5 56,-19.5 56,-0.5 0,-0.5"/>
<text text-anchor="middle" x="28" y="-7.5" font-family="Helvetica,sans-Serif" font-size="10.00">algorithm</text>
</a>
</g>
</g>
<!-- Node1&#45;&gt;Node2 -->
<g id="edge1" class="edge"><title>Node1&#45;&gt;Node2</title>
<path fill="none" stroke="midnightblue" d="M163.489,-56.4435C136.404,-47.3591 93.41,-32.9388 63.1312,-22.7831"/>
<polygon fill="midnightblue" stroke="midnightblue" points="63.9855,-19.3781 53.3916,-19.5164 61.7595,-26.0148 63.9855,-19.3781"/>
</g>
<!-- Node3 -->
<g id="node3" class="node"><title>Node3</title>
<g id="a_node3"><a xlink:title=" ">
<polygon fill="white" stroke="#bfbfbf" points="74.5,-0.5 74.5,-19.5 119.5,-19.5 119.5,-0.5 74.5,-0.5"/>
<text text-anchor="middle" x="97" y="-7.5" font-family="Helvetica,sans-Serif" font-size="10.00">cstdlib</text>
</a>
</g>
</g>
<!-- Node1&#45;&gt;Node3 -->
<g id="edge2" class="edge"><title>Node1&#45;&gt;Node3</title>
<path fill="none" stroke="midnightblue" d="M174.219,-56.324C159.733,-47.8215 137.427,-34.7288 120.507,-24.7975"/>
<polygon fill="midnightblue" stroke="midnightblue" points="122.141,-21.6981 111.745,-19.6545 118.597,-27.735 122.141,-21.6981"/>
</g>
<!-- Node4 -->
<g id="node4" class="node"><title>Node4</title>
<g id="a_node4"><a xlink:title=" ">
<polygon fill="white" stroke="#bfbfbf" points="137.5,-0.5 137.5,-19.5 178.5,-19.5 178.5,-0.5 137.5,-0.5"/>
<text text-anchor="middle" x="158" y="-7.5" font-family="Helvetica,sans-Serif" font-size="10.00">ctime</text>
</a>
</g>
</g>
<!-- Node1&#45;&gt;Node4 -->
<g id="edge3" class="edge"><title>Node1&#45;&gt;Node4</title>
<path fill="none" stroke="midnightblue" d="M183.881,-56.083C179.592,-48.6127 173.342,-37.7244 168.058,-28.5199"/>
<polygon fill="midnightblue" stroke="midnightblue" points="171.038,-26.6811 163.024,-19.7511 164.967,-30.1662 171.038,-26.6811"/>
</g>
<!-- Node5 -->
<g id="node5" class="node"><title>Node5</title>
<g id="a_node5"><a xlink:title=" ">
<polygon fill="white" stroke="#bfbfbf" points="196.5,-0.5 196.5,-19.5 245.5,-19.5 245.5,-0.5 196.5,-0.5"/>
<text text-anchor="middle" x="221" y="-7.5" font-family="Helvetica,sans-Serif" font-size="10.00">fstream</text>
</a>
</g>
</g>
<!-- Node1&#45;&gt;Node5 -->
<g id="edge4" class="edge"><title>Node1&#45;&gt;Node5</title>
<path fill="none" stroke="midnightblue" d="M194.284,-56.083C198.711,-48.6127 205.163,-37.7244 210.618,-28.5199"/>
<polygon fill="midnightblue" stroke="midnightblue" points="213.727,-30.1383 215.814,-19.7511 207.705,-26.5697 213.727,-30.1383"/>
</g>
<!-- Node6 -->
<g id="node6" class="node"><title>Node6</title>
<g id="a_node6"><a xlink:title=" ">
<polygon fill="white" stroke="#bfbfbf" points="264,-0.5 264,-19.5 318,-19.5 318,-0.5 264,-0.5"/>
<text text-anchor="middle" x="291" y="-7.5" font-family="Helvetica,sans-Serif" font-size="10.00">iostream</text>
</a>
</g>
</g>
<!-- Node1&#45;&gt;Node6 -->
<g id="edge5" class="edge"><title>Node1&#45;&gt;Node6</title>
<path fill="none" stroke="midnightblue" d="M205.388,-56.324C221.671,-47.7034 246.867,-34.3643 265.716,-24.3855"/>
<polygon fill="midnightblue" stroke="midnightblue" points="267.452,-27.4267 274.653,-19.6545 264.177,-21.2402 267.452,-27.4267"/>
</g>
<!-- Node7 -->
<g id="node7" class="node"><title>Node7</title>
<g id="a_node7"><a xlink:title=" ">
<polygon fill="white" stroke="#bfbfbf" points="336.5,-0.5 336.5,-19.5 365.5,-19.5 365.5,-0.5 336.5,-0.5"/>
<text text-anchor="middle" x="351" y="-7.5" font-family="Helvetica,sans-Serif" font-size="10.00">list</text>
</a>
</g>
</g>
<!-- Node1&#45;&gt;Node7 -->
<g id="edge6" class="edge"><title>Node1&#45;&gt;Node7</title>
<path fill="none" stroke="midnightblue" d="M216.349,-56.4685C242.368,-48.2677 282.816,-35.3019 326.621,-20.0226"/>
<polygon fill="midnightblue" stroke="midnightblue" points="328.036,-23.2355 336.314,-16.6228 325.719,-16.6301 328.036,-23.2355"/>
</g>
</g>
</svg>
