<?xml version="1.0" encoding="UTF-8" standalone="no"?>
<!DOCTYPE svg PUBLIC "-//W3C//DTD SVG 1.1//EN"
 "http://www.w3.org/Graphics/SVG/1.1/DTD/svg11.dtd">
<!-- Generated by graphviz version 2.38.0 (20140413.2041)
 -->
<!-- Title: src/ch8_1.cc Pages: 1 -->
<svg width="507pt" height="140pt"
 viewBox="0.00 0.00 507.00 140.00" xmlns="http://www.w3.org/2000/svg" xmlns:xlink="http://www.w3.org/1999/xlink">
<g id="graph0" class="graph" transform="scale(1 1) rotate(0) translate(4 136)">
<title>src/ch8_1.cc</title>
<polygon fill="white" stroke="none" points="-4,4 -4,-136 503,-136 503,4 -4,4"/>
<!-- Node1 -->
<g id="node1" class="node"><title>Node1</title>
<g id="a_node1"><a xlink:title="程序设计题第1题：以递归实现二分查找">
<polygon fill="#bfbfbf" stroke="black" points="211.5,-112.5 211.5,-131.5 284.5,-131.5 284.5,-112.5 211.5,-112.5"/>
<text text-anchor="middle" x="248" y="-119.5" font-family="Helvetica,sans-Serif" font-size="10.00">src/ch8_1.cc</text>
</a>
</g>
</g>
<!-- Node2 -->
<g id="node2" class="node"><title>Node2</title>
<g id="a_node2"><a xlink:href="a04520.html" target="_top" xlink:title="集合结构">
<polygon fill="white" stroke="black" points="0,-56.5 0,-75.5 40,-75.5 40,-56.5 0,-56.5"/>
<text text-anchor="middle" x="20" y="-63.5" font-family="Helvetica,sans-Serif" font-size="10.00">Set.h</text>
</a>
</g>
</g>
<!-- Node1&#45;&gt;Node2 -->
<g id="edge1" class="edge"><title>Node1&#45;&gt;Node2</title>
<path fill="none" stroke="midnightblue" d="M211.477,-113.64C173.438,-105.776 111.932,-92.5077 50.1389,-76.1497"/>
<polygon fill="midnightblue" stroke="midnightblue" points="50.7873,-72.7002 40.2226,-73.4981 48.979,-79.4626 50.7873,-72.7002"/>
</g>
<!-- Node4 -->
<g id="node4" class="node"><title>Node4</title>
<g id="a_node4"><a xlink:title=" ">
<polygon fill="white" stroke="#bfbfbf" points="58,-56.5 58,-75.5 114,-75.5 114,-56.5 58,-56.5"/>
<text text-anchor="middle" x="86" y="-63.5" font-family="Helvetica,sans-Serif" font-size="10.00">algorithm</text>
</a>
</g>
</g>
<!-- Node1&#45;&gt;Node4 -->
<g id="edge3" class="edge"><title>Node1&#45;&gt;Node4</title>
<path fill="none" stroke="midnightblue" d="M222.331,-112.444C195.077,-103.359 151.816,-88.9388 121.349,-78.7831"/>
<polygon fill="midnightblue" stroke="midnightblue" points="122.143,-75.3584 111.549,-75.5164 119.929,-81.9992 122.143,-75.3584"/>
</g>
<!-- Node5 -->
<g id="node5" class="node"><title>Node5</title>
<g id="a_node5"><a xlink:title=" ">
<polygon fill="white" stroke="#bfbfbf" points="132.5,-56.5 132.5,-75.5 177.5,-75.5 177.5,-56.5 132.5,-56.5"/>
<text text-anchor="middle" x="155" y="-63.5" font-family="Helvetica,sans-Serif" font-size="10.00">climits</text>
</a>
</g>
</g>
<!-- Node1&#45;&gt;Node5 -->
<g id="edge4" class="edge"><title>Node1&#45;&gt;Node5</title>
<path fill="none" stroke="midnightblue" d="M233.058,-112.324C218.415,-103.822 195.866,-90.7288 178.762,-80.7975"/>
<polygon fill="midnightblue" stroke="midnightblue" points="180.31,-77.6491 169.905,-75.6545 176.795,-83.7027 180.31,-77.6491"/>
</g>
<!-- Node6 -->
<g id="node6" class="node"><title>Node6</title>
<g id="a_node6"><a xlink:title=" ">
<polygon fill="white" stroke="#bfbfbf" points="195.5,-56.5 195.5,-75.5 240.5,-75.5 240.5,-56.5 195.5,-56.5"/>
<text text-anchor="middle" x="218" y="-63.5" font-family="Helvetica,sans-Serif" font-size="10.00">cstdlib</text>
</a>
</g>
</g>
<!-- Node1&#45;&gt;Node6 -->
<g id="edge5" class="edge"><title>Node1&#45;&gt;Node6</title>
<path fill="none" stroke="midnightblue" d="M243.046,-112.083C238.896,-104.613 232.847,-93.7244 227.733,-84.5199"/>
<polygon fill="midnightblue" stroke="midnightblue" points="230.778,-82.7929 222.862,-75.7511 224.659,-86.1924 230.778,-82.7929"/>
</g>
<!-- Node7 -->
<g id="node7" class="node"><title>Node7</title>
<g id="a_node7"><a xlink:title=" ">
<polygon fill="white" stroke="#bfbfbf" points="258.5,-56.5 258.5,-75.5 299.5,-75.5 299.5,-56.5 258.5,-56.5"/>
<text text-anchor="middle" x="279" y="-63.5" font-family="Helvetica,sans-Serif" font-size="10.00">ctime</text>
</a>
</g>
</g>
<!-- Node1&#45;&gt;Node7 -->
<g id="edge6" class="edge"><title>Node1&#45;&gt;Node7</title>
<path fill="none" stroke="midnightblue" d="M253.119,-112.083C257.408,-104.613 263.658,-93.7244 268.942,-84.5199"/>
<polygon fill="midnightblue" stroke="midnightblue" points="272.033,-86.1662 273.976,-75.7511 265.962,-82.6811 272.033,-86.1662"/>
</g>
<!-- Node8 -->
<g id="node8" class="node"><title>Node8</title>
<g id="a_node8"><a xlink:title=" ">
<polygon fill="white" stroke="#bfbfbf" points="317.5,-56.5 317.5,-75.5 366.5,-75.5 366.5,-56.5 317.5,-56.5"/>
<text text-anchor="middle" x="342" y="-63.5" font-family="Helvetica,sans-Serif" font-size="10.00">fstream</text>
</a>
</g>
</g>
<!-- Node1&#45;&gt;Node8 -->
<g id="edge7" class="edge"><title>Node1&#45;&gt;Node8</title>
<path fill="none" stroke="midnightblue" d="M263.103,-112.324C277.903,-103.822 300.694,-90.7288 317.982,-80.7975"/>
<polygon fill="midnightblue" stroke="midnightblue" points="320.007,-83.6707 326.935,-75.6545 316.52,-77.6009 320.007,-83.6707"/>
</g>
<!-- Node9 -->
<g id="node9" class="node"><title>Node9</title>
<g id="a_node9"><a xlink:title=" ">
<polygon fill="white" stroke="#bfbfbf" points="385,-56.5 385,-75.5 439,-75.5 439,-56.5 385,-56.5"/>
<text text-anchor="middle" x="412" y="-63.5" font-family="Helvetica,sans-Serif" font-size="10.00">iostream</text>
</a>
</g>
</g>
<!-- Node1&#45;&gt;Node9 -->
<g id="edge8" class="edge"><title>Node1&#45;&gt;Node9</title>
<path fill="none" stroke="midnightblue" d="M273.986,-112.444C301.696,-103.32 345.752,-88.8133 376.616,-78.6509"/>
<polygon fill="midnightblue" stroke="midnightblue" points="377.732,-81.9684 386.135,-75.5164 375.542,-75.3196 377.732,-81.9684"/>
</g>
<!-- Node10 -->
<g id="node10" class="node"><title>Node10</title>
<g id="a_node10"><a xlink:title=" ">
<polygon fill="white" stroke="#bfbfbf" points="457,-56.5 457,-75.5 499,-75.5 499,-56.5 457,-56.5"/>
<text text-anchor="middle" x="478" y="-63.5" font-family="Helvetica,sans-Serif" font-size="10.00">vector</text>
</a>
</g>
</g>
<!-- Node1&#45;&gt;Node10 -->
<g id="edge9" class="edge"><title>Node1&#45;&gt;Node10</title>
<path fill="none" stroke="midnightblue" d="M284.682,-113.553C322.891,-105.618 384.688,-92.2881 446.782,-76.1847"/>
<polygon fill="midnightblue" stroke="midnightblue" points="447.959,-79.4947 456.747,-73.5768 446.186,-72.7228 447.959,-79.4947"/>
</g>
<!-- Node3 -->
<g id="node3" class="node"><title>Node3</title>
<g id="a_node3"><a xlink:title=" ">
<polygon fill="white" stroke="#bfbfbf" points="0,-0.5 0,-19.5 40,-19.5 40,-0.5 0,-0.5"/>
<text text-anchor="middle" x="20" y="-7.5" font-family="Helvetica,sans-Serif" font-size="10.00">utility</text>
</a>
</g>
</g>
<!-- Node2&#45;&gt;Node3 -->
<g id="edge2" class="edge"><title>Node2&#45;&gt;Node3</title>
<path fill="none" stroke="midnightblue" d="M20,-56.083C20,-49.0059 20,-38.8611 20,-29.9865"/>
<polygon fill="midnightblue" stroke="midnightblue" points="23.5001,-29.751 20,-19.7511 16.5001,-29.7511 23.5001,-29.751"/>
</g>
</g>
</svg>
