<?xml version="1.0" encoding="UTF-8" standalone="no"?>
<!DOCTYPE svg PUBLIC "-//W3C//DTD SVG 1.1//EN"
 "http://www.w3.org/Graphics/SVG/1.1/DTD/svg11.dtd">
<!-- Generated by graphviz version 2.38.0 (20140413.2041)
 -->
<!-- Title: print_test_result Pages: 1 -->
<!--zoomable 484 -->
<svg id="main" version="1.1" xmlns="http://www.w3.org/2000/svg" xmlns:xlink="http://www.w3.org/1999/xlink" xml:space="preserve" onload="init(evt)">
<style type="text/css"><![CDATA[
.edge:hover path { stroke: red; }
.edge:hover polygon { stroke: red; fill: red; }
]]></style>
<script type="text/javascript"><![CDATA[
var edges = document.getElementsByTagName('g');
if (edges && edges.length) {
  for (var i=0;i<edges.length;i++) {
    if (edges[i].id.substr(0,4)=='edge') {
      edges[i].setAttribute('class','edge');
    }
  }
}
]]></script>
        <defs>
                <circle id="rim" cx="0" cy="0" r="7"/>
                <circle id="rim2" cx="0" cy="0" r="3.5"/>
                <g id="zoomPlus">
                        <use xlink:href="#rim" fill="#404040">
                                <set attributeName="fill" to="#808080" begin="zoomplus.mouseover" end="zoomplus.mouseout"/>
                        </use>
                        <path d="M-4,0h8M0,-4v8" fill="none" stroke="white" stroke-width="1.5" pointer-events="none"/>
                </g>
                <g id="zoomMin">
                        <use xlink:href="#rim" fill="#404040">
                                <set attributeName="fill" to="#808080" begin="zoomminus.mouseover" end="zoomminus.mouseout"/>
                        </use>
                        <path d="M-4,0h8" fill="none" stroke="white" stroke-width="1.5" pointer-events="none"/>
                </g>
                <g id="dirArrow">
                        <path fill="none" stroke="white" stroke-width="1.5" d="M0,-3.0v7 M-2.5,-0.5L0,-3.0L2.5,-0.5"/>
                </g>
               <g id="resetDef">
                       <use xlink:href="#rim2" fill="#404040">
                               <set attributeName="fill" to="#808080" begin="reset.mouseover" end="reset.mouseout"/>
                       </use>
               </g>
        </defs>

<script type="text/javascript">
var viewWidth = 448;
var viewHeight = 484;
var sectionId = 'dynsection-3';
</script>
<script xlink:href="svgpan.js"/>
<svg id="graph" class="graph">
<g id="viewport">
<title>print_test_result</title>
<polygon fill="white" stroke="none" points="-4,4 -4,-480 444,-480 444,4 -4,4"/>
<!-- Node1 -->
<g id="node1" class="node"><title>Node1</title>
<g id="a_node1"><a xlink:title="(测试用)将二叉树类的多种方法的输出插到输出流">
<polygon fill="#bfbfbf" stroke="black" points="0,-228.5 0,-247.5 86,-247.5 86,-228.5 0,-228.5"/>
<text text-anchor="middle" x="43" y="-235.5" font-family="Helvetica,sans-Serif" font-size="10.00">print_test_result</text>
</a>
</g>
</g>
<!-- Node2 -->
<g id="node2" class="node"><title>Node2</title>
<g id="a_node2"><a xlink:href="a05401.html#a1203fc03a4506fa073d80545ce1de6a3" target="_top" xlink:title="统计树中度为2的结点的个数">
<polygon fill="white" stroke="black" points="122,-456.5 122,-475.5 288,-475.5 288,-456.5 122,-456.5"/>
<text text-anchor="middle" x="205" y="-463.5" font-family="Helvetica,sans-Serif" font-size="10.00">Tree::binaryTree::CountDegreeTwo</text>
</a>
</g>
</g>
<!-- Node1&#45;&gt;Node2 -->
<g id="edge1" class="edge"><title>Node1&#45;&gt;Node2</title>
<path fill="none" stroke="midnightblue" d="M44.514,-247.67C46.8279,-280.959 59.1431,-391.798 122,-447 123.784,-448.567 125.672,-450.012 127.644,-451.343"/>
<polygon fill="midnightblue" stroke="midnightblue" points="126.331,-454.621 136.761,-456.484 129.77,-448.523 126.331,-454.621"/>
</g>
<!-- Node3 -->
<g id="node3" class="node"><title>Node3</title>
<g id="a_node3"><a xlink:href="a05401.html#ac7389dcd912456fbc77ad350a1134732" target="_top" xlink:title="返回二叉树的高度(递归版本)">
<polygon fill="white" stroke="black" points="145.5,-418.5 145.5,-437.5 264.5,-437.5 264.5,-418.5 145.5,-418.5"/>
<text text-anchor="middle" x="205" y="-425.5" font-family="Helvetica,sans-Serif" font-size="10.00">Tree::binaryTree::height</text>
</a>
</g>
</g>
<!-- Node1&#45;&gt;Node3 -->
<g id="edge2" class="edge"><title>Node1&#45;&gt;Node3</title>
<path fill="none" stroke="midnightblue" d="M45.3739,-247.538C50.0973,-276.68 68.4407,-365.22 122,-409 126.243,-412.468 131.002,-415.328 136.036,-417.683"/>
<polygon fill="midnightblue" stroke="midnightblue" points="134.755,-420.94 145.34,-421.4 137.352,-414.44 134.755,-420.94"/>
</g>
<!-- Node4 -->
<g id="node4" class="node"><title>Node4</title>
<g id="a_node4"><a xlink:href="a05401.html#a18c50f432143bfe2feade7347f8ff770" target="_top" xlink:title="返回二叉树的高度(非递归版本)">
<polygon fill="white" stroke="black" points="134,-380.5 134,-399.5 276,-399.5 276,-380.5 134,-380.5"/>
<text text-anchor="middle" x="205" y="-387.5" font-family="Helvetica,sans-Serif" font-size="10.00">Tree::binaryTree::height_loop</text>
</a>
</g>
</g>
<!-- Node1&#45;&gt;Node4 -->
<g id="edge3" class="edge"><title>Node1&#45;&gt;Node4</title>
<path fill="none" stroke="midnightblue" d="M46.68,-247.5C54.1397,-272.119 77.5749,-338.333 122,-371 124.649,-372.948 127.466,-374.7 130.4,-376.276"/>
<polygon fill="midnightblue" stroke="midnightblue" points="128.963,-379.467 139.508,-380.494 131.905,-373.115 128.963,-379.467"/>
</g>
<!-- Node5 -->
<g id="node5" class="node"><title>Node5</title>
<g id="a_node5"><a xlink:href="a05401.html#ac6003da876c500af081001c549a90433" target="_top" xlink:title="中序遍历(递归版本)">
<polygon fill="white" stroke="black" points="143,-342.5 143,-361.5 267,-361.5 267,-342.5 143,-342.5"/>
<text text-anchor="middle" x="205" y="-349.5" font-family="Helvetica,sans-Serif" font-size="10.00">Tree::binaryTree::inOrder</text>
</a>
</g>
</g>
<!-- Node1&#45;&gt;Node5 -->
<g id="edge4" class="edge"><title>Node1&#45;&gt;Node5</title>
<path fill="none" stroke="midnightblue" d="M48.9893,-247.574C59.6199,-266.973 86.4631,-310.941 122,-333 125.562,-335.211 129.355,-337.165 133.283,-338.892"/>
<polygon fill="midnightblue" stroke="midnightblue" points="132.059,-342.171 142.648,-342.523 134.59,-335.644 132.059,-342.171"/>
</g>
<!-- Node6 -->
<g id="node6" class="node"><title>Node6</title>
<g id="a_node6"><a xlink:href="a05401.html#a6cb786410ed6c0f61969a09b76f4da0c" target="_top" xlink:title="中序遍历(非递归版本)">
<polygon fill="white" stroke="black" points="131.5,-304.5 131.5,-323.5 278.5,-323.5 278.5,-304.5 131.5,-304.5"/>
<text text-anchor="middle" x="205" y="-311.5" font-family="Helvetica,sans-Serif" font-size="10.00">Tree::binaryTree::inOrder_loop</text>
</a>
</g>
</g>
<!-- Node1&#45;&gt;Node6 -->
<g id="edge5" class="edge"><title>Node1&#45;&gt;Node6</title>
<path fill="none" stroke="midnightblue" d="M54.2278,-247.62C68.3583,-260.378 95.1607,-282.711 122,-295 127.362,-297.455 133.072,-299.609 138.886,-301.494"/>
<polygon fill="midnightblue" stroke="midnightblue" points="138.144,-304.925 148.727,-304.421 140.14,-298.215 138.144,-304.925"/>
</g>
<!-- Node7 -->
<g id="node7" class="node"><title>Node7</title>
<g id="a_node7"><a xlink:href="a05401.html#a94dcc51623e366cb26fa5e543b19c6f8" target="_top" xlink:title="层次遍历">
<polygon fill="white" stroke="black" points="137.5,-266.5 137.5,-285.5 272.5,-285.5 272.5,-266.5 137.5,-266.5"/>
<text text-anchor="middle" x="205" y="-273.5" font-family="Helvetica,sans-Serif" font-size="10.00">Tree::binaryTree::levelOrder</text>
</a>
</g>
</g>
<!-- Node1&#45;&gt;Node7 -->
<g id="edge6" class="edge"><title>Node1&#45;&gt;Node7</title>
<path fill="none" stroke="midnightblue" d="M82.8606,-247.557C95.3514,-250.605 109.254,-253.971 122,-257 131.81,-259.331 142.289,-261.786 152.363,-264.129"/>
<polygon fill="midnightblue" stroke="midnightblue" points="151.731,-267.575 162.263,-266.425 153.313,-260.756 151.731,-267.575"/>
</g>
<!-- Node8 -->
<g id="node8" class="node"><title>Node8</title>
<g id="a_node8"><a xlink:href="a05401.html#a29e131a4f32bf7ac33dad9cd60d5ca7b" target="_top" xlink:title="后序遍历(递归版本)">
<polygon fill="white" stroke="black" points="137.5,-228.5 137.5,-247.5 272.5,-247.5 272.5,-228.5 137.5,-228.5"/>
<text text-anchor="middle" x="205" y="-235.5" font-family="Helvetica,sans-Serif" font-size="10.00">Tree::binaryTree::postOrder</text>
</a>
</g>
</g>
<!-- Node1&#45;&gt;Node8 -->
<g id="edge7" class="edge"><title>Node1&#45;&gt;Node8</title>
<path fill="none" stroke="midnightblue" d="M86.0381,-238C98.7039,-238 113.022,-238 127.206,-238"/>
<polygon fill="midnightblue" stroke="midnightblue" points="127.485,-241.5 137.485,-238 127.485,-234.5 127.485,-241.5"/>
</g>
<!-- Node9 -->
<g id="node9" class="node"><title>Node9</title>
<g id="a_node9"><a xlink:href="a05401.html#a24d90fc12dae5213ddb8b21baf14cc66" target="_top" xlink:title="后序遍历(非递归版本)">
<polygon fill="white" stroke="black" points="126,-190.5 126,-209.5 284,-209.5 284,-190.5 126,-190.5"/>
<text text-anchor="middle" x="205" y="-197.5" font-family="Helvetica,sans-Serif" font-size="10.00">Tree::binaryTree::postOrder_loop</text>
</a>
</g>
</g>
<!-- Node1&#45;&gt;Node9 -->
<g id="edge8" class="edge"><title>Node1&#45;&gt;Node9</title>
<path fill="none" stroke="midnightblue" d="M82.8606,-228.443C95.3514,-225.395 109.254,-222.029 122,-219 131.81,-216.669 142.289,-214.214 152.363,-211.871"/>
<polygon fill="midnightblue" stroke="midnightblue" points="153.313,-215.244 162.263,-209.575 151.731,-208.425 153.313,-215.244"/>
</g>
<!-- Node10 -->
<g id="node10" class="node"><title>Node10</title>
<g id="a_node10"><a xlink:href="a05401.html#aa0a3d9e4bc6035a9c914e5109d6688b7" target="_top" xlink:title="前序遍历(递归版本)">
<polygon fill="white" stroke="black" points="140,-152.5 140,-171.5 270,-171.5 270,-152.5 140,-152.5"/>
<text text-anchor="middle" x="205" y="-159.5" font-family="Helvetica,sans-Serif" font-size="10.00">Tree::binaryTree::preOrder</text>
</a>
</g>
</g>
<!-- Node1&#45;&gt;Node10 -->
<g id="edge9" class="edge"><title>Node1&#45;&gt;Node10</title>
<path fill="none" stroke="midnightblue" d="M54.2278,-228.38C68.3583,-215.622 95.1607,-193.289 122,-181 127.362,-178.545 133.072,-176.391 138.886,-174.506"/>
<polygon fill="midnightblue" stroke="midnightblue" points="140.14,-177.785 148.727,-171.579 138.144,-171.075 140.14,-177.785"/>
</g>
<!-- Node11 -->
<g id="node11" class="node"><title>Node11</title>
<g id="a_node11"><a xlink:href="a05401.html#af9d71e1c10511c865aed5c553ac24b72" target="_top" xlink:title="前序遍历(非递归版本)">
<polygon fill="white" stroke="black" points="128.5,-114.5 128.5,-133.5 281.5,-133.5 281.5,-114.5 128.5,-114.5"/>
<text text-anchor="middle" x="205" y="-121.5" font-family="Helvetica,sans-Serif" font-size="10.00">Tree::binaryTree::preOrder_loop</text>
</a>
</g>
</g>
<!-- Node1&#45;&gt;Node11 -->
<g id="edge10" class="edge"><title>Node1&#45;&gt;Node11</title>
<path fill="none" stroke="midnightblue" d="M48.9893,-228.426C59.6199,-209.027 86.4631,-165.059 122,-143 125.395,-140.893 129,-139.019 132.732,-137.352"/>
<polygon fill="midnightblue" stroke="midnightblue" points="134.195,-140.538 142.222,-133.623 131.634,-134.023 134.195,-140.538"/>
</g>
<!-- Node12 -->
<g id="node12" class="node"><title>Node12</title>
<g id="a_node12"><a xlink:href="a04583.html#ad484ac5e75e3c6057bed828f29a86776" target="_top" xlink:title="输出一棵二叉树">
<polygon fill="white" stroke="black" points="151.5,-76.5 151.5,-95.5 258.5,-95.5 258.5,-76.5 151.5,-76.5"/>
<text text-anchor="middle" x="205" y="-83.5" font-family="Helvetica,sans-Serif" font-size="10.00">Tree::printBinaryTree</text>
</a>
</g>
</g>
<!-- Node1&#45;&gt;Node12 -->
<g id="edge11" class="edge"><title>Node1&#45;&gt;Node12</title>
<path fill="none" stroke="midnightblue" d="M46.68,-228.5C54.1397,-203.881 77.5749,-137.667 122,-105 127.909,-100.655 134.652,-97.2839 141.676,-94.6711"/>
<polygon fill="midnightblue" stroke="midnightblue" points="142.924,-97.9466 151.376,-91.5583 140.784,-91.2814 142.924,-97.9466"/>
</g>
<!-- Node14 -->
<g id="node14" class="node"><title>Node14</title>
<g id="a_node14"><a xlink:href="a05401.html#af2559965baee16c7a496049bccf703af" target="_top" xlink:title="返回二叉树的结点数(递归版本)">
<polygon fill="white" stroke="black" points="150,-38.5 150,-57.5 260,-57.5 260,-38.5 150,-38.5"/>
<text text-anchor="middle" x="205" y="-45.5" font-family="Helvetica,sans-Serif" font-size="10.00">Tree::binaryTree::size</text>
</a>
</g>
</g>
<!-- Node1&#45;&gt;Node14 -->
<g id="edge13" class="edge"><title>Node1&#45;&gt;Node14</title>
<path fill="none" stroke="midnightblue" d="M45.3739,-228.462C50.0973,-199.32 68.4407,-110.78 122,-67 127.321,-62.6503 133.455,-59.2576 139.923,-56.617"/>
<polygon fill="midnightblue" stroke="midnightblue" points="141.284,-59.8493 149.583,-53.2625 138.988,-53.2367 141.284,-59.8493"/>
</g>
<!-- Node15 -->
<g id="node15" class="node"><title>Node15</title>
<g id="a_node15"><a xlink:href="a05401.html#afe73f325fd03d9281d0330b7a2d0c8a8" target="_top" xlink:title="返回二叉树的结点数(非递归版本)">
<polygon fill="white" stroke="black" points="138,-0.5 138,-19.5 272,-19.5 272,-0.5 138,-0.5"/>
<text text-anchor="middle" x="205" y="-7.5" font-family="Helvetica,sans-Serif" font-size="10.00">Tree::binaryTree::size_loop</text>
</a>
</g>
</g>
<!-- Node1&#45;&gt;Node15 -->
<g id="edge14" class="edge"><title>Node1&#45;&gt;Node15</title>
<path fill="none" stroke="midnightblue" d="M44.514,-228.33C46.8279,-195.041 59.1431,-84.2015 122,-29 124.213,-27.0564 126.586,-25.301 129.08,-23.7163"/>
<polygon fill="midnightblue" stroke="midnightblue" points="130.803,-26.7642 137.969,-18.9605 127.501,-20.592 130.803,-26.7642"/>
</g>
<!-- Node13 -->
<g id="node13" class="node"><title>Node13</title>
<g id="a_node13"><a xlink:href="a05401.html#ab0bcb9734e8955c6b1e982d584320f64" target="_top" xlink:title="获得数据为x的结点的右child">
<polygon fill="white" stroke="black" points="324,-76.5 324,-95.5 440,-95.5 440,-76.5 324,-76.5"/>
<text text-anchor="middle" x="382" y="-83.5" font-family="Helvetica,sans-Serif" font-size="10.00">Tree::binaryTree::rchild</text>
</a>
</g>
</g>
<!-- Node12&#45;&gt;Node13 -->
<g id="edge12" class="edge"><title>Node12&#45;&gt;Node13</title>
<path fill="none" stroke="midnightblue" d="M258.506,-86C275.92,-86 295.548,-86 313.907,-86"/>
<polygon fill="midnightblue" stroke="midnightblue" points="313.954,-89.5001 323.954,-86 313.954,-82.5001 313.954,-89.5001"/>
</g>
</g>
</svg>
        <g id="navigator" transform="translate(0 0)" fill="#404254">
                <rect fill="#f2f5e9" fill-opacity="0.5" stroke="#606060" stroke-width=".5" x="0" y="0" width="60" height="60"/>
                <use id="zoomplus" xlink:href="#zoomPlus" x="17" y="9" onmousedown="handleZoom(evt,'in')"/>
                <use id="zoomminus" xlink:href="#zoomMin" x="42" y="9" onmousedown="handleZoom(evt,'out')"/>
                <use id="reset" xlink:href="#resetDef" x="30" y="36" onmousedown="handleReset()"/>
                <g id="arrowUp" xlink:href="#dirArrow" transform="translate(30 24)" onmousedown="handlePan(0,-1)">
                  <use xlink:href="#rim" fill="#404040">
                        <set attributeName="fill" to="#808080" begin="arrowUp.mouseover" end="arrowUp.mouseout"/>
                  </use>
                  <path fill="none" stroke="white" stroke-width="1.5" d="M0,-3.0v7 M-2.5,-0.5L0,-3.0L2.5,-0.5"/>
                </g>
                <g id="arrowRight" xlink:href="#dirArrow" transform="rotate(90) translate(36 -43)" onmousedown="handlePan(1,0)">
                  <use xlink:href="#rim" fill="#404040">
                        <set attributeName="fill" to="#808080" begin="arrowRight.mouseover" end="arrowRight.mouseout"/>
                  </use>
                  <path fill="none" stroke="white" stroke-width="1.5" d="M0,-3.0v7 M-2.5,-0.5L0,-3.0L2.5,-0.5"/>
                </g>
                <g id="arrowDown" xlink:href="#dirArrow" transform="rotate(180) translate(-30 -48)" onmousedown="handlePan(0,1)">
                  <use xlink:href="#rim" fill="#404040">
                        <set attributeName="fill" to="#808080" begin="arrowDown.mouseover" end="arrowDown.mouseout"/>
                  </use>
                  <path fill="none" stroke="white" stroke-width="1.5" d="M0,-3.0v7 M-2.5,-0.5L0,-3.0L2.5,-0.5"/>
                </g>
                <g id="arrowLeft" xlink:href="#dirArrow" transform="rotate(270) translate(-36 17)" onmousedown="handlePan(-1,0)">
                  <use xlink:href="#rim" fill="#404040">
                        <set attributeName="fill" to="#808080" begin="arrowLeft.mouseover" end="arrowLeft.mouseout"/>
                  </use>
                  <path fill="none" stroke="white" stroke-width="1.5" d="M0,-3.0v7 M-2.5,-0.5L0,-3.0L2.5,-0.5"/>
                </g>
        </g>
        <svg viewBox="0 0 15 15" width="100%" height="30px" preserveAspectRatio="xMaxYMin meet">
         <g id="arrow_out" transform="scale(0.3 0.3)">
          <a xlink:href="a04562_aef526da8114f7f495c2491e172f32871_cgraph_org.svg" target="_base">
           <rect id="button" ry="5" rx="5" y="6" x="6" height="38" width="38"
                fill="#f2f5e9" fill-opacity="0.5" stroke="#606060" stroke-width="1.0"/>
           <path id="arrow"
             d="M 11.500037,31.436501 C 11.940474,20.09759 22.043105,11.32322 32.158766,21.979434 L 37.068811,17.246167 C 37.068811,17.246167 37.088388,32 37.088388,32 L 22.160133,31.978069 C 22.160133,31.978069 26.997745,27.140456 26.997745,27.140456 C 18.528582,18.264221 13.291696,25.230495 11.500037,31.436501 z"
             style="fill:#404040;"/>
          </a>
         </g>
        </svg>
</svg>
