<?xml version="1.0" encoding="UTF-8" standalone="no"?>
<!DOCTYPE svg PUBLIC "-//W3C//DTD SVG 1.1//EN"
 "http://www.w3.org/Graphics/SVG/1.1/DTD/svg11.dtd">
<!-- Generated by graphviz version 2.38.0 (20140413.2041)
 -->
<!-- Title: include/TreeException.hh Pages: 1 -->
<svg width="636pt" height="252pt"
 viewBox="0.00 0.00 635.50 252.00" xmlns="http://www.w3.org/2000/svg" xmlns:xlink="http://www.w3.org/1999/xlink">
<g id="graph0" class="graph" transform="scale(1 1) rotate(0) translate(4 248)">
<title>include/TreeException.hh</title>
<polygon fill="white" stroke="none" points="-4,4 -4,-248 631.5,-248 631.5,4 -4,4"/>
<!-- Node1 -->
<g id="node1" class="node"><title>Node1</title>
<g id="a_node1"><a xlink:title=" ">
<polygon fill="#bfbfbf" stroke="black" points="142,-224.5 142,-243.5 268,-243.5 268,-224.5 142,-224.5"/>
<text text-anchor="middle" x="205" y="-231.5" font-family="Helvetica,sans-Serif" font-size="10.00">include/TreeException.hh</text>
</a>
</g>
</g>
<!-- Node2 -->
<g id="node2" class="node"><title>Node2</title>
<g id="a_node2"><a xlink:href="a04520.html" target="_top" xlink:title=" ">
<polygon fill="white" stroke="black" points="217.5,-168.5 217.5,-187.5 326.5,-187.5 326.5,-168.5 217.5,-168.5"/>
<text text-anchor="middle" x="272" y="-175.5" font-family="Helvetica,sans-Serif" font-size="10.00">include/binaryTree.hh</text>
</a>
</g>
</g>
<!-- Node1&#45;&gt;Node2 -->
<g id="edge1" class="edge"><title>Node1&#45;&gt;Node2</title>
<path fill="none" stroke="midnightblue" d="M223.835,-217.82C235.838,-208.145 250.972,-195.948 261.039,-187.834"/>
<polygon fill="midnightblue" stroke="midnightblue" points="221.354,-215.324 215.765,-224.324 225.747,-220.774 221.354,-215.324"/>
</g>
<!-- Node3 -->
<g id="node3" class="node"><title>Node3</title>
<g id="a_node3"><a xlink:href="a04547.html" target="_top" xlink:title=" ">
<polygon fill="white" stroke="black" points="4.5,-112.5 4.5,-131.5 81.5,-131.5 81.5,-112.5 4.5,-112.5"/>
<text text-anchor="middle" x="43" y="-119.5" font-family="Helvetica,sans-Serif" font-size="10.00">include/Tree.h</text>
</a>
</g>
</g>
<!-- Node1&#45;&gt;Node3 -->
<g id="edge11" class="edge"><title>Node1&#45;&gt;Node3</title>
<path fill="none" stroke="midnightblue" d="M183.961,-218.714C149.824,-195.535 83.3973,-150.43 55.6528,-131.591"/>
<polygon fill="midnightblue" stroke="midnightblue" points="182.049,-221.647 192.288,-224.368 185.981,-215.855 182.049,-221.647"/>
</g>
<!-- Node2&#45;&gt;Node3 -->
<g id="edge2" class="edge"><title>Node2&#45;&gt;Node3</title>
<path fill="none" stroke="midnightblue" d="M225.727,-166.088C182.463,-155.887 118.745,-140.861 79.116,-131.516"/>
<polygon fill="midnightblue" stroke="midnightblue" points="225.178,-169.555 235.714,-168.444 226.785,-162.742 225.178,-169.555"/>
</g>
<!-- Node6 -->
<g id="node6" class="node"><title>Node6</title>
<g id="a_node6"><a xlink:href="a04559.html" target="_top" xlink:title="测试：交换二叉树中所有结点的左右子树">
<polygon fill="white" stroke="black" points="99.5,-112.5 99.5,-131.5 172.5,-131.5 172.5,-112.5 99.5,-112.5"/>
<text text-anchor="middle" x="136" y="-119.5" font-family="Helvetica,sans-Serif" font-size="10.00">src/ch6_1.cc</text>
</a>
</g>
</g>
<!-- Node2&#45;&gt;Node6 -->
<g id="edge5" class="edge"><title>Node2&#45;&gt;Node6</title>
<path fill="none" stroke="midnightblue" d="M240.865,-164.638C215.343,-154.504 179.891,-140.427 157.449,-131.516"/>
<polygon fill="midnightblue" stroke="midnightblue" points="239.865,-168.006 250.45,-168.444 242.448,-161.5 239.865,-168.006"/>
</g>
<!-- Node7 -->
<g id="node7" class="node"><title>Node7</title>
<g id="a_node7"><a xlink:href="a04562.html" target="_top" xlink:title="测试：统计二叉树中度为2的结点的个数">
<polygon fill="white" stroke="black" points="190.5,-112.5 190.5,-131.5 263.5,-131.5 263.5,-112.5 190.5,-112.5"/>
<text text-anchor="middle" x="227" y="-119.5" font-family="Helvetica,sans-Serif" font-size="10.00">src/ch6_2.cc</text>
</a>
</g>
</g>
<!-- Node2&#45;&gt;Node7 -->
<g id="edge6" class="edge"><title>Node2&#45;&gt;Node7</title>
<path fill="none" stroke="midnightblue" d="M257.953,-160.144C250.113,-150.736 240.671,-139.405 234.293,-131.751"/>
<polygon fill="midnightblue" stroke="midnightblue" points="255.479,-162.641 264.569,-168.083 260.856,-158.16 255.479,-162.641"/>
</g>
<!-- Node8 -->
<g id="node8" class="node"><title>Node8</title>
<g id="a_node8"><a xlink:href="a04565.html" target="_top" xlink:title="测试：判断二叉树是否为满二叉树">
<polygon fill="white" stroke="black" points="281.5,-112.5 281.5,-131.5 354.5,-131.5 354.5,-112.5 281.5,-112.5"/>
<text text-anchor="middle" x="318" y="-119.5" font-family="Helvetica,sans-Serif" font-size="10.00">src/ch6_3.cc</text>
</a>
</g>
</g>
<!-- Node2&#45;&gt;Node8 -->
<g id="edge7" class="edge"><title>Node2&#45;&gt;Node8</title>
<path fill="none" stroke="midnightblue" d="M286.114,-160.431C294.176,-150.967 303.959,-139.483 310.545,-131.751"/>
<polygon fill="midnightblue" stroke="midnightblue" points="283.416,-158.201 279.596,-168.083 288.745,-162.74 283.416,-158.201"/>
</g>
<!-- Node9 -->
<g id="node9" class="node"><title>Node9</title>
<g id="a_node9"><a xlink:href="a04568.html" target="_top" xlink:title="测试：判断二叉树是否为完全二叉树">
<polygon fill="white" stroke="black" points="372.5,-112.5 372.5,-131.5 445.5,-131.5 445.5,-112.5 372.5,-112.5"/>
<text text-anchor="middle" x="409" y="-119.5" font-family="Helvetica,sans-Serif" font-size="10.00">src/ch6_4.cc</text>
</a>
</g>
</g>
<!-- Node2&#45;&gt;Node9 -->
<g id="edge8" class="edge"><title>Node2&#45;&gt;Node9</title>
<path fill="none" stroke="midnightblue" d="M303.023,-164.772C328.757,-154.629 364.686,-140.467 387.394,-131.516"/>
<polygon fill="midnightblue" stroke="midnightblue" points="301.728,-161.52 293.708,-168.444 304.295,-168.033 301.728,-161.52"/>
</g>
<!-- Node10 -->
<g id="node10" class="node"><title>Node10</title>
<g id="a_node10"><a xlink:href="a04571.html" target="_top" xlink:title="测试：判断两棵二叉树是否相同">
<polygon fill="white" stroke="black" points="463.5,-112.5 463.5,-131.5 536.5,-131.5 536.5,-112.5 463.5,-112.5"/>
<text text-anchor="middle" x="500" y="-119.5" font-family="Helvetica,sans-Serif" font-size="10.00">src/ch6_5.cc</text>
</a>
</g>
</g>
<!-- Node2&#45;&gt;Node10 -->
<g id="edge9" class="edge"><title>Node2&#45;&gt;Node10</title>
<path fill="none" stroke="midnightblue" d="M318.071,-166.088C361.146,-155.887 424.586,-140.861 464.042,-131.516"/>
<polygon fill="midnightblue" stroke="midnightblue" points="317.051,-162.733 308.127,-168.444 318.665,-169.545 317.051,-162.733"/>
</g>
<!-- Node11 -->
<g id="node11" class="node"><title>Node11</title>
<g id="a_node11"><a xlink:href="a04574.html" target="_top" xlink:title="测试：判断两棵二叉树是否互为镜像">
<polygon fill="white" stroke="black" points="554.5,-112.5 554.5,-131.5 627.5,-131.5 627.5,-112.5 554.5,-112.5"/>
<text text-anchor="middle" x="591" y="-119.5" font-family="Helvetica,sans-Serif" font-size="10.00">src/ch6_6.cc</text>
</a>
</g>
</g>
<!-- Node2&#45;&gt;Node11 -->
<g id="edge10" class="edge"><title>Node2&#45;&gt;Node11</title>
<path fill="none" stroke="midnightblue" d="M336.743,-167.014C392.334,-158.286 474.563,-145.006 546,-132 548.665,-131.515 551.416,-131 554.183,-130.471"/>
<polygon fill="midnightblue" stroke="midnightblue" points="336.02,-163.585 326.682,-168.59 337.103,-170.501 336.02,-163.585"/>
</g>
<!-- Node4 -->
<g id="node4" class="node"><title>Node4</title>
<g id="a_node4"><a xlink:href="a04544.html" target="_top" xlink:title="生成一个文件，内容是一棵二叉树的层次遍历(deprecated)">
<polygon fill="white" stroke="black" points="0,-56.5 0,-75.5 86,-75.5 86,-56.5 0,-56.5"/>
<text text-anchor="middle" x="43" y="-63.5" font-family="Helvetica,sans-Serif" font-size="10.00">include/test0.hh</text>
</a>
</g>
</g>
<!-- Node3&#45;&gt;Node4 -->
<g id="edge3" class="edge"><title>Node3&#45;&gt;Node4</title>
<path fill="none" stroke="midnightblue" d="M43,-101.805C43,-92.9102 43,-82.7798 43,-75.7511"/>
<polygon fill="midnightblue" stroke="midnightblue" points="39.5001,-102.083 43,-112.083 46.5001,-102.083 39.5001,-102.083"/>
</g>
<!-- Node5 -->
<g id="node5" class="node"><title>Node5</title>
<g id="a_node5"><a xlink:href="a04577.html" target="_top" xlink:title=" ">
<polygon fill="white" stroke="black" points="9,-0.5 9,-19.5 77,-19.5 77,-0.5 9,-0.5"/>
<text text-anchor="middle" x="43" y="-7.5" font-family="Helvetica,sans-Serif" font-size="10.00">src/test0.cc</text>
</a>
</g>
</g>
<!-- Node4&#45;&gt;Node5 -->
<g id="edge4" class="edge"><title>Node4&#45;&gt;Node5</title>
<path fill="none" stroke="midnightblue" d="M43,-45.8045C43,-36.9102 43,-26.7798 43,-19.7511"/>
<polygon fill="midnightblue" stroke="midnightblue" points="39.5001,-46.083 43,-56.083 46.5001,-46.083 39.5001,-46.083"/>
</g>
</g>
</svg>
