<?xml version="1.0" encoding="UTF-8" standalone="no"?>
<!DOCTYPE svg PUBLIC "-//W3C//DTD SVG 1.1//EN"
 "http://www.w3.org/Graphics/SVG/1.1/DTD/svg11.dtd">
<!-- Generated by graphviz version 2.38.0 (20140413.2041)
 -->
<!-- Title: print_test_result Pages: 1 -->
<!--zoomable 572 -->
<svg id="main" version="1.1" xmlns="http://www.w3.org/2000/svg" xmlns:xlink="http://www.w3.org/1999/xlink" xml:space="preserve" onload="init(evt)">
<style type="text/css"><![CDATA[
.edge:hover path { stroke: red; }
.edge:hover polygon { stroke: red; fill: red; }
]]></style>
<script type="text/javascript"><![CDATA[
var edges = document.getElementsByTagName('g');
if (edges && edges.length) {
  for (var i=0;i<edges.length;i++) {
    if (edges[i].id.substr(0,4)=='edge') {
      edges[i].setAttribute('class','edge');
    }
  }
}
]]></script>
        <defs>
                <circle id="rim" cx="0" cy="0" r="7"/>
                <circle id="rim2" cx="0" cy="0" r="3.5"/>
                <g id="zoomPlus">
                        <use xlink:href="#rim" fill="#404040">
                                <set attributeName="fill" to="#808080" begin="zoomplus.mouseover" end="zoomplus.mouseout"/>
                        </use>
                        <path d="M-4,0h8M0,-4v8" fill="none" stroke="white" stroke-width="1.5" pointer-events="none"/>
                </g>
                <g id="zoomMin">
                        <use xlink:href="#rim" fill="#404040">
                                <set attributeName="fill" to="#808080" begin="zoomminus.mouseover" end="zoomminus.mouseout"/>
                        </use>
                        <path d="M-4,0h8" fill="none" stroke="white" stroke-width="1.5" pointer-events="none"/>
                </g>
                <g id="dirArrow">
                        <path fill="none" stroke="white" stroke-width="1.5" d="M0,-3.0v7 M-2.5,-0.5L0,-3.0L2.5,-0.5"/>
                </g>
               <g id="resetDef">
                       <use xlink:href="#rim2" fill="#404040">
                               <set attributeName="fill" to="#808080" begin="reset.mouseover" end="reset.mouseout"/>
                       </use>
               </g>
        </defs>

<script type="text/javascript">
var viewWidth = 454;
var viewHeight = 572;
var sectionId = 'dynsection-6';
</script>
<script xlink:href="svgpan.js"/>
<svg id="graph" class="graph">
<g id="viewport">
<title>print_test_result</title>
<polygon fill="white" stroke="none" points="-4,4 -4,-568 450,-568 450,4 -4,4"/>
<!-- Node1 -->
<g id="node1" class="node"><title>Node1</title>
<g id="a_node1"><a xlink:title="(测试用)将二叉树类的多种方法的输出插到输出流">
<polygon fill="#bfbfbf" stroke="black" points="0,-266.5 0,-285.5 86,-285.5 86,-266.5 0,-266.5"/>
<text text-anchor="middle" x="43" y="-273.5" font-family="Helvetica,sans-Serif" font-size="10.00">print_test_result</text>
</a>
</g>
</g>
<!-- Node2 -->
<g id="node2" class="node"><title>Node2</title>
<g id="a_node2"><a xlink:href="a05401.html#a1203fc03a4506fa073d80545ce1de6a3" target="_top" xlink:title="统计树中度为2的结点的个数">
<polygon fill="white" stroke="black" points="122,-544.5 122,-563.5 288,-563.5 288,-544.5 122,-544.5"/>
<text text-anchor="middle" x="205" y="-551.5" font-family="Helvetica,sans-Serif" font-size="10.00">Tree::binaryTree::CountDegreeTwo</text>
</a>
</g>
</g>
<!-- Node1&#45;&gt;Node2 -->
<g id="edge1" class="edge"><title>Node1&#45;&gt;Node2</title>
<path fill="none" stroke="midnightblue" d="M43.7215,-285.734C43.1938,-323.852 46.618,-464.353 122,-535 123.519,-536.424 125.124,-537.748 126.799,-538.98"/>
<polygon fill="midnightblue" stroke="midnightblue" points="125.336,-542.186 135.698,-544.393 128.973,-536.206 125.336,-542.186"/>
</g>
<!-- Node3 -->
<g id="node3" class="node"><title>Node3</title>
<g id="a_node3"><a xlink:href="a05401.html#ac7389dcd912456fbc77ad350a1134732" target="_top" xlink:title="返回二叉树的高度(递归版本)">
<polygon fill="white" stroke="black" points="145.5,-506.5 145.5,-525.5 264.5,-525.5 264.5,-506.5 145.5,-506.5"/>
<text text-anchor="middle" x="205" y="-513.5" font-family="Helvetica,sans-Serif" font-size="10.00">Tree::binaryTree::height</text>
</a>
</g>
</g>
<!-- Node1&#45;&gt;Node3 -->
<g id="edge2" class="edge"><title>Node1&#45;&gt;Node3</title>
<path fill="none" stroke="midnightblue" d="M44.2967,-285.727C45.9018,-320.275 56.1832,-438.147 122,-497 126.153,-500.714 130.888,-503.743 135.939,-506.208"/>
<polygon fill="midnightblue" stroke="midnightblue" points="134.735,-509.498 145.315,-510.065 137.398,-503.024 134.735,-509.498"/>
</g>
<!-- Node4 -->
<g id="node4" class="node"><title>Node4</title>
<g id="a_node4"><a xlink:href="a05401.html#a18c50f432143bfe2feade7347f8ff770" target="_top" xlink:title="返回二叉树的高度(非递归版本)">
<polygon fill="white" stroke="black" points="134,-468.5 134,-487.5 276,-487.5 276,-468.5 134,-468.5"/>
<text text-anchor="middle" x="205" y="-475.5" font-family="Helvetica,sans-Serif" font-size="10.00">Tree::binaryTree::height_loop</text>
</a>
</g>
</g>
<!-- Node1&#45;&gt;Node4 -->
<g id="edge3" class="edge"><title>Node1&#45;&gt;Node4</title>
<path fill="none" stroke="midnightblue" d="M45.0916,-285.754C49.0662,-316.435 65.6315,-411.734 122,-459 124.009,-460.684 126.138,-462.226 128.362,-463.636"/>
<polygon fill="midnightblue" stroke="midnightblue" points="126.883,-466.814 137.351,-468.452 130.189,-460.644 126.883,-466.814"/>
</g>
<!-- Node5 -->
<g id="node5" class="node"><title>Node5</title>
<g id="a_node5"><a xlink:href="a05401.html#ac6003da876c500af081001c549a90433" target="_top" xlink:title="中序遍历(递归版本)">
<polygon fill="white" stroke="black" points="143,-430.5 143,-449.5 267,-449.5 267,-430.5 143,-430.5"/>
<text text-anchor="middle" x="205" y="-437.5" font-family="Helvetica,sans-Serif" font-size="10.00">Tree::binaryTree::inOrder</text>
</a>
</g>
</g>
<!-- Node1&#45;&gt;Node5 -->
<g id="edge4" class="edge"><title>Node1&#45;&gt;Node5</title>
<path fill="none" stroke="midnightblue" d="M46.2156,-285.574C52.7917,-311.74 74.7571,-384.901 122,-421 125.462,-423.645 129.229,-425.932 133.184,-427.908"/>
<polygon fill="midnightblue" stroke="midnightblue" points="132.127,-431.262 142.698,-431.977 134.88,-424.826 132.127,-431.262"/>
</g>
<!-- Node6 -->
<g id="node6" class="node"><title>Node6</title>
<g id="a_node6"><a xlink:href="a05401.html#a6cb786410ed6c0f61969a09b76f4da0c" target="_top" xlink:title="中序遍历(非递归版本)">
<polygon fill="white" stroke="black" points="131.5,-392.5 131.5,-411.5 278.5,-411.5 278.5,-392.5 131.5,-392.5"/>
<text text-anchor="middle" x="205" y="-399.5" font-family="Helvetica,sans-Serif" font-size="10.00">Tree::binaryTree::inOrder_loop</text>
</a>
</g>
</g>
<!-- Node1&#45;&gt;Node6 -->
<g id="edge5" class="edge"><title>Node1&#45;&gt;Node6</title>
<path fill="none" stroke="midnightblue" d="M48.2037,-285.799C57.8755,-307.107 83.8426,-357.766 122,-383 125.108,-385.055 128.411,-386.89 131.838,-388.527"/>
<polygon fill="midnightblue" stroke="midnightblue" points="130.578,-391.794 141.155,-392.416 133.275,-385.334 130.578,-391.794"/>
</g>
<!-- Node7 -->
<g id="node7" class="node"><title>Node7</title>
<g id="a_node7"><a xlink:href="a05401.html#a2b05f46a36ae7f0f98dfa65dc908fdca" target="_top" xlink:title="返回是否完全二叉树">
<polygon fill="white" stroke="black" points="125,-354.5 125,-373.5 285,-373.5 285,-354.5 125,-354.5"/>
<text text-anchor="middle" x="205" y="-361.5" font-family="Helvetica,sans-Serif" font-size="10.00">Tree::binaryTree::isCompleteTree</text>
</a>
</g>
</g>
<!-- Node1&#45;&gt;Node7 -->
<g id="edge6" class="edge"><title>Node1&#45;&gt;Node7</title>
<path fill="none" stroke="midnightblue" d="M52.0223,-285.687C65.0725,-300.78 92.4309,-329.757 122,-345 126.591,-347.367 131.477,-349.442 136.489,-351.261"/>
<polygon fill="midnightblue" stroke="midnightblue" points="135.647,-354.668 146.24,-354.453 137.825,-348.016 135.647,-354.668"/>
</g>
<!-- Node8 -->
<g id="node8" class="node"><title>Node8</title>
<g id="a_node8"><a xlink:href="a05401.html#afee39e46bd46f7178347eaae0581063b" target="_top" xlink:title="是否满二叉树">
<polygon fill="white" stroke="black" points="147,-305 147,-335 263,-335 263,-305 147,-305"/>
<text text-anchor="start" x="155" y="-323" font-family="Helvetica,sans-Serif" font-size="10.00">Tree::binaryTree::isFull</text>
<text text-anchor="middle" x="205" y="-312" font-family="Helvetica,sans-Serif" font-size="10.00">BinaryTree</text>
</a>
</g>
</g>
<!-- Node1&#45;&gt;Node8 -->
<g id="edge7" class="edge"><title>Node1&#45;&gt;Node8</title>
<path fill="none" stroke="midnightblue" d="M78.7176,-285.547C96.4905,-290.435 118.709,-296.545 139.481,-302.257"/>
<polygon fill="midnightblue" stroke="midnightblue" points="138.647,-305.658 149.217,-304.935 140.503,-298.908 138.647,-305.658"/>
</g>
<!-- Node10 -->
<g id="node10" class="node"><title>Node10</title>
<g id="a_node10"><a xlink:href="a05401.html#a94dcc51623e366cb26fa5e543b19c6f8" target="_top" xlink:title="层次遍历">
<polygon fill="white" stroke="black" points="137.5,-266.5 137.5,-285.5 272.5,-285.5 272.5,-266.5 137.5,-266.5"/>
<text text-anchor="middle" x="205" y="-273.5" font-family="Helvetica,sans-Serif" font-size="10.00">Tree::binaryTree::levelOrder</text>
</a>
</g>
</g>
<!-- Node1&#45;&gt;Node10 -->
<g id="edge9" class="edge"><title>Node1&#45;&gt;Node10</title>
<path fill="none" stroke="midnightblue" d="M86.0381,-276C98.7039,-276 113.022,-276 127.206,-276"/>
<polygon fill="midnightblue" stroke="midnightblue" points="127.485,-279.5 137.485,-276 127.485,-272.5 127.485,-279.5"/>
</g>
<!-- Node11 -->
<g id="node11" class="node"><title>Node11</title>
<g id="a_node11"><a xlink:href="a05401.html#a29e131a4f32bf7ac33dad9cd60d5ca7b" target="_top" xlink:title="后序遍历(递归版本)">
<polygon fill="white" stroke="black" points="137.5,-228.5 137.5,-247.5 272.5,-247.5 272.5,-228.5 137.5,-228.5"/>
<text text-anchor="middle" x="205" y="-235.5" font-family="Helvetica,sans-Serif" font-size="10.00">Tree::binaryTree::postOrder</text>
</a>
</g>
</g>
<!-- Node1&#45;&gt;Node11 -->
<g id="edge10" class="edge"><title>Node1&#45;&gt;Node11</title>
<path fill="none" stroke="midnightblue" d="M82.8606,-266.443C95.3514,-263.395 109.254,-260.029 122,-257 131.81,-254.669 142.289,-252.214 152.363,-249.871"/>
<polygon fill="midnightblue" stroke="midnightblue" points="153.313,-253.244 162.263,-247.575 151.731,-246.425 153.313,-253.244"/>
</g>
<!-- Node12 -->
<g id="node12" class="node"><title>Node12</title>
<g id="a_node12"><a xlink:href="a05401.html#a24d90fc12dae5213ddb8b21baf14cc66" target="_top" xlink:title="后序遍历(非递归版本)">
<polygon fill="white" stroke="black" points="126,-190.5 126,-209.5 284,-209.5 284,-190.5 126,-190.5"/>
<text text-anchor="middle" x="205" y="-197.5" font-family="Helvetica,sans-Serif" font-size="10.00">Tree::binaryTree::postOrder_loop</text>
</a>
</g>
</g>
<!-- Node1&#45;&gt;Node12 -->
<g id="edge11" class="edge"><title>Node1&#45;&gt;Node12</title>
<path fill="none" stroke="midnightblue" d="M54.2278,-266.38C68.3583,-253.622 95.1607,-231.289 122,-219 127.362,-216.545 133.072,-214.391 138.886,-212.506"/>
<polygon fill="midnightblue" stroke="midnightblue" points="140.14,-215.785 148.727,-209.579 138.144,-209.075 140.14,-215.785"/>
</g>
<!-- Node13 -->
<g id="node13" class="node"><title>Node13</title>
<g id="a_node13"><a xlink:href="a05401.html#aa0a3d9e4bc6035a9c914e5109d6688b7" target="_top" xlink:title="前序遍历(递归版本)">
<polygon fill="white" stroke="black" points="140,-152.5 140,-171.5 270,-171.5 270,-152.5 140,-152.5"/>
<text text-anchor="middle" x="205" y="-159.5" font-family="Helvetica,sans-Serif" font-size="10.00">Tree::binaryTree::preOrder</text>
</a>
</g>
</g>
<!-- Node1&#45;&gt;Node13 -->
<g id="edge12" class="edge"><title>Node1&#45;&gt;Node13</title>
<path fill="none" stroke="midnightblue" d="M48.9893,-266.426C59.6199,-247.027 86.4631,-203.059 122,-181 125.395,-178.893 129,-177.019 132.732,-175.352"/>
<polygon fill="midnightblue" stroke="midnightblue" points="134.195,-178.538 142.222,-171.623 131.634,-172.023 134.195,-178.538"/>
</g>
<!-- Node14 -->
<g id="node14" class="node"><title>Node14</title>
<g id="a_node14"><a xlink:href="a05401.html#af9d71e1c10511c865aed5c553ac24b72" target="_top" xlink:title="前序遍历(非递归版本)">
<polygon fill="white" stroke="black" points="128.5,-114.5 128.5,-133.5 281.5,-133.5 281.5,-114.5 128.5,-114.5"/>
<text text-anchor="middle" x="205" y="-121.5" font-family="Helvetica,sans-Serif" font-size="10.00">Tree::binaryTree::preOrder_loop</text>
</a>
</g>
</g>
<!-- Node1&#45;&gt;Node14 -->
<g id="edge13" class="edge"><title>Node1&#45;&gt;Node14</title>
<path fill="none" stroke="midnightblue" d="M46.68,-266.5C54.1397,-241.881 77.5749,-175.667 122,-143 124.649,-141.052 127.466,-139.3 130.4,-137.724"/>
<polygon fill="midnightblue" stroke="midnightblue" points="131.905,-140.885 139.508,-133.506 128.963,-134.533 131.905,-140.885"/>
</g>
<!-- Node15 -->
<g id="node15" class="node"><title>Node15</title>
<g id="a_node15"><a xlink:href="a04583.html#ad484ac5e75e3c6057bed828f29a86776" target="_top" xlink:title="输出一棵二叉树">
<polygon fill="white" stroke="black" points="151.5,-76.5 151.5,-95.5 258.5,-95.5 258.5,-76.5 151.5,-76.5"/>
<text text-anchor="middle" x="205" y="-83.5" font-family="Helvetica,sans-Serif" font-size="10.00">Tree::printBinaryTree</text>
</a>
</g>
</g>
<!-- Node1&#45;&gt;Node15 -->
<g id="edge14" class="edge"><title>Node1&#45;&gt;Node15</title>
<path fill="none" stroke="midnightblue" d="M45.3739,-266.462C50.0973,-237.32 68.4407,-148.78 122,-105 127.756,-100.295 134.463,-96.7094 141.515,-93.9845"/>
<polygon fill="midnightblue" stroke="midnightblue" points="142.879,-97.2208 151.289,-90.7777 140.696,-90.5696 142.879,-97.2208"/>
</g>
<!-- Node17 -->
<g id="node17" class="node"><title>Node17</title>
<g id="a_node17"><a xlink:href="a05401.html#af2559965baee16c7a496049bccf703af" target="_top" xlink:title="返回二叉树的结点数(递归版本)">
<polygon fill="white" stroke="black" points="150,-38.5 150,-57.5 260,-57.5 260,-38.5 150,-38.5"/>
<text text-anchor="middle" x="205" y="-45.5" font-family="Helvetica,sans-Serif" font-size="10.00">Tree::binaryTree::size</text>
</a>
</g>
</g>
<!-- Node1&#45;&gt;Node17 -->
<g id="edge16" class="edge"><title>Node1&#45;&gt;Node17</title>
<path fill="none" stroke="midnightblue" d="M44.514,-266.33C46.8279,-233.041 59.1431,-122.202 122,-67 127.238,-62.4001 133.371,-58.8547 139.884,-56.1306"/>
<polygon fill="midnightblue" stroke="midnightblue" points="141.365,-59.3198 149.637,-52.7 139.043,-52.7164 141.365,-59.3198"/>
</g>
<!-- Node18 -->
<g id="node18" class="node"><title>Node18</title>
<g id="a_node18"><a xlink:href="a05401.html#afe73f325fd03d9281d0330b7a2d0c8a8" target="_top" xlink:title="返回二叉树的结点数(非递归版本)">
<polygon fill="white" stroke="black" points="138,-0.5 138,-19.5 272,-19.5 272,-0.5 138,-0.5"/>
<text text-anchor="middle" x="205" y="-7.5" font-family="Helvetica,sans-Serif" font-size="10.00">Tree::binaryTree::size_loop</text>
</a>
</g>
</g>
<!-- Node1&#45;&gt;Node18 -->
<g id="edge17" class="edge"><title>Node1&#45;&gt;Node18</title>
<path fill="none" stroke="midnightblue" d="M43.885,-266.455C43.9909,-229.697 49.5285,-96.0155 122,-29 124.163,-27.0002 126.493,-25.1976 128.951,-23.5734"/>
<polygon fill="midnightblue" stroke="midnightblue" points="130.687,-26.6133 137.745,-18.7118 127.3,-20.4872 130.687,-26.6133"/>
</g>
<!-- Node9 -->
<g id="node9" class="node"><title>Node9</title>
<g id="a_node9"><a xlink:href="a05433.html#ab5e0074e371fd8bc3d9baf8aaec372ae" target="_top" xlink:title="Inserts a new element at the end of the queue, after its current last element.">
<polygon fill="white" stroke="black" points="324,-310.5 324,-329.5 446,-329.5 446,-310.5 324,-310.5"/>
<text text-anchor="middle" x="385" y="-317.5" font-family="Helvetica,sans-Serif" font-size="10.00">Queue::seqQueue::push</text>
</a>
</g>
</g>
<!-- Node8&#45;&gt;Node9 -->
<g id="edge8" class="edge"><title>Node8&#45;&gt;Node9</title>
<path fill="none" stroke="midnightblue" d="M263.3,-320C279.291,-320 296.853,-320 313.509,-320"/>
<polygon fill="midnightblue" stroke="midnightblue" points="313.741,-323.5 323.741,-320 313.741,-316.5 313.741,-323.5"/>
</g>
<!-- Node16 -->
<g id="node16" class="node"><title>Node16</title>
<g id="a_node16"><a xlink:href="a05401.html#ab0bcb9734e8955c6b1e982d584320f64" target="_top" xlink:title="获得数据为x的结点的右child">
<polygon fill="white" stroke="black" points="327,-76.5 327,-95.5 443,-95.5 443,-76.5 327,-76.5"/>
<text text-anchor="middle" x="385" y="-83.5" font-family="Helvetica,sans-Serif" font-size="10.00">Tree::binaryTree::rchild</text>
</a>
</g>
</g>
<!-- Node15&#45;&gt;Node16 -->
<g id="edge15" class="edge"><title>Node15&#45;&gt;Node16</title>
<path fill="none" stroke="midnightblue" d="M258.924,-86C277.079,-86 297.645,-86 316.781,-86"/>
<polygon fill="midnightblue" stroke="midnightblue" points="316.937,-89.5001 326.937,-86 316.937,-82.5001 316.937,-89.5001"/>
</g>
</g>
</svg>
        <g id="navigator" transform="translate(0 0)" fill="#404254">
                <rect fill="#f2f5e9" fill-opacity="0.5" stroke="#606060" stroke-width=".5" x="0" y="0" width="60" height="60"/>
                <use id="zoomplus" xlink:href="#zoomPlus" x="17" y="9" onmousedown="handleZoom(evt,'in')"/>
                <use id="zoomminus" xlink:href="#zoomMin" x="42" y="9" onmousedown="handleZoom(evt,'out')"/>
                <use id="reset" xlink:href="#resetDef" x="30" y="36" onmousedown="handleReset()"/>
                <g id="arrowUp" xlink:href="#dirArrow" transform="translate(30 24)" onmousedown="handlePan(0,-1)">
                  <use xlink:href="#rim" fill="#404040">
                        <set attributeName="fill" to="#808080" begin="arrowUp.mouseover" end="arrowUp.mouseout"/>
                  </use>
                  <path fill="none" stroke="white" stroke-width="1.5" d="M0,-3.0v7 M-2.5,-0.5L0,-3.0L2.5,-0.5"/>
                </g>
                <g id="arrowRight" xlink:href="#dirArrow" transform="rotate(90) translate(36 -43)" onmousedown="handlePan(1,0)">
                  <use xlink:href="#rim" fill="#404040">
                        <set attributeName="fill" to="#808080" begin="arrowRight.mouseover" end="arrowRight.mouseout"/>
                  </use>
                  <path fill="none" stroke="white" stroke-width="1.5" d="M0,-3.0v7 M-2.5,-0.5L0,-3.0L2.5,-0.5"/>
                </g>
                <g id="arrowDown" xlink:href="#dirArrow" transform="rotate(180) translate(-30 -48)" onmousedown="handlePan(0,1)">
                  <use xlink:href="#rim" fill="#404040">
                        <set attributeName="fill" to="#808080" begin="arrowDown.mouseover" end="arrowDown.mouseout"/>
                  </use>
                  <path fill="none" stroke="white" stroke-width="1.5" d="M0,-3.0v7 M-2.5,-0.5L0,-3.0L2.5,-0.5"/>
                </g>
                <g id="arrowLeft" xlink:href="#dirArrow" transform="rotate(270) translate(-36 17)" onmousedown="handlePan(-1,0)">
                  <use xlink:href="#rim" fill="#404040">
                        <set attributeName="fill" to="#808080" begin="arrowLeft.mouseover" end="arrowLeft.mouseout"/>
                  </use>
                  <path fill="none" stroke="white" stroke-width="1.5" d="M0,-3.0v7 M-2.5,-0.5L0,-3.0L2.5,-0.5"/>
                </g>
        </g>
        <svg viewBox="0 0 15 15" width="100%" height="30px" preserveAspectRatio="xMaxYMin meet">
         <g id="arrow_out" transform="scale(0.3 0.3)">
          <a xlink:href="a04574_a06a3cb0f33ca166e47143d103bf404f8_cgraph_org.svg" target="_base">
           <rect id="button" ry="5" rx="5" y="6" x="6" height="38" width="38"
                fill="#f2f5e9" fill-opacity="0.5" stroke="#606060" stroke-width="1.0"/>
           <path id="arrow"
             d="M 11.500037,31.436501 C 11.940474,20.09759 22.043105,11.32322 32.158766,21.979434 L 37.068811,17.246167 C 37.068811,17.246167 37.088388,32 37.088388,32 L 22.160133,31.978069 C 22.160133,31.978069 26.997745,27.140456 26.997745,27.140456 C 18.528582,18.264221 13.291696,25.230495 11.500037,31.436501 z"
             style="fill:#404040;"/>
          </a>
         </g>
        </svg>
</svg>
