<?xml version="1.0" encoding="UTF-8" standalone="no"?>
<!DOCTYPE svg PUBLIC "-//W3C//DTD SVG 1.1//EN"
 "http://www.w3.org/Graphics/SVG/1.1/DTD/svg11.dtd">
<!-- Generated by graphviz version 2.38.0 (20140413.2041)
 -->
<!-- Title: include/binaryTree.hh Pages: 1 -->
<svg width="981pt" height="196pt"
 viewBox="0.00 0.00 981.00 196.00" xmlns="http://www.w3.org/2000/svg" xmlns:xlink="http://www.w3.org/1999/xlink">
<g id="graph0" class="graph" transform="scale(1 1) rotate(0) translate(4 192)">
<title>include/binaryTree.hh</title>
<polygon fill="white" stroke="none" points="-4,4 -4,-192 977,-192 977,4 -4,4"/>
<!-- Node1 -->
<g id="node1" class="node"><title>Node1</title>
<g id="a_node1"><a xlink:title=" ">
<polygon fill="#bfbfbf" stroke="black" points="628.5,-168.5 628.5,-187.5 737.5,-187.5 737.5,-168.5 628.5,-168.5"/>
<text text-anchor="middle" x="683" y="-175.5" font-family="Helvetica,sans-Serif" font-size="10.00">include/binaryTree.hh</text>
</a>
</g>
</g>
<!-- Node2 -->
<g id="node2" class="node"><title>Node2</title>
<g id="a_node2"><a xlink:href="a04532.html" target="_top" xlink:title=" ">
<polygon fill="white" stroke="black" points="168.5,-112.5 168.5,-131.5 221.5,-131.5 221.5,-112.5 168.5,-112.5"/>
<text text-anchor="middle" x="195" y="-119.5" font-family="Helvetica,sans-Serif" font-size="10.00">Queue.h</text>
</a>
</g>
</g>
<!-- Node1&#45;&gt;Node2 -->
<g id="edge1" class="edge"><title>Node1&#45;&gt;Node2</title>
<path fill="none" stroke="midnightblue" d="M628.441,-170.963C528.044,-159.853 316.534,-136.448 231.521,-127.041"/>
<polygon fill="midnightblue" stroke="midnightblue" points="231.885,-123.56 221.561,-125.939 231.115,-130.518 231.885,-123.56"/>
</g>
<!-- Node5 -->
<g id="node5" class="node"><title>Node5</title>
<g id="a_node5"><a xlink:title=" ">
<polygon fill="white" stroke="#bfbfbf" points="267,-0.5 267,-19.5 307,-19.5 307,-0.5 267,-0.5"/>
<text text-anchor="middle" x="287" y="-7.5" font-family="Helvetica,sans-Serif" font-size="10.00">utility</text>
</a>
</g>
</g>
<!-- Node1&#45;&gt;Node5 -->
<g id="edge27" class="edge"><title>Node1&#45;&gt;Node5</title>
<path fill="none" stroke="midnightblue" d="M634.972,-168.45C570.477,-155.508 453.837,-126.889 366,-76 342.141,-62.1771 318.166,-41.2144 302.991,-26.8555"/>
<polygon fill="midnightblue" stroke="midnightblue" points="305.147,-24.0724 295.522,-19.645 300.285,-29.1086 305.147,-24.0724"/>
</g>
<!-- Node8 -->
<g id="node8" class="node"><title>Node8</title>
<g id="a_node8"><a xlink:href="a04541.html" target="_top" xlink:title=" ">
<polygon fill="white" stroke="black" points="523,-112.5 523,-131.5 573,-131.5 573,-112.5 523,-112.5"/>
<text text-anchor="middle" x="548" y="-119.5" font-family="Helvetica,sans-Serif" font-size="10.00">Stack.h</text>
</a>
</g>
</g>
<!-- Node1&#45;&gt;Node8 -->
<g id="edge12" class="edge"><title>Node1&#45;&gt;Node8</title>
<path fill="none" stroke="midnightblue" d="M661.609,-168.444C639.293,-159.517 604.097,-145.439 578.792,-135.317"/>
<polygon fill="midnightblue" stroke="midnightblue" points="579.876,-131.981 569.291,-131.516 577.276,-138.48 579.876,-131.981"/>
</g>
<!-- Node13 -->
<g id="node13" class="node"><title>Node13</title>
<g id="a_node13"><a xlink:href="a04550.html" target="_top" xlink:title=" ">
<polygon fill="white" stroke="black" points="591,-112.5 591,-131.5 683,-131.5 683,-112.5 591,-112.5"/>
<text text-anchor="middle" x="637" y="-119.5" font-family="Helvetica,sans-Serif" font-size="10.00">TreeException.hh</text>
</a>
</g>
</g>
<!-- Node1&#45;&gt;Node13 -->
<g id="edge20" class="edge"><title>Node1&#45;&gt;Node13</title>
<path fill="none" stroke="midnightblue" d="M675.404,-168.083C668.773,-160.298 658.979,-148.801 650.942,-139.367"/>
<polygon fill="midnightblue" stroke="midnightblue" points="653.604,-137.094 644.455,-131.751 648.275,-141.633 653.604,-137.094"/>
</g>
<!-- Node16 -->
<g id="node16" class="node"><title>Node16</title>
<g id="a_node16"><a xlink:href="a04523.html" target="_top" xlink:title=" ">
<polygon fill="white" stroke="black" points="701,-112.5 701,-131.5 757,-131.5 757,-112.5 701,-112.5"/>
<text text-anchor="middle" x="729" y="-119.5" font-family="Helvetica,sans-Serif" font-size="10.00">binTree.h</text>
</a>
</g>
</g>
<!-- Node1&#45;&gt;Node16 -->
<g id="edge23" class="edge"><title>Node1&#45;&gt;Node16</title>
<path fill="none" stroke="midnightblue" d="M690.596,-168.083C697.227,-160.298 707.021,-148.801 715.058,-139.367"/>
<polygon fill="midnightblue" stroke="midnightblue" points="717.725,-141.633 721.545,-131.751 712.396,-137.094 717.725,-141.633"/>
</g>
<!-- Node17 -->
<g id="node17" class="node"><title>Node17</title>
<g id="a_node17"><a xlink:title=" ">
<polygon fill="white" stroke="#bfbfbf" points="775.5,-112.5 775.5,-131.5 824.5,-131.5 824.5,-112.5 775.5,-112.5"/>
<text text-anchor="middle" x="800" y="-119.5" font-family="Helvetica,sans-Serif" font-size="10.00">cassert</text>
</a>
</g>
</g>
<!-- Node1&#45;&gt;Node17 -->
<g id="edge24" class="edge"><title>Node1&#45;&gt;Node17</title>
<path fill="none" stroke="midnightblue" d="M701.539,-168.444C720.623,-159.636 750.575,-145.812 772.436,-135.722"/>
<polygon fill="midnightblue" stroke="midnightblue" points="773.935,-138.885 781.548,-131.516 771.001,-132.529 773.935,-138.885"/>
</g>
<!-- Node18 -->
<g id="node18" class="node"><title>Node18</title>
<g id="a_node18"><a xlink:title=" ">
<polygon fill="white" stroke="#bfbfbf" points="843,-112.5 843,-131.5 901,-131.5 901,-112.5 843,-112.5"/>
<text text-anchor="middle" x="872" y="-119.5" font-family="Helvetica,sans-Serif" font-size="10.00">functional</text>
</a>
</g>
</g>
<!-- Node1&#45;&gt;Node18 -->
<g id="edge25" class="edge"><title>Node1&#45;&gt;Node18</title>
<path fill="none" stroke="midnightblue" d="M712.948,-168.444C745.347,-159.186 797.139,-144.389 832.769,-134.209"/>
<polygon fill="midnightblue" stroke="midnightblue" points="834.16,-137.452 842.814,-131.339 832.237,-130.721 834.16,-137.452"/>
</g>
<!-- Node19 -->
<g id="node19" class="node"><title>Node19</title>
<g id="a_node19"><a xlink:title=" ">
<polygon fill="white" stroke="#bfbfbf" points="919,-112.5 919,-131.5 973,-131.5 973,-112.5 919,-112.5"/>
<text text-anchor="middle" x="946" y="-119.5" font-family="Helvetica,sans-Serif" font-size="10.00">iostream</text>
</a>
</g>
</g>
<!-- Node1&#45;&gt;Node19 -->
<g id="edge26" class="edge"><title>Node1&#45;&gt;Node19</title>
<path fill="none" stroke="midnightblue" d="M729.659,-168.446C773.494,-160.255 841.148,-147.213 908.911,-132.16"/>
<polygon fill="midnightblue" stroke="midnightblue" points="909.912,-135.523 918.907,-129.925 908.384,-128.692 909.912,-135.523"/>
</g>
<!-- Node3 -->
<g id="node3" class="node"><title>Node3</title>
<g id="a_node3"><a xlink:title=" ">
<polygon fill="white" stroke="#bfbfbf" points="0,-56.5 0,-75.5 48,-75.5 48,-56.5 0,-56.5"/>
<text text-anchor="middle" x="24" y="-63.5" font-family="Helvetica,sans-Serif" font-size="10.00">cstddef</text>
</a>
</g>
</g>
<!-- Node2&#45;&gt;Node3 -->
<g id="edge2" class="edge"><title>Node2&#45;&gt;Node3</title>
<path fill="none" stroke="midnightblue" d="M168.281,-112.563C138.531,-103.168 90.376,-87.9608 57.9714,-77.7278"/>
<polygon fill="midnightblue" stroke="midnightblue" points="58.6369,-74.2677 48.0471,-74.5938 56.5289,-80.9427 58.6369,-74.2677"/>
</g>
<!-- Node4 -->
<g id="node4" class="node"><title>Node4</title>
<g id="a_node4"><a xlink:href="a04526.html" target="_top" xlink:title=" ">
<polygon fill="white" stroke="black" points="66,-56.5 66,-75.5 140,-75.5 140,-56.5 66,-56.5"/>
<text text-anchor="middle" x="103" y="-63.5" font-family="Helvetica,sans-Serif" font-size="10.00">linkQueue.hh</text>
</a>
</g>
</g>
<!-- Node2&#45;&gt;Node4 -->
<g id="edge3" class="edge"><title>Node2&#45;&gt;Node4</title>
<path fill="none" stroke="midnightblue" d="M175.104,-112.324C159.08,-103.979 137.019,-91.2122 121.409,-81.3524"/>
<polygon fill="midnightblue" stroke="midnightblue" points="122.928,-78.1653 112.635,-75.6545 119.115,-84.0361 122.928,-78.1653"/>
</g>
<!-- Node6 -->
<g id="node6" class="node"><title>Node6</title>
<g id="a_node6"><a xlink:href="a04535.html" target="_top" xlink:title=" ">
<polygon fill="white" stroke="black" points="158,-56.5 158,-75.5 232,-75.5 232,-56.5 158,-56.5"/>
<text text-anchor="middle" x="195" y="-63.5" font-family="Helvetica,sans-Serif" font-size="10.00">seqQueue.hh</text>
</a>
</g>
</g>
<!-- Node2&#45;&gt;Node6 -->
<g id="edge6" class="edge"><title>Node2&#45;&gt;Node6</title>
<path fill="none" stroke="midnightblue" d="M189.834,-112.083C188.324,-104.927 187.894,-94.6353 188.542,-85.6911"/>
<polygon fill="midnightblue" stroke="midnightblue" points="192.015,-86.1262 189.869,-75.7511 185.077,-85.2002 192.015,-86.1262"/>
</g>
<!-- Node7 -->
<g id="node7" class="node"><title>Node7</title>
<g id="a_node7"><a xlink:href="a04553.html" target="_top" xlink:title=" ">
<polygon fill="white" stroke="black" points="250.5,-56.5 250.5,-75.5 323.5,-75.5 323.5,-56.5 250.5,-56.5"/>
<text text-anchor="middle" x="287" y="-63.5" font-family="Helvetica,sans-Serif" font-size="10.00">vecQueue.hh</text>
</a>
</g>
</g>
<!-- Node2&#45;&gt;Node7 -->
<g id="edge9" class="edge"><title>Node2&#45;&gt;Node7</title>
<path fill="none" stroke="midnightblue" d="M204.667,-112.324C217.487,-103.703 239.944,-90.3643 258.274,-80.3855"/>
<polygon fill="midnightblue" stroke="midnightblue" points="259.969,-83.4486 267.145,-75.6545 256.675,-77.2721 259.969,-83.4486"/>
</g>
<!-- Node4&#45;&gt;Node2 -->
<g id="edge4" class="edge"><title>Node4&#45;&gt;Node2</title>
<path fill="none" stroke="midnightblue" d="M122.855,-75.6545C138.869,-83.9919 160.929,-96.7574 176.551,-106.622"/>
<polygon fill="midnightblue" stroke="midnightblue" points="175.04,-109.814 185.333,-112.324 178.852,-103.943 175.04,-109.814"/>
</g>
<!-- Node4&#45;&gt;Node5 -->
<g id="edge5" class="edge"><title>Node4&#45;&gt;Node5</title>
<path fill="none" stroke="midnightblue" d="M132.155,-56.4435C166.226,-46.4446 222.323,-29.9814 256.825,-19.8556"/>
<polygon fill="midnightblue" stroke="midnightblue" points="258.182,-23.1052 266.791,-16.9308 256.21,-16.3885 258.182,-23.1052"/>
</g>
<!-- Node6&#45;&gt;Node2 -->
<g id="edge7" class="edge"><title>Node6&#45;&gt;Node2</title>
<path fill="none" stroke="midnightblue" d="M200.131,-75.7511C201.657,-82.8579 202.104,-93.1357 201.472,-102.101"/>
<polygon fill="midnightblue" stroke="midnightblue" points="197.993,-101.713 200.166,-112.083 204.934,-102.622 197.993,-101.713"/>
</g>
<!-- Node6&#45;&gt;Node5 -->
<g id="edge8" class="edge"><title>Node6&#45;&gt;Node5</title>
<path fill="none" stroke="midnightblue" d="M209.781,-56.324C224.267,-47.8215 246.573,-34.7288 263.493,-24.7975"/>
<polygon fill="midnightblue" stroke="midnightblue" points="265.403,-27.735 272.255,-19.6545 261.859,-21.6981 265.403,-27.735"/>
</g>
<!-- Node7&#45;&gt;Node2 -->
<g id="edge10" class="edge"><title>Node7&#45;&gt;Node2</title>
<path fill="none" stroke="midnightblue" d="M277.365,-75.6545C264.561,-84.2672 242.108,-97.6052 223.771,-107.59"/>
<polygon fill="midnightblue" stroke="midnightblue" points="222.072,-104.529 214.896,-112.324 225.367,-110.705 222.072,-104.529"/>
</g>
<!-- Node7&#45;&gt;Node5 -->
<g id="edge11" class="edge"><title>Node7&#45;&gt;Node5</title>
<path fill="none" stroke="midnightblue" d="M287,-56.083C287,-49.0059 287,-38.8611 287,-29.9865"/>
<polygon fill="midnightblue" stroke="midnightblue" points="290.5,-29.751 287,-19.7511 283.5,-29.7511 290.5,-29.751"/>
</g>
<!-- Node8&#45;&gt;Node5 -->
<g id="edge14" class="edge"><title>Node8&#45;&gt;Node5</title>
<path fill="none" stroke="midnightblue" d="M522.912,-114.324C494.699,-106.486 447.761,-92.4477 409,-76 373.309,-60.8547 334.078,-38.9385 309.99,-24.829"/>
<polygon fill="midnightblue" stroke="midnightblue" points="311.63,-21.7331 301.241,-19.6569 308.068,-27.7589 311.63,-21.7331"/>
</g>
<!-- Node9 -->
<g id="node9" class="node"><title>Node9</title>
<g id="a_node9"><a xlink:title=" ">
<polygon fill="white" stroke="#bfbfbf" points="418.5,-56.5 418.5,-75.5 491.5,-75.5 491.5,-56.5 418.5,-56.5"/>
<text text-anchor="middle" x="455" y="-63.5" font-family="Helvetica,sans-Serif" font-size="10.00">initializer_list</text>
</a>
</g>
</g>
<!-- Node8&#45;&gt;Node9 -->
<g id="edge13" class="edge"><title>Node8&#45;&gt;Node9</title>
<path fill="none" stroke="midnightblue" d="M533.058,-112.324C518.415,-103.822 495.866,-90.7288 478.762,-80.7975"/>
<polygon fill="midnightblue" stroke="midnightblue" points="480.31,-77.6491 469.905,-75.6545 476.795,-83.7027 480.31,-77.6491"/>
</g>
<!-- Node10 -->
<g id="node10" class="node"><title>Node10</title>
<g id="a_node10"><a xlink:href="a04529.html" target="_top" xlink:title=" ">
<polygon fill="white" stroke="black" points="510,-56.5 510,-75.5 586,-75.5 586,-56.5 510,-56.5"/>
<text text-anchor="middle" x="548" y="-63.5" font-family="Helvetica,sans-Serif" font-size="10.00">linkStack.hpp</text>
</a>
</g>
</g>
<!-- Node8&#45;&gt;Node10 -->
<g id="edge15" class="edge"><title>Node8&#45;&gt;Node10</title>
<path fill="none" stroke="midnightblue" d="M542.834,-112.083C541.324,-104.927 540.894,-94.6353 541.542,-85.6911"/>
<polygon fill="midnightblue" stroke="midnightblue" points="545.015,-86.1262 542.869,-75.7511 538.077,-85.2002 545.015,-86.1262"/>
</g>
<!-- Node11 -->
<g id="node11" class="node"><title>Node11</title>
<g id="a_node11"><a xlink:href="a04538.html" target="_top" xlink:title=" ">
<polygon fill="white" stroke="black" points="604.5,-56.5 604.5,-75.5 681.5,-75.5 681.5,-56.5 604.5,-56.5"/>
<text text-anchor="middle" x="643" y="-63.5" font-family="Helvetica,sans-Serif" font-size="10.00">seqStack.hxx</text>
</a>
</g>
</g>
<!-- Node8&#45;&gt;Node11 -->
<g id="edge17" class="edge"><title>Node8&#45;&gt;Node11</title>
<path fill="none" stroke="midnightblue" d="M558.149,-112.324C571.448,-103.703 594.646,-90.3643 613.531,-80.3855"/>
<polygon fill="midnightblue" stroke="midnightblue" points="615.395,-83.3618 622.664,-75.6545 612.175,-77.1461 615.395,-83.3618"/>
</g>
<!-- Node10&#45;&gt;Node8 -->
<g id="edge16" class="edge"><title>Node10&#45;&gt;Node8</title>
<path fill="none" stroke="midnightblue" d="M553.131,-75.7511C554.657,-82.8579 555.104,-93.1357 554.472,-102.101"/>
<polygon fill="midnightblue" stroke="midnightblue" points="550.993,-101.713 553.166,-112.083 557.934,-102.622 550.993,-101.713"/>
</g>
<!-- Node11&#45;&gt;Node8 -->
<g id="edge18" class="edge"><title>Node11&#45;&gt;Node8</title>
<path fill="none" stroke="midnightblue" d="M632.885,-75.6545C619.602,-84.2672 596.408,-97.6052 577.516,-107.59"/>
<polygon fill="midnightblue" stroke="midnightblue" points="575.647,-104.616 568.378,-112.324 578.867,-110.831 575.647,-104.616"/>
</g>
<!-- Node12 -->
<g id="node12" class="node"><title>Node12</title>
<g id="a_node12"><a xlink:title=" ">
<polygon fill="white" stroke="#bfbfbf" points="620.5,-0.5 620.5,-19.5 665.5,-19.5 665.5,-0.5 620.5,-0.5"/>
<text text-anchor="middle" x="643" y="-7.5" font-family="Helvetica,sans-Serif" font-size="10.00">climits</text>
</a>
</g>
</g>
<!-- Node11&#45;&gt;Node12 -->
<g id="edge19" class="edge"><title>Node11&#45;&gt;Node12</title>
<path fill="none" stroke="midnightblue" d="M643,-56.083C643,-49.0059 643,-38.8611 643,-29.9865"/>
<polygon fill="midnightblue" stroke="midnightblue" points="646.5,-29.751 643,-19.7511 639.5,-29.7511 646.5,-29.751"/>
</g>
<!-- Node14 -->
<g id="node14" class="node"><title>Node14</title>
<g id="a_node14"><a xlink:title=" ">
<polygon fill="white" stroke="#bfbfbf" points="699.5,-56.5 699.5,-75.5 758.5,-75.5 758.5,-56.5 699.5,-56.5"/>
<text text-anchor="middle" x="729" y="-63.5" font-family="Helvetica,sans-Serif" font-size="10.00">exception</text>
</a>
</g>
</g>
<!-- Node13&#45;&gt;Node14 -->
<g id="edge21" class="edge"><title>Node13&#45;&gt;Node14</title>
<path fill="none" stroke="midnightblue" d="M651.781,-112.324C666.267,-103.822 688.573,-90.7288 705.493,-80.7975"/>
<polygon fill="midnightblue" stroke="midnightblue" points="707.403,-83.735 714.255,-75.6545 703.859,-77.6981 707.403,-83.735"/>
</g>
<!-- Node15 -->
<g id="node15" class="node"><title>Node15</title>
<g id="a_node15"><a xlink:title=" ">
<polygon fill="white" stroke="#bfbfbf" points="776.5,-56.5 776.5,-75.5 817.5,-75.5 817.5,-56.5 776.5,-56.5"/>
<text text-anchor="middle" x="797" y="-63.5" font-family="Helvetica,sans-Serif" font-size="10.00">string</text>
</a>
</g>
</g>
<!-- Node13&#45;&gt;Node15 -->
<g id="edge22" class="edge"><title>Node13&#45;&gt;Node15</title>
<path fill="none" stroke="midnightblue" d="M662.352,-112.444C690.694,-102.878 736.565,-87.3969 766.756,-77.2075"/>
<polygon fill="midnightblue" stroke="midnightblue" points="767.99,-80.4851 776.345,-73.971 765.751,-73.8526 767.99,-80.4851"/>
</g>
</g>
</svg>
