<?xml version="1.0" encoding="UTF-8" standalone="no"?>
<!DOCTYPE svg PUBLIC "-//W3C//DTD SVG 1.1//EN"
 "http://www.w3.org/Graphics/SVG/1.1/DTD/svg11.dtd">
<!-- Generated by graphviz version 2.38.0 (20140413.2041)
 -->
<!-- Title: main Pages: 1 -->
<svg width="580pt" height="572pt"
 viewBox="0.00 0.00 580.00 572.00" xmlns="http://www.w3.org/2000/svg" xmlns:xlink="http://www.w3.org/1999/xlink">
<g id="graph0" class="graph" transform="scale(1 1) rotate(0) translate(4 568)">
<title>main</title>
<polygon fill="white" stroke="none" points="-4,4 -4,-568 576,-568 576,4 -4,4"/>
<!-- Node1 -->
<g id="node1" class="node"><title>Node1</title>
<g id="a_node1"><a xlink:title=" ">
<polygon fill="#bfbfbf" stroke="black" points="0,-342.5 0,-361.5 38,-361.5 38,-342.5 0,-342.5"/>
<text text-anchor="middle" x="19" y="-349.5" font-family="Helvetica,sans-Serif" font-size="10.00">main</text>
</a>
</g>
</g>
<!-- Node2 -->
<g id="node2" class="node"><title>Node2</title>
<g id="a_node2"><a xlink:href="a05401.html#a40668a92e598befe619d6e1ffe5f2a52" target="_top" xlink:title="Create a Tree object.">
<polygon fill="white" stroke="black" points="74,-456.5 74,-475.5 212,-475.5 212,-456.5 74,-456.5"/>
<text text-anchor="middle" x="143" y="-463.5" font-family="Helvetica,sans-Serif" font-size="10.00">Tree::binaryTree::createTree</text>
</a>
</g>
</g>
<!-- Node1&#45;&gt;Node2 -->
<g id="edge1" class="edge"><title>Node1&#45;&gt;Node2</title>
<path fill="none" stroke="midnightblue" d="M22.7712,-361.732C28.7754,-381.026 44.8475,-424.225 74,-447 76.3092,-448.804 78.7801,-450.437 81.3624,-451.915"/>
<polygon fill="midnightblue" stroke="midnightblue" points="79.9753,-455.132 90.4981,-456.366 83.0413,-448.839 79.9753,-455.132"/>
</g>
<!-- Node3 -->
<g id="node3" class="node"><title>Node3</title>
<g id="a_node3"><a xlink:href="a04574.html#a735b8c32755b3a1752e9b9ef193675b2" target="_top" xlink:title="保存测试数据的文件名">
<polygon fill="white" stroke="black" points="102,-418.5 102,-437.5 184,-437.5 184,-418.5 102,-418.5"/>
<text text-anchor="middle" x="143" y="-425.5" font-family="Helvetica,sans-Serif" font-size="10.00">data_file_name</text>
</a>
</g>
</g>
<!-- Node1&#45;&gt;Node3 -->
<g id="edge2" class="edge"><title>Node1&#45;&gt;Node3</title>
<path fill="none" stroke="midnightblue" d="M26.5046,-361.592C35.6344,-374.318 53.4525,-396.615 74,-409 79.5115,-412.322 85.6223,-415.081 91.8549,-417.367"/>
<polygon fill="midnightblue" stroke="midnightblue" points="91.0876,-420.799 101.68,-420.585 93.2662,-414.146 91.0876,-420.799"/>
</g>
<!-- Node4 -->
<g id="node4" class="node"><title>Node4</title>
<g id="a_node4"><a xlink:href="a05401.html#aadacd70978bd8a75adc9ef2c4f6f40e4" target="_top" xlink:title="删除左subtree">
<polygon fill="white" stroke="black" points="82.5,-380.5 82.5,-399.5 203.5,-399.5 203.5,-380.5 82.5,-380.5"/>
<text text-anchor="middle" x="143" y="-387.5" font-family="Helvetica,sans-Serif" font-size="10.00">Tree::binaryTree::delLeft</text>
</a>
</g>
</g>
<!-- Node1&#45;&gt;Node4 -->
<g id="edge3" class="edge"><title>Node1&#45;&gt;Node4</title>
<path fill="none" stroke="midnightblue" d="M38.3935,-358.81C48.789,-362.573 62.0571,-367.235 74,-371 81.2344,-373.281 88.9448,-375.569 96.4782,-377.728"/>
<polygon fill="midnightblue" stroke="midnightblue" points="95.6501,-381.131 106.225,-380.48 97.5523,-374.394 95.6501,-381.131"/>
</g>
<!-- Node5 -->
<g id="node5" class="node"><title>Node5</title>
<g id="a_node5"><a xlink:href="a05401.html#ad960b8028f5d1d8c9282160aede6f68b" target="_top" xlink:title="删除右subtree">
<polygon fill="white" stroke="black" points="79,-342.5 79,-361.5 207,-361.5 207,-342.5 79,-342.5"/>
<text text-anchor="middle" x="143" y="-349.5" font-family="Helvetica,sans-Serif" font-size="10.00">Tree::binaryTree::delRight</text>
</a>
</g>
</g>
<!-- Node1&#45;&gt;Node5 -->
<g id="edge4" class="edge"><title>Node1&#45;&gt;Node5</title>
<path fill="none" stroke="midnightblue" d="M38.0015,-352C46.5115,-352 57.2931,-352 68.672,-352"/>
<polygon fill="midnightblue" stroke="midnightblue" points="68.7833,-355.5 78.7833,-352 68.7833,-348.5 68.7833,-355.5"/>
</g>
<!-- Node6 -->
<g id="node6" class="node"><title>Node6</title>
<g id="a_node6"><a xlink:href="a04574.html#a5f8c7bacbf6d26c5c4602194edeed660" target="_top" xlink:title="生成一个文件，内容是一棵二叉树的层次遍历">
<polygon fill="white" stroke="black" points="106,-304.5 106,-323.5 180,-323.5 180,-304.5 106,-304.5"/>
<text text-anchor="middle" x="143" y="-311.5" font-family="Helvetica,sans-Serif" font-size="10.00">GenTreeData</text>
</a>
</g>
</g>
<!-- Node1&#45;&gt;Node6 -->
<g id="edge5" class="edge"><title>Node1&#45;&gt;Node6</title>
<path fill="none" stroke="midnightblue" d="M38.3935,-345.19C48.789,-341.427 62.0571,-336.765 74,-333 81.2344,-330.719 88.9448,-328.431 96.4782,-326.272"/>
<polygon fill="midnightblue" stroke="midnightblue" points="97.5523,-329.606 106.225,-323.52 95.6501,-322.869 97.5523,-329.606"/>
</g>
<!-- Node7 -->
<g id="node7" class="node"><title>Node7</title>
<g id="a_node7"><a xlink:href="a04574.html#a06a3cb0f33ca166e47143d103bf404f8" target="_top" xlink:title="(测试用)将二叉树类的多种方法的输出插到输出流">
<polygon fill="white" stroke="black" points="100,-266.5 100,-285.5 186,-285.5 186,-266.5 100,-266.5"/>
<text text-anchor="middle" x="143" y="-273.5" font-family="Helvetica,sans-Serif" font-size="10.00">print_test_result</text>
</a>
</g>
</g>
<!-- Node1&#45;&gt;Node7 -->
<g id="edge6" class="edge"><title>Node1&#45;&gt;Node7</title>
<path fill="none" stroke="midnightblue" d="M26.5046,-342.408C35.6344,-329.682 53.4525,-307.385 74,-295 79.044,-291.96 84.59,-289.391 90.2718,-287.225"/>
<polygon fill="midnightblue" stroke="midnightblue" points="91.5603,-290.484 99.8975,-283.946 89.3031,-283.857 91.5603,-290.484"/>
</g>
<!-- Node25 -->
<g id="node25" class="node"><title>Node25</title>
<g id="a_node25"><a xlink:href="a05401.html#a81357f9d197b142b8126579ce51fab17" target="_top" xlink:title="交换左右子树">
<polygon fill="white" stroke="black" points="83,-228.5 83,-247.5 203,-247.5 203,-228.5 83,-228.5"/>
<text text-anchor="middle" x="143" y="-235.5" font-family="Helvetica,sans-Serif" font-size="10.00">Tree::binaryTree::swaplr</text>
</a>
</g>
</g>
<!-- Node1&#45;&gt;Node25 -->
<g id="edge24" class="edge"><title>Node1&#45;&gt;Node25</title>
<path fill="none" stroke="midnightblue" d="M22.7712,-342.268C28.7754,-322.974 44.8475,-279.775 74,-257 76.3092,-255.196 78.7801,-253.563 81.3624,-252.085"/>
<polygon fill="midnightblue" stroke="midnightblue" points="83.0413,-255.161 90.4981,-247.634 79.9753,-248.868 83.0413,-255.161"/>
</g>
<!-- Node8 -->
<g id="node8" class="node"><title>Node8</title>
<g id="a_node8"><a xlink:href="a05401.html#a1203fc03a4506fa073d80545ce1de6a3" target="_top" xlink:title="统计树中度为2的结点的个数">
<polygon fill="white" stroke="black" points="248,-544.5 248,-563.5 414,-563.5 414,-544.5 248,-544.5"/>
<text text-anchor="middle" x="331" y="-551.5" font-family="Helvetica,sans-Serif" font-size="10.00">Tree::binaryTree::CountDegreeTwo</text>
</a>
</g>
</g>
<!-- Node7&#45;&gt;Node8 -->
<g id="edge7" class="edge"><title>Node7&#45;&gt;Node8</title>
<path fill="none" stroke="midnightblue" d="M186.316,-279.961C195.977,-282.811 205.345,-287.467 212,-295 283.414,-375.832 174.795,-455.786 248,-535 249.085,-536.174 250.227,-537.282 251.418,-538.328"/>
<polygon fill="midnightblue" stroke="midnightblue" points="249.757,-541.441 259.94,-544.366 253.804,-535.729 249.757,-541.441"/>
</g>
<!-- Node9 -->
<g id="node9" class="node"><title>Node9</title>
<g id="a_node9"><a xlink:href="a05401.html#ac7389dcd912456fbc77ad350a1134732" target="_top" xlink:title="返回二叉树的高度(递归版本)">
<polygon fill="white" stroke="black" points="271.5,-506.5 271.5,-525.5 390.5,-525.5 390.5,-506.5 271.5,-506.5"/>
<text text-anchor="middle" x="331" y="-513.5" font-family="Helvetica,sans-Serif" font-size="10.00">Tree::binaryTree::height</text>
</a>
</g>
</g>
<!-- Node7&#45;&gt;Node9 -->
<g id="edge8" class="edge"><title>Node7&#45;&gt;Node9</title>
<path fill="none" stroke="midnightblue" d="M186.173,-280.089C195.837,-282.936 205.242,-287.559 212,-295 273.311,-362.505 185.193,-430.884 248,-497 251.963,-501.172 256.647,-504.51 261.736,-507.172"/>
<polygon fill="midnightblue" stroke="midnightblue" points="260.696,-510.534 271.266,-511.267 263.46,-504.103 260.696,-510.534"/>
</g>
<!-- Node10 -->
<g id="node10" class="node"><title>Node10</title>
<g id="a_node10"><a xlink:href="a05401.html#a18c50f432143bfe2feade7347f8ff770" target="_top" xlink:title="返回二叉树的高度(非递归版本)">
<polygon fill="white" stroke="black" points="260,-468.5 260,-487.5 402,-487.5 402,-468.5 260,-468.5"/>
<text text-anchor="middle" x="331" y="-475.5" font-family="Helvetica,sans-Serif" font-size="10.00">Tree::binaryTree::height_loop</text>
</a>
</g>
</g>
<!-- Node7&#45;&gt;Node10 -->
<g id="edge9" class="edge"><title>Node7&#45;&gt;Node10</title>
<path fill="none" stroke="midnightblue" d="M186.324,-280.381C195.868,-283.233 205.18,-287.784 212,-295 263.259,-349.234 195.54,-405.927 248,-459 249.271,-460.286 250.611,-461.492 252.01,-462.623"/>
<polygon fill="midnightblue" stroke="midnightblue" points="250.332,-465.71 260.603,-468.311 254.196,-459.873 250.332,-465.71"/>
</g>
<!-- Node11 -->
<g id="node11" class="node"><title>Node11</title>
<g id="a_node11"><a xlink:href="a05401.html#ac6003da876c500af081001c549a90433" target="_top" xlink:title="中序遍历(递归版本)">
<polygon fill="white" stroke="black" points="269,-430.5 269,-449.5 393,-449.5 393,-430.5 269,-430.5"/>
<text text-anchor="middle" x="331" y="-437.5" font-family="Helvetica,sans-Serif" font-size="10.00">Tree::binaryTree::inOrder</text>
</a>
</g>
</g>
<!-- Node7&#45;&gt;Node11 -->
<g id="edge10" class="edge"><title>Node7&#45;&gt;Node11</title>
<path fill="none" stroke="midnightblue" d="M186.014,-280.684C195.566,-283.527 204.959,-288 212,-295 253.303,-336.062 205.789,-380.873 248,-421 251.522,-424.348 255.512,-427.146 259.789,-429.482"/>
<polygon fill="midnightblue" stroke="midnightblue" points="258.365,-432.679 268.915,-433.654 261.275,-426.313 258.365,-432.679"/>
</g>
<!-- Node12 -->
<g id="node12" class="node"><title>Node12</title>
<g id="a_node12"><a xlink:href="a05401.html#a6cb786410ed6c0f61969a09b76f4da0c" target="_top" xlink:title="中序遍历(非递归版本)">
<polygon fill="white" stroke="black" points="257.5,-392.5 257.5,-411.5 404.5,-411.5 404.5,-392.5 257.5,-392.5"/>
<text text-anchor="middle" x="331" y="-399.5" font-family="Helvetica,sans-Serif" font-size="10.00">Tree::binaryTree::inOrder_loop</text>
</a>
</g>
</g>
<!-- Node7&#45;&gt;Node12 -->
<g id="edge11" class="edge"><title>Node7&#45;&gt;Node12</title>
<path fill="none" stroke="midnightblue" d="M186.198,-281.454C195.523,-284.286 204.768,-288.561 212,-295 243.56,-323.1 215.819,-355.613 248,-383 249.808,-384.539 251.718,-385.959 253.708,-387.269"/>
<polygon fill="midnightblue" stroke="midnightblue" points="252.442,-390.568 262.888,-392.338 255.825,-384.44 252.442,-390.568"/>
</g>
<!-- Node13 -->
<g id="node13" class="node"><title>Node13</title>
<g id="a_node13"><a xlink:href="a05401.html#a2b05f46a36ae7f0f98dfa65dc908fdca" target="_top" xlink:title="返回是否完全二叉树">
<polygon fill="white" stroke="black" points="251,-354.5 251,-373.5 411,-373.5 411,-354.5 251,-354.5"/>
<text text-anchor="middle" x="331" y="-361.5" font-family="Helvetica,sans-Serif" font-size="10.00">Tree::binaryTree::isCompleteTree</text>
</a>
</g>
</g>
<!-- Node7&#45;&gt;Node13 -->
<g id="edge12" class="edge"><title>Node7&#45;&gt;Node13</title>
<path fill="none" stroke="midnightblue" d="M186.251,-283.06C195.266,-285.825 204.362,-289.666 212,-295 234.45,-310.678 225.204,-329.828 248,-345 251.102,-347.065 254.4,-348.906 257.823,-350.549"/>
<polygon fill="midnightblue" stroke="midnightblue" points="256.556,-353.813 267.132,-354.45 259.262,-347.357 256.556,-353.813"/>
</g>
<!-- Node14 -->
<g id="node14" class="node"><title>Node14</title>
<g id="a_node14"><a xlink:href="a05401.html#afee39e46bd46f7178347eaae0581063b" target="_top" xlink:title="是否满二叉树">
<polygon fill="white" stroke="black" points="273,-305 273,-335 389,-335 389,-305 273,-305"/>
<text text-anchor="start" x="281" y="-323" font-family="Helvetica,sans-Serif" font-size="10.00">Tree::binaryTree::isFull</text>
<text text-anchor="middle" x="331" y="-312" font-family="Helvetica,sans-Serif" font-size="10.00">BinaryTree</text>
</a>
</g>
</g>
<!-- Node7&#45;&gt;Node14 -->
<g id="edge13" class="edge"><title>Node7&#45;&gt;Node14</title>
<path fill="none" stroke="midnightblue" d="M184.359,-285.547C207.286,-290.971 236.578,-297.9 262.872,-304.12"/>
<polygon fill="midnightblue" stroke="midnightblue" points="262.246,-307.569 272.783,-306.465 263.858,-300.757 262.246,-307.569"/>
</g>
<!-- Node16 -->
<g id="node16" class="node"><title>Node16</title>
<g id="a_node16"><a xlink:href="a05401.html#a94dcc51623e366cb26fa5e543b19c6f8" target="_top" xlink:title="层次遍历">
<polygon fill="white" stroke="black" points="263.5,-266.5 263.5,-285.5 398.5,-285.5 398.5,-266.5 263.5,-266.5"/>
<text text-anchor="middle" x="331" y="-273.5" font-family="Helvetica,sans-Serif" font-size="10.00">Tree::binaryTree::levelOrder</text>
</a>
</g>
</g>
<!-- Node7&#45;&gt;Node16 -->
<g id="edge15" class="edge"><title>Node7&#45;&gt;Node16</title>
<path fill="none" stroke="midnightblue" d="M186.206,-276C206,-276 230.222,-276 253.103,-276"/>
<polygon fill="midnightblue" stroke="midnightblue" points="253.154,-279.5 263.154,-276 253.154,-272.5 253.154,-279.5"/>
</g>
<!-- Node17 -->
<g id="node17" class="node"><title>Node17</title>
<g id="a_node17"><a xlink:href="a05401.html#a29e131a4f32bf7ac33dad9cd60d5ca7b" target="_top" xlink:title="后序遍历(递归版本)">
<polygon fill="white" stroke="black" points="263.5,-228.5 263.5,-247.5 398.5,-247.5 398.5,-228.5 263.5,-228.5"/>
<text text-anchor="middle" x="331" y="-235.5" font-family="Helvetica,sans-Serif" font-size="10.00">Tree::binaryTree::postOrder</text>
</a>
</g>
</g>
<!-- Node7&#45;&gt;Node17 -->
<g id="edge16" class="edge"><title>Node7&#45;&gt;Node17</title>
<path fill="none" stroke="midnightblue" d="M186.206,-267.377C211.98,-262.112 245.263,-255.312 273.316,-249.581"/>
<polygon fill="midnightblue" stroke="midnightblue" points="274.294,-252.953 283.391,-247.522 272.892,-246.095 274.294,-252.953"/>
</g>
<!-- Node18 -->
<g id="node18" class="node"><title>Node18</title>
<g id="a_node18"><a xlink:href="a05401.html#a24d90fc12dae5213ddb8b21baf14cc66" target="_top" xlink:title="后序遍历(非递归版本)">
<polygon fill="white" stroke="black" points="252,-190.5 252,-209.5 410,-209.5 410,-190.5 252,-190.5"/>
<text text-anchor="middle" x="331" y="-197.5" font-family="Helvetica,sans-Serif" font-size="10.00">Tree::binaryTree::postOrder_loop</text>
</a>
</g>
</g>
<!-- Node7&#45;&gt;Node18 -->
<g id="edge17" class="edge"><title>Node7&#45;&gt;Node18</title>
<path fill="none" stroke="midnightblue" d="M186.102,-268.054C195.03,-265.342 204.126,-261.746 212,-257 231.925,-244.99 227.811,-230.561 248,-219 251.886,-216.775 256.016,-214.81 260.276,-213.076"/>
<polygon fill="midnightblue" stroke="midnightblue" points="261.56,-216.333 269.767,-209.634 259.173,-209.753 261.56,-216.333"/>
</g>
<!-- Node19 -->
<g id="node19" class="node"><title>Node19</title>
<g id="a_node19"><a xlink:href="a05401.html#aa0a3d9e4bc6035a9c914e5109d6688b7" target="_top" xlink:title="前序遍历(递归版本)">
<polygon fill="white" stroke="black" points="266,-152.5 266,-171.5 396,-171.5 396,-152.5 266,-152.5"/>
<text text-anchor="middle" x="331" y="-159.5" font-family="Helvetica,sans-Serif" font-size="10.00">Tree::binaryTree::preOrder</text>
</a>
</g>
</g>
<!-- Node7&#45;&gt;Node19 -->
<g id="edge18" class="edge"><title>Node7&#45;&gt;Node19</title>
<path fill="none" stroke="midnightblue" d="M186.306,-270.155C195.522,-267.334 204.69,-263.163 212,-257 240.576,-232.909 218.892,-204.445 248,-181 250.758,-178.779 253.729,-176.807 256.847,-175.059"/>
<polygon fill="midnightblue" stroke="midnightblue" points="258.458,-178.168 265.972,-170.699 255.441,-171.852 258.458,-178.168"/>
</g>
<!-- Node20 -->
<g id="node20" class="node"><title>Node20</title>
<g id="a_node20"><a xlink:href="a05401.html#af9d71e1c10511c865aed5c553ac24b72" target="_top" xlink:title="前序遍历(非递归版本)">
<polygon fill="white" stroke="black" points="254.5,-114.5 254.5,-133.5 407.5,-133.5 407.5,-114.5 254.5,-114.5"/>
<text text-anchor="middle" x="331" y="-121.5" font-family="Helvetica,sans-Serif" font-size="10.00">Tree::binaryTree::preOrder_loop</text>
</a>
</g>
</g>
<!-- Node7&#45;&gt;Node20 -->
<g id="edge19" class="edge"><title>Node7&#45;&gt;Node20</title>
<path fill="none" stroke="midnightblue" d="M186.233,-271.073C195.667,-268.229 204.951,-263.817 212,-257 250.193,-220.062 208.99,-179.074 248,-143 249.529,-141.586 251.142,-140.271 252.824,-139.048"/>
<polygon fill="midnightblue" stroke="midnightblue" points="254.995,-141.826 261.753,-133.667 251.382,-135.83 254.995,-141.826"/>
</g>
<!-- Node21 -->
<g id="node21" class="node"><title>Node21</title>
<g id="a_node21"><a xlink:href="a04583.html#ad484ac5e75e3c6057bed828f29a86776" target="_top" xlink:title="输出一棵二叉树">
<polygon fill="white" stroke="black" points="277.5,-76.5 277.5,-95.5 384.5,-95.5 384.5,-76.5 277.5,-76.5"/>
<text text-anchor="middle" x="331" y="-83.5" font-family="Helvetica,sans-Serif" font-size="10.00">Tree::printBinaryTree</text>
</a>
</g>
</g>
<!-- Node7&#45;&gt;Node21 -->
<g id="edge20" class="edge"><title>Node7&#45;&gt;Node21</title>
<path fill="none" stroke="midnightblue" d="M186.241,-271.539C195.787,-268.69 205.121,-264.159 212,-257 260.101,-206.94 198.79,-153.971 248,-105 253.608,-99.4192 260.512,-95.3491 267.912,-92.4004"/>
<polygon fill="midnightblue" stroke="midnightblue" points="269.094,-95.6961 277.491,-89.2357 266.898,-89.0494 269.094,-95.6961"/>
</g>
<!-- Node23 -->
<g id="node23" class="node"><title>Node23</title>
<g id="a_node23"><a xlink:href="a05401.html#af2559965baee16c7a496049bccf703af" target="_top" xlink:title="返回二叉树的结点数(递归版本)">
<polygon fill="white" stroke="black" points="276,-38.5 276,-57.5 386,-57.5 386,-38.5 276,-38.5"/>
<text text-anchor="middle" x="331" y="-45.5" font-family="Helvetica,sans-Serif" font-size="10.00">Tree::binaryTree::size</text>
</a>
</g>
</g>
<!-- Node7&#45;&gt;Node23 -->
<g id="edge22" class="edge"><title>Node7&#45;&gt;Node23</title>
<path fill="none" stroke="midnightblue" d="M186.117,-271.86C195.782,-269.014 205.202,-264.404 212,-257 270.13,-193.693 188.467,-128.99 248,-67 253.15,-61.6378 259.491,-57.6565 266.347,-54.719"/>
<polygon fill="midnightblue" stroke="midnightblue" points="267.687,-57.9578 275.952,-51.3286 265.357,-51.3569 267.687,-57.9578"/>
</g>
<!-- Node24 -->
<g id="node24" class="node"><title>Node24</title>
<g id="a_node24"><a xlink:href="a05401.html#afe73f325fd03d9281d0330b7a2d0c8a8" target="_top" xlink:title="返回二叉树的结点数(非递归版本)">
<polygon fill="white" stroke="black" points="264,-0.5 264,-19.5 398,-19.5 398,-0.5 264,-0.5"/>
<text text-anchor="middle" x="331" y="-7.5" font-family="Helvetica,sans-Serif" font-size="10.00">Tree::binaryTree::size_loop</text>
</a>
</g>
</g>
<!-- Node7&#45;&gt;Node24 -->
<g id="edge23" class="edge"><title>Node7&#45;&gt;Node24</title>
<path fill="none" stroke="midnightblue" d="M186.276,-272.003C195.937,-269.154 205.316,-264.507 212,-257 280.219,-180.381 178.082,-104.073 248,-29 250.101,-26.7443 252.412,-24.7313 254.885,-22.9363"/>
<polygon fill="midnightblue" stroke="midnightblue" points="257.019,-25.7409 263.844,-17.6378 253.455,-19.7157 257.019,-25.7409"/>
</g>
<!-- Node15 -->
<g id="node15" class="node"><title>Node15</title>
<g id="a_node15"><a xlink:href="a05433.html#ab5e0074e371fd8bc3d9baf8aaec372ae" target="_top" xlink:title="Inserts a new element at the end of the queue, after its current last element.">
<polygon fill="white" stroke="black" points="450,-310.5 450,-329.5 572,-329.5 572,-310.5 450,-310.5"/>
<text text-anchor="middle" x="511" y="-317.5" font-family="Helvetica,sans-Serif" font-size="10.00">Queue::seqQueue::push</text>
</a>
</g>
</g>
<!-- Node14&#45;&gt;Node15 -->
<g id="edge14" class="edge"><title>Node14&#45;&gt;Node15</title>
<path fill="none" stroke="midnightblue" d="M389.3,-320C405.291,-320 422.853,-320 439.509,-320"/>
<polygon fill="midnightblue" stroke="midnightblue" points="439.741,-323.5 449.741,-320 439.741,-316.5 439.741,-323.5"/>
</g>
<!-- Node22 -->
<g id="node22" class="node"><title>Node22</title>
<g id="a_node22"><a xlink:href="a05401.html#ab0bcb9734e8955c6b1e982d584320f64" target="_top" xlink:title="获得数据为x的结点的右child">
<polygon fill="white" stroke="black" points="453,-76.5 453,-95.5 569,-95.5 569,-76.5 453,-76.5"/>
<text text-anchor="middle" x="511" y="-83.5" font-family="Helvetica,sans-Serif" font-size="10.00">Tree::binaryTree::rchild</text>
</a>
</g>
</g>
<!-- Node21&#45;&gt;Node22 -->
<g id="edge21" class="edge"><title>Node21&#45;&gt;Node22</title>
<path fill="none" stroke="midnightblue" d="M384.924,-86C403.079,-86 423.645,-86 442.781,-86"/>
<polygon fill="midnightblue" stroke="midnightblue" points="442.937,-89.5001 452.937,-86 442.937,-82.5001 442.937,-89.5001"/>
</g>
</g>
</svg>
