<?xml version="1.0" encoding="UTF-8" standalone="no"?>
<!DOCTYPE svg PUBLIC "-//W3C//DTD SVG 1.1//EN"
 "http://www.w3.org/Graphics/SVG/1.1/DTD/svg11.dtd">
<!-- Generated by graphviz version 2.38.0 (20140413.2041)
 -->
<!-- Title: include/Queue.h Pages: 1 -->
<svg width="758pt" height="252pt"
 viewBox="0.00 0.00 757.50 252.00" xmlns="http://www.w3.org/2000/svg" xmlns:xlink="http://www.w3.org/1999/xlink">
<g id="graph0" class="graph" transform="scale(1 1) rotate(0) translate(4 248)">
<title>include/Queue.h</title>
<polygon fill="white" stroke="none" points="-4,4 -4,-248 753.5,-248 753.5,4 -4,4"/>
<!-- Node1 -->
<g id="node1" class="node"><title>Node1</title>
<g id="a_node1"><a xlink:title=" ">
<polygon fill="#bfbfbf" stroke="black" points="526.5,-224.5 526.5,-243.5 613.5,-243.5 613.5,-224.5 526.5,-224.5"/>
<text text-anchor="middle" x="570" y="-231.5" font-family="Helvetica,sans-Serif" font-size="10.00">include/Queue.h</text>
</a>
</g>
</g>
<!-- Node2 -->
<g id="node2" class="node"><title>Node2</title>
<g id="a_node2"><a xlink:href="a04520.html" target="_top" xlink:title=" ">
<polygon fill="white" stroke="black" points="263.5,-168.5 263.5,-187.5 372.5,-187.5 372.5,-168.5 263.5,-168.5"/>
<text text-anchor="middle" x="318" y="-175.5" font-family="Helvetica,sans-Serif" font-size="10.00">include/binaryTree.hh</text>
</a>
</g>
</g>
<!-- Node1&#45;&gt;Node2 -->
<g id="edge1" class="edge"><title>Node1&#45;&gt;Node2</title>
<path fill="none" stroke="midnightblue" d="M520.279,-222.346C472.656,-212.141 401.72,-196.94 357.743,-187.516"/>
<polygon fill="midnightblue" stroke="midnightblue" points="519.558,-225.77 530.07,-224.444 521.025,-218.926 519.558,-225.77"/>
</g>
<!-- Node12 -->
<g id="node12" class="node"><title>Node12</title>
<g id="a_node12"><a xlink:href="a04526.html" target="_top" xlink:title=" ">
<polygon fill="white" stroke="black" points="390.5,-168.5 390.5,-187.5 497.5,-187.5 497.5,-168.5 390.5,-168.5"/>
<text text-anchor="middle" x="444" y="-175.5" font-family="Helvetica,sans-Serif" font-size="10.00">include/linkQueue.hh</text>
</a>
</g>
</g>
<!-- Node1&#45;&gt;Node12 -->
<g id="edge11" class="edge"><title>Node1&#45;&gt;Node12</title>
<path fill="none" stroke="midnightblue" d="M535.378,-220.638C510.234,-210.504 477.621,-196.427 458.792,-187.516"/>
<polygon fill="midnightblue" stroke="midnightblue" points="534.361,-224 544.946,-224.444 536.948,-217.495 534.361,-224"/>
</g>
<!-- Node13 -->
<g id="node13" class="node"><title>Node13</title>
<g id="a_node13"><a xlink:href="a04535.html" target="_top" xlink:title=" ">
<polygon fill="white" stroke="black" points="516,-168.5 516,-187.5 624,-187.5 624,-168.5 516,-168.5"/>
<text text-anchor="middle" x="570" y="-175.5" font-family="Helvetica,sans-Serif" font-size="10.00">include/seqQueue.hh</text>
</a>
</g>
</g>
<!-- Node1&#45;&gt;Node13 -->
<g id="edge13" class="edge"><title>Node1&#45;&gt;Node13</title>
<path fill="none" stroke="midnightblue" d="M563.528,-214.101C562.896,-205.136 563.343,-194.858 564.869,-187.751"/>
<polygon fill="midnightblue" stroke="midnightblue" points="560.066,-214.622 564.834,-224.083 567.007,-213.713 560.066,-214.622"/>
</g>
<!-- Node14 -->
<g id="node14" class="node"><title>Node14</title>
<g id="a_node14"><a xlink:href="a04553.html" target="_top" xlink:title=" ">
<polygon fill="white" stroke="black" points="642.5,-168.5 642.5,-187.5 749.5,-187.5 749.5,-168.5 642.5,-168.5"/>
<text text-anchor="middle" x="696" y="-175.5" font-family="Helvetica,sans-Serif" font-size="10.00">include/vecQueue.hh</text>
</a>
</g>
</g>
<!-- Node1&#45;&gt;Node14 -->
<g id="edge15" class="edge"><title>Node1&#45;&gt;Node14</title>
<path fill="none" stroke="midnightblue" d="M593.956,-220.232C616.092,-210.131 648.595,-196.309 671.048,-187.516"/>
<polygon fill="midnightblue" stroke="midnightblue" points="592.475,-217.061 584.876,-224.444 595.421,-223.411 592.475,-217.061"/>
</g>
<!-- Node3 -->
<g id="node3" class="node"><title>Node3</title>
<g id="a_node3"><a xlink:href="a04547.html" target="_top" xlink:title=" ">
<polygon fill="white" stroke="black" points="4.5,-112.5 4.5,-131.5 81.5,-131.5 81.5,-112.5 4.5,-112.5"/>
<text text-anchor="middle" x="43" y="-119.5" font-family="Helvetica,sans-Serif" font-size="10.00">include/Tree.h</text>
</a>
</g>
</g>
<!-- Node2&#45;&gt;Node3 -->
<g id="edge2" class="edge"><title>Node2&#45;&gt;Node3</title>
<path fill="none" stroke="midnightblue" d="M264.421,-166.479C210.818,-155.953 129.66,-140.017 81.9244,-130.643"/>
<polygon fill="midnightblue" stroke="midnightblue" points="263.938,-169.951 274.425,-168.444 265.287,-163.082 263.938,-169.951"/>
</g>
<!-- Node6 -->
<g id="node6" class="node"><title>Node6</title>
<g id="a_node6"><a xlink:href="a04559.html" target="_top" xlink:title="测试：交换二叉树中所有结点的左右子树">
<polygon fill="white" stroke="black" points="99.5,-112.5 99.5,-131.5 172.5,-131.5 172.5,-112.5 99.5,-112.5"/>
<text text-anchor="middle" x="136" y="-119.5" font-family="Helvetica,sans-Serif" font-size="10.00">src/ch6_1.cc</text>
</a>
</g>
</g>
<!-- Node2&#45;&gt;Node6 -->
<g id="edge5" class="edge"><title>Node2&#45;&gt;Node6</title>
<path fill="none" stroke="midnightblue" d="M279.469,-165.568C245.136,-155.381 195.667,-140.703 164.704,-131.516"/>
<polygon fill="midnightblue" stroke="midnightblue" points="278.579,-168.954 289.162,-168.444 280.57,-162.244 278.579,-168.954"/>
</g>
<!-- Node7 -->
<g id="node7" class="node"><title>Node7</title>
<g id="a_node7"><a xlink:href="a04562.html" target="_top" xlink:title="测试：统计二叉树中度为2的结点的个数">
<polygon fill="white" stroke="black" points="190.5,-112.5 190.5,-131.5 263.5,-131.5 263.5,-112.5 190.5,-112.5"/>
<text text-anchor="middle" x="227" y="-119.5" font-family="Helvetica,sans-Serif" font-size="10.00">src/ch6_2.cc</text>
</a>
</g>
</g>
<!-- Node2&#45;&gt;Node7 -->
<g id="edge6" class="edge"><title>Node2&#45;&gt;Node7</title>
<path fill="none" stroke="midnightblue" d="M294.706,-163.177C277.961,-153.241 255.9,-140.149 241.584,-131.655"/>
<polygon fill="midnightblue" stroke="midnightblue" points="292.993,-166.231 303.379,-168.324 296.566,-160.211 292.993,-166.231"/>
</g>
<!-- Node8 -->
<g id="node8" class="node"><title>Node8</title>
<g id="a_node8"><a xlink:href="a04565.html" target="_top" xlink:title="测试：判断二叉树是否为满二叉树">
<polygon fill="white" stroke="black" points="281.5,-112.5 281.5,-131.5 354.5,-131.5 354.5,-112.5 281.5,-112.5"/>
<text text-anchor="middle" x="318" y="-119.5" font-family="Helvetica,sans-Serif" font-size="10.00">src/ch6_3.cc</text>
</a>
</g>
</g>
<!-- Node2&#45;&gt;Node8 -->
<g id="edge7" class="edge"><title>Node2&#45;&gt;Node8</title>
<path fill="none" stroke="midnightblue" d="M318,-157.805C318,-148.91 318,-138.78 318,-131.751"/>
<polygon fill="midnightblue" stroke="midnightblue" points="314.5,-158.083 318,-168.083 321.5,-158.083 314.5,-158.083"/>
</g>
<!-- Node9 -->
<g id="node9" class="node"><title>Node9</title>
<g id="a_node9"><a xlink:href="a04568.html" target="_top" xlink:title="测试：判断二叉树是否为完全二叉树">
<polygon fill="white" stroke="black" points="372.5,-112.5 372.5,-131.5 445.5,-131.5 445.5,-112.5 372.5,-112.5"/>
<text text-anchor="middle" x="409" y="-119.5" font-family="Helvetica,sans-Serif" font-size="10.00">src/ch6_4.cc</text>
</a>
</g>
</g>
<!-- Node2&#45;&gt;Node9 -->
<g id="edge8" class="edge"><title>Node2&#45;&gt;Node9</title>
<path fill="none" stroke="midnightblue" d="M341.294,-163.177C358.039,-153.241 380.1,-140.149 394.416,-131.655"/>
<polygon fill="midnightblue" stroke="midnightblue" points="339.434,-160.211 332.621,-168.324 343.007,-166.231 339.434,-160.211"/>
</g>
<!-- Node10 -->
<g id="node10" class="node"><title>Node10</title>
<g id="a_node10"><a xlink:href="a04571.html" target="_top" xlink:title="测试：判断两棵二叉树是否相同">
<polygon fill="white" stroke="black" points="463.5,-112.5 463.5,-131.5 536.5,-131.5 536.5,-112.5 463.5,-112.5"/>
<text text-anchor="middle" x="500" y="-119.5" font-family="Helvetica,sans-Serif" font-size="10.00">src/ch6_5.cc</text>
</a>
</g>
</g>
<!-- Node2&#45;&gt;Node10 -->
<g id="edge9" class="edge"><title>Node2&#45;&gt;Node10</title>
<path fill="none" stroke="midnightblue" d="M356.531,-165.568C390.864,-155.381 440.333,-140.703 471.296,-131.516"/>
<polygon fill="midnightblue" stroke="midnightblue" points="355.43,-162.244 346.838,-168.444 357.421,-168.954 355.43,-162.244"/>
</g>
<!-- Node11 -->
<g id="node11" class="node"><title>Node11</title>
<g id="a_node11"><a xlink:href="a04574.html" target="_top" xlink:title="测试：判断两棵二叉树是否互为镜像">
<polygon fill="white" stroke="black" points="554.5,-112.5 554.5,-131.5 627.5,-131.5 627.5,-112.5 554.5,-112.5"/>
<text text-anchor="middle" x="591" y="-119.5" font-family="Helvetica,sans-Serif" font-size="10.00">src/ch6_6.cc</text>
</a>
</g>
</g>
<!-- Node2&#45;&gt;Node11 -->
<g id="edge10" class="edge"><title>Node2&#45;&gt;Node11</title>
<path fill="none" stroke="midnightblue" d="M371.378,-166.504C417.589,-157.409 486.215,-143.878 546,-132 548.657,-131.472 551.402,-130.926 554.165,-130.375"/>
<polygon fill="midnightblue" stroke="midnightblue" points="370.427,-163.124 361.291,-168.489 371.779,-169.993 370.427,-163.124"/>
</g>
<!-- Node4 -->
<g id="node4" class="node"><title>Node4</title>
<g id="a_node4"><a xlink:href="a04544.html" target="_top" xlink:title="生成一个文件，内容是一棵二叉树的层次遍历(deprecated)">
<polygon fill="white" stroke="black" points="0,-56.5 0,-75.5 86,-75.5 86,-56.5 0,-56.5"/>
<text text-anchor="middle" x="43" y="-63.5" font-family="Helvetica,sans-Serif" font-size="10.00">include/test0.hh</text>
</a>
</g>
</g>
<!-- Node3&#45;&gt;Node4 -->
<g id="edge3" class="edge"><title>Node3&#45;&gt;Node4</title>
<path fill="none" stroke="midnightblue" d="M43,-101.805C43,-92.9102 43,-82.7798 43,-75.7511"/>
<polygon fill="midnightblue" stroke="midnightblue" points="39.5001,-102.083 43,-112.083 46.5001,-102.083 39.5001,-102.083"/>
</g>
<!-- Node5 -->
<g id="node5" class="node"><title>Node5</title>
<g id="a_node5"><a xlink:href="a04577.html" target="_top" xlink:title=" ">
<polygon fill="white" stroke="black" points="9,-0.5 9,-19.5 77,-19.5 77,-0.5 9,-0.5"/>
<text text-anchor="middle" x="43" y="-7.5" font-family="Helvetica,sans-Serif" font-size="10.00">src/test0.cc</text>
</a>
</g>
</g>
<!-- Node4&#45;&gt;Node5 -->
<g id="edge4" class="edge"><title>Node4&#45;&gt;Node5</title>
<path fill="none" stroke="midnightblue" d="M43,-45.8045C43,-36.9102 43,-26.7798 43,-19.7511"/>
<polygon fill="midnightblue" stroke="midnightblue" points="39.5001,-46.083 43,-56.083 46.5001,-46.083 39.5001,-46.083"/>
</g>
<!-- Node12&#45;&gt;Node1 -->
<g id="edge12" class="edge"><title>Node12&#45;&gt;Node1</title>
<path fill="none" stroke="midnightblue" d="M478.51,-191.317C503.631,-201.439 536.253,-215.517 555.124,-224.444"/>
<polygon fill="midnightblue" stroke="midnightblue" points="479.537,-187.959 468.952,-187.516 476.951,-194.464 479.537,-187.959"/>
</g>
<!-- Node13&#45;&gt;Node1 -->
<g id="edge14" class="edge"><title>Node13&#45;&gt;Node1</title>
<path fill="none" stroke="midnightblue" d="M576.458,-197.691C577.106,-206.635 576.676,-216.927 575.166,-224.083"/>
<polygon fill="midnightblue" stroke="midnightblue" points="579.923,-197.2 575.131,-187.751 572.985,-198.126 579.923,-197.2"/>
</g>
<!-- Node14&#45;&gt;Node1 -->
<g id="edge16" class="edge"><title>Node14&#45;&gt;Node1</title>
<path fill="none" stroke="midnightblue" d="M671.847,-191.858C649.749,-201.935 617.437,-215.675 595.054,-224.444"/>
<polygon fill="midnightblue" stroke="midnightblue" points="673.609,-194.899 681.208,-187.516 670.664,-188.548 673.609,-194.899"/>
</g>
</g>
</svg>
