<?xml version="1.0" encoding="UTF-8" standalone="no"?>
<!DOCTYPE svg PUBLIC "-//W3C//DTD SVG 1.1//EN"
 "http://www.w3.org/Graphics/SVG/1.1/DTD/svg11.dtd">
<!-- Generated by graphviz version 2.38.0 (20140413.2041)
 -->
<!-- Title: main Pages: 1 -->
<svg width="220pt" height="142pt"
 viewBox="0.00 0.00 220.00 142.00" xmlns="http://www.w3.org/2000/svg" xmlns:xlink="http://www.w3.org/1999/xlink">
<g id="graph0" class="graph" transform="scale(1 1) rotate(0) translate(4 138)">
<title>main</title>
<polygon fill="white" stroke="none" points="-4,4 -4,-138 216,-138 216,4 -4,4"/>
<!-- Node1 -->
<g id="node1" class="node"><title>Node1</title>
<g id="a_node1"><a xlink:title=" ">
<polygon fill="#bfbfbf" stroke="black" points="0,-57.5 0,-76.5 38,-76.5 38,-57.5 0,-57.5"/>
<text text-anchor="middle" x="19" y="-64.5" font-family="Helvetica,sans-Serif" font-size="10.00">main</text>
</a>
</g>
</g>
<!-- Node2 -->
<g id="node2" class="node"><title>Node2</title>
<g id="a_node2"><a xlink:href="a05401.html#a40668a92e598befe619d6e1ffe5f2a52" target="_top" xlink:title="Create a Tree object.">
<polygon fill="white" stroke="black" points="74,-114.5 74,-133.5 212,-133.5 212,-114.5 74,-114.5"/>
<text text-anchor="middle" x="143" y="-121.5" font-family="Helvetica,sans-Serif" font-size="10.00">Tree::binaryTree::createTree</text>
</a>
</g>
</g>
<!-- Node1&#45;&gt;Node2 -->
<g id="edge1" class="edge"><title>Node1&#45;&gt;Node2</title>
<path fill="none" stroke="midnightblue" d="M31.2898,-76.6878C41.7476,-85.2205 58.049,-97.4352 74,-105 78.9147,-107.331 84.1687,-109.424 89.4968,-111.293"/>
<polygon fill="midnightblue" stroke="midnightblue" points="88.5179,-114.655 99.11,-114.416 90.6809,-107.998 88.5179,-114.655"/>
</g>
<!-- Node3 -->
<g id="node3" class="node"><title>Node3</title>
<g id="a_node3"><a xlink:href="a04565.html#a26d758d8b5cf8ccd7a4c3b68b3b9d851" target="_top" xlink:title="保存测试数据的文件名">
<polygon fill="white" stroke="black" points="102,-76.5 102,-95.5 184,-95.5 184,-76.5 102,-76.5"/>
<text text-anchor="middle" x="143" y="-83.5" font-family="Helvetica,sans-Serif" font-size="10.00">data_file_name</text>
</a>
</g>
</g>
<!-- Node1&#45;&gt;Node3 -->
<g id="edge2" class="edge"><title>Node1&#45;&gt;Node3</title>
<path fill="none" stroke="midnightblue" d="M38.0015,-69.8035C52.2161,-72.0173 72.7689,-75.2181 91.8562,-78.1907"/>
<polygon fill="midnightblue" stroke="midnightblue" points="91.5407,-81.6837 101.96,-79.7643 92.618,-74.7671 91.5407,-81.6837"/>
</g>
<!-- Node4 -->
<g id="node4" class="node"><title>Node4</title>
<g id="a_node4"><a xlink:href="a04559.html#a5f8c7bacbf6d26c5c4602194edeed660" target="_top" xlink:title="生成一个文件，内容是一棵二叉树的层次遍历">
<polygon fill="white" stroke="black" points="106,-38.5 106,-57.5 180,-57.5 180,-38.5 106,-38.5"/>
<text text-anchor="middle" x="143" y="-45.5" font-family="Helvetica,sans-Serif" font-size="10.00">GenTreeData</text>
</a>
</g>
</g>
<!-- Node1&#45;&gt;Node4 -->
<g id="edge3" class="edge"><title>Node1&#45;&gt;Node4</title>
<path fill="none" stroke="midnightblue" d="M38.0015,-64.1965C53.1977,-61.8299 75.6375,-58.3351 95.7867,-55.1972"/>
<polygon fill="midnightblue" stroke="midnightblue" points="96.4149,-58.6416 105.757,-53.6444 95.3377,-51.725 96.4149,-58.6416"/>
</g>
<!-- Node5 -->
<g id="node5" class="node"><title>Node5</title>
<g id="a_node5"><a xlink:href="a04559.html#a7d426e6a75c3c77f9d18f61f2192cec9" target="_top" xlink:title="(测试用)将二叉树类的多种方法的输出插到输出流">
<polygon fill="white" stroke="black" points="100,-0.5 100,-19.5 186,-19.5 186,-0.5 100,-0.5"/>
<text text-anchor="middle" x="143" y="-7.5" font-family="Helvetica,sans-Serif" font-size="10.00">print_test_result</text>
</a>
</g>
</g>
<!-- Node1&#45;&gt;Node5 -->
<g id="edge4" class="edge"><title>Node1&#45;&gt;Node5</title>
<path fill="none" stroke="midnightblue" d="M31.2898,-57.3122C41.7476,-48.7795 58.049,-36.5648 74,-29 79.0531,-26.6036 84.465,-24.4578 89.9472,-22.5495"/>
<polygon fill="midnightblue" stroke="midnightblue" points="91.3827,-25.7644 99.829,-19.3682 89.2375,-19.1012 91.3827,-25.7644"/>
</g>
</g>
</svg>
