<?xml version="1.0" encoding="UTF-8" standalone="no"?>
<!DOCTYPE svg PUBLIC "-//W3C//DTD SVG 1.1//EN"
 "http://www.w3.org/Graphics/SVG/1.1/DTD/svg11.dtd">
<!-- Generated by graphviz version 2.38.0 (20140413.2041)
 -->
<!-- Title: include/Tree.h Pages: 1 -->
<!--zoomable 252 -->
<svg id="main" version="1.1" xmlns="http://www.w3.org/2000/svg" xmlns:xlink="http://www.w3.org/1999/xlink" xml:space="preserve" onload="init(evt)">
<style type="text/css"><![CDATA[
.edge:hover path { stroke: red; }
.edge:hover polygon { stroke: red; fill: red; }
]]></style>
<script type="text/javascript"><![CDATA[
var edges = document.getElementsByTagName('g');
if (edges && edges.length) {
  for (var i=0;i<edges.length;i++) {
    if (edges[i].id.substr(0,4)=='edge') {
      edges[i].setAttribute('class','edge');
    }
  }
}
]]></script>
        <defs>
                <circle id="rim" cx="0" cy="0" r="7"/>
                <circle id="rim2" cx="0" cy="0" r="3.5"/>
                <g id="zoomPlus">
                        <use xlink:href="#rim" fill="#404040">
                                <set attributeName="fill" to="#808080" begin="zoomplus.mouseover" end="zoomplus.mouseout"/>
                        </use>
                        <path d="M-4,0h8M0,-4v8" fill="none" stroke="white" stroke-width="1.5" pointer-events="none"/>
                </g>
                <g id="zoomMin">
                        <use xlink:href="#rim" fill="#404040">
                                <set attributeName="fill" to="#808080" begin="zoomminus.mouseover" end="zoomminus.mouseout"/>
                        </use>
                        <path d="M-4,0h8" fill="none" stroke="white" stroke-width="1.5" pointer-events="none"/>
                </g>
                <g id="dirArrow">
                        <path fill="none" stroke="white" stroke-width="1.5" d="M0,-3.0v7 M-2.5,-0.5L0,-3.0L2.5,-0.5"/>
                </g>
               <g id="resetDef">
                       <use xlink:href="#rim2" fill="#404040">
                               <set attributeName="fill" to="#808080" begin="reset.mouseover" end="reset.mouseout"/>
                       </use>
               </g>
        </defs>

<script type="text/javascript">
var viewWidth = 922;
var viewHeight = 252;
var sectionId = 'dynsection-0';
</script>
<script xlink:href="svgpan.js"/>
<svg id="graph" class="graph">
<g id="viewport">
<title>include/Tree.h</title>
<polygon fill="white" stroke="none" points="-4,4 -4,-248 918,-248 918,4 -4,4"/>
<!-- Node1 -->
<g id="node1" class="node"><title>Node1</title>
<g id="a_node1"><a xlink:title=" ">
<polygon fill="#bfbfbf" stroke="black" points="113,-224.5 113,-243.5 190,-243.5 190,-224.5 113,-224.5"/>
<text text-anchor="middle" x="151.5" y="-231.5" font-family="Helvetica,sans-Serif" font-size="10.00">include/Tree.h</text>
</a>
</g>
</g>
<!-- Node2 -->
<g id="node2" class="node"><title>Node2</title>
<g id="a_node2"><a xlink:href="a04550.html" target="_top" xlink:title=" ">
<polygon fill="white" stroke="black" points="8.5,-112.5 8.5,-131.5 100.5,-131.5 100.5,-112.5 8.5,-112.5"/>
<text text-anchor="middle" x="54.5" y="-119.5" font-family="Helvetica,sans-Serif" font-size="10.00">TreeException.hh</text>
</a>
</g>
</g>
<!-- Node1&#45;&gt;Node2 -->
<g id="edge1" class="edge"><title>Node1&#45;&gt;Node2</title>
<path fill="none" stroke="midnightblue" d="M143.889,-224.368C127.739,-206.055 89.8159,-163.049 68.9287,-139.362"/>
<polygon fill="midnightblue" stroke="midnightblue" points="71.3152,-136.777 62.0761,-131.591 66.0649,-141.407 71.3152,-136.777"/>
</g>
<!-- Node5 -->
<g id="node5" class="node"><title>Node5</title>
<g id="a_node5"><a xlink:title=" ">
<polygon fill="white" stroke="#bfbfbf" points="167.5,-56.5 167.5,-75.5 215.5,-75.5 215.5,-56.5 167.5,-56.5"/>
<text text-anchor="middle" x="191.5" y="-63.5" font-family="Helvetica,sans-Serif" font-size="10.00">cstddef</text>
</a>
</g>
</g>
<!-- Node1&#45;&gt;Node5 -->
<g id="edge4" class="edge"><title>Node1&#45;&gt;Node5</title>
<path fill="none" stroke="midnightblue" d="M148.902,-224.368C143.229,-203.923 131.473,-151.316 147.5,-112 152.3,-100.225 161.829,-89.8564 170.795,-82.0486"/>
<polygon fill="midnightblue" stroke="midnightblue" points="173.15,-84.6448 178.719,-75.6314 168.745,-79.2048 173.15,-84.6448"/>
</g>
<!-- Node6 -->
<g id="node6" class="node"><title>Node6</title>
<g id="a_node6"><a xlink:href="a04523.html" target="_top" xlink:title=" ">
<polygon fill="white" stroke="black" points="156.5,-112.5 156.5,-131.5 212.5,-131.5 212.5,-112.5 156.5,-112.5"/>
<text text-anchor="middle" x="184.5" y="-119.5" font-family="Helvetica,sans-Serif" font-size="10.00">binTree.h</text>
</a>
</g>
</g>
<!-- Node1&#45;&gt;Node6 -->
<g id="edge5" class="edge"><title>Node1&#45;&gt;Node6</title>
<path fill="none" stroke="midnightblue" d="M154.089,-224.368C159.439,-206.537 171.811,-165.295 179.018,-141.272"/>
<polygon fill="midnightblue" stroke="midnightblue" points="182.401,-142.175 181.923,-131.591 175.697,-140.164 182.401,-142.175"/>
</g>
<!-- Node7 -->
<g id="node7" class="node"><title>Node7</title>
<g id="a_node7"><a xlink:href="a04520.html" target="_top" xlink:title=" ">
<polygon fill="white" stroke="black" points="290,-168.5 290,-187.5 365,-187.5 365,-168.5 290,-168.5"/>
<text text-anchor="middle" x="327.5" y="-175.5" font-family="Helvetica,sans-Serif" font-size="10.00">binaryTree.hh</text>
</a>
</g>
</g>
<!-- Node1&#45;&gt;Node7 -->
<g id="edge6" class="edge"><title>Node1&#45;&gt;Node7</title>
<path fill="none" stroke="midnightblue" d="M179.388,-224.444C209.254,-215.28 256.815,-200.688 289.956,-190.519"/>
<polygon fill="midnightblue" stroke="midnightblue" points="291.209,-193.796 299.743,-187.516 289.156,-187.104 291.209,-193.796"/>
</g>
<!-- Node3 -->
<g id="node3" class="node"><title>Node3</title>
<g id="a_node3"><a xlink:title=" ">
<polygon fill="white" stroke="#bfbfbf" points="59,-56.5 59,-75.5 118,-75.5 118,-56.5 59,-56.5"/>
<text text-anchor="middle" x="88.5" y="-63.5" font-family="Helvetica,sans-Serif" font-size="10.00">exception</text>
</a>
</g>
</g>
<!-- Node2&#45;&gt;Node3 -->
<g id="edge2" class="edge"><title>Node2&#45;&gt;Node3</title>
<path fill="none" stroke="midnightblue" d="M60.1144,-112.083C64.8674,-104.534 71.8181,-93.4948 77.6516,-84.2298"/>
<polygon fill="midnightblue" stroke="midnightblue" points="80.6237,-86.0783 82.9901,-75.7511 74.7001,-82.3486 80.6237,-86.0783"/>
</g>
<!-- Node4 -->
<g id="node4" class="node"><title>Node4</title>
<g id="a_node4"><a xlink:title=" ">
<polygon fill="white" stroke="#bfbfbf" points="0,-56.5 0,-75.5 41,-75.5 41,-56.5 0,-56.5"/>
<text text-anchor="middle" x="20.5" y="-63.5" font-family="Helvetica,sans-Serif" font-size="10.00">string</text>
</a>
</g>
</g>
<!-- Node2&#45;&gt;Node4 -->
<g id="edge3" class="edge"><title>Node2&#45;&gt;Node4</title>
<path fill="none" stroke="midnightblue" d="M48.8856,-112.083C44.1326,-104.534 37.1819,-93.4948 31.3484,-84.2298"/>
<polygon fill="midnightblue" stroke="midnightblue" points="34.2999,-82.3486 26.0099,-75.7511 28.3763,-86.0783 34.2999,-82.3486"/>
</g>
<!-- Node7&#45;&gt;Node2 -->
<g id="edge26" class="edge"><title>Node7&#45;&gt;Node2</title>
<path fill="none" stroke="midnightblue" d="M289.827,-169.548C242.556,-160.198 161.204,-144.106 107.627,-133.509"/>
<polygon fill="midnightblue" stroke="midnightblue" points="108.12,-130.038 97.6305,-131.531 106.761,-136.905 108.12,-130.038"/>
</g>
<!-- Node7&#45;&gt;Node6 -->
<g id="edge27" class="edge"><title>Node7&#45;&gt;Node6</title>
<path fill="none" stroke="midnightblue" d="M304.841,-168.444C281.098,-159.478 243.591,-145.314 216.762,-135.183"/>
<polygon fill="midnightblue" stroke="midnightblue" points="217.644,-131.775 207.053,-131.516 215.171,-138.324 217.644,-131.775"/>
</g>
<!-- Node8 -->
<g id="node8" class="node"><title>Node8</title>
<g id="a_node8"><a xlink:href="a04532.html" target="_top" xlink:title=" ">
<polygon fill="white" stroke="black" points="447,-112.5 447,-131.5 500,-131.5 500,-112.5 447,-112.5"/>
<text text-anchor="middle" x="473.5" y="-119.5" font-family="Helvetica,sans-Serif" font-size="10.00">Queue.h</text>
</a>
</g>
</g>
<!-- Node7&#45;&gt;Node8 -->
<g id="edge7" class="edge"><title>Node7&#45;&gt;Node8</title>
<path fill="none" stroke="midnightblue" d="M350.634,-168.444C374.982,-159.438 413.507,-145.189 440.923,-135.049"/>
<polygon fill="midnightblue" stroke="midnightblue" points="442.309,-138.268 450.474,-131.516 439.881,-131.703 442.309,-138.268"/>
</g>
<!-- Node10 -->
<g id="node10" class="node"><title>Node10</title>
<g id="a_node10"><a xlink:title=" ">
<polygon fill="white" stroke="#bfbfbf" points="499.5,-0.5 499.5,-19.5 539.5,-19.5 539.5,-0.5 499.5,-0.5"/>
<text text-anchor="middle" x="519.5" y="-7.5" font-family="Helvetica,sans-Serif" font-size="10.00">utility</text>
</a>
</g>
</g>
<!-- Node7&#45;&gt;Node10 -->
<g id="edge31" class="edge"><title>Node7&#45;&gt;Node10</title>
<path fill="none" stroke="midnightblue" d="M365.338,-173.479C403.516,-168.621 463.146,-157.376 508.5,-132 539.493,-114.659 551.764,-108.75 565.5,-76 573.44,-57.068 556.69,-38.2282 541.222,-25.744"/>
<polygon fill="midnightblue" stroke="midnightblue" points="543.021,-22.7175 532.926,-19.5021 538.813,-28.3111 543.021,-22.7175"/>
</g>
<!-- Node13 -->
<g id="node13" class="node"><title>Node13</title>
<g id="a_node13"><a xlink:href="a04541.html" target="_top" xlink:title=" ">
<polygon fill="white" stroke="black" points="755.5,-112.5 755.5,-131.5 805.5,-131.5 805.5,-112.5 755.5,-112.5"/>
<text text-anchor="middle" x="780.5" y="-119.5" font-family="Helvetica,sans-Serif" font-size="10.00">Stack.h</text>
</a>
</g>
</g>
<!-- Node7&#45;&gt;Node13 -->
<g id="edge18" class="edge"><title>Node7&#45;&gt;Node13</title>
<path fill="none" stroke="midnightblue" d="M365.343,-172.489C451.603,-162.206 661.779,-137.152 745.37,-127.188"/>
<polygon fill="midnightblue" stroke="midnightblue" points="745.866,-130.653 755.381,-125.994 745.037,-123.703 745.866,-130.653"/>
</g>
<!-- Node18 -->
<g id="node18" class="node"><title>Node18</title>
<g id="a_node18"><a xlink:title=" ">
<polygon fill="white" stroke="#bfbfbf" points="231,-112.5 231,-131.5 280,-131.5 280,-112.5 231,-112.5"/>
<text text-anchor="middle" x="255.5" y="-119.5" font-family="Helvetica,sans-Serif" font-size="10.00">cassert</text>
</a>
</g>
</g>
<!-- Node7&#45;&gt;Node18 -->
<g id="edge28" class="edge"><title>Node7&#45;&gt;Node18</title>
<path fill="none" stroke="midnightblue" d="M315.932,-168.324C305.08,-160.185 288.619,-147.839 275.617,-138.087"/>
<polygon fill="midnightblue" stroke="midnightblue" points="277.379,-135.034 267.279,-131.834 273.179,-140.634 277.379,-135.034"/>
</g>
<!-- Node19 -->
<g id="node19" class="node"><title>Node19</title>
<g id="a_node19"><a xlink:title=" ">
<polygon fill="white" stroke="#bfbfbf" points="298.5,-112.5 298.5,-131.5 356.5,-131.5 356.5,-112.5 298.5,-112.5"/>
<text text-anchor="middle" x="327.5" y="-119.5" font-family="Helvetica,sans-Serif" font-size="10.00">functional</text>
</a>
</g>
</g>
<!-- Node7&#45;&gt;Node19 -->
<g id="edge29" class="edge"><title>Node7&#45;&gt;Node19</title>
<path fill="none" stroke="midnightblue" d="M327.5,-168.083C327.5,-161.006 327.5,-150.861 327.5,-141.986"/>
<polygon fill="midnightblue" stroke="midnightblue" points="331,-141.751 327.5,-131.751 324,-141.751 331,-141.751"/>
</g>
<!-- Node20 -->
<g id="node20" class="node"><title>Node20</title>
<g id="a_node20"><a xlink:title=" ">
<polygon fill="white" stroke="#bfbfbf" points="374.5,-112.5 374.5,-131.5 428.5,-131.5 428.5,-112.5 374.5,-112.5"/>
<text text-anchor="middle" x="401.5" y="-119.5" font-family="Helvetica,sans-Serif" font-size="10.00">iostream</text>
</a>
</g>
</g>
<!-- Node7&#45;&gt;Node20 -->
<g id="edge30" class="edge"><title>Node7&#45;&gt;Node20</title>
<path fill="none" stroke="midnightblue" d="M339.389,-168.324C350.65,-160.107 367.787,-147.602 381.209,-137.807"/>
<polygon fill="midnightblue" stroke="midnightblue" points="383.38,-140.556 389.394,-131.834 379.253,-134.901 383.38,-140.556"/>
</g>
<!-- Node8&#45;&gt;Node5 -->
<g id="edge8" class="edge"><title>Node8&#45;&gt;Node5</title>
<path fill="none" stroke="midnightblue" d="M446.808,-114.125C443.677,-113.378 440.522,-112.654 437.5,-112 362.343,-95.7487 273.437,-80.4457 225.777,-72.557"/>
<polygon fill="midnightblue" stroke="midnightblue" points="226.131,-69.0682 215.695,-70.8972 224.994,-75.9752 226.131,-69.0682"/>
</g>
<!-- Node9 -->
<g id="node9" class="node"><title>Node9</title>
<g id="a_node9"><a xlink:href="a04526.html" target="_top" xlink:title=" ">
<polygon fill="white" stroke="black" points="390.5,-56.5 390.5,-75.5 464.5,-75.5 464.5,-56.5 390.5,-56.5"/>
<text text-anchor="middle" x="427.5" y="-63.5" font-family="Helvetica,sans-Serif" font-size="10.00">linkQueue.hh</text>
</a>
</g>
</g>
<!-- Node8&#45;&gt;Node9 -->
<g id="edge9" class="edge"><title>Node8&#45;&gt;Node9</title>
<path fill="none" stroke="midnightblue" d="M460.994,-112.324C452.884,-104.733 442.896,-93.4823 435.729,-84.0898"/>
<polygon fill="midnightblue" stroke="midnightblue" points="438.515,-81.9675 429.876,-75.8339 432.805,-86.016 438.515,-81.9675"/>
</g>
<!-- Node11 -->
<g id="node11" class="node"><title>Node11</title>
<g id="a_node11"><a xlink:href="a04535.html" target="_top" xlink:title=" ">
<polygon fill="white" stroke="black" points="482.5,-56.5 482.5,-75.5 556.5,-75.5 556.5,-56.5 482.5,-56.5"/>
<text text-anchor="middle" x="519.5" y="-63.5" font-family="Helvetica,sans-Serif" font-size="10.00">seqQueue.hh</text>
</a>
</g>
</g>
<!-- Node8&#45;&gt;Node11 -->
<g id="edge12" class="edge"><title>Node8&#45;&gt;Node11</title>
<path fill="none" stroke="midnightblue" d="M475.93,-112.083C480.969,-104.22 490.538,-92.5688 499.568,-83.0813"/>
<polygon fill="midnightblue" stroke="midnightblue" points="502.307,-85.2919 506.914,-75.7511 497.363,-80.3366 502.307,-85.2919"/>
</g>
<!-- Node12 -->
<g id="node12" class="node"><title>Node12</title>
<g id="a_node12"><a xlink:href="a04553.html" target="_top" xlink:title=" ">
<polygon fill="white" stroke="black" points="299,-56.5 299,-75.5 372,-75.5 372,-56.5 299,-56.5"/>
<text text-anchor="middle" x="335.5" y="-63.5" font-family="Helvetica,sans-Serif" font-size="10.00">vecQueue.hh</text>
</a>
</g>
</g>
<!-- Node8&#45;&gt;Node12 -->
<g id="edge15" class="edge"><title>Node8&#45;&gt;Node12</title>
<path fill="none" stroke="midnightblue" d="M446.875,-112.563C422.252,-103.698 386.133,-89.6606 361.666,-79.508"/>
<polygon fill="midnightblue" stroke="midnightblue" points="362.852,-76.2098 352.278,-75.5565 360.137,-82.6617 362.852,-76.2098"/>
</g>
<!-- Node9&#45;&gt;Node8 -->
<g id="edge10" class="edge"><title>Node9&#45;&gt;Node8</title>
<path fill="none" stroke="midnightblue" d="M440.086,-75.7511C448.166,-83.3265 458.089,-94.5048 465.229,-103.855"/>
<polygon fill="midnightblue" stroke="midnightblue" points="462.427,-105.955 471.07,-112.083 468.135,-101.903 462.427,-105.955"/>
</g>
<!-- Node9&#45;&gt;Node10 -->
<g id="edge11" class="edge"><title>Node9&#45;&gt;Node10</title>
<path fill="none" stroke="midnightblue" d="M442.281,-56.324C456.767,-47.8215 479.073,-34.7288 495.993,-24.7975"/>
<polygon fill="midnightblue" stroke="midnightblue" points="497.903,-27.735 504.755,-19.6545 494.359,-21.6981 497.903,-27.735"/>
</g>
<!-- Node11&#45;&gt;Node8 -->
<g id="edge13" class="edge"><title>Node11&#45;&gt;Node8</title>
<path fill="none" stroke="midnightblue" d="M517.124,-75.8339C512.039,-83.7906 502.267,-95.6731 493.113,-105.253"/>
<polygon fill="midnightblue" stroke="midnightblue" points="490.627,-102.79 486.006,-112.324 495.563,-107.753 490.627,-102.79"/>
</g>
<!-- Node11&#45;&gt;Node10 -->
<g id="edge14" class="edge"><title>Node11&#45;&gt;Node10</title>
<path fill="none" stroke="midnightblue" d="M519.5,-56.083C519.5,-49.0059 519.5,-38.8611 519.5,-29.9865"/>
<polygon fill="midnightblue" stroke="midnightblue" points="523,-29.751 519.5,-19.7511 516,-29.7511 523,-29.751"/>
</g>
<!-- Node12&#45;&gt;Node8 -->
<g id="edge16" class="edge"><title>Node12&#45;&gt;Node8</title>
<path fill="none" stroke="midnightblue" d="M362.344,-75.5164C386.97,-84.388 422.966,-98.3795 447.36,-108.503"/>
<polygon fill="midnightblue" stroke="midnightblue" points="446.148,-111.79 456.722,-112.444 448.863,-105.338 446.148,-111.79"/>
</g>
<!-- Node12&#45;&gt;Node10 -->
<g id="edge17" class="edge"><title>Node12&#45;&gt;Node10</title>
<path fill="none" stroke="midnightblue" d="M364.655,-56.4435C398.726,-46.4446 454.823,-29.9814 489.325,-19.8556"/>
<polygon fill="midnightblue" stroke="midnightblue" points="490.682,-23.1052 499.291,-16.9308 488.71,-16.3885 490.682,-23.1052"/>
</g>
<!-- Node13&#45;&gt;Node10 -->
<g id="edge20" class="edge"><title>Node13&#45;&gt;Node10</title>
<path fill="none" stroke="midnightblue" d="M755.412,-114.324C727.199,-106.486 680.261,-92.4477 641.5,-76 605.809,-60.8547 566.578,-38.9385 542.49,-24.829"/>
<polygon fill="midnightblue" stroke="midnightblue" points="544.13,-21.7331 533.741,-19.6569 540.568,-27.7589 544.13,-21.7331"/>
</g>
<!-- Node14 -->
<g id="node14" class="node"><title>Node14</title>
<g id="a_node14"><a xlink:title=" ">
<polygon fill="white" stroke="#bfbfbf" points="651,-56.5 651,-75.5 724,-75.5 724,-56.5 651,-56.5"/>
<text text-anchor="middle" x="687.5" y="-63.5" font-family="Helvetica,sans-Serif" font-size="10.00">initializer_list</text>
</a>
</g>
</g>
<!-- Node13&#45;&gt;Node14 -->
<g id="edge19" class="edge"><title>Node13&#45;&gt;Node14</title>
<path fill="none" stroke="midnightblue" d="M765.558,-112.324C750.915,-103.822 728.366,-90.7288 711.262,-80.7975"/>
<polygon fill="midnightblue" stroke="midnightblue" points="712.81,-77.6491 702.405,-75.6545 709.295,-83.7027 712.81,-77.6491"/>
</g>
<!-- Node15 -->
<g id="node15" class="node"><title>Node15</title>
<g id="a_node15"><a xlink:href="a04529.html" target="_top" xlink:title=" ">
<polygon fill="white" stroke="black" points="742.5,-56.5 742.5,-75.5 818.5,-75.5 818.5,-56.5 742.5,-56.5"/>
<text text-anchor="middle" x="780.5" y="-63.5" font-family="Helvetica,sans-Serif" font-size="10.00">linkStack.hpp</text>
</a>
</g>
</g>
<!-- Node13&#45;&gt;Node15 -->
<g id="edge21" class="edge"><title>Node13&#45;&gt;Node15</title>
<path fill="none" stroke="midnightblue" d="M775.334,-112.083C773.824,-104.927 773.394,-94.6353 774.042,-85.6911"/>
<polygon fill="midnightblue" stroke="midnightblue" points="777.515,-86.1262 775.369,-75.7511 770.577,-85.2002 777.515,-86.1262"/>
</g>
<!-- Node16 -->
<g id="node16" class="node"><title>Node16</title>
<g id="a_node16"><a xlink:href="a04538.html" target="_top" xlink:title=" ">
<polygon fill="white" stroke="black" points="837,-56.5 837,-75.5 914,-75.5 914,-56.5 837,-56.5"/>
<text text-anchor="middle" x="875.5" y="-63.5" font-family="Helvetica,sans-Serif" font-size="10.00">seqStack.hxx</text>
</a>
</g>
</g>
<!-- Node13&#45;&gt;Node16 -->
<g id="edge23" class="edge"><title>Node13&#45;&gt;Node16</title>
<path fill="none" stroke="midnightblue" d="M790.649,-112.324C803.948,-103.703 827.146,-90.3643 846.031,-80.3855"/>
<polygon fill="midnightblue" stroke="midnightblue" points="847.895,-83.3618 855.164,-75.6545 844.675,-77.1461 847.895,-83.3618"/>
</g>
<!-- Node15&#45;&gt;Node13 -->
<g id="edge22" class="edge"><title>Node15&#45;&gt;Node13</title>
<path fill="none" stroke="midnightblue" d="M785.631,-75.7511C787.157,-82.8579 787.604,-93.1357 786.972,-102.101"/>
<polygon fill="midnightblue" stroke="midnightblue" points="783.493,-101.713 785.666,-112.083 790.434,-102.622 783.493,-101.713"/>
</g>
<!-- Node16&#45;&gt;Node13 -->
<g id="edge24" class="edge"><title>Node16&#45;&gt;Node13</title>
<path fill="none" stroke="midnightblue" d="M865.385,-75.6545C852.102,-84.2672 828.908,-97.6052 810.016,-107.59"/>
<polygon fill="midnightblue" stroke="midnightblue" points="808.147,-104.616 800.878,-112.324 811.367,-110.831 808.147,-104.616"/>
</g>
<!-- Node17 -->
<g id="node17" class="node"><title>Node17</title>
<g id="a_node17"><a xlink:title=" ">
<polygon fill="white" stroke="#bfbfbf" points="853,-0.5 853,-19.5 898,-19.5 898,-0.5 853,-0.5"/>
<text text-anchor="middle" x="875.5" y="-7.5" font-family="Helvetica,sans-Serif" font-size="10.00">climits</text>
</a>
</g>
</g>
<!-- Node16&#45;&gt;Node17 -->
<g id="edge25" class="edge"><title>Node16&#45;&gt;Node17</title>
<path fill="none" stroke="midnightblue" d="M875.5,-56.083C875.5,-49.0059 875.5,-38.8611 875.5,-29.9865"/>
<polygon fill="midnightblue" stroke="midnightblue" points="879,-29.751 875.5,-19.7511 872,-29.7511 879,-29.751"/>
</g>
</g>
</svg>
        <g id="navigator" transform="translate(0 0)" fill="#404254">
                <rect fill="#f2f5e9" fill-opacity="0.5" stroke="#606060" stroke-width=".5" x="0" y="0" width="60" height="60"/>
                <use id="zoomplus" xlink:href="#zoomPlus" x="17" y="9" onmousedown="handleZoom(evt,'in')"/>
                <use id="zoomminus" xlink:href="#zoomMin" x="42" y="9" onmousedown="handleZoom(evt,'out')"/>
                <use id="reset" xlink:href="#resetDef" x="30" y="36" onmousedown="handleReset()"/>
                <g id="arrowUp" xlink:href="#dirArrow" transform="translate(30 24)" onmousedown="handlePan(0,-1)">
                  <use xlink:href="#rim" fill="#404040">
                        <set attributeName="fill" to="#808080" begin="arrowUp.mouseover" end="arrowUp.mouseout"/>
                  </use>
                  <path fill="none" stroke="white" stroke-width="1.5" d="M0,-3.0v7 M-2.5,-0.5L0,-3.0L2.5,-0.5"/>
                </g>
                <g id="arrowRight" xlink:href="#dirArrow" transform="rotate(90) translate(36 -43)" onmousedown="handlePan(1,0)">
                  <use xlink:href="#rim" fill="#404040">
                        <set attributeName="fill" to="#808080" begin="arrowRight.mouseover" end="arrowRight.mouseout"/>
                  </use>
                  <path fill="none" stroke="white" stroke-width="1.5" d="M0,-3.0v7 M-2.5,-0.5L0,-3.0L2.5,-0.5"/>
                </g>
                <g id="arrowDown" xlink:href="#dirArrow" transform="rotate(180) translate(-30 -48)" onmousedown="handlePan(0,1)">
                  <use xlink:href="#rim" fill="#404040">
                        <set attributeName="fill" to="#808080" begin="arrowDown.mouseover" end="arrowDown.mouseout"/>
                  </use>
                  <path fill="none" stroke="white" stroke-width="1.5" d="M0,-3.0v7 M-2.5,-0.5L0,-3.0L2.5,-0.5"/>
                </g>
                <g id="arrowLeft" xlink:href="#dirArrow" transform="rotate(270) translate(-36 17)" onmousedown="handlePan(-1,0)">
                  <use xlink:href="#rim" fill="#404040">
                        <set attributeName="fill" to="#808080" begin="arrowLeft.mouseover" end="arrowLeft.mouseout"/>
                  </use>
                  <path fill="none" stroke="white" stroke-width="1.5" d="M0,-3.0v7 M-2.5,-0.5L0,-3.0L2.5,-0.5"/>
                </g>
        </g>
        <svg viewBox="0 0 15 15" width="100%" height="30px" preserveAspectRatio="xMaxYMin meet">
         <g id="arrow_out" transform="scale(0.3 0.3)">
          <a xlink:href="a04548_org.svg" target="_base">
           <rect id="button" ry="5" rx="5" y="6" x="6" height="38" width="38"
                fill="#f2f5e9" fill-opacity="0.5" stroke="#606060" stroke-width="1.0"/>
           <path id="arrow"
             d="M 11.500037,31.436501 C 11.940474,20.09759 22.043105,11.32322 32.158766,21.979434 L 37.068811,17.246167 C 37.068811,17.246167 37.088388,32 37.088388,32 L 22.160133,31.978069 C 22.160133,31.978069 26.997745,27.140456 26.997745,27.140456 C 18.528582,18.264221 13.291696,25.230495 11.500037,31.436501 z"
             style="fill:#404040;"/>
          </a>
         </g>
        </svg>
</svg>
