<?xml version="1.0" encoding="UTF-8" standalone="no"?>
<!DOCTYPE svg PUBLIC "-//W3C//DTD SVG 1.1//EN"
 "http://www.w3.org/Graphics/SVG/1.1/DTD/svg11.dtd">
<!-- Generated by graphviz version 2.38.0 (20140413.2041)
 -->
<!-- Title: include/test0.hh Pages: 1 -->
<!--zoomable 308 -->
<svg id="main" version="1.1" xmlns="http://www.w3.org/2000/svg" xmlns:xlink="http://www.w3.org/1999/xlink" xml:space="preserve" onload="init(evt)">
<style type="text/css"><![CDATA[
.edge:hover path { stroke: red; }
.edge:hover polygon { stroke: red; fill: red; }
]]></style>
<script type="text/javascript"><![CDATA[
var edges = document.getElementsByTagName('g');
if (edges && edges.length) {
  for (var i=0;i<edges.length;i++) {
    if (edges[i].id.substr(0,4)=='edge') {
      edges[i].setAttribute('class','edge');
    }
  }
}
]]></script>
        <defs>
                <circle id="rim" cx="0" cy="0" r="7"/>
                <circle id="rim2" cx="0" cy="0" r="3.5"/>
                <g id="zoomPlus">
                        <use xlink:href="#rim" fill="#404040">
                                <set attributeName="fill" to="#808080" begin="zoomplus.mouseover" end="zoomplus.mouseout"/>
                        </use>
                        <path d="M-4,0h8M0,-4v8" fill="none" stroke="white" stroke-width="1.5" pointer-events="none"/>
                </g>
                <g id="zoomMin">
                        <use xlink:href="#rim" fill="#404040">
                                <set attributeName="fill" to="#808080" begin="zoomminus.mouseover" end="zoomminus.mouseout"/>
                        </use>
                        <path d="M-4,0h8" fill="none" stroke="white" stroke-width="1.5" pointer-events="none"/>
                </g>
                <g id="dirArrow">
                        <path fill="none" stroke="white" stroke-width="1.5" d="M0,-3.0v7 M-2.5,-0.5L0,-3.0L2.5,-0.5"/>
                </g>
               <g id="resetDef">
                       <use xlink:href="#rim2" fill="#404040">
                               <set attributeName="fill" to="#808080" begin="reset.mouseover" end="reset.mouseout"/>
                       </use>
               </g>
        </defs>

<script type="text/javascript">
var viewWidth = 831;
var viewHeight = 308;
var sectionId = 'dynsection-0';
</script>
<script xlink:href="svgpan.js"/>
<svg id="graph" class="graph">
<g id="viewport">
<title>include/test0.hh</title>
<polygon fill="white" stroke="none" points="-4,4 -4,-304 826.5,-304 826.5,4 -4,4"/>
<!-- Node1 -->
<g id="node1" class="node"><title>Node1</title>
<g id="a_node1"><a xlink:title="生成一个文件，内容是一棵二叉树的层次遍历(deprecated)">
<polygon fill="#bfbfbf" stroke="black" points="569,-280.5 569,-299.5 655,-299.5 655,-280.5 569,-280.5"/>
<text text-anchor="middle" x="612" y="-287.5" font-family="Helvetica,sans-Serif" font-size="10.00">include/test0.hh</text>
</a>
</g>
</g>
<!-- Node2 -->
<g id="node2" class="node"><title>Node2</title>
<g id="a_node2"><a xlink:href="a04547.html" target="_top" xlink:title=" ">
<polygon fill="white" stroke="black" points="300,-224.5 300,-243.5 344,-243.5 344,-224.5 300,-224.5"/>
<text text-anchor="middle" x="322" y="-231.5" font-family="Helvetica,sans-Serif" font-size="10.00">Tree.h</text>
</a>
</g>
</g>
<!-- Node1&#45;&gt;Node2 -->
<g id="edge1" class="edge"><title>Node1&#45;&gt;Node2</title>
<path fill="none" stroke="midnightblue" d="M568.897,-280.974C510.295,-270.062 406.791,-250.789 354.368,-241.027"/>
<polygon fill="midnightblue" stroke="midnightblue" points="354.763,-237.541 344.292,-239.151 353.482,-244.422 354.763,-237.541"/>
</g>
<!-- Node21 -->
<g id="node21" class="node"><title>Node21</title>
<g id="a_node21"><a xlink:title=" ">
<polygon fill="white" stroke="#bfbfbf" points="613,-112.5 613,-131.5 667,-131.5 667,-112.5 613,-112.5"/>
<text text-anchor="middle" x="640" y="-119.5" font-family="Helvetica,sans-Serif" font-size="10.00">iostream</text>
</a>
</g>
</g>
<!-- Node1&#45;&gt;Node21 -->
<g id="edge35" class="edge"><title>Node1&#45;&gt;Node21</title>
<path fill="none" stroke="midnightblue" d="M610.758,-280.397C609.519,-271.358 607.704,-256.715 607,-244 606.508,-235.125 605.602,-232.778 607,-224 611.77,-194.042 624.029,-160.896 632.187,-141.02"/>
<polygon fill="midnightblue" stroke="midnightblue" points="635.463,-142.258 636.121,-131.684 629.012,-139.54 635.463,-142.258"/>
</g>
<!-- Node22 -->
<g id="node22" class="node"><title>Node22</title>
<g id="a_node22"><a xlink:title=" ">
<polygon fill="white" stroke="#bfbfbf" points="616.5,-224.5 616.5,-243.5 657.5,-243.5 657.5,-224.5 616.5,-224.5"/>
<text text-anchor="middle" x="637" y="-231.5" font-family="Helvetica,sans-Serif" font-size="10.00">ctime</text>
</a>
</g>
</g>
<!-- Node1&#45;&gt;Node22 -->
<g id="edge33" class="edge"><title>Node1&#45;&gt;Node22</title>
<path fill="none" stroke="midnightblue" d="M616.128,-280.083C619.514,-272.77 624.416,-262.181 628.619,-253.103"/>
<polygon fill="midnightblue" stroke="midnightblue" points="631.923,-254.296 632.949,-243.751 625.571,-251.355 631.923,-254.296"/>
</g>
<!-- Node23 -->
<g id="node23" class="node"><title>Node23</title>
<g id="a_node23"><a xlink:title=" ">
<polygon fill="white" stroke="#bfbfbf" points="675.5,-224.5 675.5,-243.5 724.5,-243.5 724.5,-224.5 675.5,-224.5"/>
<text text-anchor="middle" x="700" y="-231.5" font-family="Helvetica,sans-Serif" font-size="10.00">fstream</text>
</a>
</g>
</g>
<!-- Node1&#45;&gt;Node23 -->
<g id="edge34" class="edge"><title>Node1&#45;&gt;Node23</title>
<path fill="none" stroke="midnightblue" d="M626.139,-280.324C639.866,-271.9 660.936,-258.971 677.064,-249.074"/>
<polygon fill="midnightblue" stroke="midnightblue" points="679.204,-251.868 685.896,-243.655 675.543,-245.902 679.204,-251.868"/>
</g>
<!-- Node3 -->
<g id="node3" class="node"><title>Node3</title>
<g id="a_node3"><a xlink:href="a04550.html" target="_top" xlink:title=" ">
<polygon fill="white" stroke="black" points="503,-112.5 503,-131.5 595,-131.5 595,-112.5 503,-112.5"/>
<text text-anchor="middle" x="549" y="-119.5" font-family="Helvetica,sans-Serif" font-size="10.00">TreeException.hh</text>
</a>
</g>
</g>
<!-- Node2&#45;&gt;Node3 -->
<g id="edge2" class="edge"><title>Node2&#45;&gt;Node3</title>
<path fill="none" stroke="midnightblue" d="M339.812,-224.368C379.429,-205.171 475.036,-158.842 522.02,-136.074"/>
<polygon fill="midnightblue" stroke="midnightblue" points="523.798,-139.102 531.27,-131.591 520.745,-132.803 523.798,-139.102"/>
</g>
<!-- Node6 -->
<g id="node6" class="node"><title>Node6</title>
<g id="a_node6"><a xlink:title=" ">
<polygon fill="white" stroke="#bfbfbf" points="0,-56.5 0,-75.5 48,-75.5 48,-56.5 0,-56.5"/>
<text text-anchor="middle" x="24" y="-63.5" font-family="Helvetica,sans-Serif" font-size="10.00">cstddef</text>
</a>
</g>
</g>
<!-- Node2&#45;&gt;Node6 -->
<g id="edge5" class="edge"><title>Node2&#45;&gt;Node6</title>
<path fill="none" stroke="midnightblue" d="M299.73,-232.02C246.273,-228.401 110.024,-211.437 41,-132 29.8922,-119.217 25.9158,-100.026 24.5545,-85.8077"/>
<polygon fill="midnightblue" stroke="midnightblue" points="28.0397,-85.4564 23.9372,-75.6881 21.0527,-85.8827 28.0397,-85.4564"/>
</g>
<!-- Node7 -->
<g id="node7" class="node"><title>Node7</title>
<g id="a_node7"><a xlink:href="a04523.html" target="_top" xlink:title=" ">
<polygon fill="white" stroke="black" points="50,-112.5 50,-131.5 106,-131.5 106,-112.5 50,-112.5"/>
<text text-anchor="middle" x="78" y="-119.5" font-family="Helvetica,sans-Serif" font-size="10.00">binTree.h</text>
</a>
</g>
</g>
<!-- Node2&#45;&gt;Node7 -->
<g id="edge6" class="edge"><title>Node2&#45;&gt;Node7</title>
<path fill="none" stroke="midnightblue" d="M302.854,-224.368C260.092,-205.091 156.643,-158.454 106.369,-135.789"/>
<polygon fill="midnightblue" stroke="midnightblue" points="107.612,-132.511 97.0573,-131.591 104.735,-138.892 107.612,-132.511"/>
</g>
<!-- Node8 -->
<g id="node8" class="node"><title>Node8</title>
<g id="a_node8"><a xlink:href="a04520.html" target="_top" xlink:title=" ">
<polygon fill="white" stroke="black" points="284.5,-168.5 284.5,-187.5 359.5,-187.5 359.5,-168.5 284.5,-168.5"/>
<text text-anchor="middle" x="322" y="-175.5" font-family="Helvetica,sans-Serif" font-size="10.00">binaryTree.hh</text>
</a>
</g>
</g>
<!-- Node2&#45;&gt;Node8 -->
<g id="edge7" class="edge"><title>Node2&#45;&gt;Node8</title>
<path fill="none" stroke="midnightblue" d="M322,-224.083C322,-217.006 322,-206.861 322,-197.986"/>
<polygon fill="midnightblue" stroke="midnightblue" points="325.5,-197.751 322,-187.751 318.5,-197.751 325.5,-197.751"/>
</g>
<!-- Node4 -->
<g id="node4" class="node"><title>Node4</title>
<g id="a_node4"><a xlink:title=" ">
<polygon fill="white" stroke="#bfbfbf" points="763.5,-56.5 763.5,-75.5 822.5,-75.5 822.5,-56.5 763.5,-56.5"/>
<text text-anchor="middle" x="793" y="-63.5" font-family="Helvetica,sans-Serif" font-size="10.00">exception</text>
</a>
</g>
</g>
<!-- Node3&#45;&gt;Node4 -->
<g id="edge3" class="edge"><title>Node3&#45;&gt;Node4</title>
<path fill="none" stroke="midnightblue" d="M588.328,-112.498C627.6,-103.979 689.95,-90.375 753.417,-76.1132"/>
<polygon fill="midnightblue" stroke="midnightblue" points="754.209,-79.5225 763.197,-73.9122 752.673,-72.6933 754.209,-79.5225"/>
</g>
<!-- Node5 -->
<g id="node5" class="node"><title>Node5</title>
<g id="a_node5"><a xlink:title=" ">
<polygon fill="white" stroke="#bfbfbf" points="704.5,-56.5 704.5,-75.5 745.5,-75.5 745.5,-56.5 704.5,-56.5"/>
<text text-anchor="middle" x="725" y="-63.5" font-family="Helvetica,sans-Serif" font-size="10.00">string</text>
</a>
</g>
</g>
<!-- Node3&#45;&gt;Node5 -->
<g id="edge4" class="edge"><title>Node3&#45;&gt;Node5</title>
<path fill="none" stroke="midnightblue" d="M576.888,-112.444C609.038,-102.579 661.692,-86.424 694.792,-76.2685"/>
<polygon fill="midnightblue" stroke="midnightblue" points="695.858,-79.6023 704.392,-73.323 693.805,-72.9102 695.858,-79.6023"/>
</g>
<!-- Node8&#45;&gt;Node3 -->
<g id="edge27" class="edge"><title>Node8&#45;&gt;Node3</title>
<path fill="none" stroke="midnightblue" d="M357.969,-168.444C397.319,-159.083 460.487,-144.056 503.314,-133.868"/>
<polygon fill="midnightblue" stroke="midnightblue" points="504.281,-137.236 513.199,-131.516 502.661,-130.426 504.281,-137.236"/>
</g>
<!-- Node8&#45;&gt;Node7 -->
<g id="edge28" class="edge"><title>Node8&#45;&gt;Node7</title>
<path fill="none" stroke="midnightblue" d="M284.165,-169.066C244.644,-160.714 180.595,-146.999 116.184,-132.233"/>
<polygon fill="midnightblue" stroke="midnightblue" points="116.795,-128.782 106.265,-129.951 115.226,-135.604 116.795,-128.782"/>
</g>
<!-- Node9 -->
<g id="node9" class="node"><title>Node9</title>
<g id="a_node9"><a xlink:href="a04532.html" target="_top" xlink:title=" ">
<polygon fill="white" stroke="black" points="268.5,-112.5 268.5,-131.5 321.5,-131.5 321.5,-112.5 268.5,-112.5"/>
<text text-anchor="middle" x="295" y="-119.5" font-family="Helvetica,sans-Serif" font-size="10.00">Queue.h</text>
</a>
</g>
</g>
<!-- Node8&#45;&gt;Node9 -->
<g id="edge8" class="edge"><title>Node8&#45;&gt;Node9</title>
<path fill="none" stroke="midnightblue" d="M317.541,-168.083C313.846,-160.691 308.477,-149.953 303.906,-140.811"/>
<polygon fill="midnightblue" stroke="midnightblue" points="306.978,-139.13 299.376,-131.751 300.717,-142.261 306.978,-139.13"/>
</g>
<!-- Node11 -->
<g id="node11" class="node"><title>Node11</title>
<g id="a_node11"><a xlink:title=" ">
<polygon fill="white" stroke="#bfbfbf" points="272,-0.5 272,-19.5 312,-19.5 312,-0.5 272,-0.5"/>
<text text-anchor="middle" x="292" y="-7.5" font-family="Helvetica,sans-Serif" font-size="10.00">utility</text>
</a>
</g>
</g>
<!-- Node8&#45;&gt;Node11 -->
<g id="edge32" class="edge"><title>Node8&#45;&gt;Node11</title>
<path fill="none" stroke="midnightblue" d="M326.051,-168.386C335.04,-147.982 354.597,-95.4546 338,-56 332.974,-44.0528 323.056,-33.6922 313.713,-25.9339"/>
<polygon fill="midnightblue" stroke="midnightblue" points="315.84,-23.1547 305.787,-19.8113 311.561,-28.6944 315.84,-23.1547"/>
</g>
<!-- Node14 -->
<g id="node14" class="node"><title>Node14</title>
<g id="a_node14"><a xlink:href="a04541.html" target="_top" xlink:title=" ">
<polygon fill="white" stroke="black" points="435,-112.5 435,-131.5 485,-131.5 485,-112.5 435,-112.5"/>
<text text-anchor="middle" x="460" y="-119.5" font-family="Helvetica,sans-Serif" font-size="10.00">Stack.h</text>
</a>
</g>
</g>
<!-- Node8&#45;&gt;Node14 -->
<g id="edge19" class="edge"><title>Node8&#45;&gt;Node14</title>
<path fill="none" stroke="midnightblue" d="M343.867,-168.444C366.779,-159.478 402.975,-145.314 428.866,-135.183"/>
<polygon fill="midnightblue" stroke="midnightblue" points="430.199,-138.42 438.236,-131.516 427.648,-131.901 430.199,-138.42"/>
</g>
<!-- Node19 -->
<g id="node19" class="node"><title>Node19</title>
<g id="a_node19"><a xlink:title=" ">
<polygon fill="white" stroke="#bfbfbf" points="124.5,-112.5 124.5,-131.5 173.5,-131.5 173.5,-112.5 124.5,-112.5"/>
<text text-anchor="middle" x="149" y="-119.5" font-family="Helvetica,sans-Serif" font-size="10.00">cassert</text>
</a>
</g>
</g>
<!-- Node8&#45;&gt;Node19 -->
<g id="edge29" class="edge"><title>Node8&#45;&gt;Node19</title>
<path fill="none" stroke="midnightblue" d="M294.588,-168.444C264.454,-159.038 215.993,-143.911 183.347,-133.721"/>
<polygon fill="midnightblue" stroke="midnightblue" points="184.35,-130.368 173.762,-130.729 182.264,-137.05 184.35,-130.368"/>
</g>
<!-- Node20 -->
<g id="node20" class="node"><title>Node20</title>
<g id="a_node20"><a xlink:title=" ">
<polygon fill="white" stroke="#bfbfbf" points="192,-112.5 192,-131.5 250,-131.5 250,-112.5 192,-112.5"/>
<text text-anchor="middle" x="221" y="-119.5" font-family="Helvetica,sans-Serif" font-size="10.00">functional</text>
</a>
</g>
</g>
<!-- Node8&#45;&gt;Node20 -->
<g id="edge30" class="edge"><title>Node8&#45;&gt;Node20</title>
<path fill="none" stroke="midnightblue" d="M305.773,-168.324C289.649,-159.703 264.7,-146.364 246.036,-136.386"/>
<polygon fill="midnightblue" stroke="midnightblue" points="247.656,-133.283 237.187,-131.655 244.356,-139.456 247.656,-133.283"/>
</g>
<!-- Node8&#45;&gt;Node21 -->
<g id="edge31" class="edge"><title>Node8&#45;&gt;Node21</title>
<path fill="none" stroke="midnightblue" d="M359.592,-172.059C411.971,-164.943 510.054,-150.782 603.076,-132.041"/>
<polygon fill="midnightblue" stroke="midnightblue" points="603.83,-135.46 612.931,-130.035 602.433,-128.601 603.83,-135.46"/>
</g>
<!-- Node9&#45;&gt;Node6 -->
<g id="edge9" class="edge"><title>Node9&#45;&gt;Node6</title>
<path fill="none" stroke="midnightblue" d="M268.308,-114.124C265.177,-113.378 262.023,-112.653 259,-112 172.003,-93.1968 149.112,-94.2625 62,-76 60.731,-75.734 59.4395,-75.4574 58.1359,-75.1735"/>
<polygon fill="midnightblue" stroke="midnightblue" points="58.6061,-71.6916 48.0806,-72.9019 57.0635,-78.5195 58.6061,-71.6916"/>
</g>
<!-- Node10 -->
<g id="node10" class="node"><title>Node10</title>
<g id="a_node10"><a xlink:href="a04526.html" target="_top" xlink:title=" ">
<polygon fill="white" stroke="black" points="255,-56.5 255,-75.5 329,-75.5 329,-56.5 255,-56.5"/>
<text text-anchor="middle" x="292" y="-63.5" font-family="Helvetica,sans-Serif" font-size="10.00">linkQueue.hh</text>
</a>
</g>
</g>
<!-- Node9&#45;&gt;Node10 -->
<g id="edge10" class="edge"><title>Node9&#45;&gt;Node10</title>
<path fill="none" stroke="midnightblue" d="M289.338,-112.083C287.452,-105.006 286.451,-94.8611 286.576,-85.9865"/>
<polygon fill="midnightblue" stroke="midnightblue" points="290.086,-85.9878 287.355,-75.7511 283.106,-85.4567 290.086,-85.9878"/>
</g>
<!-- Node12 -->
<g id="node12" class="node"><title>Node12</title>
<g id="a_node12"><a xlink:href="a04535.html" target="_top" xlink:title=" ">
<polygon fill="white" stroke="black" points="71,-56.5 71,-75.5 145,-75.5 145,-56.5 71,-56.5"/>
<text text-anchor="middle" x="108" y="-63.5" font-family="Helvetica,sans-Serif" font-size="10.00">seqQueue.hh</text>
</a>
</g>
</g>
<!-- Node9&#45;&gt;Node12 -->
<g id="edge13" class="edge"><title>Node9&#45;&gt;Node12</title>
<path fill="none" stroke="midnightblue" d="M268.26,-114.593C234.981,-105.707 178.468,-89.4918 142.13,-78.4846"/>
<polygon fill="midnightblue" stroke="midnightblue" points="143.038,-75.1024 132.451,-75.5285 140.993,-81.7971 143.038,-75.1024"/>
</g>
<!-- Node13 -->
<g id="node13" class="node"><title>Node13</title>
<g id="a_node13"><a xlink:href="a04553.html" target="_top" xlink:title=" ">
<polygon fill="white" stroke="black" points="163.5,-56.5 163.5,-75.5 236.5,-75.5 236.5,-56.5 163.5,-56.5"/>
<text text-anchor="middle" x="200" y="-63.5" font-family="Helvetica,sans-Serif" font-size="10.00">vecQueue.hh</text>
</a>
</g>
</g>
<!-- Node9&#45;&gt;Node13 -->
<g id="edge16" class="edge"><title>Node9&#45;&gt;Node13</title>
<path fill="none" stroke="midnightblue" d="M274.622,-112.324C257.978,-103.9 234.934,-90.9709 218.751,-81.0741"/>
<polygon fill="midnightblue" stroke="midnightblue" points="220.446,-78.0058 210.115,-75.6545 216.725,-83.9349 220.446,-78.0058"/>
</g>
<!-- Node10&#45;&gt;Node9 -->
<g id="edge11" class="edge"><title>Node10&#45;&gt;Node9</title>
<path fill="none" stroke="midnightblue" d="M297.617,-75.7511C299.538,-82.8579 300.556,-93.1357 300.422,-102.101"/>
<polygon fill="midnightblue" stroke="midnightblue" points="296.932,-101.848 299.671,-112.083 303.912,-102.374 296.932,-101.848"/>
</g>
<!-- Node10&#45;&gt;Node11 -->
<g id="edge12" class="edge"><title>Node10&#45;&gt;Node11</title>
<path fill="none" stroke="midnightblue" d="M292,-56.083C292,-49.0059 292,-38.8611 292,-29.9865"/>
<polygon fill="midnightblue" stroke="midnightblue" points="295.5,-29.751 292,-19.7511 288.5,-29.7511 295.5,-29.751"/>
</g>
<!-- Node12&#45;&gt;Node9 -->
<g id="edge14" class="edge"><title>Node12&#45;&gt;Node9</title>
<path fill="none" stroke="midnightblue" d="M142.572,-75.5164C176.265,-84.664 226.985,-99.2551 260.609,-109.436"/>
<polygon fill="midnightblue" stroke="midnightblue" points="259.872,-112.871 270.458,-112.444 261.916,-106.176 259.872,-112.871"/>
</g>
<!-- Node12&#45;&gt;Node11 -->
<g id="edge15" class="edge"><title>Node12&#45;&gt;Node11</title>
<path fill="none" stroke="midnightblue" d="M137.155,-56.4435C171.226,-46.4446 227.323,-29.9814 261.825,-19.8556"/>
<polygon fill="midnightblue" stroke="midnightblue" points="263.182,-23.1052 271.791,-16.9308 261.21,-16.3885 263.182,-23.1052"/>
</g>
<!-- Node13&#45;&gt;Node9 -->
<g id="edge17" class="edge"><title>Node13&#45;&gt;Node9</title>
<path fill="none" stroke="midnightblue" d="M220.336,-75.6545C236.968,-84.0705 260.013,-96.9986 276.208,-106.901"/>
<polygon fill="midnightblue" stroke="midnightblue" points="274.521,-109.974 284.851,-112.324 278.241,-104.044 274.521,-109.974"/>
</g>
<!-- Node13&#45;&gt;Node11 -->
<g id="edge18" class="edge"><title>Node13&#45;&gt;Node11</title>
<path fill="none" stroke="midnightblue" d="M214.781,-56.324C229.267,-47.8215 251.573,-34.7288 268.493,-24.7975"/>
<polygon fill="midnightblue" stroke="midnightblue" points="270.403,-27.735 277.255,-19.6545 266.859,-21.6981 270.403,-27.735"/>
</g>
<!-- Node14&#45;&gt;Node11 -->
<g id="edge21" class="edge"><title>Node14&#45;&gt;Node11</title>
<path fill="none" stroke="midnightblue" d="M449.046,-112.376C432.527,-99.5164 400.076,-74.8132 371,-56 353.551,-44.7096 333.152,-33.1288 317.454,-24.5432"/>
<polygon fill="midnightblue" stroke="midnightblue" points="318.815,-21.3001 308.355,-19.6138 315.481,-27.4549 318.815,-21.3001"/>
</g>
<!-- Node15 -->
<g id="node15" class="node"><title>Node15</title>
<g id="a_node15"><a xlink:title=" ">
<polygon fill="white" stroke="#bfbfbf" points="423.5,-56.5 423.5,-75.5 496.5,-75.5 496.5,-56.5 423.5,-56.5"/>
<text text-anchor="middle" x="460" y="-63.5" font-family="Helvetica,sans-Serif" font-size="10.00">initializer_list</text>
</a>
</g>
</g>
<!-- Node14&#45;&gt;Node15 -->
<g id="edge20" class="edge"><title>Node14&#45;&gt;Node15</title>
<path fill="none" stroke="midnightblue" d="M460,-112.083C460,-105.006 460,-94.8611 460,-85.9865"/>
<polygon fill="midnightblue" stroke="midnightblue" points="463.5,-85.751 460,-75.7511 456.5,-85.7511 463.5,-85.751"/>
</g>
<!-- Node16 -->
<g id="node16" class="node"><title>Node16</title>
<g id="a_node16"><a xlink:href="a04529.html" target="_top" xlink:title=" ">
<polygon fill="white" stroke="black" points="515,-56.5 515,-75.5 591,-75.5 591,-56.5 515,-56.5"/>
<text text-anchor="middle" x="553" y="-63.5" font-family="Helvetica,sans-Serif" font-size="10.00">linkStack.hpp</text>
</a>
</g>
</g>
<!-- Node14&#45;&gt;Node16 -->
<g id="edge22" class="edge"><title>Node14&#45;&gt;Node16</title>
<path fill="none" stroke="midnightblue" d="M469.827,-112.324C482.807,-103.703 505.512,-90.3643 524.026,-80.3855"/>
<polygon fill="midnightblue" stroke="midnightblue" points="525.777,-83.4194 532.985,-75.6545 522.508,-77.2295 525.777,-83.4194"/>
</g>
<!-- Node17 -->
<g id="node17" class="node"><title>Node17</title>
<g id="a_node17"><a xlink:href="a04538.html" target="_top" xlink:title=" ">
<polygon fill="white" stroke="black" points="609.5,-56.5 609.5,-75.5 686.5,-75.5 686.5,-56.5 609.5,-56.5"/>
<text text-anchor="middle" x="648" y="-63.5" font-family="Helvetica,sans-Serif" font-size="10.00">seqStack.hxx</text>
</a>
</g>
</g>
<!-- Node14&#45;&gt;Node17 -->
<g id="edge24" class="edge"><title>Node14&#45;&gt;Node17</title>
<path fill="none" stroke="midnightblue" d="M484.7,-112.444C514.85,-103.201 566.085,-88.4356 603.204,-78.2572"/>
<polygon fill="midnightblue" stroke="midnightblue" points="604.541,-81.5207 613.27,-75.5164 602.702,-74.7666 604.541,-81.5207"/>
</g>
<!-- Node16&#45;&gt;Node14 -->
<g id="edge23" class="edge"><title>Node16&#45;&gt;Node14</title>
<path fill="none" stroke="midnightblue" d="M543.205,-75.6545C530.241,-84.2672 507.542,-97.6052 489.02,-107.59"/>
<polygon fill="midnightblue" stroke="midnightblue" points="487.264,-104.558 480.057,-112.324 490.534,-110.748 487.264,-104.558"/>
</g>
<!-- Node17&#45;&gt;Node14 -->
<g id="edge25" class="edge"><title>Node17&#45;&gt;Node14</title>
<path fill="none" stroke="midnightblue" d="M623.201,-75.5868C590.344,-85.6567 532.569,-102.253 495.224,-112.35"/>
<polygon fill="midnightblue" stroke="midnightblue" points="494.025,-109.048 485.27,-115.015 495.835,-115.81 494.025,-109.048"/>
</g>
<!-- Node18 -->
<g id="node18" class="node"><title>Node18</title>
<g id="a_node18"><a xlink:title=" ">
<polygon fill="white" stroke="#bfbfbf" points="625.5,-0.5 625.5,-19.5 670.5,-19.5 670.5,-0.5 625.5,-0.5"/>
<text text-anchor="middle" x="648" y="-7.5" font-family="Helvetica,sans-Serif" font-size="10.00">climits</text>
</a>
</g>
</g>
<!-- Node17&#45;&gt;Node18 -->
<g id="edge26" class="edge"><title>Node17&#45;&gt;Node18</title>
<path fill="none" stroke="midnightblue" d="M648,-56.083C648,-49.0059 648,-38.8611 648,-29.9865"/>
<polygon fill="midnightblue" stroke="midnightblue" points="651.5,-29.751 648,-19.7511 644.5,-29.7511 651.5,-29.751"/>
</g>
</g>
</svg>
        <g id="navigator" transform="translate(0 0)" fill="#404254">
                <rect fill="#f2f5e9" fill-opacity="0.5" stroke="#606060" stroke-width=".5" x="0" y="0" width="60" height="60"/>
                <use id="zoomplus" xlink:href="#zoomPlus" x="17" y="9" onmousedown="handleZoom(evt,'in')"/>
                <use id="zoomminus" xlink:href="#zoomMin" x="42" y="9" onmousedown="handleZoom(evt,'out')"/>
                <use id="reset" xlink:href="#resetDef" x="30" y="36" onmousedown="handleReset()"/>
                <g id="arrowUp" xlink:href="#dirArrow" transform="translate(30 24)" onmousedown="handlePan(0,-1)">
                  <use xlink:href="#rim" fill="#404040">
                        <set attributeName="fill" to="#808080" begin="arrowUp.mouseover" end="arrowUp.mouseout"/>
                  </use>
                  <path fill="none" stroke="white" stroke-width="1.5" d="M0,-3.0v7 M-2.5,-0.5L0,-3.0L2.5,-0.5"/>
                </g>
                <g id="arrowRight" xlink:href="#dirArrow" transform="rotate(90) translate(36 -43)" onmousedown="handlePan(1,0)">
                  <use xlink:href="#rim" fill="#404040">
                        <set attributeName="fill" to="#808080" begin="arrowRight.mouseover" end="arrowRight.mouseout"/>
                  </use>
                  <path fill="none" stroke="white" stroke-width="1.5" d="M0,-3.0v7 M-2.5,-0.5L0,-3.0L2.5,-0.5"/>
                </g>
                <g id="arrowDown" xlink:href="#dirArrow" transform="rotate(180) translate(-30 -48)" onmousedown="handlePan(0,1)">
                  <use xlink:href="#rim" fill="#404040">
                        <set attributeName="fill" to="#808080" begin="arrowDown.mouseover" end="arrowDown.mouseout"/>
                  </use>
                  <path fill="none" stroke="white" stroke-width="1.5" d="M0,-3.0v7 M-2.5,-0.5L0,-3.0L2.5,-0.5"/>
                </g>
                <g id="arrowLeft" xlink:href="#dirArrow" transform="rotate(270) translate(-36 17)" onmousedown="handlePan(-1,0)">
                  <use xlink:href="#rim" fill="#404040">
                        <set attributeName="fill" to="#808080" begin="arrowLeft.mouseover" end="arrowLeft.mouseout"/>
                  </use>
                  <path fill="none" stroke="white" stroke-width="1.5" d="M0,-3.0v7 M-2.5,-0.5L0,-3.0L2.5,-0.5"/>
                </g>
        </g>
        <svg viewBox="0 0 15 15" width="100%" height="30px" preserveAspectRatio="xMaxYMin meet">
         <g id="arrow_out" transform="scale(0.3 0.3)">
          <a xlink:href="a04545_org.svg" target="_base">
           <rect id="button" ry="5" rx="5" y="6" x="6" height="38" width="38"
                fill="#f2f5e9" fill-opacity="0.5" stroke="#606060" stroke-width="1.0"/>
           <path id="arrow"
             d="M 11.500037,31.436501 C 11.940474,20.09759 22.043105,11.32322 32.158766,21.979434 L 37.068811,17.246167 C 37.068811,17.246167 37.088388,32 37.088388,32 L 22.160133,31.978069 C 22.160133,31.978069 26.997745,27.140456 26.997745,27.140456 C 18.528582,18.264221 13.291696,25.230495 11.500037,31.436501 z"
             style="fill:#404040;"/>
          </a>
         </g>
        </svg>
</svg>
