<?xml version="1.0" encoding="UTF-8" standalone="no"?>
<!DOCTYPE svg PUBLIC "-//W3C//DTD SVG 1.1//EN"
 "http://www.w3.org/Graphics/SVG/1.1/DTD/svg11.dtd">
<!-- Generated by graphviz version 2.38.0 (20140413.2041)
 -->
<!-- Title: main Pages: 1 -->
<svg width="220pt" height="256pt"
 viewBox="0.00 0.00 220.00 256.00" xmlns="http://www.w3.org/2000/svg" xmlns:xlink="http://www.w3.org/1999/xlink">
<g id="graph0" class="graph" transform="scale(1 1) rotate(0) translate(4 252)">
<title>main</title>
<polygon fill="white" stroke="none" points="-4,4 -4,-252 216,-252 216,4 -4,4"/>
<!-- Node1 -->
<g id="node1" class="node"><title>Node1</title>
<g id="a_node1"><a xlink:title=" ">
<polygon fill="#bfbfbf" stroke="black" points="0,-114.5 0,-133.5 38,-133.5 38,-114.5 0,-114.5"/>
<text text-anchor="middle" x="19" y="-121.5" font-family="Helvetica,sans-Serif" font-size="10.00">main</text>
</a>
</g>
</g>
<!-- Node2 -->
<g id="node2" class="node"><title>Node2</title>
<g id="a_node2"><a xlink:href="a05401.html#a40668a92e598befe619d6e1ffe5f2a52" target="_top" xlink:title="Create a Tree object.">
<polygon fill="white" stroke="black" points="74,-228.5 74,-247.5 212,-247.5 212,-228.5 74,-228.5"/>
<text text-anchor="middle" x="143" y="-235.5" font-family="Helvetica,sans-Serif" font-size="10.00">Tree::binaryTree::createTree</text>
</a>
</g>
</g>
<!-- Node1&#45;&gt;Node2 -->
<g id="edge1" class="edge"><title>Node1&#45;&gt;Node2</title>
<path fill="none" stroke="midnightblue" d="M22.7712,-133.732C28.7754,-153.026 44.8475,-196.225 74,-219 76.3092,-220.804 78.7801,-222.437 81.3624,-223.915"/>
<polygon fill="midnightblue" stroke="midnightblue" points="79.9753,-227.132 90.4981,-228.366 83.0413,-220.839 79.9753,-227.132"/>
</g>
<!-- Node3 -->
<g id="node3" class="node"><title>Node3</title>
<g id="a_node3"><a xlink:href="a04571.html#ad62496214d53bddebe5fdd6686996573" target="_top" xlink:title="保存测试数据的文件名">
<polygon fill="white" stroke="black" points="102,-190.5 102,-209.5 184,-209.5 184,-190.5 102,-190.5"/>
<text text-anchor="middle" x="143" y="-197.5" font-family="Helvetica,sans-Serif" font-size="10.00">data_file_name</text>
</a>
</g>
</g>
<!-- Node1&#45;&gt;Node3 -->
<g id="edge2" class="edge"><title>Node1&#45;&gt;Node3</title>
<path fill="none" stroke="midnightblue" d="M26.5046,-133.592C35.6344,-146.318 53.4525,-168.615 74,-181 79.5115,-184.322 85.6223,-187.081 91.8549,-189.367"/>
<polygon fill="midnightblue" stroke="midnightblue" points="91.0876,-192.799 101.68,-192.585 93.2662,-186.146 91.0876,-192.799"/>
</g>
<!-- Node4 -->
<g id="node4" class="node"><title>Node4</title>
<g id="a_node4"><a xlink:href="a05401.html#aadacd70978bd8a75adc9ef2c4f6f40e4" target="_top" xlink:title="删除左subtree">
<polygon fill="white" stroke="black" points="82.5,-152.5 82.5,-171.5 203.5,-171.5 203.5,-152.5 82.5,-152.5"/>
<text text-anchor="middle" x="143" y="-159.5" font-family="Helvetica,sans-Serif" font-size="10.00">Tree::binaryTree::delLeft</text>
</a>
</g>
</g>
<!-- Node1&#45;&gt;Node4 -->
<g id="edge3" class="edge"><title>Node1&#45;&gt;Node4</title>
<path fill="none" stroke="midnightblue" d="M38.3935,-130.81C48.789,-134.573 62.0571,-139.235 74,-143 81.2344,-145.281 88.9448,-147.569 96.4782,-149.728"/>
<polygon fill="midnightblue" stroke="midnightblue" points="95.6501,-153.131 106.225,-152.48 97.5523,-146.394 95.6501,-153.131"/>
</g>
<!-- Node5 -->
<g id="node5" class="node"><title>Node5</title>
<g id="a_node5"><a xlink:href="a05401.html#ad960b8028f5d1d8c9282160aede6f68b" target="_top" xlink:title="删除右subtree">
<polygon fill="white" stroke="black" points="79,-114.5 79,-133.5 207,-133.5 207,-114.5 79,-114.5"/>
<text text-anchor="middle" x="143" y="-121.5" font-family="Helvetica,sans-Serif" font-size="10.00">Tree::binaryTree::delRight</text>
</a>
</g>
</g>
<!-- Node1&#45;&gt;Node5 -->
<g id="edge4" class="edge"><title>Node1&#45;&gt;Node5</title>
<path fill="none" stroke="midnightblue" d="M38.0015,-124C46.5115,-124 57.2931,-124 68.672,-124"/>
<polygon fill="midnightblue" stroke="midnightblue" points="68.7833,-127.5 78.7833,-124 68.7833,-120.5 68.7833,-127.5"/>
</g>
<!-- Node6 -->
<g id="node6" class="node"><title>Node6</title>
<g id="a_node6"><a xlink:href="a04571.html#a5f8c7bacbf6d26c5c4602194edeed660" target="_top" xlink:title="生成一个文件，内容是一棵二叉树的层次遍历">
<polygon fill="white" stroke="black" points="106,-76.5 106,-95.5 180,-95.5 180,-76.5 106,-76.5"/>
<text text-anchor="middle" x="143" y="-83.5" font-family="Helvetica,sans-Serif" font-size="10.00">GenTreeData</text>
</a>
</g>
</g>
<!-- Node1&#45;&gt;Node6 -->
<g id="edge5" class="edge"><title>Node1&#45;&gt;Node6</title>
<path fill="none" stroke="midnightblue" d="M38.3935,-117.19C48.789,-113.427 62.0571,-108.765 74,-105 81.2344,-102.719 88.9448,-100.431 96.4782,-98.272"/>
<polygon fill="midnightblue" stroke="midnightblue" points="97.5523,-101.606 106.225,-95.5199 95.6501,-94.8691 97.5523,-101.606"/>
</g>
<!-- Node7 -->
<g id="node7" class="node"><title>Node7</title>
<g id="a_node7"><a xlink:href="a04571.html#a06a3cb0f33ca166e47143d103bf404f8" target="_top" xlink:title="(测试用)将二叉树类的多种方法的输出插到输出流">
<polygon fill="white" stroke="black" points="100,-38.5 100,-57.5 186,-57.5 186,-38.5 100,-38.5"/>
<text text-anchor="middle" x="143" y="-45.5" font-family="Helvetica,sans-Serif" font-size="10.00">print_test_result</text>
</a>
</g>
</g>
<!-- Node1&#45;&gt;Node7 -->
<g id="edge6" class="edge"><title>Node1&#45;&gt;Node7</title>
<path fill="none" stroke="midnightblue" d="M26.5046,-114.408C35.6344,-101.682 53.4525,-79.3851 74,-67 79.044,-63.9597 84.59,-61.3913 90.2718,-59.2249"/>
<polygon fill="midnightblue" stroke="midnightblue" points="91.5603,-62.4836 99.8975,-55.946 89.3031,-55.8574 91.5603,-62.4836"/>
</g>
<!-- Node8 -->
<g id="node8" class="node"><title>Node8</title>
<g id="a_node8"><a xlink:href="a05401.html#a81357f9d197b142b8126579ce51fab17" target="_top" xlink:title="交换左右子树">
<polygon fill="white" stroke="black" points="83,-0.5 83,-19.5 203,-19.5 203,-0.5 83,-0.5"/>
<text text-anchor="middle" x="143" y="-7.5" font-family="Helvetica,sans-Serif" font-size="10.00">Tree::binaryTree::swaplr</text>
</a>
</g>
</g>
<!-- Node1&#45;&gt;Node8 -->
<g id="edge7" class="edge"><title>Node1&#45;&gt;Node8</title>
<path fill="none" stroke="midnightblue" d="M22.7712,-114.268C28.7754,-94.9741 44.8475,-51.7749 74,-29 76.3092,-27.196 78.7801,-25.5632 81.3624,-24.0854"/>
<polygon fill="midnightblue" stroke="midnightblue" points="83.0413,-27.1608 90.4981,-19.6345 79.9753,-20.8679 83.0413,-27.1608"/>
</g>
</g>
</svg>
