<?xml version="1.0" encoding="UTF-8" standalone="no"?>
<!DOCTYPE svg PUBLIC "-//W3C//DTD SVG 1.1//EN"
 "http://www.w3.org/Graphics/SVG/1.1/DTD/svg11.dtd">
<!-- Generated by graphviz version 2.38.0 (20140413.2041)
 -->
<!-- Title: main Pages: 1 -->
<svg width="549pt" height="446pt"
 viewBox="0.00 0.00 549.00 446.00" xmlns="http://www.w3.org/2000/svg" xmlns:xlink="http://www.w3.org/1999/xlink">
<g id="graph0" class="graph" transform="scale(1 1) rotate(0) translate(4 442)">
<title>main</title>
<polygon fill="white" stroke="none" points="-4,4 -4,-442 545,-442 545,4 -4,4"/>
<!-- Node1 -->
<g id="node1" class="node"><title>Node1</title>
<g id="a_node1"><a xlink:title="二叉链表实现的二叉树类(binaryTree)的测试例程">
<polygon fill="#bfbfbf" stroke="black" points="0,-266.5 0,-285.5 38,-285.5 38,-266.5 0,-266.5"/>
<text text-anchor="middle" x="19" y="-273.5" font-family="Helvetica,sans-Serif" font-size="10.00">main</text>
</a>
</g>
</g>
<!-- Node2 -->
<g id="node2" class="node"><title>Node2</title>
<g id="a_node2"><a xlink:href="a04565.html#a26d758d8b5cf8ccd7a4c3b68b3b9d851" target="_top" xlink:title="保存测试数据的文件名">
<polygon fill="white" stroke="black" points="93.5,-323.5 93.5,-342.5 175.5,-342.5 175.5,-323.5 93.5,-323.5"/>
<text text-anchor="middle" x="134.5" y="-330.5" font-family="Helvetica,sans-Serif" font-size="10.00">data_file_name</text>
</a>
</g>
</g>
<!-- Node1&#45;&gt;Node2 -->
<g id="edge1" class="edge"><title>Node1&#45;&gt;Node2</title>
<path fill="none" stroke="midnightblue" d="M31.357,-285.549C41.8602,-293.989 58.1902,-306.144 74,-314 78.3821,-316.177 83.0681,-318.178 87.8146,-319.995"/>
<polygon fill="midnightblue" stroke="midnightblue" points="86.97,-323.41 97.5647,-323.468 89.319,-316.816 86.97,-323.41"/>
</g>
<!-- Node3 -->
<g id="node3" class="node"><title>Node3</title>
<g id="a_node3"><a xlink:href="a05401.html#aadacd70978bd8a75adc9ef2c4f6f40e4" target="_top" xlink:title="删除左subtree">
<polygon fill="white" stroke="black" points="74,-285.5 74,-304.5 195,-304.5 195,-285.5 74,-285.5"/>
<text text-anchor="middle" x="134.5" y="-292.5" font-family="Helvetica,sans-Serif" font-size="10.00">Tree::binaryTree::delLeft</text>
</a>
</g>
</g>
<!-- Node1&#45;&gt;Node3 -->
<g id="edge2" class="edge"><title>Node1&#45;&gt;Node3</title>
<path fill="none" stroke="midnightblue" d="M38.2357,-279.053C46.2136,-280.388 56.1142,-282.046 66.488,-283.782"/>
<polygon fill="midnightblue" stroke="midnightblue" points="66.0911,-287.264 76.5318,-285.463 67.2469,-280.36 66.0911,-287.264"/>
</g>
<!-- Node4 -->
<g id="node4" class="node"><title>Node4</title>
<g id="a_node4"><a xlink:href="a04583.html#a2bcf1ea574062d56ef2517d84ae446be" target="_top" xlink:title="生成一个文件，内容是一棵二叉树的层次遍历">
<polygon fill="white" stroke="black" points="85.5,-247.5 85.5,-266.5 183.5,-266.5 183.5,-247.5 85.5,-247.5"/>
<text text-anchor="middle" x="134.5" y="-254.5" font-family="Helvetica,sans-Serif" font-size="10.00">Tree::GenTreeData</text>
</a>
</g>
</g>
<!-- Node1&#45;&gt;Node4 -->
<g id="edge3" class="edge"><title>Node1&#45;&gt;Node4</title>
<path fill="none" stroke="midnightblue" d="M38.2357,-272.947C48.4225,-271.242 61.7441,-269.012 75.183,-266.762"/>
<polygon fill="midnightblue" stroke="midnightblue" points="76.1477,-270.15 85.4326,-265.047 74.992,-263.246 76.1477,-270.15"/>
</g>
<!-- Node5 -->
<g id="node5" class="node"><title>Node5</title>
<g id="a_node5"><a xlink:href="a04583.html#a2e5a25aaeed192affbca048f5589bdbf" target="_top" xlink:title="(测试用)将一棵二叉树的遍历结果插到输出流">
<polygon fill="white" stroke="black" points="79,-209.5 79,-228.5 190,-228.5 190,-209.5 79,-209.5"/>
<text text-anchor="middle" x="134.5" y="-216.5" font-family="Helvetica,sans-Serif" font-size="10.00">Tree::print_test_result</text>
</a>
</g>
</g>
<!-- Node1&#45;&gt;Node5 -->
<g id="edge4" class="edge"><title>Node1&#45;&gt;Node5</title>
<path fill="none" stroke="midnightblue" d="M31.357,-266.451C41.8602,-258.011 58.1902,-245.856 74,-238 78.3821,-235.823 83.0681,-233.822 87.8146,-232.005"/>
<polygon fill="midnightblue" stroke="midnightblue" points="89.319,-235.184 97.5647,-228.532 86.97,-228.59 89.319,-235.184"/>
</g>
<!-- Node6 -->
<g id="node6" class="node"><title>Node6</title>
<g id="a_node6"><a xlink:href="a05401.html#ac7389dcd912456fbc77ad350a1134732" target="_top" xlink:title="返回二叉树的高度(递归版本)">
<polygon fill="white" stroke="black" points="250.5,-418.5 250.5,-437.5 369.5,-437.5 369.5,-418.5 250.5,-418.5"/>
<text text-anchor="middle" x="310" y="-425.5" font-family="Helvetica,sans-Serif" font-size="10.00">Tree::binaryTree::height</text>
</a>
</g>
</g>
<!-- Node5&#45;&gt;Node6 -->
<g id="edge5" class="edge"><title>Node5&#45;&gt;Node6</title>
<path fill="none" stroke="midnightblue" d="M182.599,-228.597C187.239,-231.055 191.511,-234.137 195,-238 247.059,-295.636 176.952,-353.225 231,-409 234.001,-412.097 237.415,-414.722 241.1,-416.945"/>
<polygon fill="midnightblue" stroke="midnightblue" points="239.608,-420.112 250.12,-421.435 242.727,-413.846 239.608,-420.112"/>
</g>
<!-- Node7 -->
<g id="node7" class="node"><title>Node7</title>
<g id="a_node7"><a xlink:href="a05401.html#a18c50f432143bfe2feade7347f8ff770" target="_top" xlink:title="返回二叉树的高度(非递归版本)">
<polygon fill="white" stroke="black" points="239,-380.5 239,-399.5 381,-399.5 381,-380.5 239,-380.5"/>
<text text-anchor="middle" x="310" y="-387.5" font-family="Helvetica,sans-Serif" font-size="10.00">Tree::binaryTree::height_loop</text>
</a>
</g>
</g>
<!-- Node5&#45;&gt;Node7 -->
<g id="edge6" class="edge"><title>Node5&#45;&gt;Node7</title>
<path fill="none" stroke="midnightblue" d="M182.092,-228.646C186.882,-231.093 191.328,-234.16 195,-238 237.322,-282.26 187.151,-328.252 231,-371 232.46,-372.423 234.007,-373.745 235.627,-374.974"/>
<polygon fill="midnightblue" stroke="midnightblue" points="233.933,-378.042 244.269,-380.368 237.639,-372.104 233.933,-378.042"/>
</g>
<!-- Node8 -->
<g id="node8" class="node"><title>Node8</title>
<g id="a_node8"><a xlink:href="a05401.html#ac6003da876c500af081001c549a90433" target="_top" xlink:title="中序遍历(递归版本)">
<polygon fill="white" stroke="black" points="248,-342.5 248,-361.5 372,-361.5 372,-342.5 248,-342.5"/>
<text text-anchor="middle" x="310" y="-349.5" font-family="Helvetica,sans-Serif" font-size="10.00">Tree::binaryTree::inOrder</text>
</a>
</g>
</g>
<!-- Node5&#45;&gt;Node8 -->
<g id="edge7" class="edge"><title>Node5&#45;&gt;Node8</title>
<path fill="none" stroke="midnightblue" d="M180.838,-228.575C186.024,-231.033 190.908,-234.12 195,-238 227.764,-269.068 197.166,-303.1 231,-333 233.378,-335.101 235.949,-336.979 238.661,-338.656"/>
<polygon fill="midnightblue" stroke="midnightblue" points="237.248,-341.866 247.737,-343.36 240.469,-335.651 237.248,-341.866"/>
</g>
<!-- Node9 -->
<g id="node9" class="node"><title>Node9</title>
<g id="a_node9"><a xlink:href="a05401.html#a6cb786410ed6c0f61969a09b76f4da0c" target="_top" xlink:title="中序遍历(非递归版本)">
<polygon fill="white" stroke="black" points="236.5,-304.5 236.5,-323.5 383.5,-323.5 383.5,-304.5 236.5,-304.5"/>
<text text-anchor="middle" x="310" y="-311.5" font-family="Helvetica,sans-Serif" font-size="10.00">Tree::binaryTree::inOrder_loop</text>
</a>
</g>
</g>
<!-- Node5&#45;&gt;Node9 -->
<g id="edge8" class="edge"><title>Node5&#45;&gt;Node9</title>
<path fill="none" stroke="midnightblue" d="M178.293,-228.611C184.25,-231.073 190.025,-234.152 195,-238 218.702,-256.33 206.67,-277.512 231,-295 233.716,-296.952 236.609,-298.706 239.62,-300.28"/>
<polygon fill="midnightblue" stroke="midnightblue" points="238.402,-303.57 248.957,-304.486 241.277,-297.187 238.402,-303.57"/>
</g>
<!-- Node10 -->
<g id="node10" class="node"><title>Node10</title>
<g id="a_node10"><a xlink:href="a05401.html#a94dcc51623e366cb26fa5e543b19c6f8" target="_top" xlink:title="层次遍历">
<polygon fill="white" stroke="black" points="242.5,-266.5 242.5,-285.5 377.5,-285.5 377.5,-266.5 242.5,-266.5"/>
<text text-anchor="middle" x="310" y="-273.5" font-family="Helvetica,sans-Serif" font-size="10.00">Tree::binaryTree::levelOrder</text>
</a>
</g>
</g>
<!-- Node5&#45;&gt;Node10 -->
<g id="edge9" class="edge"><title>Node5&#45;&gt;Node10</title>
<path fill="none" stroke="midnightblue" d="M168.922,-228.532C177.529,-231.295 186.701,-234.517 195,-238 211.682,-245.001 214.083,-250.588 231,-257 237.72,-259.547 244.897,-261.839 252.075,-263.875"/>
<polygon fill="midnightblue" stroke="midnightblue" points="251.255,-267.278 261.821,-266.493 253.071,-260.518 251.255,-267.278"/>
</g>
<!-- Node11 -->
<g id="node11" class="node"><title>Node11</title>
<g id="a_node11"><a xlink:href="a05401.html#a29e131a4f32bf7ac33dad9cd60d5ca7b" target="_top" xlink:title="后序遍历(递归版本)">
<polygon fill="white" stroke="black" points="242.5,-228.5 242.5,-247.5 377.5,-247.5 377.5,-228.5 242.5,-228.5"/>
<text text-anchor="middle" x="310" y="-235.5" font-family="Helvetica,sans-Serif" font-size="10.00">Tree::binaryTree::postOrder</text>
</a>
</g>
</g>
<!-- Node5&#45;&gt;Node11 -->
<g id="edge10" class="edge"><title>Node5&#45;&gt;Node11</title>
<path fill="none" stroke="midnightblue" d="M190.396,-225.012C203.658,-226.464 218.072,-228.043 232.136,-229.583"/>
<polygon fill="midnightblue" stroke="midnightblue" points="231.971,-233.085 242.293,-230.695 232.733,-226.127 231.971,-233.085"/>
</g>
<!-- Node12 -->
<g id="node12" class="node"><title>Node12</title>
<g id="a_node12"><a xlink:href="a05401.html#a24d90fc12dae5213ddb8b21baf14cc66" target="_top" xlink:title="后序遍历(非递归版本)">
<polygon fill="white" stroke="black" points="231,-190.5 231,-209.5 389,-209.5 389,-190.5 231,-190.5"/>
<text text-anchor="middle" x="310" y="-197.5" font-family="Helvetica,sans-Serif" font-size="10.00">Tree::binaryTree::postOrder_loop</text>
</a>
</g>
</g>
<!-- Node5&#45;&gt;Node12 -->
<g id="edge11" class="edge"><title>Node5&#45;&gt;Node12</title>
<path fill="none" stroke="midnightblue" d="M190.396,-212.988C200.002,-211.936 210.212,-210.818 220.455,-209.697"/>
<polygon fill="midnightblue" stroke="midnightblue" points="221.129,-213.144 230.689,-208.576 220.367,-206.185 221.129,-213.144"/>
</g>
<!-- Node13 -->
<g id="node13" class="node"><title>Node13</title>
<g id="a_node13"><a xlink:href="a05401.html#aa0a3d9e4bc6035a9c914e5109d6688b7" target="_top" xlink:title="前序遍历(递归版本)">
<polygon fill="white" stroke="black" points="245,-152.5 245,-171.5 375,-171.5 375,-152.5 245,-152.5"/>
<text text-anchor="middle" x="310" y="-159.5" font-family="Helvetica,sans-Serif" font-size="10.00">Tree::binaryTree::preOrder</text>
</a>
</g>
</g>
<!-- Node5&#45;&gt;Node13 -->
<g id="edge12" class="edge"><title>Node5&#45;&gt;Node13</title>
<path fill="none" stroke="midnightblue" d="M157.184,-209.363C176.337,-201.094 205.16,-189.244 231,-181 238.741,-178.53 247.001,-176.2 255.143,-174.074"/>
<polygon fill="midnightblue" stroke="midnightblue" points="256.136,-177.433 264.972,-171.586 254.419,-170.647 256.136,-177.433"/>
</g>
<!-- Node14 -->
<g id="node14" class="node"><title>Node14</title>
<g id="a_node14"><a xlink:href="a05401.html#af9d71e1c10511c865aed5c553ac24b72" target="_top" xlink:title="前序遍历(非递归版本)">
<polygon fill="white" stroke="black" points="233.5,-114.5 233.5,-133.5 386.5,-133.5 386.5,-114.5 233.5,-114.5"/>
<text text-anchor="middle" x="310" y="-121.5" font-family="Helvetica,sans-Serif" font-size="10.00">Tree::binaryTree::preOrder_loop</text>
</a>
</g>
</g>
<!-- Node5&#45;&gt;Node14 -->
<g id="edge13" class="edge"><title>Node5&#45;&gt;Node14</title>
<path fill="none" stroke="midnightblue" d="M144.563,-209.472C160.492,-193.298 195.227,-160.526 231,-143 235.928,-140.586 241.186,-138.464 246.555,-136.603"/>
<polygon fill="midnightblue" stroke="midnightblue" points="247.811,-139.877 256.292,-133.527 245.702,-133.202 247.811,-139.877"/>
</g>
<!-- Node15 -->
<g id="node15" class="node"><title>Node15</title>
<g id="a_node15"><a xlink:href="a04583.html#ad484ac5e75e3c6057bed828f29a86776" target="_top" xlink:title="输出一棵二叉树">
<polygon fill="white" stroke="black" points="256.5,-76.5 256.5,-95.5 363.5,-95.5 363.5,-76.5 256.5,-76.5"/>
<text text-anchor="middle" x="310" y="-83.5" font-family="Helvetica,sans-Serif" font-size="10.00">Tree::printBinaryTree</text>
</a>
</g>
</g>
<!-- Node5&#45;&gt;Node15 -->
<g id="edge14" class="edge"><title>Node5&#45;&gt;Node15</title>
<path fill="none" stroke="midnightblue" d="M140.727,-209.269C153.189,-187.051 186.927,-132.399 231,-105 235.929,-101.936 241.318,-99.3658 246.887,-97.2102"/>
<polygon fill="midnightblue" stroke="midnightblue" points="248.054,-100.51 256.381,-93.9597 245.786,-93.8879 248.054,-100.51"/>
</g>
<!-- Node17 -->
<g id="node17" class="node"><title>Node17</title>
<g id="a_node17"><a xlink:href="a05401.html#af2559965baee16c7a496049bccf703af" target="_top" xlink:title="返回二叉树的结点数(递归版本)">
<polygon fill="white" stroke="black" points="255,-38.5 255,-57.5 365,-57.5 365,-38.5 255,-38.5"/>
<text text-anchor="middle" x="310" y="-45.5" font-family="Helvetica,sans-Serif" font-size="10.00">Tree::binaryTree::size</text>
</a>
</g>
</g>
<!-- Node5&#45;&gt;Node17 -->
<g id="edge16" class="edge"><title>Node5&#45;&gt;Node17</title>
<path fill="none" stroke="midnightblue" d="M138.631,-209.361C147.943,-182.293 178.154,-105.078 231,-67 235.452,-63.7918 240.381,-61.1209 245.533,-58.8981"/>
<polygon fill="midnightblue" stroke="midnightblue" points="246.852,-62.1414 254.994,-55.3616 244.401,-55.5845 246.852,-62.1414"/>
</g>
<!-- Node18 -->
<g id="node18" class="node"><title>Node18</title>
<g id="a_node18"><a xlink:href="a05401.html#afe73f325fd03d9281d0330b7a2d0c8a8" target="_top" xlink:title="返回二叉树的结点数(非递归版本)">
<polygon fill="white" stroke="black" points="243,-0.5 243,-19.5 377,-19.5 377,-0.5 243,-0.5"/>
<text text-anchor="middle" x="310" y="-7.5" font-family="Helvetica,sans-Serif" font-size="10.00">Tree::binaryTree::size_loop</text>
</a>
</g>
</g>
<!-- Node5&#45;&gt;Node18 -->
<g id="edge17" class="edge"><title>Node5&#45;&gt;Node18</title>
<path fill="none" stroke="midnightblue" d="M137.376,-209.307C143.978,-177.909 169.172,-78.1846 231,-29 233.1,-27.3297 235.325,-25.8032 237.644,-24.4083"/>
<polygon fill="midnightblue" stroke="midnightblue" points="239.666,-27.3065 246.994,-19.6545 236.494,-21.0666 239.666,-27.3065"/>
</g>
<!-- Node16 -->
<g id="node16" class="node"><title>Node16</title>
<g id="a_node16"><a xlink:href="a05401.html#ab0bcb9734e8955c6b1e982d584320f64" target="_top" xlink:title="获得数据为x的结点的右child">
<polygon fill="white" stroke="black" points="425,-76.5 425,-95.5 541,-95.5 541,-76.5 425,-76.5"/>
<text text-anchor="middle" x="483" y="-83.5" font-family="Helvetica,sans-Serif" font-size="10.00">Tree::binaryTree::rchild</text>
</a>
</g>
</g>
<!-- Node15&#45;&gt;Node16 -->
<g id="edge15" class="edge"><title>Node15&#45;&gt;Node16</title>
<path fill="none" stroke="midnightblue" d="M363.701,-86C379.71,-86 397.528,-86 414.376,-86"/>
<polygon fill="midnightblue" stroke="midnightblue" points="414.717,-89.5001 424.717,-86 414.717,-82.5001 414.717,-89.5001"/>
</g>
</g>
</svg>
