<?xml version="1.0" encoding="UTF-8" standalone="no"?>
<!DOCTYPE svg PUBLIC "-//W3C//DTD SVG 1.1//EN"
 "http://www.w3.org/Graphics/SVG/1.1/DTD/svg11.dtd">
<!-- Generated by graphviz version 2.38.0 (20140413.2041)
 -->
<!-- Title: include/seqStack.hxx Pages: 1 -->
<svg width="246pt" height="140pt"
 viewBox="0.00 0.00 246.00 140.00" xmlns="http://www.w3.org/2000/svg" xmlns:xlink="http://www.w3.org/1999/xlink">
<g id="graph0" class="graph" transform="scale(1 1) rotate(0) translate(4 136)">
<title>include/seqStack.hxx</title>
<polygon fill="white" stroke="none" points="-4,4 -4,-136 242,-136 242,4 -4,4"/>
<!-- Node1 -->
<g id="node1" class="node"><title>Node1</title>
<g id="a_node1"><a xlink:title=" ">
<polygon fill="#bfbfbf" stroke="black" points="94.5,-112.5 94.5,-131.5 204.5,-131.5 204.5,-112.5 94.5,-112.5"/>
<text text-anchor="middle" x="149.5" y="-119.5" font-family="Helvetica,sans-Serif" font-size="10.00">include/seqStack.hxx</text>
</a>
</g>
</g>
<!-- Node2 -->
<g id="node2" class="node"><title>Node2</title>
<g id="a_node2"><a xlink:href="a04541.html" target="_top" xlink:title=" ">
<polygon fill="white" stroke="black" points="124.5,-56.5 124.5,-75.5 174.5,-75.5 174.5,-56.5 124.5,-56.5"/>
<text text-anchor="middle" x="149.5" y="-63.5" font-family="Helvetica,sans-Serif" font-size="10.00">Stack.h</text>
</a>
</g>
</g>
<!-- Node1&#45;&gt;Node2 -->
<g id="edge1" class="edge"><title>Node1&#45;&gt;Node2</title>
<path fill="none" stroke="midnightblue" d="M144.334,-112.083C142.824,-104.927 142.394,-94.6353 143.042,-85.6911"/>
<polygon fill="midnightblue" stroke="midnightblue" points="146.515,-86.1262 144.369,-75.7511 139.577,-85.2002 146.515,-86.1262"/>
</g>
<!-- Node6 -->
<g id="node6" class="node"><title>Node6</title>
<g id="a_node6"><a xlink:title=" ">
<polygon fill="white" stroke="#bfbfbf" points="193,-56.5 193,-75.5 238,-75.5 238,-56.5 193,-56.5"/>
<text text-anchor="middle" x="215.5" y="-63.5" font-family="Helvetica,sans-Serif" font-size="10.00">climits</text>
</a>
</g>
</g>
<!-- Node1&#45;&gt;Node6 -->
<g id="edge7" class="edge"><title>Node1&#45;&gt;Node6</title>
<path fill="none" stroke="midnightblue" d="M160.104,-112.324C169.956,-104.263 184.851,-92.0765 196.715,-82.3695"/>
<polygon fill="midnightblue" stroke="midnightblue" points="199.18,-84.8752 204.703,-75.8339 194.747,-79.4575 199.18,-84.8752"/>
</g>
<!-- Node2&#45;&gt;Node1 -->
<g id="edge6" class="edge"><title>Node2&#45;&gt;Node1</title>
<path fill="none" stroke="midnightblue" d="M154.631,-75.7511C156.157,-82.8579 156.604,-93.1357 155.972,-102.101"/>
<polygon fill="midnightblue" stroke="midnightblue" points="152.493,-101.713 154.666,-112.083 159.434,-102.622 152.493,-101.713"/>
</g>
<!-- Node3 -->
<g id="node3" class="node"><title>Node3</title>
<g id="a_node3"><a xlink:title=" ">
<polygon fill="white" stroke="#bfbfbf" points="0,-0.5 0,-19.5 73,-19.5 73,-0.5 0,-0.5"/>
<text text-anchor="middle" x="36.5" y="-7.5" font-family="Helvetica,sans-Serif" font-size="10.00">initializer_list</text>
</a>
</g>
</g>
<!-- Node2&#45;&gt;Node3 -->
<g id="edge2" class="edge"><title>Node2&#45;&gt;Node3</title>
<path fill="none" stroke="midnightblue" d="M131.595,-56.4435C113.246,-47.6751 84.4946,-33.9355 63.4064,-23.8579"/>
<polygon fill="midnightblue" stroke="midnightblue" points="64.8532,-20.6703 54.3214,-19.5164 61.835,-26.9862 64.8532,-20.6703"/>
</g>
<!-- Node4 -->
<g id="node4" class="node"><title>Node4</title>
<g id="a_node4"><a xlink:title=" ">
<polygon fill="white" stroke="#bfbfbf" points="91.5,-0.5 91.5,-19.5 131.5,-19.5 131.5,-0.5 91.5,-0.5"/>
<text text-anchor="middle" x="111.5" y="-7.5" font-family="Helvetica,sans-Serif" font-size="10.00">utility</text>
</a>
</g>
</g>
<!-- Node2&#45;&gt;Node4 -->
<g id="edge3" class="edge"><title>Node2&#45;&gt;Node4</title>
<path fill="none" stroke="midnightblue" d="M143.225,-56.083C137.858,-48.4554 129.982,-37.2645 123.421,-27.9408"/>
<polygon fill="midnightblue" stroke="midnightblue" points="126.275,-25.9149 117.658,-19.7511 120.551,-29.9434 126.275,-25.9149"/>
</g>
<!-- Node5 -->
<g id="node5" class="node"><title>Node5</title>
<g id="a_node5"><a xlink:href="a04529.html" target="_top" xlink:title=" ">
<polygon fill="white" stroke="black" points="149.5,-0.5 149.5,-19.5 225.5,-19.5 225.5,-0.5 149.5,-0.5"/>
<text text-anchor="middle" x="187.5" y="-7.5" font-family="Helvetica,sans-Serif" font-size="10.00">linkStack.hpp</text>
</a>
</g>
</g>
<!-- Node2&#45;&gt;Node5 -->
<g id="edge4" class="edge"><title>Node2&#45;&gt;Node5</title>
<path fill="none" stroke="midnightblue" d="M150.609,-56.083C154.445,-48.2982 162.17,-36.8015 169.721,-27.3665"/>
<polygon fill="midnightblue" stroke="midnightblue" points="172.389,-29.6325 176.211,-19.7511 167.061,-25.0924 172.389,-29.6325"/>
</g>
<!-- Node5&#45;&gt;Node2 -->
<g id="edge5" class="edge"><title>Node5&#45;&gt;Node2</title>
<path fill="none" stroke="midnightblue" d="M186.473,-19.7511C182.693,-27.4827 174.994,-38.9673 167.44,-48.4314"/>
<polygon fill="midnightblue" stroke="midnightblue" points="164.747,-46.1953 160.941,-56.083 170.083,-50.7269 164.747,-46.1953"/>
</g>
</g>
</svg>
