<?xml version="1.0" encoding="UTF-8" standalone="no"?>
<!DOCTYPE svg PUBLIC "-//W3C//DTD SVG 1.1//EN"
 "http://www.w3.org/Graphics/SVG/1.1/DTD/svg11.dtd">
<!-- Generated by graphviz version 2.38.0 (20140413.2041)
 -->
<!-- Title: Tree::print_test_result Pages: 1 -->
<svg width="465pt" height="446pt"
 viewBox="0.00 0.00 465.00 446.00" xmlns="http://www.w3.org/2000/svg" xmlns:xlink="http://www.w3.org/1999/xlink">
<g id="graph0" class="graph" transform="scale(1 1) rotate(0) translate(4 442)">
<title>Tree::print_test_result</title>
<polygon fill="white" stroke="none" points="-4,4 -4,-442 461,-442 461,4 -4,4"/>
<!-- Node1 -->
<g id="node1" class="node"><title>Node1</title>
<g id="a_node1"><a xlink:title="(测试用)将一棵二叉树的遍历结果插到输出流">
<polygon fill="#bfbfbf" stroke="black" points="0,-209.5 0,-228.5 111,-228.5 111,-209.5 0,-209.5"/>
<text text-anchor="middle" x="55.5" y="-216.5" font-family="Helvetica,sans-Serif" font-size="10.00">Tree::print_test_result</text>
</a>
</g>
</g>
<!-- Node2 -->
<g id="node2" class="node"><title>Node2</title>
<g id="a_node2"><a xlink:href="a05401.html#ac7389dcd912456fbc77ad350a1134732" target="_top" xlink:title="返回二叉树的高度(递归版本)">
<polygon fill="white" stroke="black" points="166.5,-418.5 166.5,-437.5 285.5,-437.5 285.5,-418.5 166.5,-418.5"/>
<text text-anchor="middle" x="226" y="-425.5" font-family="Helvetica,sans-Serif" font-size="10.00">Tree::binaryTree::height</text>
</a>
</g>
</g>
<!-- Node1&#45;&gt;Node2 -->
<g id="edge1" class="edge"><title>Node1&#45;&gt;Node2</title>
<path fill="none" stroke="midnightblue" d="M58.1095,-228.682C63.8523,-260.046 86.3307,-359.677 147,-409 150.135,-411.548 153.559,-413.763 157.168,-415.687"/>
<polygon fill="midnightblue" stroke="midnightblue" points="155.905,-418.957 166.458,-419.896 158.793,-412.581 155.905,-418.957"/>
</g>
<!-- Node3 -->
<g id="node3" class="node"><title>Node3</title>
<g id="a_node3"><a xlink:href="a05401.html#a18c50f432143bfe2feade7347f8ff770" target="_top" xlink:title="返回二叉树的高度(非递归版本)">
<polygon fill="white" stroke="black" points="155,-380.5 155,-399.5 297,-399.5 297,-380.5 155,-380.5"/>
<text text-anchor="middle" x="226" y="-387.5" font-family="Helvetica,sans-Serif" font-size="10.00">Tree::binaryTree::height_loop</text>
</a>
</g>
</g>
<!-- Node1&#45;&gt;Node3 -->
<g id="edge2" class="edge"><title>Node1&#45;&gt;Node3</title>
<path fill="none" stroke="midnightblue" d="M59.311,-228.632C67.7241,-255.683 95.3754,-332.855 147,-371 149.634,-372.946 152.442,-374.696 155.37,-376.267"/>
<polygon fill="midnightblue" stroke="midnightblue" points="153.911,-379.449 164.457,-380.47 156.85,-373.096 153.911,-379.449"/>
</g>
<!-- Node4 -->
<g id="node4" class="node"><title>Node4</title>
<g id="a_node4"><a xlink:href="a05401.html#ac6003da876c500af081001c549a90433" target="_top" xlink:title="中序遍历(递归版本)">
<polygon fill="white" stroke="black" points="164,-342.5 164,-361.5 288,-361.5 288,-342.5 164,-342.5"/>
<text text-anchor="middle" x="226" y="-349.5" font-family="Helvetica,sans-Serif" font-size="10.00">Tree::binaryTree::inOrder</text>
</a>
</g>
</g>
<!-- Node1&#45;&gt;Node4 -->
<g id="edge3" class="edge"><title>Node1&#45;&gt;Node4</title>
<path fill="none" stroke="midnightblue" d="M61.3131,-228.733C72.8276,-250.956 104.22,-305.617 147,-333 150.338,-335.137 153.897,-337.033 157.587,-338.716"/>
<polygon fill="midnightblue" stroke="midnightblue" points="156.392,-342.008 166.976,-342.477 158.994,-335.51 156.392,-342.008"/>
</g>
<!-- Node5 -->
<g id="node5" class="node"><title>Node5</title>
<g id="a_node5"><a xlink:href="a05401.html#a6cb786410ed6c0f61969a09b76f4da0c" target="_top" xlink:title="中序遍历(非递归版本)">
<polygon fill="white" stroke="black" points="152.5,-304.5 152.5,-323.5 299.5,-323.5 299.5,-304.5 152.5,-304.5"/>
<text text-anchor="middle" x="226" y="-311.5" font-family="Helvetica,sans-Serif" font-size="10.00">Tree::binaryTree::inOrder_loop</text>
</a>
</g>
</g>
<!-- Node1&#45;&gt;Node5 -->
<g id="edge4" class="edge"><title>Node1&#45;&gt;Node5</title>
<path fill="none" stroke="midnightblue" d="M64.9799,-228.55C79.9114,-244.756 112.588,-277.575 147,-295 151.622,-297.34 156.546,-299.402 161.588,-301.216"/>
<polygon fill="midnightblue" stroke="midnightblue" points="160.786,-304.636 171.378,-304.408 162.956,-297.98 160.786,-304.636"/>
</g>
<!-- Node6 -->
<g id="node6" class="node"><title>Node6</title>
<g id="a_node6"><a xlink:href="a05401.html#a94dcc51623e366cb26fa5e543b19c6f8" target="_top" xlink:title="层次遍历">
<polygon fill="white" stroke="black" points="158.5,-266.5 158.5,-285.5 293.5,-285.5 293.5,-266.5 158.5,-266.5"/>
<text text-anchor="middle" x="226" y="-273.5" font-family="Helvetica,sans-Serif" font-size="10.00">Tree::binaryTree::levelOrder</text>
</a>
</g>
</g>
<!-- Node1&#45;&gt;Node6 -->
<g id="edge5" class="edge"><title>Node1&#45;&gt;Node6</title>
<path fill="none" stroke="midnightblue" d="M76.6357,-228.543C94.7475,-236.862 122.237,-248.842 147,-257 154.623,-259.511 162.763,-261.854 170.803,-263.977"/>
<polygon fill="midnightblue" stroke="midnightblue" points="169.962,-267.375 180.517,-266.455 171.692,-260.592 169.962,-267.375"/>
</g>
<!-- Node7 -->
<g id="node7" class="node"><title>Node7</title>
<g id="a_node7"><a xlink:href="a05401.html#a29e131a4f32bf7ac33dad9cd60d5ca7b" target="_top" xlink:title="后序遍历(递归版本)">
<polygon fill="white" stroke="black" points="158.5,-228.5 158.5,-247.5 293.5,-247.5 293.5,-228.5 158.5,-228.5"/>
<text text-anchor="middle" x="226" y="-235.5" font-family="Helvetica,sans-Serif" font-size="10.00">Tree::binaryTree::postOrder</text>
</a>
</g>
</g>
<!-- Node1&#45;&gt;Node7 -->
<g id="edge6" class="edge"><title>Node1&#45;&gt;Node7</title>
<path fill="none" stroke="midnightblue" d="M111.207,-225.169C123.036,-226.503 135.754,-227.937 148.251,-229.346"/>
<polygon fill="midnightblue" stroke="midnightblue" points="147.875,-232.825 158.204,-230.468 148.659,-225.87 147.875,-232.825"/>
</g>
<!-- Node8 -->
<g id="node8" class="node"><title>Node8</title>
<g id="a_node8"><a xlink:href="a05401.html#a24d90fc12dae5213ddb8b21baf14cc66" target="_top" xlink:title="后序遍历(非递归版本)">
<polygon fill="white" stroke="black" points="147,-190.5 147,-209.5 305,-209.5 305,-190.5 147,-190.5"/>
<text text-anchor="middle" x="226" y="-197.5" font-family="Helvetica,sans-Serif" font-size="10.00">Tree::binaryTree::postOrder_loop</text>
</a>
</g>
</g>
<!-- Node1&#45;&gt;Node8 -->
<g id="edge7" class="edge"><title>Node1&#45;&gt;Node8</title>
<path fill="none" stroke="midnightblue" d="M111.207,-212.831C119.357,-211.912 127.93,-210.946 136.561,-209.972"/>
<polygon fill="midnightblue" stroke="midnightblue" points="137.154,-213.428 146.698,-208.829 136.369,-206.472 137.154,-213.428"/>
</g>
<!-- Node9 -->
<g id="node9" class="node"><title>Node9</title>
<g id="a_node9"><a xlink:href="a05401.html#aa0a3d9e4bc6035a9c914e5109d6688b7" target="_top" xlink:title="前序遍历(递归版本)">
<polygon fill="white" stroke="black" points="161,-152.5 161,-171.5 291,-171.5 291,-152.5 161,-152.5"/>
<text text-anchor="middle" x="226" y="-159.5" font-family="Helvetica,sans-Serif" font-size="10.00">Tree::binaryTree::preOrder</text>
</a>
</g>
</g>
<!-- Node1&#45;&gt;Node9 -->
<g id="edge8" class="edge"><title>Node1&#45;&gt;Node9</title>
<path fill="none" stroke="midnightblue" d="M76.6357,-209.457C94.7475,-201.138 122.237,-189.158 147,-181 154.623,-178.489 162.763,-176.146 170.803,-174.023"/>
<polygon fill="midnightblue" stroke="midnightblue" points="171.692,-177.408 180.517,-171.545 169.962,-170.625 171.692,-177.408"/>
</g>
<!-- Node10 -->
<g id="node10" class="node"><title>Node10</title>
<g id="a_node10"><a xlink:href="a05401.html#af9d71e1c10511c865aed5c553ac24b72" target="_top" xlink:title="前序遍历(非递归版本)">
<polygon fill="white" stroke="black" points="149.5,-114.5 149.5,-133.5 302.5,-133.5 302.5,-114.5 149.5,-114.5"/>
<text text-anchor="middle" x="226" y="-121.5" font-family="Helvetica,sans-Serif" font-size="10.00">Tree::binaryTree::preOrder_loop</text>
</a>
</g>
</g>
<!-- Node1&#45;&gt;Node10 -->
<g id="edge9" class="edge"><title>Node1&#45;&gt;Node10</title>
<path fill="none" stroke="midnightblue" d="M64.9799,-209.45C79.9114,-193.244 112.588,-160.425 147,-143 151.622,-140.66 156.546,-138.598 161.588,-136.784"/>
<polygon fill="midnightblue" stroke="midnightblue" points="162.956,-140.02 171.378,-133.592 160.786,-133.364 162.956,-140.02"/>
</g>
<!-- Node11 -->
<g id="node11" class="node"><title>Node11</title>
<g id="a_node11"><a xlink:href="a04583.html#ad484ac5e75e3c6057bed828f29a86776" target="_top" xlink:title="输出一棵二叉树">
<polygon fill="white" stroke="black" points="172.5,-76.5 172.5,-95.5 279.5,-95.5 279.5,-76.5 172.5,-76.5"/>
<text text-anchor="middle" x="226" y="-83.5" font-family="Helvetica,sans-Serif" font-size="10.00">Tree::printBinaryTree</text>
</a>
</g>
</g>
<!-- Node1&#45;&gt;Node11 -->
<g id="edge10" class="edge"><title>Node1&#45;&gt;Node11</title>
<path fill="none" stroke="midnightblue" d="M61.3131,-209.267C72.8276,-187.044 104.22,-132.383 147,-105 151.888,-101.871 157.25,-99.2575 162.802,-97.0742"/>
<polygon fill="midnightblue" stroke="midnightblue" points="163.972,-100.373 172.274,-93.7912 161.679,-93.7589 163.972,-100.373"/>
</g>
<!-- Node13 -->
<g id="node13" class="node"><title>Node13</title>
<g id="a_node13"><a xlink:href="a05401.html#af2559965baee16c7a496049bccf703af" target="_top" xlink:title="返回二叉树的结点数(递归版本)">
<polygon fill="white" stroke="black" points="171,-38.5 171,-57.5 281,-57.5 281,-38.5 171,-38.5"/>
<text text-anchor="middle" x="226" y="-45.5" font-family="Helvetica,sans-Serif" font-size="10.00">Tree::binaryTree::size</text>
</a>
</g>
</g>
<!-- Node1&#45;&gt;Node13 -->
<g id="edge12" class="edge"><title>Node1&#45;&gt;Node13</title>
<path fill="none" stroke="midnightblue" d="M59.311,-209.368C67.7241,-182.317 95.3754,-105.145 147,-67 151.414,-63.7387 156.315,-61.0311 161.449,-58.7842"/>
<polygon fill="midnightblue" stroke="midnightblue" points="162.771,-62.0262 170.888,-55.2168 160.297,-55.4783 162.771,-62.0262"/>
</g>
<!-- Node14 -->
<g id="node14" class="node"><title>Node14</title>
<g id="a_node14"><a xlink:href="a05401.html#afe73f325fd03d9281d0330b7a2d0c8a8" target="_top" xlink:title="返回二叉树的结点数(非递归版本)">
<polygon fill="white" stroke="black" points="159,-0.5 159,-19.5 293,-19.5 293,-0.5 159,-0.5"/>
<text text-anchor="middle" x="226" y="-7.5" font-family="Helvetica,sans-Serif" font-size="10.00">Tree::binaryTree::size_loop</text>
</a>
</g>
</g>
<!-- Node1&#45;&gt;Node14 -->
<g id="edge13" class="edge"><title>Node1&#45;&gt;Node14</title>
<path fill="none" stroke="midnightblue" d="M58.1095,-209.318C63.8523,-177.954 86.3307,-78.3229 147,-29 149.082,-27.3075 151.292,-25.7621 153.598,-24.3513"/>
<polygon fill="midnightblue" stroke="midnightblue" points="155.626,-27.2436 162.91,-19.5501 152.418,-21.0219 155.626,-27.2436"/>
</g>
<!-- Node12 -->
<g id="node12" class="node"><title>Node12</title>
<g id="a_node12"><a xlink:href="a05401.html#ab0bcb9734e8955c6b1e982d584320f64" target="_top" xlink:title="获得数据为x的结点的右child">
<polygon fill="white" stroke="black" points="341,-76.5 341,-95.5 457,-95.5 457,-76.5 341,-76.5"/>
<text text-anchor="middle" x="399" y="-83.5" font-family="Helvetica,sans-Serif" font-size="10.00">Tree::binaryTree::rchild</text>
</a>
</g>
</g>
<!-- Node11&#45;&gt;Node12 -->
<g id="edge11" class="edge"><title>Node11&#45;&gt;Node12</title>
<path fill="none" stroke="midnightblue" d="M279.701,-86C295.71,-86 313.528,-86 330.376,-86"/>
<polygon fill="midnightblue" stroke="midnightblue" points="330.717,-89.5001 340.717,-86 330.717,-82.5001 330.717,-89.5001"/>
</g>
</g>
</svg>
