<?xml version="1.0" encoding="UTF-8" standalone="no"?>
<!DOCTYPE svg PUBLIC "-//W3C//DTD SVG 1.1//EN"
 "http://www.w3.org/Graphics/SVG/1.1/DTD/svg11.dtd">
<!-- Generated by graphviz version 2.38.0 (20140413.2041)
 -->
<!-- Title: Tree::binaryTree&lt; T, Comparator &gt; Pages: 1 -->
<svg width="181pt" height="639pt"
 viewBox="0.00 0.00 181.00 639.00" xmlns="http://www.w3.org/2000/svg" xmlns:xlink="http://www.w3.org/1999/xlink">
<g id="graph0" class="graph" transform="scale(1 1) rotate(0) translate(4 635)">
<title>Tree::binaryTree&lt; T, Comparator &gt;</title>
<polygon fill="white" stroke="none" points="-4,4 -4,-635 177,-635 177,4 -4,4"/>
<!-- Node1 -->
<g id="node1" class="node"><title>Node1</title>
<g id="a_node1"><a xlink:title="用二叉链表实现的二叉树类">
<polygon fill="#bfbfbf" stroke="black" points="0,-0.5 0,-387.5 132,-387.5 132,-0.5 0,-0.5"/>
<text text-anchor="start" x="8" y="-375.5" font-family="Helvetica,sans-Serif" font-size="10.00">Tree::binaryTree&lt; T,</text>
<text text-anchor="middle" x="66" y="-364.5" font-family="Helvetica,sans-Serif" font-size="10.00"> Comparator &gt;</text>
<polyline fill="none" stroke="black" points="0,-357.5 132,-357.5 "/>
<text text-anchor="start" x="8" y="-345.5" font-family="Helvetica,sans-Serif" font-size="10.00">+ const_reference</text>
<text text-anchor="start" x="8" y="-334.5" font-family="Helvetica,sans-Serif" font-size="10.00">&#45; is_less_than_</text>
<polyline fill="none" stroke="black" points="0,-327.5 132,-327.5 "/>
<text text-anchor="start" x="8" y="-315.5" font-family="Helvetica,sans-Serif" font-size="10.00">+ binaryTree()</text>
<text text-anchor="start" x="8" y="-304.5" font-family="Helvetica,sans-Serif" font-size="10.00">+ binaryTree()</text>
<text text-anchor="start" x="8" y="-293.5" font-family="Helvetica,sans-Serif" font-size="10.00">+ binaryTree()</text>
<text text-anchor="start" x="8" y="-282.5" font-family="Helvetica,sans-Serif" font-size="10.00">+ operator=()</text>
<text text-anchor="start" x="8" y="-271.5" font-family="Helvetica,sans-Serif" font-size="10.00">+ binaryTree()</text>
<text text-anchor="start" x="8" y="-260.5" font-family="Helvetica,sans-Serif" font-size="10.00">+ operator=()</text>
<text text-anchor="start" x="8" y="-249.5" font-family="Helvetica,sans-Serif" font-size="10.00">+ ~binaryTree()</text>
<text text-anchor="start" x="8" y="-238.5" font-family="Helvetica,sans-Serif" font-size="10.00">+ clear()</text>
<text text-anchor="start" x="8" y="-227.5" font-family="Helvetica,sans-Serif" font-size="10.00">+ empty()</text>
<text text-anchor="start" x="8" y="-216.5" font-family="Helvetica,sans-Serif" font-size="10.00">+ root()</text>
<text text-anchor="start" x="8" y="-205.5" font-family="Helvetica,sans-Serif" font-size="10.00">and 21 more...</text>
<text text-anchor="start" x="8" y="-194.5" font-family="Helvetica,sans-Serif" font-size="10.00">+ is_symmetrical_tree()</text>
<text text-anchor="start" x="8" y="-183.5" font-family="Helvetica,sans-Serif" font-size="10.00">&#45; find()</text>
<text text-anchor="start" x="8" y="-172.5" font-family="Helvetica,sans-Serif" font-size="10.00">&#45; clear()</text>
<text text-anchor="start" x="8" y="-161.5" font-family="Helvetica,sans-Serif" font-size="10.00">&#45; clone()</text>
<text text-anchor="start" x="8" y="-150.5" font-family="Helvetica,sans-Serif" font-size="10.00">&#45; preOrder()</text>
<text text-anchor="start" x="8" y="-139.5" font-family="Helvetica,sans-Serif" font-size="10.00">&#45; inOrder()</text>
<text text-anchor="start" x="8" y="-128.5" font-family="Helvetica,sans-Serif" font-size="10.00">&#45; postOrder()</text>
<text text-anchor="start" x="8" y="-117.5" font-family="Helvetica,sans-Serif" font-size="10.00">&#45; size()</text>
<text text-anchor="start" x="8" y="-106.5" font-family="Helvetica,sans-Serif" font-size="10.00">&#45; size_loop()</text>
<text text-anchor="start" x="8" y="-95.5" font-family="Helvetica,sans-Serif" font-size="10.00">&#45; height()</text>
<text text-anchor="start" x="8" y="-84.5" font-family="Helvetica,sans-Serif" font-size="10.00">&#45; height_loop()</text>
<text text-anchor="start" x="8" y="-73.5" font-family="Helvetica,sans-Serif" font-size="10.00">&#45; CountDegreeTwo()</text>
<text text-anchor="start" x="8" y="-62.5" font-family="Helvetica,sans-Serif" font-size="10.00">&#45; swaplr()</text>
<text text-anchor="start" x="8" y="-51.5" font-family="Helvetica,sans-Serif" font-size="10.00">&#45; is_symmetrical_subtree()</text>
<text text-anchor="start" x="8" y="-40.5" font-family="Helvetica,sans-Serif" font-size="10.00">&#45; value_type_less()</text>
<text text-anchor="start" x="8" y="-29.5" font-family="Helvetica,sans-Serif" font-size="10.00">&#45; value_type_equal()</text>
<text text-anchor="start" x="8" y="-18.5" font-family="Helvetica,sans-Serif" font-size="10.00">&#45; value_type_less_equal()</text>
<text text-anchor="start" x="8" y="-7.5" font-family="Helvetica,sans-Serif" font-size="10.00">&#45; is_equal_subtree()</text>
</a>
</g>
</g>
<!-- Node2 -->
<g id="node2" class="node"><title>Node2</title>
<g id="a_node2"><a xlink:href="a05405.html" target="_top" xlink:title="二叉链表的结点类">
<polygon fill="white" stroke="black" points="5,-435.5 5,-525.5 127,-525.5 127,-435.5 5,-435.5"/>
<text text-anchor="start" x="13" y="-513.5" font-family="Helvetica,sans-Serif" font-size="10.00">Tree::binaryTree&lt; T,</text>
<text text-anchor="middle" x="66" y="-502.5" font-family="Helvetica,sans-Serif" font-size="10.00"> Comparator &gt;::BinNode</text>
<polyline fill="none" stroke="black" points="5,-495.5 127,-495.5 "/>
<text text-anchor="middle" x="66" y="-483.5" font-family="Helvetica,sans-Serif" font-size="10.00"> </text>
<polyline fill="none" stroke="black" points="5,-476.5 127,-476.5 "/>
<text text-anchor="start" x="13" y="-464.5" font-family="Helvetica,sans-Serif" font-size="10.00">+ BinNode()</text>
<text text-anchor="start" x="13" y="-453.5" font-family="Helvetica,sans-Serif" font-size="10.00">+ BinNode()</text>
<text text-anchor="start" x="13" y="-442.5" font-family="Helvetica,sans-Serif" font-size="10.00">+ ~BinNode()</text>
</a>
</g>
</g>
<!-- Node2&#45;&gt;Node1 -->
<g id="edge1" class="edge"><title>Node2&#45;&gt;Node1</title>
<path fill="none" stroke="#404040" d="M66,-435.359C66,-424.724 66,-412.662 66,-399.742"/>
<polygon fill="none" stroke="#404040" points="66.0001,-399.652 62,-393.652 66,-387.652 70,-393.652 66.0001,-399.652"/>
<text text-anchor="middle" x="80" y="-409" font-family="Helvetica,sans-Serif" font-size="10.00"> &#45;root_</text>
</g>
<!-- Node2&#45;&gt;Node2 -->
<g id="edge2" class="edge"><title>Node2&#45;&gt;Node2</title>
<path fill="none" stroke="#404040" d="M127.279,-492.403C137.747,-490.776 145,-486.809 145,-480.5 145,-476.951 142.705,-474.144 138.834,-472.076"/>
<polygon fill="none" stroke="#404040" points="138.769,-472.057 131.871,-474.157 127.279,-468.597 134.177,-466.497 138.769,-472.057"/>
<text text-anchor="middle" x="159" y="-483.5" font-family="Helvetica,sans-Serif" font-size="10.00"> +right</text>
<text text-anchor="middle" x="159" y="-472.5" font-family="Helvetica,sans-Serif" font-size="10.00">+left</text>
</g>
<!-- Node3 -->
<g id="node3" class="node"><title>Node3</title>
<g id="a_node3"><a xlink:title=" ">
<polygon fill="white" stroke="#bfbfbf" points="51.5,-573.5 51.5,-630.5 80.5,-630.5 80.5,-573.5 51.5,-573.5"/>
<text text-anchor="middle" x="66" y="-618.5" font-family="Helvetica,sans-Serif" font-size="10.00">T</text>
<polyline fill="none" stroke="#bfbfbf" points="51.5,-611.5 80.5,-611.5 "/>
<text text-anchor="middle" x="66" y="-599.5" font-family="Helvetica,sans-Serif" font-size="10.00"> </text>
<polyline fill="none" stroke="#bfbfbf" points="51.5,-592.5 80.5,-592.5 "/>
<text text-anchor="middle" x="66" y="-580.5" font-family="Helvetica,sans-Serif" font-size="10.00"> </text>
</a>
</g>
</g>
<!-- Node3&#45;&gt;Node2 -->
<g id="edge3" class="edge"><title>Node3&#45;&gt;Node2</title>
<path fill="none" stroke="#404040" d="M66,-573.284C66,-562.735 66,-550.294 66,-538.035"/>
<polygon fill="none" stroke="#404040" points="66.0001,-537.912 62,-531.912 66,-525.912 70,-531.912 66.0001,-537.912"/>
<text text-anchor="middle" x="80" y="-547" font-family="Helvetica,sans-Serif" font-size="10.00"> +data</text>
</g>
</g>
</svg>
