<?xml version="1.0" encoding="UTF-8" standalone="no"?>
<!DOCTYPE svg PUBLIC "-//W3C//DTD SVG 1.1//EN"
 "http://www.w3.org/Graphics/SVG/1.1/DTD/svg11.dtd">
<!-- Generated by graphviz version 2.38.0 (20140413.2041)
 -->
<!-- Title: Tree::binaryTree&lt; T, Comparator &gt; Pages: 1 -->
<svg width="170pt" height="184pt"
 viewBox="0.00 0.00 170.00 184.00" xmlns="http://www.w3.org/2000/svg" xmlns:xlink="http://www.w3.org/1999/xlink">
<g id="graph0" class="graph" transform="scale(1 1) rotate(0) translate(4 180)">
<title>Tree::binaryTree&lt; T, Comparator &gt;</title>
<polygon fill="white" stroke="none" points="-4,4 -4,-180 166,-180 166,4 -4,4"/>
<!-- Node1 -->
<g id="node1" class="node"><title>Node1</title>
<g id="a_node1"><a xlink:title="用二叉链表实现的二叉树类">
<polygon fill="#bfbfbf" stroke="black" points="9,-0.5 9,-30.5 113,-30.5 113,-0.5 9,-0.5"/>
<text text-anchor="start" x="17" y="-18.5" font-family="Helvetica,sans-Serif" font-size="10.00">Tree::binaryTree&lt; T,</text>
<text text-anchor="middle" x="61" y="-7.5" font-family="Helvetica,sans-Serif" font-size="10.00"> Comparator &gt;</text>
</a>
</g>
</g>
<!-- Node2 -->
<g id="node2" class="node"><title>Node2</title>
<g id="a_node2"><a xlink:href="a05405.html" target="_top" xlink:title="二叉链表的结点类">
<polygon fill="white" stroke="black" points="0,-78.5 0,-108.5 122,-108.5 122,-78.5 0,-78.5"/>
<text text-anchor="start" x="8" y="-96.5" font-family="Helvetica,sans-Serif" font-size="10.00">Tree::binaryTree&lt; T,</text>
<text text-anchor="middle" x="61" y="-85.5" font-family="Helvetica,sans-Serif" font-size="10.00"> Comparator &gt;::BinNode</text>
</a>
</g>
</g>
<!-- Node2&#45;&gt;Node1 -->
<g id="edge1" class="edge"><title>Node2&#45;&gt;Node1</title>
<path fill="none" stroke="#9a32cd" stroke-dasharray="5,2" d="M61,-68.0898C61,-55.7565 61,-41.2237 61,-30.7309"/>
<polygon fill="#9a32cd" stroke="#9a32cd" points="57.5001,-68.2049 61,-78.205 64.5001,-68.205 57.5001,-68.2049"/>
<text text-anchor="middle" x="73.5" y="-52" font-family="Helvetica,sans-Serif" font-size="10.00"> root_</text>
</g>
<!-- Node2&#45;&gt;Node2 -->
<g id="edge2" class="edge"><title>Node2&#45;&gt;Node2</title>
<path fill="none" stroke="#9a32cd" stroke-dasharray="5,2" d="M132.486,-98.577C137.167,-97.3957 140,-95.7034 140,-93.5 140,-89.9746 132.747,-87.7575 122.279,-86.8486"/>
<polygon fill="#9a32cd" stroke="#9a32cd" points="131.628,-95.1678 122.279,-100.151 132.696,-102.086 131.628,-95.1678"/>
<text text-anchor="middle" x="151" y="-96.5" font-family="Helvetica,sans-Serif" font-size="10.00"> right</text>
<text text-anchor="middle" x="151" y="-85.5" font-family="Helvetica,sans-Serif" font-size="10.00">left</text>
</g>
<!-- Node3 -->
<g id="node3" class="node"><title>Node3</title>
<g id="a_node3"><a xlink:title=" ">
<polygon fill="white" stroke="#bfbfbf" points="46.5,-156.5 46.5,-175.5 75.5,-175.5 75.5,-156.5 46.5,-156.5"/>
<text text-anchor="middle" x="61" y="-163.5" font-family="Helvetica,sans-Serif" font-size="10.00">T</text>
</a>
</g>
</g>
<!-- Node3&#45;&gt;Node2 -->
<g id="edge3" class="edge"><title>Node3&#45;&gt;Node2</title>
<path fill="none" stroke="#9a32cd" stroke-dasharray="5,2" d="M61,-146.236C61,-134.408 61,-119.383 61,-108.576"/>
<polygon fill="#9a32cd" stroke="#9a32cd" points="57.5001,-146.355 61,-156.355 64.5001,-146.355 57.5001,-146.355"/>
<text text-anchor="middle" x="72" y="-130" font-family="Helvetica,sans-Serif" font-size="10.00"> data</text>
</g>
</g>
</svg>
