<?xml version="1.0" encoding="UTF-8" standalone="no"?>
<!DOCTYPE svg PUBLIC "-//W3C//DTD SVG 1.1//EN"
 "http://www.w3.org/Graphics/SVG/1.1/DTD/svg11.dtd">
<!-- Generated by graphviz version 2.38.0 (20140413.2041)
 -->
<!-- Title: Queue::Queue&lt; T &gt; Pages: 1 -->
<svg width="399pt" height="413pt"
 viewBox="0.00 0.00 398.50 413.00" xmlns="http://www.w3.org/2000/svg" xmlns:xlink="http://www.w3.org/1999/xlink">
<g id="graph0" class="graph" transform="scale(1 1) rotate(0) translate(4 409)">
<title>Queue::Queue&lt; T &gt;</title>
<polygon fill="white" stroke="none" points="-4,4 -4,-409 394.5,-409 394.5,4 -4,4"/>
<!-- Node1 -->
<g id="node1" class="node"><title>Node1</title>
<g id="a_node1"><a xlink:title="队列的抽象类">
<polygon fill="#bfbfbf" stroke="black" points="144.5,-303.5 144.5,-404.5 247.5,-404.5 247.5,-303.5 144.5,-303.5"/>
<text text-anchor="middle" x="196" y="-392.5" font-family="Helvetica,sans-Serif" font-size="10.00">Queue::Queue&lt; T &gt;</text>
<polyline fill="none" stroke="black" points="144.5,-385.5 247.5,-385.5 "/>
<text text-anchor="start" x="152.5" y="-373.5" font-family="Helvetica,sans-Serif" font-size="10.00">+ const_reference</text>
<polyline fill="none" stroke="black" points="144.5,-366.5 247.5,-366.5 "/>
<text text-anchor="start" x="152.5" y="-354.5" font-family="Helvetica,sans-Serif" font-size="10.00">+ isEmpty()</text>
<text text-anchor="start" x="152.5" y="-343.5" font-family="Helvetica,sans-Serif" font-size="10.00">+ enQueue()</text>
<text text-anchor="start" x="152.5" y="-332.5" font-family="Helvetica,sans-Serif" font-size="10.00">+ deQueue()</text>
<text text-anchor="start" x="152.5" y="-321.5" font-family="Helvetica,sans-Serif" font-size="10.00">+ getHead()</text>
<text text-anchor="start" x="152.5" y="-310.5" font-family="Helvetica,sans-Serif" font-size="10.00">+ ~Queue()</text>
</a>
</g>
</g>
<!-- Node2 -->
<g id="node2" class="node"><title>Node2</title>
<g id="a_node2"><a xlink:href="a05413.html" target="_top" xlink:title="链接队列类">
<polygon fill="white" stroke="black" points="0,-11.5 0,-255.5 118,-255.5 118,-11.5 0,-11.5"/>
<text text-anchor="middle" x="59" y="-243.5" font-family="Helvetica,sans-Serif" font-size="10.00">Queue::linkQueue&lt; T &gt;</text>
<polyline fill="none" stroke="black" points="0,-236.5 118,-236.5 "/>
<text text-anchor="start" x="8" y="-224.5" font-family="Helvetica,sans-Serif" font-size="10.00">+ const_reference</text>
<text text-anchor="start" x="8" y="-213.5" font-family="Helvetica,sans-Serif" font-size="10.00">&#45; _front</text>
<text text-anchor="start" x="8" y="-202.5" font-family="Helvetica,sans-Serif" font-size="10.00">&#45; _rear</text>
<text text-anchor="start" x="8" y="-191.5" font-family="Helvetica,sans-Serif" font-size="10.00">&#45; _size</text>
<polyline fill="none" stroke="black" points="0,-184.5 118,-184.5 "/>
<text text-anchor="start" x="8" y="-172.5" font-family="Helvetica,sans-Serif" font-size="10.00">+ linkQueue()</text>
<text text-anchor="start" x="8" y="-161.5" font-family="Helvetica,sans-Serif" font-size="10.00">+ ~linkQueue()</text>
<text text-anchor="start" x="8" y="-150.5" font-family="Helvetica,sans-Serif" font-size="10.00">+ isEmpty()</text>
<text text-anchor="start" x="8" y="-139.5" font-family="Helvetica,sans-Serif" font-size="10.00">+ enQueue()</text>
<text text-anchor="start" x="8" y="-128.5" font-family="Helvetica,sans-Serif" font-size="10.00">+ deQueue()</text>
<text text-anchor="start" x="8" y="-117.5" font-family="Helvetica,sans-Serif" font-size="10.00">+ getHead()</text>
<text text-anchor="start" x="8" y="-106.5" font-family="Helvetica,sans-Serif" font-size="10.00">+ empty()</text>
<text text-anchor="start" x="8" y="-95.5" font-family="Helvetica,sans-Serif" font-size="10.00">+ size()</text>
<text text-anchor="start" x="8" y="-84.5" font-family="Helvetica,sans-Serif" font-size="10.00">+ front()</text>
<text text-anchor="start" x="8" y="-73.5" font-family="Helvetica,sans-Serif" font-size="10.00">+ front()</text>
<text text-anchor="start" x="8" y="-62.5" font-family="Helvetica,sans-Serif" font-size="10.00">+ back()</text>
<text text-anchor="start" x="8" y="-51.5" font-family="Helvetica,sans-Serif" font-size="10.00">+ back()</text>
<text text-anchor="start" x="8" y="-40.5" font-family="Helvetica,sans-Serif" font-size="10.00">+ push()</text>
<text text-anchor="start" x="8" y="-29.5" font-family="Helvetica,sans-Serif" font-size="10.00">+ push()</text>
<text text-anchor="start" x="8" y="-18.5" font-family="Helvetica,sans-Serif" font-size="10.00">+ pop()</text>
</a>
</g>
</g>
<!-- Node1&#45;&gt;Node2 -->
<g id="edge1" class="edge"><title>Node1&#45;&gt;Node2</title>
<path fill="none" stroke="#8b1a1a" d="M147.141,-295.331C140.068,-286.082 133.121,-276.442 127,-267 123.976,-262.335 120.98,-257.52 118.03,-252.611"/>
<polygon fill="none" stroke="#8b1a1a" points="144.469,-297.597 153.37,-303.344 149.996,-293.301 144.469,-297.597"/>
</g>
<!-- Node3 -->
<g id="node3" class="node"><title>Node3</title>
<g id="a_node3"><a xlink:href="a05433.html" target="_top" xlink:title="循环队列类">
<polygon fill="white" stroke="black" points="136.5,-0.5 136.5,-266.5 255.5,-266.5 255.5,-0.5 136.5,-0.5"/>
<text text-anchor="middle" x="196" y="-254.5" font-family="Helvetica,sans-Serif" font-size="10.00">Queue::seqQueue&lt; T &gt;</text>
<polyline fill="none" stroke="black" points="136.5,-247.5 255.5,-247.5 "/>
<text text-anchor="start" x="144.5" y="-235.5" font-family="Helvetica,sans-Serif" font-size="10.00">+ const_reference</text>
<text text-anchor="start" x="144.5" y="-224.5" font-family="Helvetica,sans-Serif" font-size="10.00">&#45; _elem</text>
<text text-anchor="start" x="144.5" y="-213.5" font-family="Helvetica,sans-Serif" font-size="10.00">&#45; _maxSize</text>
<text text-anchor="start" x="144.5" y="-202.5" font-family="Helvetica,sans-Serif" font-size="10.00">&#45; _front</text>
<text text-anchor="start" x="144.5" y="-191.5" font-family="Helvetica,sans-Serif" font-size="10.00">&#45; _rear</text>
<polyline fill="none" stroke="black" points="136.5,-184.5 255.5,-184.5 "/>
<text text-anchor="start" x="144.5" y="-172.5" font-family="Helvetica,sans-Serif" font-size="10.00">+ seqQueue()</text>
<text text-anchor="start" x="144.5" y="-161.5" font-family="Helvetica,sans-Serif" font-size="10.00">+ ~seqQueue()</text>
<text text-anchor="start" x="144.5" y="-150.5" font-family="Helvetica,sans-Serif" font-size="10.00">+ isEmpty()</text>
<text text-anchor="start" x="144.5" y="-139.5" font-family="Helvetica,sans-Serif" font-size="10.00">+ enQueue()</text>
<text text-anchor="start" x="144.5" y="-128.5" font-family="Helvetica,sans-Serif" font-size="10.00">+ deQueue()</text>
<text text-anchor="start" x="144.5" y="-117.5" font-family="Helvetica,sans-Serif" font-size="10.00">+ getHead()</text>
<text text-anchor="start" x="144.5" y="-106.5" font-family="Helvetica,sans-Serif" font-size="10.00">+ empty()</text>
<text text-anchor="start" x="144.5" y="-95.5" font-family="Helvetica,sans-Serif" font-size="10.00">+ size()</text>
<text text-anchor="start" x="144.5" y="-84.5" font-family="Helvetica,sans-Serif" font-size="10.00">+ front()</text>
<text text-anchor="start" x="144.5" y="-73.5" font-family="Helvetica,sans-Serif" font-size="10.00">+ front()</text>
<text text-anchor="start" x="144.5" y="-62.5" font-family="Helvetica,sans-Serif" font-size="10.00">+ back()</text>
<text text-anchor="start" x="144.5" y="-51.5" font-family="Helvetica,sans-Serif" font-size="10.00">+ back()</text>
<text text-anchor="start" x="144.5" y="-40.5" font-family="Helvetica,sans-Serif" font-size="10.00">+ push()</text>
<text text-anchor="start" x="144.5" y="-29.5" font-family="Helvetica,sans-Serif" font-size="10.00">+ push()</text>
<text text-anchor="start" x="144.5" y="-18.5" font-family="Helvetica,sans-Serif" font-size="10.00">+ pop()</text>
<text text-anchor="start" x="144.5" y="-7.5" font-family="Helvetica,sans-Serif" font-size="10.00">&#45; doubleSpace()</text>
</a>
</g>
</g>
<!-- Node1&#45;&gt;Node3 -->
<g id="edge2" class="edge"><title>Node1&#45;&gt;Node3</title>
<path fill="none" stroke="midnightblue" d="M196,-293.301C196,-284.784 196,-275.756 196,-266.501"/>
<polygon fill="none" stroke="midnightblue" points="192.5,-293.419 196,-303.419 199.5,-293.419 192.5,-293.419"/>
</g>
<!-- Node4 -->
<g id="node4" class="node"><title>Node4</title>
<g id="a_node4"><a xlink:href="a05453.html" target="_top" xlink:title="队头位置固定的队列类">
<polygon fill="white" stroke="black" points="273.5,-6 273.5,-261 390.5,-261 390.5,-6 273.5,-6"/>
<text text-anchor="middle" x="332" y="-249" font-family="Helvetica,sans-Serif" font-size="10.00">Queue::vecQueue&lt; T &gt;</text>
<polyline fill="none" stroke="black" points="273.5,-242 390.5,-242 "/>
<text text-anchor="start" x="281.5" y="-230" font-family="Helvetica,sans-Serif" font-size="10.00">+ const_reference</text>
<text text-anchor="start" x="281.5" y="-219" font-family="Helvetica,sans-Serif" font-size="10.00">&#45; _maxSize</text>
<text text-anchor="start" x="281.5" y="-208" font-family="Helvetica,sans-Serif" font-size="10.00">&#45; _data</text>
<text text-anchor="start" x="281.5" y="-197" font-family="Helvetica,sans-Serif" font-size="10.00">&#45; _rear</text>
<polyline fill="none" stroke="black" points="273.5,-190 390.5,-190 "/>
<text text-anchor="start" x="281.5" y="-178" font-family="Helvetica,sans-Serif" font-size="10.00">+ vecQueue()</text>
<text text-anchor="start" x="281.5" y="-167" font-family="Helvetica,sans-Serif" font-size="10.00">+ ~vecQueue()</text>
<text text-anchor="start" x="281.5" y="-156" font-family="Helvetica,sans-Serif" font-size="10.00">+ isEmpty()</text>
<text text-anchor="start" x="281.5" y="-145" font-family="Helvetica,sans-Serif" font-size="10.00">+ enQueue()</text>
<text text-anchor="start" x="281.5" y="-134" font-family="Helvetica,sans-Serif" font-size="10.00">+ deQueue()</text>
<text text-anchor="start" x="281.5" y="-123" font-family="Helvetica,sans-Serif" font-size="10.00">+ getHead()</text>
<text text-anchor="start" x="281.5" y="-112" font-family="Helvetica,sans-Serif" font-size="10.00">+ empty()</text>
<text text-anchor="start" x="281.5" y="-101" font-family="Helvetica,sans-Serif" font-size="10.00">+ size()</text>
<text text-anchor="start" x="281.5" y="-90" font-family="Helvetica,sans-Serif" font-size="10.00">+ front()</text>
<text text-anchor="start" x="281.5" y="-79" font-family="Helvetica,sans-Serif" font-size="10.00">+ front()</text>
<text text-anchor="start" x="281.5" y="-68" font-family="Helvetica,sans-Serif" font-size="10.00">+ back()</text>
<text text-anchor="start" x="281.5" y="-57" font-family="Helvetica,sans-Serif" font-size="10.00">+ back()</text>
<text text-anchor="start" x="281.5" y="-46" font-family="Helvetica,sans-Serif" font-size="10.00">+ push()</text>
<text text-anchor="start" x="281.5" y="-35" font-family="Helvetica,sans-Serif" font-size="10.00">+ push()</text>
<text text-anchor="start" x="281.5" y="-24" font-family="Helvetica,sans-Serif" font-size="10.00">+ pop()</text>
<text text-anchor="start" x="281.5" y="-13" font-family="Helvetica,sans-Serif" font-size="10.00">&#45; doubleSpace()</text>
</a>
</g>
</g>
<!-- Node1&#45;&gt;Node4 -->
<g id="edge3" class="edge"><title>Node1&#45;&gt;Node4</title>
<path fill="none" stroke="midnightblue" d="M244.91,-295.363C251.975,-286.11 258.908,-276.46 265,-267 267.861,-262.557 270.694,-257.976 273.484,-253.308"/>
<polygon fill="none" stroke="midnightblue" points="242.054,-293.334 238.684,-303.379 247.582,-297.628 242.054,-293.334"/>
</g>
</g>
</svg>
