<?xml version="1.0" encoding="UTF-8" standalone="no"?>
<!DOCTYPE svg PUBLIC "-//W3C//DTD SVG 1.1//EN"
 "http://www.w3.org/Graphics/SVG/1.1/DTD/svg11.dtd">
<!-- Generated by graphviz version 2.38.0 (20140413.2041)
 -->
<!-- Title: Stack::seqStack&lt; T &gt; Pages: 1 -->
<svg width="121pt" height="347pt"
 viewBox="0.00 0.00 121.00 347.00" xmlns="http://www.w3.org/2000/svg" xmlns:xlink="http://www.w3.org/1999/xlink">
<g id="graph0" class="graph" transform="scale(1 1) rotate(0) translate(4 343)">
<title>Stack::seqStack&lt; T &gt;</title>
<polygon fill="white" stroke="none" points="-4,4 -4,-343 117,-343 117,4 -4,4"/>
<!-- Node1 -->
<g id="node1" class="node"><title>Node1</title>
<g id="a_node1"><a xlink:title=" ">
<polygon fill="#bfbfbf" stroke="black" points="0,-0.5 0,-200.5 113,-200.5 113,-0.5 0,-0.5"/>
<text text-anchor="middle" x="56.5" y="-188.5" font-family="Helvetica,sans-Serif" font-size="10.00">Stack::seqStack&lt; T &gt;</text>
<polyline fill="none" stroke="black" points="0,-181.5 113,-181.5 "/>
<text text-anchor="start" x="8" y="-169.5" font-family="Helvetica,sans-Serif" font-size="10.00">&#45; elem</text>
<text text-anchor="start" x="8" y="-158.5" font-family="Helvetica,sans-Serif" font-size="10.00">&#45; top_p</text>
<text text-anchor="start" x="8" y="-147.5" font-family="Helvetica,sans-Serif" font-size="10.00">&#45; maxSize</text>
<polyline fill="none" stroke="black" points="0,-140.5 113,-140.5 "/>
<text text-anchor="start" x="8" y="-128.5" font-family="Helvetica,sans-Serif" font-size="10.00">+ seqStack()</text>
<text text-anchor="start" x="8" y="-117.5" font-family="Helvetica,sans-Serif" font-size="10.00">+ seqStack()</text>
<text text-anchor="start" x="8" y="-106.5" font-family="Helvetica,sans-Serif" font-size="10.00">+ isEmpty()</text>
<text text-anchor="start" x="8" y="-95.5" font-family="Helvetica,sans-Serif" font-size="10.00">+ push()</text>
<text text-anchor="start" x="8" y="-84.5" font-family="Helvetica,sans-Serif" font-size="10.00">+ push()</text>
<text text-anchor="start" x="8" y="-73.5" font-family="Helvetica,sans-Serif" font-size="10.00">+ pop()</text>
<text text-anchor="start" x="8" y="-62.5" font-family="Helvetica,sans-Serif" font-size="10.00">+ top()</text>
<text text-anchor="start" x="8" y="-51.5" font-family="Helvetica,sans-Serif" font-size="10.00">+ size()</text>
<text text-anchor="start" x="8" y="-40.5" font-family="Helvetica,sans-Serif" font-size="10.00">+ elemMem()</text>
<text text-anchor="start" x="8" y="-29.5" font-family="Helvetica,sans-Serif" font-size="10.00">+ ~seqStack()</text>
<text text-anchor="start" x="8" y="-18.5" font-family="Helvetica,sans-Serif" font-size="10.00">+ empty()</text>
<text text-anchor="start" x="8" y="-7.5" font-family="Helvetica,sans-Serif" font-size="10.00">&#45; doubleSpace()</text>
</a>
</g>
</g>
<!-- Node2 -->
<g id="node2" class="node"><title>Node2</title>
<g id="a_node2"><a xlink:href="a05441.html" target="_top" xlink:title=" ">
<polygon fill="white" stroke="black" points="8,-237.5 8,-338.5 105,-338.5 105,-237.5 8,-237.5"/>
<text text-anchor="middle" x="56.5" y="-326.5" font-family="Helvetica,sans-Serif" font-size="10.00">Stack::Stack&lt; T &gt;</text>
<polyline fill="none" stroke="black" points="8,-319.5 105,-319.5 "/>
<text text-anchor="middle" x="56.5" y="-307.5" font-family="Helvetica,sans-Serif" font-size="10.00"> </text>
<polyline fill="none" stroke="black" points="8,-300.5 105,-300.5 "/>
<text text-anchor="start" x="16" y="-288.5" font-family="Helvetica,sans-Serif" font-size="10.00">+ isEmpty()</text>
<text text-anchor="start" x="16" y="-277.5" font-family="Helvetica,sans-Serif" font-size="10.00">+ push()</text>
<text text-anchor="start" x="16" y="-266.5" font-family="Helvetica,sans-Serif" font-size="10.00">+ pop()</text>
<text text-anchor="start" x="16" y="-255.5" font-family="Helvetica,sans-Serif" font-size="10.00">+ top()</text>
<text text-anchor="start" x="16" y="-244.5" font-family="Helvetica,sans-Serif" font-size="10.00">+ ~Stack()</text>
</a>
</g>
</g>
<!-- Node2&#45;&gt;Node1 -->
<g id="edge1" class="edge"><title>Node2&#45;&gt;Node1</title>
<path fill="none" stroke="midnightblue" d="M56.5,-227.169C56.5,-218.682 56.5,-209.772 56.5,-200.779"/>
<polygon fill="none" stroke="midnightblue" points="53.0001,-227.289 56.5,-237.289 60.0001,-227.289 53.0001,-227.289"/>
</g>
</g>
</svg>
