<?xml version="1.0" encoding="UTF-8" standalone="no"?>
<!DOCTYPE svg PUBLIC "-//W3C//DTD SVG 1.1//EN"
 "http://www.w3.org/Graphics/SVG/1.1/DTD/svg11.dtd">
<!-- Generated by graphviz version 2.38.0 (20140413.2041)
 -->
<!-- Title: Tree::TreeException Pages: 1 -->
<svg width="188pt" height="185pt"
 viewBox="0.00 0.00 188.00 185.00" xmlns="http://www.w3.org/2000/svg" xmlns:xlink="http://www.w3.org/1999/xlink">
<g id="graph0" class="graph" transform="scale(1 1) rotate(0) translate(4 181)">
<title>Tree::TreeException</title>
<polygon fill="white" stroke="none" points="-4,4 -4,-181 184,-181 184,4 -4,4"/>
<!-- Node1 -->
<g id="node1" class="node"><title>Node1</title>
<g id="a_node1"><a xlink:title=" ">
<polygon fill="#bfbfbf" stroke="black" points="17,-0.5 17,-19.5 121,-19.5 121,-0.5 17,-0.5"/>
<text text-anchor="middle" x="69" y="-7.5" font-family="Helvetica,sans-Serif" font-size="10.00">Tree::TreeException</text>
</a>
</g>
</g>
<!-- Node2 -->
<g id="node2" class="node"><title>Node2</title>
<g id="a_node2"><a xlink:title="STL class.">
<polygon fill="white" stroke="#bfbfbf" points="0,-89.5 0,-108.5 78,-108.5 78,-89.5 0,-89.5"/>
<text text-anchor="middle" x="39" y="-96.5" font-family="Helvetica,sans-Serif" font-size="10.00">std::exception</text>
</a>
</g>
</g>
<!-- Node2&#45;&gt;Node1 -->
<g id="edge1" class="edge"><title>Node2&#45;&gt;Node1</title>
<path fill="none" stroke="midnightblue" d="M45.3053,-79.7146C51.6708,-61.2547 61.2269,-33.542 66.0259,-19.6249"/>
<polygon fill="midnightblue" stroke="midnightblue" points="41.9374,-78.7453 41.9862,-89.34 48.555,-81.0273 41.9374,-78.7453"/>
</g>
<!-- Node3 -->
<g id="node3" class="node"><title>Node3</title>
<g id="a_node3"><a xlink:title="STL class.">
<polygon fill="white" stroke="#bfbfbf" points="96,-89.5 96,-108.5 156,-108.5 156,-89.5 96,-89.5"/>
<text text-anchor="middle" x="126" y="-96.5" font-family="Helvetica,sans-Serif" font-size="10.00">std::string</text>
</a>
</g>
</g>
<!-- Node3&#45;&gt;Node1 -->
<g id="edge2" class="edge"><title>Node3&#45;&gt;Node1</title>
<path fill="none" stroke="#9a32cd" stroke-dasharray="5,2" d="M114.692,-80.7399C102.607,-62.2955 83.9394,-33.8022 74.6508,-19.6249"/>
<polygon fill="#9a32cd" stroke="#9a32cd" points="111.918,-82.8935 120.326,-89.34 117.774,-79.0573 111.918,-82.8935"/>
<text text-anchor="middle" x="143.5" y="-63" font-family="Helvetica,sans-Serif" font-size="10.00"> _argId</text>
<text text-anchor="middle" x="143.5" y="-52" font-family="Helvetica,sans-Serif" font-size="10.00">_errorText</text>
<text text-anchor="middle" x="143.5" y="-41" font-family="Helvetica,sans-Serif" font-size="10.00">_typeDescription</text>
</g>
<!-- Node4 -->
<g id="node4" class="node"><title>Node4</title>
<g id="a_node4"><a xlink:title="STL class.">
<polygon fill="white" stroke="#bfbfbf" points="78.5,-146.5 78.5,-176.5 173.5,-176.5 173.5,-146.5 78.5,-146.5"/>
<text text-anchor="start" x="86.5" y="-164.5" font-family="Helvetica,sans-Serif" font-size="10.00">std::basic_string&lt;</text>
<text text-anchor="middle" x="126" y="-153.5" font-family="Helvetica,sans-Serif" font-size="10.00"> char &gt;</text>
</a>
</g>
</g>
<!-- Node4&#45;&gt;Node3 -->
<g id="edge3" class="edge"><title>Node4&#45;&gt;Node3</title>
<path fill="none" stroke="midnightblue" d="M126,-136.352C126,-126.513 126,-115.775 126,-108.54"/>
<polygon fill="midnightblue" stroke="midnightblue" points="122.5,-136.468 126,-146.468 129.5,-136.468 122.5,-136.468"/>
</g>
</g>
</svg>
