<?xml version="1.0" encoding="UTF-8" standalone="no"?>
<!DOCTYPE svg PUBLIC "-//W3C//DTD SVG 1.1//EN"
 "http://www.w3.org/Graphics/SVG/1.1/DTD/svg11.dtd">
<!-- Generated by graphviz version 2.38.0 (20140413.2041)
 -->
<!-- Title: Stack::linkStack&lt; T &gt; Pages: 1 -->
<svg width="272pt" height="397pt"
 viewBox="0.00 0.00 272.00 397.00" xmlns="http://www.w3.org/2000/svg" xmlns:xlink="http://www.w3.org/1999/xlink">
<g id="graph0" class="graph" transform="scale(1 1) rotate(0) translate(4 393)">
<title>Stack::linkStack&lt; T &gt;</title>
<polygon fill="white" stroke="none" points="-4,4 -4,-393 268,-393 268,4 -4,4"/>
<!-- Node1 -->
<g id="node1" class="node"><title>Node1</title>
<g id="a_node1"><a xlink:title=" ">
<polygon fill="#bfbfbf" stroke="black" points="29.5,-0.5 29.5,-134.5 141.5,-134.5 141.5,-0.5 29.5,-0.5"/>
<text text-anchor="middle" x="85.5" y="-122.5" font-family="Helvetica,sans-Serif" font-size="10.00">Stack::linkStack&lt; T &gt;</text>
<polyline fill="none" stroke="black" points="29.5,-115.5 141.5,-115.5 "/>
<text text-anchor="middle" x="85.5" y="-103.5" font-family="Helvetica,sans-Serif" font-size="10.00"> </text>
<polyline fill="none" stroke="black" points="29.5,-96.5 141.5,-96.5 "/>
<text text-anchor="start" x="37.5" y="-84.5" font-family="Helvetica,sans-Serif" font-size="10.00">+ linkStack()</text>
<text text-anchor="start" x="37.5" y="-73.5" font-family="Helvetica,sans-Serif" font-size="10.00">+ linkStack()</text>
<text text-anchor="start" x="37.5" y="-62.5" font-family="Helvetica,sans-Serif" font-size="10.00">+ isEmpty()</text>
<text text-anchor="start" x="37.5" y="-51.5" font-family="Helvetica,sans-Serif" font-size="10.00">+ push()</text>
<text text-anchor="start" x="37.5" y="-40.5" font-family="Helvetica,sans-Serif" font-size="10.00">+ push()</text>
<text text-anchor="start" x="37.5" y="-29.5" font-family="Helvetica,sans-Serif" font-size="10.00">+ pop()</text>
<text text-anchor="start" x="37.5" y="-18.5" font-family="Helvetica,sans-Serif" font-size="10.00">+ top()</text>
<text text-anchor="start" x="37.5" y="-7.5" font-family="Helvetica,sans-Serif" font-size="10.00">+ ~linkStack()</text>
</a>
</g>
</g>
<!-- Node2 -->
<g id="node2" class="node"><title>Node2</title>
<g id="a_node2"><a xlink:href="a05441.html" target="_top" xlink:title=" ">
<polygon fill="white" stroke="black" points="0,-182.5 0,-283.5 97,-283.5 97,-182.5 0,-182.5"/>
<text text-anchor="middle" x="48.5" y="-271.5" font-family="Helvetica,sans-Serif" font-size="10.00">Stack::Stack&lt; T &gt;</text>
<polyline fill="none" stroke="black" points="0,-264.5 97,-264.5 "/>
<text text-anchor="middle" x="48.5" y="-252.5" font-family="Helvetica,sans-Serif" font-size="10.00"> </text>
<polyline fill="none" stroke="black" points="0,-245.5 97,-245.5 "/>
<text text-anchor="start" x="8" y="-233.5" font-family="Helvetica,sans-Serif" font-size="10.00">+ isEmpty()</text>
<text text-anchor="start" x="8" y="-222.5" font-family="Helvetica,sans-Serif" font-size="10.00">+ push()</text>
<text text-anchor="start" x="8" y="-211.5" font-family="Helvetica,sans-Serif" font-size="10.00">+ pop()</text>
<text text-anchor="start" x="8" y="-200.5" font-family="Helvetica,sans-Serif" font-size="10.00">+ top()</text>
<text text-anchor="start" x="8" y="-189.5" font-family="Helvetica,sans-Serif" font-size="10.00">+ ~Stack()</text>
</a>
</g>
</g>
<!-- Node2&#45;&gt;Node1 -->
<g id="edge1" class="edge"><title>Node2&#45;&gt;Node1</title>
<path fill="none" stroke="midnightblue" d="M62.0684,-172.042C64.817,-159.896 67.7223,-147.058 70.5165,-134.711"/>
<polygon fill="none" stroke="midnightblue" points="58.5958,-171.53 59.8023,-182.056 65.4232,-173.075 58.5958,-171.53"/>
</g>
<!-- Node3 -->
<g id="node3" class="node"><title>Node3</title>
<g id="a_node3"><a xlink:href="a05425.html" target="_top" xlink:title=" ">
<polygon fill="white" stroke="black" points="115,-188 115,-278 218,-278 218,-188 115,-188"/>
<text text-anchor="start" x="123" y="-266" font-family="Helvetica,sans-Serif" font-size="10.00">Stack::linkStack&lt; T</text>
<text text-anchor="middle" x="166.5" y="-255" font-family="Helvetica,sans-Serif" font-size="10.00"> &gt;::node</text>
<polyline fill="none" stroke="black" points="115,-248 218,-248 "/>
<text text-anchor="middle" x="166.5" y="-236" font-family="Helvetica,sans-Serif" font-size="10.00"> </text>
<polyline fill="none" stroke="black" points="115,-229 218,-229 "/>
<text text-anchor="start" x="123" y="-217" font-family="Helvetica,sans-Serif" font-size="10.00">+ node()</text>
<text text-anchor="start" x="123" y="-206" font-family="Helvetica,sans-Serif" font-size="10.00">+ node()</text>
<text text-anchor="start" x="123" y="-195" font-family="Helvetica,sans-Serif" font-size="10.00">+ ~node()</text>
</a>
</g>
</g>
<!-- Node3&#45;&gt;Node1 -->
<g id="edge2" class="edge"><title>Node3&#45;&gt;Node1</title>
<path fill="none" stroke="#404040" d="M144.58,-187.755C138.121,-174.717 130.857,-160.054 123.69,-145.587"/>
<polygon fill="none" stroke="#404040" points="123.57,-145.345 117.322,-141.744 118.243,-134.592 124.491,-138.193 123.57,-145.345"/>
<text text-anchor="middle" x="146" y="-156" font-family="Helvetica,sans-Serif" font-size="10.00"> &#45;top_p</text>
</g>
<!-- Node3&#45;&gt;Node3 -->
<g id="edge3" class="edge"><title>Node3&#45;&gt;Node3</title>
<path fill="none" stroke="#404040" d="M218.025,-246.346C228.5,-244.892 236,-240.443 236,-233 236,-228.813 233.627,-225.574 229.686,-223.282"/>
<polygon fill="none" stroke="#404040" points="229.484,-223.219 222.566,-225.256 218.025,-219.654 224.943,-217.617 229.484,-223.219"/>
<text text-anchor="middle" x="250" y="-230.5" font-family="Helvetica,sans-Serif" font-size="10.00"> +next</text>
</g>
<!-- Node4 -->
<g id="node4" class="node"><title>Node4</title>
<g id="a_node4"><a xlink:title=" ">
<polygon fill="white" stroke="#bfbfbf" points="152,-331.5 152,-388.5 181,-388.5 181,-331.5 152,-331.5"/>
<text text-anchor="middle" x="166.5" y="-376.5" font-family="Helvetica,sans-Serif" font-size="10.00">T</text>
<polyline fill="none" stroke="#bfbfbf" points="152,-369.5 181,-369.5 "/>
<text text-anchor="middle" x="166.5" y="-357.5" font-family="Helvetica,sans-Serif" font-size="10.00"> </text>
<polyline fill="none" stroke="#bfbfbf" points="152,-350.5 181,-350.5 "/>
<text text-anchor="middle" x="166.5" y="-338.5" font-family="Helvetica,sans-Serif" font-size="10.00"> </text>
</a>
</g>
</g>
<!-- Node4&#45;&gt;Node3 -->
<g id="edge4" class="edge"><title>Node4&#45;&gt;Node3</title>
<path fill="none" stroke="#404040" d="M166.5,-331.258C166.5,-319.242 166.5,-304.713 166.5,-290.59"/>
<polygon fill="none" stroke="#404040" points="166.5,-290.356 162.5,-284.356 166.5,-278.356 170.5,-284.356 166.5,-290.356"/>
<text text-anchor="middle" x="180.5" y="-305" font-family="Helvetica,sans-Serif" font-size="10.00"> +data</text>
</g>
</g>
</svg>
