<?xml version="1.0" encoding="UTF-8" standalone="no"?>
<!DOCTYPE svg PUBLIC "-//W3C//DTD SVG 1.1//EN"
 "http://www.w3.org/Graphics/SVG/1.1/DTD/svg11.dtd">
<!-- Generated by graphviz version 2.38.0 (20140413.2041)
 -->
<!-- Title: Tree::binaryTree&lt; T, Comparator &gt;::BinNode Pages: 1 -->
<svg width="176pt" height="204pt"
 viewBox="0.00 0.00 176.00 204.00" xmlns="http://www.w3.org/2000/svg" xmlns:xlink="http://www.w3.org/1999/xlink">
<g id="graph0" class="graph" transform="scale(1 1) rotate(0) translate(4 200)">
<title>Tree::binaryTree&lt; T, Comparator &gt;::BinNode</title>
<polygon fill="white" stroke="none" points="-4,4 -4,-200 172,-200 172,4 -4,4"/>
<!-- Node1 -->
<g id="node1" class="node"><title>Node1</title>
<g id="a_node1"><a xlink:title="二叉链表的结点类">
<polygon fill="#bfbfbf" stroke="black" points="0,-0.5 0,-90.5 122,-90.5 122,-0.5 0,-0.5"/>
<text text-anchor="start" x="8" y="-78.5" font-family="Helvetica,sans-Serif" font-size="10.00">Tree::binaryTree&lt; T,</text>
<text text-anchor="middle" x="61" y="-67.5" font-family="Helvetica,sans-Serif" font-size="10.00"> Comparator &gt;::BinNode</text>
<polyline fill="none" stroke="black" points="0,-60.5 122,-60.5 "/>
<text text-anchor="middle" x="61" y="-48.5" font-family="Helvetica,sans-Serif" font-size="10.00"> </text>
<polyline fill="none" stroke="black" points="0,-41.5 122,-41.5 "/>
<text text-anchor="start" x="8" y="-29.5" font-family="Helvetica,sans-Serif" font-size="10.00">+ BinNode()</text>
<text text-anchor="start" x="8" y="-18.5" font-family="Helvetica,sans-Serif" font-size="10.00">+ BinNode()</text>
<text text-anchor="start" x="8" y="-7.5" font-family="Helvetica,sans-Serif" font-size="10.00">+ ~BinNode()</text>
</a>
</g>
</g>
<!-- Node1&#45;&gt;Node1 -->
<g id="edge1" class="edge"><title>Node1&#45;&gt;Node1</title>
<path fill="none" stroke="#404040" d="M122.279,-57.4025C132.747,-55.7761 140,-51.8086 140,-45.5 140,-41.9514 137.705,-39.1436 133.834,-37.0764"/>
<polygon fill="none" stroke="#404040" points="133.769,-37.057 126.871,-39.1574 122.279,-33.5975 129.177,-31.4971 133.769,-37.057"/>
<text text-anchor="middle" x="154" y="-48.5" font-family="Helvetica,sans-Serif" font-size="10.00"> +right</text>
<text text-anchor="middle" x="154" y="-37.5" font-family="Helvetica,sans-Serif" font-size="10.00">+left</text>
</g>
<!-- Node2 -->
<g id="node2" class="node"><title>Node2</title>
<g id="a_node2"><a xlink:title=" ">
<polygon fill="white" stroke="#bfbfbf" points="46.5,-138.5 46.5,-195.5 75.5,-195.5 75.5,-138.5 46.5,-138.5"/>
<text text-anchor="middle" x="61" y="-183.5" font-family="Helvetica,sans-Serif" font-size="10.00">T</text>
<polyline fill="none" stroke="#bfbfbf" points="46.5,-176.5 75.5,-176.5 "/>
<text text-anchor="middle" x="61" y="-164.5" font-family="Helvetica,sans-Serif" font-size="10.00"> </text>
<polyline fill="none" stroke="#bfbfbf" points="46.5,-157.5 75.5,-157.5 "/>
<text text-anchor="middle" x="61" y="-145.5" font-family="Helvetica,sans-Serif" font-size="10.00"> </text>
</a>
</g>
</g>
<!-- Node2&#45;&gt;Node1 -->
<g id="edge2" class="edge"><title>Node2&#45;&gt;Node1</title>
<path fill="none" stroke="#404040" d="M61,-138.284C61,-127.735 61,-115.294 61,-103.035"/>
<polygon fill="none" stroke="#404040" points="61.0001,-102.912 57,-96.9125 61,-90.9125 65,-96.9124 61.0001,-102.912"/>
<text text-anchor="middle" x="75" y="-112" font-family="Helvetica,sans-Serif" font-size="10.00"> +data</text>
</g>
</g>
</svg>
