<?xml version="1.0" encoding="UTF-8" standalone="no"?>
<!DOCTYPE svg PUBLIC "-//W3C//DTD SVG 1.1//EN"
 "http://www.w3.org/Graphics/SVG/1.1/DTD/svg11.dtd">
<!-- Generated by graphviz version 2.38.0 (20140413.2041)
 -->
<!-- Title: Queue::seqQueue::push Pages: 1 -->
<svg width="404pt" height="39pt"
 viewBox="0.00 0.00 404.00 39.00" xmlns="http://www.w3.org/2000/svg" xmlns:xlink="http://www.w3.org/1999/xlink">
<g id="graph0" class="graph" transform="scale(1 1) rotate(0) translate(4 35)">
<title>Queue::seqQueue::push</title>
<polygon fill="white" stroke="none" points="-4,4 -4,-35 400,-35 400,4 -4,4"/>
<!-- Node1 -->
<g id="node1" class="node"><title>Node1</title>
<g id="a_node1"><a xlink:title="Inserts a new element at the end of the queue, after its current last element.">
<polygon fill="#bfbfbf" stroke="black" points="274,-6 274,-25 396,-25 396,-6 274,-6"/>
<text text-anchor="middle" x="335" y="-13" font-family="Helvetica,sans-Serif" font-size="10.00">Queue::seqQueue::push</text>
</a>
</g>
</g>
<!-- Node2 -->
<g id="node2" class="node"><title>Node2</title>
<g id="a_node2"><a xlink:href="a05401.html#afee39e46bd46f7178347eaae0581063b" target="_top" xlink:title="是否满二叉树">
<polygon fill="white" stroke="black" points="122,-0.5 122,-30.5 238,-30.5 238,-0.5 122,-0.5"/>
<text text-anchor="start" x="130" y="-18.5" font-family="Helvetica,sans-Serif" font-size="10.00">Tree::binaryTree::isFull</text>
<text text-anchor="middle" x="180" y="-7.5" font-family="Helvetica,sans-Serif" font-size="10.00">BinaryTree</text>
</a>
</g>
</g>
<!-- Node1&#45;&gt;Node2 -->
<g id="edge1" class="edge"><title>Node1&#45;&gt;Node2</title>
<path fill="none" stroke="midnightblue" d="M263.698,-15.5C255.213,-15.5 246.625,-15.5 238.356,-15.5"/>
<polygon fill="midnightblue" stroke="midnightblue" points="263.97,-19.0001 273.969,-15.5 263.969,-12.0001 263.97,-19.0001"/>
</g>
<!-- Node3 -->
<g id="node3" class="node"><title>Node3</title>
<g id="a_node3"><a xlink:href="a04565.html#aef526da8114f7f495c2491e172f32871" target="_top" xlink:title="(测试用)将二叉树类的多种方法的输出插到输出流">
<polygon fill="white" stroke="black" points="0,-6 0,-25 86,-25 86,-6 0,-6"/>
<text text-anchor="middle" x="43" y="-13" font-family="Helvetica,sans-Serif" font-size="10.00">print_test_result</text>
</a>
</g>
</g>
<!-- Node2&#45;&gt;Node3 -->
<g id="edge2" class="edge"><title>Node2&#45;&gt;Node3</title>
<path fill="none" stroke="midnightblue" d="M111.613,-15.5C102.949,-15.5 94.2832,-15.5 86.1855,-15.5"/>
<polygon fill="midnightblue" stroke="midnightblue" points="111.748,-19.0001 121.748,-15.5 111.748,-12.0001 111.748,-19.0001"/>
</g>
</g>
</svg>
