<?xml version="1.0" encoding="UTF-8" standalone="no"?>
<!DOCTYPE svg PUBLIC "-//W3C//DTD SVG 1.1//EN"
 "http://www.w3.org/Graphics/SVG/1.1/DTD/svg11.dtd">
<!-- Generated by graphviz version 2.38.0 (20140413.2041)
 -->
<!-- Title: Tree::binaryTree::postOrder_loop Pages: 1 -->
<svg width="387pt" height="66pt"
 viewBox="0.00 0.00 387.00 66.00" xmlns="http://www.w3.org/2000/svg" xmlns:xlink="http://www.w3.org/1999/xlink">
<g id="graph0" class="graph" transform="scale(1 1) rotate(0) translate(4 62)">
<title>Tree::binaryTree::postOrder_loop</title>
<polygon fill="white" stroke="none" points="-4,4 -4,-62 383,-62 383,4 -4,4"/>
<!-- Node1 -->
<g id="node1" class="node"><title>Node1</title>
<g id="a_node1"><a xlink:title="后序遍历(非递归版本)">
<polygon fill="#bfbfbf" stroke="black" points="221,-19.5 221,-38.5 379,-38.5 379,-19.5 221,-19.5"/>
<text text-anchor="middle" x="300" y="-26.5" font-family="Helvetica,sans-Serif" font-size="10.00">Tree::binaryTree::postOrder_loop</text>
</a>
</g>
</g>
<!-- Node2 -->
<g id="node2" class="node"><title>Node2</title>
<g id="a_node2"><a xlink:href="a04574.html#a06a3cb0f33ca166e47143d103bf404f8" target="_top" xlink:title="(测试用)将二叉树类的多种方法的输出插到输出流">
<polygon fill="white" stroke="black" points="86.5,-38.5 86.5,-57.5 172.5,-57.5 172.5,-38.5 86.5,-38.5"/>
<text text-anchor="middle" x="129.5" y="-45.5" font-family="Helvetica,sans-Serif" font-size="10.00">print_test_result</text>
</a>
</g>
</g>
<!-- Node1&#45;&gt;Node2 -->
<g id="edge1" class="edge"><title>Node1&#45;&gt;Node2</title>
<path fill="none" stroke="midnightblue" d="M210.598,-38.9682C197.434,-40.4526 184.405,-41.9216 172.802,-43.23"/>
<polygon fill="midnightblue" stroke="midnightblue" points="211.125,-42.4311 220.669,-37.8325 210.34,-35.4751 211.125,-42.4311"/>
</g>
<!-- Node4 -->
<g id="node4" class="node"><title>Node4</title>
<g id="a_node4"><a xlink:href="a04583.html#a2e5a25aaeed192affbca048f5589bdbf" target="_top" xlink:title="(测试用)将一棵二叉树的遍历结果插到输出流">
<polygon fill="white" stroke="black" points="74,-0.5 74,-19.5 185,-19.5 185,-0.5 74,-0.5"/>
<text text-anchor="middle" x="129.5" y="-7.5" font-family="Helvetica,sans-Serif" font-size="10.00">Tree::print_test_result</text>
</a>
</g>
</g>
<!-- Node1&#45;&gt;Node4 -->
<g id="edge3" class="edge"><title>Node1&#45;&gt;Node4</title>
<path fill="none" stroke="midnightblue" d="M210.501,-19.0209C201.844,-18.0447 193.247,-17.0753 185.076,-16.154"/>
<polygon fill="midnightblue" stroke="midnightblue" points="210.34,-22.5249 220.669,-20.1675 211.125,-15.5689 210.34,-22.5249"/>
</g>
<!-- Node3 -->
<g id="node3" class="node"><title>Node3</title>
<g id="a_node3"><a xlink:href="a04574.html#abf9e6b7e6f15df4b525a2e7705ba3089" target="_top" xlink:title=" ">
<polygon fill="white" stroke="black" points="0,-38.5 0,-57.5 38,-57.5 38,-38.5 0,-38.5"/>
<text text-anchor="middle" x="19" y="-45.5" font-family="Helvetica,sans-Serif" font-size="10.00">main</text>
</a>
</g>
</g>
<!-- Node2&#45;&gt;Node3 -->
<g id="edge2" class="edge"><title>Node2&#45;&gt;Node3</title>
<path fill="none" stroke="midnightblue" d="M75.9476,-48C62.378,-48 48.6667,-48 38.214,-48"/>
<polygon fill="midnightblue" stroke="midnightblue" points="76.2404,-51.5001 86.2404,-48 76.2404,-44.5001 76.2404,-51.5001"/>
</g>
<!-- Node5 -->
<g id="node5" class="node"><title>Node5</title>
<g id="a_node5"><a xlink:href="a04577.html#abf9e6b7e6f15df4b525a2e7705ba3089" target="_top" xlink:title="二叉链表实现的二叉树类(binaryTree)的测试例程">
<polygon fill="white" stroke="black" points="0,-0.5 0,-19.5 38,-19.5 38,-0.5 0,-0.5"/>
<text text-anchor="middle" x="19" y="-7.5" font-family="Helvetica,sans-Serif" font-size="10.00">main</text>
</a>
</g>
</g>
<!-- Node4&#45;&gt;Node5 -->
<g id="edge4" class="edge"><title>Node4&#45;&gt;Node5</title>
<path fill="none" stroke="midnightblue" d="M63.7309,-10C54.4347,-10 45.5671,-10 38.2771,-10"/>
<polygon fill="midnightblue" stroke="midnightblue" points="63.9322,-13.5001 73.9321,-10 63.9321,-6.5001 63.9322,-13.5001"/>
</g>
</g>
</svg>
