<?xml version="1.0" encoding="UTF-8" standalone="no"?>
<!DOCTYPE svg PUBLIC "-//W3C//DTD SVG 1.1//EN"
 "http://www.w3.org/Graphics/SVG/1.1/DTD/svg11.dtd">
<!-- Generated by graphviz version 2.38.0 (20140413.2041)
 -->
<!-- Title: Queue::linkQueue&lt; T &gt;::node Pages: 1 -->
<svg width="169pt" height="204pt"
 viewBox="0.00 0.00 169.00 204.00" xmlns="http://www.w3.org/2000/svg" xmlns:xlink="http://www.w3.org/1999/xlink">
<g id="graph0" class="graph" transform="scale(1 1) rotate(0) translate(4 200)">
<title>Queue::linkQueue&lt; T &gt;::node</title>
<polygon fill="white" stroke="none" points="-4,4 -4,-200 165,-200 165,4 -4,4"/>
<!-- Node1 -->
<g id="node1" class="node"><title>Node1</title>
<g id="a_node1"><a xlink:title="linkQueue的结点类">
<polygon fill="#bfbfbf" stroke="black" points="0,-0.5 0,-90.5 109,-90.5 109,-0.5 0,-0.5"/>
<text text-anchor="start" x="8" y="-78.5" font-family="Helvetica,sans-Serif" font-size="10.00">Queue::linkQueue&lt; T</text>
<text text-anchor="middle" x="54.5" y="-67.5" font-family="Helvetica,sans-Serif" font-size="10.00"> &gt;::node</text>
<polyline fill="none" stroke="black" points="0,-60.5 109,-60.5 "/>
<text text-anchor="middle" x="54.5" y="-48.5" font-family="Helvetica,sans-Serif" font-size="10.00"> </text>
<polyline fill="none" stroke="black" points="0,-41.5 109,-41.5 "/>
<text text-anchor="start" x="8" y="-29.5" font-family="Helvetica,sans-Serif" font-size="10.00">+ node()</text>
<text text-anchor="start" x="8" y="-18.5" font-family="Helvetica,sans-Serif" font-size="10.00">+ node()</text>
<text text-anchor="start" x="8" y="-7.5" font-family="Helvetica,sans-Serif" font-size="10.00">+ ~node()</text>
</a>
</g>
</g>
<!-- Node1&#45;&gt;Node1 -->
<g id="edge1" class="edge"><title>Node1&#45;&gt;Node1</title>
<path fill="none" stroke="#404040" d="M109.196,-57.6399C119.625,-56.1873 127,-52.1406 127,-45.5 127,-41.7646 124.666,-38.8501 120.769,-36.7562"/>
<polygon fill="none" stroke="#404040" points="120.711,-36.7393 113.827,-38.8878 109.196,-33.3601 116.08,-31.2115 120.711,-36.7393"/>
<text text-anchor="middle" x="144" y="-43" font-family="Helvetica,sans-Serif" font-size="10.00"> +_next</text>
</g>
<!-- Node2 -->
<g id="node2" class="node"><title>Node2</title>
<g id="a_node2"><a xlink:title=" ">
<polygon fill="white" stroke="#bfbfbf" points="40,-138.5 40,-195.5 69,-195.5 69,-138.5 40,-138.5"/>
<text text-anchor="middle" x="54.5" y="-183.5" font-family="Helvetica,sans-Serif" font-size="10.00">T</text>
<polyline fill="none" stroke="#bfbfbf" points="40,-176.5 69,-176.5 "/>
<text text-anchor="middle" x="54.5" y="-164.5" font-family="Helvetica,sans-Serif" font-size="10.00"> </text>
<polyline fill="none" stroke="#bfbfbf" points="40,-157.5 69,-157.5 "/>
<text text-anchor="middle" x="54.5" y="-145.5" font-family="Helvetica,sans-Serif" font-size="10.00"> </text>
</a>
</g>
</g>
<!-- Node2&#45;&gt;Node1 -->
<g id="edge2" class="edge"><title>Node2&#45;&gt;Node1</title>
<path fill="none" stroke="#404040" d="M54.5,-138.284C54.5,-127.735 54.5,-115.294 54.5,-103.035"/>
<polygon fill="none" stroke="#404040" points="54.5001,-102.912 50.5,-96.9125 54.5,-90.9125 58.5,-96.9124 54.5001,-102.912"/>
<text text-anchor="middle" x="71.5" y="-112" font-family="Helvetica,sans-Serif" font-size="10.00"> +_data</text>
</g>
</g>
</svg>
