<?xml version="1.0" encoding="UTF-8" standalone="no"?>
<!DOCTYPE svg PUBLIC "-//W3C//DTD SVG 1.1//EN"
 "http://www.w3.org/Graphics/SVG/1.1/DTD/svg11.dtd">
<!-- Generated by graphviz version 2.38.0 (20140413.2041)
 -->
<!-- Title: Tree::TreeException Pages: 1 -->
<svg width="191pt" height="354pt"
 viewBox="0.00 0.00 191.00 354.00" xmlns="http://www.w3.org/2000/svg" xmlns:xlink="http://www.w3.org/1999/xlink">
<g id="graph0" class="graph" transform="scale(1 1) rotate(0) translate(4 350)">
<title>Tree::TreeException</title>
<polygon fill="white" stroke="none" points="-4,4 -4,-350 187,-350 187,4 -4,4"/>
<!-- Node1 -->
<g id="node1" class="node"><title>Node1</title>
<g id="a_node1"><a xlink:title=" ">
<polygon fill="#bfbfbf" stroke="black" points="17,-0.5 17,-112.5 121,-112.5 121,-0.5 17,-0.5"/>
<text text-anchor="middle" x="69" y="-100.5" font-family="Helvetica,sans-Serif" font-size="10.00">Tree::TreeException</text>
<polyline fill="none" stroke="black" points="17,-93.5 121,-93.5 "/>
<text text-anchor="middle" x="69" y="-81.5" font-family="Helvetica,sans-Serif" font-size="10.00"> </text>
<polyline fill="none" stroke="black" points="17,-74.5 121,-74.5 "/>
<text text-anchor="start" x="25" y="-62.5" font-family="Helvetica,sans-Serif" font-size="10.00">+ TreeException()</text>
<text text-anchor="start" x="25" y="-51.5" font-family="Helvetica,sans-Serif" font-size="10.00">+ ~TreeException()</text>
<text text-anchor="start" x="25" y="-40.5" font-family="Helvetica,sans-Serif" font-size="10.00">+ error()</text>
<text text-anchor="start" x="25" y="-29.5" font-family="Helvetica,sans-Serif" font-size="10.00">+ argId()</text>
<text text-anchor="start" x="25" y="-18.5" font-family="Helvetica,sans-Serif" font-size="10.00">+ what()</text>
<text text-anchor="start" x="25" y="-7.5" font-family="Helvetica,sans-Serif" font-size="10.00">+ typeDescription()</text>
</a>
</g>
</g>
<!-- Node2 -->
<g id="node2" class="node"><title>Node2</title>
<g id="a_node2"><a xlink:title="STL class.">
<polygon fill="white" stroke="#bfbfbf" points="0,-182.5 0,-239.5 78,-239.5 78,-182.5 0,-182.5"/>
<text text-anchor="middle" x="39" y="-227.5" font-family="Helvetica,sans-Serif" font-size="10.00">std::exception</text>
<polyline fill="none" stroke="#bfbfbf" points="0,-220.5 78,-220.5 "/>
<text text-anchor="middle" x="39" y="-208.5" font-family="Helvetica,sans-Serif" font-size="10.00"> </text>
<polyline fill="none" stroke="#bfbfbf" points="0,-201.5 78,-201.5 "/>
<text text-anchor="middle" x="39" y="-189.5" font-family="Helvetica,sans-Serif" font-size="10.00"> </text>
</a>
</g>
</g>
<!-- Node2&#45;&gt;Node1 -->
<g id="edge1" class="edge"><title>Node2&#45;&gt;Node1</title>
<path fill="none" stroke="midnightblue" d="M46.3672,-172.55C49.9105,-154.538 54.2284,-132.589 58.1392,-112.709"/>
<polygon fill="none" stroke="midnightblue" points="42.9289,-171.896 44.4328,-182.383 49.7973,-173.247 42.9289,-171.896"/>
</g>
<!-- Node3 -->
<g id="node3" class="node"><title>Node3</title>
<g id="a_node3"><a xlink:title="STL class.">
<polygon fill="white" stroke="#bfbfbf" points="96,-182.5 96,-239.5 156,-239.5 156,-182.5 96,-182.5"/>
<text text-anchor="middle" x="126" y="-227.5" font-family="Helvetica,sans-Serif" font-size="10.00">std::string</text>
<polyline fill="none" stroke="#bfbfbf" points="96,-220.5 156,-220.5 "/>
<text text-anchor="middle" x="126" y="-208.5" font-family="Helvetica,sans-Serif" font-size="10.00"> </text>
<polyline fill="none" stroke="#bfbfbf" points="96,-201.5 156,-201.5 "/>
<text text-anchor="middle" x="126" y="-189.5" font-family="Helvetica,sans-Serif" font-size="10.00"> </text>
</a>
</g>
</g>
<!-- Node3&#45;&gt;Node1 -->
<g id="edge2" class="edge"><title>Node3&#45;&gt;Node1</title>
<path fill="none" stroke="#404040" d="M115.678,-182.383C109.56,-166.016 101.525,-144.518 93.8487,-123.981"/>
<polygon fill="none" stroke="#404040" points="93.837,-123.95 87.9895,-119.73 89.6356,-112.709 95.4831,-116.929 93.837,-123.95"/>
<text text-anchor="middle" x="145" y="-156" font-family="Helvetica,sans-Serif" font-size="10.00"> &#45;_argId</text>
<text text-anchor="middle" x="145" y="-145" font-family="Helvetica,sans-Serif" font-size="10.00">&#45;_errorText</text>
<text text-anchor="middle" x="145" y="-134" font-family="Helvetica,sans-Serif" font-size="10.00">&#45;_typeDescription</text>
</g>
<!-- Node4 -->
<g id="node4" class="node"><title>Node4</title>
<g id="a_node4"><a xlink:title="STL class.">
<polygon fill="white" stroke="#bfbfbf" points="78.5,-277.5 78.5,-345.5 173.5,-345.5 173.5,-277.5 78.5,-277.5"/>
<text text-anchor="start" x="86.5" y="-333.5" font-family="Helvetica,sans-Serif" font-size="10.00">std::basic_string&lt;</text>
<text text-anchor="middle" x="126" y="-322.5" font-family="Helvetica,sans-Serif" font-size="10.00"> char &gt;</text>
<polyline fill="none" stroke="#bfbfbf" points="78.5,-315.5 173.5,-315.5 "/>
<text text-anchor="middle" x="126" y="-303.5" font-family="Helvetica,sans-Serif" font-size="10.00"> </text>
<polyline fill="none" stroke="#bfbfbf" points="78.5,-296.5 173.5,-296.5 "/>
<text text-anchor="middle" x="126" y="-284.5" font-family="Helvetica,sans-Serif" font-size="10.00"> </text>
</a>
</g>
</g>
<!-- Node4&#45;&gt;Node3 -->
<g id="edge3" class="edge"><title>Node4&#45;&gt;Node3</title>
<path fill="none" stroke="midnightblue" d="M126,-267.375C126,-257.94 126,-248.201 126,-239.571"/>
<polygon fill="none" stroke="midnightblue" points="122.5,-267.427 126,-277.427 129.5,-267.427 122.5,-267.427"/>
</g>
</g>
</svg>
