<?xml version="1.0" encoding="UTF-8" standalone="no"?>
<!DOCTYPE svg PUBLIC "-//W3C//DTD SVG 1.1//EN"
 "http://www.w3.org/Graphics/SVG/1.1/DTD/svg11.dtd">
<!-- Generated by graphviz version 2.38.0 (20140413.2041)
 -->
<!-- Title: Queue::linkQueue&lt; T &gt; Pages: 1 -->
<svg width="290pt" height="496pt"
 viewBox="0.00 0.00 290.00 496.00" xmlns="http://www.w3.org/2000/svg" xmlns:xlink="http://www.w3.org/1999/xlink">
<g id="graph0" class="graph" transform="scale(1 1) rotate(0) translate(4 492)">
<title>Queue::linkQueue&lt; T &gt;</title>
<polygon fill="white" stroke="none" points="-4,4 -4,-492 286,-492 286,4 -4,4"/>
<!-- Node1 -->
<g id="node1" class="node"><title>Node1</title>
<g id="a_node1"><a xlink:title="链接队列类">
<polygon fill="#bfbfbf" stroke="black" points="31.5,-0.5 31.5,-222.5 149.5,-222.5 149.5,-0.5 31.5,-0.5"/>
<text text-anchor="middle" x="90.5" y="-210.5" font-family="Helvetica,sans-Serif" font-size="10.00">Queue::linkQueue&lt; T &gt;</text>
<polyline fill="none" stroke="black" points="31.5,-203.5 149.5,-203.5 "/>
<text text-anchor="start" x="39.5" y="-191.5" font-family="Helvetica,sans-Serif" font-size="10.00">+ const_reference</text>
<text text-anchor="start" x="39.5" y="-180.5" font-family="Helvetica,sans-Serif" font-size="10.00">&#45; _size</text>
<polyline fill="none" stroke="black" points="31.5,-173.5 149.5,-173.5 "/>
<text text-anchor="start" x="39.5" y="-161.5" font-family="Helvetica,sans-Serif" font-size="10.00">+ linkQueue()</text>
<text text-anchor="start" x="39.5" y="-150.5" font-family="Helvetica,sans-Serif" font-size="10.00">+ ~linkQueue()</text>
<text text-anchor="start" x="39.5" y="-139.5" font-family="Helvetica,sans-Serif" font-size="10.00">+ isEmpty()</text>
<text text-anchor="start" x="39.5" y="-128.5" font-family="Helvetica,sans-Serif" font-size="10.00">+ enQueue()</text>
<text text-anchor="start" x="39.5" y="-117.5" font-family="Helvetica,sans-Serif" font-size="10.00">+ deQueue()</text>
<text text-anchor="start" x="39.5" y="-106.5" font-family="Helvetica,sans-Serif" font-size="10.00">+ getHead()</text>
<text text-anchor="start" x="39.5" y="-95.5" font-family="Helvetica,sans-Serif" font-size="10.00">+ empty()</text>
<text text-anchor="start" x="39.5" y="-84.5" font-family="Helvetica,sans-Serif" font-size="10.00">+ size()</text>
<text text-anchor="start" x="39.5" y="-73.5" font-family="Helvetica,sans-Serif" font-size="10.00">+ front()</text>
<text text-anchor="start" x="39.5" y="-62.5" font-family="Helvetica,sans-Serif" font-size="10.00">+ front()</text>
<text text-anchor="start" x="39.5" y="-51.5" font-family="Helvetica,sans-Serif" font-size="10.00">+ back()</text>
<text text-anchor="start" x="39.5" y="-40.5" font-family="Helvetica,sans-Serif" font-size="10.00">+ back()</text>
<text text-anchor="start" x="39.5" y="-29.5" font-family="Helvetica,sans-Serif" font-size="10.00">+ push()</text>
<text text-anchor="start" x="39.5" y="-18.5" font-family="Helvetica,sans-Serif" font-size="10.00">+ push()</text>
<text text-anchor="start" x="39.5" y="-7.5" font-family="Helvetica,sans-Serif" font-size="10.00">+ pop()</text>
</a>
</g>
</g>
<!-- Node2 -->
<g id="node2" class="node"><title>Node2</title>
<g id="a_node2"><a xlink:href="a05429.html" target="_top" xlink:title="队列的抽象类">
<polygon fill="white" stroke="black" points="0,-281.5 0,-382.5 103,-382.5 103,-281.5 0,-281.5"/>
<text text-anchor="middle" x="51.5" y="-370.5" font-family="Helvetica,sans-Serif" font-size="10.00">Queue::Queue&lt; T &gt;</text>
<polyline fill="none" stroke="black" points="0,-363.5 103,-363.5 "/>
<text text-anchor="start" x="8" y="-351.5" font-family="Helvetica,sans-Serif" font-size="10.00">+ const_reference</text>
<polyline fill="none" stroke="black" points="0,-344.5 103,-344.5 "/>
<text text-anchor="start" x="8" y="-332.5" font-family="Helvetica,sans-Serif" font-size="10.00">+ isEmpty()</text>
<text text-anchor="start" x="8" y="-321.5" font-family="Helvetica,sans-Serif" font-size="10.00">+ enQueue()</text>
<text text-anchor="start" x="8" y="-310.5" font-family="Helvetica,sans-Serif" font-size="10.00">+ deQueue()</text>
<text text-anchor="start" x="8" y="-299.5" font-family="Helvetica,sans-Serif" font-size="10.00">+ getHead()</text>
<text text-anchor="start" x="8" y="-288.5" font-family="Helvetica,sans-Serif" font-size="10.00">+ ~Queue()</text>
</a>
</g>
</g>
<!-- Node2&#45;&gt;Node1 -->
<g id="edge1" class="edge"><title>Node2&#45;&gt;Node1</title>
<path fill="none" stroke="#8b1a1a" d="M62.1723,-271.208C64.8763,-256.059 67.8672,-239.301 70.8625,-222.52"/>
<polygon fill="none" stroke="#8b1a1a" points="58.6614,-270.96 60.3497,-281.419 65.5525,-272.19 58.6614,-270.96"/>
</g>
<!-- Node3 -->
<g id="node3" class="node"><title>Node3</title>
<g id="a_node3"><a xlink:href="a05417.html" target="_top" xlink:title="linkQueue的结点类">
<polygon fill="white" stroke="black" points="121,-287 121,-377 230,-377 230,-287 121,-287"/>
<text text-anchor="start" x="129" y="-365" font-family="Helvetica,sans-Serif" font-size="10.00">Queue::linkQueue&lt; T</text>
<text text-anchor="middle" x="175.5" y="-354" font-family="Helvetica,sans-Serif" font-size="10.00"> &gt;::node</text>
<polyline fill="none" stroke="black" points="121,-347 230,-347 "/>
<text text-anchor="middle" x="175.5" y="-335" font-family="Helvetica,sans-Serif" font-size="10.00"> </text>
<polyline fill="none" stroke="black" points="121,-328 230,-328 "/>
<text text-anchor="start" x="129" y="-316" font-family="Helvetica,sans-Serif" font-size="10.00">+ node()</text>
<text text-anchor="start" x="129" y="-305" font-family="Helvetica,sans-Serif" font-size="10.00">+ node()</text>
<text text-anchor="start" x="129" y="-294" font-family="Helvetica,sans-Serif" font-size="10.00">+ ~node()</text>
</a>
</g>
</g>
<!-- Node3&#45;&gt;Node1 -->
<g id="edge2" class="edge"><title>Node3&#45;&gt;Node1</title>
<path fill="none" stroke="#404040" d="M158.299,-286.783C152.245,-271.22 145.113,-252.889 137.79,-234.063"/>
<polygon fill="none" stroke="#404040" points="137.689,-233.804 131.786,-229.662 133.339,-222.62 139.242,-226.762 137.689,-233.804"/>
<text text-anchor="middle" x="161.5" y="-255" font-family="Helvetica,sans-Serif" font-size="10.00"> &#45;_rear</text>
<text text-anchor="middle" x="161.5" y="-244" font-family="Helvetica,sans-Serif" font-size="10.00">&#45;_front</text>
</g>
<!-- Node3&#45;&gt;Node3 -->
<g id="edge3" class="edge"><title>Node3&#45;&gt;Node3</title>
<path fill="none" stroke="#404040" d="M230.196,-345.211C240.625,-343.63 248,-339.227 248,-332 248,-327.935 245.666,-324.763 241.769,-322.485"/>
<polygon fill="none" stroke="#404040" points="241.627,-322.44 234.695,-324.425 230.196,-318.789 237.129,-316.804 241.627,-322.44"/>
<text text-anchor="middle" x="265" y="-329.5" font-family="Helvetica,sans-Serif" font-size="10.00"> +_next</text>
</g>
<!-- Node4 -->
<g id="node4" class="node"><title>Node4</title>
<g id="a_node4"><a xlink:title=" ">
<polygon fill="white" stroke="#bfbfbf" points="161,-430.5 161,-487.5 190,-487.5 190,-430.5 161,-430.5"/>
<text text-anchor="middle" x="175.5" y="-475.5" font-family="Helvetica,sans-Serif" font-size="10.00">T</text>
<polyline fill="none" stroke="#bfbfbf" points="161,-468.5 190,-468.5 "/>
<text text-anchor="middle" x="175.5" y="-456.5" font-family="Helvetica,sans-Serif" font-size="10.00"> </text>
<polyline fill="none" stroke="#bfbfbf" points="161,-449.5 190,-449.5 "/>
<text text-anchor="middle" x="175.5" y="-437.5" font-family="Helvetica,sans-Serif" font-size="10.00"> </text>
</a>
</g>
</g>
<!-- Node4&#45;&gt;Node3 -->
<g id="edge4" class="edge"><title>Node4&#45;&gt;Node3</title>
<path fill="none" stroke="#404040" d="M175.5,-430.258C175.5,-418.242 175.5,-403.713 175.5,-389.59"/>
<polygon fill="none" stroke="#404040" points="175.5,-389.356 171.5,-383.356 175.5,-377.356 179.5,-383.356 175.5,-389.356"/>
<text text-anchor="middle" x="192.5" y="-404" font-family="Helvetica,sans-Serif" font-size="10.00"> +_data</text>
</g>
</g>
</svg>
