<?xml version="1.0" encoding="UTF-8" standalone="no"?>
<!DOCTYPE svg PUBLIC "-//W3C//DTD SVG 1.1//EN"
 "http://www.w3.org/Graphics/SVG/1.1/DTD/svg11.dtd">
<!-- Generated by graphviz version 2.38.0 (20140413.2041)
 -->
<!-- Title: Stack::Stack&lt; T &gt; Pages: 1 -->
<svg width="252pt" height="347pt"
 viewBox="0.00 0.00 251.50 347.00" xmlns="http://www.w3.org/2000/svg" xmlns:xlink="http://www.w3.org/1999/xlink">
<g id="graph0" class="graph" transform="scale(1 1) rotate(0) translate(4 343)">
<title>Stack::Stack&lt; T &gt;</title>
<polygon fill="white" stroke="none" points="-4,4 -4,-343 247.5,-343 247.5,4 -4,4"/>
<!-- Node1 -->
<g id="node1" class="node"><title>Node1</title>
<g id="a_node1"><a xlink:title=" ">
<polygon fill="#bfbfbf" stroke="black" points="72.5,-237.5 72.5,-338.5 169.5,-338.5 169.5,-237.5 72.5,-237.5"/>
<text text-anchor="middle" x="121" y="-326.5" font-family="Helvetica,sans-Serif" font-size="10.00">Stack::Stack&lt; T &gt;</text>
<polyline fill="none" stroke="black" points="72.5,-319.5 169.5,-319.5 "/>
<text text-anchor="middle" x="121" y="-307.5" font-family="Helvetica,sans-Serif" font-size="10.00"> </text>
<polyline fill="none" stroke="black" points="72.5,-300.5 169.5,-300.5 "/>
<text text-anchor="start" x="80.5" y="-288.5" font-family="Helvetica,sans-Serif" font-size="10.00">+ isEmpty()</text>
<text text-anchor="start" x="80.5" y="-277.5" font-family="Helvetica,sans-Serif" font-size="10.00">+ push()</text>
<text text-anchor="start" x="80.5" y="-266.5" font-family="Helvetica,sans-Serif" font-size="10.00">+ pop()</text>
<text text-anchor="start" x="80.5" y="-255.5" font-family="Helvetica,sans-Serif" font-size="10.00">+ top()</text>
<text text-anchor="start" x="80.5" y="-244.5" font-family="Helvetica,sans-Serif" font-size="10.00">+ ~Stack()</text>
</a>
</g>
</g>
<!-- Node2 -->
<g id="node2" class="node"><title>Node2</title>
<g id="a_node2"><a xlink:href="a05421.html" target="_top" xlink:title=" ">
<polygon fill="white" stroke="black" points="0,-33.5 0,-167.5 112,-167.5 112,-33.5 0,-33.5"/>
<text text-anchor="middle" x="56" y="-155.5" font-family="Helvetica,sans-Serif" font-size="10.00">Stack::linkStack&lt; T &gt;</text>
<polyline fill="none" stroke="black" points="0,-148.5 112,-148.5 "/>
<text text-anchor="start" x="8" y="-136.5" font-family="Helvetica,sans-Serif" font-size="10.00">&#45; top_p</text>
<polyline fill="none" stroke="black" points="0,-129.5 112,-129.5 "/>
<text text-anchor="start" x="8" y="-117.5" font-family="Helvetica,sans-Serif" font-size="10.00">+ linkStack()</text>
<text text-anchor="start" x="8" y="-106.5" font-family="Helvetica,sans-Serif" font-size="10.00">+ linkStack()</text>
<text text-anchor="start" x="8" y="-95.5" font-family="Helvetica,sans-Serif" font-size="10.00">+ isEmpty()</text>
<text text-anchor="start" x="8" y="-84.5" font-family="Helvetica,sans-Serif" font-size="10.00">+ push()</text>
<text text-anchor="start" x="8" y="-73.5" font-family="Helvetica,sans-Serif" font-size="10.00">+ push()</text>
<text text-anchor="start" x="8" y="-62.5" font-family="Helvetica,sans-Serif" font-size="10.00">+ pop()</text>
<text text-anchor="start" x="8" y="-51.5" font-family="Helvetica,sans-Serif" font-size="10.00">+ top()</text>
<text text-anchor="start" x="8" y="-40.5" font-family="Helvetica,sans-Serif" font-size="10.00">+ ~linkStack()</text>
</a>
</g>
</g>
<!-- Node1&#45;&gt;Node2 -->
<g id="edge1" class="edge"><title>Node1&#45;&gt;Node2</title>
<path fill="none" stroke="midnightblue" d="M100.257,-227.803C93.5556,-208.678 86.0833,-187.353 79.2148,-167.752"/>
<polygon fill="none" stroke="midnightblue" points="96.9711,-229.009 103.581,-237.289 103.577,-226.695 96.9711,-229.009"/>
</g>
<!-- Node3 -->
<g id="node3" class="node"><title>Node3</title>
<g id="a_node3"><a xlink:href="a05437.html" target="_top" xlink:title=" ">
<polygon fill="white" stroke="black" points="130.5,-0.5 130.5,-200.5 243.5,-200.5 243.5,-0.5 130.5,-0.5"/>
<text text-anchor="middle" x="187" y="-188.5" font-family="Helvetica,sans-Serif" font-size="10.00">Stack::seqStack&lt; T &gt;</text>
<polyline fill="none" stroke="black" points="130.5,-181.5 243.5,-181.5 "/>
<text text-anchor="start" x="138.5" y="-169.5" font-family="Helvetica,sans-Serif" font-size="10.00">&#45; elem</text>
<text text-anchor="start" x="138.5" y="-158.5" font-family="Helvetica,sans-Serif" font-size="10.00">&#45; top_p</text>
<text text-anchor="start" x="138.5" y="-147.5" font-family="Helvetica,sans-Serif" font-size="10.00">&#45; maxSize</text>
<polyline fill="none" stroke="black" points="130.5,-140.5 243.5,-140.5 "/>
<text text-anchor="start" x="138.5" y="-128.5" font-family="Helvetica,sans-Serif" font-size="10.00">+ seqStack()</text>
<text text-anchor="start" x="138.5" y="-117.5" font-family="Helvetica,sans-Serif" font-size="10.00">+ seqStack()</text>
<text text-anchor="start" x="138.5" y="-106.5" font-family="Helvetica,sans-Serif" font-size="10.00">+ isEmpty()</text>
<text text-anchor="start" x="138.5" y="-95.5" font-family="Helvetica,sans-Serif" font-size="10.00">+ push()</text>
<text text-anchor="start" x="138.5" y="-84.5" font-family="Helvetica,sans-Serif" font-size="10.00">+ push()</text>
<text text-anchor="start" x="138.5" y="-73.5" font-family="Helvetica,sans-Serif" font-size="10.00">+ pop()</text>
<text text-anchor="start" x="138.5" y="-62.5" font-family="Helvetica,sans-Serif" font-size="10.00">+ top()</text>
<text text-anchor="start" x="138.5" y="-51.5" font-family="Helvetica,sans-Serif" font-size="10.00">+ size()</text>
<text text-anchor="start" x="138.5" y="-40.5" font-family="Helvetica,sans-Serif" font-size="10.00">+ elemMem()</text>
<text text-anchor="start" x="138.5" y="-29.5" font-family="Helvetica,sans-Serif" font-size="10.00">+ ~seqStack()</text>
<text text-anchor="start" x="138.5" y="-18.5" font-family="Helvetica,sans-Serif" font-size="10.00">+ empty()</text>
<text text-anchor="start" x="138.5" y="-7.5" font-family="Helvetica,sans-Serif" font-size="10.00">&#45; doubleSpace()</text>
</a>
</g>
</g>
<!-- Node1&#45;&gt;Node3 -->
<g id="edge2" class="edge"><title>Node1&#45;&gt;Node3</title>
<path fill="none" stroke="midnightblue" d="M142.089,-227.728C145.168,-219.073 148.407,-209.969 151.677,-200.779"/>
<polygon fill="none" stroke="midnightblue" points="138.741,-226.695 138.687,-237.289 145.336,-229.041 138.741,-226.695"/>
</g>
</g>
</svg>
