<?xml version="1.0" encoding="UTF-8" standalone="no"?>
<!DOCTYPE svg PUBLIC "-//W3C//DTD SVG 1.1//EN"
 "http://www.w3.org/Graphics/SVG/1.1/DTD/svg11.dtd">
<!-- Generated by graphviz version 2.38.0 (20140413.2041)
 -->
<!-- Title: Graphical Class Hierarchy Pages: 1 -->
<svg width="266pt" height="104pt"
 viewBox="0.00 0.00 266.00 104.00" xmlns="http://www.w3.org/2000/svg" xmlns:xlink="http://www.w3.org/1999/xlink">
<g id="graph0" class="graph" transform="scale(1 1) rotate(0) translate(4 100)">
<title>Graphical Class Hierarchy</title>
<polygon fill="white" stroke="none" points="-4,4 -4,-100 262,-100 262,4 -4,4"/>
<!-- Node0 -->
<g id="node1" class="node"><title>Node0</title>
<g id="a_node1"><a xlink:href="a05429.html" target="_top" xlink:title="队列的抽象类">
<polygon fill="white" stroke="black" points="0,-38.5 0,-57.5 103,-57.5 103,-38.5 0,-38.5"/>
<text text-anchor="middle" x="51.5" y="-45.5" font-family="Helvetica,sans-Serif" font-size="10.00">Queue::Queue&lt; T &gt;</text>
</a>
</g>
</g>
<!-- Node1 -->
<g id="node2" class="node"><title>Node1</title>
<g id="a_node2"><a xlink:href="a05413.html" target="_top" xlink:title="链接队列类">
<polygon fill="white" stroke="black" points="139.5,-76.5 139.5,-95.5 257.5,-95.5 257.5,-76.5 139.5,-76.5"/>
<text text-anchor="middle" x="198.5" y="-83.5" font-family="Helvetica,sans-Serif" font-size="10.00">Queue::linkQueue&lt; T &gt;</text>
</a>
</g>
</g>
<!-- Node0&#45;&gt;Node1 -->
<g id="edge1" class="edge"><title>Node0&#45;&gt;Node1</title>
<path fill="none" stroke="#8b1a1a" d="M98.9928,-60.1843C119.124,-65.46 142.338,-71.5438 161.173,-76.4799"/>
<polygon fill="#8b1a1a" stroke="#8b1a1a" points="99.6503,-56.7385 89.0896,-57.589 97.8757,-63.5098 99.6503,-56.7385"/>
</g>
<!-- Node2 -->
<g id="node3" class="node"><title>Node2</title>
<g id="a_node3"><a xlink:href="a05433.html" target="_top" xlink:title="循环队列类">
<polygon fill="white" stroke="black" points="139,-38.5 139,-57.5 258,-57.5 258,-38.5 139,-38.5"/>
<text text-anchor="middle" x="198.5" y="-45.5" font-family="Helvetica,sans-Serif" font-size="10.00">Queue::seqQueue&lt; T &gt;</text>
</a>
</g>
</g>
<!-- Node0&#45;&gt;Node2 -->
<g id="edge2" class="edge"><title>Node0&#45;&gt;Node2</title>
<path fill="none" stroke="midnightblue" d="M113.371,-48C121.811,-48 130.467,-48 138.866,-48"/>
<polygon fill="midnightblue" stroke="midnightblue" points="113.214,-44.5001 103.214,-48 113.214,-51.5001 113.214,-44.5001"/>
</g>
<!-- Node3 -->
<g id="node4" class="node"><title>Node3</title>
<g id="a_node4"><a xlink:href="a05453.html" target="_top" xlink:title="队头位置固定的队列类">
<polygon fill="white" stroke="black" points="140,-0.5 140,-19.5 257,-19.5 257,-0.5 140,-0.5"/>
<text text-anchor="middle" x="198.5" y="-7.5" font-family="Helvetica,sans-Serif" font-size="10.00">Queue::vecQueue&lt; T &gt;</text>
</a>
</g>
</g>
<!-- Node0&#45;&gt;Node3 -->
<g id="edge3" class="edge"><title>Node0&#45;&gt;Node3</title>
<path fill="none" stroke="midnightblue" d="M98.9928,-35.8157C119.124,-30.54 142.338,-24.4562 161.173,-19.5201"/>
<polygon fill="midnightblue" stroke="midnightblue" points="97.8757,-32.4902 89.0896,-38.411 99.6503,-39.2615 97.8757,-32.4902"/>
</g>
</g>
</svg>
