<?xml version="1.0" encoding="UTF-8" standalone="no"?>
<!DOCTYPE svg PUBLIC "-//W3C//DTD SVG 1.1//EN"
 "http://www.w3.org/Graphics/SVG/1.1/DTD/svg11.dtd">
<!-- Generated by graphviz version 2.38.0 (20140413.2041)
 -->
<!-- Title: include/List.h Pages: 1 -->
<svg width="466pt" height="140pt"
 viewBox="0.00 0.00 465.50 140.00" xmlns="http://www.w3.org/2000/svg" xmlns:xlink="http://www.w3.org/1999/xlink">
<g id="graph0" class="graph" transform="scale(1 1) rotate(0) translate(4 136)">
<title>include/List.h</title>
<polygon fill="white" stroke="none" points="-4,4 -4,-136 461.5,-136 461.5,4 -4,4"/>
<!-- Node1 -->
<g id="node1" class="node"><title>Node1</title>
<g id="a_node1"><a xlink:title=" ">
<polygon fill="#bfbfbf" stroke="black" points="195.5,-112.5 195.5,-131.5 269.5,-131.5 269.5,-112.5 195.5,-112.5"/>
<text text-anchor="middle" x="232.5" y="-119.5" font-family="Helvetica,sans-Serif" font-size="10.00">include/List.h</text>
</a>
</g>
</g>
<!-- Node2 -->
<g id="node2" class="node"><title>Node2</title>
<g id="a_node2"><a xlink:href="d_link_list_8h.html" target="_top" xlink:title=" ">
<polygon fill="white" stroke="black" points="67.5,-56.5 67.5,-75.5 165.5,-75.5 165.5,-56.5 67.5,-56.5"/>
<text text-anchor="middle" x="116.5" y="-63.5" font-family="Helvetica,sans-Serif" font-size="10.00">include/dLinkList.h</text>
</a>
</g>
</g>
<!-- Node1&#45;&gt;Node2 -->
<g id="edge1" class="edge"><title>Node1&#45;&gt;Node2</title>
<path fill="none" stroke="midnightblue" d="M199.548,-108.368C176.37,-98.2553 146.742,-84.3486 129.715,-75.5164"/>
<polygon fill="midnightblue" stroke="midnightblue" points="198.461,-111.71 209.031,-112.444 201.225,-105.279 198.461,-111.71"/>
</g>
<!-- Node4 -->
<g id="node4" class="node"><title>Node4</title>
<g id="a_node4"><a xlink:href="s_link_list_8h.html" target="_top" xlink:title=" ">
<polygon fill="white" stroke="black" points="183.5,-56.5 183.5,-75.5 281.5,-75.5 281.5,-56.5 183.5,-56.5"/>
<text text-anchor="middle" x="232.5" y="-63.5" font-family="Helvetica,sans-Serif" font-size="10.00">include/sLinkList.h</text>
</a>
</g>
</g>
<!-- Node1&#45;&gt;Node4 -->
<g id="edge4" class="edge"><title>Node1&#45;&gt;Node4</title>
<path fill="none" stroke="midnightblue" d="M226.028,-102.101C225.396,-93.1357 225.843,-82.8579 227.369,-75.7511"/>
<polygon fill="midnightblue" stroke="midnightblue" points="222.566,-102.622 227.334,-112.083 229.507,-101.713 222.566,-102.622"/>
</g>
<!-- Node9 -->
<g id="node9" class="node"><title>Node9</title>
<g id="a_node9"><a xlink:href="seq_list_8h.html" target="_top" xlink:title=" ">
<polygon fill="white" stroke="black" points="299.5,-56.5 299.5,-75.5 389.5,-75.5 389.5,-56.5 299.5,-56.5"/>
<text text-anchor="middle" x="344.5" y="-63.5" font-family="Helvetica,sans-Serif" font-size="10.00">include/seqList.h</text>
</a>
</g>
</g>
<!-- Node1&#45;&gt;Node9 -->
<g id="edge10" class="edge"><title>Node1&#45;&gt;Node9</title>
<path fill="none" stroke="midnightblue" d="M254.39,-107.59C273.772,-97.6052 301.707,-84.2672 321.44,-75.6545"/>
<polygon fill="midnightblue" stroke="midnightblue" points="252.604,-104.574 245.38,-112.324 255.86,-110.771 252.604,-104.574"/>
</g>
<!-- Node2&#45;&gt;Node1 -->
<g id="edge3" class="edge"><title>Node2&#45;&gt;Node1</title>
<path fill="none" stroke="midnightblue" d="M149.625,-79.7074C172.638,-89.7527 201.945,-103.507 218.977,-112.324"/>
<polygon fill="midnightblue" stroke="midnightblue" points="150.771,-76.3904 140.201,-75.6545 148.005,-82.8208 150.771,-76.3904"/>
</g>
<!-- Node3 -->
<g id="node3" class="node"><title>Node3</title>
<g id="a_node3"><a xlink:href="ch2__8_8c_09_09.html" target="_top" xlink:title=" ">
<polygon fill="white" stroke="black" points="0,-0.5 0,-19.5 63,-19.5 63,-0.5 0,-0.5"/>
<text text-anchor="middle" x="31.5" y="-7.5" font-family="Helvetica,sans-Serif" font-size="10.00">ch2_8.c++</text>
</a>
</g>
</g>
<!-- Node2&#45;&gt;Node3 -->
<g id="edge2" class="edge"><title>Node2&#45;&gt;Node3</title>
<path fill="none" stroke="midnightblue" d="M94.3064,-50.9005C78.72,-40.9986 58.3703,-28.0705 45.1228,-19.6545"/>
<polygon fill="midnightblue" stroke="midnightblue" points="92.5257,-53.9158 102.843,-56.324 96.2794,-48.0073 92.5257,-53.9158"/>
</g>
<!-- Node4&#45;&gt;Node1 -->
<g id="edge9" class="edge"><title>Node4&#45;&gt;Node1</title>
<path fill="none" stroke="midnightblue" d="M238.958,-85.6911C239.606,-94.6353 239.176,-104.927 237.666,-112.083"/>
<polygon fill="midnightblue" stroke="midnightblue" points="242.423,-85.2002 237.631,-75.7511 235.485,-86.1262 242.423,-85.2002"/>
</g>
<!-- Node5 -->
<g id="node5" class="node"><title>Node5</title>
<g id="a_node5"><a xlink:href="ch2__1_8cxx.html" target="_top" xlink:title=" ">
<polygon fill="white" stroke="black" points="81.5,-0.5 81.5,-19.5 143.5,-19.5 143.5,-0.5 81.5,-0.5"/>
<text text-anchor="middle" x="112.5" y="-7.5" font-family="Helvetica,sans-Serif" font-size="10.00">ch2_1.cxx</text>
</a>
</g>
</g>
<!-- Node4&#45;&gt;Node5 -->
<g id="edge5" class="edge"><title>Node4&#45;&gt;Node5</title>
<path fill="none" stroke="midnightblue" d="M204.127,-52.2321C181.68,-42.1312 150.965,-28.3091 131.425,-19.5164"/>
<polygon fill="midnightblue" stroke="midnightblue" points="202.93,-55.5316 213.486,-56.4435 205.803,-49.1481 202.93,-55.5316"/>
</g>
<!-- Node6 -->
<g id="node6" class="node"><title>Node6</title>
<g id="a_node6"><a xlink:href="ch2__10_8cc.html" target="_top" xlink:title=" ">
<polygon fill="white" stroke="black" points="161.5,-0.5 161.5,-19.5 223.5,-19.5 223.5,-0.5 161.5,-0.5"/>
<text text-anchor="middle" x="192.5" y="-7.5" font-family="Helvetica,sans-Serif" font-size="10.00">ch2_10.cc</text>
</a>
</g>
</g>
<!-- Node4&#45;&gt;Node6 -->
<g id="edge6" class="edge"><title>Node4&#45;&gt;Node6</title>
<path fill="none" stroke="midnightblue" d="M219.8,-47.8554C212.874,-38.5048 204.594,-27.3265 198.982,-19.7511"/>
<polygon fill="midnightblue" stroke="midnightblue" points="217.13,-50.1307 225.895,-56.083 222.755,-45.9641 217.13,-50.1307"/>
</g>
<!-- Node7 -->
<g id="node7" class="node"><title>Node7</title>
<g id="a_node7"><a xlink:href="ch2__6_8cxx.html" target="_top" xlink:title=" ">
<polygon fill="white" stroke="black" points="241.5,-0.5 241.5,-19.5 303.5,-19.5 303.5,-0.5 241.5,-0.5"/>
<text text-anchor="middle" x="272.5" y="-7.5" font-family="Helvetica,sans-Serif" font-size="10.00">ch2_6.cxx</text>
</a>
</g>
</g>
<!-- Node4&#45;&gt;Node7 -->
<g id="edge7" class="edge"><title>Node4&#45;&gt;Node7</title>
<path fill="none" stroke="midnightblue" d="M245.2,-47.8554C252.126,-38.5048 260.406,-27.3265 266.018,-19.7511"/>
<polygon fill="midnightblue" stroke="midnightblue" points="242.245,-45.9641 239.105,-56.083 247.87,-50.1307 242.245,-45.9641"/>
</g>
<!-- Node8 -->
<g id="node8" class="node"><title>Node8</title>
<g id="a_node8"><a xlink:href="ch2__9_8cpp.html" target="_top" xlink:title=" ">
<polygon fill="white" stroke="black" points="321.5,-0.5 321.5,-19.5 383.5,-19.5 383.5,-0.5 321.5,-0.5"/>
<text text-anchor="middle" x="352.5" y="-7.5" font-family="Helvetica,sans-Serif" font-size="10.00">ch2_9.cpp</text>
</a>
</g>
</g>
<!-- Node4&#45;&gt;Node8 -->
<g id="edge8" class="edge"><title>Node4&#45;&gt;Node8</title>
<path fill="none" stroke="midnightblue" d="M260.873,-52.2321C283.32,-42.1312 314.035,-28.3091 333.575,-19.5164"/>
<polygon fill="midnightblue" stroke="midnightblue" points="259.197,-49.1481 251.514,-56.4435 262.07,-55.5316 259.197,-49.1481"/>
</g>
<!-- Node9&#45;&gt;Node1 -->
<g id="edge12" class="edge"><title>Node9&#45;&gt;Node1</title>
<path fill="none" stroke="midnightblue" d="M322.885,-80.2685C303.42,-90.3059 275.174,-103.794 255.335,-112.444"/>
<polygon fill="midnightblue" stroke="midnightblue" points="324.696,-83.2704 331.916,-75.5164 321.437,-77.0757 324.696,-83.2704"/>
</g>
<!-- Node10 -->
<g id="node10" class="node"><title>Node10</title>
<g id="a_node10"><a xlink:href="ch2__7_8cc.html" target="_top" xlink:title=" ">
<polygon fill="white" stroke="black" points="401.5,-0.5 401.5,-19.5 457.5,-19.5 457.5,-0.5 401.5,-0.5"/>
<text text-anchor="middle" x="429.5" y="-7.5" font-family="Helvetica,sans-Serif" font-size="10.00">ch2_7.cc</text>
</a>
</g>
</g>
<!-- Node9&#45;&gt;Node10 -->
<g id="edge11" class="edge"><title>Node9&#45;&gt;Node10</title>
<path fill="none" stroke="midnightblue" d="M366.694,-50.9005C382.28,-40.9986 402.63,-28.0705 415.877,-19.6545"/>
<polygon fill="midnightblue" stroke="midnightblue" points="364.721,-48.0073 358.157,-56.324 368.474,-53.9158 364.721,-48.0073"/>
</g>
</g>
</svg>
