<?xml version="1.0" encoding="UTF-8" standalone="no"?>
<!DOCTYPE svg PUBLIC "-//W3C//DTD SVG 1.1//EN"
 "http://www.w3.org/Graphics/SVG/1.1/DTD/svg11.dtd">
<!-- Generated by graphviz version 2.38.0 (20140413.2041)
 -->
<!-- Title: include/dLinkList.h Pages: 1 -->
<svg width="384pt" height="196pt"
 viewBox="0.00 0.00 384.00 196.00" xmlns="http://www.w3.org/2000/svg" xmlns:xlink="http://www.w3.org/1999/xlink">
<g id="graph0" class="graph" transform="scale(1 1) rotate(0) translate(4 192)">
<title>include/dLinkList.h</title>
<polygon fill="white" stroke="none" points="-4,4 -4,-192 380,-192 380,4 -4,4"/>
<!-- Node1 -->
<g id="node1" class="node"><title>Node1</title>
<g id="a_node1"><a xlink:title=" ">
<polygon fill="#bfbfbf" stroke="black" points="198,-168.5 198,-187.5 296,-187.5 296,-168.5 198,-168.5"/>
<text text-anchor="middle" x="247" y="-175.5" font-family="Helvetica,sans-Serif" font-size="10.00">include/dLinkList.h</text>
</a>
</g>
</g>
<!-- Node2 -->
<g id="node2" class="node"><title>Node2</title>
<g id="a_node2"><a xlink:href="a04532.html" target="_top" xlink:title=" ">
<polygon fill="white" stroke="black" points="128.5,-112.5 128.5,-131.5 191.5,-131.5 191.5,-112.5 128.5,-112.5"/>
<text text-anchor="middle" x="160" y="-119.5" font-family="Helvetica,sans-Serif" font-size="10.00">ch2_8.c++</text>
</a>
</g>
</g>
<!-- Node1&#45;&gt;Node2 -->
<g id="edge1" class="edge"><title>Node1&#45;&gt;Node2</title>
<path fill="none" stroke="midnightblue" d="M224.284,-162.901C208.331,-152.999 187.503,-140.071 173.943,-131.655"/>
<polygon fill="midnightblue" stroke="midnightblue" points="222.68,-166.024 233.022,-168.324 226.371,-160.077 222.68,-166.024"/>
</g>
<!-- Node3 -->
<g id="node3" class="node"><title>Node3</title>
<g id="a_node3"><a xlink:href="a04541.html" target="_top" xlink:title=" ">
<polygon fill="white" stroke="black" points="210,-112.5 210,-131.5 284,-131.5 284,-112.5 210,-112.5"/>
<text text-anchor="middle" x="247" y="-119.5" font-family="Helvetica,sans-Serif" font-size="10.00">include/List.h</text>
</a>
</g>
</g>
<!-- Node1&#45;&gt;Node3 -->
<g id="edge2" class="edge"><title>Node1&#45;&gt;Node3</title>
<path fill="none" stroke="midnightblue" d="M240.528,-158.101C239.896,-149.136 240.343,-138.858 241.869,-131.751"/>
<polygon fill="midnightblue" stroke="midnightblue" points="237.066,-158.622 241.834,-168.083 244.007,-157.713 237.066,-158.622"/>
</g>
<!-- Node3&#45;&gt;Node1 -->
<g id="edge3" class="edge"><title>Node3&#45;&gt;Node1</title>
<path fill="none" stroke="midnightblue" d="M253.458,-141.691C254.106,-150.635 253.676,-160.927 252.166,-168.083"/>
<polygon fill="midnightblue" stroke="midnightblue" points="256.923,-141.2 252.131,-131.751 249.985,-142.126 256.923,-141.2"/>
</g>
<!-- Node4 -->
<g id="node4" class="node"><title>Node4</title>
<g id="a_node4"><a xlink:href="a04547.html" target="_top" xlink:title=" ">
<polygon fill="white" stroke="black" points="142,-56.5 142,-75.5 240,-75.5 240,-56.5 142,-56.5"/>
<text text-anchor="middle" x="191" y="-63.5" font-family="Helvetica,sans-Serif" font-size="10.00">include/sLinkList.h</text>
</a>
</g>
</g>
<!-- Node3&#45;&gt;Node4 -->
<g id="edge4" class="edge"><title>Node3&#45;&gt;Node4</title>
<path fill="none" stroke="midnightblue" d="M225.119,-105.82C214.019,-96.1452 201.7,-83.9481 195.012,-75.8339"/>
<polygon fill="midnightblue" stroke="midnightblue" points="222.973,-108.588 232.888,-112.324 227.467,-103.221 222.973,-108.588"/>
</g>
<!-- Node9 -->
<g id="node9" class="node"><title>Node9</title>
<g id="a_node9"><a xlink:href="a04544.html" target="_top" xlink:title=" ">
<polygon fill="white" stroke="black" points="258,-56.5 258,-75.5 348,-75.5 348,-56.5 258,-56.5"/>
<text text-anchor="middle" x="303" y="-63.5" font-family="Helvetica,sans-Serif" font-size="10.00">include/seqList.h</text>
</a>
</g>
</g>
<!-- Node3&#45;&gt;Node9 -->
<g id="edge10" class="edge"><title>Node3&#45;&gt;Node9</title>
<path fill="none" stroke="midnightblue" d="M257.902,-104.431C266.822,-94.9673 279.115,-83.4827 288.794,-75.7511"/>
<polygon fill="midnightblue" stroke="midnightblue" points="255.122,-102.289 251.081,-112.083 260.348,-106.947 255.122,-102.289"/>
</g>
<!-- Node4&#45;&gt;Node3 -->
<g id="edge9" class="edge"><title>Node4&#45;&gt;Node3</title>
<path fill="none" stroke="midnightblue" d="M212.942,-82.2334C223.988,-91.8664 236.228,-103.984 242.919,-112.083"/>
<polygon fill="midnightblue" stroke="midnightblue" points="215.119,-79.4911 205.206,-75.7511 210.623,-84.8565 215.119,-79.4911"/>
</g>
<!-- Node5 -->
<g id="node5" class="node"><title>Node5</title>
<g id="a_node5"><a xlink:href="a04520.html" target="_top" xlink:title=" ">
<polygon fill="white" stroke="black" points="0,-0.5 0,-19.5 62,-19.5 62,-0.5 0,-0.5"/>
<text text-anchor="middle" x="31" y="-7.5" font-family="Helvetica,sans-Serif" font-size="10.00">ch2_1.cxx</text>
</a>
</g>
</g>
<!-- Node4&#45;&gt;Node5 -->
<g id="edge5" class="edge"><title>Node4&#45;&gt;Node5</title>
<path fill="none" stroke="midnightblue" d="M155.954,-53.172C125.826,-43.0039 83.1042,-28.5852 56.2339,-19.5164"/>
<polygon fill="midnightblue" stroke="midnightblue" points="155.053,-56.5619 165.648,-56.4435 157.292,-49.9295 155.053,-56.5619"/>
</g>
<!-- Node6 -->
<g id="node6" class="node"><title>Node6</title>
<g id="a_node6"><a xlink:href="a04523.html" target="_top" xlink:title=" ">
<polygon fill="white" stroke="black" points="80,-0.5 80,-19.5 142,-19.5 142,-0.5 80,-0.5"/>
<text text-anchor="middle" x="111" y="-7.5" font-family="Helvetica,sans-Serif" font-size="10.00">ch2_10.cc</text>
</a>
</g>
</g>
<!-- Node4&#45;&gt;Node6 -->
<g id="edge6" class="edge"><title>Node4&#45;&gt;Node6</title>
<path fill="none" stroke="midnightblue" d="M169.699,-50.6221C155.085,-40.7574 136.173,-27.9919 123.821,-19.6545"/>
<polygon fill="midnightblue" stroke="midnightblue" points="167.9,-53.6302 178.147,-56.324 171.816,-47.8282 167.9,-53.6302"/>
</g>
<!-- Node7 -->
<g id="node7" class="node"><title>Node7</title>
<g id="a_node7"><a xlink:href="a04526.html" target="_top" xlink:title=" ">
<polygon fill="white" stroke="black" points="160,-0.5 160,-19.5 222,-19.5 222,-0.5 160,-0.5"/>
<text text-anchor="middle" x="191" y="-7.5" font-family="Helvetica,sans-Serif" font-size="10.00">ch2_6.cxx</text>
</a>
</g>
</g>
<!-- Node4&#45;&gt;Node7 -->
<g id="edge7" class="edge"><title>Node4&#45;&gt;Node7</title>
<path fill="none" stroke="midnightblue" d="M191,-45.8045C191,-36.9102 191,-26.7798 191,-19.7511"/>
<polygon fill="midnightblue" stroke="midnightblue" points="187.5,-46.083 191,-56.083 194.5,-46.083 187.5,-46.083"/>
</g>
<!-- Node8 -->
<g id="node8" class="node"><title>Node8</title>
<g id="a_node8"><a xlink:href="a04535.html" target="_top" xlink:title=" ">
<polygon fill="white" stroke="black" points="240,-0.5 240,-19.5 302,-19.5 302,-0.5 240,-0.5"/>
<text text-anchor="middle" x="271" y="-7.5" font-family="Helvetica,sans-Serif" font-size="10.00">ch2_9.cpp</text>
</a>
</g>
</g>
<!-- Node4&#45;&gt;Node8 -->
<g id="edge8" class="edge"><title>Node4&#45;&gt;Node8</title>
<path fill="none" stroke="midnightblue" d="M212.301,-50.6221C226.915,-40.7574 245.827,-27.9919 258.179,-19.6545"/>
<polygon fill="midnightblue" stroke="midnightblue" points="210.184,-47.8282 203.853,-56.324 214.1,-53.6302 210.184,-47.8282"/>
</g>
<!-- Node9&#45;&gt;Node3 -->
<g id="edge12" class="edge"><title>Node9&#45;&gt;Node3</title>
<path fill="none" stroke="midnightblue" d="M292.153,-83.5112C283.199,-93.0168 270.824,-104.576 261.112,-112.324"/>
<polygon fill="midnightblue" stroke="midnightblue" points="294.952,-85.6301 298.988,-75.8339 289.724,-80.9754 294.952,-85.6301"/>
</g>
<!-- Node10 -->
<g id="node10" class="node"><title>Node10</title>
<g id="a_node10"><a xlink:href="a04529.html" target="_top" xlink:title=" ">
<polygon fill="white" stroke="black" points="320,-0.5 320,-19.5 376,-19.5 376,-0.5 320,-0.5"/>
<text text-anchor="middle" x="348" y="-7.5" font-family="Helvetica,sans-Serif" font-size="10.00">ch2_7.cc</text>
</a>
</g>
</g>
<!-- Node9&#45;&gt;Node10 -->
<g id="edge11" class="edge"><title>Node9&#45;&gt;Node10</title>
<path fill="none" stroke="midnightblue" d="M317.047,-48.144C324.887,-38.7357 334.329,-27.4046 340.707,-19.7511"/>
<polygon fill="midnightblue" stroke="midnightblue" points="314.144,-46.1601 310.431,-56.083 319.521,-50.6414 314.144,-46.1601"/>
</g>
</g>
</svg>
