<?xml version="1.0" encoding="UTF-8" standalone="no"?>
<!DOCTYPE svg PUBLIC "-//W3C//DTD SVG 1.1//EN"
 "http://www.w3.org/Graphics/SVG/1.1/DTD/svg11.dtd">
<!-- Generated by graphviz version 2.38.0 (20140413.2041)
 -->
<!-- Title: ch2_8.c++ Pages: 1 -->
<svg width="167pt" height="252pt"
 viewBox="0.00 0.00 167.50 252.00" xmlns="http://www.w3.org/2000/svg" xmlns:xlink="http://www.w3.org/1999/xlink">
<g id="graph0" class="graph" transform="scale(1 1) rotate(0) translate(4 248)">
<title>ch2_8.c++</title>
<polygon fill="white" stroke="none" points="-4,4 -4,-248 163.498,-248 163.498,4 -4,4"/>
<!-- Node1 -->
<g id="node1" class="node"><title>Node1</title>
<g id="a_node1"><a xlink:title=" ">
<polygon fill="#bfbfbf" stroke="black" points="85,-224.5 85,-243.5 148,-243.5 148,-224.5 85,-224.5"/>
<text text-anchor="middle" x="116.5" y="-231.5" font-family="Helvetica,sans-Serif" font-size="10.00">ch2_8.c++</text>
</a>
</g>
</g>
<!-- Node2 -->
<g id="node2" class="node"><title>Node2</title>
<g id="a_node2"><a xlink:href="a04538.html" target="_top" xlink:title=" ">
<polygon fill="white" stroke="black" points="84.5,-168.5 84.5,-187.5 148.5,-187.5 148.5,-168.5 84.5,-168.5"/>
<text text-anchor="middle" x="116.5" y="-175.5" font-family="Helvetica,sans-Serif" font-size="10.00">dLinkList.h</text>
</a>
</g>
</g>
<!-- Node1&#45;&gt;Node2 -->
<g id="edge1" class="edge"><title>Node1&#45;&gt;Node2</title>
<path fill="none" stroke="midnightblue" d="M116.5,-224.083C116.5,-217.006 116.5,-206.861 116.5,-197.986"/>
<polygon fill="midnightblue" stroke="midnightblue" points="120,-197.751 116.5,-187.751 113,-197.751 120,-197.751"/>
</g>
<!-- Node3 -->
<g id="node3" class="node"><title>Node3</title>
<g id="a_node3"><a xlink:href="a04541.html" target="_top" xlink:title=" ">
<polygon fill="white" stroke="black" points="96,-112.5 96,-131.5 137,-131.5 137,-112.5 96,-112.5"/>
<text text-anchor="middle" x="116.5" y="-119.5" font-family="Helvetica,sans-Serif" font-size="10.00">List.h</text>
</a>
</g>
</g>
<!-- Node2&#45;&gt;Node3 -->
<g id="edge2" class="edge"><title>Node2&#45;&gt;Node3</title>
<path fill="none" stroke="midnightblue" d="M111.334,-168.083C109.824,-160.927 109.394,-150.635 110.042,-141.691"/>
<polygon fill="midnightblue" stroke="midnightblue" points="113.515,-142.126 111.369,-131.751 106.577,-141.2 113.515,-142.126"/>
</g>
<!-- Node6 -->
<g id="node6" class="node"><title>Node6</title>
<g id="a_node6"><a xlink:title=" ">
<polygon fill="white" stroke="#bfbfbf" points="91.5,-0.5 91.5,-19.5 145.5,-19.5 145.5,-0.5 91.5,-0.5"/>
<text text-anchor="middle" x="118.5" y="-7.5" font-family="Helvetica,sans-Serif" font-size="10.00">iostream</text>
</a>
</g>
</g>
<!-- Node2&#45;&gt;Node6 -->
<g id="edge11" class="edge"><title>Node2&#45;&gt;Node6</title>
<path fill="none" stroke="midnightblue" d="M124.049,-168.378C131.112,-159.787 141.327,-145.904 146.5,-132 158.328,-100.208 164.509,-88.0847 153.5,-56 149.781,-45.161 142.267,-34.9216 135.151,-26.9566"/>
<polygon fill="midnightblue" stroke="midnightblue" points="137.501,-24.3498 128.056,-19.5497 132.446,-29.1922 137.501,-24.3498"/>
</g>
<!-- Node3&#45;&gt;Node2 -->
<g id="edge3" class="edge"><title>Node3&#45;&gt;Node2</title>
<path fill="none" stroke="midnightblue" d="M121.631,-131.751C123.157,-138.858 123.604,-149.136 122.972,-158.101"/>
<polygon fill="midnightblue" stroke="midnightblue" points="119.493,-157.713 121.666,-168.083 126.434,-158.622 119.493,-157.713"/>
</g>
<!-- Node4 -->
<g id="node4" class="node"><title>Node4</title>
<g id="a_node4"><a xlink:href="a04547.html" target="_top" xlink:title=" ">
<polygon fill="white" stroke="black" points="6.5,-56.5 6.5,-75.5 70.5,-75.5 70.5,-56.5 6.5,-56.5"/>
<text text-anchor="middle" x="38.5" y="-63.5" font-family="Helvetica,sans-Serif" font-size="10.00">sLinkList.h</text>
</a>
</g>
</g>
<!-- Node3&#45;&gt;Node4 -->
<g id="edge4" class="edge"><title>Node3&#45;&gt;Node4</title>
<path fill="none" stroke="midnightblue" d="M98.8531,-112.324C85.3344,-104.185 67.1644,-91.8395 54.1645,-82.0874"/>
<polygon fill="midnightblue" stroke="midnightblue" points="56.1563,-79.2028 46.1114,-75.8339 51.863,-84.7316 56.1563,-79.2028"/>
</g>
<!-- Node7 -->
<g id="node7" class="node"><title>Node7</title>
<g id="a_node7"><a xlink:href="a04544.html" target="_top" xlink:title=" ">
<polygon fill="white" stroke="black" points="88.5,-56.5 88.5,-75.5 144.5,-75.5 144.5,-56.5 88.5,-56.5"/>
<text text-anchor="middle" x="116.5" y="-63.5" font-family="Helvetica,sans-Serif" font-size="10.00">seqList.h</text>
</a>
</g>
</g>
<!-- Node3&#45;&gt;Node7 -->
<g id="edge8" class="edge"><title>Node3&#45;&gt;Node7</title>
<path fill="none" stroke="midnightblue" d="M111.334,-112.083C109.824,-104.927 109.394,-94.6353 110.042,-85.6911"/>
<polygon fill="midnightblue" stroke="midnightblue" points="113.515,-86.1262 111.369,-75.7511 106.577,-85.2002 113.515,-86.1262"/>
</g>
<!-- Node4&#45;&gt;Node3 -->
<g id="edge5" class="edge"><title>Node4&#45;&gt;Node3</title>
<path fill="none" stroke="midnightblue" d="M56.1111,-75.6545C69.702,-83.8346 88.0086,-96.2772 101.033,-106.061"/>
<polygon fill="midnightblue" stroke="midnightblue" points="99.041,-108.946 109.083,-112.324 103.34,-103.421 99.041,-108.946"/>
</g>
<!-- Node5 -->
<g id="node5" class="node"><title>Node5</title>
<g id="a_node5"><a xlink:title=" ">
<polygon fill="white" stroke="#bfbfbf" points="0,-0.5 0,-19.5 73,-19.5 73,-0.5 0,-0.5"/>
<text text-anchor="middle" x="36.5" y="-7.5" font-family="Helvetica,sans-Serif" font-size="10.00">initializer_list</text>
</a>
</g>
</g>
<!-- Node4&#45;&gt;Node5 -->
<g id="edge6" class="edge"><title>Node4&#45;&gt;Node5</title>
<path fill="none" stroke="midnightblue" d="M38.1697,-56.083C37.9076,-49.0059 37.5319,-38.8611 37.2032,-29.9865"/>
<polygon fill="midnightblue" stroke="midnightblue" points="40.6919,-29.6147 36.8241,-19.7511 33.6967,-29.8738 40.6919,-29.6147"/>
</g>
<!-- Node4&#45;&gt;Node6 -->
<g id="edge7" class="edge"><title>Node4&#45;&gt;Node6</title>
<path fill="none" stroke="midnightblue" d="M51.3534,-56.324C63.7164,-47.979 82.6301,-35.2122 97.2372,-25.3524"/>
<polygon fill="midnightblue" stroke="midnightblue" points="99.3482,-28.1503 105.679,-19.6545 95.4318,-22.3483 99.3482,-28.1503"/>
</g>
<!-- Node7&#45;&gt;Node3 -->
<g id="edge9" class="edge"><title>Node7&#45;&gt;Node3</title>
<path fill="none" stroke="midnightblue" d="M121.631,-75.7511C123.157,-82.8579 123.604,-93.1357 122.972,-102.101"/>
<polygon fill="midnightblue" stroke="midnightblue" points="119.493,-101.713 121.666,-112.083 126.434,-102.622 119.493,-101.713"/>
</g>
<!-- Node7&#45;&gt;Node6 -->
<g id="edge10" class="edge"><title>Node7&#45;&gt;Node6</title>
<path fill="none" stroke="midnightblue" d="M116.83,-56.083C117.092,-49.0059 117.468,-38.8611 117.797,-29.9865"/>
<polygon fill="midnightblue" stroke="midnightblue" points="121.303,-29.8738 118.176,-19.7511 114.308,-29.6147 121.303,-29.8738"/>
</g>
</g>
</svg>
