<?xml version="1.0" encoding="UTF-8" standalone="no"?>
<!DOCTYPE svg PUBLIC "-//W3C//DTD SVG 1.1//EN"
 "http://www.w3.org/Graphics/SVG/1.1/DTD/svg11.dtd">
<!-- Generated by graphviz version 2.38.0 (20140413.2041)
 -->
<!-- Title: ch2_10.cc Pages: 1 -->
<svg width="276pt" height="252pt"
 viewBox="0.00 0.00 275.50 252.00" xmlns="http://www.w3.org/2000/svg" xmlns:xlink="http://www.w3.org/1999/xlink">
<g id="graph0" class="graph" transform="scale(1 1) rotate(0) translate(4 248)">
<title>ch2_10.cc</title>
<polygon fill="white" stroke="none" points="-4,4 -4,-248 271.5,-248 271.5,4 -4,4"/>
<!-- Node1 -->
<g id="node1" class="node"><title>Node1</title>
<g id="a_node1"><a xlink:title=" ">
<polygon fill="#bfbfbf" stroke="black" points="107,-224.5 107,-243.5 169,-243.5 169,-224.5 107,-224.5"/>
<text text-anchor="middle" x="138" y="-231.5" font-family="Helvetica,sans-Serif" font-size="10.00">ch2_10.cc</text>
</a>
</g>
</g>
<!-- Node2 -->
<g id="node2" class="node"><title>Node2</title>
<g id="a_node2"><a xlink:href="a04547.html" target="_top" xlink:title=" ">
<polygon fill="white" stroke="black" points="106,-168.5 106,-187.5 170,-187.5 170,-168.5 106,-168.5"/>
<text text-anchor="middle" x="138" y="-175.5" font-family="Helvetica,sans-Serif" font-size="10.00">sLinkList.h</text>
</a>
</g>
</g>
<!-- Node1&#45;&gt;Node2 -->
<g id="edge1" class="edge"><title>Node1&#45;&gt;Node2</title>
<path fill="none" stroke="midnightblue" d="M138,-224.083C138,-217.006 138,-206.861 138,-197.986"/>
<polygon fill="midnightblue" stroke="midnightblue" points="141.5,-197.751 138,-187.751 134.5,-197.751 141.5,-197.751"/>
</g>
<!-- Node3 -->
<g id="node3" class="node"><title>Node3</title>
<g id="a_node3"><a xlink:href="a04541.html" target="_top" xlink:title=" ">
<polygon fill="white" stroke="black" points="89.5,-112.5 89.5,-131.5 130.5,-131.5 130.5,-112.5 89.5,-112.5"/>
<text text-anchor="middle" x="110" y="-119.5" font-family="Helvetica,sans-Serif" font-size="10.00">List.h</text>
</a>
</g>
</g>
<!-- Node2&#45;&gt;Node3 -->
<g id="edge2" class="edge"><title>Node2&#45;&gt;Node3</title>
<path fill="none" stroke="midnightblue" d="M128.21,-168.083C122.875,-160.77 116.969,-150.181 112.974,-141.103"/>
<polygon fill="midnightblue" stroke="midnightblue" points="116.241,-139.847 109.407,-131.751 109.7,-142.342 116.241,-139.847"/>
</g>
<!-- Node5 -->
<g id="node5" class="node"><title>Node5</title>
<g id="a_node5"><a xlink:title=" ">
<polygon fill="white" stroke="#bfbfbf" points="83,-0.5 83,-19.5 137,-19.5 137,-0.5 83,-0.5"/>
<text text-anchor="middle" x="110" y="-7.5" font-family="Helvetica,sans-Serif" font-size="10.00">iostream</text>
</a>
</g>
</g>
<!-- Node2&#45;&gt;Node5 -->
<g id="edge11" class="edge"><title>Node2&#45;&gt;Node5</title>
<path fill="none" stroke="midnightblue" d="M140.948,-168.467C147.452,-148.236 161.354,-96.0573 147,-56 143.059,-45.0027 135.143,-34.7688 127.64,-26.8479"/>
<polygon fill="midnightblue" stroke="midnightblue" points="130.019,-24.2784 120.438,-19.7555 125.108,-29.2659 130.019,-24.2784"/>
</g>
<!-- Node7 -->
<g id="node7" class="node"><title>Node7</title>
<g id="a_node7"><a xlink:title=" ">
<polygon fill="white" stroke="#bfbfbf" points="194.5,-112.5 194.5,-131.5 267.5,-131.5 267.5,-112.5 194.5,-112.5"/>
<text text-anchor="middle" x="231" y="-119.5" font-family="Helvetica,sans-Serif" font-size="10.00">initializer_list</text>
</a>
</g>
</g>
<!-- Node2&#45;&gt;Node7 -->
<g id="edge10" class="edge"><title>Node2&#45;&gt;Node7</title>
<path fill="none" stroke="midnightblue" d="M152.942,-168.324C167.585,-159.822 190.134,-146.729 207.238,-136.797"/>
<polygon fill="midnightblue" stroke="midnightblue" points="209.205,-139.703 216.095,-131.655 205.69,-133.649 209.205,-139.703"/>
</g>
<!-- Node3&#45;&gt;Node2 -->
<g id="edge6" class="edge"><title>Node3&#45;&gt;Node2</title>
<path fill="none" stroke="midnightblue" d="M119.669,-131.751C124.994,-139.014 130.91,-149.589 134.935,-158.69"/>
<polygon fill="midnightblue" stroke="midnightblue" points="131.69,-160.003 138.543,-168.083 138.225,-157.493 131.69,-160.003"/>
</g>
<!-- Node4 -->
<g id="node4" class="node"><title>Node4</title>
<g id="a_node4"><a xlink:href="a04538.html" target="_top" xlink:title=" ">
<polygon fill="white" stroke="black" points="0,-56.5 0,-75.5 64,-75.5 64,-56.5 0,-56.5"/>
<text text-anchor="middle" x="32" y="-63.5" font-family="Helvetica,sans-Serif" font-size="10.00">dLinkList.h</text>
</a>
</g>
</g>
<!-- Node3&#45;&gt;Node4 -->
<g id="edge3" class="edge"><title>Node3&#45;&gt;Node4</title>
<path fill="none" stroke="midnightblue" d="M92.3531,-112.324C78.8344,-104.185 60.6644,-91.8395 47.6645,-82.0874"/>
<polygon fill="midnightblue" stroke="midnightblue" points="49.6563,-79.2028 39.6114,-75.8339 45.363,-84.7316 49.6563,-79.2028"/>
</g>
<!-- Node6 -->
<g id="node6" class="node"><title>Node6</title>
<g id="a_node6"><a xlink:href="a04544.html" target="_top" xlink:title=" ">
<polygon fill="white" stroke="black" points="82,-56.5 82,-75.5 138,-75.5 138,-56.5 82,-56.5"/>
<text text-anchor="middle" x="110" y="-63.5" font-family="Helvetica,sans-Serif" font-size="10.00">seqList.h</text>
</a>
</g>
</g>
<!-- Node3&#45;&gt;Node6 -->
<g id="edge7" class="edge"><title>Node3&#45;&gt;Node6</title>
<path fill="none" stroke="midnightblue" d="M104.834,-112.083C103.324,-104.927 102.894,-94.6353 103.542,-85.6911"/>
<polygon fill="midnightblue" stroke="midnightblue" points="107.015,-86.1262 104.869,-75.7511 100.077,-85.2002 107.015,-86.1262"/>
</g>
<!-- Node4&#45;&gt;Node3 -->
<g id="edge4" class="edge"><title>Node4&#45;&gt;Node3</title>
<path fill="none" stroke="midnightblue" d="M49.6111,-75.6545C63.202,-83.8346 81.5086,-96.2772 94.5328,-106.061"/>
<polygon fill="midnightblue" stroke="midnightblue" points="92.541,-108.946 102.583,-112.324 96.8395,-103.421 92.541,-108.946"/>
</g>
<!-- Node4&#45;&gt;Node5 -->
<g id="edge5" class="edge"><title>Node4&#45;&gt;Node5</title>
<path fill="none" stroke="midnightblue" d="M44.532,-56.324C56.5859,-47.979 75.0268,-35.2122 89.2687,-25.3524"/>
<polygon fill="midnightblue" stroke="midnightblue" points="91.2694,-28.2243 97.4991,-19.6545 87.2849,-22.469 91.2694,-28.2243"/>
</g>
<!-- Node6&#45;&gt;Node3 -->
<g id="edge8" class="edge"><title>Node6&#45;&gt;Node3</title>
<path fill="none" stroke="midnightblue" d="M115.131,-75.7511C116.657,-82.8579 117.104,-93.1357 116.472,-102.101"/>
<polygon fill="midnightblue" stroke="midnightblue" points="112.993,-101.713 115.166,-112.083 119.934,-102.622 112.993,-101.713"/>
</g>
<!-- Node6&#45;&gt;Node5 -->
<g id="edge9" class="edge"><title>Node6&#45;&gt;Node5</title>
<path fill="none" stroke="midnightblue" d="M110,-56.083C110,-49.0059 110,-38.8611 110,-29.9865"/>
<polygon fill="midnightblue" stroke="midnightblue" points="113.5,-29.751 110,-19.7511 106.5,-29.7511 113.5,-29.751"/>
</g>
</g>
</svg>
