<?xml version="1.0" encoding="UTF-8" standalone="no"?>
<!DOCTYPE svg PUBLIC "-//W3C//DTD SVG 1.1//EN"
 "http://www.w3.org/Graphics/SVG/1.1/DTD/svg11.dtd">
<!-- Generated by graphviz version 2.38.0 (20140413.2041)
 -->
<!-- Title: List::sLinkList&lt; T &gt; Pages: 1 -->
<svg width="236pt" height="173pt"
 viewBox="0.00 0.00 235.50 173.00" xmlns="http://www.w3.org/2000/svg" xmlns:xlink="http://www.w3.org/1999/xlink">
<g id="graph0" class="graph" transform="scale(1 1) rotate(0) translate(4 169)">
<title>List::sLinkList&lt; T &gt;</title>
<polygon fill="white" stroke="none" points="-4,4 -4,-169 231.5,-169 231.5,4 -4,4"/>
<!-- Node1 -->
<g id="node1" class="node"><title>Node1</title>
<g id="a_node1"><a xlink:title=" ">
<polygon fill="#bfbfbf" stroke="black" points="22,-0.5 22,-19.5 123,-19.5 123,-0.5 22,-0.5"/>
<text text-anchor="middle" x="72.5" y="-7.5" font-family="Helvetica,sans-Serif" font-size="10.00">List::sLinkList&lt; T &gt;</text>
</a>
</g>
</g>
<!-- Node2 -->
<g id="node2" class="node"><title>Node2</title>
<g id="a_node2"><a xlink:href="a05389.html" target="_top" xlink:title=" ">
<polygon fill="white" stroke="black" points="0,-73 0,-92 77,-92 77,-73 0,-73"/>
<text text-anchor="middle" x="38.5" y="-80" font-family="Helvetica,sans-Serif" font-size="10.00">List::List&lt; T &gt;</text>
</a>
</g>
</g>
<!-- Node2&#45;&gt;Node1 -->
<g id="edge1" class="edge"><title>Node2&#45;&gt;Node1</title>
<path fill="none" stroke="midnightblue" d="M47.093,-63.6821C53.87,-49.63 63.029,-30.6384 68.2968,-19.7154"/>
<polygon fill="midnightblue" stroke="midnightblue" points="43.8605,-62.3277 42.6691,-72.8553 50.1656,-65.3685 43.8605,-62.3277"/>
</g>
<!-- Node3 -->
<g id="node3" class="node"><title>Node3</title>
<g id="a_node3"><a xlink:href="a05417.html" target="_top" xlink:title=" ">
<polygon fill="white" stroke="black" points="95.5,-67.5 95.5,-97.5 187.5,-97.5 187.5,-67.5 95.5,-67.5"/>
<text text-anchor="start" x="103.5" y="-85.5" font-family="Helvetica,sans-Serif" font-size="10.00">List::sLinkList&lt; T</text>
<text text-anchor="middle" x="141.5" y="-74.5" font-family="Helvetica,sans-Serif" font-size="10.00"> &gt;::node</text>
</a>
</g>
</g>
<!-- Node3&#45;&gt;Node1 -->
<g id="edge2" class="edge"><title>Node3&#45;&gt;Node1</title>
<path fill="none" stroke="#9a32cd" stroke-dasharray="5,2" d="M120.224,-59.7615C107.092,-46.3439 90.9476,-29.8487 81.2039,-19.8932"/>
<polygon fill="#9a32cd" stroke="#9a32cd" points="118.041,-62.5347 127.537,-67.2333 123.044,-57.6384 118.041,-62.5347"/>
<text text-anchor="middle" x="121" y="-41" font-family="Helvetica,sans-Serif" font-size="10.00"> head</text>
</g>
<!-- Node3&#45;&gt;Node3 -->
<g id="edge3" class="edge"><title>Node3&#45;&gt;Node3</title>
<path fill="none" stroke="#9a32cd" stroke-dasharray="5,2" d="M197.774,-88.0332C202.534,-86.8493 205.5,-85.0049 205.5,-82.5 205.5,-78.4922 197.906,-76.1752 187.524,-75.549"/>
<polygon fill="#9a32cd" stroke="#9a32cd" points="196.95,-84.6138 187.524,-89.451 197.909,-91.5478 196.95,-84.6138"/>
<text text-anchor="middle" x="216.5" y="-80" font-family="Helvetica,sans-Serif" font-size="10.00"> next</text>
</g>
<!-- Node4 -->
<g id="node4" class="node"><title>Node4</title>
<g id="a_node4"><a xlink:title=" ">
<polygon fill="white" stroke="#bfbfbf" points="127,-145.5 127,-164.5 156,-164.5 156,-145.5 127,-145.5"/>
<text text-anchor="middle" x="141.5" y="-152.5" font-family="Helvetica,sans-Serif" font-size="10.00">T</text>
</a>
</g>
</g>
<!-- Node4&#45;&gt;Node3 -->
<g id="edge4" class="edge"><title>Node4&#45;&gt;Node3</title>
<path fill="none" stroke="#9a32cd" stroke-dasharray="5,2" d="M141.5,-135.236C141.5,-123.408 141.5,-108.383 141.5,-97.5762"/>
<polygon fill="#9a32cd" stroke="#9a32cd" points="138,-135.355 141.5,-145.355 145,-135.355 138,-135.355"/>
<text text-anchor="middle" x="152.5" y="-119" font-family="Helvetica,sans-Serif" font-size="10.00"> data</text>
</g>
</g>
</svg>
