<?xml version="1.0" encoding="UTF-8" standalone="no"?>
<!DOCTYPE svg PUBLIC "-//W3C//DTD SVG 1.1//EN"
 "http://www.w3.org/Graphics/SVG/1.1/DTD/svg11.dtd">
<!-- Generated by graphviz version 2.38.0 (20140413.2041)
 -->
<!-- Title: List::sLinkList&lt; T &gt;::const_iterator Pages: 1 -->
<svg width="140pt" height="184pt"
 viewBox="0.00 0.00 140.00 184.00" xmlns="http://www.w3.org/2000/svg" xmlns:xlink="http://www.w3.org/1999/xlink">
<g id="graph0" class="graph" transform="scale(1 1) rotate(0) translate(4 180)">
<title>List::sLinkList&lt; T &gt;::const_iterator</title>
<polygon fill="white" stroke="none" points="-4,4 -4,-180 136,-180 136,4 -4,4"/>
<!-- Node1 -->
<g id="node1" class="node"><title>Node1</title>
<g id="a_node1"><a xlink:title=" ">
<polygon fill="#bfbfbf" stroke="black" points="0,-0.5 0,-30.5 92,-30.5 92,-0.5 0,-0.5"/>
<text text-anchor="start" x="8" y="-18.5" font-family="Helvetica,sans-Serif" font-size="10.00">List::sLinkList&lt; T</text>
<text text-anchor="middle" x="46" y="-7.5" font-family="Helvetica,sans-Serif" font-size="10.00"> &gt;::const_iterator</text>
</a>
</g>
</g>
<!-- Node2 -->
<g id="node2" class="node"><title>Node2</title>
<g id="a_node2"><a xlink:href="a05417.html" target="_top" xlink:title=" ">
<polygon fill="white" stroke="black" points="0,-78.5 0,-108.5 92,-108.5 92,-78.5 0,-78.5"/>
<text text-anchor="start" x="8" y="-96.5" font-family="Helvetica,sans-Serif" font-size="10.00">List::sLinkList&lt; T</text>
<text text-anchor="middle" x="46" y="-85.5" font-family="Helvetica,sans-Serif" font-size="10.00"> &gt;::node</text>
</a>
</g>
</g>
<!-- Node2&#45;&gt;Node1 -->
<g id="edge1" class="edge"><title>Node2&#45;&gt;Node1</title>
<path fill="none" stroke="#9a32cd" stroke-dasharray="5,2" d="M46,-68.0898C46,-55.7565 46,-41.2237 46,-30.7309"/>
<polygon fill="#9a32cd" stroke="#9a32cd" points="42.5001,-68.2049 46,-78.205 49.5001,-68.205 42.5001,-68.2049"/>
<text text-anchor="middle" x="63" y="-52" font-family="Helvetica,sans-Serif" font-size="10.00"> current</text>
</g>
<!-- Node2&#45;&gt;Node2 -->
<g id="edge2" class="edge"><title>Node2&#45;&gt;Node2</title>
<path fill="none" stroke="#9a32cd" stroke-dasharray="5,2" d="M102.274,-99.0332C107.034,-97.8493 110,-96.0049 110,-93.5 110,-89.4922 102.406,-87.1752 92.0242,-86.549"/>
<polygon fill="#9a32cd" stroke="#9a32cd" points="101.45,-95.6138 92.0242,-100.451 102.409,-102.548 101.45,-95.6138"/>
<text text-anchor="middle" x="121" y="-91" font-family="Helvetica,sans-Serif" font-size="10.00"> next</text>
</g>
<!-- Node3 -->
<g id="node3" class="node"><title>Node3</title>
<g id="a_node3"><a xlink:title=" ">
<polygon fill="white" stroke="#bfbfbf" points="31.5,-156.5 31.5,-175.5 60.5,-175.5 60.5,-156.5 31.5,-156.5"/>
<text text-anchor="middle" x="46" y="-163.5" font-family="Helvetica,sans-Serif" font-size="10.00">T</text>
</a>
</g>
</g>
<!-- Node3&#45;&gt;Node2 -->
<g id="edge3" class="edge"><title>Node3&#45;&gt;Node2</title>
<path fill="none" stroke="#9a32cd" stroke-dasharray="5,2" d="M46,-146.236C46,-134.408 46,-119.383 46,-108.576"/>
<polygon fill="#9a32cd" stroke="#9a32cd" points="42.5001,-146.355 46,-156.355 49.5001,-146.355 42.5001,-146.355"/>
<text text-anchor="middle" x="57" y="-130" font-family="Helvetica,sans-Serif" font-size="10.00"> data</text>
</g>
</g>
</svg>
