<?xml version="1.0" encoding="UTF-8" standalone="no"?>
<!DOCTYPE svg PUBLIC "-//W3C//DTD SVG 1.1//EN"
 "http://www.w3.org/Graphics/SVG/1.1/DTD/svg11.dtd">
<!-- Generated by graphviz version 2.38.0 (20140413.2041)
 -->
<!-- Title: ch2_7.cc Pages: 1 -->
<svg width="172pt" height="252pt"
 viewBox="0.00 0.00 171.87 252.00" xmlns="http://www.w3.org/2000/svg" xmlns:xlink="http://www.w3.org/1999/xlink">
<g id="graph0" class="graph" transform="scale(1 1) rotate(0) translate(4 248)">
<title>ch2_7.cc</title>
<polygon fill="white" stroke="none" points="-4,4 -4,-248 167.871,-248 167.871,4 -4,4"/>
<!-- Node1 -->
<g id="node1" class="node"><title>Node1</title>
<g id="a_node1"><a xlink:title=" ">
<polygon fill="#bfbfbf" stroke="black" points="90.5,-224.5 90.5,-243.5 146.5,-243.5 146.5,-224.5 90.5,-224.5"/>
<text text-anchor="middle" x="118.5" y="-231.5" font-family="Helvetica,sans-Serif" font-size="10.00">ch2_7.cc</text>
</a>
</g>
</g>
<!-- Node2 -->
<g id="node2" class="node"><title>Node2</title>
<g id="a_node2"><a xlink:href="seq_list_8h.html" target="_top" xlink:title=" ">
<polygon fill="white" stroke="black" points="90.5,-168.5 90.5,-187.5 146.5,-187.5 146.5,-168.5 90.5,-168.5"/>
<text text-anchor="middle" x="118.5" y="-175.5" font-family="Helvetica,sans-Serif" font-size="10.00">seqList.h</text>
</a>
</g>
</g>
<!-- Node1&#45;&gt;Node2 -->
<g id="edge1" class="edge"><title>Node1&#45;&gt;Node2</title>
<path fill="none" stroke="midnightblue" d="M118.5,-224.083C118.5,-217.006 118.5,-206.861 118.5,-197.986"/>
<polygon fill="midnightblue" stroke="midnightblue" points="122,-197.751 118.5,-187.751 115,-197.751 122,-197.751"/>
</g>
<!-- Node3 -->
<g id="node3" class="node"><title>Node3</title>
<g id="a_node3"><a xlink:href="_list_8h.html" target="_top" xlink:title=" ">
<polygon fill="white" stroke="black" points="98,-112.5 98,-131.5 139,-131.5 139,-112.5 98,-112.5"/>
<text text-anchor="middle" x="118.5" y="-119.5" font-family="Helvetica,sans-Serif" font-size="10.00">List.h</text>
</a>
</g>
</g>
<!-- Node2&#45;&gt;Node3 -->
<g id="edge2" class="edge"><title>Node2&#45;&gt;Node3</title>
<path fill="none" stroke="midnightblue" d="M113.334,-168.083C111.824,-160.927 111.394,-150.635 112.042,-141.691"/>
<polygon fill="midnightblue" stroke="midnightblue" points="115.515,-142.126 113.369,-131.751 108.577,-141.2 115.515,-142.126"/>
</g>
<!-- Node5 -->
<g id="node5" class="node"><title>Node5</title>
<g id="a_node5"><a xlink:title=" ">
<polygon fill="white" stroke="#bfbfbf" points="91.5,-0.5 91.5,-19.5 145.5,-19.5 145.5,-0.5 91.5,-0.5"/>
<text text-anchor="middle" x="118.5" y="-7.5" font-family="Helvetica,sans-Serif" font-size="10.00">iostream</text>
</a>
</g>
</g>
<!-- Node2&#45;&gt;Node5 -->
<g id="edge11" class="edge"><title>Node2&#45;&gt;Node5</title>
<path fill="none" stroke="midnightblue" d="M125.594,-168.401C141.142,-148.457 175.599,-97.5738 159.5,-56 155.046,-44.498 146.132,-34.1311 137.751,-26.2546"/>
<polygon fill="midnightblue" stroke="midnightblue" points="139.872,-23.4599 130.041,-19.5103 135.263,-28.7286 139.872,-23.4599"/>
</g>
<!-- Node3&#45;&gt;Node2 -->
<g id="edge10" class="edge"><title>Node3&#45;&gt;Node2</title>
<path fill="none" stroke="midnightblue" d="M123.631,-131.751C125.157,-138.858 125.604,-149.136 124.972,-158.101"/>
<polygon fill="midnightblue" stroke="midnightblue" points="121.493,-157.713 123.666,-168.083 128.434,-158.622 121.493,-157.713"/>
</g>
<!-- Node4 -->
<g id="node4" class="node"><title>Node4</title>
<g id="a_node4"><a xlink:href="d_link_list_8h.html" target="_top" xlink:title=" ">
<polygon fill="white" stroke="black" points="86.5,-56.5 86.5,-75.5 150.5,-75.5 150.5,-56.5 86.5,-56.5"/>
<text text-anchor="middle" x="118.5" y="-63.5" font-family="Helvetica,sans-Serif" font-size="10.00">dLinkList.h</text>
</a>
</g>
</g>
<!-- Node3&#45;&gt;Node4 -->
<g id="edge3" class="edge"><title>Node3&#45;&gt;Node4</title>
<path fill="none" stroke="midnightblue" d="M113.334,-112.083C111.824,-104.927 111.394,-94.6353 112.042,-85.6911"/>
<polygon fill="midnightblue" stroke="midnightblue" points="115.515,-86.1262 113.369,-75.7511 108.577,-85.2002 115.515,-86.1262"/>
</g>
<!-- Node6 -->
<g id="node6" class="node"><title>Node6</title>
<g id="a_node6"><a xlink:href="s_link_list_8h.html" target="_top" xlink:title=" ">
<polygon fill="white" stroke="black" points="4.5,-56.5 4.5,-75.5 68.5,-75.5 68.5,-56.5 4.5,-56.5"/>
<text text-anchor="middle" x="36.5" y="-63.5" font-family="Helvetica,sans-Serif" font-size="10.00">sLinkList.h</text>
</a>
</g>
</g>
<!-- Node3&#45;&gt;Node6 -->
<g id="edge6" class="edge"><title>Node3&#45;&gt;Node6</title>
<path fill="none" stroke="midnightblue" d="M100.21,-112.324C85.9531,-104.107 66.6368,-91.6017 52.8878,-81.8069"/>
<polygon fill="midnightblue" stroke="midnightblue" points="54.8954,-78.9388 44.7657,-75.8339 50.7483,-84.578 54.8954,-78.9388"/>
</g>
<!-- Node4&#45;&gt;Node3 -->
<g id="edge4" class="edge"><title>Node4&#45;&gt;Node3</title>
<path fill="none" stroke="midnightblue" d="M123.631,-75.7511C125.157,-82.8579 125.604,-93.1357 124.972,-102.101"/>
<polygon fill="midnightblue" stroke="midnightblue" points="121.493,-101.713 123.666,-112.083 128.434,-102.622 121.493,-101.713"/>
</g>
<!-- Node4&#45;&gt;Node5 -->
<g id="edge5" class="edge"><title>Node4&#45;&gt;Node5</title>
<path fill="none" stroke="midnightblue" d="M118.5,-56.083C118.5,-49.0059 118.5,-38.8611 118.5,-29.9865"/>
<polygon fill="midnightblue" stroke="midnightblue" points="122,-29.751 118.5,-19.7511 115,-29.7511 122,-29.751"/>
</g>
<!-- Node6&#45;&gt;Node3 -->
<g id="edge7" class="edge"><title>Node6&#45;&gt;Node3</title>
<path fill="none" stroke="midnightblue" d="M54.7522,-75.6545C69.0855,-83.9132 88.5475,-96.5169 102.321,-106.342"/>
<polygon fill="midnightblue" stroke="midnightblue" points="100.313,-109.21 110.44,-112.324 104.465,-103.574 100.313,-109.21"/>
</g>
<!-- Node6&#45;&gt;Node5 -->
<g id="edge9" class="edge"><title>Node6&#45;&gt;Node5</title>
<path fill="none" stroke="midnightblue" d="M49.6747,-56.324C62.3468,-47.979 81.7334,-35.2122 96.7056,-25.3524"/>
<polygon fill="midnightblue" stroke="midnightblue" points="98.9312,-28.0776 105.358,-19.6545 95.0813,-22.2313 98.9312,-28.0776"/>
</g>
<!-- Node7 -->
<g id="node7" class="node"><title>Node7</title>
<g id="a_node7"><a xlink:title=" ">
<polygon fill="white" stroke="#bfbfbf" points="0,-0.5 0,-19.5 73,-19.5 73,-0.5 0,-0.5"/>
<text text-anchor="middle" x="36.5" y="-7.5" font-family="Helvetica,sans-Serif" font-size="10.00">initializer_list</text>
</a>
</g>
</g>
<!-- Node6&#45;&gt;Node7 -->
<g id="edge8" class="edge"><title>Node6&#45;&gt;Node7</title>
<path fill="none" stroke="midnightblue" d="M36.5,-56.083C36.5,-49.0059 36.5,-38.8611 36.5,-29.9865"/>
<polygon fill="midnightblue" stroke="midnightblue" points="40.0001,-29.751 36.5,-19.7511 33.0001,-29.7511 40.0001,-29.751"/>
</g>
</g>
</svg>
