<?xml version="1.0" encoding="UTF-8" standalone="no"?>
<!DOCTYPE svg PUBLIC "-//W3C//DTD SVG 1.1//EN"
 "http://www.w3.org/Graphics/SVG/1.1/DTD/svg11.dtd">
<!-- Generated by graphviz version 2.38.0 (20140413.2041)
 -->
<!-- Title: main Pages: 1 -->
<svg width="199pt" height="78pt"
 viewBox="0.00 0.00 199.00 77.50" xmlns="http://www.w3.org/2000/svg" xmlns:xlink="http://www.w3.org/1999/xlink">
<g id="graph0" class="graph" transform="scale(1 1) rotate(0) translate(4 73.5)">
<title>main</title>
<polygon fill="white" stroke="none" points="-4,4 -4,-73.5 195,-73.5 195,4 -4,4"/>
<!-- Node1 -->
<g id="node1" class="node"><title>Node1</title>
<g id="a_node1"><a xlink:title=" ">
<polygon fill="#bfbfbf" stroke="black" points="0,-22.5 0,-41.5 38,-41.5 38,-22.5 0,-22.5"/>
<text text-anchor="middle" x="19" y="-29.5" font-family="Helvetica,sans-Serif" font-size="10.00">main</text>
</a>
</g>
</g>
<!-- Node2 -->
<g id="node2" class="node"><title>Node2</title>
<g id="a_node2"><a xlink:href="class_list_1_1s_link_list_1_1const__iterator.html#a777ef64002d7ef2ad4949f3d525230ae" target="_top" xlink:title=" ">
<polygon fill="white" stroke="black" points="79,-39 79,-69 186,-69 186,-39 79,-39"/>
<text text-anchor="start" x="87" y="-57" font-family="Helvetica,sans-Serif" font-size="10.00">List::sLinkList::const</text>
<text text-anchor="middle" x="132.5" y="-46" font-family="Helvetica,sans-Serif" font-size="10.00">_iterator::isEnd</text>
</a>
</g>
</g>
<!-- Node1&#45;&gt;Node2 -->
<g id="edge1" class="edge"><title>Node1&#45;&gt;Node2</title>
<path fill="none" stroke="midnightblue" d="M38.412,-35.6329C47.0232,-37.3319 57.8339,-39.465 69.0114,-41.6704"/>
<polygon fill="midnightblue" stroke="midnightblue" points="68.394,-45.116 78.8824,-43.6181 69.7491,-38.2484 68.394,-45.116"/>
</g>
<!-- Node3 -->
<g id="node3" class="node"><title>Node3</title>
<g id="a_node3"><a xlink:href="class_list_1_1s_link_list.html#ad6261c75f8a240869d5a0dcd426e1175" target="_top" xlink:title=" ">
<polygon fill="white" stroke="black" points="74,-0.5 74,-19.5 191,-19.5 191,-0.5 74,-0.5"/>
<text text-anchor="middle" x="132.5" y="-7.5" font-family="Helvetica,sans-Serif" font-size="10.00">List::sLinkList::traverse</text>
</a>
</g>
</g>
<!-- Node1&#45;&gt;Node3 -->
<g id="edge2" class="edge"><title>Node1&#45;&gt;Node3</title>
<path fill="none" stroke="midnightblue" d="M38.412,-28.3671C48.0756,-26.4604 60.5094,-24.0071 73.1229,-21.5183"/>
<polygon fill="midnightblue" stroke="midnightblue" points="74.0945,-24.8942 83.2278,-19.5246 72.7394,-18.0266 74.0945,-24.8942"/>
</g>
</g>
</svg>
