<?xml version="1.0" encoding="UTF-8" standalone="no"?>
<!DOCTYPE svg PUBLIC "-//W3C//DTD SVG 1.1//EN"
 "http://www.w3.org/Graphics/SVG/1.1/DTD/svg11.dtd">
<!-- Generated by graphviz version 2.38.0 (20140413.2041)
 -->
<!-- Title: List::sLinkList::insert Pages: 1 -->
<svg width="273pt" height="66pt"
 viewBox="0.00 0.00 273.00 66.00" xmlns="http://www.w3.org/2000/svg" xmlns:xlink="http://www.w3.org/1999/xlink">
<g id="graph0" class="graph" transform="scale(1 1) rotate(0) translate(4 62)">
<title>List::sLinkList::insert</title>
<polygon fill="white" stroke="none" points="-4,4 -4,-62 269,-62 269,4 -4,4"/>
<!-- Node1 -->
<g id="node1" class="node"><title>Node1</title>
<g id="a_node1"><a xlink:title=" ">
<polygon fill="#bfbfbf" stroke="black" points="158,-19.5 158,-38.5 265,-38.5 265,-19.5 158,-19.5"/>
<text text-anchor="middle" x="211.5" y="-26.5" font-family="Helvetica,sans-Serif" font-size="10.00">List::sLinkList::insert</text>
</a>
</g>
</g>
<!-- Node2 -->
<g id="node2" class="node"><title>Node2</title>
<g id="a_node2"><a xlink:href="ch2__1_8cxx.html#abf9e6b7e6f15df4b525a2e7705ba3089" target="_top" xlink:title=" ">
<polygon fill="white" stroke="black" points="42,-38.5 42,-57.5 80,-57.5 80,-38.5 42,-38.5"/>
<text text-anchor="middle" x="61" y="-45.5" font-family="Helvetica,sans-Serif" font-size="10.00">main</text>
</a>
</g>
</g>
<!-- Node1&#45;&gt;Node2 -->
<g id="edge1" class="edge"><title>Node1&#45;&gt;Node2</title>
<path fill="none" stroke="midnightblue" d="M147.76,-37.0273C123.344,-40.1512 97.2268,-43.4929 80.316,-45.6565"/>
<polygon fill="midnightblue" stroke="midnightblue" points="148.251,-40.4931 157.726,-35.7522 147.363,-33.5497 148.251,-40.4931"/>
</g>
<!-- Node3 -->
<g id="node3" class="node"><title>Node3</title>
<g id="a_node3"><a xlink:href="class_list_1_1s_link_list.html#a80837fc0a4a7407adc6a4bc0557c378a" target="_top" xlink:title=" ">
<polygon fill="white" stroke="black" points="0,-0.5 0,-19.5 122,-19.5 122,-0.5 0,-0.5"/>
<text text-anchor="middle" x="61" y="-7.5" font-family="Helvetica,sans-Serif" font-size="10.00">List::sLinkList::sLinkList</text>
</a>
</g>
</g>
<!-- Node1&#45;&gt;Node3 -->
<g id="edge2" class="edge"><title>Node1&#45;&gt;Node3</title>
<path fill="none" stroke="midnightblue" d="M147.591,-20.9511C139.177,-19.8744 130.563,-18.7724 122.197,-17.7019"/>
<polygon fill="midnightblue" stroke="midnightblue" points="147.363,-24.4503 157.726,-22.2478 148.251,-17.5069 147.363,-24.4503"/>
</g>
</g>
</svg>
