<?xml version="1.0" encoding="UTF-8" standalone="no"?>
<!DOCTYPE svg PUBLIC "-//W3C//DTD SVG 1.1//EN"
 "http://www.w3.org/Graphics/SVG/1.1/DTD/svg11.dtd">
<!-- Generated by graphviz version 2.38.0 (20140413.2041)
 -->
<!-- Title: List::sLinkList&lt; T &gt;::iterator Pages: 1 -->
<svg width="140pt" height="252pt"
 viewBox="0.00 0.00 140.00 252.00" xmlns="http://www.w3.org/2000/svg" xmlns:xlink="http://www.w3.org/1999/xlink">
<g id="graph0" class="graph" transform="scale(1 1) rotate(0) translate(4 248)">
<title>List::sLinkList&lt; T &gt;::iterator</title>
<polygon fill="white" stroke="none" points="-4,4 -4,-248 136,-248 136,4 -4,4"/>
<!-- Node1 -->
<g id="node1" class="node"><title>Node1</title>
<g id="a_node1"><a xlink:title=" ">
<polygon fill="#bfbfbf" stroke="black" points="0,-0.5 0,-30.5 92,-30.5 92,-0.5 0,-0.5"/>
<text text-anchor="start" x="8" y="-18.5" font-family="Helvetica,sans-Serif" font-size="10.00">List::sLinkList&lt; T</text>
<text text-anchor="middle" x="46" y="-7.5" font-family="Helvetica,sans-Serif" font-size="10.00"> &gt;::iterator</text>
</a>
</g>
</g>
<!-- Node2 -->
<g id="node2" class="node"><title>Node2</title>
<g id="a_node2"><a xlink:href="class_list_1_1s_link_list_1_1const__iterator.html" target="_top" xlink:title=" ">
<polygon fill="white" stroke="black" points="0,-68.5 0,-98.5 92,-98.5 92,-68.5 0,-68.5"/>
<text text-anchor="start" x="8" y="-86.5" font-family="Helvetica,sans-Serif" font-size="10.00">List::sLinkList&lt; T</text>
<text text-anchor="middle" x="46" y="-75.5" font-family="Helvetica,sans-Serif" font-size="10.00"> &gt;::const_iterator</text>
</a>
</g>
</g>
<!-- Node2&#45;&gt;Node1 -->
<g id="edge1" class="edge"><title>Node2&#45;&gt;Node1</title>
<path fill="none" stroke="midnightblue" d="M46,-58.0322C46,-48.8606 46,-38.7449 46,-30.7931"/>
<polygon fill="midnightblue" stroke="midnightblue" points="42.5001,-58.1789 46,-68.179 49.5001,-58.179 42.5001,-58.1789"/>
</g>
<!-- Node3 -->
<g id="node3" class="node"><title>Node3</title>
<g id="a_node3"><a xlink:href="struct_list_1_1s_link_list_1_1node.html" target="_top" xlink:title=" ">
<polygon fill="white" stroke="black" points="0,-146.5 0,-176.5 92,-176.5 92,-146.5 0,-146.5"/>
<text text-anchor="start" x="8" y="-164.5" font-family="Helvetica,sans-Serif" font-size="10.00">List::sLinkList&lt; T</text>
<text text-anchor="middle" x="46" y="-153.5" font-family="Helvetica,sans-Serif" font-size="10.00"> &gt;::node</text>
</a>
</g>
</g>
<!-- Node3&#45;&gt;Node2 -->
<g id="edge2" class="edge"><title>Node3&#45;&gt;Node2</title>
<path fill="none" stroke="#9a32cd" stroke-dasharray="5,2" d="M46,-136.09C46,-123.757 46,-109.224 46,-98.7309"/>
<polygon fill="#9a32cd" stroke="#9a32cd" points="42.5001,-136.205 46,-146.205 49.5001,-136.205 42.5001,-136.205"/>
<text text-anchor="middle" x="63" y="-120" font-family="Helvetica,sans-Serif" font-size="10.00"> current</text>
</g>
<!-- Node3&#45;&gt;Node3 -->
<g id="edge3" class="edge"><title>Node3&#45;&gt;Node3</title>
<path fill="none" stroke="#9a32cd" stroke-dasharray="5,2" d="M102.274,-167.033C107.034,-165.849 110,-164.005 110,-161.5 110,-157.492 102.406,-155.175 92.0242,-154.549"/>
<polygon fill="#9a32cd" stroke="#9a32cd" points="101.45,-163.614 92.0242,-168.451 102.409,-170.548 101.45,-163.614"/>
<text text-anchor="middle" x="121" y="-159" font-family="Helvetica,sans-Serif" font-size="10.00"> next</text>
</g>
<!-- Node4 -->
<g id="node4" class="node"><title>Node4</title>
<g id="a_node4"><a xlink:title=" ">
<polygon fill="white" stroke="#bfbfbf" points="31.5,-224.5 31.5,-243.5 60.5,-243.5 60.5,-224.5 31.5,-224.5"/>
<text text-anchor="middle" x="46" y="-231.5" font-family="Helvetica,sans-Serif" font-size="10.00">T</text>
</a>
</g>
</g>
<!-- Node4&#45;&gt;Node3 -->
<g id="edge4" class="edge"><title>Node4&#45;&gt;Node3</title>
<path fill="none" stroke="#9a32cd" stroke-dasharray="5,2" d="M46,-214.236C46,-202.408 46,-187.383 46,-176.576"/>
<polygon fill="#9a32cd" stroke="#9a32cd" points="42.5001,-214.355 46,-224.355 49.5001,-214.355 42.5001,-214.355"/>
<text text-anchor="middle" x="57" y="-198" font-family="Helvetica,sans-Serif" font-size="10.00"> data</text>
</g>
</g>
</svg>
