<?xml version="1.0" encoding="UTF-8" standalone="no"?>
<!DOCTYPE svg PUBLIC "-//W3C//DTD SVG 1.1//EN"
 "http://www.w3.org/Graphics/SVG/1.1/DTD/svg11.dtd">
<!-- Generated by graphviz version 2.38.0 (20140413.2041)
 -->
<!-- Title: include/sLinkList.h Pages: 1 -->
<svg width="466pt" height="196pt"
 viewBox="0.00 0.00 466.00 196.00" xmlns="http://www.w3.org/2000/svg" xmlns:xlink="http://www.w3.org/1999/xlink">
<g id="graph0" class="graph" transform="scale(1 1) rotate(0) translate(4 192)">
<title>include/sLinkList.h</title>
<polygon fill="white" stroke="none" points="-4,4 -4,-192 462,-192 462,4 -4,4"/>
<!-- Node1 -->
<g id="node1" class="node"><title>Node1</title>
<g id="a_node1"><a xlink:title=" ">
<polygon fill="#bfbfbf" stroke="black" points="182,-168.5 182,-187.5 280,-187.5 280,-168.5 182,-168.5"/>
<text text-anchor="middle" x="231" y="-175.5" font-family="Helvetica,sans-Serif" font-size="10.00">include/sLinkList.h</text>
</a>
</g>
</g>
<!-- Node2 -->
<g id="node2" class="node"><title>Node2</title>
<g id="a_node2"><a xlink:href="ch2__1_8cxx.html" target="_top" xlink:title=" ">
<polygon fill="white" stroke="black" points="0,-112.5 0,-131.5 62,-131.5 62,-112.5 0,-112.5"/>
<text text-anchor="middle" x="31" y="-119.5" font-family="Helvetica,sans-Serif" font-size="10.00">ch2_1.cxx</text>
</a>
</g>
</g>
<!-- Node1&#45;&gt;Node2 -->
<g id="edge1" class="edge"><title>Node1&#45;&gt;Node2</title>
<path fill="none" stroke="midnightblue" d="M189.596,-165.821C151.714,-155.593 96.4987,-140.685 62.2131,-131.428"/>
<polygon fill="midnightblue" stroke="midnightblue" points="188.743,-169.216 199.309,-168.444 190.567,-162.458 188.743,-169.216"/>
</g>
<!-- Node3 -->
<g id="node3" class="node"><title>Node3</title>
<g id="a_node3"><a xlink:href="ch2__10_8cc.html" target="_top" xlink:title=" ">
<polygon fill="white" stroke="black" points="80,-112.5 80,-131.5 142,-131.5 142,-112.5 80,-112.5"/>
<text text-anchor="middle" x="111" y="-119.5" font-family="Helvetica,sans-Serif" font-size="10.00">ch2_10.cc</text>
</a>
</g>
</g>
<!-- Node1&#45;&gt;Node3 -->
<g id="edge2" class="edge"><title>Node1&#45;&gt;Node3</title>
<path fill="none" stroke="midnightblue" d="M202.627,-164.232C180.18,-154.131 149.465,-140.309 129.925,-131.516"/>
<polygon fill="midnightblue" stroke="midnightblue" points="201.43,-167.532 211.986,-168.444 204.303,-161.148 201.43,-167.532"/>
</g>
<!-- Node4 -->
<g id="node4" class="node"><title>Node4</title>
<g id="a_node4"><a xlink:href="ch2__6_8cxx.html" target="_top" xlink:title=" ">
<polygon fill="white" stroke="black" points="160,-112.5 160,-131.5 222,-131.5 222,-112.5 160,-112.5"/>
<text text-anchor="middle" x="191" y="-119.5" font-family="Helvetica,sans-Serif" font-size="10.00">ch2_6.cxx</text>
</a>
</g>
</g>
<!-- Node1&#45;&gt;Node4 -->
<g id="edge3" class="edge"><title>Node1&#45;&gt;Node4</title>
<path fill="none" stroke="midnightblue" d="M218.3,-159.855C211.374,-150.505 203.094,-139.327 197.482,-131.751"/>
<polygon fill="midnightblue" stroke="midnightblue" points="215.63,-162.131 224.395,-168.083 221.255,-157.964 215.63,-162.131"/>
</g>
<!-- Node5 -->
<g id="node5" class="node"><title>Node5</title>
<g id="a_node5"><a xlink:href="ch2__9_8cpp.html" target="_top" xlink:title=" ">
<polygon fill="white" stroke="black" points="240,-112.5 240,-131.5 302,-131.5 302,-112.5 240,-112.5"/>
<text text-anchor="middle" x="271" y="-119.5" font-family="Helvetica,sans-Serif" font-size="10.00">ch2_9.cpp</text>
</a>
</g>
</g>
<!-- Node1&#45;&gt;Node5 -->
<g id="edge4" class="edge"><title>Node1&#45;&gt;Node5</title>
<path fill="none" stroke="midnightblue" d="M243.7,-159.855C250.626,-150.505 258.906,-139.327 264.518,-131.751"/>
<polygon fill="midnightblue" stroke="midnightblue" points="240.745,-157.964 237.605,-168.083 246.37,-162.131 240.745,-157.964"/>
</g>
<!-- Node6 -->
<g id="node6" class="node"><title>Node6</title>
<g id="a_node6"><a xlink:href="_list_8h.html" target="_top" xlink:title=" ">
<polygon fill="white" stroke="black" points="320,-112.5 320,-131.5 394,-131.5 394,-112.5 320,-112.5"/>
<text text-anchor="middle" x="357" y="-119.5" font-family="Helvetica,sans-Serif" font-size="10.00">include/List.h</text>
</a>
</g>
</g>
<!-- Node1&#45;&gt;Node6 -->
<g id="edge5" class="edge"><title>Node1&#45;&gt;Node6</title>
<path fill="none" stroke="midnightblue" d="M254.956,-164.232C277.092,-154.131 309.595,-140.309 332.048,-131.516"/>
<polygon fill="midnightblue" stroke="midnightblue" points="253.475,-161.061 245.876,-168.444 256.421,-167.411 253.475,-161.061"/>
</g>
<!-- Node6&#45;&gt;Node1 -->
<g id="edge9" class="edge"><title>Node6&#45;&gt;Node1</title>
<path fill="none" stroke="midnightblue" d="M332.847,-135.858C310.749,-145.935 278.437,-159.675 256.054,-168.444"/>
<polygon fill="midnightblue" stroke="midnightblue" points="334.609,-138.899 342.208,-131.516 331.664,-132.548 334.609,-138.899"/>
</g>
<!-- Node7 -->
<g id="node7" class="node"><title>Node7</title>
<g id="a_node7"><a xlink:href="d_link_list_8h.html" target="_top" xlink:title=" ">
<polygon fill="white" stroke="black" points="252,-56.5 252,-75.5 350,-75.5 350,-56.5 252,-56.5"/>
<text text-anchor="middle" x="301" y="-63.5" font-family="Helvetica,sans-Serif" font-size="10.00">include/dLinkList.h</text>
</a>
</g>
</g>
<!-- Node6&#45;&gt;Node7 -->
<g id="edge6" class="edge"><title>Node6&#45;&gt;Node7</title>
<path fill="none" stroke="midnightblue" d="M335.119,-105.82C324.019,-96.1452 311.7,-83.9481 305.012,-75.8339"/>
<polygon fill="midnightblue" stroke="midnightblue" points="332.973,-108.588 342.888,-112.324 337.467,-103.221 332.973,-108.588"/>
</g>
<!-- Node9 -->
<g id="node9" class="node"><title>Node9</title>
<g id="a_node9"><a xlink:href="seq_list_8h.html" target="_top" xlink:title=" ">
<polygon fill="white" stroke="black" points="368,-56.5 368,-75.5 458,-75.5 458,-56.5 368,-56.5"/>
<text text-anchor="middle" x="413" y="-63.5" font-family="Helvetica,sans-Serif" font-size="10.00">include/seqList.h</text>
</a>
</g>
</g>
<!-- Node6&#45;&gt;Node9 -->
<g id="edge10" class="edge"><title>Node6&#45;&gt;Node9</title>
<path fill="none" stroke="midnightblue" d="M367.902,-104.431C376.822,-94.9673 389.115,-83.4827 398.794,-75.7511"/>
<polygon fill="midnightblue" stroke="midnightblue" points="365.122,-102.289 361.081,-112.083 370.348,-106.947 365.122,-102.289"/>
</g>
<!-- Node7&#45;&gt;Node6 -->
<g id="edge8" class="edge"><title>Node7&#45;&gt;Node6</title>
<path fill="none" stroke="midnightblue" d="M322.942,-82.2334C333.988,-91.8664 346.228,-103.984 352.919,-112.083"/>
<polygon fill="midnightblue" stroke="midnightblue" points="325.119,-79.4911 315.206,-75.7511 320.623,-84.8565 325.119,-79.4911"/>
</g>
<!-- Node8 -->
<g id="node8" class="node"><title>Node8</title>
<g id="a_node8"><a xlink:href="ch2__8_8c_09_09.html" target="_top" xlink:title=" ">
<polygon fill="white" stroke="black" points="269.5,-0.5 269.5,-19.5 332.5,-19.5 332.5,-0.5 269.5,-0.5"/>
<text text-anchor="middle" x="301" y="-7.5" font-family="Helvetica,sans-Serif" font-size="10.00">ch2_8.c++</text>
</a>
</g>
</g>
<!-- Node7&#45;&gt;Node8 -->
<g id="edge7" class="edge"><title>Node7&#45;&gt;Node8</title>
<path fill="none" stroke="midnightblue" d="M301,-45.8045C301,-36.9102 301,-26.7798 301,-19.7511"/>
<polygon fill="midnightblue" stroke="midnightblue" points="297.5,-46.083 301,-56.083 304.5,-46.083 297.5,-46.083"/>
</g>
<!-- Node9&#45;&gt;Node6 -->
<g id="edge12" class="edge"><title>Node9&#45;&gt;Node6</title>
<path fill="none" stroke="midnightblue" d="M402.153,-83.5112C393.199,-93.0168 380.824,-104.576 371.112,-112.324"/>
<polygon fill="midnightblue" stroke="midnightblue" points="404.952,-85.6301 408.988,-75.8339 399.724,-80.9754 404.952,-85.6301"/>
</g>
<!-- Node10 -->
<g id="node10" class="node"><title>Node10</title>
<g id="a_node10"><a xlink:href="ch2__7_8cc.html" target="_top" xlink:title=" ">
<polygon fill="white" stroke="black" points="385,-0.5 385,-19.5 441,-19.5 441,-0.5 385,-0.5"/>
<text text-anchor="middle" x="413" y="-7.5" font-family="Helvetica,sans-Serif" font-size="10.00">ch2_7.cc</text>
</a>
</g>
</g>
<!-- Node9&#45;&gt;Node10 -->
<g id="edge11" class="edge"><title>Node9&#45;&gt;Node10</title>
<path fill="none" stroke="midnightblue" d="M413,-45.8045C413,-36.9102 413,-26.7798 413,-19.7511"/>
<polygon fill="midnightblue" stroke="midnightblue" points="409.5,-46.083 413,-56.083 416.5,-46.083 409.5,-46.083"/>
</g>
</g>
</svg>
