<?xml version="1.0" encoding="UTF-8" standalone="no"?>
<!DOCTYPE svg PUBLIC "-//W3C//DTD SVG 1.1//EN"
 "http://www.w3.org/Graphics/SVG/1.1/DTD/svg11.dtd">
<!-- Generated by graphviz version 2.38.0 (20140413.2041)
 -->
<!-- Title: include/seqList.h Pages: 1 -->
<svg width="392pt" height="196pt"
 viewBox="0.00 0.00 391.50 196.00" xmlns="http://www.w3.org/2000/svg" xmlns:xlink="http://www.w3.org/1999/xlink">
<g id="graph0" class="graph" transform="scale(1 1) rotate(0) translate(4 192)">
<title>include/seqList.h</title>
<polygon fill="white" stroke="none" points="-4,4 -4,-192 387.5,-192 387.5,4 -4,4"/>
<!-- Node1 -->
<g id="node1" class="node"><title>Node1</title>
<g id="a_node1"><a xlink:title=" ">
<polygon fill="#bfbfbf" stroke="black" points="89.5,-168.5 89.5,-187.5 179.5,-187.5 179.5,-168.5 89.5,-168.5"/>
<text text-anchor="middle" x="134.5" y="-175.5" font-family="Helvetica,sans-Serif" font-size="10.00">include/seqList.h</text>
</a>
</g>
</g>
<!-- Node2 -->
<g id="node2" class="node"><title>Node2</title>
<g id="a_node2"><a xlink:href="ch2__7_8cc.html" target="_top" xlink:title=" ">
<polygon fill="white" stroke="black" points="23.5,-112.5 23.5,-131.5 79.5,-131.5 79.5,-112.5 23.5,-112.5"/>
<text text-anchor="middle" x="51.5" y="-119.5" font-family="Helvetica,sans-Serif" font-size="10.00">ch2_7.cc</text>
</a>
</g>
</g>
<!-- Node1&#45;&gt;Node2 -->
<g id="edge1" class="edge"><title>Node1&#45;&gt;Node2</title>
<path fill="none" stroke="midnightblue" d="M112.401,-162.622C97.2382,-152.757 77.6172,-139.992 64.8023,-131.655"/>
<polygon fill="midnightblue" stroke="midnightblue" points="110.874,-165.804 121.165,-168.324 114.691,-159.937 110.874,-165.804"/>
</g>
<!-- Node3 -->
<g id="node3" class="node"><title>Node3</title>
<g id="a_node3"><a xlink:href="_list_8h.html" target="_top" xlink:title=" ">
<polygon fill="white" stroke="black" points="97.5,-112.5 97.5,-131.5 171.5,-131.5 171.5,-112.5 97.5,-112.5"/>
<text text-anchor="middle" x="134.5" y="-119.5" font-family="Helvetica,sans-Serif" font-size="10.00">include/List.h</text>
</a>
</g>
</g>
<!-- Node1&#45;&gt;Node3 -->
<g id="edge2" class="edge"><title>Node1&#45;&gt;Node3</title>
<path fill="none" stroke="midnightblue" d="M128.028,-158.101C127.396,-149.136 127.843,-138.858 129.369,-131.751"/>
<polygon fill="midnightblue" stroke="midnightblue" points="124.566,-158.622 129.334,-168.083 131.507,-157.713 124.566,-158.622"/>
</g>
<!-- Node3&#45;&gt;Node1 -->
<g id="edge12" class="edge"><title>Node3&#45;&gt;Node1</title>
<path fill="none" stroke="midnightblue" d="M140.958,-141.691C141.606,-150.635 141.176,-160.927 139.666,-168.083"/>
<polygon fill="midnightblue" stroke="midnightblue" points="144.423,-141.2 139.631,-131.751 137.485,-142.126 144.423,-141.2"/>
</g>
<!-- Node4 -->
<g id="node4" class="node"><title>Node4</title>
<g id="a_node4"><a xlink:href="d_link_list_8h.html" target="_top" xlink:title=" ">
<polygon fill="white" stroke="black" points="27.5,-56.5 27.5,-75.5 125.5,-75.5 125.5,-56.5 27.5,-56.5"/>
<text text-anchor="middle" x="76.5" y="-63.5" font-family="Helvetica,sans-Serif" font-size="10.00">include/dLinkList.h</text>
</a>
</g>
</g>
<!-- Node3&#45;&gt;Node4 -->
<g id="edge3" class="edge"><title>Node3&#45;&gt;Node4</title>
<path fill="none" stroke="midnightblue" d="M112.056,-105.82C100.598,-96.1452 87.8278,-83.9481 80.8395,-75.8339"/>
<polygon fill="midnightblue" stroke="midnightblue" points="110.097,-108.737 120.066,-112.324 114.51,-103.303 110.097,-108.737"/>
</g>
<!-- Node6 -->
<g id="node6" class="node"><title>Node6</title>
<g id="a_node6"><a xlink:href="s_link_list_8h.html" target="_top" xlink:title=" ">
<polygon fill="white" stroke="black" points="143.5,-56.5 143.5,-75.5 241.5,-75.5 241.5,-56.5 143.5,-56.5"/>
<text text-anchor="middle" x="192.5" y="-63.5" font-family="Helvetica,sans-Serif" font-size="10.00">include/sLinkList.h</text>
</a>
</g>
</g>
<!-- Node3&#45;&gt;Node6 -->
<g id="edge6" class="edge"><title>Node3&#45;&gt;Node6</title>
<path fill="none" stroke="midnightblue" d="M145.735,-104.718C155.029,-95.1997 167.904,-83.5608 177.97,-75.7511"/>
<polygon fill="midnightblue" stroke="midnightblue" points="143.14,-102.369 138.911,-112.083 148.275,-107.126 143.14,-102.369"/>
</g>
<!-- Node4&#45;&gt;Node3 -->
<g id="edge5" class="edge"><title>Node4&#45;&gt;Node3</title>
<path fill="none" stroke="midnightblue" d="M99.0063,-82.2334C110.409,-91.8664 123.098,-103.984 130.089,-112.083"/>
<polygon fill="midnightblue" stroke="midnightblue" points="100.998,-79.342 91.0303,-75.7511 96.5832,-84.7742 100.998,-79.342"/>
</g>
<!-- Node5 -->
<g id="node5" class="node"><title>Node5</title>
<g id="a_node5"><a xlink:href="ch2__8_8c_09_09.html" target="_top" xlink:title=" ">
<polygon fill="white" stroke="black" points="0,-0.5 0,-19.5 63,-19.5 63,-0.5 0,-0.5"/>
<text text-anchor="middle" x="31.5" y="-7.5" font-family="Helvetica,sans-Serif" font-size="10.00">ch2_8.c++</text>
</a>
</g>
</g>
<!-- Node4&#45;&gt;Node5 -->
<g id="edge4" class="edge"><title>Node4&#45;&gt;Node5</title>
<path fill="none" stroke="midnightblue" d="M62.4533,-48.144C54.6131,-38.7357 45.1705,-27.4046 38.7926,-19.7511"/>
<polygon fill="midnightblue" stroke="midnightblue" points="59.9785,-50.6414 69.0692,-56.083 65.3561,-46.1601 59.9785,-50.6414"/>
</g>
<!-- Node6&#45;&gt;Node3 -->
<g id="edge11" class="edge"><title>Node6&#45;&gt;Node3</title>
<path fill="none" stroke="midnightblue" d="M181.322,-83.2238C171.994,-92.7829 159.034,-104.498 148.934,-112.324"/>
<polygon fill="midnightblue" stroke="midnightblue" points="183.937,-85.5507 188.16,-75.8339 178.8,-80.7963 183.937,-85.5507"/>
</g>
<!-- Node7 -->
<g id="node7" class="node"><title>Node7</title>
<g id="a_node7"><a xlink:href="ch2__1_8cxx.html" target="_top" xlink:title=" ">
<polygon fill="white" stroke="black" points="81.5,-0.5 81.5,-19.5 143.5,-19.5 143.5,-0.5 81.5,-0.5"/>
<text text-anchor="middle" x="112.5" y="-7.5" font-family="Helvetica,sans-Serif" font-size="10.00">ch2_1.cxx</text>
</a>
</g>
</g>
<!-- Node6&#45;&gt;Node7 -->
<g id="edge7" class="edge"><title>Node6&#45;&gt;Node7</title>
<path fill="none" stroke="midnightblue" d="M171.199,-50.6221C156.585,-40.7574 137.673,-27.9919 125.321,-19.6545"/>
<polygon fill="midnightblue" stroke="midnightblue" points="169.4,-53.6302 179.647,-56.324 173.316,-47.8282 169.4,-53.6302"/>
</g>
<!-- Node8 -->
<g id="node8" class="node"><title>Node8</title>
<g id="a_node8"><a xlink:href="ch2__10_8cc.html" target="_top" xlink:title=" ">
<polygon fill="white" stroke="black" points="161.5,-0.5 161.5,-19.5 223.5,-19.5 223.5,-0.5 161.5,-0.5"/>
<text text-anchor="middle" x="192.5" y="-7.5" font-family="Helvetica,sans-Serif" font-size="10.00">ch2_10.cc</text>
</a>
</g>
</g>
<!-- Node6&#45;&gt;Node8 -->
<g id="edge8" class="edge"><title>Node6&#45;&gt;Node8</title>
<path fill="none" stroke="midnightblue" d="M192.5,-45.8045C192.5,-36.9102 192.5,-26.7798 192.5,-19.7511"/>
<polygon fill="midnightblue" stroke="midnightblue" points="189,-46.083 192.5,-56.083 196,-46.083 189,-46.083"/>
</g>
<!-- Node9 -->
<g id="node9" class="node"><title>Node9</title>
<g id="a_node9"><a xlink:href="ch2__6_8cxx.html" target="_top" xlink:title=" ">
<polygon fill="white" stroke="black" points="241.5,-0.5 241.5,-19.5 303.5,-19.5 303.5,-0.5 241.5,-0.5"/>
<text text-anchor="middle" x="272.5" y="-7.5" font-family="Helvetica,sans-Serif" font-size="10.00">ch2_6.cxx</text>
</a>
</g>
</g>
<!-- Node6&#45;&gt;Node9 -->
<g id="edge9" class="edge"><title>Node6&#45;&gt;Node9</title>
<path fill="none" stroke="midnightblue" d="M213.801,-50.6221C228.415,-40.7574 247.327,-27.9919 259.679,-19.6545"/>
<polygon fill="midnightblue" stroke="midnightblue" points="211.684,-47.8282 205.353,-56.324 215.6,-53.6302 211.684,-47.8282"/>
</g>
<!-- Node10 -->
<g id="node10" class="node"><title>Node10</title>
<g id="a_node10"><a xlink:href="ch2__9_8cpp.html" target="_top" xlink:title=" ">
<polygon fill="white" stroke="black" points="321.5,-0.5 321.5,-19.5 383.5,-19.5 383.5,-0.5 321.5,-0.5"/>
<text text-anchor="middle" x="352.5" y="-7.5" font-family="Helvetica,sans-Serif" font-size="10.00">ch2_9.cpp</text>
</a>
</g>
</g>
<!-- Node6&#45;&gt;Node10 -->
<g id="edge10" class="edge"><title>Node6&#45;&gt;Node10</title>
<path fill="none" stroke="midnightblue" d="M227.546,-53.172C257.674,-43.0039 300.396,-28.5852 327.266,-19.5164"/>
<polygon fill="midnightblue" stroke="midnightblue" points="226.208,-49.9295 217.852,-56.4435 228.447,-56.5619 226.208,-49.9295"/>
</g>
</g>
</svg>
